# CargoTrackLift1UpForward - generated by Tools/generate_meshes.py, do not hand-edit
# Regenerate with: python Tools/generate_meshes.py
o CargoTrackLift1UpForward
v 7.50000 2.08000 3.70000
v 7.50000 2.08000 -3.70000
v 10.00000 -0.42000 -3.70000
v 10.00000 -0.42000 3.70000
v 7.50000 2.50000 3.70000
v 10.00000 0.00000 3.70000
v 7.50000 2.50000 -3.70000
v 10.00000 0.00000 -3.70000
v 5.00000 4.58000 3.70000
v 5.00000 4.58000 -3.70000
v 5.00000 5.00000 3.70000
v 5.00000 5.00000 -3.70000
v 2.50000 7.08000 3.70000
v 2.50000 7.08000 -3.70000
v 2.50000 7.50000 3.70000
v 2.50000 7.50000 -3.70000
v -0.00000 9.58000 3.70000
v -0.00000 9.58000 -3.70000
v -0.00000 10.00000 3.70000
v -0.00000 10.00000 -3.70000
v -2.50000 12.08000 3.70000
v -2.50000 12.08000 -3.70000
v -2.50000 12.50000 3.70000
v -2.50000 12.50000 -3.70000
v -5.00000 14.58000 3.70000
v -5.00000 14.58000 -3.70000
v -5.00000 15.00000 3.70000
v -5.00000 15.00000 -3.70000
v -7.50000 17.08000 3.70000
v -7.50000 17.08000 -3.70000
v -7.50000 17.50000 3.70000
v -7.50000 17.50000 -3.70000
v -10.00000 19.58000 3.70000
v -10.00000 19.58000 -3.70000
v -10.00000 20.00000 3.70000
v -10.00000 20.00000 -3.70000
v 7.50000 2.08000 -4.45000
v 10.00000 -0.42000 -4.45000
v 7.50000 3.65000 -3.70000
v 10.00000 1.15000 -3.70000
v 7.50000 3.65000 -4.45000
v 10.00000 1.15000 -4.45000
v 5.00000 4.58000 -4.45000
v 5.00000 6.15000 -3.70000
v 5.00000 6.15000 -4.45000
v 2.50000 7.08000 -4.45000
v 2.50000 8.65000 -3.70000
v 2.50000 8.65000 -4.45000
v -0.00000 9.58000 -4.45000
v -0.00000 11.15000 -3.70000
v -0.00000 11.15000 -4.45000
v -2.50000 12.08000 -4.45000
v -2.50000 13.65000 -3.70000
v -2.50000 13.65000 -4.45000
v -5.00000 14.58000 -4.45000
v -5.00000 16.15000 -3.70000
v -5.00000 16.15000 -4.45000
v -7.50000 17.08000 -4.45000
v -7.50000 18.65000 -3.70000
v -7.50000 18.65000 -4.45000
v -10.00000 19.58000 -4.45000
v -10.00000 21.15000 -3.70000
v -10.00000 21.15000 -4.45000
v 7.50000 2.08000 4.45000
v 10.00000 -0.42000 4.45000
v 7.50000 3.65000 4.45000
v 10.00000 1.15000 4.45000
v 7.50000 3.65000 3.70000
v 10.00000 1.15000 3.70000
v 5.00000 4.58000 4.45000
v 5.00000 6.15000 4.45000
v 5.00000 6.15000 3.70000
v 2.50000 7.08000 4.45000
v 2.50000 8.65000 4.45000
v 2.50000 8.65000 3.70000
v -0.00000 9.58000 4.45000
v -0.00000 11.15000 4.45000
v -0.00000 11.15000 3.70000
v -2.50000 12.08000 4.45000
v -2.50000 13.65000 4.45000
v -2.50000 13.65000 3.70000
v -5.00000 14.58000 4.45000
v -5.00000 16.15000 4.45000
v -5.00000 16.15000 3.70000
v -7.50000 17.08000 4.45000
v -7.50000 18.65000 4.45000
v -7.50000 18.65000 3.70000
v -10.00000 19.58000 4.45000
v -10.00000 21.15000 4.45000
v -10.00000 21.15000 3.70000
v 7.50000 3.60000 -3.55000
v 7.50000 3.60000 -4.60000
v 10.00000 1.10000 -4.60000
v 10.00000 1.10000 -3.55000
v 7.50000 3.92000 -3.55000
v 10.00000 1.42000 -3.55000
v 7.50000 3.92000 -4.60000
v 10.00000 1.42000 -4.60000
v 5.00000 6.10000 -3.55000
v 5.00000 6.10000 -4.60000
v 5.00000 6.42000 -3.55000
v 5.00000 6.42000 -4.60000
v 2.50000 8.60000 -3.55000
v 2.50000 8.60000 -4.60000
v 2.50000 8.92000 -3.55000
v 2.50000 8.92000 -4.60000
v -0.00000 11.10000 -3.55000
v -0.00000 11.10000 -4.60000
v -0.00000 11.42000 -3.55000
v -0.00000 11.42000 -4.60000
v -2.50000 13.60000 -3.55000
v -2.50000 13.60000 -4.60000
v -2.50000 13.92000 -3.55000
v -2.50000 13.92000 -4.60000
v -5.00000 16.10000 -3.55000
v -5.00000 16.10000 -4.60000
v -5.00000 16.42000 -3.55000
v -5.00000 16.42000 -4.60000
v -7.50000 18.60000 -3.55000
v -7.50000 18.60000 -4.60000
v -7.50000 18.92000 -3.55000
v -7.50000 18.92000 -4.60000
v -10.00000 21.10000 -3.55000
v -10.00000 21.10000 -4.60000
v -10.00000 21.42000 -3.55000
v -10.00000 21.42000 -4.60000
v 7.50000 3.60000 4.60000
v 7.50000 3.60000 3.55000
v 10.00000 1.10000 3.55000
v 10.00000 1.10000 4.60000
v 7.50000 3.92000 4.60000
v 10.00000 1.42000 4.60000
v 7.50000 3.92000 3.55000
v 10.00000 1.42000 3.55000
v 5.00000 6.10000 4.60000
v 5.00000 6.10000 3.55000
v 5.00000 6.42000 4.60000
v 5.00000 6.42000 3.55000
v 2.50000 8.60000 4.60000
v 2.50000 8.60000 3.55000
v 2.50000 8.92000 4.60000
v 2.50000 8.92000 3.55000
v -0.00000 11.10000 4.60000
v -0.00000 11.10000 3.55000
v -0.00000 11.42000 4.60000
v -0.00000 11.42000 3.55000
v -2.50000 13.60000 4.60000
v -2.50000 13.60000 3.55000
v -2.50000 13.92000 4.60000
v -2.50000 13.92000 3.55000
v -5.00000 16.10000 4.60000
v -5.00000 16.10000 3.55000
v -5.00000 16.42000 4.60000
v -5.00000 16.42000 3.55000
v -7.50000 18.60000 4.60000
v -7.50000 18.60000 3.55000
v -7.50000 18.92000 4.60000
v -7.50000 18.92000 3.55000
v -10.00000 21.10000 4.60000
v -10.00000 21.10000 3.55000
v -10.00000 21.42000 4.60000
v -10.00000 21.42000 3.55000
v 5.00000 4.56000 3.40000
v 5.00000 4.56000 -3.40000
v 7.50000 2.06000 -3.40000
v 7.50000 2.06000 3.40000
v 5.00000 4.82000 3.40000
v 7.50000 2.32000 3.40000
v 5.00000 4.82000 -3.40000
v 7.50000 2.32000 -3.40000
v -0.00000 9.56000 3.40000
v -0.00000 9.56000 -3.40000
v 2.50000 7.06000 -3.40000
v 2.50000 7.06000 3.40000
v -0.00000 9.82000 3.40000
v 2.50000 7.32000 3.40000
v -0.00000 9.82000 -3.40000
v 2.50000 7.32000 -3.40000
v -5.00000 14.56000 3.40000
v -5.00000 14.56000 -3.40000
v -2.50000 12.06000 -3.40000
v -2.50000 12.06000 3.40000
v -5.00000 14.82000 3.40000
v -2.50000 12.32000 3.40000
v -5.00000 14.82000 -3.40000
v -2.50000 12.32000 -3.40000
v -10.00000 19.56000 3.40000
v -10.00000 19.56000 -3.40000
v -7.50000 17.06000 -3.40000
v -7.50000 17.06000 3.40000
v -10.00000 19.82000 3.40000
v -7.50000 17.32000 3.40000
v -10.00000 19.82000 -3.40000
v -7.50000 17.32000 -3.40000
vt 0.07000 0.01000
vt 0.06000 0.01000
vt 0.02000 0.01000
vt 0.08000 0.01000
vn -0.70711 -0.70711 -0.00000
vn 0.00000 0.00000 1.00000
vn 0.70711 0.70711 -0.00000
vn 0.00000 0.00000 -1.00000
vn -0.70711 -0.70711 -0.00000
vn 1.00000 0.00000 0.00000
vn -1.00000 0.00000 0.00000
vn 0.70711 0.70711 -0.00000
vn 0.70711 0.70711 -0.00000
vn -0.70711 -0.70711 -0.00000
vn -0.70711 -0.70711 -0.00000
vn 0.70711 0.70711 -0.00000
vn -0.70711 -0.70711 -0.00000
vn -0.70711 -0.70711 -0.00000
vn 0.70711 0.70711 -0.00000
vn 0.70711 0.70711 -0.00000
vn -0.70711 -0.70711 -0.00000
f 1/1/1 2/1/1 3/1/1
f 4/1/1 1/1/1 3/1/1
f 5/1/2 1/1/2 4/1/2
f 6/1/2 5/1/2 4/1/2
f 7/1/3 5/1/3 6/1/3
f 8/1/3 7/1/3 6/1/3
f 2/1/4 7/1/4 8/1/4
f 3/1/4 2/1/4 8/1/4
f 9/1/1 10/1/1 2/1/1
f 1/1/1 9/1/1 2/1/1
f 11/1/2 9/1/2 1/1/2
f 5/1/2 11/1/2 1/1/2
f 12/1/3 11/1/3 5/1/3
f 7/1/3 12/1/3 5/1/3
f 10/1/4 12/1/4 7/1/4
f 2/1/4 10/1/4 7/1/4
f 13/1/1 14/1/1 10/1/1
f 9/1/1 13/1/1 10/1/1
f 15/1/2 13/1/2 9/1/2
f 11/1/2 15/1/2 9/1/2
f 16/1/3 15/1/3 11/1/3
f 12/1/3 16/1/3 11/1/3
f 14/1/4 16/1/4 12/1/4
f 10/1/4 14/1/4 12/1/4
f 17/1/1 18/1/1 14/1/1
f 13/1/1 17/1/1 14/1/1
f 19/1/2 17/1/2 13/1/2
f 15/1/2 19/1/2 13/1/2
f 20/1/3 19/1/3 15/1/3
f 16/1/3 20/1/3 15/1/3
f 18/1/4 20/1/4 16/1/4
f 14/1/4 18/1/4 16/1/4
f 21/1/1 22/1/1 18/1/1
f 17/1/1 21/1/1 18/1/1
f 23/1/2 21/1/2 17/1/2
f 19/1/2 23/1/2 17/1/2
f 24/1/3 23/1/3 19/1/3
f 20/1/3 24/1/3 19/1/3
f 22/1/4 24/1/4 20/1/4
f 18/1/4 22/1/4 20/1/4
f 25/1/1 26/1/1 22/1/1
f 21/1/1 25/1/1 22/1/1
f 27/1/2 25/1/2 21/1/2
f 23/1/2 27/1/2 21/1/2
f 28/1/3 27/1/3 23/1/3
f 24/1/3 28/1/3 23/1/3
f 26/1/4 28/1/4 24/1/4
f 22/1/4 26/1/4 24/1/4
f 29/1/5 30/1/5 26/1/5
f 25/1/5 29/1/5 26/1/5
f 31/1/2 29/1/2 25/1/2
f 27/1/2 31/1/2 25/1/2
f 32/1/3 31/1/3 27/1/3
f 28/1/3 32/1/3 27/1/3
f 30/1/4 32/1/4 28/1/4
f 26/1/4 30/1/4 28/1/4
f 33/1/1 34/1/1 30/1/1
f 29/1/1 33/1/1 30/1/1
f 35/1/2 33/1/2 29/1/2
f 31/1/2 35/1/2 29/1/2
f 36/1/3 35/1/3 31/1/3
f 32/1/3 36/1/3 31/1/3
f 34/1/4 36/1/4 32/1/4
f 30/1/4 34/1/4 32/1/4
f 6/1/6 4/1/6 3/1/6
f 8/1/6 6/1/6 3/1/6
f 33/1/7 35/1/7 34/1/7
f 35/1/7 36/1/7 34/1/7
f 2/2/1 37/2/1 38/2/1
f 3/2/1 2/2/1 38/2/1
f 39/2/2 2/2/2 3/2/2
f 40/2/2 39/2/2 3/2/2
f 41/2/3 39/2/3 40/2/3
f 42/2/3 41/2/3 40/2/3
f 37/2/4 41/2/4 42/2/4
f 38/2/4 37/2/4 42/2/4
f 10/2/1 43/2/1 37/2/1
f 2/2/1 10/2/1 37/2/1
f 44/2/2 10/2/2 2/2/2
f 39/2/2 44/2/2 2/2/2
f 45/2/8 44/2/8 39/2/8
f 41/2/8 45/2/8 39/2/8
f 43/2/4 45/2/4 41/2/4
f 37/2/4 43/2/4 41/2/4
f 14/2/1 46/2/1 43/2/1
f 10/2/1 14/2/1 43/2/1
f 47/2/2 14/2/2 10/2/2
f 44/2/2 47/2/2 10/2/2
f 48/2/3 47/2/3 44/2/3
f 45/2/3 48/2/3 44/2/3
f 46/2/4 48/2/4 45/2/4
f 43/2/4 46/2/4 45/2/4
f 18/2/1 49/2/1 46/2/1
f 14/2/1 18/2/1 46/2/1
f 50/2/2 18/2/2 14/2/2
f 47/2/2 50/2/2 14/2/2
f 51/2/3 50/2/3 47/2/3
f 48/2/3 51/2/3 47/2/3
f 49/2/4 51/2/4 48/2/4
f 46/2/4 49/2/4 48/2/4
f 22/2/1 52/2/1 49/2/1
f 18/2/1 22/2/1 49/2/1
f 53/2/2 22/2/2 18/2/2
f 50/2/2 53/2/2 18/2/2
f 54/2/3 53/2/3 50/2/3
f 51/2/3 54/2/3 50/2/3
f 52/2/4 54/2/4 51/2/4
f 49/2/4 52/2/4 51/2/4
f 26/2/1 55/2/1 52/2/1
f 22/2/1 26/2/1 52/2/1
f 56/2/2 26/2/2 22/2/2
f 53/2/2 56/2/2 22/2/2
f 57/2/9 56/2/9 53/2/9
f 54/2/9 57/2/9 53/2/9
f 55/2/4 57/2/4 54/2/4
f 52/2/4 55/2/4 54/2/4
f 30/2/10 58/2/10 55/2/10
f 26/2/10 30/2/10 55/2/10
f 59/2/2 30/2/2 26/2/2
f 56/2/2 59/2/2 26/2/2
f 60/2/3 59/2/3 56/2/3
f 57/2/3 60/2/3 56/2/3
f 58/2/4 60/2/4 57/2/4
f 55/2/4 58/2/4 57/2/4
f 34/2/1 61/2/1 58/2/1
f 30/2/1 34/2/1 58/2/1
f 62/2/2 34/2/2 30/2/2
f 59/2/2 62/2/2 30/2/2
f 63/2/3 62/2/3 59/2/3
f 60/2/3 63/2/3 59/2/3
f 61/2/4 63/2/4 60/2/4
f 58/2/4 61/2/4 60/2/4
f 40/2/6 3/2/6 38/2/6
f 42/2/6 40/2/6 38/2/6
f 34/2/7 62/2/7 61/2/7
f 62/2/7 63/2/7 61/2/7
f 64/2/1 1/2/1 4/2/1
f 65/2/1 64/2/1 4/2/1
f 66/2/2 64/2/2 65/2/2
f 67/2/2 66/2/2 65/2/2
f 68/2/3 66/2/3 67/2/3
f 69/2/3 68/2/3 67/2/3
f 1/2/4 68/2/4 69/2/4
f 4/2/4 1/2/4 69/2/4
f 70/2/1 9/2/1 1/2/1
f 64/2/1 70/2/1 1/2/1
f 71/2/2 70/2/2 64/2/2
f 66/2/2 71/2/2 64/2/2
f 72/2/8 71/2/8 66/2/8
f 68/2/8 72/2/8 66/2/8
f 9/2/4 72/2/4 68/2/4
f 1/2/4 9/2/4 68/2/4
f 73/2/1 13/2/1 9/2/1
f 70/2/1 73/2/1 9/2/1
f 74/2/2 73/2/2 70/2/2
f 71/2/2 74/2/2 70/2/2
f 75/2/3 74/2/3 71/2/3
f 72/2/3 75/2/3 71/2/3
f 13/2/4 75/2/4 72/2/4
f 9/2/4 13/2/4 72/2/4
f 76/2/1 17/2/1 13/2/1
f 73/2/1 76/2/1 13/2/1
f 77/2/2 76/2/2 73/2/2
f 74/2/2 77/2/2 73/2/2
f 78/2/3 77/2/3 74/2/3
f 75/2/3 78/2/3 74/2/3
f 17/2/4 78/2/4 75/2/4
f 13/2/4 17/2/4 75/2/4
f 79/2/1 21/2/1 17/2/1
f 76/2/1 79/2/1 17/2/1
f 80/2/2 79/2/2 76/2/2
f 77/2/2 80/2/2 76/2/2
f 81/2/3 80/2/3 77/2/3
f 78/2/3 81/2/3 77/2/3
f 21/2/4 81/2/4 78/2/4
f 17/2/4 21/2/4 78/2/4
f 82/2/1 25/2/1 21/2/1
f 79/2/1 82/2/1 21/2/1
f 83/2/2 82/2/2 79/2/2
f 80/2/2 83/2/2 79/2/2
f 84/2/9 83/2/9 80/2/9
f 81/2/9 84/2/9 80/2/9
f 25/2/4 84/2/4 81/2/4
f 21/2/4 25/2/4 81/2/4
f 85/2/10 29/2/10 25/2/10
f 82/2/10 85/2/10 25/2/10
f 86/2/2 85/2/2 82/2/2
f 83/2/2 86/2/2 82/2/2
f 87/2/3 86/2/3 83/2/3
f 84/2/3 87/2/3 83/2/3
f 29/2/4 87/2/4 84/2/4
f 25/2/4 29/2/4 84/2/4
f 88/2/1 33/2/1 29/2/1
f 85/2/1 88/2/1 29/2/1
f 89/2/2 88/2/2 85/2/2
f 86/2/2 89/2/2 85/2/2
f 90/2/3 89/2/3 86/2/3
f 87/2/3 90/2/3 86/2/3
f 33/2/4 90/2/4 87/2/4
f 29/2/4 33/2/4 87/2/4
f 67/2/6 65/2/6 4/2/6
f 69/2/6 67/2/6 4/2/6
f 88/2/7 89/2/7 33/2/7
f 89/2/7 90/2/7 33/2/7
f 91/3/11 92/3/11 93/3/11
f 94/3/11 91/3/11 93/3/11
f 95/3/2 91/3/2 94/3/2
f 96/3/2 95/3/2 94/3/2
f 97/3/12 95/3/12 96/3/12
f 98/3/12 97/3/12 96/3/12
f 92/3/4 97/3/4 98/3/4
f 93/3/4 92/3/4 98/3/4
f 99/3/13 100/3/13 92/3/13
f 91/3/13 99/3/13 92/3/13
f 101/3/2 99/3/2 91/3/2
f 95/3/2 101/3/2 91/3/2
f 102/3/12 101/3/12 95/3/12
f 97/3/12 102/3/12 95/3/12
f 100/3/4 102/3/4 97/3/4
f 92/3/4 100/3/4 97/3/4
f 103/3/11 104/3/11 100/3/11
f 99/3/11 103/3/11 100/3/11
f 105/3/2 103/3/2 99/3/2
f 101/3/2 105/3/2 99/3/2
f 106/3/12 105/3/12 101/3/12
f 102/3/12 106/3/12 101/3/12
f 104/3/4 106/3/4 102/3/4
f 100/3/4 104/3/4 102/3/4
f 107/3/11 108/3/11 104/3/11
f 103/3/11 107/3/11 104/3/11
f 109/3/2 107/3/2 103/3/2
f 105/3/2 109/3/2 103/3/2
f 110/3/12 109/3/12 105/3/12
f 106/3/12 110/3/12 105/3/12
f 108/3/4 110/3/4 106/3/4
f 104/3/4 108/3/4 106/3/4
f 111/3/11 112/3/11 108/3/11
f 107/3/11 111/3/11 108/3/11
f 113/3/2 111/3/2 107/3/2
f 109/3/2 113/3/2 107/3/2
f 114/3/12 113/3/12 109/3/12
f 110/3/12 114/3/12 109/3/12
f 112/3/4 114/3/4 110/3/4
f 108/3/4 112/3/4 110/3/4
f 115/3/14 116/3/14 112/3/14
f 111/3/14 115/3/14 112/3/14
f 117/3/2 115/3/2 111/3/2
f 113/3/2 117/3/2 111/3/2
f 118/3/15 117/3/15 113/3/15
f 114/3/15 118/3/15 113/3/15
f 116/3/4 118/3/4 114/3/4
f 112/3/4 116/3/4 114/3/4
f 119/3/11 120/3/11 116/3/11
f 115/3/11 119/3/11 116/3/11
f 121/3/2 119/3/2 115/3/2
f 117/3/2 121/3/2 115/3/2
f 122/3/12 121/3/12 117/3/12
f 118/3/12 122/3/12 117/3/12
f 120/3/4 122/3/4 118/3/4
f 116/3/4 120/3/4 118/3/4
f 123/3/11 124/3/11 120/3/11
f 119/3/11 123/3/11 120/3/11
f 125/3/2 123/3/2 119/3/2
f 121/3/2 125/3/2 119/3/2
f 126/3/12 125/3/12 121/3/12
f 122/3/12 126/3/12 121/3/12
f 124/3/4 126/3/4 122/3/4
f 120/3/4 124/3/4 122/3/4
f 96/3/6 94/3/6 93/3/6
f 98/3/6 96/3/6 93/3/6
f 123/3/7 125/3/7 124/3/7
f 125/3/7 126/3/7 124/3/7
f 127/3/11 128/3/11 129/3/11
f 130/3/11 127/3/11 129/3/11
f 131/3/2 127/3/2 130/3/2
f 132/3/2 131/3/2 130/3/2
f 133/3/12 131/3/12 132/3/12
f 134/3/12 133/3/12 132/3/12
f 128/3/4 133/3/4 134/3/4
f 129/3/4 128/3/4 134/3/4
f 135/3/13 136/3/13 128/3/13
f 127/3/13 135/3/13 128/3/13
f 137/3/2 135/3/2 127/3/2
f 131/3/2 137/3/2 127/3/2
f 138/3/12 137/3/12 131/3/12
f 133/3/12 138/3/12 131/3/12
f 136/3/4 138/3/4 133/3/4
f 128/3/4 136/3/4 133/3/4
f 139/3/11 140/3/11 136/3/11
f 135/3/11 139/3/11 136/3/11
f 141/3/2 139/3/2 135/3/2
f 137/3/2 141/3/2 135/3/2
f 142/3/12 141/3/12 137/3/12
f 138/3/12 142/3/12 137/3/12
f 140/3/4 142/3/4 138/3/4
f 136/3/4 140/3/4 138/3/4
f 143/3/11 144/3/11 140/3/11
f 139/3/11 143/3/11 140/3/11
f 145/3/2 143/3/2 139/3/2
f 141/3/2 145/3/2 139/3/2
f 146/3/12 145/3/12 141/3/12
f 142/3/12 146/3/12 141/3/12
f 144/3/4 146/3/4 142/3/4
f 140/3/4 144/3/4 142/3/4
f 147/3/11 148/3/11 144/3/11
f 143/3/11 147/3/11 144/3/11
f 149/3/2 147/3/2 143/3/2
f 145/3/2 149/3/2 143/3/2
f 150/3/12 149/3/12 145/3/12
f 146/3/12 150/3/12 145/3/12
f 148/3/4 150/3/4 146/3/4
f 144/3/4 148/3/4 146/3/4
f 151/3/14 152/3/14 148/3/14
f 147/3/14 151/3/14 148/3/14
f 153/3/2 151/3/2 147/3/2
f 149/3/2 153/3/2 147/3/2
f 154/3/15 153/3/15 149/3/15
f 150/3/15 154/3/15 149/3/15
f 152/3/4 154/3/4 150/3/4
f 148/3/4 152/3/4 150/3/4
f 155/3/11 156/3/11 152/3/11
f 151/3/11 155/3/11 152/3/11
f 157/3/2 155/3/2 151/3/2
f 153/3/2 157/3/2 151/3/2
f 158/3/12 157/3/12 153/3/12
f 154/3/12 158/3/12 153/3/12
f 156/3/4 158/3/4 154/3/4
f 152/3/4 156/3/4 154/3/4
f 159/3/11 160/3/11 156/3/11
f 155/3/11 159/3/11 156/3/11
f 161/3/2 159/3/2 155/3/2
f 157/3/2 161/3/2 155/3/2
f 162/3/12 161/3/12 157/3/12
f 158/3/12 162/3/12 157/3/12
f 160/3/4 162/3/4 158/3/4
f 156/3/4 160/3/4 158/3/4
f 132/3/6 130/3/6 129/3/6
f 134/3/6 132/3/6 129/3/6
f 159/3/7 161/3/7 160/3/7
f 161/3/7 162/3/7 160/3/7
f 163/4/13 164/4/13 165/4/13
f 166/4/13 163/4/13 165/4/13
f 167/4/2 163/4/2 166/4/2
f 168/4/2 167/4/2 166/4/2
f 169/4/16 167/4/16 168/4/16
f 170/4/16 169/4/16 168/4/16
f 164/4/4 169/4/4 170/4/4
f 165/4/4 164/4/4 170/4/4
f 168/4/6 166/4/6 165/4/6
f 170/4/6 168/4/6 165/4/6
f 163/4/7 167/4/7 164/4/7
f 167/4/7 169/4/7 164/4/7
f 171/4/17 172/4/17 173/4/17
f 174/4/17 171/4/17 173/4/17
f 175/4/2 171/4/2 174/4/2
f 176/4/2 175/4/2 174/4/2
f 177/4/12 175/4/12 176/4/12
f 178/4/12 177/4/12 176/4/12
f 172/4/4 177/4/4 178/4/4
f 173/4/4 172/4/4 178/4/4
f 176/4/6 174/4/6 173/4/6
f 178/4/6 176/4/6 173/4/6
f 171/4/7 175/4/7 172/4/7
f 175/4/7 177/4/7 172/4/7
f 179/4/11 180/4/11 181/4/11
f 182/4/11 179/4/11 181/4/11
f 183/4/2 179/4/2 182/4/2
f 184/4/2 183/4/2 182/4/2
f 185/4/12 183/4/12 184/4/12
f 186/4/12 185/4/12 184/4/12
f 180/4/4 185/4/4 186/4/4
f 181/4/4 180/4/4 186/4/4
f 184/4/6 182/4/6 181/4/6
f 186/4/6 184/4/6 181/4/6
f 179/4/7 183/4/7 180/4/7
f 183/4/7 185/4/7 180/4/7
f 187/4/11 188/4/11 189/4/11
f 190/4/11 187/4/11 189/4/11
f 191/4/2 187/4/2 190/4/2
f 192/4/2 191/4/2 190/4/2
f 193/4/12 191/4/12 192/4/12
f 194/4/12 193/4/12 192/4/12
f 188/4/4 193/4/4 194/4/4
f 189/4/4 188/4/4 194/4/4
f 192/4/6 190/4/6 189/4/6
f 194/4/6 192/4/6 189/4/6
f 187/4/7 191/4/7 188/4/7
f 191/4/7 193/4/7 188/4/7
