# CargoTrackLift1UpRight - generated by Tools/generate_meshes.py, do not hand-edit
# Regenerate with: python Tools/generate_meshes.py
o CargoTrackLift1UpRight
v 7.32726 2.08000 3.43676
v 8.77093 2.08000 -3.82105
v 10.00000 -0.42000 -3.70000
v 10.00000 -0.42000 3.70000
v 7.32726 2.50000 3.43676
v 10.00000 0.00000 3.70000
v 8.77093 2.50000 -3.82105
v 10.00000 0.00000 -3.70000
v 4.75724 4.58000 2.65715
v 7.58909 4.58000 -4.17956
v 4.75724 5.00000 2.65715
v 7.58909 5.00000 -4.17956
v 2.38869 7.08000 1.39113
v 6.49991 7.08000 -4.76174
v 2.38869 7.50000 1.39113
v 6.49991 7.50000 -4.76174
v 0.31264 9.58000 -0.31264
v 5.54523 9.58000 -5.54523
v 0.31264 10.00000 -0.31264
v 5.54523 10.00000 -5.54523
v -1.39113 12.08000 -2.38869
v 4.76174 12.08000 -6.49991
v -1.39113 12.50000 -2.38869
v 4.76174 12.50000 -6.49991
v -2.65715 14.58000 -4.75724
v 4.17956 14.58000 -7.58909
v -2.65715 15.00000 -4.75724
v 4.17956 15.00000 -7.58909
v -3.43676 17.08000 -7.32726
v 3.82105 17.08000 -8.77093
v -3.43676 17.50000 -7.32726
v 3.82105 17.50000 -8.77093
v -3.70000 19.58000 -10.00000
v 3.70000 19.58000 -10.00000
v -3.70000 20.00000 -10.00000
v 3.70000 20.00000 -10.00000
v 8.91725 2.08000 -4.55664
v 10.00000 -0.42000 -4.45000
v 8.91725 3.65000 -4.55664
v 10.00000 1.15000 -4.45000
v 8.77093 3.65000 -3.82105
v 10.00000 1.15000 -3.70000
v 7.87611 4.58000 -4.87247
v 7.87611 6.15000 -4.87247
v 7.58909 6.15000 -4.17956
v 6.91659 7.08000 -5.38534
v 6.91659 8.65000 -5.38534
v 6.49991 8.65000 -4.76174
v 6.07556 9.58000 -6.07556
v 6.07556 11.15000 -6.07556
v 5.54523 11.15000 -5.54523
v 5.38534 12.08000 -6.91659
v 5.38534 13.65000 -6.91659
v 4.76174 13.65000 -6.49991
v 4.87247 14.58000 -7.87611
v 4.87247 16.15000 -7.87611
v 4.17956 16.15000 -7.58909
v 4.55664 17.08000 -8.91725
v 4.55664 18.65000 -8.91725
v 3.82105 18.65000 -8.77093
v 4.45000 19.58000 -10.00000
v 4.45000 21.15000 -10.00000
v 3.70000 21.15000 -10.00000
v 7.18094 2.08000 4.17235
v 10.00000 -0.42000 4.45000
v 7.18094 3.65000 4.17235
v 10.00000 1.15000 4.45000
v 7.32726 3.65000 3.43676
v 10.00000 1.15000 3.70000
v 4.47022 4.58000 3.35006
v 4.47022 6.15000 3.35006
v 4.75724 6.15000 2.65715
v 1.97201 7.08000 2.01474
v 1.97201 8.65000 2.01474
v 2.38869 8.65000 1.39113
v -0.21769 9.58000 0.21769
v -0.21769 11.15000 0.21769
v 0.31264 11.15000 -0.31264
v -2.01474 12.08000 -1.97201
v -2.01474 13.65000 -1.97201
v -1.39113 13.65000 -2.38869
v -3.35006 14.58000 -4.47022
v -3.35006 16.15000 -4.47022
v -2.65715 16.15000 -4.75724
v -4.17235 17.08000 -7.18094
v -4.17235 18.65000 -7.18094
v -3.43676 18.65000 -7.32726
v -4.45000 19.58000 -10.00000
v -4.45000 21.15000 -10.00000
v -3.70000 21.15000 -10.00000
v 8.94651 3.60000 -4.70376
v 8.74167 3.60000 -3.67393
v 10.00000 1.10000 -3.55000
v 10.00000 1.10000 -4.60000
v 8.94651 3.92000 -4.70376
v 10.00000 1.42000 -4.60000
v 8.74167 3.92000 -3.67393
v 10.00000 1.42000 -3.55000
v 7.93351 6.10000 -5.01105
v 7.53169 6.10000 -4.04098
v 7.93351 6.42000 -5.01105
v 7.53169 6.42000 -4.04098
v 6.99992 8.60000 -5.51006
v 6.41657 8.60000 -4.63702
v 6.99992 8.92000 -5.51006
v 6.41657 8.92000 -4.63702
v 6.18162 11.10000 -6.18162
v 5.43916 11.10000 -5.43916
v 6.18162 11.42000 -6.18162
v 5.43916 11.42000 -5.43916
v 5.51006 13.60000 -6.99992
v 4.63702 13.60000 -6.41657
v 5.51006 13.92000 -6.99992
v 4.63702 13.92000 -6.41657
v 5.01105 16.10000 -7.93351
v 4.04098 16.10000 -7.53169
v 5.01105 16.42000 -7.93351
v 4.04098 16.42000 -7.53169
v 4.70376 18.60000 -8.94651
v 3.67393 18.60000 -8.74167
v 4.70376 18.92000 -8.94651
v 3.67393 18.92000 -8.74167
v 4.60000 21.10000 -10.00000
v 3.55000 21.10000 -10.00000
v 4.60000 21.42000 -10.00000
v 3.55000 21.42000 -10.00000
v 7.15168 3.60000 4.31947
v 7.35653 3.60000 3.28964
v 10.00000 1.10000 3.55000
v 10.00000 1.10000 4.60000
v 7.15168 3.92000 4.31947
v 10.00000 1.42000 4.60000
v 7.35653 3.92000 3.28964
v 10.00000 1.42000 3.55000
v 4.41282 6.10000 3.48864
v 4.81464 6.10000 2.51857
v 4.41282 6.42000 3.48864
v 4.81464 6.42000 2.51857
v 1.88867 8.60000 2.13946
v 2.47202 8.60000 1.26641
v 1.88867 8.92000 2.13946
v 2.47202 8.92000 1.26641
v -0.32376 11.10000 0.32376
v 0.41870 11.10000 -0.41870
v -0.32376 11.42000 0.32376
v 0.41870 11.42000 -0.41870
v -2.13946 13.60000 -1.88867
v -1.26641 13.60000 -2.47202
v -2.13946 13.92000 -1.88867
v -1.26641 13.92000 -2.47202
v -3.48864 16.10000 -4.41282
v -2.51857 16.10000 -4.81464
v -3.48864 16.42000 -4.41282
v -2.51857 16.42000 -4.81464
v -4.31947 18.60000 -7.15168
v -3.28964 18.60000 -7.35653
v -4.31947 18.92000 -7.15168
v -3.28964 18.92000 -7.35653
v -4.60000 21.10000 -10.00000
v -3.55000 21.10000 -10.00000
v -4.60000 21.42000 -10.00000
v -3.55000 21.42000 -10.00000
v 4.87204 4.56000 2.37999
v 7.47429 4.56000 -3.90240
v 8.71240 2.06000 -3.52682
v 7.38579 2.06000 3.14252
v 4.87204 4.82000 2.37999
v 7.38579 2.32000 3.14252
v 7.47429 4.82000 -3.90240
v 8.71240 2.32000 -3.52682
v 0.52477 9.56000 -0.52477
v 5.33310 9.56000 -5.33310
v 6.33324 7.06000 -4.51230
v 2.55536 7.06000 1.14169
v 0.52477 9.82000 -0.52477
v 2.55536 7.32000 1.14169
v 5.33310 9.82000 -5.33310
v 6.33324 7.32000 -4.51230
v -2.37999 14.56000 -4.87204
v 3.90240 14.56000 -7.47429
v 4.51230 12.06000 -6.33324
v -1.14169 12.06000 -2.55536
v -2.37999 14.82000 -4.87204
v -1.14169 12.32000 -2.55536
v 3.90240 14.82000 -7.47429
v 4.51230 12.32000 -6.33324
v -3.40000 19.56000 -10.00000
v 3.40000 19.56000 -10.00000
v 3.52682 17.06000 -8.71240
v -3.14252 17.06000 -7.38579
v -3.40000 19.82000 -10.00000
v -3.14252 17.32000 -7.38579
v 3.40000 19.82000 -10.00000
v 3.52682 17.32000 -8.71240
vt 0.07000 0.01000
vt 0.06000 0.01000
vt 0.02000 0.01000
vt 0.08000 0.01000
vn -0.88017 -0.44119 -0.17508
vn -0.68311 -0.73031 -0.00000
vn -0.09802 0.00000 0.99518
vn 0.66999 0.73031 0.13327
vn 0.89741 0.44119 -0.00000
vn 0.09802 0.00000 -0.99518
vn 0.09802 0.00000 -0.99518
vn -0.82910 -0.44119 -0.34342
vn -0.66999 -0.73031 -0.13327
vn -0.29028 0.00000 0.95694
vn 0.63111 0.73031 0.26142
vn 0.88017 0.44119 0.17508
vn 0.29028 0.00000 -0.95694
vn -0.74617 -0.44119 -0.49858
vn -0.63111 -0.73031 -0.26142
vn -0.47140 0.00000 0.88192
vn 0.56799 0.73031 0.37952
vn 0.82910 0.44119 0.34342
vn 0.47140 0.00000 -0.88192
vn -0.63457 -0.44119 -0.63457
vn -0.56799 -0.73031 -0.37952
vn -0.63439 0.00000 0.77301
vn 0.48303 0.73031 0.48303
vn 0.74617 0.44119 0.49858
vn 0.63439 0.00000 -0.77301
vn -0.49858 -0.44119 -0.74617
vn -0.48303 -0.73031 -0.48303
vn -0.77301 0.00000 0.63439
vn 0.37952 0.73031 0.56799
vn 0.63457 0.44119 0.63457
vn 0.77301 0.00000 -0.63439
vn -0.34342 -0.44119 -0.82910
vn -0.37952 -0.73031 -0.56799
vn -0.88192 0.00000 0.47140
vn 0.26142 0.73031 0.63111
vn 0.49858 0.44119 0.74617
vn 0.88192 0.00000 -0.47140
vn -0.17508 -0.44119 -0.88017
vn -0.26142 -0.73031 -0.63111
vn -0.95694 0.00000 0.29028
vn -0.95694 0.00000 0.29028
vn 0.13327 0.73031 0.66999
vn 0.34342 0.44119 0.82910
vn 0.95694 0.00000 -0.29028
vn 0.95694 0.00000 -0.29028
vn 0.00000 -0.44119 -0.89741
vn -0.13327 -0.73031 -0.66999
vn -0.99518 0.00000 0.09802
vn 0.00000 0.73031 0.68311
vn 0.17508 0.44119 0.88017
vn 0.99518 0.00000 -0.09802
vn 1.00000 0.00000 0.00000
vn 0.00000 0.00000 -1.00000
vn 0.88017 0.44119 0.17508
vn 0.91763 0.39743 -0.00000
vn -0.09802 0.00000 0.99518
vn -0.90000 -0.39743 -0.17902
vn -0.89741 -0.44119 -0.00000
vn 0.09802 0.00000 -0.99518
vn 0.82910 0.44119 0.34342
vn 0.90000 0.39743 0.17902
vn -0.29028 0.00000 0.95694
vn -0.29028 0.00000 0.95694
vn -0.84778 -0.39743 -0.35116
vn -0.88017 -0.44119 -0.17508
vn 0.29028 0.00000 -0.95694
vn 0.74617 0.44119 0.49858
vn 0.84778 0.39743 0.35116
vn -0.47140 0.00000 0.88192
vn -0.76298 -0.39743 -0.50981
vn -0.82910 -0.44119 -0.34342
vn 0.63457 0.44119 0.63457
vn 0.76298 0.39743 0.50981
vn -0.63439 0.00000 0.77301
vn -0.64886 -0.39743 -0.64886
vn -0.74617 -0.44119 -0.49858
vn 0.63439 0.00000 -0.77301
vn 0.49858 0.44119 0.74617
vn 0.64886 0.39743 0.64886
vn -0.77301 0.00000 0.63439
vn -0.50981 -0.39743 -0.76298
vn -0.63457 -0.44119 -0.63457
vn 0.77301 0.00000 -0.63439
vn 0.34342 0.44119 0.82910
vn 0.50981 0.39743 0.76298
vn -0.88192 0.00000 0.47140
vn -0.88192 0.00000 0.47140
vn -0.35116 -0.39743 -0.84778
vn -0.49858 -0.44119 -0.74617
vn 0.88192 0.00000 -0.47140
vn 0.17508 0.44119 0.88017
vn 0.35116 0.39743 0.84778
vn -0.95694 0.00000 0.29028
vn -0.95694 0.00000 0.29028
vn -0.17902 -0.39743 -0.90000
vn -0.34342 -0.44119 -0.82910
vn 0.95694 0.00000 -0.29028
vn 0.00000 0.44119 0.89741
vn 0.17902 0.39743 0.90000
vn -0.99518 0.00000 0.09802
vn 0.00000 -0.39743 -0.91763
vn -0.17508 -0.44119 -0.88017
vn 0.99518 0.00000 -0.09802
vn -1.00000 0.00000 0.00000
vn 0.00000 -0.00000 1.00000
vn -0.66999 -0.73031 -0.13327
vn -0.66350 -0.74818 -0.00000
vn -0.09802 0.00000 0.99518
vn 0.65075 0.74818 0.12944
vn 0.68311 0.73031 -0.00000
vn 0.09802 0.00000 -0.99518
vn -0.63111 -0.73031 -0.26142
vn -0.65075 -0.74818 -0.12944
vn -0.29028 0.00000 0.95694
vn -0.29028 0.00000 0.95694
vn 0.61299 0.74818 0.25391
vn 0.66999 0.73031 0.13327
vn 0.29028 0.00000 -0.95694
vn 0.29028 0.00000 -0.95694
vn -0.56799 -0.73031 -0.37952
vn -0.61299 -0.74818 -0.25391
vn -0.47140 0.00000 0.88192
vn 0.55168 0.74818 0.36862
vn 0.63111 0.73031 0.26142
vn 0.47140 0.00000 -0.88192
vn -0.48303 -0.73031 -0.48303
vn -0.55168 -0.74818 -0.36862
vn 0.46917 0.74818 0.46917
vn 0.56799 0.73031 0.37952
vn 0.63439 0.00000 -0.77301
vn -0.37952 -0.73031 -0.56799
vn -0.46917 -0.74818 -0.46917
vn 0.36862 0.74818 0.55168
vn 0.48303 0.73031 0.48303
vn 0.77301 0.00000 -0.63439
vn -0.26142 -0.73031 -0.63111
vn -0.36862 -0.74818 -0.55168
vn -0.88192 0.00000 0.47140
vn 0.25391 0.74818 0.61299
vn 0.37952 0.73031 0.56799
vn 0.88192 0.00000 -0.47140
vn 0.88192 0.00000 -0.47140
vn -0.13327 -0.73031 -0.66999
vn -0.25391 -0.74818 -0.61299
vn -0.95694 0.00000 0.29028
vn 0.12944 0.74818 0.65075
vn 0.26142 0.73031 0.63111
vn 0.95694 0.00000 -0.29028
vn 0.95694 0.00000 -0.29028
vn 0.00000 -0.73031 -0.68311
vn -0.12944 -0.74818 -0.65075
vn -0.99518 0.00000 0.09802
vn 0.00000 0.74818 0.66350
vn 0.13327 0.73031 0.66999
vn 0.99518 0.00000 -0.09802
vn 0.87607 0.44959 0.17426
vn 0.92152 0.38833 -0.00000
vn -0.09802 0.00000 0.99518
vn -0.90382 -0.38833 -0.17978
vn -0.89323 -0.44959 -0.00000
vn 0.09802 0.00000 -0.99518
vn 0.82524 0.44959 0.34183
vn 0.90382 0.38833 0.17978
vn -0.29028 0.00000 0.95694
vn -0.29028 0.00000 0.95694
vn -0.85138 -0.38833 -0.35265
vn -0.87607 -0.44959 -0.17426
vn 0.29028 0.00000 -0.95694
vn 0.29028 0.00000 -0.95694
vn 0.74270 0.44959 0.49625
vn 0.85138 0.38833 0.35265
vn -0.47140 0.00000 0.88192
vn -0.76622 -0.38833 -0.51197
vn -0.82524 -0.44959 -0.34183
vn 0.47140 0.00000 -0.88192
vn 0.63161 0.44959 0.63161
vn 0.76622 0.38833 0.51197
vn -0.63439 0.00000 0.77301
vn -0.65161 -0.38833 -0.65161
vn -0.74270 -0.44959 -0.49625
vn 0.63439 0.00000 -0.77301
vn 0.49625 0.44959 0.74270
vn 0.65161 0.38833 0.65161
vn -0.77301 0.00000 0.63439
vn -0.51197 -0.38833 -0.76622
vn -0.63161 -0.44959 -0.63161
vn 0.77301 0.00000 -0.63439
vn 0.34183 0.44959 0.82524
vn 0.51197 0.38833 0.76622
vn -0.88192 0.00000 0.47140
vn -0.35265 -0.38833 -0.85138
vn -0.49625 -0.44959 -0.74270
vn 0.88192 0.00000 -0.47140
vn 0.17426 0.44959 0.87607
vn 0.35265 0.38833 0.85138
vn -0.95694 0.00000 0.29028
vn -0.17978 -0.38833 -0.90382
vn -0.34183 -0.44959 -0.82524
vn 0.95694 0.00000 -0.29028
vn 0.00000 0.44959 0.89323
vn 0.17978 0.38833 0.90382
vn -0.99518 0.00000 0.09802
vn 0.00000 -0.38833 -0.92152
vn -0.17426 -0.44959 -0.87607
vn -0.67391 -0.72655 -0.13405
vn -0.65966 -0.75157 -0.00000
vn -0.09802 0.00000 0.99518
vn 0.64698 0.75157 0.12869
vn 0.68712 0.72655 -0.00000
vn -0.63481 -0.72655 -0.26295
vn -0.64698 -0.75157 -0.12869
vn -0.29028 0.00000 0.95694
vn 0.60944 0.75157 0.25244
vn 0.67391 0.72655 0.13405
vn 0.29028 0.00000 -0.95694
vn -0.57132 -0.72655 -0.38174
vn -0.60944 -0.75157 -0.25244
vn -0.47140 0.00000 0.88192
vn 0.54849 0.75157 0.36649
vn 0.63481 0.72655 0.26295
vn 0.47140 0.00000 -0.88192
vn -0.48586 -0.72655 -0.48586
vn -0.54849 -0.75157 -0.36649
vn 0.46645 0.75157 0.46645
vn 0.57132 0.72655 0.38174
vn 0.63439 0.00000 -0.77301
vn -0.38174 -0.72655 -0.57132
vn -0.46645 -0.75157 -0.46645
vn -0.77301 0.00000 0.63439
vn 0.36649 0.75157 0.54849
vn 0.48586 0.72655 0.48586
vn -0.26295 -0.72655 -0.63481
vn -0.36649 -0.75157 -0.54849
vn 0.25244 0.75157 0.60944
vn 0.38174 0.72655 0.57132
vn 0.88192 0.00000 -0.47140
vn -0.13405 -0.72655 -0.67391
vn -0.25244 -0.75157 -0.60944
vn -0.95694 0.00000 0.29028
vn 0.12869 0.75157 0.64698
vn 0.26295 0.72655 0.63481
vn 0.95694 0.00000 -0.29028
vn 0.00000 -0.72655 -0.68712
vn -0.12869 -0.75157 -0.64698
vn -0.99518 0.00000 0.09802
vn 0.00000 0.75157 0.65966
vn 0.13405 0.72655 0.67391
vn 0.99518 0.00000 -0.09802
vn -0.82134 -0.45788 -0.34021
vn -0.67786 -0.72272 -0.13484
vn -0.29028 0.00000 0.95694
vn 0.63853 0.72272 0.26449
vn 0.87193 0.45788 0.17344
vn 0.29028 0.00000 -0.95694
vn 0.29028 0.00000 -0.95694
vn 0.98079 0.00000 0.19509
vn -0.92388 0.00000 -0.38268
vn -0.62863 -0.45788 -0.62863
vn -0.57466 -0.72272 -0.38398
vn 0.48871 0.72272 0.48871
vn 0.73919 0.45788 0.49391
vn 0.63439 0.00000 -0.77301
vn 0.83147 0.00000 0.55557
vn -0.70711 0.00000 -0.70711
vn -0.34021 -0.45788 -0.82134
vn -0.38398 -0.72272 -0.57466
vn -0.88192 0.00000 0.47140
vn 0.26449 0.72272 0.63853
vn 0.49391 0.45788 0.73919
vn 0.88192 0.00000 -0.47140
vn 0.55557 0.00000 0.83147
vn -0.38268 0.00000 -0.92388
vn 0.00000 -0.45788 -0.88902
vn -0.13484 -0.72272 -0.67786
vn -0.99518 0.00000 0.09802
vn 0.00000 0.72272 0.69114
vn 0.17344 0.45788 0.87193
vn 0.99518 0.00000 -0.09802
vn 0.19509 0.00000 0.98079
f 1/1/1 2/1/1 3/1/1
f 4/1/2 1/1/2 3/1/2
f 5/1/3 1/1/3 4/1/3
f 6/1/3 5/1/3 4/1/3
f 7/1/4 5/1/4 6/1/4
f 8/1/5 7/1/5 6/1/5
f 2/1/6 7/1/6 8/1/6
f 3/1/7 2/1/7 8/1/7
f 9/1/8 10/1/8 2/1/8
f 1/1/9 9/1/9 2/1/9
f 11/1/10 9/1/10 1/1/10
f 5/1/10 11/1/10 1/1/10
f 12/1/11 11/1/11 5/1/11
f 7/1/12 12/1/12 5/1/12
f 10/1/13 12/1/13 7/1/13
f 2/1/13 10/1/13 7/1/13
f 13/1/14 14/1/14 10/1/14
f 9/1/15 13/1/15 10/1/15
f 15/1/16 13/1/16 9/1/16
f 11/1/16 15/1/16 9/1/16
f 16/1/17 15/1/17 11/1/17
f 12/1/18 16/1/18 11/1/18
f 14/1/19 16/1/19 12/1/19
f 10/1/19 14/1/19 12/1/19
f 17/1/20 18/1/20 14/1/20
f 13/1/21 17/1/21 14/1/21
f 19/1/22 17/1/22 13/1/22
f 15/1/22 19/1/22 13/1/22
f 20/1/23 19/1/23 15/1/23
f 16/1/24 20/1/24 15/1/24
f 18/1/25 20/1/25 16/1/25
f 14/1/25 18/1/25 16/1/25
f 21/1/26 22/1/26 18/1/26
f 17/1/27 21/1/27 18/1/27
f 23/1/28 21/1/28 17/1/28
f 19/1/28 23/1/28 17/1/28
f 24/1/29 23/1/29 19/1/29
f 20/1/30 24/1/30 19/1/30
f 22/1/31 24/1/31 20/1/31
f 18/1/31 22/1/31 20/1/31
f 25/1/32 26/1/32 22/1/32
f 21/1/33 25/1/33 22/1/33
f 27/1/34 25/1/34 21/1/34
f 23/1/34 27/1/34 21/1/34
f 28/1/35 27/1/35 23/1/35
f 24/1/36 28/1/36 23/1/36
f 26/1/37 28/1/37 24/1/37
f 22/1/37 26/1/37 24/1/37
f 29/1/38 30/1/38 26/1/38
f 25/1/39 29/1/39 26/1/39
f 31/1/40 29/1/40 25/1/40
f 27/1/41 31/1/41 25/1/41
f 32/1/42 31/1/42 27/1/42
f 28/1/43 32/1/43 27/1/43
f 30/1/44 32/1/44 28/1/44
f 26/1/45 30/1/45 28/1/45
f 33/1/46 34/1/46 30/1/46
f 29/1/47 33/1/47 30/1/47
f 35/1/48 33/1/48 29/1/48
f 31/1/48 35/1/48 29/1/48
f 36/1/49 35/1/49 31/1/49
f 32/1/50 36/1/50 31/1/50
f 34/1/51 36/1/51 32/1/51
f 30/1/51 34/1/51 32/1/51
f 6/1/52 4/1/52 3/1/52
f 8/1/52 6/1/52 3/1/52
f 33/1/53 35/1/53 34/1/53
f 35/1/53 36/1/53 34/1/53
f 37/2/54 2/2/54 3/2/54
f 38/2/55 37/2/55 3/2/55
f 39/2/56 37/2/56 38/2/56
f 40/2/56 39/2/56 38/2/56
f 41/2/57 39/2/57 40/2/57
f 42/2/58 41/2/58 40/2/58
f 2/2/59 41/2/59 42/2/59
f 3/2/59 2/2/59 42/2/59
f 43/2/60 10/2/60 2/2/60
f 37/2/61 43/2/61 2/2/61
f 44/2/62 43/2/62 37/2/62
f 39/2/63 44/2/63 37/2/63
f 45/2/64 44/2/64 39/2/64
f 41/2/65 45/2/65 39/2/65
f 10/2/66 45/2/66 41/2/66
f 2/2/13 10/2/13 41/2/13
f 46/2/67 14/2/67 10/2/67
f 43/2/68 46/2/68 10/2/68
f 47/2/69 46/2/69 43/2/69
f 44/2/69 47/2/69 43/2/69
f 48/2/70 47/2/70 44/2/70
f 45/2/71 48/2/71 44/2/71
f 14/2/19 48/2/19 45/2/19
f 10/2/19 14/2/19 45/2/19
f 49/2/72 18/2/72 14/2/72
f 46/2/73 49/2/73 14/2/73
f 50/2/74 49/2/74 46/2/74
f 47/2/74 50/2/74 46/2/74
f 51/2/75 50/2/75 47/2/75
f 48/2/76 51/2/76 47/2/76
f 18/2/77 51/2/77 48/2/77
f 14/2/77 18/2/77 48/2/77
f 52/2/78 22/2/78 18/2/78
f 49/2/79 52/2/79 18/2/79
f 53/2/80 52/2/80 49/2/80
f 50/2/80 53/2/80 49/2/80
f 54/2/81 53/2/81 50/2/81
f 51/2/82 54/2/82 50/2/82
f 22/2/83 54/2/83 51/2/83
f 18/2/83 22/2/83 51/2/83
f 55/2/84 26/2/84 22/2/84
f 52/2/85 55/2/85 22/2/85
f 56/2/86 55/2/86 52/2/86
f 53/2/87 56/2/87 52/2/87
f 57/2/88 56/2/88 53/2/88
f 54/2/89 57/2/89 53/2/89
f 26/2/90 57/2/90 54/2/90
f 22/2/37 26/2/37 54/2/37
f 58/2/91 30/2/91 26/2/91
f 55/2/92 58/2/92 26/2/92
f 59/2/93 58/2/93 55/2/93
f 56/2/94 59/2/94 55/2/94
f 60/2/95 59/2/95 56/2/95
f 57/2/96 60/2/96 56/2/96
f 30/2/97 60/2/97 57/2/97
f 26/2/44 30/2/44 57/2/44
f 61/2/98 34/2/98 30/2/98
f 58/2/99 61/2/99 30/2/99
f 62/2/100 61/2/100 58/2/100
f 59/2/100 62/2/100 58/2/100
f 63/2/101 62/2/101 59/2/101
f 60/2/102 63/2/102 59/2/102
f 34/2/103 63/2/103 60/2/103
f 30/2/103 34/2/103 60/2/103
f 40/2/104 38/2/104 3/2/104
f 42/2/104 40/2/104 3/2/104
f 61/2/105 62/2/105 34/2/105
f 62/2/105 63/2/105 34/2/105
f 64/2/106 1/2/106 4/2/106
f 65/2/107 64/2/107 4/2/107
f 66/2/108 64/2/108 65/2/108
f 67/2/108 66/2/108 65/2/108
f 68/2/109 66/2/109 67/2/109
f 69/2/110 68/2/110 67/2/110
f 1/2/111 68/2/111 69/2/111
f 4/2/111 1/2/111 69/2/111
f 70/2/112 9/2/112 1/2/112
f 64/2/113 70/2/113 1/2/113
f 71/2/114 70/2/114 64/2/114
f 66/2/115 71/2/115 64/2/115
f 72/2/116 71/2/116 66/2/116
f 68/2/117 72/2/117 66/2/117
f 9/2/118 72/2/118 68/2/118
f 1/2/119 9/2/119 68/2/119
f 73/2/120 13/2/120 9/2/120
f 70/2/121 73/2/121 9/2/121
f 74/2/122 73/2/122 70/2/122
f 71/2/122 74/2/122 70/2/122
f 75/2/123 74/2/123 71/2/123
f 72/2/124 75/2/124 71/2/124
f 13/2/125 75/2/125 72/2/125
f 9/2/125 13/2/125 72/2/125
f 76/2/126 17/2/126 13/2/126
f 73/2/127 76/2/127 13/2/127
f 77/2/22 76/2/22 73/2/22
f 74/2/22 77/2/22 73/2/22
f 78/2/128 77/2/128 74/2/128
f 75/2/129 78/2/129 74/2/129
f 17/2/130 78/2/130 75/2/130
f 13/2/130 17/2/130 75/2/130
f 79/2/131 21/2/131 17/2/131
f 76/2/132 79/2/132 17/2/132
f 80/2/28 79/2/28 76/2/28
f 77/2/28 80/2/28 76/2/28
f 81/2/133 80/2/133 77/2/133
f 78/2/134 81/2/134 77/2/134
f 21/2/135 81/2/135 78/2/135
f 17/2/135 21/2/135 78/2/135
f 82/2/136 25/2/136 21/2/136
f 79/2/137 82/2/137 21/2/137
f 83/2/138 82/2/138 79/2/138
f 80/2/86 83/2/86 79/2/86
f 84/2/139 83/2/139 80/2/139
f 81/2/140 84/2/140 80/2/140
f 25/2/141 84/2/141 81/2/141
f 21/2/142 25/2/142 81/2/142
f 85/2/143 29/2/143 25/2/143
f 82/2/144 85/2/144 25/2/144
f 86/2/41 85/2/41 82/2/41
f 83/2/145 86/2/145 82/2/145
f 87/2/146 86/2/146 83/2/146
f 84/2/147 87/2/147 83/2/147
f 29/2/148 87/2/148 84/2/148
f 25/2/149 29/2/149 84/2/149
f 88/2/150 33/2/150 29/2/150
f 85/2/151 88/2/151 29/2/151
f 89/2/152 88/2/152 85/2/152
f 86/2/152 89/2/152 85/2/152
f 90/2/153 89/2/153 86/2/153
f 87/2/154 90/2/154 86/2/154
f 33/2/155 90/2/155 87/2/155
f 29/2/155 33/2/155 87/2/155
f 67/2/52 65/2/52 4/2/52
f 69/2/52 67/2/52 4/2/52
f 88/2/53 89/2/53 33/2/53
f 89/2/53 90/2/53 33/2/53
f 91/3/156 92/3/156 93/3/156
f 94/3/157 91/3/157 93/3/157
f 95/3/158 91/3/158 94/3/158
f 96/3/158 95/3/158 94/3/158
f 97/3/159 95/3/159 96/3/159
f 98/3/160 97/3/160 96/3/160
f 92/3/161 97/3/161 98/3/161
f 93/3/161 92/3/161 98/3/161
f 99/3/162 100/3/162 92/3/162
f 91/3/163 99/3/163 92/3/163
f 101/3/164 99/3/164 91/3/164
f 95/3/165 101/3/165 91/3/165
f 102/3/166 101/3/166 95/3/166
f 97/3/167 102/3/167 95/3/167
f 100/3/168 102/3/168 97/3/168
f 92/3/169 100/3/169 97/3/169
f 103/3/170 104/3/170 100/3/170
f 99/3/171 103/3/171 100/3/171
f 105/3/172 103/3/172 99/3/172
f 101/3/172 105/3/172 99/3/172
f 106/3/173 105/3/173 101/3/173
f 102/3/174 106/3/174 101/3/174
f 104/3/175 106/3/175 102/3/175
f 100/3/175 104/3/175 102/3/175
f 107/3/176 108/3/176 104/3/176
f 103/3/177 107/3/177 104/3/177
f 109/3/178 107/3/178 103/3/178
f 105/3/178 109/3/178 103/3/178
f 110/3/179 109/3/179 105/3/179
f 106/3/180 110/3/180 105/3/180
f 108/3/181 110/3/181 106/3/181
f 104/3/181 108/3/181 106/3/181
f 111/3/182 112/3/182 108/3/182
f 107/3/183 111/3/183 108/3/183
f 113/3/184 111/3/184 107/3/184
f 109/3/184 113/3/184 107/3/184
f 114/3/185 113/3/185 109/3/185
f 110/3/186 114/3/186 109/3/186
f 112/3/187 114/3/187 110/3/187
f 108/3/187 112/3/187 110/3/187
f 115/3/188 116/3/188 112/3/188
f 111/3/189 115/3/189 112/3/189
f 117/3/190 115/3/190 111/3/190
f 113/3/190 117/3/190 111/3/190
f 118/3/191 117/3/191 113/3/191
f 114/3/192 118/3/192 113/3/192
f 116/3/193 118/3/193 114/3/193
f 112/3/193 116/3/193 114/3/193
f 119/3/194 120/3/194 116/3/194
f 115/3/195 119/3/195 116/3/195
f 121/3/196 119/3/196 115/3/196
f 117/3/196 121/3/196 115/3/196
f 122/3/197 121/3/197 117/3/197
f 118/3/198 122/3/198 117/3/198
f 120/3/199 122/3/199 118/3/199
f 116/3/199 120/3/199 118/3/199
f 123/3/200 124/3/200 120/3/200
f 119/3/201 123/3/201 120/3/201
f 125/3/202 123/3/202 119/3/202
f 121/3/202 125/3/202 119/3/202
f 126/3/203 125/3/203 121/3/203
f 122/3/204 126/3/204 121/3/204
f 124/3/155 126/3/155 122/3/155
f 120/3/155 124/3/155 122/3/155
f 96/3/104 94/3/104 93/3/104
f 98/3/104 96/3/104 93/3/104
f 123/3/105 125/3/105 124/3/105
f 125/3/105 126/3/105 124/3/105
f 127/3/205 128/3/205 129/3/205
f 130/3/206 127/3/206 129/3/206
f 131/3/207 127/3/207 130/3/207
f 132/3/207 131/3/207 130/3/207
f 133/3/208 131/3/208 132/3/208
f 134/3/209 133/3/209 132/3/209
f 128/3/111 133/3/111 134/3/111
f 129/3/111 128/3/111 134/3/111
f 135/3/210 136/3/210 128/3/210
f 127/3/211 135/3/211 128/3/211
f 137/3/212 135/3/212 127/3/212
f 131/3/63 137/3/63 127/3/63
f 138/3/213 137/3/213 131/3/213
f 133/3/214 138/3/214 131/3/214
f 136/3/215 138/3/215 133/3/215
f 128/3/168 136/3/168 133/3/168
f 139/3/216 140/3/216 136/3/216
f 135/3/217 139/3/217 136/3/217
f 141/3/218 139/3/218 135/3/218
f 137/3/218 141/3/218 135/3/218
f 142/3/219 141/3/219 137/3/219
f 138/3/220 142/3/220 137/3/220
f 140/3/221 142/3/221 138/3/221
f 136/3/221 140/3/221 138/3/221
f 143/3/222 144/3/222 140/3/222
f 139/3/223 143/3/223 140/3/223
f 145/3/178 143/3/178 139/3/178
f 141/3/178 145/3/178 139/3/178
f 146/3/224 145/3/224 141/3/224
f 142/3/225 146/3/225 141/3/225
f 144/3/226 146/3/226 142/3/226
f 140/3/226 144/3/226 142/3/226
f 147/3/227 148/3/227 144/3/227
f 143/3/228 147/3/228 144/3/228
f 149/3/229 147/3/229 143/3/229
f 145/3/229 149/3/229 143/3/229
f 150/3/230 149/3/230 145/3/230
f 146/3/231 150/3/231 145/3/231
f 148/3/135 150/3/135 146/3/135
f 144/3/135 148/3/135 146/3/135
f 151/3/232 152/3/232 148/3/232
f 147/3/233 151/3/233 148/3/233
f 153/3/87 151/3/87 147/3/87
f 149/3/87 153/3/87 147/3/87
f 154/3/234 153/3/234 149/3/234
f 150/3/235 154/3/235 149/3/235
f 152/3/236 154/3/236 150/3/236
f 148/3/236 152/3/236 150/3/236
f 155/3/237 156/3/237 152/3/237
f 151/3/238 155/3/238 152/3/238
f 157/3/239 155/3/239 151/3/239
f 153/3/239 157/3/239 151/3/239
f 158/3/240 157/3/240 153/3/240
f 154/3/241 158/3/241 153/3/241
f 156/3/242 158/3/242 154/3/242
f 152/3/242 156/3/242 154/3/242
f 159/3/243 160/3/243 156/3/243
f 155/3/244 159/3/244 156/3/244
f 161/3/245 159/3/245 155/3/245
f 157/3/245 161/3/245 155/3/245
f 162/3/246 161/3/246 157/3/246
f 158/3/247 162/3/247 157/3/247
f 160/3/248 162/3/248 158/3/248
f 156/3/248 160/3/248 158/3/248
f 132/3/52 130/3/52 129/3/52
f 134/3/52 132/3/52 129/3/52
f 159/3/53 161/3/53 160/3/53
f 161/3/53 162/3/53 160/3/53
f 163/4/249 164/4/249 165/4/249
f 166/4/250 163/4/250 165/4/250
f 167/4/251 163/4/251 166/4/251
f 168/4/212 167/4/212 166/4/212
f 169/4/252 167/4/252 168/4/252
f 170/4/253 169/4/253 168/4/253
f 164/4/254 169/4/254 170/4/254
f 165/4/255 164/4/255 170/4/255
f 168/4/256 166/4/256 165/4/256
f 170/4/256 168/4/256 165/4/256
f 163/4/257 167/4/257 164/4/257
f 167/4/257 169/4/257 164/4/257
f 171/4/258 172/4/258 173/4/258
f 174/4/259 171/4/259 173/4/259
f 175/4/178 171/4/178 174/4/178
f 176/4/178 175/4/178 174/4/178
f 177/4/260 175/4/260 176/4/260
f 178/4/261 177/4/261 176/4/261
f 172/4/262 177/4/262 178/4/262
f 173/4/262 172/4/262 178/4/262
f 176/4/263 174/4/263 173/4/263
f 178/4/263 176/4/263 173/4/263
f 171/4/264 175/4/264 172/4/264
f 175/4/264 177/4/264 172/4/264
f 179/4/265 180/4/265 181/4/265
f 182/4/266 179/4/266 181/4/266
f 183/4/267 179/4/267 182/4/267
f 184/4/267 183/4/267 182/4/267
f 185/4/268 183/4/268 184/4/268
f 186/4/269 185/4/269 184/4/269
f 180/4/270 185/4/270 186/4/270
f 181/4/270 180/4/270 186/4/270
f 184/4/271 182/4/271 181/4/271
f 186/4/271 184/4/271 181/4/271
f 179/4/272 183/4/272 180/4/272
f 183/4/272 185/4/272 180/4/272
f 187/4/273 188/4/273 189/4/273
f 190/4/274 187/4/274 189/4/274
f 191/4/275 187/4/275 190/4/275
f 192/4/275 191/4/275 190/4/275
f 193/4/276 191/4/276 192/4/276
f 194/4/277 193/4/277 192/4/277
f 188/4/278 193/4/278 194/4/278
f 189/4/278 188/4/278 194/4/278
f 192/4/279 190/4/279 189/4/279
f 194/4/279 192/4/279 189/4/279
f 187/4/53 191/4/53 188/4/53
f 191/4/53 193/4/53 188/4/53
