# CargoTrackSplitY - generated by Tools/generate_meshes.py, do not hand-edit
# Regenerate with: python Tools/generate_meshes.py
o CargoTrackSplitY
v 8.77093 -0.42000 3.82105
v 7.32726 -0.42000 -3.43676
v 10.00000 -0.42000 -3.70000
v 10.00000 -0.42000 3.70000
v 8.77093 0.00000 3.82105
v 10.00000 0.00000 3.70000
v 7.32726 0.00000 -3.43676
v 10.00000 0.00000 -3.70000
v 7.58909 -0.42000 4.17956
v 4.75724 -0.42000 -2.65715
v 7.58909 0.00000 4.17956
v 4.75724 0.00000 -2.65715
v 6.49991 -0.42000 4.76174
v 2.38869 -0.42000 -1.39113
v 6.49991 0.00000 4.76174
v 2.38869 0.00000 -1.39113
v 5.54523 -0.42000 5.54523
v 0.31264 -0.42000 0.31264
v 5.54523 0.00000 5.54523
v 0.31264 0.00000 0.31264
v 4.76174 -0.42000 6.49991
v -1.39113 -0.42000 2.38869
v 4.76174 0.00000 6.49991
v -1.39113 0.00000 2.38869
v 4.17956 -0.42000 7.58909
v -2.65715 -0.42000 4.75724
v 4.17956 0.00000 7.58909
v -2.65715 0.00000 4.75724
v 3.82105 -0.42000 8.77093
v -3.43676 -0.42000 7.32726
v 3.82105 0.00000 8.77093
v -3.43676 0.00000 7.32726
v 3.70000 -0.42000 10.00000
v -3.70000 -0.42000 10.00000
v 3.70000 0.00000 10.00000
v -3.70000 0.00000 10.00000
v 7.18094 -0.42000 -4.17235
v 10.00000 -0.42000 -4.45000
v 7.18094 1.15000 -4.17235
v 10.00000 1.15000 -4.45000
v 7.32726 1.15000 -3.43676
v 10.00000 1.15000 -3.70000
v 4.47022 -0.42000 -3.35006
v 4.47022 1.15000 -3.35006
v 4.75724 1.15000 -2.65715
v 1.97201 -0.42000 -2.01474
v 1.97201 1.15000 -2.01474
v 2.38869 1.15000 -1.39113
v -0.21769 -0.42000 -0.21769
v -0.21769 1.15000 -0.21769
v 0.31264 1.15000 0.31264
v -2.01474 -0.42000 1.97201
v -2.01474 1.15000 1.97201
v -1.39113 1.15000 2.38869
v -3.35006 -0.42000 4.47022
v -3.35006 1.15000 4.47022
v -2.65715 1.15000 4.75724
v -4.17235 -0.42000 7.18094
v -4.17235 1.15000 7.18094
v -3.43676 1.15000 7.32726
v -4.45000 -0.42000 10.00000
v -4.45000 1.15000 10.00000
v -3.70000 1.15000 10.00000
v 8.91725 -0.42000 4.55664
v 10.00000 -0.42000 4.45000
v 8.91725 1.15000 4.55664
v 10.00000 1.15000 4.45000
v 8.77093 1.15000 3.82105
v 10.00000 1.15000 3.70000
v 7.87611 -0.42000 4.87247
v 7.87611 1.15000 4.87247
v 7.58909 1.15000 4.17956
v 6.91659 -0.42000 5.38534
v 6.91659 1.15000 5.38534
v 6.49991 1.15000 4.76174
v 6.07556 -0.42000 6.07556
v 6.07556 1.15000 6.07556
v 5.54523 1.15000 5.54523
v 5.38534 -0.42000 6.91659
v 5.38534 1.15000 6.91659
v 4.76174 1.15000 6.49991
v 4.87247 -0.42000 7.87611
v 4.87247 1.15000 7.87611
v 4.17956 1.15000 7.58909
v 4.55664 -0.42000 8.91725
v 4.55664 1.15000 8.91725
v 3.82105 1.15000 8.77093
v 4.45000 -0.42000 10.00000
v 4.45000 1.15000 10.00000
v 3.70000 1.15000 10.00000
v 7.15168 1.10000 -4.31947
v 7.35653 1.10000 -3.28964
v 10.00000 1.10000 -3.55000
v 10.00000 1.10000 -4.60000
v 7.15168 1.42000 -4.31947
v 10.00000 1.42000 -4.60000
v 7.35653 1.42000 -3.28964
v 10.00000 1.42000 -3.55000
v 4.41282 1.10000 -3.48864
v 4.81464 1.10000 -2.51857
v 4.41282 1.42000 -3.48864
v 4.81464 1.42000 -2.51857
v 1.88867 1.10000 -2.13946
v 2.47202 1.10000 -1.26641
v 1.88867 1.42000 -2.13946
v 2.47202 1.42000 -1.26641
v -0.32376 1.10000 -0.32376
v 0.41870 1.10000 0.41870
v -0.32376 1.42000 -0.32376
v 0.41870 1.42000 0.41870
v -2.13946 1.10000 1.88867
v -1.26641 1.10000 2.47202
v -2.13946 1.42000 1.88867
v -1.26641 1.42000 2.47202
v -3.48864 1.10000 4.41282
v -2.51857 1.10000 4.81464
v -3.48864 1.42000 4.41282
v -2.51857 1.42000 4.81464
v -4.31947 1.10000 7.15168
v -3.28964 1.10000 7.35653
v -4.31947 1.42000 7.15168
v -3.28964 1.42000 7.35653
v -4.60000 1.10000 10.00000
v -3.55000 1.10000 10.00000
v -4.60000 1.42000 10.00000
v -3.55000 1.42000 10.00000
v 8.94651 1.10000 4.70376
v 8.74167 1.10000 3.67393
v 10.00000 1.10000 3.55000
v 10.00000 1.10000 4.60000
v 8.94651 1.42000 4.70376
v 10.00000 1.42000 4.60000
v 8.74167 1.42000 3.67393
v 10.00000 1.42000 3.55000
v 7.93351 1.10000 5.01105
v 7.53169 1.10000 4.04098
v 7.93351 1.42000 5.01105
v 7.53169 1.42000 4.04098
v 6.99992 1.10000 5.51006
v 6.41657 1.10000 4.63702
v 6.99992 1.42000 5.51006
v 6.41657 1.42000 4.63702
v 6.18162 1.10000 6.18162
v 5.43916 1.10000 5.43916
v 6.18162 1.42000 6.18162
v 5.43916 1.42000 5.43916
v 5.51006 1.10000 6.99992
v 4.63702 1.10000 6.41657
v 5.51006 1.42000 6.99992
v 4.63702 1.42000 6.41657
v 5.01105 1.10000 7.93351
v 4.04098 1.10000 7.53169
v 5.01105 1.42000 7.93351
v 4.04098 1.42000 7.53169
v 4.70376 1.10000 8.94651
v 3.67393 1.10000 8.74167
v 4.70376 1.42000 8.94651
v 3.67393 1.42000 8.74167
v 4.60000 1.10000 10.00000
v 3.55000 1.10000 10.00000
v 4.60000 1.42000 10.00000
v 3.55000 1.42000 10.00000
v 7.47429 -0.44000 3.90240
v 4.87204 -0.44000 -2.37999
v 7.38579 -0.44000 -3.14252
v 8.71240 -0.44000 3.52682
v 7.47429 -0.18000 3.90240
v 8.71240 -0.18000 3.52682
v 4.87204 -0.18000 -2.37999
v 7.38579 -0.18000 -3.14252
v 5.33310 -0.44000 5.33310
v 0.52477 -0.44000 0.52477
v 2.55536 -0.44000 -1.14169
v 6.33324 -0.44000 4.51230
v 5.33310 -0.18000 5.33310
v 6.33324 -0.18000 4.51230
v 0.52477 -0.18000 0.52477
v 2.55536 -0.18000 -1.14169
v 3.90240 -0.44000 7.47429
v -2.37999 -0.44000 4.87204
v -1.14169 -0.44000 2.55536
v 4.51230 -0.44000 6.33324
v 3.90240 -0.18000 7.47429
v 4.51230 -0.18000 6.33324
v -2.37999 -0.18000 4.87204
v -1.14169 -0.18000 2.55536
v 3.40000 -0.44000 10.00000
v -3.40000 -0.44000 10.00000
v -3.14252 -0.44000 7.38579
v 3.52682 -0.44000 8.71240
v 3.40000 -0.18000 10.00000
v 3.52682 -0.18000 8.71240
v -3.40000 -0.18000 10.00000
v -3.14252 -0.18000 7.38579
v 7.32726 -0.42000 3.43676
v 8.77093 -0.42000 -3.82105
v 7.32726 0.00000 3.43676
v 8.77093 0.00000 -3.82105
v 4.75724 -0.42000 2.65715
v 7.58909 -0.42000 -4.17956
v 4.75724 0.00000 2.65715
v 7.58909 0.00000 -4.17956
v 2.38869 -0.42000 1.39113
v 6.49991 -0.42000 -4.76174
v 2.38869 0.00000 1.39113
v 6.49991 0.00000 -4.76174
v 0.31264 -0.42000 -0.31264
v 5.54523 -0.42000 -5.54523
v 0.31264 0.00000 -0.31264
v 5.54523 0.00000 -5.54523
v -1.39113 -0.42000 -2.38869
v 4.76174 -0.42000 -6.49991
v -1.39113 0.00000 -2.38869
v 4.76174 0.00000 -6.49991
v -2.65715 -0.42000 -4.75724
v 4.17956 -0.42000 -7.58909
v -2.65715 0.00000 -4.75724
v 4.17956 0.00000 -7.58909
v -3.43676 -0.42000 -7.32726
v 3.82105 -0.42000 -8.77093
v -3.43676 0.00000 -7.32726
v 3.82105 0.00000 -8.77093
v -3.70000 -0.42000 -10.00000
v 3.70000 -0.42000 -10.00000
v -3.70000 0.00000 -10.00000
v 3.70000 0.00000 -10.00000
v 8.91725 -0.42000 -4.55664
v 8.91725 1.15000 -4.55664
v 8.77093 1.15000 -3.82105
v 7.87611 -0.42000 -4.87247
v 7.87611 1.15000 -4.87247
v 7.58909 1.15000 -4.17956
v 6.91659 -0.42000 -5.38534
v 6.91659 1.15000 -5.38534
v 6.49991 1.15000 -4.76174
v 6.07556 -0.42000 -6.07556
v 6.07556 1.15000 -6.07556
v 5.54523 1.15000 -5.54523
v 5.38534 -0.42000 -6.91659
v 5.38534 1.15000 -6.91659
v 4.76174 1.15000 -6.49991
v 4.87247 -0.42000 -7.87611
v 4.87247 1.15000 -7.87611
v 4.17956 1.15000 -7.58909
v 4.55664 -0.42000 -8.91725
v 4.55664 1.15000 -8.91725
v 3.82105 1.15000 -8.77093
v 4.45000 -0.42000 -10.00000
v 4.45000 1.15000 -10.00000
v 3.70000 1.15000 -10.00000
v 7.18094 -0.42000 4.17235
v 7.18094 1.15000 4.17235
v 7.32726 1.15000 3.43676
v 4.47022 -0.42000 3.35006
v 4.47022 1.15000 3.35006
v 4.75724 1.15000 2.65715
v 1.97201 -0.42000 2.01474
v 1.97201 1.15000 2.01474
v 2.38869 1.15000 1.39113
v -0.21769 -0.42000 0.21769
v -0.21769 1.15000 0.21769
v 0.31264 1.15000 -0.31264
v -2.01474 -0.42000 -1.97201
v -2.01474 1.15000 -1.97201
v -1.39113 1.15000 -2.38869
v -3.35006 -0.42000 -4.47022
v -3.35006 1.15000 -4.47022
v -2.65715 1.15000 -4.75724
v -4.17235 -0.42000 -7.18094
v -4.17235 1.15000 -7.18094
v -3.43676 1.15000 -7.32726
v -4.45000 -0.42000 -10.00000
v -4.45000 1.15000 -10.00000
v -3.70000 1.15000 -10.00000
v 8.94651 1.10000 -4.70376
v 8.74167 1.10000 -3.67393
v 8.94651 1.42000 -4.70376
v 8.74167 1.42000 -3.67393
v 7.93351 1.10000 -5.01105
v 7.53169 1.10000 -4.04098
v 7.93351 1.42000 -5.01105
v 7.53169 1.42000 -4.04098
v 6.99992 1.10000 -5.51006
v 6.41657 1.10000 -4.63702
v 6.99992 1.42000 -5.51006
v 6.41657 1.42000 -4.63702
v 6.18162 1.10000 -6.18162
v 5.43916 1.10000 -5.43916
v 6.18162 1.42000 -6.18162
v 5.43916 1.42000 -5.43916
v 5.51006 1.10000 -6.99992
v 4.63702 1.10000 -6.41657
v 5.51006 1.42000 -6.99992
v 4.63702 1.42000 -6.41657
v 5.01105 1.10000 -7.93351
v 4.04098 1.10000 -7.53169
v 5.01105 1.42000 -7.93351
v 4.04098 1.42000 -7.53169
v 4.70376 1.10000 -8.94651
v 3.67393 1.10000 -8.74167
v 4.70376 1.42000 -8.94651
v 3.67393 1.42000 -8.74167
v 4.60000 1.10000 -10.00000
v 3.55000 1.10000 -10.00000
v 4.60000 1.42000 -10.00000
v 3.55000 1.42000 -10.00000
v 7.15168 1.10000 4.31947
v 7.35653 1.10000 3.28964
v 7.15168 1.42000 4.31947
v 7.35653 1.42000 3.28964
v 4.41282 1.10000 3.48864
v 4.81464 1.10000 2.51857
v 4.41282 1.42000 3.48864
v 4.81464 1.42000 2.51857
v 1.88867 1.10000 2.13946
v 2.47202 1.10000 1.26641
v 1.88867 1.42000 2.13946
v 2.47202 1.42000 1.26641
v -0.32376 1.10000 0.32376
v 0.41870 1.10000 -0.41870
v -0.32376 1.42000 0.32376
v 0.41870 1.42000 -0.41870
v -2.13946 1.10000 -1.88867
v -1.26641 1.10000 -2.47202
v -2.13946 1.42000 -1.88867
v -1.26641 1.42000 -2.47202
v -3.48864 1.10000 -4.41282
v -2.51857 1.10000 -4.81464
v -3.48864 1.42000 -4.41282
v -2.51857 1.42000 -4.81464
v -4.31947 1.10000 -7.15168
v -3.28964 1.10000 -7.35653
v -4.31947 1.42000 -7.15168
v -3.28964 1.42000 -7.35653
v -4.60000 1.10000 -10.00000
v -3.55000 1.10000 -10.00000
v -4.60000 1.42000 -10.00000
v -3.55000 1.42000 -10.00000
v 4.87204 -0.44000 2.37999
v 7.47429 -0.44000 -3.90240
v 8.71240 -0.44000 -3.52682
v 7.38579 -0.44000 3.14252
v 4.87204 -0.18000 2.37999
v 7.38579 -0.18000 3.14252
v 7.47429 -0.18000 -3.90240
v 8.71240 -0.18000 -3.52682
v 0.52477 -0.44000 -0.52477
v 5.33310 -0.44000 -5.33310
v 6.33324 -0.44000 -4.51230
v 2.55536 -0.44000 1.14169
v 0.52477 -0.18000 -0.52477
v 2.55536 -0.18000 1.14169
v 5.33310 -0.18000 -5.33310
v 6.33324 -0.18000 -4.51230
v -2.37999 -0.44000 -4.87204
v 3.90240 -0.44000 -7.47429
v 4.51230 -0.44000 -6.33324
v -1.14169 -0.44000 -2.55536
v -2.37999 -0.18000 -4.87204
v -1.14169 -0.18000 -2.55536
v 3.90240 -0.18000 -7.47429
v 4.51230 -0.18000 -6.33324
v -3.40000 -0.44000 -10.00000
v 3.40000 -0.44000 -10.00000
v 3.52682 -0.44000 -8.71240
v -3.14252 -0.44000 -7.38579
v -3.40000 -0.18000 -10.00000
v -3.14252 -0.18000 -7.38579
v 3.40000 -0.18000 -10.00000
v 3.52682 -0.18000 -8.71240
vt 0.07000 0.01000
vt 0.06000 0.01000
vt 0.02000 0.01000
vt 0.08000 0.01000
vn 0.00000 -1.00000 -0.00000
vn 0.09802 0.00000 0.99518
vn 0.00000 1.00000 0.00000
vn -0.09802 0.00000 -0.99518
vn 0.29028 0.00000 0.95694
vn -0.29028 0.00000 -0.95694
vn 0.47140 0.00000 0.88192
vn -0.47140 0.00000 -0.88192
vn 0.63439 0.00000 0.77301
vn -0.63439 0.00000 -0.77301
vn 0.77301 0.00000 0.63439
vn -0.77301 0.00000 -0.63439
vn 0.88192 0.00000 0.47140
vn -0.88192 0.00000 -0.47140
vn 0.95694 0.00000 0.29028
vn -0.95694 0.00000 -0.29028
vn 0.99518 0.00000 0.09802
vn -0.99518 0.00000 -0.09802
vn 1.00000 0.00000 0.00000
vn 0.00000 -0.00000 1.00000
vn 0.09802 0.00000 0.99518
vn 0.29028 0.00000 0.95694
vn -0.29028 0.00000 -0.95694
vn 0.47140 0.00000 0.88192
vn -0.47140 0.00000 -0.88192
vn 0.63439 0.00000 0.77301
vn 0.77301 0.00000 0.63439
vn 0.88192 0.00000 0.47140
vn -0.88192 0.00000 -0.47140
vn 0.95694 0.00000 0.29028
vn -0.95694 0.00000 -0.29028
vn 0.99518 0.00000 0.09802
vn -0.99518 0.00000 -0.09802
vn -1.00000 0.00000 0.00000
vn 0.00000 0.00000 -1.00000
vn 0.09802 0.00000 0.99518
vn -0.09802 0.00000 -0.99518
vn 0.29028 0.00000 0.95694
vn -0.29028 0.00000 -0.95694
vn 0.47140 0.00000 0.88192
vn -0.47140 0.00000 -0.88192
vn 0.63439 0.00000 0.77301
vn -0.63439 0.00000 -0.77301
vn 0.77301 0.00000 0.63439
vn -0.77301 0.00000 -0.63439
vn 0.88192 0.00000 0.47140
vn -0.88192 0.00000 -0.47140
vn 0.95694 0.00000 0.29028
vn -0.95694 0.00000 -0.29028
vn 0.99518 0.00000 0.09802
vn -0.99518 0.00000 -0.09802
vn 0.09802 0.00000 0.99518
vn -0.29028 0.00000 -0.95694
vn 0.47140 0.00000 0.88192
vn -0.47140 0.00000 -0.88192
vn 0.63439 0.00000 0.77301
vn -0.63439 0.00000 -0.77301
vn -0.77301 0.00000 -0.63439
vn 0.88192 0.00000 0.47140
vn -0.88192 0.00000 -0.47140
vn 0.95694 0.00000 0.29028
vn -0.95694 0.00000 -0.29028
vn 0.99518 0.00000 0.09802
vn -0.99518 0.00000 -0.09802
vn 0.09802 0.00000 0.99518
vn -0.09802 0.00000 -0.99518
vn 0.29028 0.00000 0.95694
vn -0.29028 0.00000 -0.95694
vn 0.47140 0.00000 0.88192
vn -0.47140 0.00000 -0.88192
vn -0.63439 0.00000 -0.77301
vn 0.77301 0.00000 0.63439
vn -0.77301 0.00000 -0.63439
vn 0.88192 0.00000 0.47140
vn -0.88192 0.00000 -0.47140
vn 0.95694 0.00000 0.29028
vn -0.95694 0.00000 -0.29028
vn 0.99518 0.00000 0.09802
vn -0.99518 0.00000 -0.09802
vn 0.29028 0.00000 0.95694
vn 0.98079 0.00000 -0.19509
vn -0.92388 0.00000 0.38268
vn 0.63439 0.00000 0.77301
vn -0.63439 0.00000 -0.77301
vn 0.83147 0.00000 -0.55557
vn -0.70711 0.00000 0.70711
vn 0.88192 0.00000 0.47140
vn -0.88192 0.00000 -0.47140
vn 0.55557 0.00000 -0.83147
vn -0.38268 0.00000 0.92388
vn 0.99518 0.00000 0.09802
vn 0.19509 0.00000 -0.98079
vn -0.09802 0.00000 0.99518
vn 0.09802 0.00000 -0.99518
vn -0.29028 0.00000 0.95694
vn 0.29028 0.00000 -0.95694
vn -0.47140 0.00000 0.88192
vn 0.47140 0.00000 -0.88192
vn -0.63439 0.00000 0.77301
vn 0.63439 0.00000 -0.77301
vn -0.77301 0.00000 0.63439
vn 0.77301 0.00000 -0.63439
vn -0.88192 0.00000 0.47140
vn 0.88192 0.00000 -0.47140
vn -0.95694 0.00000 0.29028
vn 0.95694 0.00000 -0.29028
vn -0.99518 0.00000 0.09802
vn 0.99518 0.00000 -0.09802
vn -0.09802 0.00000 0.99518
vn 0.09802 0.00000 -0.99518
vn -0.29028 0.00000 0.95694
vn 0.29028 0.00000 -0.95694
vn -0.47140 0.00000 0.88192
vn 0.47140 0.00000 -0.88192
vn -0.63439 0.00000 0.77301
vn 0.63439 0.00000 -0.77301
vn -0.77301 0.00000 0.63439
vn 0.77301 0.00000 -0.63439
vn -0.88192 0.00000 0.47140
vn 0.88192 0.00000 -0.47140
vn -0.95694 0.00000 0.29028
vn 0.95694 0.00000 -0.29028
vn -0.99518 0.00000 0.09802
vn 0.99518 0.00000 -0.09802
vn -0.09802 0.00000 0.99518
vn 0.09802 0.00000 -0.99518
vn -0.29028 0.00000 0.95694
vn 0.29028 0.00000 -0.95694
vn -0.47140 0.00000 0.88192
vn 0.47140 0.00000 -0.88192
vn -0.63439 0.00000 0.77301
vn 0.63439 0.00000 -0.77301
vn 0.77301 0.00000 -0.63439
vn -0.88192 0.00000 0.47140
vn 0.88192 0.00000 -0.47140
vn -0.95694 0.00000 0.29028
vn 0.95694 0.00000 -0.29028
vn -0.99518 0.00000 0.09802
vn 0.99518 0.00000 -0.09802
vn -0.09802 0.00000 0.99518
vn 0.09802 0.00000 -0.99518
vn -0.29028 0.00000 0.95694
vn 0.29028 0.00000 -0.95694
vn -0.47140 0.00000 0.88192
vn 0.47140 0.00000 -0.88192
vn 0.63439 0.00000 -0.77301
vn -0.77301 0.00000 0.63439
vn 0.77301 0.00000 -0.63439
vn -0.88192 0.00000 0.47140
vn 0.88192 0.00000 -0.47140
vn -0.95694 0.00000 0.29028
vn 0.95694 0.00000 -0.29028
vn -0.99518 0.00000 0.09802
vn 0.99518 0.00000 -0.09802
vn -0.09802 0.00000 0.99518
vn 0.29028 0.00000 -0.95694
vn -0.47140 0.00000 0.88192
vn 0.47140 0.00000 -0.88192
vn 0.63439 0.00000 -0.77301
vn -0.77301 0.00000 0.63439
vn 0.77301 0.00000 -0.63439
vn -0.88192 0.00000 0.47140
vn 0.88192 0.00000 -0.47140
vn -0.95694 0.00000 0.29028
vn 0.95694 0.00000 -0.29028
vn -0.99518 0.00000 0.09802
vn 0.99518 0.00000 -0.09802
vn -0.29028 0.00000 0.95694
vn 0.29028 0.00000 -0.95694
vn 0.98079 0.00000 0.19509
vn -0.92388 0.00000 -0.38268
vn -0.63439 0.00000 0.77301
vn 0.63439 0.00000 -0.77301
vn 0.83147 0.00000 0.55557
vn -0.70711 0.00000 -0.70711
vn -0.88192 0.00000 0.47140
vn 0.88192 0.00000 -0.47140
vn 0.55557 0.00000 0.83147
vn -0.38268 0.00000 -0.92388
vn 0.19509 0.00000 0.98079
f 1/1/1 2/1/1 3/1/1
f 4/1/1 1/1/1 3/1/1
f 5/1/2 1/1/2 4/1/2
f 6/1/2 5/1/2 4/1/2
f 7/1/3 5/1/3 6/1/3
f 8/1/3 7/1/3 6/1/3
f 2/1/4 7/1/4 8/1/4
f 3/1/4 2/1/4 8/1/4
f 9/1/1 10/1/1 2/1/1
f 1/1/1 9/1/1 2/1/1
f 11/1/5 9/1/5 1/1/5
f 5/1/5 11/1/5 1/1/5
f 12/1/3 11/1/3 5/1/3
f 7/1/3 12/1/3 5/1/3
f 10/1/6 12/1/6 7/1/6
f 2/1/6 10/1/6 7/1/6
f 13/1/1 14/1/1 10/1/1
f 9/1/1 13/1/1 10/1/1
f 15/1/7 13/1/7 9/1/7
f 11/1/7 15/1/7 9/1/7
f 16/1/3 15/1/3 11/1/3
f 12/1/3 16/1/3 11/1/3
f 14/1/8 16/1/8 12/1/8
f 10/1/8 14/1/8 12/1/8
f 17/1/1 18/1/1 14/1/1
f 13/1/1 17/1/1 14/1/1
f 19/1/9 17/1/9 13/1/9
f 15/1/9 19/1/9 13/1/9
f 20/1/3 19/1/3 15/1/3
f 16/1/3 20/1/3 15/1/3
f 18/1/10 20/1/10 16/1/10
f 14/1/10 18/1/10 16/1/10
f 21/1/1 22/1/1 18/1/1
f 17/1/1 21/1/1 18/1/1
f 23/1/11 21/1/11 17/1/11
f 19/1/11 23/1/11 17/1/11
f 24/1/3 23/1/3 19/1/3
f 20/1/3 24/1/3 19/1/3
f 22/1/12 24/1/12 20/1/12
f 18/1/12 22/1/12 20/1/12
f 25/1/1 26/1/1 22/1/1
f 21/1/1 25/1/1 22/1/1
f 27/1/13 25/1/13 21/1/13
f 23/1/13 27/1/13 21/1/13
f 28/1/3 27/1/3 23/1/3
f 24/1/3 28/1/3 23/1/3
f 26/1/14 28/1/14 24/1/14
f 22/1/14 26/1/14 24/1/14
f 29/1/1 30/1/1 26/1/1
f 25/1/1 29/1/1 26/1/1
f 31/1/15 29/1/15 25/1/15
f 27/1/15 31/1/15 25/1/15
f 32/1/3 31/1/3 27/1/3
f 28/1/3 32/1/3 27/1/3
f 30/1/16 32/1/16 28/1/16
f 26/1/16 30/1/16 28/1/16
f 33/1/1 34/1/1 30/1/1
f 29/1/1 33/1/1 30/1/1
f 35/1/17 33/1/17 29/1/17
f 31/1/17 35/1/17 29/1/17
f 36/1/3 35/1/3 31/1/3
f 32/1/3 36/1/3 31/1/3
f 34/1/18 36/1/18 32/1/18
f 30/1/18 34/1/18 32/1/18
f 6/1/19 4/1/19 3/1/19
f 8/1/19 6/1/19 3/1/19
f 33/1/20 35/1/20 34/1/20
f 35/1/20 36/1/20 34/1/20
f 37/2/3 2/2/3 3/2/3
f 38/2/3 37/2/3 3/2/3
f 39/2/21 37/2/21 38/2/21
f 40/2/21 39/2/21 38/2/21
f 41/2/1 39/2/1 40/2/1
f 42/2/1 41/2/1 40/2/1
f 2/2/4 41/2/4 42/2/4
f 3/2/4 2/2/4 42/2/4
f 43/2/3 10/2/3 2/2/3
f 37/2/3 43/2/3 2/2/3
f 44/2/22 43/2/22 37/2/22
f 39/2/22 44/2/22 37/2/22
f 45/2/1 44/2/1 39/2/1
f 41/2/1 45/2/1 39/2/1
f 10/2/23 45/2/23 41/2/23
f 2/2/23 10/2/23 41/2/23
f 46/2/3 14/2/3 10/2/3
f 43/2/3 46/2/3 10/2/3
f 47/2/24 46/2/24 43/2/24
f 44/2/24 47/2/24 43/2/24
f 48/2/1 47/2/1 44/2/1
f 45/2/1 48/2/1 44/2/1
f 14/2/25 48/2/25 45/2/25
f 10/2/25 14/2/25 45/2/25
f 49/2/3 18/2/3 14/2/3
f 46/2/3 49/2/3 14/2/3
f 50/2/26 49/2/26 46/2/26
f 47/2/26 50/2/26 46/2/26
f 51/2/1 50/2/1 47/2/1
f 48/2/1 51/2/1 47/2/1
f 18/2/10 51/2/10 48/2/10
f 14/2/10 18/2/10 48/2/10
f 52/2/3 22/2/3 18/2/3
f 49/2/3 52/2/3 18/2/3
f 53/2/27 52/2/27 49/2/27
f 50/2/27 53/2/27 49/2/27
f 54/2/1 53/2/1 50/2/1
f 51/2/1 54/2/1 50/2/1
f 22/2/12 54/2/12 51/2/12
f 18/2/12 22/2/12 51/2/12
f 55/2/3 26/2/3 22/2/3
f 52/2/3 55/2/3 22/2/3
f 56/2/28 55/2/28 52/2/28
f 53/2/28 56/2/28 52/2/28
f 57/2/1 56/2/1 53/2/1
f 54/2/1 57/2/1 53/2/1
f 26/2/29 57/2/29 54/2/29
f 22/2/29 26/2/29 54/2/29
f 58/2/3 30/2/3 26/2/3
f 55/2/3 58/2/3 26/2/3
f 59/2/30 58/2/30 55/2/30
f 56/2/30 59/2/30 55/2/30
f 60/2/1 59/2/1 56/2/1
f 57/2/1 60/2/1 56/2/1
f 30/2/31 60/2/31 57/2/31
f 26/2/31 30/2/31 57/2/31
f 61/2/3 34/2/3 30/2/3
f 58/2/3 61/2/3 30/2/3
f 62/2/32 61/2/32 58/2/32
f 59/2/32 62/2/32 58/2/32
f 63/2/1 62/2/1 59/2/1
f 60/2/1 63/2/1 59/2/1
f 34/2/33 63/2/33 60/2/33
f 30/2/33 34/2/33 60/2/33
f 40/2/34 38/2/34 3/2/34
f 42/2/34 40/2/34 3/2/34
f 61/2/35 62/2/35 34/2/35
f 62/2/35 63/2/35 34/2/35
f 64/2/1 1/2/1 4/2/1
f 65/2/1 64/2/1 4/2/1
f 66/2/36 64/2/36 65/2/36
f 67/2/36 66/2/36 65/2/36
f 68/2/3 66/2/3 67/2/3
f 69/2/3 68/2/3 67/2/3
f 1/2/37 68/2/37 69/2/37
f 4/2/37 1/2/37 69/2/37
f 70/2/1 9/2/1 1/2/1
f 64/2/1 70/2/1 1/2/1
f 71/2/38 70/2/38 64/2/38
f 66/2/38 71/2/38 64/2/38
f 72/2/3 71/2/3 66/2/3
f 68/2/3 72/2/3 66/2/3
f 9/2/39 72/2/39 68/2/39
f 1/2/39 9/2/39 68/2/39
f 73/2/1 13/2/1 9/2/1
f 70/2/1 73/2/1 9/2/1
f 74/2/40 73/2/40 70/2/40
f 71/2/40 74/2/40 70/2/40
f 75/2/3 74/2/3 71/2/3
f 72/2/3 75/2/3 71/2/3
f 13/2/41 75/2/41 72/2/41
f 9/2/41 13/2/41 72/2/41
f 76/2/1 17/2/1 13/2/1
f 73/2/1 76/2/1 13/2/1
f 77/2/42 76/2/42 73/2/42
f 74/2/42 77/2/42 73/2/42
f 78/2/3 77/2/3 74/2/3
f 75/2/3 78/2/3 74/2/3
f 17/2/43 78/2/43 75/2/43
f 13/2/43 17/2/43 75/2/43
f 79/2/1 21/2/1 17/2/1
f 76/2/1 79/2/1 17/2/1
f 80/2/44 79/2/44 76/2/44
f 77/2/44 80/2/44 76/2/44
f 81/2/3 80/2/3 77/2/3
f 78/2/3 81/2/3 77/2/3
f 21/2/45 81/2/45 78/2/45
f 17/2/45 21/2/45 78/2/45
f 82/2/1 25/2/1 21/2/1
f 79/2/1 82/2/1 21/2/1
f 83/2/46 82/2/46 79/2/46
f 80/2/46 83/2/46 79/2/46
f 84/2/3 83/2/3 80/2/3
f 81/2/3 84/2/3 80/2/3
f 25/2/47 84/2/47 81/2/47
f 21/2/47 25/2/47 81/2/47
f 85/2/1 29/2/1 25/2/1
f 82/2/1 85/2/1 25/2/1
f 86/2/48 85/2/48 82/2/48
f 83/2/48 86/2/48 82/2/48
f 87/2/3 86/2/3 83/2/3
f 84/2/3 87/2/3 83/2/3
f 29/2/49 87/2/49 84/2/49
f 25/2/49 29/2/49 84/2/49
f 88/2/1 33/2/1 29/2/1
f 85/2/1 88/2/1 29/2/1
f 89/2/50 88/2/50 85/2/50
f 86/2/50 89/2/50 85/2/50
f 90/2/3 89/2/3 86/2/3
f 87/2/3 90/2/3 86/2/3
f 33/2/51 90/2/51 87/2/51
f 29/2/51 33/2/51 87/2/51
f 67/2/19 65/2/19 4/2/19
f 69/2/19 67/2/19 4/2/19
f 88/2/20 89/2/20 33/2/20
f 89/2/20 90/2/20 33/2/20
f 91/3/3 92/3/3 93/3/3
f 94/3/3 91/3/3 93/3/3
f 95/3/52 91/3/52 94/3/52
f 96/3/52 95/3/52 94/3/52
f 97/3/1 95/3/1 96/3/1
f 98/3/1 97/3/1 96/3/1
f 92/3/4 97/3/4 98/3/4
f 93/3/4 92/3/4 98/3/4
f 99/3/3 100/3/3 92/3/3
f 91/3/3 99/3/3 92/3/3
f 101/3/38 99/3/38 91/3/38
f 95/3/38 101/3/38 91/3/38
f 102/3/1 101/3/1 95/3/1
f 97/3/1 102/3/1 95/3/1
f 100/3/53 102/3/53 97/3/53
f 92/3/53 100/3/53 97/3/53
f 103/3/3 104/3/3 100/3/3
f 99/3/3 103/3/3 100/3/3
f 105/3/54 103/3/54 99/3/54
f 101/3/54 105/3/54 99/3/54
f 106/3/1 105/3/1 101/3/1
f 102/3/1 106/3/1 101/3/1
f 104/3/55 106/3/55 102/3/55
f 100/3/55 104/3/55 102/3/55
f 107/3/3 108/3/3 104/3/3
f 103/3/3 107/3/3 104/3/3
f 109/3/56 107/3/56 103/3/56
f 105/3/56 109/3/56 103/3/56
f 110/3/1 109/3/1 105/3/1
f 106/3/1 110/3/1 105/3/1
f 108/3/57 110/3/57 106/3/57
f 104/3/57 108/3/57 106/3/57
f 111/3/3 112/3/3 108/3/3
f 107/3/3 111/3/3 108/3/3
f 113/3/11 111/3/11 107/3/11
f 109/3/11 113/3/11 107/3/11
f 114/3/1 113/3/1 109/3/1
f 110/3/1 114/3/1 109/3/1
f 112/3/58 114/3/58 110/3/58
f 108/3/58 112/3/58 110/3/58
f 115/3/3 116/3/3 112/3/3
f 111/3/3 115/3/3 112/3/3
f 117/3/59 115/3/59 111/3/59
f 113/3/59 117/3/59 111/3/59
f 118/3/1 117/3/1 113/3/1
f 114/3/1 118/3/1 113/3/1
f 116/3/60 118/3/60 114/3/60
f 112/3/60 116/3/60 114/3/60
f 119/3/3 120/3/3 116/3/3
f 115/3/3 119/3/3 116/3/3
f 121/3/61 119/3/61 115/3/61
f 117/3/61 121/3/61 115/3/61
f 122/3/1 121/3/1 117/3/1
f 118/3/1 122/3/1 117/3/1
f 120/3/62 122/3/62 118/3/62
f 116/3/62 120/3/62 118/3/62
f 123/3/3 124/3/3 120/3/3
f 119/3/3 123/3/3 120/3/3
f 125/3/63 123/3/63 119/3/63
f 121/3/63 125/3/63 119/3/63
f 126/3/1 125/3/1 121/3/1
f 122/3/1 126/3/1 121/3/1
f 124/3/64 126/3/64 122/3/64
f 120/3/64 124/3/64 122/3/64
f 96/3/34 94/3/34 93/3/34
f 98/3/34 96/3/34 93/3/34
f 123/3/35 125/3/35 124/3/35
f 125/3/35 126/3/35 124/3/35
f 127/3/1 128/3/1 129/3/1
f 130/3/1 127/3/1 129/3/1
f 131/3/65 127/3/65 130/3/65
f 132/3/65 131/3/65 130/3/65
f 133/3/3 131/3/3 132/3/3
f 134/3/3 133/3/3 132/3/3
f 128/3/66 133/3/66 134/3/66
f 129/3/66 128/3/66 134/3/66
f 135/3/1 136/3/1 128/3/1
f 127/3/1 135/3/1 128/3/1
f 137/3/67 135/3/67 127/3/67
f 131/3/67 137/3/67 127/3/67
f 138/3/3 137/3/3 131/3/3
f 133/3/3 138/3/3 131/3/3
f 136/3/68 138/3/68 133/3/68
f 128/3/68 136/3/68 133/3/68
f 139/3/1 140/3/1 136/3/1
f 135/3/1 139/3/1 136/3/1
f 141/3/69 139/3/69 135/3/69
f 137/3/69 141/3/69 135/3/69
f 142/3/3 141/3/3 137/3/3
f 138/3/3 142/3/3 137/3/3
f 140/3/70 142/3/70 138/3/70
f 136/3/70 140/3/70 138/3/70
f 143/3/1 144/3/1 140/3/1
f 139/3/1 143/3/1 140/3/1
f 145/3/26 143/3/26 139/3/26
f 141/3/26 145/3/26 139/3/26
f 146/3/3 145/3/3 141/3/3
f 142/3/3 146/3/3 141/3/3
f 144/3/71 146/3/71 142/3/71
f 140/3/71 144/3/71 142/3/71
f 147/3/1 148/3/1 144/3/1
f 143/3/1 147/3/1 144/3/1
f 149/3/72 147/3/72 143/3/72
f 145/3/72 149/3/72 143/3/72
f 150/3/3 149/3/3 145/3/3
f 146/3/3 150/3/3 145/3/3
f 148/3/73 150/3/73 146/3/73
f 144/3/73 148/3/73 146/3/73
f 151/3/1 152/3/1 148/3/1
f 147/3/1 151/3/1 148/3/1
f 153/3/74 151/3/74 147/3/74
f 149/3/74 153/3/74 147/3/74
f 154/3/3 153/3/3 149/3/3
f 150/3/3 154/3/3 149/3/3
f 152/3/75 154/3/75 150/3/75
f 148/3/75 152/3/75 150/3/75
f 155/3/1 156/3/1 152/3/1
f 151/3/1 155/3/1 152/3/1
f 157/3/76 155/3/76 151/3/76
f 153/3/76 157/3/76 151/3/76
f 158/3/3 157/3/3 153/3/3
f 154/3/3 158/3/3 153/3/3
f 156/3/77 158/3/77 154/3/77
f 152/3/77 156/3/77 154/3/77
f 159/3/1 160/3/1 156/3/1
f 155/3/1 159/3/1 156/3/1
f 161/3/78 159/3/78 155/3/78
f 157/3/78 161/3/78 155/3/78
f 162/3/3 161/3/3 157/3/3
f 158/3/3 162/3/3 157/3/3
f 160/3/79 162/3/79 158/3/79
f 156/3/79 160/3/79 158/3/79
f 132/3/19 130/3/19 129/3/19
f 134/3/19 132/3/19 129/3/19
f 159/3/20 161/3/20 160/3/20
f 161/3/20 162/3/20 160/3/20
f 163/4/1 164/4/1 165/4/1
f 166/4/1 163/4/1 165/4/1
f 167/4/80 163/4/80 166/4/80
f 168/4/80 167/4/80 166/4/80
f 169/4/3 167/4/3 168/4/3
f 170/4/3 169/4/3 168/4/3
f 164/4/39 169/4/39 170/4/39
f 165/4/39 164/4/39 170/4/39
f 168/4/81 166/4/81 165/4/81
f 170/4/81 168/4/81 165/4/81
f 163/4/82 167/4/82 164/4/82
f 167/4/82 169/4/82 164/4/82
f 171/4/1 172/4/1 173/4/1
f 174/4/1 171/4/1 173/4/1
f 175/4/83 171/4/83 174/4/83
f 176/4/83 175/4/83 174/4/83
f 177/4/3 175/4/3 176/4/3
f 178/4/3 177/4/3 176/4/3
f 172/4/84 177/4/84 178/4/84
f 173/4/84 172/4/84 178/4/84
f 176/4/85 174/4/85 173/4/85
f 178/4/85 176/4/85 173/4/85
f 171/4/86 175/4/86 172/4/86
f 175/4/86 177/4/86 172/4/86
f 179/4/1 180/4/1 181/4/1
f 182/4/1 179/4/1 181/4/1
f 183/4/87 179/4/87 182/4/87
f 184/4/87 183/4/87 182/4/87
f 185/4/3 183/4/3 184/4/3
f 186/4/3 185/4/3 184/4/3
f 180/4/88 185/4/88 186/4/88
f 181/4/88 180/4/88 186/4/88
f 184/4/89 182/4/89 181/4/89
f 186/4/89 184/4/89 181/4/89
f 179/4/90 183/4/90 180/4/90
f 183/4/90 185/4/90 180/4/90
f 187/4/1 188/4/1 189/4/1
f 190/4/1 187/4/1 189/4/1
f 191/4/91 187/4/91 190/4/91
f 192/4/91 191/4/91 190/4/91
f 193/4/3 191/4/3 192/4/3
f 194/4/3 193/4/3 192/4/3
f 188/4/33 193/4/33 194/4/33
f 189/4/33 188/4/33 194/4/33
f 192/4/92 190/4/92 189/4/92
f 194/4/92 192/4/92 189/4/92
f 187/4/20 191/4/20 188/4/20
f 191/4/20 193/4/20 188/4/20
f 195/1/1 196/1/1 3/1/1
f 4/1/1 195/1/1 3/1/1
f 197/1/93 195/1/93 4/1/93
f 6/1/93 197/1/93 4/1/93
f 198/1/3 197/1/3 6/1/3
f 8/1/3 198/1/3 6/1/3
f 196/1/94 198/1/94 8/1/94
f 3/1/94 196/1/94 8/1/94
f 199/1/1 200/1/1 196/1/1
f 195/1/1 199/1/1 196/1/1
f 201/1/95 199/1/95 195/1/95
f 197/1/95 201/1/95 195/1/95
f 202/1/3 201/1/3 197/1/3
f 198/1/3 202/1/3 197/1/3
f 200/1/96 202/1/96 198/1/96
f 196/1/96 200/1/96 198/1/96
f 203/1/1 204/1/1 200/1/1
f 199/1/1 203/1/1 200/1/1
f 205/1/97 203/1/97 199/1/97
f 201/1/97 205/1/97 199/1/97
f 206/1/3 205/1/3 201/1/3
f 202/1/3 206/1/3 201/1/3
f 204/1/98 206/1/98 202/1/98
f 200/1/98 204/1/98 202/1/98
f 207/1/1 208/1/1 204/1/1
f 203/1/1 207/1/1 204/1/1
f 209/1/99 207/1/99 203/1/99
f 205/1/99 209/1/99 203/1/99
f 210/1/3 209/1/3 205/1/3
f 206/1/3 210/1/3 205/1/3
f 208/1/100 210/1/100 206/1/100
f 204/1/100 208/1/100 206/1/100
f 211/1/1 212/1/1 208/1/1
f 207/1/1 211/1/1 208/1/1
f 213/1/101 211/1/101 207/1/101
f 209/1/101 213/1/101 207/1/101
f 214/1/3 213/1/3 209/1/3
f 210/1/3 214/1/3 209/1/3
f 212/1/102 214/1/102 210/1/102
f 208/1/102 212/1/102 210/1/102
f 215/1/1 216/1/1 212/1/1
f 211/1/1 215/1/1 212/1/1
f 217/1/103 215/1/103 211/1/103
f 213/1/103 217/1/103 211/1/103
f 218/1/3 217/1/3 213/1/3
f 214/1/3 218/1/3 213/1/3
f 216/1/104 218/1/104 214/1/104
f 212/1/104 216/1/104 214/1/104
f 219/1/1 220/1/1 216/1/1
f 215/1/1 219/1/1 216/1/1
f 221/1/105 219/1/105 215/1/105
f 217/1/105 221/1/105 215/1/105
f 222/1/3 221/1/3 217/1/3
f 218/1/3 222/1/3 217/1/3
f 220/1/106 222/1/106 218/1/106
f 216/1/106 220/1/106 218/1/106
f 223/1/1 224/1/1 220/1/1
f 219/1/1 223/1/1 220/1/1
f 225/1/107 223/1/107 219/1/107
f 221/1/107 225/1/107 219/1/107
f 226/1/3 225/1/3 221/1/3
f 222/1/3 226/1/3 221/1/3
f 224/1/108 226/1/108 222/1/108
f 220/1/108 224/1/108 222/1/108
f 6/1/19 4/1/19 3/1/19
f 8/1/19 6/1/19 3/1/19
f 223/1/35 225/1/35 224/1/35
f 225/1/35 226/1/35 224/1/35
f 227/2/3 196/2/3 3/2/3
f 38/2/3 227/2/3 3/2/3
f 228/2/109 227/2/109 38/2/109
f 40/2/109 228/2/109 38/2/109
f 229/2/1 228/2/1 40/2/1
f 42/2/1 229/2/1 40/2/1
f 196/2/110 229/2/110 42/2/110
f 3/2/110 196/2/110 42/2/110
f 230/2/3 200/2/3 196/2/3
f 227/2/3 230/2/3 196/2/3
f 231/2/111 230/2/111 227/2/111
f 228/2/111 231/2/111 227/2/111
f 232/2/1 231/2/1 228/2/1
f 229/2/1 232/2/1 228/2/1
f 200/2/112 232/2/112 229/2/112
f 196/2/112 200/2/112 229/2/112
f 233/2/3 204/2/3 200/2/3
f 230/2/3 233/2/3 200/2/3
f 234/2/113 233/2/113 230/2/113
f 231/2/113 234/2/113 230/2/113
f 235/2/1 234/2/1 231/2/1
f 232/2/1 235/2/1 231/2/1
f 204/2/114 235/2/114 232/2/114
f 200/2/114 204/2/114 232/2/114
f 236/2/3 208/2/3 204/2/3
f 233/2/3 236/2/3 204/2/3
f 237/2/115 236/2/115 233/2/115
f 234/2/115 237/2/115 233/2/115
f 238/2/1 237/2/1 234/2/1
f 235/2/1 238/2/1 234/2/1
f 208/2/116 238/2/116 235/2/116
f 204/2/116 208/2/116 235/2/116
f 239/2/3 212/2/3 208/2/3
f 236/2/3 239/2/3 208/2/3
f 240/2/117 239/2/117 236/2/117
f 237/2/117 240/2/117 236/2/117
f 241/2/1 240/2/1 237/2/1
f 238/2/1 241/2/1 237/2/1
f 212/2/118 241/2/118 238/2/118
f 208/2/118 212/2/118 238/2/118
f 242/2/3 216/2/3 212/2/3
f 239/2/3 242/2/3 212/2/3
f 243/2/119 242/2/119 239/2/119
f 240/2/119 243/2/119 239/2/119
f 244/2/1 243/2/1 240/2/1
f 241/2/1 244/2/1 240/2/1
f 216/2/120 244/2/120 241/2/120
f 212/2/120 216/2/120 241/2/120
f 245/2/3 220/2/3 216/2/3
f 242/2/3 245/2/3 216/2/3
f 246/2/121 245/2/121 242/2/121
f 243/2/121 246/2/121 242/2/121
f 247/2/1 246/2/1 243/2/1
f 244/2/1 247/2/1 243/2/1
f 220/2/122 247/2/122 244/2/122
f 216/2/122 220/2/122 244/2/122
f 248/2/3 224/2/3 220/2/3
f 245/2/3 248/2/3 220/2/3
f 249/2/123 248/2/123 245/2/123
f 246/2/123 249/2/123 245/2/123
f 250/2/1 249/2/1 246/2/1
f 247/2/1 250/2/1 246/2/1
f 224/2/124 250/2/124 247/2/124
f 220/2/124 224/2/124 247/2/124
f 40/2/34 38/2/34 3/2/34
f 42/2/34 40/2/34 3/2/34
f 248/2/20 249/2/20 224/2/20
f 249/2/20 250/2/20 224/2/20
f 251/2/1 195/2/1 4/2/1
f 65/2/1 251/2/1 4/2/1
f 252/2/125 251/2/125 65/2/125
f 67/2/125 252/2/125 65/2/125
f 253/2/3 252/2/3 67/2/3
f 69/2/3 253/2/3 67/2/3
f 195/2/126 253/2/126 69/2/126
f 4/2/126 195/2/126 69/2/126
f 254/2/1 199/2/1 195/2/1
f 251/2/1 254/2/1 195/2/1
f 255/2/127 254/2/127 251/2/127
f 252/2/127 255/2/127 251/2/127
f 256/2/3 255/2/3 252/2/3
f 253/2/3 256/2/3 252/2/3
f 199/2/128 256/2/128 253/2/128
f 195/2/128 199/2/128 253/2/128
f 257/2/1 203/2/1 199/2/1
f 254/2/1 257/2/1 199/2/1
f 258/2/129 257/2/129 254/2/129
f 255/2/129 258/2/129 254/2/129
f 259/2/3 258/2/3 255/2/3
f 256/2/3 259/2/3 255/2/3
f 203/2/130 259/2/130 256/2/130
f 199/2/130 203/2/130 256/2/130
f 260/2/1 207/2/1 203/2/1
f 257/2/1 260/2/1 203/2/1
f 261/2/131 260/2/131 257/2/131
f 258/2/131 261/2/131 257/2/131
f 262/2/3 261/2/3 258/2/3
f 259/2/3 262/2/3 258/2/3
f 207/2/132 262/2/132 259/2/132
f 203/2/132 207/2/132 259/2/132
f 263/2/1 211/2/1 207/2/1
f 260/2/1 263/2/1 207/2/1
f 264/2/101 263/2/101 260/2/101
f 261/2/101 264/2/101 260/2/101
f 265/2/3 264/2/3 261/2/3
f 262/2/3 265/2/3 261/2/3
f 211/2/133 265/2/133 262/2/133
f 207/2/133 211/2/133 262/2/133
f 266/2/1 215/2/1 211/2/1
f 263/2/1 266/2/1 211/2/1
f 267/2/134 266/2/134 263/2/134
f 264/2/134 267/2/134 263/2/134
f 268/2/3 267/2/3 264/2/3
f 265/2/3 268/2/3 264/2/3
f 215/2/135 268/2/135 265/2/135
f 211/2/135 215/2/135 265/2/135
f 269/2/1 219/2/1 215/2/1
f 266/2/1 269/2/1 215/2/1
f 270/2/136 269/2/136 266/2/136
f 267/2/136 270/2/136 266/2/136
f 271/2/3 270/2/3 267/2/3
f 268/2/3 271/2/3 267/2/3
f 219/2/137 271/2/137 268/2/137
f 215/2/137 219/2/137 268/2/137
f 272/2/1 223/2/1 219/2/1
f 269/2/1 272/2/1 219/2/1
f 273/2/138 272/2/138 269/2/138
f 270/2/138 273/2/138 269/2/138
f 274/2/3 273/2/3 270/2/3
f 271/2/3 274/2/3 270/2/3
f 223/2/139 274/2/139 271/2/139
f 219/2/139 223/2/139 271/2/139
f 67/2/19 65/2/19 4/2/19
f 69/2/19 67/2/19 4/2/19
f 272/2/35 273/2/35 223/2/35
f 273/2/35 274/2/35 223/2/35
f 275/3/3 276/3/3 93/3/3
f 94/3/3 275/3/3 93/3/3
f 277/3/140 275/3/140 94/3/140
f 96/3/140 277/3/140 94/3/140
f 278/3/1 277/3/1 96/3/1
f 98/3/1 278/3/1 96/3/1
f 276/3/141 278/3/141 98/3/141
f 93/3/141 276/3/141 98/3/141
f 279/3/3 280/3/3 276/3/3
f 275/3/3 279/3/3 276/3/3
f 281/3/142 279/3/142 275/3/142
f 277/3/142 281/3/142 275/3/142
f 282/3/1 281/3/1 277/3/1
f 278/3/1 282/3/1 277/3/1
f 280/3/143 282/3/143 278/3/143
f 276/3/143 280/3/143 278/3/143
f 283/3/3 284/3/3 280/3/3
f 279/3/3 283/3/3 280/3/3
f 285/3/144 283/3/144 279/3/144
f 281/3/144 285/3/144 279/3/144
f 286/3/1 285/3/1 281/3/1
f 282/3/1 286/3/1 281/3/1
f 284/3/145 286/3/145 282/3/145
f 280/3/145 284/3/145 282/3/145
f 287/3/3 288/3/3 284/3/3
f 283/3/3 287/3/3 284/3/3
f 289/3/131 287/3/131 283/3/131
f 285/3/131 289/3/131 283/3/131
f 290/3/1 289/3/1 285/3/1
f 286/3/1 290/3/1 285/3/1
f 288/3/146 290/3/146 286/3/146
f 284/3/146 288/3/146 286/3/146
f 291/3/3 292/3/3 288/3/3
f 287/3/3 291/3/3 288/3/3
f 293/3/147 291/3/147 287/3/147
f 289/3/147 293/3/147 287/3/147
f 294/3/1 293/3/1 289/3/1
f 290/3/1 294/3/1 289/3/1
f 292/3/148 294/3/148 290/3/148
f 288/3/148 292/3/148 290/3/148
f 295/3/3 296/3/3 292/3/3
f 291/3/3 295/3/3 292/3/3
f 297/3/149 295/3/149 291/3/149
f 293/3/149 297/3/149 291/3/149
f 298/3/1 297/3/1 293/3/1
f 294/3/1 298/3/1 293/3/1
f 296/3/150 298/3/150 294/3/150
f 292/3/150 296/3/150 294/3/150
f 299/3/3 300/3/3 296/3/3
f 295/3/3 299/3/3 296/3/3
f 301/3/151 299/3/151 295/3/151
f 297/3/151 301/3/151 295/3/151
f 302/3/1 301/3/1 297/3/1
f 298/3/1 302/3/1 297/3/1
f 300/3/152 302/3/152 298/3/152
f 296/3/152 300/3/152 298/3/152
f 303/3/3 304/3/3 300/3/3
f 299/3/3 303/3/3 300/3/3
f 305/3/153 303/3/153 299/3/153
f 301/3/153 305/3/153 299/3/153
f 306/3/1 305/3/1 301/3/1
f 302/3/1 306/3/1 301/3/1
f 304/3/154 306/3/154 302/3/154
f 300/3/154 304/3/154 302/3/154
f 96/3/34 94/3/34 93/3/34
f 98/3/34 96/3/34 93/3/34
f 303/3/20 305/3/20 304/3/20
f 305/3/20 306/3/20 304/3/20
f 307/3/1 308/3/1 129/3/1
f 130/3/1 307/3/1 129/3/1
f 309/3/155 307/3/155 130/3/155
f 132/3/155 309/3/155 130/3/155
f 310/3/3 309/3/3 132/3/3
f 134/3/3 310/3/3 132/3/3
f 308/3/126 310/3/126 134/3/126
f 129/3/126 308/3/126 134/3/126
f 311/3/1 312/3/1 308/3/1
f 307/3/1 311/3/1 308/3/1
f 313/3/111 311/3/111 307/3/111
f 309/3/111 313/3/111 307/3/111
f 314/3/3 313/3/3 309/3/3
f 310/3/3 314/3/3 309/3/3
f 312/3/156 314/3/156 310/3/156
f 308/3/156 312/3/156 310/3/156
f 315/3/1 316/3/1 312/3/1
f 311/3/1 315/3/1 312/3/1
f 317/3/157 315/3/157 311/3/157
f 313/3/157 317/3/157 311/3/157
f 318/3/3 317/3/3 313/3/3
f 314/3/3 318/3/3 313/3/3
f 316/3/158 318/3/158 314/3/158
f 312/3/158 316/3/158 314/3/158
f 319/3/1 320/3/1 316/3/1
f 315/3/1 319/3/1 316/3/1
f 321/3/99 319/3/99 315/3/99
f 317/3/99 321/3/99 315/3/99
f 322/3/3 321/3/3 317/3/3
f 318/3/3 322/3/3 317/3/3
f 320/3/159 322/3/159 318/3/159
f 316/3/159 320/3/159 318/3/159
f 323/3/1 324/3/1 320/3/1
f 319/3/1 323/3/1 320/3/1
f 325/3/160 323/3/160 319/3/160
f 321/3/160 325/3/160 319/3/160
f 326/3/3 325/3/3 321/3/3
f 322/3/3 326/3/3 321/3/3
f 324/3/161 326/3/161 322/3/161
f 320/3/161 324/3/161 322/3/161
f 327/3/1 328/3/1 324/3/1
f 323/3/1 327/3/1 324/3/1
f 329/3/162 327/3/162 323/3/162
f 325/3/162 329/3/162 323/3/162
f 330/3/3 329/3/3 325/3/3
f 326/3/3 330/3/3 325/3/3
f 328/3/163 330/3/163 326/3/163
f 324/3/163 328/3/163 326/3/163
f 331/3/1 332/3/1 328/3/1
f 327/3/1 331/3/1 328/3/1
f 333/3/164 331/3/164 327/3/164
f 329/3/164 333/3/164 327/3/164
f 334/3/3 333/3/3 329/3/3
f 330/3/3 334/3/3 329/3/3
f 332/3/165 334/3/165 330/3/165
f 328/3/165 332/3/165 330/3/165
f 335/3/1 336/3/1 332/3/1
f 331/3/1 335/3/1 332/3/1
f 337/3/166 335/3/166 331/3/166
f 333/3/166 337/3/166 331/3/166
f 338/3/3 337/3/3 333/3/3
f 334/3/3 338/3/3 333/3/3
f 336/3/167 338/3/167 334/3/167
f 332/3/167 336/3/167 334/3/167
f 132/3/19 130/3/19 129/3/19
f 134/3/19 132/3/19 129/3/19
f 335/3/35 337/3/35 336/3/35
f 337/3/35 338/3/35 336/3/35
f 339/4/1 340/4/1 341/4/1
f 342/4/1 339/4/1 341/4/1
f 343/4/168 339/4/168 342/4/168
f 344/4/168 343/4/168 342/4/168
f 345/4/3 343/4/3 344/4/3
f 346/4/3 345/4/3 344/4/3
f 340/4/169 345/4/169 346/4/169
f 341/4/169 340/4/169 346/4/169
f 344/4/170 342/4/170 341/4/170
f 346/4/170 344/4/170 341/4/170
f 339/4/171 343/4/171 340/4/171
f 343/4/171 345/4/171 340/4/171
f 347/4/1 348/4/1 349/4/1
f 350/4/1 347/4/1 349/4/1
f 351/4/172 347/4/172 350/4/172
f 352/4/172 351/4/172 350/4/172
f 353/4/3 351/4/3 352/4/3
f 354/4/3 353/4/3 352/4/3
f 348/4/173 353/4/173 354/4/173
f 349/4/173 348/4/173 354/4/173
f 352/4/174 350/4/174 349/4/174
f 354/4/174 352/4/174 349/4/174
f 347/4/175 351/4/175 348/4/175
f 351/4/175 353/4/175 348/4/175
f 355/4/1 356/4/1 357/4/1
f 358/4/1 355/4/1 357/4/1
f 359/4/176 355/4/176 358/4/176
f 360/4/176 359/4/176 358/4/176
f 361/4/3 359/4/3 360/4/3
f 362/4/3 361/4/3 360/4/3
f 356/4/177 361/4/177 362/4/177
f 357/4/177 356/4/177 362/4/177
f 360/4/178 358/4/178 357/4/178
f 362/4/178 360/4/178 357/4/178
f 355/4/179 359/4/179 356/4/179
f 359/4/179 361/4/179 356/4/179
f 363/4/1 364/4/1 365/4/1
f 366/4/1 363/4/1 365/4/1
f 367/4/166 363/4/166 366/4/166
f 368/4/166 367/4/166 366/4/166
f 369/4/3 367/4/3 368/4/3
f 370/4/3 369/4/3 368/4/3
f 364/4/167 369/4/167 370/4/167
f 365/4/167 364/4/167 370/4/167
f 368/4/180 366/4/180 365/4/180
f 370/4/180 368/4/180 365/4/180
f 363/4/35 367/4/35 364/4/35
f 367/4/35 369/4/35 364/4/35
