# CargoTrackLift2DownLeft - generated by Tools/generate_meshes.py, do not hand-edit
# Regenerate with: python Tools/generate_meshes.py
o CargoTrackLift2DownLeft
v 8.77093 -5.42000 3.82105
v 7.32726 -5.42000 -3.43676
v 10.00000 -0.42000 -3.70000
v 10.00000 -0.42000 3.70000
v 8.77093 -5.00000 3.82105
v 10.00000 0.00000 3.70000
v 7.32726 -5.00000 -3.43676
v 10.00000 0.00000 -3.70000
v 7.58909 -10.42000 4.17956
v 4.75724 -10.42000 -2.65715
v 7.58909 -10.00000 4.17956
v 4.75724 -10.00000 -2.65715
v 6.49991 -15.42000 4.76174
v 2.38869 -15.42000 -1.39113
v 6.49991 -15.00000 4.76174
v 2.38869 -15.00000 -1.39113
v 5.54523 -20.42000 5.54523
v 0.31264 -20.42000 0.31264
v 5.54523 -20.00000 5.54523
v 0.31264 -20.00000 0.31264
v 4.76174 -25.42000 6.49991
v -1.39113 -25.42000 2.38869
v 4.76174 -25.00000 6.49991
v -1.39113 -25.00000 2.38869
v 4.17956 -30.42000 7.58909
v -2.65715 -30.42000 4.75724
v 4.17956 -30.00000 7.58909
v -2.65715 -30.00000 4.75724
v 3.82105 -35.42000 8.77093
v -3.43676 -35.42000 7.32726
v 3.82105 -35.00000 8.77093
v -3.43676 -35.00000 7.32726
v 3.70000 -40.42000 10.00000
v -3.70000 -40.42000 10.00000
v 3.70000 -40.00000 10.00000
v -3.70000 -40.00000 10.00000
v 7.18094 -5.42000 -4.17235
v 10.00000 -0.42000 -4.45000
v 7.32726 -3.85000 -3.43676
v 10.00000 1.15000 -3.70000
v 7.18094 -3.85000 -4.17235
v 10.00000 1.15000 -4.45000
v 4.47022 -10.42000 -3.35006
v 4.75724 -8.85000 -2.65715
v 4.47022 -8.85000 -3.35006
v 1.97201 -15.42000 -2.01474
v 2.38869 -13.85000 -1.39113
v 1.97201 -13.85000 -2.01474
v -0.21769 -20.42000 -0.21769
v 0.31264 -18.85000 0.31264
v -0.21769 -18.85000 -0.21769
v -2.01474 -25.42000 1.97201
v -1.39113 -23.85000 2.38869
v -2.01474 -23.85000 1.97201
v -3.35006 -30.42000 4.47022
v -2.65715 -28.85000 4.75724
v -3.35006 -28.85000 4.47022
v -4.17235 -35.42000 7.18094
v -3.43676 -33.85000 7.32726
v -4.17235 -33.85000 7.18094
v -4.45000 -40.42000 10.00000
v -3.70000 -38.85000 10.00000
v -4.45000 -38.85000 10.00000
v 8.91725 -5.42000 4.55664
v 10.00000 -0.42000 4.45000
v 8.91725 -3.85000 4.55664
v 10.00000 1.15000 4.45000
v 8.77093 -3.85000 3.82105
v 10.00000 1.15000 3.70000
v 7.87611 -10.42000 4.87247
v 7.87611 -8.85000 4.87247
v 7.58909 -8.85000 4.17956
v 6.91659 -15.42000 5.38534
v 6.91659 -13.85000 5.38534
v 6.49991 -13.85000 4.76174
v 6.07556 -20.42000 6.07556
v 6.07556 -18.85000 6.07556
v 5.54523 -18.85000 5.54523
v 5.38534 -25.42000 6.91659
v 5.38534 -23.85000 6.91659
v 4.76174 -23.85000 6.49991
v 4.87247 -30.42000 7.87611
v 4.87247 -28.85000 7.87611
v 4.17956 -28.85000 7.58909
v 4.55664 -35.42000 8.91725
v 4.55664 -33.85000 8.91725
v 3.82105 -33.85000 8.77093
v 4.45000 -40.42000 10.00000
v 4.45000 -38.85000 10.00000
v 3.70000 -38.85000 10.00000
v 7.35653 -3.90000 -3.28964
v 7.15168 -3.90000 -4.31947
v 10.00000 1.10000 -4.60000
v 10.00000 1.10000 -3.55000
v 7.35653 -3.58000 -3.28964
v 10.00000 1.42000 -3.55000
v 7.15168 -3.58000 -4.31947
v 10.00000 1.42000 -4.60000
v 4.81464 -8.90000 -2.51857
v 4.41282 -8.90000 -3.48864
v 4.81464 -8.58000 -2.51857
v 4.41282 -8.58000 -3.48864
v 2.47202 -13.90000 -1.26641
v 1.88867 -13.90000 -2.13946
v 2.47202 -13.58000 -1.26641
v 1.88867 -13.58000 -2.13946
v 0.41870 -18.90000 0.41870
v -0.32376 -18.90000 -0.32376
v 0.41870 -18.58000 0.41870
v -0.32376 -18.58000 -0.32376
v -1.26641 -23.90000 2.47202
v -2.13946 -23.90000 1.88867
v -1.26641 -23.58000 2.47202
v -2.13946 -23.58000 1.88867
v -2.51857 -28.90000 4.81464
v -3.48864 -28.90000 4.41282
v -2.51857 -28.58000 4.81464
v -3.48864 -28.58000 4.41282
v -3.28964 -33.90000 7.35653
v -4.31947 -33.90000 7.15168
v -3.28964 -33.58000 7.35653
v -4.31947 -33.58000 7.15168
v -3.55000 -38.90000 10.00000
v -4.60000 -38.90000 10.00000
v -3.55000 -38.58000 10.00000
v -4.60000 -38.58000 10.00000
v 8.94651 -3.90000 4.70376
v 8.74167 -3.90000 3.67393
v 10.00000 1.10000 3.55000
v 10.00000 1.10000 4.60000
v 8.94651 -3.58000 4.70376
v 10.00000 1.42000 4.60000
v 8.74167 -3.58000 3.67393
v 10.00000 1.42000 3.55000
v 7.93351 -8.90000 5.01105
v 7.53169 -8.90000 4.04098
v 7.93351 -8.58000 5.01105
v 7.53169 -8.58000 4.04098
v 6.99992 -13.90000 5.51006
v 6.41657 -13.90000 4.63702
v 6.99992 -13.58000 5.51006
v 6.41657 -13.58000 4.63702
v 6.18162 -18.90000 6.18162
v 5.43916 -18.90000 5.43916
v 6.18162 -18.58000 6.18162
v 5.43916 -18.58000 5.43916
v 5.51006 -23.90000 6.99992
v 4.63702 -23.90000 6.41657
v 5.51006 -23.58000 6.99992
v 4.63702 -23.58000 6.41657
v 5.01105 -28.90000 7.93351
v 4.04098 -28.90000 7.53169
v 5.01105 -28.58000 7.93351
v 4.04098 -28.58000 7.53169
v 4.70376 -33.90000 8.94651
v 3.67393 -33.90000 8.74167
v 4.70376 -33.58000 8.94651
v 3.67393 -33.58000 8.74167
v 4.60000 -38.90000 10.00000
v 3.55000 -38.90000 10.00000
v 4.60000 -38.58000 10.00000
v 3.55000 -38.58000 10.00000
v 7.47429 -10.44000 3.90240
v 4.87204 -10.44000 -2.37999
v 7.38579 -5.44000 -3.14252
v 8.71240 -5.44000 3.52682
v 7.47429 -10.18000 3.90240
v 8.71240 -5.18000 3.52682
v 4.87204 -10.18000 -2.37999
v 7.38579 -5.18000 -3.14252
v 5.33310 -20.44000 5.33310
v 0.52477 -20.44000 0.52477
v 2.55536 -15.44000 -1.14169
v 6.33324 -15.44000 4.51230
v 5.33310 -20.18000 5.33310
v 6.33324 -15.18000 4.51230
v 0.52477 -20.18000 0.52477
v 2.55536 -15.18000 -1.14169
v 3.90240 -30.44000 7.47429
v -2.37999 -30.44000 4.87204
v -1.14169 -25.44000 2.55536
v 4.51230 -25.44000 6.33324
v 3.90240 -30.18000 7.47429
v 4.51230 -25.18000 6.33324
v -2.37999 -30.18000 4.87204
v -1.14169 -25.18000 2.55536
v 3.40000 -40.44000 10.00000
v -3.40000 -40.44000 10.00000
v -3.14252 -35.44000 7.38579
v 3.52682 -35.44000 8.71240
v 3.40000 -40.18000 10.00000
v 3.52682 -35.18000 8.71240
v -3.40000 -40.18000 10.00000
v -3.14252 -35.18000 7.38579
vt 0.07000 0.01000
vt 0.06000 0.01000
vt 0.02000 0.01000
vt 0.08000 0.01000
vn 0.86496 -0.47142 -0.17205
vn 0.97109 -0.23871 0.00000
vn 0.09802 0.00000 0.99518
vn 0.09802 0.00000 0.99518
vn -0.95243 0.23871 0.18945
vn -0.88191 0.47142 0.00000
vn -0.09802 0.00000 -0.99518
vn 0.81478 -0.47142 -0.33749
vn 0.95243 -0.23871 -0.18945
vn 0.29028 0.00000 0.95694
vn -0.89717 0.23871 0.37162
vn -0.86496 0.47142 0.17205
vn -0.29028 0.00000 -0.95694
vn 0.73328 -0.47142 -0.48996
vn 0.89717 -0.23871 -0.37162
vn 0.47140 0.00000 0.88192
vn -0.80743 0.23871 0.53951
vn -0.81478 0.47142 0.33749
vn -0.47140 0.00000 -0.88192
vn 0.62360 -0.47142 -0.62360
vn 0.80743 -0.23871 -0.53951
vn 0.63439 0.00000 0.77301
vn 0.63439 0.00000 0.77301
vn -0.68667 0.23871 0.68667
vn -0.73328 0.47142 0.48996
vn -0.63439 0.00000 -0.77301
vn 0.48996 -0.47142 -0.73328
vn 0.68667 -0.23871 -0.68667
vn 0.77301 0.00000 0.63439
vn -0.53951 0.23871 0.80743
vn -0.62360 0.47142 0.62360
vn -0.77301 0.00000 -0.63439
vn 0.33749 -0.47142 -0.81478
vn 0.53951 -0.23871 -0.80743
vn 0.88192 0.00000 0.47140
vn -0.37162 0.23871 0.89717
vn -0.48996 0.47142 0.73328
vn -0.88192 0.00000 -0.47140
vn 0.17205 -0.47142 -0.86496
vn 0.37162 -0.23871 -0.89717
vn 0.95694 0.00000 0.29028
vn -0.18945 0.23871 0.95243
vn -0.33749 0.47142 0.81478
vn -0.95694 0.00000 -0.29028
vn -0.00000 -0.47142 -0.88191
vn 0.18945 -0.23871 -0.95243
vn 0.99518 0.00000 0.09802
vn -0.00000 0.23871 0.97109
vn -0.17205 0.47142 0.86496
vn -0.99518 0.00000 -0.09802
vn 1.00000 0.00000 0.00000
vn 0.00000 -0.00000 1.00000
vn 0.85435 -0.49113 -0.16994
vn 0.88191 -0.47142 0.00000
vn 0.09802 0.00000 0.99518
vn -0.86496 0.47142 0.17205
vn -0.87109 0.49113 0.00000
vn -0.09802 0.00000 -0.99518
vn 0.80478 -0.49113 -0.33335
vn 0.86496 -0.47142 -0.17205
vn 0.29028 0.00000 0.95694
vn 0.29028 0.00000 0.95694
vn -0.81478 0.47142 0.33749
vn -0.85435 0.49113 0.16994
vn -0.29028 0.00000 -0.95694
vn -0.29028 0.00000 -0.95694
vn 0.72428 -0.49113 -0.48395
vn 0.81478 -0.47142 -0.33749
vn 0.47140 0.00000 0.88192
vn -0.73328 0.47142 0.48996
vn -0.80478 0.49113 0.33335
vn -0.47140 0.00000 -0.88192
vn 0.61595 -0.49113 -0.61595
vn 0.73328 -0.47142 -0.48996
vn 0.63439 0.00000 0.77301
vn -0.62360 0.47142 0.62360
vn -0.72428 0.49113 0.48395
vn 0.48395 -0.49113 -0.72428
vn 0.77301 0.00000 0.63439
vn -0.48996 0.47142 0.73328
vn -0.61595 0.49113 0.61595
vn 0.33335 -0.49113 -0.80478
vn 0.48996 -0.47142 -0.73328
vn 0.88192 0.00000 0.47140
vn -0.33749 0.47142 0.81478
vn -0.48395 0.49113 0.72428
vn -0.88192 0.00000 -0.47140
vn 0.16994 -0.49113 -0.85435
vn 0.33749 -0.47142 -0.81478
vn 0.95694 0.00000 0.29028
vn -0.17205 0.47142 0.86496
vn -0.33335 0.49113 0.80478
vn -0.95694 0.00000 -0.29028
vn -0.00000 -0.49113 -0.87109
vn 0.17205 -0.47142 -0.86496
vn 0.99518 0.00000 0.09802
vn -0.00000 0.47142 0.88191
vn -0.16994 0.49113 0.85435
vn -0.99518 0.00000 -0.09802
vn 0.95243 -0.23871 -0.18945
vn 0.97735 -0.21164 0.00000
vn 0.09802 0.00000 0.99518
vn -0.95857 0.21164 0.19067
vn -0.97109 0.23871 0.00000
vn -0.09802 0.00000 -0.99518
vn 0.89717 -0.23871 -0.37162
vn 0.95857 -0.21164 -0.19067
vn 0.29028 0.00000 0.95694
vn 0.29028 0.00000 0.95694
vn -0.90295 0.21164 0.37401
vn -0.95243 0.23871 0.18945
vn -0.29028 0.00000 -0.95694
vn -0.29028 0.00000 -0.95694
vn 0.80743 -0.23871 -0.53951
vn 0.90295 -0.21164 -0.37401
vn 0.47140 0.00000 0.88192
vn -0.81263 0.21164 0.54298
vn -0.89717 0.23871 0.37162
vn -0.47140 0.00000 -0.88192
vn 0.68667 -0.23871 -0.68667
vn 0.81263 -0.21164 -0.54298
vn 0.63439 0.00000 0.77301
vn -0.69109 0.21164 0.69109
vn -0.80743 0.23871 0.53951
vn -0.63439 0.00000 -0.77301
vn 0.53951 -0.23871 -0.80743
vn 0.69109 -0.21164 -0.69109
vn 0.77301 0.00000 0.63439
vn -0.54298 0.21164 0.81263
vn -0.68667 0.23871 0.68667
vn -0.77301 0.00000 -0.63439
vn 0.37162 -0.23871 -0.89717
vn 0.54298 -0.21164 -0.81263
vn 0.88192 0.00000 0.47140
vn -0.37401 0.21164 0.90295
vn -0.53951 0.23871 0.80743
vn -0.88192 0.00000 -0.47140
vn 0.18945 -0.23871 -0.95243
vn 0.37401 -0.21164 -0.90295
vn 0.95694 0.00000 0.29028
vn -0.19067 0.21164 0.95857
vn -0.37162 0.23871 0.89717
vn -0.95694 0.00000 -0.29028
vn -0.00000 -0.23871 -0.97109
vn 0.19067 -0.21164 -0.95857
vn 0.99518 0.00000 0.09802
vn -0.00000 0.21164 0.97735
vn -0.18945 0.23871 0.95243
vn -0.99518 0.00000 -0.09802
vn 0.85221 -0.49498 -0.16951
vn 0.88405 -0.46739 0.00000
vn -0.86706 0.46739 0.17247
vn -0.86890 0.49498 0.00000
vn -0.09802 0.00000 -0.99518
vn 0.80276 -0.49498 -0.33251
vn 0.86706 -0.46739 -0.17247
vn 0.29028 0.00000 0.95694
vn -0.81676 0.46739 0.33831
vn -0.85221 0.49498 0.16951
vn -0.29028 0.00000 -0.95694
vn 0.72247 -0.49498 -0.48274
vn 0.81676 -0.46739 -0.33831
vn 0.47140 0.00000 0.88192
vn -0.73506 0.46739 0.49115
vn -0.80276 0.49498 0.33251
vn -0.47140 0.00000 -0.88192
vn 0.61441 -0.49498 -0.61441
vn 0.73506 -0.46739 -0.49115
vn 0.63439 0.00000 0.77301
vn -0.62512 0.46739 0.62512
vn -0.72247 0.49498 0.48274
vn -0.63439 0.00000 -0.77301
vn 0.48274 -0.49498 -0.72247
vn 0.62512 -0.46739 -0.62512
vn -0.49115 0.46739 0.73506
vn -0.61441 0.49498 0.61441
vn -0.77301 0.00000 -0.63439
vn 0.33251 -0.49498 -0.80276
vn 0.49115 -0.46739 -0.73506
vn 0.88192 0.00000 0.47140
vn -0.33831 0.46739 0.81676
vn -0.48274 0.49498 0.72247
vn -0.88192 0.00000 -0.47140
vn 0.16951 -0.49498 -0.85221
vn 0.33831 -0.46739 -0.81676
vn 0.95694 0.00000 0.29028
vn -0.17247 0.46739 0.86706
vn -0.33251 0.49498 0.80276
vn -0.95694 0.00000 -0.29028
vn -0.00000 -0.49498 -0.86890
vn 0.17247 -0.46739 -0.86706
vn 0.99518 0.00000 0.09802
vn -0.00000 0.46739 0.88405
vn -0.16951 0.49498 0.85221
vn -0.99518 0.00000 -0.09802
vn 0.95113 -0.24406 -0.18919
vn 0.97852 -0.20617 0.00000
vn 0.09802 0.00000 0.99518
vn -0.95971 0.20617 0.19090
vn -0.96976 0.24406 0.00000
vn -0.09802 0.00000 -0.99518
vn 0.89594 -0.24406 -0.37111
vn 0.95971 -0.20617 -0.19090
vn 0.29028 0.00000 0.95694
vn 0.29028 0.00000 0.95694
vn -0.90403 0.20617 0.37446
vn -0.95113 0.24406 0.18919
vn -0.29028 0.00000 -0.95694
vn -0.29028 0.00000 -0.95694
vn 0.80633 -0.24406 -0.53877
vn 0.90403 -0.20617 -0.37446
vn 0.47140 0.00000 0.88192
vn -0.81361 0.20617 0.54363
vn -0.89594 0.24406 0.37111
vn 0.68572 -0.24406 -0.68572
vn 0.81361 -0.20617 -0.54363
vn 0.63439 0.00000 0.77301
vn -0.69192 0.20617 0.69192
vn -0.80633 0.24406 0.53877
vn -0.63439 0.00000 -0.77301
vn 0.53877 -0.24406 -0.80633
vn 0.69192 -0.20617 -0.69192
vn 0.77301 0.00000 0.63439
vn -0.54363 0.20617 0.81361
vn -0.68572 0.24406 0.68572
vn -0.77301 0.00000 -0.63439
vn 0.37111 -0.24406 -0.89594
vn 0.54363 -0.20617 -0.81361
vn 0.88192 0.00000 0.47140
vn -0.37446 0.20617 0.90403
vn -0.53877 0.24406 0.80633
vn -0.88192 0.00000 -0.47140
vn 0.18919 -0.24406 -0.95113
vn 0.37446 -0.20617 -0.90403
vn 0.95694 0.00000 0.29028
vn -0.19090 0.20617 0.95971
vn -0.37111 0.24406 0.89594
vn -0.95694 0.00000 -0.29028
vn -0.00000 -0.24406 -0.96976
vn 0.19090 -0.20617 -0.95971
vn 0.99518 0.00000 0.09802
vn -0.00000 0.20617 0.97852
vn -0.18919 0.24406 0.95113
vn 0.81873 -0.46333 -0.33913
vn 0.94980 -0.24938 -0.18893
vn 0.29028 0.00000 0.95694
vn 0.29028 0.00000 0.95694
vn -0.89469 0.24938 0.37059
vn -0.86916 0.46333 0.17289
vn -0.29028 0.00000 -0.95694
vn 0.98079 0.00000 -0.19509
vn -0.92388 0.00000 0.38268
vn 0.62663 -0.46333 -0.62663
vn 0.80520 -0.24938 -0.53802
vn 0.63439 0.00000 0.77301
vn -0.68477 0.24938 0.68477
vn -0.73683 0.46333 0.49234
vn -0.63439 0.00000 -0.77301
vn 0.83147 0.00000 -0.55557
vn -0.70711 0.00000 0.70711
vn 0.33913 -0.46333 -0.81873
vn 0.53802 -0.24938 -0.80520
vn 0.88192 0.00000 0.47140
vn -0.37059 0.24938 0.89469
vn -0.49234 0.46333 0.73683
vn -0.88192 0.00000 -0.47140
vn 0.55557 0.00000 -0.83147
vn -0.38268 0.00000 0.92388
vn -0.00000 -0.46333 -0.88618
vn 0.18893 -0.24938 -0.94980
vn 0.99518 0.00000 0.09802
vn -0.00000 0.24938 0.96840
vn -0.17289 0.46333 0.86916
vn -0.99518 0.00000 -0.09802
vn 0.19509 0.00000 -0.98079
f 1/1/1 2/1/1 3/1/1
f 4/1/2 1/1/2 3/1/2
f 5/1/3 1/1/3 4/1/3
f 6/1/4 5/1/4 4/1/4
f 7/1/5 5/1/5 6/1/5
f 8/1/6 7/1/6 6/1/6
f 2/1/7 7/1/7 8/1/7
f 3/1/7 2/1/7 8/1/7
f 9/1/8 10/1/8 2/1/8
f 1/1/9 9/1/9 2/1/9
f 11/1/10 9/1/10 1/1/10
f 5/1/10 11/1/10 1/1/10
f 12/1/11 11/1/11 5/1/11
f 7/1/12 12/1/12 5/1/12
f 10/1/13 12/1/13 7/1/13
f 2/1/13 10/1/13 7/1/13
f 13/1/14 14/1/14 10/1/14
f 9/1/15 13/1/15 10/1/15
f 15/1/16 13/1/16 9/1/16
f 11/1/16 15/1/16 9/1/16
f 16/1/17 15/1/17 11/1/17
f 12/1/18 16/1/18 11/1/18
f 14/1/19 16/1/19 12/1/19
f 10/1/19 14/1/19 12/1/19
f 17/1/20 18/1/20 14/1/20
f 13/1/21 17/1/21 14/1/21
f 19/1/22 17/1/22 13/1/22
f 15/1/23 19/1/23 13/1/23
f 20/1/24 19/1/24 15/1/24
f 16/1/25 20/1/25 15/1/25
f 18/1/26 20/1/26 16/1/26
f 14/1/26 18/1/26 16/1/26
f 21/1/27 22/1/27 18/1/27
f 17/1/28 21/1/28 18/1/28
f 23/1/29 21/1/29 17/1/29
f 19/1/29 23/1/29 17/1/29
f 24/1/30 23/1/30 19/1/30
f 20/1/31 24/1/31 19/1/31
f 22/1/32 24/1/32 20/1/32
f 18/1/32 22/1/32 20/1/32
f 25/1/33 26/1/33 22/1/33
f 21/1/34 25/1/34 22/1/34
f 27/1/35 25/1/35 21/1/35
f 23/1/35 27/1/35 21/1/35
f 28/1/36 27/1/36 23/1/36
f 24/1/37 28/1/37 23/1/37
f 26/1/38 28/1/38 24/1/38
f 22/1/38 26/1/38 24/1/38
f 29/1/39 30/1/39 26/1/39
f 25/1/40 29/1/40 26/1/40
f 31/1/41 29/1/41 25/1/41
f 27/1/41 31/1/41 25/1/41
f 32/1/42 31/1/42 27/1/42
f 28/1/43 32/1/43 27/1/43
f 30/1/44 32/1/44 28/1/44
f 26/1/44 30/1/44 28/1/44
f 33/1/45 34/1/45 30/1/45
f 29/1/46 33/1/46 30/1/46
f 35/1/47 33/1/47 29/1/47
f 31/1/47 35/1/47 29/1/47
f 36/1/48 35/1/48 31/1/48
f 32/1/49 36/1/49 31/1/49
f 34/1/50 36/1/50 32/1/50
f 30/1/50 34/1/50 32/1/50
f 6/1/51 4/1/51 3/1/51
f 8/1/51 6/1/51 3/1/51
f 33/1/52 35/1/52 34/1/52
f 35/1/52 36/1/52 34/1/52
f 2/2/53 37/2/53 38/2/53
f 3/2/54 2/2/54 38/2/54
f 39/2/55 2/2/55 3/2/55
f 40/2/55 39/2/55 3/2/55
f 41/2/56 39/2/56 40/2/56
f 42/2/57 41/2/57 40/2/57
f 37/2/58 41/2/58 42/2/58
f 38/2/58 37/2/58 42/2/58
f 10/2/59 43/2/59 37/2/59
f 2/2/60 10/2/60 37/2/60
f 44/2/61 10/2/61 2/2/61
f 39/2/62 44/2/62 2/2/62
f 45/2/63 44/2/63 39/2/63
f 41/2/64 45/2/64 39/2/64
f 43/2/65 45/2/65 41/2/65
f 37/2/66 43/2/66 41/2/66
f 14/2/67 46/2/67 43/2/67
f 10/2/68 14/2/68 43/2/68
f 47/2/69 14/2/69 10/2/69
f 44/2/69 47/2/69 10/2/69
f 48/2/70 47/2/70 44/2/70
f 45/2/71 48/2/71 44/2/71
f 46/2/72 48/2/72 45/2/72
f 43/2/72 46/2/72 45/2/72
f 18/2/73 49/2/73 46/2/73
f 14/2/74 18/2/74 46/2/74
f 50/2/75 18/2/75 14/2/75
f 47/2/75 50/2/75 14/2/75
f 51/2/76 50/2/76 47/2/76
f 48/2/77 51/2/77 47/2/77
f 49/2/26 51/2/26 48/2/26
f 46/2/26 49/2/26 48/2/26
f 22/2/78 52/2/78 49/2/78
f 18/2/20 22/2/20 49/2/20
f 53/2/79 22/2/79 18/2/79
f 50/2/79 53/2/79 18/2/79
f 54/2/80 53/2/80 50/2/80
f 51/2/81 54/2/81 50/2/81
f 52/2/32 54/2/32 51/2/32
f 49/2/32 52/2/32 51/2/32
f 26/2/82 55/2/82 52/2/82
f 22/2/83 26/2/83 52/2/83
f 56/2/84 26/2/84 22/2/84
f 53/2/84 56/2/84 22/2/84
f 57/2/85 56/2/85 53/2/85
f 54/2/86 57/2/86 53/2/86
f 55/2/87 57/2/87 54/2/87
f 52/2/87 55/2/87 54/2/87
f 30/2/88 58/2/88 55/2/88
f 26/2/89 30/2/89 55/2/89
f 59/2/90 30/2/90 26/2/90
f 56/2/90 59/2/90 26/2/90
f 60/2/91 59/2/91 56/2/91
f 57/2/92 60/2/92 56/2/92
f 58/2/93 60/2/93 57/2/93
f 55/2/93 58/2/93 57/2/93
f 34/2/94 61/2/94 58/2/94
f 30/2/95 34/2/95 58/2/95
f 62/2/96 34/2/96 30/2/96
f 59/2/96 62/2/96 30/2/96
f 63/2/97 62/2/97 59/2/97
f 60/2/98 63/2/98 59/2/98
f 61/2/99 63/2/99 60/2/99
f 58/2/99 61/2/99 60/2/99
f 40/2/51 3/2/51 38/2/51
f 42/2/51 40/2/51 38/2/51
f 34/2/52 62/2/52 61/2/52
f 62/2/52 63/2/52 61/2/52
f 64/2/100 1/2/100 4/2/100
f 65/2/101 64/2/101 4/2/101
f 66/2/102 64/2/102 65/2/102
f 67/2/102 66/2/102 65/2/102
f 68/2/103 66/2/103 67/2/103
f 69/2/104 68/2/104 67/2/104
f 1/2/105 68/2/105 69/2/105
f 4/2/105 1/2/105 69/2/105
f 70/2/106 9/2/106 1/2/106
f 64/2/107 70/2/107 1/2/107
f 71/2/108 70/2/108 64/2/108
f 66/2/109 71/2/109 64/2/109
f 72/2/110 71/2/110 66/2/110
f 68/2/111 72/2/111 66/2/111
f 9/2/112 72/2/112 68/2/112
f 1/2/113 9/2/113 68/2/113
f 73/2/114 13/2/114 9/2/114
f 70/2/115 73/2/115 9/2/115
f 74/2/116 73/2/116 70/2/116
f 71/2/116 74/2/116 70/2/116
f 75/2/117 74/2/117 71/2/117
f 72/2/118 75/2/118 71/2/118
f 13/2/119 75/2/119 72/2/119
f 9/2/119 13/2/119 72/2/119
f 76/2/120 17/2/120 13/2/120
f 73/2/121 76/2/121 13/2/121
f 77/2/122 76/2/122 73/2/122
f 74/2/122 77/2/122 73/2/122
f 78/2/123 77/2/123 74/2/123
f 75/2/124 78/2/124 74/2/124
f 17/2/125 78/2/125 75/2/125
f 13/2/125 17/2/125 75/2/125
f 79/2/126 21/2/126 17/2/126
f 76/2/127 79/2/127 17/2/127
f 80/2/128 79/2/128 76/2/128
f 77/2/128 80/2/128 76/2/128
f 81/2/129 80/2/129 77/2/129
f 78/2/130 81/2/130 77/2/130
f 21/2/131 81/2/131 78/2/131
f 17/2/131 21/2/131 78/2/131
f 82/2/132 25/2/132 21/2/132
f 79/2/133 82/2/133 21/2/133
f 83/2/134 82/2/134 79/2/134
f 80/2/134 83/2/134 79/2/134
f 84/2/135 83/2/135 80/2/135
f 81/2/136 84/2/136 80/2/136
f 25/2/137 84/2/137 81/2/137
f 21/2/137 25/2/137 81/2/137
f 85/2/138 29/2/138 25/2/138
f 82/2/139 85/2/139 25/2/139
f 86/2/140 85/2/140 82/2/140
f 83/2/140 86/2/140 82/2/140
f 87/2/141 86/2/141 83/2/141
f 84/2/142 87/2/142 83/2/142
f 29/2/143 87/2/143 84/2/143
f 25/2/143 29/2/143 84/2/143
f 88/2/144 33/2/144 29/2/144
f 85/2/145 88/2/145 29/2/145
f 89/2/146 88/2/146 85/2/146
f 86/2/146 89/2/146 85/2/146
f 90/2/147 89/2/147 86/2/147
f 87/2/148 90/2/148 86/2/148
f 33/2/149 90/2/149 87/2/149
f 29/2/149 33/2/149 87/2/149
f 67/2/51 65/2/51 4/2/51
f 69/2/51 67/2/51 4/2/51
f 88/2/52 89/2/52 33/2/52
f 89/2/52 90/2/52 33/2/52
f 91/3/150 92/3/150 93/3/150
f 94/3/151 91/3/151 93/3/151
f 95/3/55 91/3/55 94/3/55
f 96/3/55 95/3/55 94/3/55
f 97/3/152 95/3/152 96/3/152
f 98/3/153 97/3/153 96/3/153
f 92/3/154 97/3/154 98/3/154
f 93/3/154 92/3/154 98/3/154
f 99/3/155 100/3/155 92/3/155
f 91/3/156 99/3/156 92/3/156
f 101/3/109 99/3/109 91/3/109
f 95/3/157 101/3/157 91/3/157
f 102/3/158 101/3/158 95/3/158
f 97/3/159 102/3/159 95/3/159
f 100/3/113 102/3/113 97/3/113
f 92/3/160 100/3/160 97/3/160
f 103/3/161 104/3/161 100/3/161
f 99/3/162 103/3/162 100/3/162
f 105/3/163 103/3/163 99/3/163
f 101/3/163 105/3/163 99/3/163
f 106/3/164 105/3/164 101/3/164
f 102/3/165 106/3/165 101/3/165
f 104/3/166 106/3/166 102/3/166
f 100/3/166 104/3/166 102/3/166
f 107/3/167 108/3/167 104/3/167
f 103/3/168 107/3/168 104/3/168
f 109/3/169 107/3/169 103/3/169
f 105/3/169 109/3/169 103/3/169
f 110/3/170 109/3/170 105/3/170
f 106/3/171 110/3/171 105/3/171
f 108/3/172 110/3/172 106/3/172
f 104/3/172 108/3/172 106/3/172
f 111/3/173 112/3/173 108/3/173
f 107/3/174 111/3/174 108/3/174
f 113/3/79 111/3/79 107/3/79
f 109/3/79 113/3/79 107/3/79
f 114/3/175 113/3/175 109/3/175
f 110/3/176 114/3/176 109/3/176
f 112/3/177 114/3/177 110/3/177
f 108/3/177 112/3/177 110/3/177
f 115/3/178 116/3/178 112/3/178
f 111/3/179 115/3/179 112/3/179
f 117/3/180 115/3/180 111/3/180
f 113/3/180 117/3/180 111/3/180
f 118/3/181 117/3/181 113/3/181
f 114/3/182 118/3/182 113/3/182
f 116/3/183 118/3/183 114/3/183
f 112/3/183 116/3/183 114/3/183
f 119/3/184 120/3/184 116/3/184
f 115/3/185 119/3/185 116/3/185
f 121/3/186 119/3/186 115/3/186
f 117/3/186 121/3/186 115/3/186
f 122/3/187 121/3/187 117/3/187
f 118/3/188 122/3/188 117/3/188
f 120/3/189 122/3/189 118/3/189
f 116/3/189 120/3/189 118/3/189
f 123/3/190 124/3/190 120/3/190
f 119/3/191 123/3/191 120/3/191
f 125/3/192 123/3/192 119/3/192
f 121/3/192 125/3/192 119/3/192
f 126/3/193 125/3/193 121/3/193
f 122/3/194 126/3/194 121/3/194
f 124/3/195 126/3/195 122/3/195
f 120/3/195 124/3/195 122/3/195
f 96/3/51 94/3/51 93/3/51
f 98/3/51 96/3/51 93/3/51
f 123/3/52 125/3/52 124/3/52
f 125/3/52 126/3/52 124/3/52
f 127/3/196 128/3/196 129/3/196
f 130/3/197 127/3/197 129/3/197
f 131/3/198 127/3/198 130/3/198
f 132/3/198 131/3/198 130/3/198
f 133/3/199 131/3/199 132/3/199
f 134/3/200 133/3/200 132/3/200
f 128/3/201 133/3/201 134/3/201
f 129/3/201 128/3/201 134/3/201
f 135/3/202 136/3/202 128/3/202
f 127/3/203 135/3/203 128/3/203
f 137/3/204 135/3/204 127/3/204
f 131/3/205 137/3/205 127/3/205
f 138/3/206 137/3/206 131/3/206
f 133/3/207 138/3/207 131/3/207
f 136/3/208 138/3/208 133/3/208
f 128/3/209 136/3/209 133/3/209
f 139/3/210 140/3/210 136/3/210
f 135/3/211 139/3/211 136/3/211
f 141/3/212 139/3/212 135/3/212
f 137/3/212 141/3/212 135/3/212
f 142/3/213 141/3/213 137/3/213
f 138/3/214 142/3/214 137/3/214
f 140/3/72 142/3/72 138/3/72
f 136/3/72 140/3/72 138/3/72
f 143/3/215 144/3/215 140/3/215
f 139/3/216 143/3/216 140/3/216
f 145/3/217 143/3/217 139/3/217
f 141/3/217 145/3/217 139/3/217
f 146/3/218 145/3/218 141/3/218
f 142/3/219 146/3/219 141/3/219
f 144/3/220 146/3/220 142/3/220
f 140/3/220 144/3/220 142/3/220
f 147/3/221 148/3/221 144/3/221
f 143/3/222 147/3/222 144/3/222
f 149/3/223 147/3/223 143/3/223
f 145/3/223 149/3/223 143/3/223
f 150/3/224 149/3/224 145/3/224
f 146/3/225 150/3/225 145/3/225
f 148/3/226 150/3/226 146/3/226
f 144/3/226 148/3/226 146/3/226
f 151/3/227 152/3/227 148/3/227
f 147/3/228 151/3/228 148/3/228
f 153/3/229 151/3/229 147/3/229
f 149/3/229 153/3/229 147/3/229
f 154/3/230 153/3/230 149/3/230
f 150/3/231 154/3/231 149/3/231
f 152/3/232 154/3/232 150/3/232
f 148/3/232 152/3/232 150/3/232
f 155/3/233 156/3/233 152/3/233
f 151/3/234 155/3/234 152/3/234
f 157/3/235 155/3/235 151/3/235
f 153/3/235 157/3/235 151/3/235
f 158/3/236 157/3/236 153/3/236
f 154/3/237 158/3/237 153/3/237
f 156/3/238 158/3/238 154/3/238
f 152/3/238 156/3/238 154/3/238
f 159/3/239 160/3/239 156/3/239
f 155/3/240 159/3/240 156/3/240
f 161/3/241 159/3/241 155/3/241
f 157/3/241 161/3/241 155/3/241
f 162/3/242 161/3/242 157/3/242
f 158/3/243 162/3/243 157/3/243
f 160/3/50 162/3/50 158/3/50
f 156/3/50 160/3/50 158/3/50
f 132/3/51 130/3/51 129/3/51
f 134/3/51 132/3/51 129/3/51
f 159/3/52 161/3/52 160/3/52
f 161/3/52 162/3/52 160/3/52
f 163/4/244 164/4/244 165/4/244
f 166/4/245 163/4/245 165/4/245
f 167/4/246 163/4/246 166/4/246
f 168/4/247 167/4/247 166/4/247
f 169/4/248 167/4/248 168/4/248
f 170/4/249 169/4/249 168/4/249
f 164/4/113 169/4/113 170/4/113
f 165/4/250 164/4/250 170/4/250
f 168/4/251 166/4/251 165/4/251
f 170/4/251 168/4/251 165/4/251
f 163/4/252 167/4/252 164/4/252
f 167/4/252 169/4/252 164/4/252
f 171/4/253 172/4/253 173/4/253
f 174/4/254 171/4/254 173/4/254
f 175/4/255 171/4/255 174/4/255
f 176/4/255 175/4/255 174/4/255
f 177/4/256 175/4/256 176/4/256
f 178/4/257 177/4/257 176/4/257
f 172/4/258 177/4/258 178/4/258
f 173/4/172 172/4/172 178/4/172
f 176/4/259 174/4/259 173/4/259
f 178/4/259 176/4/259 173/4/259
f 171/4/260 175/4/260 172/4/260
f 175/4/260 177/4/260 172/4/260
f 179/4/261 180/4/261 181/4/261
f 182/4/262 179/4/262 181/4/262
f 183/4/263 179/4/263 182/4/263
f 184/4/263 183/4/263 182/4/263
f 185/4/264 183/4/264 184/4/264
f 186/4/265 185/4/265 184/4/265
f 180/4/266 185/4/266 186/4/266
f 181/4/266 180/4/266 186/4/266
f 184/4/267 182/4/267 181/4/267
f 186/4/267 184/4/267 181/4/267
f 179/4/268 183/4/268 180/4/268
f 183/4/268 185/4/268 180/4/268
f 187/4/269 188/4/269 189/4/269
f 190/4/270 187/4/270 189/4/270
f 191/4/271 187/4/271 190/4/271
f 192/4/271 191/4/271 190/4/271
f 193/4/272 191/4/272 192/4/272
f 194/4/273 193/4/273 192/4/273
f 188/4/274 193/4/274 194/4/274
f 189/4/274 188/4/274 194/4/274
f 192/4/275 190/4/275 189/4/275
f 194/4/275 192/4/275 189/4/275
f 187/4/52 191/4/52 188/4/52
f 191/4/52 193/4/52 188/4/52
