# CargoTrackLift2DownForward - generated by Tools/generate_meshes.py, do not hand-edit
# Regenerate with: python Tools/generate_meshes.py
o CargoTrackLift2DownForward
v 7.50000 -5.42000 3.70000
v 7.50000 -5.42000 -3.70000
v 10.00000 -0.42000 -3.70000
v 10.00000 -0.42000 3.70000
v 7.50000 -5.00000 3.70000
v 10.00000 0.00000 3.70000
v 7.50000 -5.00000 -3.70000
v 10.00000 0.00000 -3.70000
v 5.00000 -10.42000 3.70000
v 5.00000 -10.42000 -3.70000
v 5.00000 -10.00000 3.70000
v 5.00000 -10.00000 -3.70000
v 2.50000 -15.42000 3.70000
v 2.50000 -15.42000 -3.70000
v 2.50000 -15.00000 3.70000
v 2.50000 -15.00000 -3.70000
v -0.00000 -20.42000 3.70000
v -0.00000 -20.42000 -3.70000
v -0.00000 -20.00000 3.70000
v -0.00000 -20.00000 -3.70000
v -2.50000 -25.42000 3.70000
v -2.50000 -25.42000 -3.70000
v -2.50000 -25.00000 3.70000
v -2.50000 -25.00000 -3.70000
v -5.00000 -30.42000 3.70000
v -5.00000 -30.42000 -3.70000
v -5.00000 -30.00000 3.70000
v -5.00000 -30.00000 -3.70000
v -7.50000 -35.42000 3.70000
v -7.50000 -35.42000 -3.70000
v -7.50000 -35.00000 3.70000
v -7.50000 -35.00000 -3.70000
v -10.00000 -40.42000 3.70000
v -10.00000 -40.42000 -3.70000
v -10.00000 -40.00000 3.70000
v -10.00000 -40.00000 -3.70000
v 7.50000 -5.42000 -4.45000
v 10.00000 -0.42000 -4.45000
v 7.50000 -3.85000 -4.45000
v 10.00000 1.15000 -4.45000
v 7.50000 -3.85000 -3.70000
v 10.00000 1.15000 -3.70000
v 5.00000 -10.42000 -4.45000
v 5.00000 -8.85000 -4.45000
v 5.00000 -8.85000 -3.70000
v 2.50000 -15.42000 -4.45000
v 2.50000 -13.85000 -4.45000
v 2.50000 -13.85000 -3.70000
v -0.00000 -20.42000 -4.45000
v -0.00000 -18.85000 -4.45000
v -0.00000 -18.85000 -3.70000
v -2.50000 -25.42000 -4.45000
v -2.50000 -23.85000 -4.45000
v -2.50000 -23.85000 -3.70000
v -5.00000 -30.42000 -4.45000
v -5.00000 -28.85000 -4.45000
v -5.00000 -28.85000 -3.70000
v -7.50000 -35.42000 -4.45000
v -7.50000 -33.85000 -4.45000
v -7.50000 -33.85000 -3.70000
v -10.00000 -40.42000 -4.45000
v -10.00000 -38.85000 -4.45000
v -10.00000 -38.85000 -3.70000
v 7.50000 -5.42000 4.45000
v 10.00000 -0.42000 4.45000
v 7.50000 -3.85000 4.45000
v 10.00000 1.15000 4.45000
v 7.50000 -3.85000 3.70000
v 10.00000 1.15000 3.70000
v 5.00000 -10.42000 4.45000
v 5.00000 -8.85000 4.45000
v 5.00000 -8.85000 3.70000
v 2.50000 -15.42000 4.45000
v 2.50000 -13.85000 4.45000
v 2.50000 -13.85000 3.70000
v -0.00000 -20.42000 4.45000
v -0.00000 -18.85000 4.45000
v -0.00000 -18.85000 3.70000
v -2.50000 -25.42000 4.45000
v -2.50000 -23.85000 4.45000
v -2.50000 -23.85000 3.70000
v -5.00000 -30.42000 4.45000
v -5.00000 -28.85000 4.45000
v -5.00000 -28.85000 3.70000
v -7.50000 -35.42000 4.45000
v -7.50000 -33.85000 4.45000
v -7.50000 -33.85000 3.70000
v -10.00000 -40.42000 4.45000
v -10.00000 -38.85000 4.45000
v -10.00000 -38.85000 3.70000
v 7.50000 -3.90000 -4.60000
v 7.50000 -3.90000 -3.55000
v 10.00000 1.10000 -3.55000
v 10.00000 1.10000 -4.60000
v 7.50000 -3.58000 -4.60000
v 10.00000 1.42000 -4.60000
v 7.50000 -3.58000 -3.55000
v 10.00000 1.42000 -3.55000
v 5.00000 -8.90000 -4.60000
v 5.00000 -8.90000 -3.55000
v 5.00000 -8.58000 -4.60000
v 5.00000 -8.58000 -3.55000
v 2.50000 -13.90000 -4.60000
v 2.50000 -13.90000 -3.55000
v 2.50000 -13.58000 -4.60000
v 2.50000 -13.58000 -3.55000
v -0.00000 -18.90000 -4.60000
v -0.00000 -18.90000 -3.55000
v -0.00000 -18.58000 -4.60000
v -0.00000 -18.58000 -3.55000
v -2.50000 -23.90000 -4.60000
v -2.50000 -23.90000 -3.55000
v -2.50000 -23.58000 -4.60000
v -2.50000 -23.58000 -3.55000
v -5.00000 -28.90000 -4.60000
v -5.00000 -28.90000 -3.55000
v -5.00000 -28.58000 -4.60000
v -5.00000 -28.58000 -3.55000
v -7.50000 -33.90000 -4.60000
v -7.50000 -33.90000 -3.55000
v -7.50000 -33.58000 -4.60000
v -7.50000 -33.58000 -3.55000
v -10.00000 -38.90000 -4.60000
v -10.00000 -38.90000 -3.55000
v -10.00000 -38.58000 -4.60000
v -10.00000 -38.58000 -3.55000
v 7.50000 -3.90000 4.60000
v 7.50000 -3.90000 3.55000
v 10.00000 1.10000 3.55000
v 10.00000 1.10000 4.60000
v 7.50000 -3.58000 4.60000
v 10.00000 1.42000 4.60000
v 7.50000 -3.58000 3.55000
v 10.00000 1.42000 3.55000
v 5.00000 -8.90000 4.60000
v 5.00000 -8.90000 3.55000
v 5.00000 -8.58000 4.60000
v 5.00000 -8.58000 3.55000
v 2.50000 -13.90000 4.60000
v 2.50000 -13.90000 3.55000
v 2.50000 -13.58000 4.60000
v 2.50000 -13.58000 3.55000
v -0.00000 -18.90000 4.60000
v -0.00000 -18.90000 3.55000
v -0.00000 -18.58000 4.60000
v -0.00000 -18.58000 3.55000
v -2.50000 -23.90000 4.60000
v -2.50000 -23.90000 3.55000
v -2.50000 -23.58000 4.60000
v -2.50000 -23.58000 3.55000
v -5.00000 -28.90000 4.60000
v -5.00000 -28.90000 3.55000
v -5.00000 -28.58000 4.60000
v -5.00000 -28.58000 3.55000
v -7.50000 -33.90000 4.60000
v -7.50000 -33.90000 3.55000
v -7.50000 -33.58000 4.60000
v -7.50000 -33.58000 3.55000
v -10.00000 -38.90000 4.60000
v -10.00000 -38.90000 3.55000
v -10.00000 -38.58000 4.60000
v -10.00000 -38.58000 3.55000
v 5.00000 -10.44000 3.40000
v 5.00000 -10.44000 -3.40000
v 7.50000 -5.44000 -3.40000
v 7.50000 -5.44000 3.40000
v 5.00000 -10.18000 3.40000
v 7.50000 -5.18000 3.40000
v 5.00000 -10.18000 -3.40000
v 7.50000 -5.18000 -3.40000
v -0.00000 -20.44000 3.40000
v -0.00000 -20.44000 -3.40000
v 2.50000 -15.44000 -3.40000
v 2.50000 -15.44000 3.40000
v -0.00000 -20.18000 3.40000
v 2.50000 -15.18000 3.40000
v -0.00000 -20.18000 -3.40000
v 2.50000 -15.18000 -3.40000
v -5.00000 -30.44000 3.40000
v -5.00000 -30.44000 -3.40000
v -2.50000 -25.44000 -3.40000
v -2.50000 -25.44000 3.40000
v -5.00000 -30.18000 3.40000
v -2.50000 -25.18000 3.40000
v -5.00000 -30.18000 -3.40000
v -2.50000 -25.18000 -3.40000
v -10.00000 -40.44000 3.40000
v -10.00000 -40.44000 -3.40000
v -7.50000 -35.44000 -3.40000
v -7.50000 -35.44000 3.40000
v -10.00000 -40.18000 3.40000
v -7.50000 -35.18000 3.40000
v -10.00000 -40.18000 -3.40000
v -7.50000 -35.18000 -3.40000
vt 0.07000 0.01000
vt 0.06000 0.01000
vt 0.02000 0.01000
vt 0.08000 0.01000
vn 0.89443 -0.44721 0.00000
vn -0.00000 0.00000 1.00000
vn -0.89443 0.44721 0.00000
vn 0.00000 0.00000 -1.00000
vn 0.89443 -0.44721 0.00000
vn 1.00000 0.00000 0.00000
vn -1.00000 0.00000 0.00000
vn -0.89443 0.44721 0.00000
vn 0.89443 -0.44721 0.00000
vn -0.89443 0.44721 0.00000
vn -0.89443 0.44721 0.00000
vn 0.89443 -0.44721 0.00000
vn 0.89443 -0.44721 0.00000
vn 0.89443 -0.44721 0.00000
f 1/1/1 2/1/1 3/1/1
f 4/1/1 1/1/1 3/1/1
f 5/1/2 1/1/2 4/1/2
f 6/1/2 5/1/2 4/1/2
f 7/1/3 5/1/3 6/1/3
f 8/1/3 7/1/3 6/1/3
f 2/1/4 7/1/4 8/1/4
f 3/1/4 2/1/4 8/1/4
f 9/1/1 10/1/1 2/1/1
f 1/1/1 9/1/1 2/1/1
f 11/1/2 9/1/2 1/1/2
f 5/1/2 11/1/2 1/1/2
f 12/1/3 11/1/3 5/1/3
f 7/1/3 12/1/3 5/1/3
f 10/1/4 12/1/4 7/1/4
f 2/1/4 10/1/4 7/1/4
f 13/1/1 14/1/1 10/1/1
f 9/1/1 13/1/1 10/1/1
f 15/1/2 13/1/2 9/1/2
f 11/1/2 15/1/2 9/1/2
f 16/1/3 15/1/3 11/1/3
f 12/1/3 16/1/3 11/1/3
f 14/1/4 16/1/4 12/1/4
f 10/1/4 14/1/4 12/1/4
f 17/1/5 18/1/5 14/1/5
f 13/1/5 17/1/5 14/1/5
f 19/1/2 17/1/2 13/1/2
f 15/1/2 19/1/2 13/1/2
f 20/1/3 19/1/3 15/1/3
f 16/1/3 20/1/3 15/1/3
f 18/1/4 20/1/4 16/1/4
f 14/1/4 18/1/4 16/1/4
f 21/1/1 22/1/1 18/1/1
f 17/1/1 21/1/1 18/1/1
f 23/1/2 21/1/2 17/1/2
f 19/1/2 23/1/2 17/1/2
f 24/1/3 23/1/3 19/1/3
f 20/1/3 24/1/3 19/1/3
f 22/1/4 24/1/4 20/1/4
f 18/1/4 22/1/4 20/1/4
f 25/1/1 26/1/1 22/1/1
f 21/1/1 25/1/1 22/1/1
f 27/1/2 25/1/2 21/1/2
f 23/1/2 27/1/2 21/1/2
f 28/1/3 27/1/3 23/1/3
f 24/1/3 28/1/3 23/1/3
f 26/1/4 28/1/4 24/1/4
f 22/1/4 26/1/4 24/1/4
f 29/1/1 30/1/1 26/1/1
f 25/1/1 29/1/1 26/1/1
f 31/1/2 29/1/2 25/1/2
f 27/1/2 31/1/2 25/1/2
f 32/1/3 31/1/3 27/1/3
f 28/1/3 32/1/3 27/1/3
f 30/1/4 32/1/4 28/1/4
f 26/1/4 30/1/4 28/1/4
f 33/1/1 34/1/1 30/1/1
f 29/1/1 33/1/1 30/1/1
f 35/1/2 33/1/2 29/1/2
f 31/1/2 35/1/2 29/1/2
f 36/1/3 35/1/3 31/1/3
f 32/1/3 36/1/3 31/1/3
f 34/1/4 36/1/4 32/1/4
f 30/1/4 34/1/4 32/1/4
f 6/1/6 4/1/6 3/1/6
f 8/1/6 6/1/6 3/1/6
f 33/1/7 35/1/7 34/1/7
f 35/1/7 36/1/7 34/1/7
f 37/2/8 2/2/8 3/2/8
f 38/2/8 37/2/8 3/2/8
f 39/2/2 37/2/2 38/2/2
f 40/2/2 39/2/2 38/2/2
f 41/2/9 39/2/9 40/2/9
f 42/2/9 41/2/9 40/2/9
f 2/2/4 41/2/4 42/2/4
f 3/2/4 2/2/4 42/2/4
f 43/2/8 10/2/8 2/2/8
f 37/2/8 43/2/8 2/2/8
f 44/2/2 43/2/2 37/2/2
f 39/2/2 44/2/2 37/2/2
f 45/2/9 44/2/9 39/2/9
f 41/2/9 45/2/9 39/2/9
f 10/2/4 45/2/4 41/2/4
f 2/2/4 10/2/4 41/2/4
f 46/2/8 14/2/8 10/2/8
f 43/2/8 46/2/8 10/2/8
f 47/2/2 46/2/2 43/2/2
f 44/2/2 47/2/2 43/2/2
f 48/2/9 47/2/9 44/2/9
f 45/2/9 48/2/9 44/2/9
f 14/2/4 48/2/4 45/2/4
f 10/2/4 14/2/4 45/2/4
f 49/2/10 18/2/10 14/2/10
f 46/2/10 49/2/10 14/2/10
f 50/2/2 49/2/2 46/2/2
f 47/2/2 50/2/2 46/2/2
f 51/2/5 50/2/5 47/2/5
f 48/2/5 51/2/5 47/2/5
f 18/2/4 51/2/4 48/2/4
f 14/2/4 18/2/4 48/2/4
f 52/2/8 22/2/8 18/2/8
f 49/2/8 52/2/8 18/2/8
f 53/2/2 52/2/2 49/2/2
f 50/2/2 53/2/2 49/2/2
f 54/2/9 53/2/9 50/2/9
f 51/2/9 54/2/9 50/2/9
f 22/2/4 54/2/4 51/2/4
f 18/2/4 22/2/4 51/2/4
f 55/2/8 26/2/8 22/2/8
f 52/2/8 55/2/8 22/2/8
f 56/2/2 55/2/2 52/2/2
f 53/2/2 56/2/2 52/2/2
f 57/2/9 56/2/9 53/2/9
f 54/2/9 57/2/9 53/2/9
f 26/2/4 57/2/4 54/2/4
f 22/2/4 26/2/4 54/2/4
f 58/2/8 30/2/8 26/2/8
f 55/2/8 58/2/8 26/2/8
f 59/2/2 58/2/2 55/2/2
f 56/2/2 59/2/2 55/2/2
f 60/2/9 59/2/9 56/2/9
f 57/2/9 60/2/9 56/2/9
f 30/2/4 60/2/4 57/2/4
f 26/2/4 30/2/4 57/2/4
f 61/2/8 34/2/8 30/2/8
f 58/2/8 61/2/8 30/2/8
f 62/2/2 61/2/2 58/2/2
f 59/2/2 62/2/2 58/2/2
f 63/2/9 62/2/9 59/2/9
f 60/2/9 63/2/9 59/2/9
f 34/2/4 63/2/4 60/2/4
f 30/2/4 34/2/4 60/2/4
f 40/2/7 38/2/7 3/2/7
f 42/2/7 40/2/7 3/2/7
f 61/2/6 62/2/6 34/2/6
f 62/2/6 63/2/6 34/2/6
f 64/2/9 1/2/9 4/2/9
f 65/2/9 64/2/9 4/2/9
f 66/2/2 64/2/2 65/2/2
f 67/2/2 66/2/2 65/2/2
f 68/2/8 66/2/8 67/2/8
f 69/2/8 68/2/8 67/2/8
f 1/2/4 68/2/4 69/2/4
f 4/2/4 1/2/4 69/2/4
f 70/2/9 9/2/9 1/2/9
f 64/2/9 70/2/9 1/2/9
f 71/2/2 70/2/2 64/2/2
f 66/2/2 71/2/2 64/2/2
f 72/2/8 71/2/8 66/2/8
f 68/2/8 72/2/8 66/2/8
f 9/2/4 72/2/4 68/2/4
f 1/2/4 9/2/4 68/2/4
f 73/2/9 13/2/9 9/2/9
f 70/2/9 73/2/9 9/2/9
f 74/2/2 73/2/2 70/2/2
f 71/2/2 74/2/2 70/2/2
f 75/2/8 74/2/8 71/2/8
f 72/2/8 75/2/8 71/2/8
f 13/2/4 75/2/4 72/2/4
f 9/2/4 13/2/4 72/2/4
f 76/2/5 17/2/5 13/2/5
f 73/2/5 76/2/5 13/2/5
f 77/2/2 76/2/2 73/2/2
f 74/2/2 77/2/2 73/2/2
f 78/2/10 77/2/10 74/2/10
f 75/2/10 78/2/10 74/2/10
f 17/2/4 78/2/4 75/2/4
f 13/2/4 17/2/4 75/2/4
f 79/2/9 21/2/9 17/2/9
f 76/2/9 79/2/9 17/2/9
f 80/2/2 79/2/2 76/2/2
f 77/2/2 80/2/2 76/2/2
f 81/2/8 80/2/8 77/2/8
f 78/2/8 81/2/8 77/2/8
f 21/2/4 81/2/4 78/2/4
f 17/2/4 21/2/4 78/2/4
f 82/2/9 25/2/9 21/2/9
f 79/2/9 82/2/9 21/2/9
f 83/2/2 82/2/2 79/2/2
f 80/2/2 83/2/2 79/2/2
f 84/2/8 83/2/8 80/2/8
f 81/2/8 84/2/8 80/2/8
f 25/2/4 84/2/4 81/2/4
f 21/2/4 25/2/4 81/2/4
f 85/2/9 29/2/9 25/2/9
f 82/2/9 85/2/9 25/2/9
f 86/2/2 85/2/2 82/2/2
f 83/2/2 86/2/2 82/2/2
f 87/2/8 86/2/8 83/2/8
f 84/2/8 87/2/8 83/2/8
f 29/2/4 87/2/4 84/2/4
f 25/2/4 29/2/4 84/2/4
f 88/2/9 33/2/9 29/2/9
f 85/2/9 88/2/9 29/2/9
f 89/2/2 88/2/2 85/2/2
f 86/2/2 89/2/2 85/2/2
f 90/2/8 89/2/8 86/2/8
f 87/2/8 90/2/8 86/2/8
f 33/2/4 90/2/4 87/2/4
f 29/2/4 33/2/4 87/2/4
f 67/2/6 65/2/6 4/2/6
f 69/2/6 67/2/6 4/2/6
f 88/2/7 89/2/7 33/2/7
f 89/2/7 90/2/7 33/2/7
f 91/3/3 92/3/3 93/3/3
f 94/3/3 91/3/3 93/3/3
f 95/3/2 91/3/2 94/3/2
f 96/3/2 95/3/2 94/3/2
f 97/3/1 95/3/1 96/3/1
f 98/3/1 97/3/1 96/3/1
f 92/3/4 97/3/4 98/3/4
f 93/3/4 92/3/4 98/3/4
f 99/3/3 100/3/3 92/3/3
f 91/3/3 99/3/3 92/3/3
f 101/3/2 99/3/2 91/3/2
f 95/3/2 101/3/2 91/3/2
f 102/3/1 101/3/1 95/3/1
f 97/3/1 102/3/1 95/3/1
f 100/3/4 102/3/4 97/3/4
f 92/3/4 100/3/4 97/3/4
f 103/3/3 104/3/3 100/3/3
f 99/3/3 103/3/3 100/3/3
f 105/3/2 103/3/2 99/3/2
f 101/3/2 105/3/2 99/3/2
f 106/3/1 105/3/1 101/3/1
f 102/3/1 106/3/1 101/3/1
f 104/3/4 106/3/4 102/3/4
f 100/3/4 104/3/4 102/3/4
f 107/3/11 108/3/11 104/3/11
f 103/3/11 107/3/11 104/3/11
f 109/3/2 107/3/2 103/3/2
f 105/3/2 109/3/2 103/3/2
f 110/3/12 109/3/12 105/3/12
f 106/3/12 110/3/12 105/3/12
f 108/3/4 110/3/4 106/3/4
f 104/3/4 108/3/4 106/3/4
f 111/3/3 112/3/3 108/3/3
f 107/3/3 111/3/3 108/3/3
f 113/3/2 111/3/2 107/3/2
f 109/3/2 113/3/2 107/3/2
f 114/3/1 113/3/1 109/3/1
f 110/3/1 114/3/1 109/3/1
f 112/3/4 114/3/4 110/3/4
f 108/3/4 112/3/4 110/3/4
f 115/3/3 116/3/3 112/3/3
f 111/3/3 115/3/3 112/3/3
f 117/3/2 115/3/2 111/3/2
f 113/3/2 117/3/2 111/3/2
f 118/3/1 117/3/1 113/3/1
f 114/3/1 118/3/1 113/3/1
f 116/3/4 118/3/4 114/3/4
f 112/3/4 116/3/4 114/3/4
f 119/3/3 120/3/3 116/3/3
f 115/3/3 119/3/3 116/3/3
f 121/3/2 119/3/2 115/3/2
f 117/3/2 121/3/2 115/3/2
f 122/3/1 121/3/1 117/3/1
f 118/3/1 122/3/1 117/3/1
f 120/3/4 122/3/4 118/3/4
f 116/3/4 120/3/4 118/3/4
f 123/3/3 124/3/3 120/3/3
f 119/3/3 123/3/3 120/3/3
f 125/3/2 123/3/2 119/3/2
f 121/3/2 125/3/2 119/3/2
f 126/3/1 125/3/1 121/3/1
f 122/3/1 126/3/1 121/3/1
f 124/3/4 126/3/4 122/3/4
f 120/3/4 124/3/4 122/3/4
f 96/3/7 94/3/7 93/3/7
f 98/3/7 96/3/7 93/3/7
f 123/3/6 125/3/6 124/3/6
f 125/3/6 126/3/6 124/3/6
f 127/3/1 128/3/1 129/3/1
f 130/3/1 127/3/1 129/3/1
f 131/3/2 127/3/2 130/3/2
f 132/3/2 131/3/2 130/3/2
f 133/3/3 131/3/3 132/3/3
f 134/3/3 133/3/3 132/3/3
f 128/3/4 133/3/4 134/3/4
f 129/3/4 128/3/4 134/3/4
f 135/3/1 136/3/1 128/3/1
f 127/3/1 135/3/1 128/3/1
f 137/3/2 135/3/2 127/3/2
f 131/3/2 137/3/2 127/3/2
f 138/3/3 137/3/3 131/3/3
f 133/3/3 138/3/3 131/3/3
f 136/3/4 138/3/4 133/3/4
f 128/3/4 136/3/4 133/3/4
f 139/3/1 140/3/1 136/3/1
f 135/3/1 139/3/1 136/3/1
f 141/3/2 139/3/2 135/3/2
f 137/3/2 141/3/2 135/3/2
f 142/3/3 141/3/3 137/3/3
f 138/3/3 142/3/3 137/3/3
f 140/3/4 142/3/4 138/3/4
f 136/3/4 140/3/4 138/3/4
f 143/3/12 144/3/12 140/3/12
f 139/3/12 143/3/12 140/3/12
f 145/3/2 143/3/2 139/3/2
f 141/3/2 145/3/2 139/3/2
f 146/3/11 145/3/11 141/3/11
f 142/3/11 146/3/11 141/3/11
f 144/3/4 146/3/4 142/3/4
f 140/3/4 144/3/4 142/3/4
f 147/3/1 148/3/1 144/3/1
f 143/3/1 147/3/1 144/3/1
f 149/3/2 147/3/2 143/3/2
f 145/3/2 149/3/2 143/3/2
f 150/3/3 149/3/3 145/3/3
f 146/3/3 150/3/3 145/3/3
f 148/3/4 150/3/4 146/3/4
f 144/3/4 148/3/4 146/3/4
f 151/3/1 152/3/1 148/3/1
f 147/3/1 151/3/1 148/3/1
f 153/3/2 151/3/2 147/3/2
f 149/3/2 153/3/2 147/3/2
f 154/3/3 153/3/3 149/3/3
f 150/3/3 154/3/3 149/3/3
f 152/3/4 154/3/4 150/3/4
f 148/3/4 152/3/4 150/3/4
f 155/3/1 156/3/1 152/3/1
f 151/3/1 155/3/1 152/3/1
f 157/3/2 155/3/2 151/3/2
f 153/3/2 157/3/2 151/3/2
f 158/3/3 157/3/3 153/3/3
f 154/3/3 158/3/3 153/3/3
f 156/3/4 158/3/4 154/3/4
f 152/3/4 156/3/4 154/3/4
f 159/3/1 160/3/1 156/3/1
f 155/3/1 159/3/1 156/3/1
f 161/3/2 159/3/2 155/3/2
f 157/3/2 161/3/2 155/3/2
f 162/3/3 161/3/3 157/3/3
f 158/3/3 162/3/3 157/3/3
f 160/3/4 162/3/4 158/3/4
f 156/3/4 160/3/4 158/3/4
f 132/3/6 130/3/6 129/3/6
f 134/3/6 132/3/6 129/3/6
f 159/3/7 161/3/7 160/3/7
f 161/3/7 162/3/7 160/3/7
f 163/4/13 164/4/13 165/4/13
f 166/4/13 163/4/13 165/4/13
f 167/4/2 163/4/2 166/4/2
f 168/4/2 167/4/2 166/4/2
f 169/4/8 167/4/8 168/4/8
f 170/4/8 169/4/8 168/4/8
f 164/4/4 169/4/4 170/4/4
f 165/4/4 164/4/4 170/4/4
f 168/4/6 166/4/6 165/4/6
f 170/4/6 168/4/6 165/4/6
f 163/4/7 167/4/7 164/4/7
f 167/4/7 169/4/7 164/4/7
f 171/4/14 172/4/14 173/4/14
f 174/4/14 171/4/14 173/4/14
f 175/4/2 171/4/2 174/4/2
f 176/4/2 175/4/2 174/4/2
f 177/4/8 175/4/8 176/4/8
f 178/4/8 177/4/8 176/4/8
f 172/4/4 177/4/4 178/4/4
f 173/4/4 172/4/4 178/4/4
f 176/4/6 174/4/6 173/4/6
f 178/4/6 176/4/6 173/4/6
f 171/4/7 175/4/7 172/4/7
f 175/4/7 177/4/7 172/4/7
f 179/4/9 180/4/9 181/4/9
f 182/4/9 179/4/9 181/4/9
f 183/4/2 179/4/2 182/4/2
f 184/4/2 183/4/2 182/4/2
f 185/4/8 183/4/8 184/4/8
f 186/4/8 185/4/8 184/4/8
f 180/4/4 185/4/4 186/4/4
f 181/4/4 180/4/4 186/4/4
f 184/4/6 182/4/6 181/4/6
f 186/4/6 184/4/6 181/4/6
f 179/4/7 183/4/7 180/4/7
f 183/4/7 185/4/7 180/4/7
f 187/4/9 188/4/9 189/4/9
f 190/4/9 187/4/9 189/4/9
f 191/4/2 187/4/2 190/4/2
f 192/4/2 191/4/2 190/4/2
f 193/4/8 191/4/8 192/4/8
f 194/4/8 193/4/8 192/4/8
f 188/4/4 193/4/4 194/4/4
f 189/4/4 188/4/4 194/4/4
f 192/4/6 190/4/6 189/4/6
f 194/4/6 192/4/6 189/4/6
f 187/4/7 191/4/7 188/4/7
f 191/4/7 193/4/7 188/4/7
