# CargoTrackLift1UpBackward - generated by Tools/generate_meshes.py, do not hand-edit
# Regenerate with: python Tools/generate_meshes.py
o CargoTrackLift1UpBackward
v 7.05000 0.91333 0.20000
v 7.05000 0.91333 -7.20000
v 10.00000 -0.42000 -7.20000
v 10.00000 -0.42000 0.20000
v 7.05000 1.33333 0.20000
v 10.00000 0.00000 0.20000
v 7.05000 1.33333 -7.20000
v 10.00000 0.00000 -7.20000
v 4.10000 2.24667 0.20000
v 4.10000 2.24667 -7.20000
v 4.10000 2.66667 0.20000
v 4.10000 2.66667 -7.20000
v 1.15000 3.58000 0.20000
v 1.15000 3.58000 -7.20000
v 1.15000 4.00000 0.20000
v 1.15000 4.00000 -7.20000
v -1.80000 4.91333 0.20000
v -1.80000 4.91333 -7.20000
v -1.80000 5.33333 0.20000
v -1.80000 5.33333 -7.20000
v -1.71322 6.24667 0.18019
v -4.92396 6.24667 -6.48698
v -1.71322 6.66667 0.18019
v -4.92396 6.66667 -6.48698
v -1.64363 7.58000 0.12470
v -7.42919 7.58000 -4.48913
v -1.64363 8.00000 0.12470
v -7.42919 8.00000 -4.48913
v -1.60501 8.91333 0.04450
v -8.81948 8.91333 -1.60215
v -1.60501 9.33333 0.04450
v -8.81948 9.33333 -1.60215
v -1.60501 10.24667 -0.04450
v -8.81948 10.24667 1.60215
v -1.60501 10.66667 -0.04450
v -8.81948 10.66667 1.60215
v -1.64363 11.58000 -0.12470
v -7.42919 11.58000 4.48913
v -1.64363 12.00000 -0.12470
v -7.42919 12.00000 4.48913
v -1.71322 12.91333 -0.18019
v -4.92396 12.91333 6.48698
v -1.71322 13.33333 -0.18019
v -4.92396 13.33333 6.48698
v -1.80000 14.24667 -0.20000
v -1.80000 14.24667 7.20000
v -1.80000 14.66667 -0.20000
v -1.80000 14.66667 7.20000
v 1.15000 15.58000 -0.20000
v 1.15000 15.58000 7.20000
v 1.15000 16.00000 -0.20000
v 1.15000 16.00000 7.20000
v 4.10000 16.91333 -0.20000
v 4.10000 16.91333 7.20000
v 4.10000 17.33333 -0.20000
v 4.10000 17.33333 7.20000
v 7.05000 18.24667 -0.20000
v 7.05000 18.24667 7.20000
v 7.05000 18.66667 -0.20000
v 7.05000 18.66667 7.20000
v 10.00000 19.58000 -0.20000
v 10.00000 19.58000 7.20000
v 10.00000 20.00000 -0.20000
v 10.00000 20.00000 7.20000
v 7.05000 0.91333 -7.95000
v 10.00000 -0.42000 -7.95000
v 7.05000 2.48333 -7.95000
v 10.00000 1.15000 -7.95000
v 7.05000 2.48333 -7.20000
v 10.00000 1.15000 -7.20000
v 4.10000 2.24667 -7.95000
v 4.10000 3.81667 -7.95000
v 4.10000 3.81667 -7.20000
v 1.15000 3.58000 -7.95000
v 1.15000 5.15000 -7.95000
v 1.15000 5.15000 -7.20000
v -1.80000 4.91333 -7.95000
v -1.80000 6.48333 -7.95000
v -1.80000 6.48333 -7.20000
v -5.24938 6.24667 -7.16270
v -5.24938 7.81667 -7.16270
v -4.92396 7.81667 -6.48698
v -8.01556 7.58000 -4.95674
v -8.01556 9.15000 -4.95674
v -7.42919 9.15000 -4.48913
v -9.55068 8.91333 -1.76904
v -9.55068 10.48333 -1.76904
v -8.81948 10.48333 -1.60215
v -9.55068 10.24667 1.76904
v -9.55068 11.81667 1.76904
v -8.81948 11.81667 1.60215
v -8.01556 11.58000 4.95674
v -8.01556 13.15000 4.95674
v -7.42919 13.15000 4.48913
v -5.24938 12.91333 7.16270
v -5.24938 14.48333 7.16270
v -4.92396 14.48333 6.48698
v -1.80000 14.24667 7.95000
v -1.80000 15.81667 7.95000
v -1.80000 15.81667 7.20000
v 1.15000 15.58000 7.95000
v 1.15000 17.15000 7.95000
v 1.15000 17.15000 7.20000
v 4.10000 16.91333 7.95000
v 4.10000 18.48333 7.95000
v 4.10000 18.48333 7.20000
v 7.05000 18.24667 7.95000
v 7.05000 19.81667 7.95000
v 7.05000 19.81667 7.20000
v 10.00000 19.58000 7.95000
v 10.00000 21.15000 7.95000
v 10.00000 21.15000 7.20000
v 7.05000 0.91333 0.95000
v 10.00000 -0.42000 0.95000
v 7.05000 2.48333 0.95000
v 10.00000 1.15000 0.95000
v 7.05000 2.48333 0.20000
v 10.00000 1.15000 0.20000
v 4.10000 2.24667 0.95000
v 4.10000 3.81667 0.95000
v 4.10000 3.81667 0.20000
v 1.15000 3.58000 0.95000
v 1.15000 5.15000 0.95000
v 1.15000 5.15000 0.20000
v -1.80000 4.91333 0.95000
v -1.80000 6.48333 0.95000
v -1.80000 6.48333 0.20000
v -1.38781 6.24667 0.85592
v -1.38781 7.81667 0.85592
v -1.71322 7.81667 0.18019
v -1.05726 7.58000 0.59232
v -1.05726 9.15000 0.59232
v -1.64363 9.15000 0.12470
v -0.87382 8.91333 0.21139
v -0.87382 10.48333 0.21139
v -1.60501 10.48333 0.04450
v -0.87382 10.24667 -0.21139
v -0.87382 11.81667 -0.21139
v -1.60501 11.81667 -0.04450
v -1.05726 11.58000 -0.59232
v -1.05726 13.15000 -0.59232
v -1.64363 13.15000 -0.12470
v -1.38781 12.91333 -0.85592
v -1.38781 14.48333 -0.85592
v -1.71322 14.48333 -0.18019
v -1.80000 14.24667 -0.95000
v -1.80000 15.81667 -0.95000
v -1.80000 15.81667 -0.20000
v 1.15000 15.58000 -0.95000
v 1.15000 17.15000 -0.95000
v 1.15000 17.15000 -0.20000
v 4.10000 16.91333 -0.95000
v 4.10000 18.48333 -0.95000
v 4.10000 18.48333 -0.20000
v 7.05000 18.24667 -0.95000
v 7.05000 19.81667 -0.95000
v 7.05000 19.81667 -0.20000
v 10.00000 19.58000 -0.95000
v 10.00000 21.15000 -0.95000
v 10.00000 21.15000 -0.20000
v 7.05000 2.43333 -8.10000
v 7.05000 2.43333 -7.05000
v 10.00000 1.10000 -7.05000
v 10.00000 1.10000 -8.10000
v 7.05000 2.75333 -8.10000
v 10.00000 1.42000 -8.10000
v 7.05000 2.75333 -7.05000
v 10.00000 1.42000 -7.05000
v 4.10000 3.76667 -8.10000
v 4.10000 3.76667 -7.05000
v 4.10000 4.08667 -8.10000
v 4.10000 4.08667 -7.05000
v 1.15000 5.10000 -8.10000
v 1.15000 5.10000 -7.05000
v 1.15000 5.42000 -8.10000
v 1.15000 5.42000 -7.05000
v -1.80000 6.43333 -8.10000
v -1.80000 6.43333 -7.05000
v -1.80000 6.75333 -8.10000
v -1.80000 6.75333 -7.05000
v -5.31446 7.76667 -7.29785
v -4.85888 7.76667 -6.35183
v -5.31446 8.08667 -7.29785
v -4.85888 8.08667 -6.35183
v -8.13284 9.10000 -5.05027
v -7.31191 9.10000 -4.39560
v -8.13284 9.42000 -5.05027
v -7.31191 9.42000 -4.39560
v -9.69692 10.43333 -1.80242
v -8.67324 10.43333 -1.56877
v -9.69692 10.75333 -1.80242
v -8.67324 10.75333 -1.56877
v -9.69692 11.76667 1.80242
v -8.67324 11.76667 1.56877
v -9.69692 12.08667 1.80242
v -8.67324 12.08667 1.56877
v -8.13284 13.10000 5.05027
v -7.31191 13.10000 4.39560
v -8.13284 13.42000 5.05027
v -7.31191 13.42000 4.39560
v -5.31446 14.43333 7.29785
v -4.85888 14.43333 6.35183
v -5.31446 14.75333 7.29785
v -4.85888 14.75333 6.35183
v -1.80000 15.76667 8.10000
v -1.80000 15.76667 7.05000
v -1.80000 16.08667 8.10000
v -1.80000 16.08667 7.05000
v 1.15000 17.10000 8.10000
v 1.15000 17.10000 7.05000
v 1.15000 17.42000 8.10000
v 1.15000 17.42000 7.05000
v 4.10000 18.43333 8.10000
v 4.10000 18.43333 7.05000
v 4.10000 18.75333 8.10000
v 4.10000 18.75333 7.05000
v 7.05000 19.76667 8.10000
v 7.05000 19.76667 7.05000
v 7.05000 20.08667 8.10000
v 7.05000 20.08667 7.05000
v 10.00000 21.10000 8.10000
v 10.00000 21.10000 7.05000
v 10.00000 21.42000 8.10000
v 10.00000 21.42000 7.05000
v 7.05000 2.43333 1.10000
v 7.05000 2.43333 0.05000
v 10.00000 1.10000 0.05000
v 10.00000 1.10000 1.10000
v 7.05000 2.75333 1.10000
v 10.00000 1.42000 1.10000
v 7.05000 2.75333 0.05000
v 10.00000 1.42000 0.05000
v 4.10000 3.76667 1.10000
v 4.10000 3.76667 0.05000
v 4.10000 4.08667 1.10000
v 4.10000 4.08667 0.05000
v 1.15000 5.10000 1.10000
v 1.15000 5.10000 0.05000
v 1.15000 5.42000 1.10000
v 1.15000 5.42000 0.05000
v -1.80000 6.43333 1.10000
v -1.80000 6.43333 0.05000
v -1.80000 6.75333 1.10000
v -1.80000 6.75333 0.05000
v -1.32273 7.76667 0.99107
v -1.77831 7.76667 0.04505
v -1.32273 8.08667 0.99107
v -1.77831 8.08667 0.04505
v -0.93999 9.10000 0.68584
v -1.76091 9.10000 0.03117
v -0.93999 9.42000 0.68584
v -1.76091 9.42000 0.03117
v -0.72758 10.43333 0.24477
v -1.75125 10.43333 0.01113
v -0.72758 10.75333 0.24477
v -1.75125 10.75333 0.01113
v -0.72758 11.76667 -0.24477
v -1.75125 11.76667 -0.01113
v -0.72758 12.08667 -0.24477
v -1.75125 12.08667 -0.01113
v -0.93999 13.10000 -0.68584
v -1.76091 13.10000 -0.03117
v -0.93999 13.42000 -0.68584
v -1.76091 13.42000 -0.03117
v -1.32273 14.43333 -0.99107
v -1.77831 14.43333 -0.04505
v -1.32273 14.75333 -0.99107
v -1.77831 14.75333 -0.04505
v -1.80000 15.76667 -1.10000
v -1.80000 15.76667 -0.05000
v -1.80000 16.08667 -1.10000
v -1.80000 16.08667 -0.05000
v 1.15000 17.10000 -1.10000
v 1.15000 17.10000 -0.05000
v 1.15000 17.42000 -1.10000
v 1.15000 17.42000 -0.05000
v 4.10000 18.43333 -1.10000
v 4.10000 18.43333 -0.05000
v 4.10000 18.75333 -1.10000
v 4.10000 18.75333 -0.05000
v 7.05000 19.76667 -1.10000
v 7.05000 19.76667 -0.05000
v 7.05000 20.08667 -1.10000
v 7.05000 20.08667 -0.05000
v 10.00000 21.10000 -1.10000
v 10.00000 21.10000 -0.05000
v 10.00000 21.42000 -1.10000
v 10.00000 21.42000 -0.05000
v 4.10000 2.22667 -0.10000
v 4.10000 2.22667 -6.90000
v 7.05000 0.89333 -6.90000
v 7.05000 0.89333 -0.10000
v 4.10000 2.48667 -0.10000
v 7.05000 1.15333 -0.10000
v 4.10000 2.48667 -6.90000
v 7.05000 1.15333 -6.90000
v -1.87818 7.56000 -0.06235
v -7.19464 7.56000 -4.30208
v -4.79380 6.22667 -6.21669
v -1.84339 6.22667 -0.09010
v -1.87818 7.82000 -0.06235
v -1.84339 6.48667 -0.09010
v -7.19464 7.82000 -4.30208
v -4.79380 6.48667 -6.21669
v -1.84339 12.89333 0.09010
v -4.79380 12.89333 6.21669
v -7.19464 11.56000 4.30208
v -1.87818 11.56000 0.06235
v -1.84339 13.15333 0.09010
v -1.87818 11.82000 0.06235
v -4.79380 13.15333 6.21669
v -7.19464 11.82000 4.30208
v 7.05000 18.22667 0.10000
v 7.05000 18.22667 6.90000
v 4.10000 16.89333 6.90000
v 4.10000 16.89333 0.10000
v 7.05000 18.48667 0.10000
v 4.10000 17.15333 0.10000
v 7.05000 18.48667 6.90000
v 4.10000 17.15333 6.90000
vt 0.01000 0.01000
vt 0.03000 0.01000
vt 0.02000 0.01000
vn -0.41186 -0.91125 -0.00000
vn 0.00000 0.00000 1.00000
vn 0.41186 0.91125 -0.00000
vn 0.00000 0.00000 -1.00000
vn -0.41186 -0.91125 -0.00000
vn 0.41186 0.91125 -0.00000
vn -0.41186 -0.91125 -0.00000
vn 0.41186 0.91125 -0.00000
vn -0.35367 -0.91973 0.17032
vn -0.99789 0.06495 0.00000
vn -0.22252 -0.00000 -0.97493
vn 0.89907 -0.06495 -0.43297
vn 0.39255 0.91973 -0.00000
vn -0.22252 0.00000 -0.97493
vn -0.24475 -0.91973 0.30691
vn -0.89907 0.06495 0.43297
vn -0.62349 -0.00000 -0.78183
vn 0.62217 -0.06495 -0.78018
vn 0.35367 0.91973 -0.17032
vn -0.62349 0.00000 -0.78183
vn -0.08735 -0.91973 0.38271
vn -0.62217 0.06495 0.78018
vn -0.90097 -0.00000 -0.43388
vn 0.22205 -0.06495 -0.97287
vn 0.24475 0.91973 -0.30691
vn -0.90097 0.00000 -0.43388
vn 0.08735 -0.91973 0.38271
vn -0.22205 0.06495 0.97287
vn -1.00000 0.00000 0.00000
vn -0.22205 -0.06495 -0.97287
vn 0.08735 0.91973 -0.38271
vn 0.24475 -0.91973 0.30691
vn 0.22205 0.06495 0.97287
vn -0.90097 0.00000 0.43388
vn -0.62217 -0.06495 -0.78018
vn -0.08735 0.91973 -0.38271
vn -0.90097 0.00000 0.43388
vn 0.35367 -0.91973 0.17032
vn 0.62217 0.06495 0.78018
vn -0.62349 0.00000 0.78183
vn -0.89907 -0.06495 -0.43297
vn -0.24475 0.91973 -0.30691
vn -0.62349 0.00000 0.78183
vn 0.39255 -0.91973 0.00000
vn 0.89907 0.06495 0.43297
vn -0.22252 0.00000 0.97493
vn -0.99789 -0.06495 -0.00000
vn -0.35367 0.91973 -0.17032
vn -0.22252 0.00000 0.97493
vn 0.41186 -0.91125 0.00000
vn -0.41186 0.91125 -0.00000
vn 0.41186 -0.91125 0.00000
vn 0.41186 -0.91125 0.00000
vn -0.41186 0.91125 -0.00000
vn -0.41186 0.91125 -0.00000
vn 0.41186 -0.91125 0.00000
vn -0.41186 0.91125 -0.00000
vn 0.41186 -0.91125 0.00000
vn 0.41186 -0.91125 0.00000
vn -0.41186 0.91125 0.00000
vn -0.41186 0.91125 -0.00000
vn 1.00000 0.00000 0.00000
vn -0.41186 -0.91125 -0.00000
vn 0.41186 0.91125 -0.00000
vn -0.41186 -0.91125 -0.00000
vn -0.41186 -0.91125 -0.00000
vn 0.35367 0.91973 -0.17032
vn 0.36055 0.93274 -0.00000
vn 0.22252 0.00000 0.97493
vn 0.22252 0.00000 0.97493
vn -0.32484 -0.93274 0.15643
vn -0.39255 -0.91973 -0.00000
vn -0.22252 0.00000 -0.97493
vn 0.24475 0.91973 -0.30691
vn 0.32484 0.93274 -0.15643
vn 0.62349 0.00000 0.78183
vn -0.22480 -0.93274 0.28189
vn -0.35367 -0.91973 0.17032
vn -0.62349 0.00000 -0.78183
vn 0.08735 0.91973 -0.38271
vn 0.22480 0.93274 -0.28189
vn 0.90097 0.00000 0.43388
vn -0.08023 -0.93274 0.35151
vn -0.24475 -0.91973 0.30691
vn -0.90097 0.00000 -0.43388
vn -0.08735 0.91973 -0.38271
vn 0.08023 0.93274 -0.35151
vn 0.08023 -0.93274 0.35151
vn -0.08735 -0.91973 0.38271
vn -0.24475 0.91973 -0.30691
vn -0.08023 0.93274 -0.35151
vn 0.90097 0.00000 -0.43388
vn 0.22480 -0.93274 0.28189
vn 0.08735 -0.91973 0.38271
vn -0.90097 0.00000 0.43388
vn -0.35367 0.91973 -0.17032
vn -0.22480 0.93274 -0.28189
vn 0.62349 0.00000 -0.78183
vn 0.32484 -0.93274 0.15643
vn 0.24475 -0.91973 0.30691
vn -0.62349 0.00000 0.78183
vn -0.39255 0.91973 0.00000
vn -0.32484 0.93274 -0.15643
vn 0.22252 0.00000 -0.97493
vn 0.36055 -0.93274 0.00000
vn 0.35367 -0.91973 0.17032
vn -0.22252 0.00000 0.97493
vn -0.41186 0.91125 0.00000
vn 0.41186 -0.91125 0.00000
vn 0.41186 -0.91125 0.00000
vn -0.41186 0.91125 0.00000
vn 0.41186 -0.91125 0.00000
vn -0.41186 0.91125 0.00000
vn 0.41186 -0.91125 0.00000
vn 0.41186 0.91125 -0.00000
vn -0.41186 -0.91125 -0.00000
vn 0.41186 0.91125 -0.00000
vn 0.41186 0.91125 -0.00000
vn -0.89907 0.06495 0.43297
vn -0.95539 0.29535 0.00000
vn -0.22252 -0.00000 -0.97493
vn -0.22252 -0.00000 -0.97493
vn 0.86078 -0.29535 -0.41453
vn 0.99789 -0.06495 0.00000
vn 0.22252 -0.00000 0.97493
vn -0.62217 0.06495 0.78018
vn -0.86078 0.29535 0.41453
vn -0.62349 -0.00000 -0.78183
vn 0.59568 -0.29535 -0.74695
vn 0.89907 -0.06495 -0.43297
vn 0.62349 -0.00000 0.78183
vn -0.22205 0.06495 0.97287
vn -0.59568 0.29535 0.74695
vn -0.90097 -0.00000 -0.43388
vn 0.21259 -0.29535 -0.93144
vn 0.62217 -0.06495 -0.78018
vn 0.90097 -0.00000 0.43388
vn 0.22205 0.06495 0.97287
vn -0.21259 0.29535 0.93144
vn -0.21259 -0.29535 -0.93144
vn 0.22205 -0.06495 -0.97287
vn 0.62217 0.06495 0.78018
vn 0.21259 0.29535 0.93144
vn -0.90097 0.00000 0.43388
vn -0.59568 -0.29535 -0.74695
vn -0.22205 -0.06495 -0.97287
vn 0.90097 0.00000 -0.43388
vn 0.89907 0.06495 0.43297
vn 0.59568 0.29535 0.74695
vn -0.62349 0.00000 0.78183
vn -0.86078 -0.29535 -0.41453
vn -0.62217 -0.06495 -0.78018
vn 0.62349 0.00000 -0.78183
vn 0.99789 0.06495 -0.00000
vn 0.86078 0.29535 0.41453
vn -0.22252 0.00000 0.97493
vn -0.95539 -0.29535 -0.00000
vn -0.89907 -0.06495 -0.43297
vn 0.22252 0.00000 -0.97493
vn 0.41186 -0.91125 0.00000
vn -0.41186 0.91125 0.00000
vn 0.41186 -0.91125 0.00000
vn -0.41186 0.91125 0.00000
vn -0.41186 0.91125 0.00000
vn -0.41186 -0.91125 -0.00000
vn 0.41186 0.91125 -0.00000
vn 0.41186 0.91125 -0.00000
vn 0.41186 0.91125 -0.00000
vn 0.36001 0.91670 -0.17337
vn 0.35472 0.93497 -0.00000
vn 0.22252 0.00000 0.97493
vn 0.22252 0.00000 0.97493
vn -0.31959 -0.93497 0.15391
vn -0.39958 -0.91670 -0.00000
vn -0.22252 0.00000 -0.97493
vn 0.24913 0.91670 -0.31240
vn 0.31959 0.93497 -0.15391
vn 0.62349 0.00000 0.78183
vn -0.22116 -0.93497 0.27733
vn -0.36001 -0.91670 0.17337
vn -0.62349 0.00000 -0.78183
vn 0.08891 0.91670 -0.38956
vn 0.22116 0.93497 -0.27733
vn 0.90097 0.00000 0.43388
vn -0.07893 -0.93497 0.34582
vn -0.24913 -0.91670 0.31240
vn -0.90097 0.00000 -0.43388
vn -0.08891 0.91670 -0.38956
vn 0.07893 0.93497 -0.34582
vn 0.07893 -0.93497 0.34582
vn -0.08891 -0.91670 0.38956
vn -0.24913 0.91670 -0.31240
vn -0.07893 0.93497 -0.34582
vn 0.90097 0.00000 -0.43388
vn 0.22116 -0.93497 0.27733
vn 0.08891 -0.91670 0.38956
vn -0.90097 0.00000 0.43388
vn -0.36001 0.91670 -0.17337
vn -0.22116 0.93497 -0.27733
vn 0.62349 0.00000 -0.78183
vn 0.31959 -0.93497 0.15391
vn 0.24913 -0.91670 0.31240
vn -0.62349 0.00000 0.78183
vn -0.39958 0.91670 -0.00000
vn -0.31959 0.93497 -0.15391
vn 0.22252 0.00000 -0.97493
vn 0.35472 -0.93497 0.00000
vn 0.36001 -0.91670 0.17337
vn -0.41186 0.91125 -0.00000
vn -0.41186 0.91125 -0.00000
vn 0.41186 -0.91125 0.00000
vn -0.41186 0.91125 -0.00000
vn 0.41186 -0.91125 0.00000
vn 0.41186 -0.91125 0.00000
vn -0.41186 0.91125 -0.00000
vn 0.41186 -0.91125 0.00000
vn -0.41186 0.91125 0.00000
vn -0.41186 0.91125 -0.00000
vn 0.41186 -0.91125 0.00000
vn 0.41186 -0.91125 0.00000
vn -0.41186 -0.91125 -0.00000
vn -0.41186 -0.91125 -0.00000
vn -0.90085 0.01627 0.43383
vn -0.94150 0.33701 0.00000
vn -0.22252 -0.00000 -0.97493
vn -0.22252 -0.00000 -0.97493
vn 0.84826 -0.33701 -0.40850
vn 0.99987 -0.01627 0.00000
vn 0.22252 -0.00000 0.97493
vn 0.22252 -0.00000 0.97493
vn -0.62341 0.01627 0.78173
vn -0.84826 0.33701 0.40850
vn -0.62349 -0.00000 -0.78183
vn 0.58702 -0.33701 -0.73609
vn 0.90085 -0.01627 -0.43383
vn 0.62349 -0.00000 0.78183
vn -0.22249 0.01627 0.97480
vn -0.58702 0.33701 0.73609
vn -0.90097 -0.00000 -0.43388
vn 0.20950 -0.33701 -0.91789
vn 0.62341 -0.01627 -0.78173
vn 0.90097 -0.00000 0.43388
vn 0.22249 0.01627 0.97480
vn -0.20950 0.33701 0.91789
vn -0.20950 -0.33701 -0.91789
vn 0.22249 -0.01627 -0.97480
vn 0.62341 0.01627 0.78173
vn 0.20950 0.33701 0.91789
vn -0.90097 0.00000 0.43388
vn -0.58702 -0.33701 -0.73609
vn -0.22249 -0.01627 -0.97480
vn 0.90097 0.00000 -0.43388
vn 0.90085 0.01627 0.43383
vn 0.58702 0.33701 0.73609
vn -0.62349 0.00000 0.78183
vn -0.84826 -0.33701 -0.40850
vn -0.62341 -0.01627 -0.78173
vn 0.62349 0.00000 -0.78183
vn 0.99987 0.01627 0.00000
vn 0.84826 0.33701 0.40850
vn -0.22252 0.00000 0.97493
vn -0.94150 -0.33701 -0.00000
vn -0.90085 -0.01627 -0.43383
vn 0.22252 0.00000 -0.97493
vn 0.41186 -0.91125 0.00000
vn -0.41186 0.91125 -0.00000
vn 0.41186 -0.91125 0.00000
vn -0.41186 0.91125 -0.00000
vn 0.41186 -0.91125 0.00000
vn 0.41186 -0.91125 0.00000
vn -0.41186 0.91125 0.00000
vn -0.41186 0.91125 -0.00000
vn -0.41186 -0.91125 -0.00000
vn 0.41186 0.91125 -0.00000
vn -0.25366 -0.91350 0.31808
vn -0.90049 -0.03252 0.43365
vn 0.62349 0.00000 0.78183
vn 0.62316 0.03252 -0.78142
vn 0.36655 0.91350 -0.17652
vn -0.62349 0.00000 -0.78183
vn 0.90097 0.00000 -0.43388
vn -0.62349 0.00000 0.78183
vn 0.36655 -0.91350 0.17652
vn 0.62316 -0.03252 0.78142
vn 0.62349 0.00000 -0.78183
vn -0.90049 0.03252 -0.43365
vn -0.25366 0.91350 -0.31808
vn 0.90097 -0.00000 0.43388
vn 0.41186 -0.91125 0.00000
vn -0.41186 0.91125 0.00000
f 1/1/1 2/1/1 3/1/1
f 4/1/1 1/1/1 3/1/1
f 5/1/2 1/1/2 4/1/2
f 6/1/2 5/1/2 4/1/2
f 7/1/3 5/1/3 6/1/3
f 8/1/3 7/1/3 6/1/3
f 2/1/4 7/1/4 8/1/4
f 3/1/4 2/1/4 8/1/4
f 9/1/1 10/1/1 2/1/1
f 1/1/1 9/1/1 2/1/1
f 11/1/2 9/1/2 1/1/2
f 5/1/2 11/1/2 1/1/2
f 12/1/3 11/1/3 5/1/3
f 7/1/3 12/1/3 5/1/3
f 10/1/4 12/1/4 7/1/4
f 2/1/4 10/1/4 7/1/4
f 13/1/5 14/1/5 10/1/5
f 9/1/5 13/1/5 10/1/5
f 15/1/2 13/1/2 9/1/2
f 11/1/2 15/1/2 9/1/2
f 16/1/6 15/1/6 11/1/6
f 12/1/6 16/1/6 11/1/6
f 14/1/4 16/1/4 12/1/4
f 10/1/4 14/1/4 12/1/4
f 17/1/7 18/1/7 14/1/7
f 13/1/7 17/1/7 14/1/7
f 19/1/2 17/1/2 13/1/2
f 15/1/2 19/1/2 13/1/2
f 20/1/8 19/1/8 15/1/8
f 16/1/8 20/1/8 15/1/8
f 18/1/4 20/1/4 16/1/4
f 14/1/4 18/1/4 16/1/4
f 21/1/9 22/1/9 18/1/9
f 17/1/10 21/1/10 18/1/10
f 23/1/11 21/1/11 17/1/11
f 19/1/11 23/1/11 17/1/11
f 24/1/12 23/1/12 19/1/12
f 20/1/13 24/1/13 19/1/13
f 22/1/14 24/1/14 20/1/14
f 18/1/14 22/1/14 20/1/14
f 25/1/15 26/1/15 22/1/15
f 21/1/16 25/1/16 22/1/16
f 27/1/17 25/1/17 21/1/17
f 23/1/17 27/1/17 21/1/17
f 28/1/18 27/1/18 23/1/18
f 24/1/19 28/1/19 23/1/19
f 26/1/20 28/1/20 24/1/20
f 22/1/20 26/1/20 24/1/20
f 29/1/21 30/1/21 26/1/21
f 25/1/22 29/1/22 26/1/22
f 31/1/23 29/1/23 25/1/23
f 27/1/23 31/1/23 25/1/23
f 32/1/24 31/1/24 27/1/24
f 28/1/25 32/1/25 27/1/25
f 30/1/26 32/1/26 28/1/26
f 26/1/26 30/1/26 28/1/26
f 33/1/27 34/1/27 30/1/27
f 29/1/28 33/1/28 30/1/28
f 35/1/29 33/1/29 29/1/29
f 31/1/29 35/1/29 29/1/29
f 36/1/30 35/1/30 31/1/30
f 32/1/31 36/1/31 31/1/31
f 34/1/29 36/1/29 32/1/29
f 30/1/29 34/1/29 32/1/29
f 37/1/32 38/1/32 34/1/32
f 33/1/33 37/1/33 34/1/33
f 39/1/34 37/1/34 33/1/34
f 35/1/34 39/1/34 33/1/34
f 40/1/35 39/1/35 35/1/35
f 36/1/36 40/1/36 35/1/36
f 38/1/37 40/1/37 36/1/37
f 34/1/37 38/1/37 36/1/37
f 41/1/38 42/1/38 38/1/38
f 37/1/39 41/1/39 38/1/39
f 43/1/40 41/1/40 37/1/40
f 39/1/40 43/1/40 37/1/40
f 44/1/41 43/1/41 39/1/41
f 40/1/42 44/1/42 39/1/42
f 42/1/43 44/1/43 40/1/43
f 38/1/43 42/1/43 40/1/43
f 45/1/44 46/1/44 42/1/44
f 41/1/45 45/1/45 42/1/45
f 47/1/46 45/1/46 41/1/46
f 43/1/46 47/1/46 41/1/46
f 48/1/47 47/1/47 43/1/47
f 44/1/48 48/1/48 43/1/48
f 46/1/49 48/1/49 44/1/49
f 42/1/49 46/1/49 44/1/49
f 49/1/50 50/1/50 46/1/50
f 45/1/50 49/1/50 46/1/50
f 51/1/4 49/1/4 45/1/4
f 47/1/4 51/1/4 45/1/4
f 52/1/51 51/1/51 47/1/51
f 48/1/51 52/1/51 47/1/51
f 50/1/2 52/1/2 48/1/2
f 46/1/2 50/1/2 48/1/2
f 53/1/52 54/1/52 50/1/52
f 49/1/53 53/1/53 50/1/53
f 55/1/4 53/1/4 49/1/4
f 51/1/4 55/1/4 49/1/4
f 56/1/54 55/1/54 51/1/54
f 52/1/55 56/1/55 51/1/55
f 54/1/2 56/1/2 52/1/2
f 50/1/2 54/1/2 52/1/2
f 57/1/56 58/1/56 54/1/56
f 53/1/56 57/1/56 54/1/56
f 59/1/4 57/1/4 53/1/4
f 55/1/4 59/1/4 53/1/4
f 60/1/57 59/1/57 55/1/57
f 56/1/57 60/1/57 55/1/57
f 58/1/2 60/1/2 56/1/2
f 54/1/2 58/1/2 56/1/2
f 61/1/58 62/1/58 58/1/58
f 57/1/59 61/1/59 58/1/59
f 63/1/4 61/1/4 57/1/4
f 59/1/4 63/1/4 57/1/4
f 64/1/60 63/1/60 59/1/60
f 60/1/61 64/1/61 59/1/61
f 62/1/2 64/1/2 60/1/2
f 58/1/2 62/1/2 60/1/2
f 6/1/62 4/1/62 3/1/62
f 8/1/62 6/1/62 3/1/62
f 61/1/62 63/1/62 62/1/62
f 63/1/62 64/1/62 62/1/62
f 65/2/3 2/2/3 3/2/3
f 66/2/3 65/2/3 3/2/3
f 67/2/2 65/2/2 66/2/2
f 68/2/2 67/2/2 66/2/2
f 69/2/1 67/2/1 68/2/1
f 70/2/1 69/2/1 68/2/1
f 2/2/4 69/2/4 70/2/4
f 3/2/4 2/2/4 70/2/4
f 71/2/3 10/2/3 2/2/3
f 65/2/3 71/2/3 2/2/3
f 72/2/2 71/2/2 65/2/2
f 67/2/2 72/2/2 65/2/2
f 73/2/63 72/2/63 67/2/63
f 69/2/63 73/2/63 67/2/63
f 10/2/4 73/2/4 69/2/4
f 2/2/4 10/2/4 69/2/4
f 74/2/64 14/2/64 10/2/64
f 71/2/64 74/2/64 10/2/64
f 75/2/2 74/2/2 71/2/2
f 72/2/2 75/2/2 71/2/2
f 76/2/65 75/2/65 72/2/65
f 73/2/65 76/2/65 72/2/65
f 14/2/4 76/2/4 73/2/4
f 10/2/4 14/2/4 73/2/4
f 77/2/8 18/2/8 14/2/8
f 74/2/8 77/2/8 14/2/8
f 78/2/2 77/2/2 74/2/2
f 75/2/2 78/2/2 74/2/2
f 79/2/66 78/2/66 75/2/66
f 76/2/66 79/2/66 75/2/66
f 18/2/4 79/2/4 76/2/4
f 14/2/4 18/2/4 76/2/4
f 80/2/67 22/2/67 18/2/67
f 77/2/68 80/2/68 18/2/68
f 81/2/69 80/2/69 77/2/69
f 78/2/70 81/2/70 77/2/70
f 82/2/71 81/2/71 78/2/71
f 79/2/72 82/2/72 78/2/72
f 22/2/73 82/2/73 79/2/73
f 18/2/73 22/2/73 79/2/73
f 83/2/74 26/2/74 22/2/74
f 80/2/75 83/2/75 22/2/75
f 84/2/76 83/2/76 80/2/76
f 81/2/76 84/2/76 80/2/76
f 85/2/77 84/2/77 81/2/77
f 82/2/78 85/2/78 81/2/78
f 26/2/79 85/2/79 82/2/79
f 22/2/79 26/2/79 82/2/79
f 86/2/80 30/2/80 26/2/80
f 83/2/81 86/2/81 26/2/81
f 87/2/82 86/2/82 83/2/82
f 84/2/82 87/2/82 83/2/82
f 88/2/83 87/2/83 84/2/83
f 85/2/84 88/2/84 84/2/84
f 30/2/85 88/2/85 85/2/85
f 26/2/85 30/2/85 85/2/85
f 89/2/86 34/2/86 30/2/86
f 86/2/87 89/2/87 30/2/87
f 90/2/62 89/2/62 86/2/62
f 87/2/62 90/2/62 86/2/62
f 91/2/88 90/2/88 87/2/88
f 88/2/89 91/2/89 87/2/89
f 34/2/29 91/2/29 88/2/29
f 30/2/29 34/2/29 88/2/29
f 92/2/90 38/2/90 34/2/90
f 89/2/91 92/2/91 34/2/91
f 93/2/92 92/2/92 89/2/92
f 90/2/92 93/2/92 89/2/92
f 94/2/93 93/2/93 90/2/93
f 91/2/94 94/2/94 90/2/94
f 38/2/95 94/2/95 91/2/95
f 34/2/95 38/2/95 91/2/95
f 95/2/96 42/2/96 38/2/96
f 92/2/97 95/2/97 38/2/97
f 96/2/98 95/2/98 92/2/98
f 93/2/98 96/2/98 92/2/98
f 97/2/99 96/2/99 93/2/99
f 94/2/100 97/2/100 93/2/100
f 42/2/101 97/2/101 94/2/101
f 38/2/101 42/2/101 94/2/101
f 98/2/102 46/2/102 42/2/102
f 95/2/103 98/2/103 42/2/103
f 99/2/104 98/2/104 95/2/104
f 96/2/104 99/2/104 95/2/104
f 100/2/105 99/2/105 96/2/105
f 97/2/106 100/2/106 96/2/106
f 46/2/107 100/2/107 97/2/107
f 42/2/107 46/2/107 97/2/107
f 101/2/108 50/2/108 46/2/108
f 98/2/108 101/2/108 46/2/108
f 102/2/4 101/2/4 98/2/4
f 99/2/4 102/2/4 98/2/4
f 103/2/109 102/2/109 99/2/109
f 100/2/109 103/2/109 99/2/109
f 50/2/2 103/2/2 100/2/2
f 46/2/2 50/2/2 100/2/2
f 104/2/108 54/2/108 50/2/108
f 101/2/108 104/2/108 50/2/108
f 105/2/4 104/2/4 101/2/4
f 102/2/4 105/2/4 101/2/4
f 106/2/110 105/2/110 102/2/110
f 103/2/110 106/2/110 102/2/110
f 54/2/2 106/2/2 103/2/2
f 50/2/2 54/2/2 103/2/2
f 107/2/111 58/2/111 54/2/111
f 104/2/111 107/2/111 54/2/111
f 108/2/4 107/2/4 104/2/4
f 105/2/4 108/2/4 104/2/4
f 109/2/112 108/2/112 105/2/112
f 106/2/112 109/2/112 105/2/112
f 58/2/2 109/2/2 106/2/2
f 54/2/2 58/2/2 106/2/2
f 110/2/113 62/2/113 58/2/113
f 107/2/113 110/2/113 58/2/113
f 111/2/4 110/2/4 107/2/4
f 108/2/4 111/2/4 107/2/4
f 112/2/114 111/2/114 108/2/114
f 109/2/114 112/2/114 108/2/114
f 62/2/2 112/2/2 109/2/2
f 58/2/2 62/2/2 109/2/2
f 68/2/29 66/2/29 3/2/29
f 70/2/29 68/2/29 3/2/29
f 110/2/29 111/2/29 62/2/29
f 111/2/29 112/2/29 62/2/29
f 113/2/1 1/2/1 4/2/1
f 114/2/1 113/2/1 4/2/1
f 115/2/2 113/2/2 114/2/2
f 116/2/2 115/2/2 114/2/2
f 117/2/3 115/2/3 116/2/3
f 118/2/3 117/2/3 116/2/3
f 1/2/4 117/2/4 118/2/4
f 4/2/4 1/2/4 118/2/4
f 119/2/1 9/2/1 1/2/1
f 113/2/1 119/2/1 1/2/1
f 120/2/2 119/2/2 113/2/2
f 115/2/2 120/2/2 113/2/2
f 121/2/115 120/2/115 115/2/115
f 117/2/115 121/2/115 115/2/115
f 9/2/4 121/2/4 117/2/4
f 1/2/4 9/2/4 117/2/4
f 122/2/116 13/2/116 9/2/116
f 119/2/116 122/2/116 9/2/116
f 123/2/2 122/2/2 119/2/2
f 120/2/2 123/2/2 119/2/2
f 124/2/117 123/2/117 120/2/117
f 121/2/117 124/2/117 120/2/117
f 13/2/4 124/2/4 121/2/4
f 9/2/4 13/2/4 121/2/4
f 125/2/7 17/2/7 13/2/7
f 122/2/7 125/2/7 13/2/7
f 126/2/2 125/2/2 122/2/2
f 123/2/2 126/2/2 122/2/2
f 127/2/118 126/2/118 123/2/118
f 124/2/118 127/2/118 123/2/118
f 17/2/4 127/2/4 124/2/4
f 13/2/4 17/2/4 124/2/4
f 128/2/119 21/2/119 17/2/119
f 125/2/120 128/2/120 17/2/120
f 129/2/121 128/2/121 125/2/121
f 126/2/122 129/2/122 125/2/122
f 130/2/123 129/2/123 126/2/123
f 127/2/124 130/2/124 126/2/124
f 21/2/125 130/2/125 127/2/125
f 17/2/125 21/2/125 127/2/125
f 131/2/126 25/2/126 21/2/126
f 128/2/127 131/2/127 21/2/127
f 132/2/128 131/2/128 128/2/128
f 129/2/128 132/2/128 128/2/128
f 133/2/129 132/2/129 129/2/129
f 130/2/130 133/2/130 129/2/130
f 25/2/131 133/2/131 130/2/131
f 21/2/131 25/2/131 130/2/131
f 134/2/132 29/2/132 25/2/132
f 131/2/133 134/2/133 25/2/133
f 135/2/134 134/2/134 131/2/134
f 132/2/134 135/2/134 131/2/134
f 136/2/135 135/2/135 132/2/135
f 133/2/136 136/2/136 132/2/136
f 29/2/137 136/2/137 133/2/137
f 25/2/137 29/2/137 133/2/137
f 137/2/138 33/2/138 29/2/138
f 134/2/139 137/2/139 29/2/139
f 138/2/29 137/2/29 134/2/29
f 135/2/29 138/2/29 134/2/29
f 139/2/140 138/2/140 135/2/140
f 136/2/141 139/2/141 135/2/141
f 33/2/62 139/2/62 136/2/62
f 29/2/62 33/2/62 136/2/62
f 140/2/142 37/2/142 33/2/142
f 137/2/143 140/2/143 33/2/143
f 141/2/144 140/2/144 137/2/144
f 138/2/144 141/2/144 137/2/144
f 142/2/145 141/2/145 138/2/145
f 139/2/146 142/2/146 138/2/146
f 37/2/147 142/2/147 139/2/147
f 33/2/147 37/2/147 139/2/147
f 143/2/148 41/2/148 37/2/148
f 140/2/149 143/2/149 37/2/149
f 144/2/150 143/2/150 140/2/150
f 141/2/150 144/2/150 140/2/150
f 145/2/151 144/2/151 141/2/151
f 142/2/152 145/2/152 141/2/152
f 41/2/153 145/2/153 142/2/153
f 37/2/153 41/2/153 142/2/153
f 146/2/154 45/2/154 41/2/154
f 143/2/155 146/2/155 41/2/155
f 147/2/156 146/2/156 143/2/156
f 144/2/156 147/2/156 143/2/156
f 148/2/157 147/2/157 144/2/157
f 145/2/158 148/2/158 144/2/158
f 45/2/159 148/2/159 145/2/159
f 41/2/159 45/2/159 145/2/159
f 149/2/160 49/2/160 45/2/160
f 146/2/160 149/2/160 45/2/160
f 150/2/4 149/2/4 146/2/4
f 147/2/4 150/2/4 146/2/4
f 151/2/161 150/2/161 147/2/161
f 148/2/161 151/2/161 147/2/161
f 49/2/2 151/2/2 148/2/2
f 45/2/2 49/2/2 148/2/2
f 152/2/162 53/2/162 49/2/162
f 149/2/162 152/2/162 49/2/162
f 153/2/4 152/2/4 149/2/4
f 150/2/4 153/2/4 149/2/4
f 154/2/163 153/2/163 150/2/163
f 151/2/163 154/2/163 150/2/163
f 53/2/2 154/2/2 151/2/2
f 49/2/2 53/2/2 151/2/2
f 155/2/112 57/2/112 53/2/112
f 152/2/112 155/2/112 53/2/112
f 156/2/4 155/2/4 152/2/4
f 153/2/4 156/2/4 152/2/4
f 157/2/111 156/2/111 153/2/111
f 154/2/111 157/2/111 153/2/111
f 57/2/2 157/2/2 154/2/2
f 53/2/2 57/2/2 154/2/2
f 158/2/162 61/2/162 57/2/162
f 155/2/162 158/2/162 57/2/162
f 159/2/4 158/2/4 155/2/4
f 156/2/4 159/2/4 155/2/4
f 160/2/164 159/2/164 156/2/164
f 157/2/164 160/2/164 156/2/164
f 61/2/2 160/2/2 157/2/2
f 57/2/2 61/2/2 157/2/2
f 116/2/62 114/2/62 4/2/62
f 118/2/62 116/2/62 4/2/62
f 158/2/62 159/2/62 61/2/62
f 159/2/62 160/2/62 61/2/62
f 161/3/117 162/3/117 163/3/117
f 164/3/117 161/3/117 163/3/117
f 165/3/2 161/3/2 164/3/2
f 166/3/2 165/3/2 164/3/2
f 167/3/165 165/3/165 166/3/165
f 168/3/165 167/3/165 166/3/165
f 162/3/4 167/3/4 168/3/4
f 163/3/4 162/3/4 168/3/4
f 169/3/166 170/3/166 162/3/166
f 161/3/166 169/3/166 162/3/166
f 171/3/2 169/3/2 161/3/2
f 165/3/2 171/3/2 161/3/2
f 172/3/165 171/3/165 165/3/165
f 167/3/165 172/3/165 165/3/165
f 170/3/4 172/3/4 167/3/4
f 162/3/4 170/3/4 167/3/4
f 173/3/167 174/3/167 170/3/167
f 169/3/167 173/3/167 170/3/167
f 175/3/2 173/3/2 169/3/2
f 171/3/2 175/3/2 169/3/2
f 176/3/7 175/3/7 171/3/7
f 172/3/7 176/3/7 171/3/7
f 174/3/4 176/3/4 172/3/4
f 170/3/4 174/3/4 172/3/4
f 177/3/168 178/3/168 174/3/168
f 173/3/168 177/3/168 174/3/168
f 179/3/2 177/3/2 173/3/2
f 175/3/2 179/3/2 173/3/2
f 180/3/7 179/3/7 175/3/7
f 176/3/7 180/3/7 175/3/7
f 178/3/4 180/3/4 176/3/4
f 174/3/4 178/3/4 176/3/4
f 181/3/169 182/3/169 178/3/169
f 177/3/170 181/3/170 178/3/170
f 183/3/171 181/3/171 177/3/171
f 179/3/172 183/3/172 177/3/172
f 184/3/173 183/3/173 179/3/173
f 180/3/174 184/3/174 179/3/174
f 182/3/14 184/3/14 180/3/14
f 178/3/175 182/3/175 180/3/175
f 185/3/176 186/3/176 182/3/176
f 181/3/177 185/3/177 182/3/177
f 187/3/178 185/3/178 181/3/178
f 183/3/178 187/3/178 181/3/178
f 188/3/179 187/3/179 183/3/179
f 184/3/180 188/3/180 183/3/180
f 186/3/181 188/3/181 184/3/181
f 182/3/181 186/3/181 184/3/181
f 189/3/182 190/3/182 186/3/182
f 185/3/183 189/3/183 186/3/183
f 191/3/184 189/3/184 185/3/184
f 187/3/184 191/3/184 185/3/184
f 192/3/185 191/3/185 187/3/185
f 188/3/186 192/3/186 187/3/186
f 190/3/187 192/3/187 188/3/187
f 186/3/187 190/3/187 188/3/187
f 193/3/188 194/3/188 190/3/188
f 189/3/189 193/3/189 190/3/189
f 195/3/62 193/3/62 189/3/62
f 191/3/62 195/3/62 189/3/62
f 196/3/190 195/3/190 191/3/190
f 192/3/191 196/3/191 191/3/191
f 194/3/29 196/3/29 192/3/29
f 190/3/29 194/3/29 192/3/29
f 197/3/192 198/3/192 194/3/192
f 193/3/193 197/3/193 194/3/193
f 199/3/194 197/3/194 193/3/194
f 195/3/194 199/3/194 193/3/194
f 200/3/195 199/3/195 195/3/195
f 196/3/196 200/3/196 195/3/196
f 198/3/197 200/3/197 196/3/197
f 194/3/197 198/3/197 196/3/197
f 201/3/198 202/3/198 198/3/198
f 197/3/199 201/3/199 198/3/199
f 203/3/200 201/3/200 197/3/200
f 199/3/200 203/3/200 197/3/200
f 204/3/201 203/3/201 199/3/201
f 200/3/202 204/3/202 199/3/202
f 202/3/203 204/3/203 200/3/203
f 198/3/203 202/3/203 200/3/203
f 205/3/204 206/3/204 202/3/204
f 201/3/205 205/3/205 202/3/205
f 207/3/206 205/3/206 201/3/206
f 203/3/206 207/3/206 201/3/206
f 208/3/207 207/3/207 203/3/207
f 204/3/208 208/3/208 203/3/208
f 206/3/49 208/3/49 204/3/49
f 202/3/49 206/3/49 204/3/49
f 209/3/209 210/3/209 206/3/209
f 205/3/210 209/3/210 206/3/210
f 211/3/4 209/3/4 205/3/4
f 207/3/4 211/3/4 205/3/4
f 212/3/211 211/3/211 207/3/211
f 208/3/211 212/3/211 207/3/211
f 210/3/2 212/3/2 208/3/2
f 206/3/2 210/3/2 208/3/2
f 213/3/212 214/3/212 210/3/212
f 209/3/210 213/3/210 210/3/210
f 215/3/4 213/3/4 209/3/4
f 211/3/4 215/3/4 209/3/4
f 216/3/213 215/3/213 211/3/213
f 212/3/214 216/3/214 211/3/214
f 214/3/2 216/3/2 212/3/2
f 210/3/2 214/3/2 212/3/2
f 217/3/215 218/3/215 214/3/215
f 213/3/215 217/3/215 214/3/215
f 219/3/4 217/3/4 213/3/4
f 215/3/4 219/3/4 213/3/4
f 220/3/216 219/3/216 215/3/216
f 216/3/216 220/3/216 215/3/216
f 218/3/2 220/3/2 216/3/2
f 214/3/2 218/3/2 216/3/2
f 221/3/217 222/3/217 218/3/217
f 217/3/218 221/3/218 218/3/218
f 223/3/4 221/3/4 217/3/4
f 219/3/4 223/3/4 217/3/4
f 224/3/219 223/3/219 219/3/219
f 220/3/220 224/3/220 219/3/220
f 222/3/2 224/3/2 220/3/2
f 218/3/2 222/3/2 220/3/2
f 166/3/29 164/3/29 163/3/29
f 168/3/29 166/3/29 163/3/29
f 221/3/29 223/3/29 222/3/29
f 223/3/29 224/3/29 222/3/29
f 225/3/65 226/3/65 227/3/65
f 228/3/65 225/3/65 227/3/65
f 229/3/2 225/3/2 228/3/2
f 230/3/2 229/3/2 228/3/2
f 231/3/166 229/3/166 230/3/166
f 232/3/166 231/3/166 230/3/166
f 226/3/4 231/3/4 232/3/4
f 227/3/4 226/3/4 232/3/4
f 233/3/165 234/3/165 226/3/165
f 225/3/165 233/3/165 226/3/165
f 235/3/2 233/3/2 225/3/2
f 229/3/2 235/3/2 225/3/2
f 236/3/166 235/3/166 229/3/166
f 231/3/166 236/3/166 229/3/166
f 234/3/4 236/3/4 231/3/4
f 226/3/4 234/3/4 231/3/4
f 237/3/221 238/3/221 234/3/221
f 233/3/221 237/3/221 234/3/221
f 239/3/2 237/3/2 233/3/2
f 235/3/2 239/3/2 233/3/2
f 240/3/8 239/3/8 235/3/8
f 236/3/8 240/3/8 235/3/8
f 238/3/4 240/3/4 236/3/4
f 234/3/4 238/3/4 236/3/4
f 241/3/222 242/3/222 238/3/222
f 237/3/222 241/3/222 238/3/222
f 243/3/2 241/3/2 237/3/2
f 239/3/2 243/3/2 237/3/2
f 244/3/8 243/3/8 239/3/8
f 240/3/8 244/3/8 239/3/8
f 242/3/4 244/3/4 240/3/4
f 238/3/4 242/3/4 240/3/4
f 245/3/223 246/3/223 242/3/223
f 241/3/224 245/3/224 242/3/224
f 247/3/225 245/3/225 241/3/225
f 243/3/226 247/3/226 241/3/226
f 248/3/227 247/3/227 243/3/227
f 244/3/228 248/3/228 243/3/228
f 246/3/229 248/3/229 244/3/229
f 242/3/230 246/3/230 244/3/230
f 249/3/231 250/3/231 246/3/231
f 245/3/232 249/3/232 246/3/232
f 251/3/233 249/3/233 245/3/233
f 247/3/233 251/3/233 245/3/233
f 252/3/234 251/3/234 247/3/234
f 248/3/235 252/3/235 247/3/235
f 250/3/236 252/3/236 248/3/236
f 246/3/236 250/3/236 248/3/236
f 253/3/237 254/3/237 250/3/237
f 249/3/238 253/3/238 250/3/238
f 255/3/239 253/3/239 249/3/239
f 251/3/239 255/3/239 249/3/239
f 256/3/240 255/3/240 251/3/240
f 252/3/241 256/3/241 251/3/241
f 254/3/242 256/3/242 252/3/242
f 250/3/242 254/3/242 252/3/242
f 257/3/243 258/3/243 254/3/243
f 253/3/244 257/3/244 254/3/244
f 259/3/29 257/3/29 253/3/29
f 255/3/29 259/3/29 253/3/29
f 260/3/245 259/3/245 255/3/245
f 256/3/246 260/3/246 255/3/246
f 258/3/62 260/3/62 256/3/62
f 254/3/62 258/3/62 256/3/62
f 261/3/247 262/3/247 258/3/247
f 257/3/248 261/3/248 258/3/248
f 263/3/249 261/3/249 257/3/249
f 259/3/249 263/3/249 257/3/249
f 264/3/250 263/3/250 259/3/250
f 260/3/251 264/3/251 259/3/251
f 262/3/252 264/3/252 260/3/252
f 258/3/252 262/3/252 260/3/252
f 265/3/253 266/3/253 262/3/253
f 261/3/254 265/3/254 262/3/254
f 267/3/255 265/3/255 261/3/255
f 263/3/255 267/3/255 261/3/255
f 268/3/256 267/3/256 263/3/256
f 264/3/257 268/3/257 263/3/257
f 266/3/258 268/3/258 264/3/258
f 262/3/258 266/3/258 264/3/258
f 269/3/259 270/3/259 266/3/259
f 265/3/260 269/3/260 266/3/260
f 271/3/261 269/3/261 265/3/261
f 267/3/261 271/3/261 265/3/261
f 272/3/262 271/3/262 267/3/262
f 268/3/263 272/3/263 267/3/263
f 270/3/264 272/3/264 268/3/264
f 266/3/264 270/3/264 268/3/264
f 273/3/211 274/3/211 270/3/211
f 269/3/211 273/3/211 270/3/211
f 275/3/4 273/3/4 269/3/4
f 271/3/4 275/3/4 269/3/4
f 276/3/209 275/3/209 271/3/209
f 272/3/210 276/3/210 271/3/210
f 274/3/2 276/3/2 272/3/2
f 270/3/2 274/3/2 272/3/2
f 277/3/213 278/3/213 274/3/213
f 273/3/265 277/3/265 274/3/265
f 279/3/4 277/3/4 273/3/4
f 275/3/4 279/3/4 273/3/4
f 280/3/266 279/3/266 275/3/266
f 276/3/210 280/3/210 275/3/210
f 278/3/2 280/3/2 276/3/2
f 274/3/2 278/3/2 276/3/2
f 281/3/267 282/3/267 278/3/267
f 277/3/267 281/3/267 278/3/267
f 283/3/4 281/3/4 277/3/4
f 279/3/4 283/3/4 277/3/4
f 284/3/268 283/3/268 279/3/268
f 280/3/268 284/3/268 279/3/268
f 282/3/2 284/3/2 280/3/2
f 278/3/2 282/3/2 280/3/2
f 285/3/269 286/3/269 282/3/269
f 281/3/270 285/3/270 282/3/270
f 287/3/4 285/3/4 281/3/4
f 283/3/4 287/3/4 281/3/4
f 288/3/271 287/3/271 283/3/271
f 284/3/272 288/3/272 283/3/272
f 286/3/2 288/3/2 284/3/2
f 282/3/2 286/3/2 284/3/2
f 230/3/62 228/3/62 227/3/62
f 232/3/62 230/3/62 227/3/62
f 285/3/62 287/3/62 286/3/62
f 287/3/62 288/3/62 286/3/62
f 289/2/273 290/2/273 291/2/273
f 292/2/273 289/2/273 291/2/273
f 293/2/2 289/2/2 292/2/2
f 294/2/2 293/2/2 292/2/2
f 295/2/274 293/2/274 294/2/274
f 296/2/274 295/2/274 294/2/274
f 290/2/4 295/2/4 296/2/4
f 291/2/4 290/2/4 296/2/4
f 294/2/62 292/2/62 291/2/62
f 296/2/62 294/2/62 291/2/62
f 289/2/29 293/2/29 290/2/29
f 293/2/29 295/2/29 290/2/29
f 297/2/275 298/2/275 299/2/275
f 300/2/276 297/2/276 299/2/276
f 301/2/277 297/2/277 300/2/277
f 302/2/277 301/2/277 300/2/277
f 303/2/278 301/2/278 302/2/278
f 304/2/279 303/2/279 302/2/279
f 298/2/280 303/2/280 304/2/280
f 299/2/280 298/2/280 304/2/280
f 302/2/281 300/2/281 299/2/281
f 304/2/281 302/2/281 299/2/281
f 297/2/282 301/2/282 298/2/282
f 301/2/282 303/2/282 298/2/282
f 305/2/283 306/2/283 307/2/283
f 308/2/284 305/2/284 307/2/284
f 309/2/285 305/2/285 308/2/285
f 310/2/285 309/2/285 308/2/285
f 311/2/286 309/2/286 310/2/286
f 312/2/287 311/2/287 310/2/287
f 306/2/282 311/2/282 312/2/282
f 307/2/282 306/2/282 312/2/282
f 310/2/233 308/2/233 307/2/233
f 312/2/233 310/2/233 307/2/233
f 305/2/288 309/2/288 306/2/288
f 309/2/288 311/2/288 306/2/288
f 313/2/289 314/2/289 315/2/289
f 316/2/289 313/2/289 315/2/289
f 317/2/4 313/2/4 316/2/4
f 318/2/4 317/2/4 316/2/4
f 319/2/290 317/2/290 318/2/290
f 320/2/290 319/2/290 318/2/290
f 314/2/2 319/2/2 320/2/2
f 315/2/2 314/2/2 320/2/2
f 318/2/29 316/2/29 315/2/29
f 320/2/29 318/2/29 315/2/29
f 313/2/62 317/2/62 314/2/62
f 317/2/62 319/2/62 314/2/62
