# CargoTrackLift1DownForward - generated by Tools/generate_meshes.py, do not hand-edit
# Regenerate with: python Tools/generate_meshes.py
o CargoTrackLift1DownForward
v 7.50000 -2.92000 3.70000
v 7.50000 -2.92000 -3.70000
v 10.00000 -0.42000 -3.70000
v 10.00000 -0.42000 3.70000
v 7.50000 -2.50000 3.70000
v 10.00000 0.00000 3.70000
v 7.50000 -2.50000 -3.70000
v 10.00000 0.00000 -3.70000
v 5.00000 -5.42000 3.70000
v 5.00000 -5.42000 -3.70000
v 5.00000 -5.00000 3.70000
v 5.00000 -5.00000 -3.70000
v 2.50000 -7.92000 3.70000
v 2.50000 -7.92000 -3.70000
v 2.50000 -7.50000 3.70000
v 2.50000 -7.50000 -3.70000
v -0.00000 -10.42000 3.70000
v -0.00000 -10.42000 -3.70000
v -0.00000 -10.00000 3.70000
v -0.00000 -10.00000 -3.70000
v -2.50000 -12.92000 3.70000
v -2.50000 -12.92000 -3.70000
v -2.50000 -12.50000 3.70000
v -2.50000 -12.50000 -3.70000
v -5.00000 -15.42000 3.70000
v -5.00000 -15.42000 -3.70000
v -5.00000 -15.00000 3.70000
v -5.00000 -15.00000 -3.70000
v -7.50000 -17.92000 3.70000
v -7.50000 -17.92000 -3.70000
v -7.50000 -17.50000 3.70000
v -7.50000 -17.50000 -3.70000
v -10.00000 -20.42000 3.70000
v -10.00000 -20.42000 -3.70000
v -10.00000 -20.00000 3.70000
v -10.00000 -20.00000 -3.70000
v 7.50000 -2.92000 -4.45000
v 10.00000 -0.42000 -4.45000
v 7.50000 -1.35000 -4.45000
v 10.00000 1.15000 -4.45000
v 7.50000 -1.35000 -3.70000
v 10.00000 1.15000 -3.70000
v 5.00000 -5.42000 -4.45000
v 5.00000 -3.85000 -4.45000
v 5.00000 -3.85000 -3.70000
v 2.50000 -7.92000 -4.45000
v 2.50000 -6.35000 -4.45000
v 2.50000 -6.35000 -3.70000
v -0.00000 -10.42000 -4.45000
v -0.00000 -8.85000 -4.45000
v -0.00000 -8.85000 -3.70000
v -2.50000 -12.92000 -4.45000
v -2.50000 -11.35000 -4.45000
v -2.50000 -11.35000 -3.70000
v -5.00000 -15.42000 -4.45000
v -5.00000 -13.85000 -4.45000
v -5.00000 -13.85000 -3.70000
v -7.50000 -17.92000 -4.45000
v -7.50000 -16.35000 -4.45000
v -7.50000 -16.35000 -3.70000
v -10.00000 -20.42000 -4.45000
v -10.00000 -18.85000 -4.45000
v -10.00000 -18.85000 -3.70000
v 7.50000 -2.92000 4.45000
v 10.00000 -0.42000 4.45000
v 7.50000 -1.35000 4.45000
v 10.00000 1.15000 4.45000
v 7.50000 -1.35000 3.70000
v 10.00000 1.15000 3.70000
v 5.00000 -5.42000 4.45000
v 5.00000 -3.85000 4.45000
v 5.00000 -3.85000 3.70000
v 2.50000 -7.92000 4.45000
v 2.50000 -6.35000 4.45000
v 2.50000 -6.35000 3.70000
v -0.00000 -10.42000 4.45000
v -0.00000 -8.85000 4.45000
v -0.00000 -8.85000 3.70000
v -2.50000 -12.92000 4.45000
v -2.50000 -11.35000 4.45000
v -2.50000 -11.35000 3.70000
v -5.00000 -15.42000 4.45000
v -5.00000 -13.85000 4.45000
v -5.00000 -13.85000 3.70000
v -7.50000 -17.92000 4.45000
v -7.50000 -16.35000 4.45000
v -7.50000 -16.35000 3.70000
v -10.00000 -20.42000 4.45000
v -10.00000 -18.85000 4.45000
v -10.00000 -18.85000 3.70000
v 7.50000 -1.40000 -4.60000
v 7.50000 -1.40000 -3.55000
v 10.00000 1.10000 -3.55000
v 10.00000 1.10000 -4.60000
v 7.50000 -1.08000 -4.60000
v 10.00000 1.42000 -4.60000
v 7.50000 -1.08000 -3.55000
v 10.00000 1.42000 -3.55000
v 5.00000 -3.90000 -4.60000
v 5.00000 -3.90000 -3.55000
v 5.00000 -3.58000 -4.60000
v 5.00000 -3.58000 -3.55000
v 2.50000 -6.40000 -4.60000
v 2.50000 -6.40000 -3.55000
v 2.50000 -6.08000 -4.60000
v 2.50000 -6.08000 -3.55000
v -0.00000 -8.90000 -4.60000
v -0.00000 -8.90000 -3.55000
v -0.00000 -8.58000 -4.60000
v -0.00000 -8.58000 -3.55000
v -2.50000 -11.40000 -4.60000
v -2.50000 -11.40000 -3.55000
v -2.50000 -11.08000 -4.60000
v -2.50000 -11.08000 -3.55000
v -5.00000 -13.90000 -4.60000
v -5.00000 -13.90000 -3.55000
v -5.00000 -13.58000 -4.60000
v -5.00000 -13.58000 -3.55000
v -7.50000 -16.40000 -4.60000
v -7.50000 -16.40000 -3.55000
v -7.50000 -16.08000 -4.60000
v -7.50000 -16.08000 -3.55000
v -10.00000 -18.90000 -4.60000
v -10.00000 -18.90000 -3.55000
v -10.00000 -18.58000 -4.60000
v -10.00000 -18.58000 -3.55000
v 7.50000 -1.40000 4.60000
v 7.50000 -1.40000 3.55000
v 10.00000 1.10000 3.55000
v 10.00000 1.10000 4.60000
v 7.50000 -1.08000 4.60000
v 10.00000 1.42000 4.60000
v 7.50000 -1.08000 3.55000
v 10.00000 1.42000 3.55000
v 5.00000 -3.90000 4.60000
v 5.00000 -3.90000 3.55000
v 5.00000 -3.58000 4.60000
v 5.00000 -3.58000 3.55000
v 2.50000 -6.40000 4.60000
v 2.50000 -6.40000 3.55000
v 2.50000 -6.08000 4.60000
v 2.50000 -6.08000 3.55000
v -0.00000 -8.90000 4.60000
v -0.00000 -8.90000 3.55000
v -0.00000 -8.58000 4.60000
v -0.00000 -8.58000 3.55000
v -2.50000 -11.40000 4.60000
v -2.50000 -11.40000 3.55000
v -2.50000 -11.08000 4.60000
v -2.50000 -11.08000 3.55000
v -5.00000 -13.90000 4.60000
v -5.00000 -13.90000 3.55000
v -5.00000 -13.58000 4.60000
v -5.00000 -13.58000 3.55000
v -7.50000 -16.40000 4.60000
v -7.50000 -16.40000 3.55000
v -7.50000 -16.08000 4.60000
v -7.50000 -16.08000 3.55000
v -10.00000 -18.90000 4.60000
v -10.00000 -18.90000 3.55000
v -10.00000 -18.58000 4.60000
v -10.00000 -18.58000 3.55000
v 5.00000 -5.44000 3.40000
v 5.00000 -5.44000 -3.40000
v 7.50000 -2.94000 -3.40000
v 7.50000 -2.94000 3.40000
v 5.00000 -5.18000 3.40000
v 7.50000 -2.68000 3.40000
v 5.00000 -5.18000 -3.40000
v 7.50000 -2.68000 -3.40000
v -0.00000 -10.44000 3.40000
v -0.00000 -10.44000 -3.40000
v 2.50000 -7.94000 -3.40000
v 2.50000 -7.94000 3.40000
v -0.00000 -10.18000 3.40000
v 2.50000 -7.68000 3.40000
v -0.00000 -10.18000 -3.40000
v 2.50000 -7.68000 -3.40000
v -5.00000 -15.44000 3.40000
v -5.00000 -15.44000 -3.40000
v -2.50000 -12.94000 -3.40000
v -2.50000 -12.94000 3.40000
v -5.00000 -15.18000 3.40000
v -2.50000 -12.68000 3.40000
v -5.00000 -15.18000 -3.40000
v -2.50000 -12.68000 -3.40000
v -10.00000 -20.44000 3.40000
v -10.00000 -20.44000 -3.40000
v -7.50000 -17.94000 -3.40000
v -7.50000 -17.94000 3.40000
v -10.00000 -20.18000 3.40000
v -7.50000 -17.68000 3.40000
v -10.00000 -20.18000 -3.40000
v -7.50000 -17.68000 -3.40000
vt 0.01000 0.01000
vt 0.03000 0.01000
vt 0.02000 0.01000
vn 0.70711 -0.70711 0.00000
vn -0.00000 0.00000 1.00000
vn -0.70711 0.70711 0.00000
vn 0.00000 0.00000 -1.00000
vn 0.70711 -0.70711 0.00000
vn 1.00000 0.00000 0.00000
vn -1.00000 0.00000 0.00000
vn 0.70711 -0.70711 0.00000
vn -0.70711 0.70711 0.00000
vn -0.70711 0.70711 0.00000
vn -0.70711 0.70711 0.00000
vn 0.70711 -0.70711 0.00000
vn -0.70711 0.70711 0.00000
vn -0.70711 0.70711 0.00000
vn 0.70711 -0.70711 0.00000
vn 0.70711 -0.70711 0.00000
vn 0.70711 -0.70711 0.00000
vn 0.70711 -0.70711 0.00000
f 1/1/1 2/1/1 3/1/1
f 4/1/1 1/1/1 3/1/1
f 5/1/2 1/1/2 4/1/2
f 6/1/2 5/1/2 4/1/2
f 7/1/3 5/1/3 6/1/3
f 8/1/3 7/1/3 6/1/3
f 2/1/4 7/1/4 8/1/4
f 3/1/4 2/1/4 8/1/4
f 9/1/1 10/1/1 2/1/1
f 1/1/1 9/1/1 2/1/1
f 11/1/2 9/1/2 1/1/2
f 5/1/2 11/1/2 1/1/2
f 12/1/3 11/1/3 5/1/3
f 7/1/3 12/1/3 5/1/3
f 10/1/4 12/1/4 7/1/4
f 2/1/4 10/1/4 7/1/4
f 13/1/1 14/1/1 10/1/1
f 9/1/1 13/1/1 10/1/1
f 15/1/2 13/1/2 9/1/2
f 11/1/2 15/1/2 9/1/2
f 16/1/3 15/1/3 11/1/3
f 12/1/3 16/1/3 11/1/3
f 14/1/4 16/1/4 12/1/4
f 10/1/4 14/1/4 12/1/4
f 17/1/1 18/1/1 14/1/1
f 13/1/1 17/1/1 14/1/1
f 19/1/2 17/1/2 13/1/2
f 15/1/2 19/1/2 13/1/2
f 20/1/3 19/1/3 15/1/3
f 16/1/3 20/1/3 15/1/3
f 18/1/4 20/1/4 16/1/4
f 14/1/4 18/1/4 16/1/4
f 21/1/1 22/1/1 18/1/1
f 17/1/1 21/1/1 18/1/1
f 23/1/2 21/1/2 17/1/2
f 19/1/2 23/1/2 17/1/2
f 24/1/3 23/1/3 19/1/3
f 20/1/3 24/1/3 19/1/3
f 22/1/4 24/1/4 20/1/4
f 18/1/4 22/1/4 20/1/4
f 25/1/1 26/1/1 22/1/1
f 21/1/1 25/1/1 22/1/1
f 27/1/2 25/1/2 21/1/2
f 23/1/2 27/1/2 21/1/2
f 28/1/3 27/1/3 23/1/3
f 24/1/3 28/1/3 23/1/3
f 26/1/4 28/1/4 24/1/4
f 22/1/4 26/1/4 24/1/4
f 29/1/5 30/1/5 26/1/5
f 25/1/5 29/1/5 26/1/5
f 31/1/2 29/1/2 25/1/2
f 27/1/2 31/1/2 25/1/2
f 32/1/3 31/1/3 27/1/3
f 28/1/3 32/1/3 27/1/3
f 30/1/4 32/1/4 28/1/4
f 26/1/4 30/1/4 28/1/4
f 33/1/1 34/1/1 30/1/1
f 29/1/1 33/1/1 30/1/1
f 35/1/2 33/1/2 29/1/2
f 31/1/2 35/1/2 29/1/2
f 36/1/3 35/1/3 31/1/3
f 32/1/3 36/1/3 31/1/3
f 34/1/4 36/1/4 32/1/4
f 30/1/4 34/1/4 32/1/4
f 6/1/6 4/1/6 3/1/6
f 8/1/6 6/1/6 3/1/6
f 33/1/7 35/1/7 34/1/7
f 35/1/7 36/1/7 34/1/7
f 37/2/3 2/2/3 3/2/3
f 38/2/3 37/2/3 3/2/3
f 39/2/2 37/2/2 38/2/2
f 40/2/2 39/2/2 38/2/2
f 41/2/1 39/2/1 40/2/1
f 42/2/1 41/2/1 40/2/1
f 2/2/4 41/2/4 42/2/4
f 3/2/4 2/2/4 42/2/4
f 43/2/3 10/2/3 2/2/3
f 37/2/3 43/2/3 2/2/3
f 44/2/2 43/2/2 37/2/2
f 39/2/2 44/2/2 37/2/2
f 45/2/1 44/2/1 39/2/1
f 41/2/1 45/2/1 39/2/1
f 10/2/4 45/2/4 41/2/4
f 2/2/4 10/2/4 41/2/4
f 46/2/3 14/2/3 10/2/3
f 43/2/3 46/2/3 10/2/3
f 47/2/2 46/2/2 43/2/2
f 44/2/2 47/2/2 43/2/2
f 48/2/8 47/2/8 44/2/8
f 45/2/8 48/2/8 44/2/8
f 14/2/4 48/2/4 45/2/4
f 10/2/4 14/2/4 45/2/4
f 49/2/3 18/2/3 14/2/3
f 46/2/3 49/2/3 14/2/3
f 50/2/2 49/2/2 46/2/2
f 47/2/2 50/2/2 46/2/2
f 51/2/1 50/2/1 47/2/1
f 48/2/1 51/2/1 47/2/1
f 18/2/4 51/2/4 48/2/4
f 14/2/4 18/2/4 48/2/4
f 52/2/3 22/2/3 18/2/3
f 49/2/3 52/2/3 18/2/3
f 53/2/2 52/2/2 49/2/2
f 50/2/2 53/2/2 49/2/2
f 54/2/1 53/2/1 50/2/1
f 51/2/1 54/2/1 50/2/1
f 22/2/4 54/2/4 51/2/4
f 18/2/4 22/2/4 51/2/4
f 55/2/3 26/2/3 22/2/3
f 52/2/3 55/2/3 22/2/3
f 56/2/2 55/2/2 52/2/2
f 53/2/2 56/2/2 52/2/2
f 57/2/1 56/2/1 53/2/1
f 54/2/1 57/2/1 53/2/1
f 26/2/4 57/2/4 54/2/4
f 22/2/4 26/2/4 54/2/4
f 58/2/9 30/2/9 26/2/9
f 55/2/9 58/2/9 26/2/9
f 59/2/2 58/2/2 55/2/2
f 56/2/2 59/2/2 55/2/2
f 60/2/5 59/2/5 56/2/5
f 57/2/5 60/2/5 56/2/5
f 30/2/4 60/2/4 57/2/4
f 26/2/4 30/2/4 57/2/4
f 61/2/3 34/2/3 30/2/3
f 58/2/3 61/2/3 30/2/3
f 62/2/2 61/2/2 58/2/2
f 59/2/2 62/2/2 58/2/2
f 63/2/1 62/2/1 59/2/1
f 60/2/1 63/2/1 59/2/1
f 34/2/4 63/2/4 60/2/4
f 30/2/4 34/2/4 60/2/4
f 40/2/7 38/2/7 3/2/7
f 42/2/7 40/2/7 3/2/7
f 61/2/6 62/2/6 34/2/6
f 62/2/6 63/2/6 34/2/6
f 64/2/1 1/2/1 4/2/1
f 65/2/1 64/2/1 4/2/1
f 66/2/2 64/2/2 65/2/2
f 67/2/2 66/2/2 65/2/2
f 68/2/3 66/2/3 67/2/3
f 69/2/3 68/2/3 67/2/3
f 1/2/4 68/2/4 69/2/4
f 4/2/4 1/2/4 69/2/4
f 70/2/1 9/2/1 1/2/1
f 64/2/1 70/2/1 1/2/1
f 71/2/2 70/2/2 64/2/2
f 66/2/2 71/2/2 64/2/2
f 72/2/3 71/2/3 66/2/3
f 68/2/3 72/2/3 66/2/3
f 9/2/4 72/2/4 68/2/4
f 1/2/4 9/2/4 68/2/4
f 73/2/1 13/2/1 9/2/1
f 70/2/1 73/2/1 9/2/1
f 74/2/2 73/2/2 70/2/2
f 71/2/2 74/2/2 70/2/2
f 75/2/10 74/2/10 71/2/10
f 72/2/10 75/2/10 71/2/10
f 13/2/4 75/2/4 72/2/4
f 9/2/4 13/2/4 72/2/4
f 76/2/1 17/2/1 13/2/1
f 73/2/1 76/2/1 13/2/1
f 77/2/2 76/2/2 73/2/2
f 74/2/2 77/2/2 73/2/2
f 78/2/3 77/2/3 74/2/3
f 75/2/3 78/2/3 74/2/3
f 17/2/4 78/2/4 75/2/4
f 13/2/4 17/2/4 75/2/4
f 79/2/1 21/2/1 17/2/1
f 76/2/1 79/2/1 17/2/1
f 80/2/2 79/2/2 76/2/2
f 77/2/2 80/2/2 76/2/2
f 81/2/3 80/2/3 77/2/3
f 78/2/3 81/2/3 77/2/3
f 21/2/4 81/2/4 78/2/4
f 17/2/4 21/2/4 78/2/4
f 82/2/1 25/2/1 21/2/1
f 79/2/1 82/2/1 21/2/1
f 83/2/2 82/2/2 79/2/2
f 80/2/2 83/2/2 79/2/2
f 84/2/3 83/2/3 80/2/3
f 81/2/3 84/2/3 80/2/3
f 25/2/4 84/2/4 81/2/4
f 21/2/4 25/2/4 81/2/4
f 85/2/5 29/2/5 25/2/5
f 82/2/5 85/2/5 25/2/5
f 86/2/2 85/2/2 82/2/2
f 83/2/2 86/2/2 82/2/2
f 87/2/9 86/2/9 83/2/9
f 84/2/9 87/2/9 83/2/9
f 29/2/4 87/2/4 84/2/4
f 25/2/4 29/2/4 84/2/4
f 88/2/1 33/2/1 29/2/1
f 85/2/1 88/2/1 29/2/1
f 89/2/2 88/2/2 85/2/2
f 86/2/2 89/2/2 85/2/2
f 90/2/3 89/2/3 86/2/3
f 87/2/3 90/2/3 86/2/3
f 33/2/4 90/2/4 87/2/4
f 29/2/4 33/2/4 87/2/4
f 67/2/6 65/2/6 4/2/6
f 69/2/6 67/2/6 4/2/6
f 88/2/7 89/2/7 33/2/7
f 89/2/7 90/2/7 33/2/7
f 91/3/11 92/3/11 93/3/11
f 94/3/11 91/3/11 93/3/11
f 95/3/2 91/3/2 94/3/2
f 96/3/2 95/3/2 94/3/2
f 97/3/12 95/3/12 96/3/12
f 98/3/12 97/3/12 96/3/12
f 92/3/4 97/3/4 98/3/4
f 93/3/4 92/3/4 98/3/4
f 99/3/11 100/3/11 92/3/11
f 91/3/11 99/3/11 92/3/11
f 101/3/2 99/3/2 91/3/2
f 95/3/2 101/3/2 91/3/2
f 102/3/12 101/3/12 95/3/12
f 97/3/12 102/3/12 95/3/12
f 100/3/4 102/3/4 97/3/4
f 92/3/4 100/3/4 97/3/4
f 103/3/13 104/3/13 100/3/13
f 99/3/13 103/3/13 100/3/13
f 105/3/2 103/3/2 99/3/2
f 101/3/2 105/3/2 99/3/2
f 106/3/12 105/3/12 101/3/12
f 102/3/12 106/3/12 101/3/12
f 104/3/4 106/3/4 102/3/4
f 100/3/4 104/3/4 102/3/4
f 107/3/11 108/3/11 104/3/11
f 103/3/11 107/3/11 104/3/11
f 109/3/2 107/3/2 103/3/2
f 105/3/2 109/3/2 103/3/2
f 110/3/12 109/3/12 105/3/12
f 106/3/12 110/3/12 105/3/12
f 108/3/4 110/3/4 106/3/4
f 104/3/4 108/3/4 106/3/4
f 111/3/11 112/3/11 108/3/11
f 107/3/11 111/3/11 108/3/11
f 113/3/2 111/3/2 107/3/2
f 109/3/2 113/3/2 107/3/2
f 114/3/12 113/3/12 109/3/12
f 110/3/12 114/3/12 109/3/12
f 112/3/4 114/3/4 110/3/4
f 108/3/4 112/3/4 110/3/4
f 115/3/11 116/3/11 112/3/11
f 111/3/11 115/3/11 112/3/11
f 117/3/2 115/3/2 111/3/2
f 113/3/2 117/3/2 111/3/2
f 118/3/12 117/3/12 113/3/12
f 114/3/12 118/3/12 113/3/12
f 116/3/4 118/3/4 114/3/4
f 112/3/4 116/3/4 114/3/4
f 119/3/14 120/3/14 116/3/14
f 115/3/14 119/3/14 116/3/14
f 121/3/2 119/3/2 115/3/2
f 117/3/2 121/3/2 115/3/2
f 122/3/15 121/3/15 117/3/15
f 118/3/15 122/3/15 117/3/15
f 120/3/4 122/3/4 118/3/4
f 116/3/4 120/3/4 118/3/4
f 123/3/11 124/3/11 120/3/11
f 119/3/11 123/3/11 120/3/11
f 125/3/2 123/3/2 119/3/2
f 121/3/2 125/3/2 119/3/2
f 126/3/12 125/3/12 121/3/12
f 122/3/12 126/3/12 121/3/12
f 124/3/4 126/3/4 122/3/4
f 120/3/4 124/3/4 122/3/4
f 96/3/7 94/3/7 93/3/7
f 98/3/7 96/3/7 93/3/7
f 123/3/6 125/3/6 124/3/6
f 125/3/6 126/3/6 124/3/6
f 127/3/12 128/3/12 129/3/12
f 130/3/12 127/3/12 129/3/12
f 131/3/2 127/3/2 130/3/2
f 132/3/2 131/3/2 130/3/2
f 133/3/11 131/3/11 132/3/11
f 134/3/11 133/3/11 132/3/11
f 128/3/4 133/3/4 134/3/4
f 129/3/4 128/3/4 134/3/4
f 135/3/12 136/3/12 128/3/12
f 127/3/12 135/3/12 128/3/12
f 137/3/2 135/3/2 127/3/2
f 131/3/2 137/3/2 127/3/2
f 138/3/11 137/3/11 131/3/11
f 133/3/11 138/3/11 131/3/11
f 136/3/4 138/3/4 133/3/4
f 128/3/4 136/3/4 133/3/4
f 139/3/16 140/3/16 136/3/16
f 135/3/16 139/3/16 136/3/16
f 141/3/2 139/3/2 135/3/2
f 137/3/2 141/3/2 135/3/2
f 142/3/11 141/3/11 137/3/11
f 138/3/11 142/3/11 137/3/11
f 140/3/4 142/3/4 138/3/4
f 136/3/4 140/3/4 138/3/4
f 143/3/12 144/3/12 140/3/12
f 139/3/12 143/3/12 140/3/12
f 145/3/2 143/3/2 139/3/2
f 141/3/2 145/3/2 139/3/2
f 146/3/11 145/3/11 141/3/11
f 142/3/11 146/3/11 141/3/11
f 144/3/4 146/3/4 142/3/4
f 140/3/4 144/3/4 142/3/4
f 147/3/12 148/3/12 144/3/12
f 143/3/12 147/3/12 144/3/12
f 149/3/2 147/3/2 143/3/2
f 145/3/2 149/3/2 143/3/2
f 150/3/11 149/3/11 145/3/11
f 146/3/11 150/3/11 145/3/11
f 148/3/4 150/3/4 146/3/4
f 144/3/4 148/3/4 146/3/4
f 151/3/12 152/3/12 148/3/12
f 147/3/12 151/3/12 148/3/12
f 153/3/2 151/3/2 147/3/2
f 149/3/2 153/3/2 147/3/2
f 154/3/11 153/3/11 149/3/11
f 150/3/11 154/3/11 149/3/11
f 152/3/4 154/3/4 150/3/4
f 148/3/4 152/3/4 150/3/4
f 155/3/15 156/3/15 152/3/15
f 151/3/15 155/3/15 152/3/15
f 157/3/2 155/3/2 151/3/2
f 153/3/2 157/3/2 151/3/2
f 158/3/14 157/3/14 153/3/14
f 154/3/14 158/3/14 153/3/14
f 156/3/4 158/3/4 154/3/4
f 152/3/4 156/3/4 154/3/4
f 159/3/12 160/3/12 156/3/12
f 155/3/12 159/3/12 156/3/12
f 161/3/2 159/3/2 155/3/2
f 157/3/2 161/3/2 155/3/2
f 162/3/11 161/3/11 157/3/11
f 158/3/11 162/3/11 157/3/11
f 160/3/4 162/3/4 158/3/4
f 156/3/4 160/3/4 158/3/4
f 132/3/6 130/3/6 129/3/6
f 134/3/6 132/3/6 129/3/6
f 159/3/7 161/3/7 160/3/7
f 161/3/7 162/3/7 160/3/7
f 163/2/17 164/2/17 165/2/17
f 166/2/17 163/2/17 165/2/17
f 167/2/2 163/2/2 166/2/2
f 168/2/2 167/2/2 166/2/2
f 169/2/10 167/2/10 168/2/10
f 170/2/10 169/2/10 168/2/10
f 164/2/4 169/2/4 170/2/4
f 165/2/4 164/2/4 170/2/4
f 168/2/6 166/2/6 165/2/6
f 170/2/6 168/2/6 165/2/6
f 163/2/7 167/2/7 164/2/7
f 167/2/7 169/2/7 164/2/7
f 171/2/18 172/2/18 173/2/18
f 174/2/18 171/2/18 173/2/18
f 175/2/2 171/2/2 174/2/2
f 176/2/2 175/2/2 174/2/2
f 177/2/11 175/2/11 176/2/11
f 178/2/11 177/2/11 176/2/11
f 172/2/4 177/2/4 178/2/4
f 173/2/4 172/2/4 178/2/4
f 176/2/6 174/2/6 173/2/6
f 178/2/6 176/2/6 173/2/6
f 171/2/7 175/2/7 172/2/7
f 175/2/7 177/2/7 172/2/7
f 179/2/12 180/2/12 181/2/12
f 182/2/12 179/2/12 181/2/12
f 183/2/2 179/2/2 182/2/2
f 184/2/2 183/2/2 182/2/2
f 185/2/11 183/2/11 184/2/11
f 186/2/11 185/2/11 184/2/11
f 180/2/4 185/2/4 186/2/4
f 181/2/4 180/2/4 186/2/4
f 184/2/6 182/2/6 181/2/6
f 186/2/6 184/2/6 181/2/6
f 179/2/7 183/2/7 180/2/7
f 183/2/7 185/2/7 180/2/7
f 187/2/12 188/2/12 189/2/12
f 190/2/12 187/2/12 189/2/12
f 191/2/2 187/2/2 190/2/2
f 192/2/2 191/2/2 190/2/2
f 193/2/11 191/2/11 192/2/11
f 194/2/11 193/2/11 192/2/11
f 188/2/4 193/2/4 194/2/4
f 189/2/4 188/2/4 194/2/4
f 192/2/6 190/2/6 189/2/6
f 194/2/6 192/2/6 189/2/6
f 187/2/7 191/2/7 188/2/7
f 191/2/7 193/2/7 188/2/7
