# CargoTrackLift2DownRight - generated by Tools/generate_meshes.py, do not hand-edit
# Regenerate with: python Tools/generate_meshes.py
o CargoTrackLift2DownRight
v 10.00000 -0.42000 -3.70000
v 8.77093 -5.42000 -3.82105
v 7.32726 -5.42000 3.43676
v 10.00000 -0.42000 3.70000
v 7.32726 -5.00000 3.43676
v 10.00000 0.00000 3.70000
v 8.77093 -5.00000 -3.82105
v 10.00000 0.00000 -3.70000
v 7.58909 -10.42000 -4.17956
v 4.75724 -10.42000 2.65715
v 4.75724 -10.00000 2.65715
v 7.58909 -10.00000 -4.17956
v 6.49991 -15.42000 -4.76174
v 2.38869 -15.42000 1.39113
v 2.38869 -15.00000 1.39113
v 6.49991 -15.00000 -4.76174
v 5.54523 -20.42000 -5.54523
v 0.31264 -20.42000 -0.31264
v 0.31264 -20.00000 -0.31264
v 5.54523 -20.00000 -5.54523
v 4.76174 -25.42000 -6.49991
v -1.39113 -25.42000 -2.38869
v -1.39113 -25.00000 -2.38869
v 4.76174 -25.00000 -6.49991
v 4.17956 -30.42000 -7.58909
v -2.65715 -30.42000 -4.75724
v -2.65715 -30.00000 -4.75724
v 4.17956 -30.00000 -7.58909
v 3.82105 -35.42000 -8.77093
v -3.43676 -35.42000 -7.32726
v -3.43676 -35.00000 -7.32726
v 3.82105 -35.00000 -8.77093
v 3.70000 -40.42000 -10.00000
v -3.70000 -40.42000 -10.00000
v -3.70000 -40.00000 -10.00000
v 3.70000 -40.00000 -10.00000
v 8.91725 -5.42000 -4.55664
v 10.00000 -0.42000 -4.45000
v 8.77093 -3.85000 -3.82105
v 10.00000 1.15000 -3.70000
v 8.91725 -3.85000 -4.55664
v 10.00000 1.15000 -4.45000
v 7.87611 -10.42000 -4.87247
v 7.58909 -8.85000 -4.17956
v 7.87611 -8.85000 -4.87247
v 6.91659 -15.42000 -5.38534
v 6.49991 -13.85000 -4.76174
v 6.91659 -13.85000 -5.38534
v 6.07556 -20.42000 -6.07556
v 5.54523 -18.85000 -5.54523
v 6.07556 -18.85000 -6.07556
v 5.38534 -25.42000 -6.91659
v 4.76174 -23.85000 -6.49991
v 5.38534 -23.85000 -6.91659
v 4.87247 -30.42000 -7.87611
v 4.17956 -28.85000 -7.58909
v 4.87247 -28.85000 -7.87611
v 4.55664 -35.42000 -8.91725
v 3.82105 -33.85000 -8.77093
v 4.55664 -33.85000 -8.91725
v 4.45000 -40.42000 -10.00000
v 3.70000 -38.85000 -10.00000
v 4.45000 -38.85000 -10.00000
v 7.18094 -5.42000 4.17235
v 10.00000 -0.42000 4.45000
v 7.18094 -3.85000 4.17235
v 10.00000 1.15000 4.45000
v 7.32726 -3.85000 3.43676
v 10.00000 1.15000 3.70000
v 4.47022 -10.42000 3.35006
v 4.47022 -8.85000 3.35006
v 4.75724 -8.85000 2.65715
v 1.97201 -15.42000 2.01474
v 1.97201 -13.85000 2.01474
v 2.38869 -13.85000 1.39113
v -0.21769 -20.42000 0.21769
v -0.21769 -18.85000 0.21769
v 0.31264 -18.85000 -0.31264
v -2.01474 -25.42000 -1.97201
v -2.01474 -23.85000 -1.97201
v -1.39113 -23.85000 -2.38869
v -3.35006 -30.42000 -4.47022
v -3.35006 -28.85000 -4.47022
v -2.65715 -28.85000 -4.75724
v -4.17235 -35.42000 -7.18094
v -4.17235 -33.85000 -7.18094
v -3.43676 -33.85000 -7.32726
v -4.45000 -40.42000 -10.00000
v -4.45000 -38.85000 -10.00000
v -3.70000 -38.85000 -10.00000
v 8.74167 -3.90000 -3.67393
v 8.94651 -3.90000 -4.70376
v 10.00000 1.10000 -4.60000
v 10.00000 1.10000 -3.55000
v 8.74167 -3.58000 -3.67393
v 10.00000 1.42000 -3.55000
v 8.94651 -3.58000 -4.70376
v 10.00000 1.42000 -4.60000
v 7.53169 -8.90000 -4.04098
v 7.93351 -8.90000 -5.01105
v 7.53169 -8.58000 -4.04098
v 7.93351 -8.58000 -5.01105
v 6.41657 -13.90000 -4.63702
v 6.99992 -13.90000 -5.51006
v 6.41657 -13.58000 -4.63702
v 6.99992 -13.58000 -5.51006
v 5.43916 -18.90000 -5.43916
v 6.18162 -18.90000 -6.18162
v 5.43916 -18.58000 -5.43916
v 6.18162 -18.58000 -6.18162
v 4.63702 -23.90000 -6.41657
v 5.51006 -23.90000 -6.99992
v 4.63702 -23.58000 -6.41657
v 5.51006 -23.58000 -6.99992
v 4.04098 -28.90000 -7.53169
v 5.01105 -28.90000 -7.93351
v 4.04098 -28.58000 -7.53169
v 5.01105 -28.58000 -7.93351
v 3.67393 -33.90000 -8.74167
v 4.70376 -33.90000 -8.94651
v 3.67393 -33.58000 -8.74167
v 4.70376 -33.58000 -8.94651
v 3.55000 -38.90000 -10.00000
v 4.60000 -38.90000 -10.00000
v 3.55000 -38.58000 -10.00000
v 4.60000 -38.58000 -10.00000
v 7.15168 -3.90000 4.31947
v 7.35653 -3.90000 3.28964
v 10.00000 1.10000 3.55000
v 10.00000 1.10000 4.60000
v 7.15168 -3.58000 4.31947
v 10.00000 1.42000 4.60000
v 7.35653 -3.58000 3.28964
v 10.00000 1.42000 3.55000
v 4.41282 -8.90000 3.48864
v 4.81464 -8.90000 2.51857
v 4.41282 -8.58000 3.48864
v 4.81464 -8.58000 2.51857
v 1.88867 -13.90000 2.13946
v 2.47202 -13.90000 1.26641
v 1.88867 -13.58000 2.13946
v 2.47202 -13.58000 1.26641
v -0.32376 -18.90000 0.32376
v 0.41870 -18.90000 -0.41870
v -0.32376 -18.58000 0.32376
v 0.41870 -18.58000 -0.41870
v -2.13946 -23.90000 -1.88867
v -1.26641 -23.90000 -2.47202
v -2.13946 -23.58000 -1.88867
v -1.26641 -23.58000 -2.47202
v -3.48864 -28.90000 -4.41282
v -2.51857 -28.90000 -4.81464
v -3.48864 -28.58000 -4.41282
v -2.51857 -28.58000 -4.81464
v -4.31947 -33.90000 -7.15168
v -3.28964 -33.90000 -7.35653
v -4.31947 -33.58000 -7.15168
v -3.28964 -33.58000 -7.35653
v -4.60000 -38.90000 -10.00000
v -3.55000 -38.90000 -10.00000
v -4.60000 -38.58000 -10.00000
v -3.55000 -38.58000 -10.00000
v 8.71240 -5.44000 -3.52682
v 7.47429 -10.44000 -3.90240
v 4.87204 -10.44000 2.37999
v 7.38579 -5.44000 3.14252
v 4.87204 -10.18000 2.37999
v 7.38579 -5.18000 3.14252
v 7.47429 -10.18000 -3.90240
v 8.71240 -5.18000 -3.52682
v 6.33324 -15.44000 -4.51230
v 5.33310 -20.44000 -5.33310
v 0.52477 -20.44000 -0.52477
v 2.55536 -15.44000 1.14169
v 0.52477 -20.18000 -0.52477
v 2.55536 -15.18000 1.14169
v 5.33310 -20.18000 -5.33310
v 6.33324 -15.18000 -4.51230
v 4.51230 -25.44000 -6.33324
v 3.90240 -30.44000 -7.47429
v -2.37999 -30.44000 -4.87204
v -1.14169 -25.44000 -2.55536
v -2.37999 -30.18000 -4.87204
v -1.14169 -25.18000 -2.55536
v 3.90240 -30.18000 -7.47429
v 4.51230 -25.18000 -6.33324
v 3.52682 -35.44000 -8.71240
v 3.40000 -40.44000 -10.00000
v -3.40000 -40.44000 -10.00000
v -3.14252 -35.44000 -7.38579
v -3.40000 -40.18000 -10.00000
v -3.14252 -35.18000 -7.38579
v 3.40000 -40.18000 -10.00000
v 3.52682 -35.18000 -8.71240
vt 0.07000 0.01000
vt 0.06000 0.01000
vt 0.02000 0.01000
vt 0.08000 0.01000
vn -0.95243 0.23871 -0.18945
vn -0.88191 0.47142 0.00000
vn 0.09802 0.00000 -0.99518
vn 0.09802 0.00000 -0.99518
vn 0.86496 -0.47142 0.17205
vn 0.97109 -0.23871 0.00000
vn -0.09802 0.00000 0.99518
vn -0.09802 0.00000 0.99518
vn -0.89717 0.23871 -0.37162
vn -0.86496 0.47142 -0.17205
vn 0.29028 0.00000 -0.95694
vn 0.29028 0.00000 -0.95694
vn 0.81478 -0.47142 0.33749
vn 0.95243 -0.23871 0.18945
vn -0.29028 0.00000 0.95694
vn -0.29028 0.00000 0.95694
vn -0.80743 0.23871 -0.53951
vn -0.81478 0.47142 -0.33749
vn 0.47140 0.00000 -0.88192
vn 0.47140 0.00000 -0.88192
vn 0.73328 -0.47142 0.48996
vn 0.89717 -0.23871 0.37162
vn -0.47140 0.00000 0.88192
vn -0.47140 0.00000 0.88192
vn -0.68667 0.23871 -0.68667
vn -0.73328 0.47142 -0.48996
vn 0.63439 0.00000 -0.77301
vn 0.63439 0.00000 -0.77301
vn 0.62360 -0.47142 0.62360
vn 0.80743 -0.23871 0.53951
vn -0.63439 0.00000 0.77301
vn -0.63439 0.00000 0.77301
vn -0.53951 0.23871 -0.80743
vn -0.62360 0.47142 -0.62360
vn 0.77301 0.00000 -0.63439
vn 0.77301 0.00000 -0.63439
vn 0.48996 -0.47142 0.73328
vn 0.68667 -0.23871 0.68667
vn -0.77301 0.00000 0.63439
vn -0.77301 0.00000 0.63439
vn -0.37162 0.23871 -0.89717
vn -0.48996 0.47142 -0.73328
vn 0.88192 0.00000 -0.47140
vn 0.88192 0.00000 -0.47140
vn 0.33749 -0.47142 0.81478
vn 0.53951 -0.23871 0.80743
vn -0.88192 0.00000 0.47140
vn -0.88192 0.00000 0.47140
vn -0.18945 0.23871 -0.95243
vn -0.33749 0.47142 -0.81478
vn 0.95694 0.00000 -0.29028
vn 0.95694 0.00000 -0.29028
vn 0.17205 -0.47142 0.86496
vn 0.37162 -0.23871 0.89717
vn -0.95694 0.00000 0.29028
vn -0.95694 0.00000 0.29028
vn 0.00000 0.23871 -0.97109
vn -0.17205 0.47142 -0.86496
vn 0.99518 0.00000 -0.09802
vn 0.99518 0.00000 -0.09802
vn 0.00000 -0.47142 0.88191
vn 0.18945 -0.23871 0.95243
vn -0.99518 0.00000 0.09802
vn -0.99518 0.00000 0.09802
vn -1.00000 0.00000 0.00000
vn 0.00000 0.00000 1.00000
vn 0.95857 -0.21164 0.19067
vn 0.97109 -0.23871 0.00000
vn -0.09802 0.00000 0.99518
vn -0.95243 0.23871 -0.18945
vn -0.97735 0.21164 0.00000
vn 0.09802 0.00000 -0.99518
vn 0.90295 -0.21164 0.37401
vn 0.95243 -0.23871 0.18945
vn -0.29028 0.00000 0.95694
vn -0.89717 0.23871 -0.37162
vn -0.95857 0.21164 -0.19067
vn 0.29028 0.00000 -0.95694
vn 0.29028 0.00000 -0.95694
vn 0.81263 -0.21164 0.54298
vn 0.89717 -0.23871 0.37162
vn -0.80743 0.23871 -0.53951
vn -0.90295 0.21164 -0.37401
vn 0.47140 0.00000 -0.88192
vn 0.69109 -0.21164 0.69109
vn 0.80743 -0.23871 0.53951
vn -0.63439 0.00000 0.77301
vn -0.81263 0.21164 -0.54298
vn 0.63439 0.00000 -0.77301
vn 0.54298 -0.21164 0.81263
vn 0.68667 -0.23871 0.68667
vn -0.53951 0.23871 -0.80743
vn -0.69109 0.21164 -0.69109
vn 0.77301 0.00000 -0.63439
vn 0.37401 -0.21164 0.90295
vn 0.53951 -0.23871 0.80743
vn -0.37162 0.23871 -0.89717
vn -0.54298 0.21164 -0.81263
vn 0.88192 0.00000 -0.47140
vn 0.19067 -0.21164 0.95857
vn 0.37162 -0.23871 0.89717
vn -0.95694 0.00000 0.29028
vn -0.18945 0.23871 -0.95243
vn -0.37401 0.21164 -0.90295
vn 0.95694 0.00000 -0.29028
vn 0.00000 -0.21164 0.97735
vn 0.18945 -0.23871 0.95243
vn -0.99518 0.00000 0.09802
vn 0.00000 0.23871 -0.97109
vn -0.19067 0.21164 -0.95857
vn 0.99518 0.00000 -0.09802
vn 1.00000 0.00000 0.00000
vn 0.00000 0.00000 -1.00000
vn 0.86496 -0.47142 0.17205
vn 0.87109 -0.49113 0.00000
vn -0.09802 0.00000 0.99518
vn -0.85435 0.49113 -0.16994
vn -0.88191 0.47142 0.00000
vn 0.81478 -0.47142 0.33749
vn 0.85435 -0.49113 0.16994
vn -0.29028 0.00000 0.95694
vn -0.29028 0.00000 0.95694
vn -0.80478 0.49113 -0.33335
vn -0.86496 0.47142 -0.17205
vn 0.29028 0.00000 -0.95694
vn 0.29028 0.00000 -0.95694
vn 0.73328 -0.47142 0.48996
vn 0.80478 -0.49113 0.33335
vn -0.47140 0.00000 0.88192
vn -0.72428 0.49113 -0.48395
vn -0.81478 0.47142 -0.33749
vn 0.47140 0.00000 -0.88192
vn 0.62360 -0.47142 0.62360
vn 0.72428 -0.49113 0.48395
vn -0.63439 0.00000 0.77301
vn -0.61595 0.49113 -0.61595
vn -0.73328 0.47142 -0.48996
vn 0.48996 -0.47142 0.73328
vn 0.61595 -0.49113 0.61595
vn -0.77301 0.00000 0.63439
vn -0.48395 0.49113 -0.72428
vn 0.33749 -0.47142 0.81478
vn 0.48395 -0.49113 0.72428
vn -0.88192 0.00000 0.47140
vn -0.33335 0.49113 -0.80478
vn -0.48996 0.47142 -0.73328
vn 0.88192 0.00000 -0.47140
vn 0.17205 -0.47142 0.86496
vn 0.33335 -0.49113 0.80478
vn -0.95694 0.00000 0.29028
vn -0.16994 0.49113 -0.85435
vn -0.33749 0.47142 -0.81478
vn 0.95694 0.00000 -0.29028
vn 0.00000 -0.47142 0.88191
vn 0.16994 -0.49113 0.85435
vn -0.99518 0.00000 0.09802
vn 0.00000 0.49113 -0.87109
vn -0.17205 0.47142 -0.86496
vn 0.95971 -0.20617 0.19090
vn 0.96976 -0.24406 0.00000
vn -0.09802 0.00000 0.99518
vn -0.95113 0.24406 -0.18919
vn -0.97852 0.20617 0.00000
vn 0.09802 0.00000 -0.99518
vn 0.90403 -0.20617 0.37446
vn 0.95113 -0.24406 0.18919
vn -0.29028 0.00000 0.95694
vn -0.29028 0.00000 0.95694
vn -0.89594 0.24406 -0.37111
vn -0.95971 0.20617 -0.19090
vn 0.29028 0.00000 -0.95694
vn 0.29028 0.00000 -0.95694
vn 0.81361 -0.20617 0.54363
vn 0.89594 -0.24406 0.37111
vn -0.80633 0.24406 -0.53877
vn -0.90403 0.20617 -0.37446
vn 0.47140 0.00000 -0.88192
vn 0.69192 -0.20617 0.69192
vn 0.80633 -0.24406 0.53877
vn -0.63439 0.00000 0.77301
vn -0.68572 0.24406 -0.68572
vn -0.81361 0.20617 -0.54363
vn 0.63439 0.00000 -0.77301
vn 0.54363 -0.20617 0.81361
vn 0.68572 -0.24406 0.68572
vn -0.77301 0.00000 0.63439
vn -0.53877 0.24406 -0.80633
vn -0.69192 0.20617 -0.69192
vn 0.77301 0.00000 -0.63439
vn 0.37446 -0.20617 0.90403
vn 0.53877 -0.24406 0.80633
vn -0.88192 0.00000 0.47140
vn -0.37111 0.24406 -0.89594
vn -0.54363 0.20617 -0.81361
vn 0.19090 -0.20617 0.95971
vn 0.37111 -0.24406 0.89594
vn -0.95694 0.00000 0.29028
vn -0.18919 0.24406 -0.95113
vn -0.37446 0.20617 -0.90403
vn 0.95694 0.00000 -0.29028
vn 0.00000 -0.20617 0.97852
vn 0.18919 -0.24406 0.95113
vn 0.00000 0.24406 -0.96976
vn -0.19090 0.20617 -0.95971
vn 0.99518 0.00000 -0.09802
vn 0.86706 -0.46739 0.17247
vn 0.86890 -0.49498 0.00000
vn -0.09802 0.00000 0.99518
vn -0.85221 0.49498 -0.16951
vn -0.88405 0.46739 0.00000
vn 0.81676 -0.46739 0.33831
vn 0.85221 -0.49498 0.16951
vn -0.29028 0.00000 0.95694
vn -0.80276 0.49498 -0.33251
vn -0.86706 0.46739 -0.17247
vn 0.29028 0.00000 -0.95694
vn 0.73506 -0.46739 0.49115
vn 0.80276 -0.49498 0.33251
vn -0.47140 0.00000 0.88192
vn -0.72247 0.49498 -0.48274
vn -0.81676 0.46739 -0.33831
vn 0.47140 0.00000 -0.88192
vn 0.62512 -0.46739 0.62512
vn 0.72247 -0.49498 0.48274
vn -0.63439 0.00000 0.77301
vn -0.61441 0.49498 -0.61441
vn -0.73506 0.46739 -0.49115
vn 0.63439 0.00000 -0.77301
vn 0.49115 -0.46739 0.73506
vn 0.61441 -0.49498 0.61441
vn -0.77301 0.00000 0.63439
vn -0.48274 0.49498 -0.72247
vn -0.62512 0.46739 -0.62512
vn 0.33831 -0.46739 0.81676
vn 0.48274 -0.49498 0.72247
vn -0.88192 0.00000 0.47140
vn -0.33251 0.49498 -0.80276
vn -0.49115 0.46739 -0.73506
vn 0.17247 -0.46739 0.86706
vn 0.33251 -0.49498 0.80276
vn -0.95694 0.00000 0.29028
vn -0.16951 0.49498 -0.85221
vn -0.33831 0.46739 -0.81676
vn 0.95694 0.00000 -0.29028
vn 0.00000 -0.46739 0.88405
vn 0.16951 -0.49498 0.85221
vn -0.99518 0.00000 0.09802
vn 0.00000 0.49498 -0.86890
vn -0.17247 0.46739 -0.86706
vn 0.99518 0.00000 -0.09802
vn -0.89469 0.24938 -0.37059
vn -0.86916 0.46333 -0.17289
vn 0.29028 0.00000 -0.95694
vn 0.29028 0.00000 -0.95694
vn 0.81873 -0.46333 0.33913
vn 0.94980 -0.24938 0.18893
vn -0.29028 0.00000 0.95694
vn -0.29028 0.00000 0.95694
vn -0.98079 0.00000 -0.19509
vn 0.92388 0.00000 0.38268
vn -0.68477 0.24938 -0.68477
vn -0.73683 0.46333 -0.49234
vn 0.63439 0.00000 -0.77301
vn 0.62663 -0.46333 0.62663
vn 0.80520 -0.24938 0.53802
vn -0.63439 0.00000 0.77301
vn -0.63439 0.00000 0.77301
vn -0.83147 0.00000 -0.55557
vn 0.70711 0.00000 0.70711
vn -0.37059 0.24938 -0.89469
vn -0.49234 0.46333 -0.73683
vn 0.88192 0.00000 -0.47140
vn 0.88192 0.00000 -0.47140
vn 0.33913 -0.46333 0.81873
vn 0.53802 -0.24938 0.80520
vn -0.88192 0.00000 0.47140
vn -0.55557 0.00000 -0.83147
vn 0.38268 0.00000 0.92388
vn 0.00000 0.24938 -0.96840
vn -0.17289 0.46333 -0.86916
vn 0.99518 0.00000 -0.09802
vn 0.00000 -0.46333 0.88618
vn 0.18893 -0.24938 0.94980
vn -0.99518 0.00000 0.09802
vn -0.19509 0.00000 -0.98079
f 1/1/1 2/1/1 3/1/1
f 1/1/2 3/1/2 4/1/2
f 4/1/3 3/1/3 5/1/3
f 4/1/4 5/1/4 6/1/4
f 6/1/5 5/1/5 7/1/5
f 6/1/6 7/1/6 8/1/6
f 8/1/7 7/1/7 2/1/7
f 8/1/8 2/1/8 1/1/8
f 2/1/9 9/1/9 10/1/9
f 2/1/10 10/1/10 3/1/10
f 3/1/11 10/1/11 11/1/11
f 3/1/12 11/1/12 5/1/12
f 5/1/13 11/1/13 12/1/13
f 5/1/14 12/1/14 7/1/14
f 7/1/15 12/1/15 9/1/15
f 7/1/16 9/1/16 2/1/16
f 9/1/17 13/1/17 14/1/17
f 9/1/18 14/1/18 10/1/18
f 10/1/19 14/1/19 15/1/19
f 10/1/20 15/1/20 11/1/20
f 11/1/21 15/1/21 16/1/21
f 11/1/22 16/1/22 12/1/22
f 12/1/23 16/1/23 13/1/23
f 12/1/24 13/1/24 9/1/24
f 13/1/25 17/1/25 18/1/25
f 13/1/26 18/1/26 14/1/26
f 14/1/27 18/1/27 19/1/27
f 14/1/28 19/1/28 15/1/28
f 15/1/29 19/1/29 20/1/29
f 15/1/30 20/1/30 16/1/30
f 16/1/31 20/1/31 17/1/31
f 16/1/32 17/1/32 13/1/32
f 17/1/33 21/1/33 22/1/33
f 17/1/34 22/1/34 18/1/34
f 18/1/35 22/1/35 23/1/35
f 18/1/36 23/1/36 19/1/36
f 19/1/37 23/1/37 24/1/37
f 19/1/38 24/1/38 20/1/38
f 20/1/39 24/1/39 21/1/39
f 20/1/40 21/1/40 17/1/40
f 21/1/41 25/1/41 26/1/41
f 21/1/42 26/1/42 22/1/42
f 22/1/43 26/1/43 27/1/43
f 22/1/44 27/1/44 23/1/44
f 23/1/45 27/1/45 28/1/45
f 23/1/46 28/1/46 24/1/46
f 24/1/47 28/1/47 25/1/47
f 24/1/48 25/1/48 21/1/48
f 25/1/49 29/1/49 30/1/49
f 25/1/50 30/1/50 26/1/50
f 26/1/51 30/1/51 31/1/51
f 26/1/52 31/1/52 27/1/52
f 27/1/53 31/1/53 32/1/53
f 27/1/54 32/1/54 28/1/54
f 28/1/55 32/1/55 29/1/55
f 28/1/56 29/1/56 25/1/56
f 29/1/57 33/1/57 34/1/57
f 29/1/58 34/1/58 30/1/58
f 30/1/59 34/1/59 35/1/59
f 30/1/60 35/1/60 31/1/60
f 31/1/61 35/1/61 36/1/61
f 31/1/62 36/1/62 32/1/62
f 32/1/63 36/1/63 33/1/63
f 32/1/64 33/1/64 29/1/64
f 1/1/65 4/1/65 6/1/65
f 1/1/65 6/1/65 8/1/65
f 33/1/66 35/1/66 34/1/66
f 33/1/66 36/1/66 35/1/66
f 2/2/67 37/2/67 38/2/67
f 1/2/68 2/2/68 38/2/68
f 39/2/69 2/2/69 1/2/69
f 40/2/69 39/2/69 1/2/69
f 41/2/70 39/2/70 40/2/70
f 42/2/71 41/2/71 40/2/71
f 37/2/72 41/2/72 42/2/72
f 38/2/72 37/2/72 42/2/72
f 9/2/73 43/2/73 37/2/73
f 2/2/74 9/2/74 37/2/74
f 44/2/75 9/2/75 2/2/75
f 39/2/16 44/2/16 2/2/16
f 45/2/76 44/2/76 39/2/76
f 41/2/77 45/2/77 39/2/77
f 43/2/78 45/2/78 41/2/78
f 37/2/79 43/2/79 41/2/79
f 13/2/80 46/2/80 43/2/80
f 9/2/81 13/2/81 43/2/81
f 47/2/24 13/2/24 9/2/24
f 44/2/24 47/2/24 9/2/24
f 48/2/82 47/2/82 44/2/82
f 45/2/83 48/2/83 44/2/83
f 46/2/84 48/2/84 45/2/84
f 43/2/84 46/2/84 45/2/84
f 17/2/85 49/2/85 46/2/85
f 13/2/86 17/2/86 46/2/86
f 50/2/87 17/2/87 13/2/87
f 47/2/87 50/2/87 13/2/87
f 51/2/25 50/2/25 47/2/25
f 48/2/88 51/2/88 47/2/88
f 49/2/89 51/2/89 48/2/89
f 46/2/89 49/2/89 48/2/89
f 21/2/90 52/2/90 49/2/90
f 17/2/91 21/2/91 49/2/91
f 53/2/40 21/2/40 17/2/40
f 50/2/40 53/2/40 17/2/40
f 54/2/92 53/2/92 50/2/92
f 51/2/93 54/2/93 50/2/93
f 52/2/94 54/2/94 51/2/94
f 49/2/94 52/2/94 51/2/94
f 25/2/95 55/2/95 52/2/95
f 21/2/96 25/2/96 52/2/96
f 56/2/48 25/2/48 21/2/48
f 53/2/48 56/2/48 21/2/48
f 57/2/97 56/2/97 53/2/97
f 54/2/98 57/2/98 53/2/98
f 55/2/99 57/2/99 54/2/99
f 52/2/99 55/2/99 54/2/99
f 29/2/100 58/2/100 55/2/100
f 25/2/101 29/2/101 55/2/101
f 59/2/102 29/2/102 25/2/102
f 56/2/102 59/2/102 25/2/102
f 60/2/103 59/2/103 56/2/103
f 57/2/104 60/2/104 56/2/104
f 58/2/105 60/2/105 57/2/105
f 55/2/105 58/2/105 57/2/105
f 33/2/106 61/2/106 58/2/106
f 29/2/107 33/2/107 58/2/107
f 62/2/108 33/2/108 29/2/108
f 59/2/108 62/2/108 29/2/108
f 63/2/109 62/2/109 59/2/109
f 60/2/110 63/2/110 59/2/110
f 61/2/111 63/2/111 60/2/111
f 58/2/111 61/2/111 60/2/111
f 40/2/112 1/2/112 38/2/112
f 42/2/112 40/2/112 38/2/112
f 33/2/113 62/2/113 61/2/113
f 62/2/113 63/2/113 61/2/113
f 64/2/114 3/2/114 4/2/114
f 65/2/115 64/2/115 4/2/115
f 66/2/116 64/2/116 65/2/116
f 67/2/116 66/2/116 65/2/116
f 68/2/117 66/2/117 67/2/117
f 69/2/118 68/2/118 67/2/118
f 3/2/4 68/2/4 69/2/4
f 4/2/4 3/2/4 69/2/4
f 70/2/119 10/2/119 3/2/119
f 64/2/120 70/2/120 3/2/120
f 71/2/121 70/2/121 64/2/121
f 66/2/122 71/2/122 64/2/122
f 72/2/123 71/2/123 66/2/123
f 68/2/124 72/2/124 66/2/124
f 10/2/125 72/2/125 68/2/125
f 3/2/126 10/2/126 68/2/126
f 73/2/127 14/2/127 10/2/127
f 70/2/128 73/2/128 10/2/128
f 74/2/129 73/2/129 70/2/129
f 71/2/129 74/2/129 70/2/129
f 75/2/130 74/2/130 71/2/130
f 72/2/131 75/2/131 71/2/131
f 14/2/132 75/2/132 72/2/132
f 10/2/132 14/2/132 72/2/132
f 76/2/133 18/2/133 14/2/133
f 73/2/134 76/2/134 14/2/134
f 77/2/135 76/2/135 73/2/135
f 74/2/135 77/2/135 73/2/135
f 78/2/136 77/2/136 74/2/136
f 75/2/137 78/2/137 74/2/137
f 18/2/28 78/2/28 75/2/28
f 14/2/28 18/2/28 75/2/28
f 79/2/138 22/2/138 18/2/138
f 76/2/139 79/2/139 18/2/139
f 80/2/140 79/2/140 76/2/140
f 77/2/140 80/2/140 76/2/140
f 81/2/141 80/2/141 77/2/141
f 78/2/34 81/2/34 77/2/34
f 22/2/36 81/2/36 78/2/36
f 18/2/36 22/2/36 78/2/36
f 82/2/142 26/2/142 22/2/142
f 79/2/143 82/2/143 22/2/143
f 83/2/144 82/2/144 79/2/144
f 80/2/144 83/2/144 79/2/144
f 84/2/145 83/2/145 80/2/145
f 81/2/146 84/2/146 80/2/146
f 26/2/147 84/2/147 81/2/147
f 22/2/147 26/2/147 81/2/147
f 85/2/148 30/2/148 26/2/148
f 82/2/149 85/2/149 26/2/149
f 86/2/150 85/2/150 82/2/150
f 83/2/150 86/2/150 82/2/150
f 87/2/151 86/2/151 83/2/151
f 84/2/152 87/2/152 83/2/152
f 30/2/153 87/2/153 84/2/153
f 26/2/153 30/2/153 84/2/153
f 88/2/154 34/2/154 30/2/154
f 85/2/155 88/2/155 30/2/155
f 89/2/156 88/2/156 85/2/156
f 86/2/156 89/2/156 85/2/156
f 90/2/157 89/2/157 86/2/157
f 87/2/158 90/2/158 86/2/158
f 34/2/60 90/2/60 87/2/60
f 30/2/60 34/2/60 87/2/60
f 67/2/112 65/2/112 4/2/112
f 69/2/112 67/2/112 4/2/112
f 88/2/113 89/2/113 34/2/113
f 89/2/113 90/2/113 34/2/113
f 91/3/159 92/3/159 93/3/159
f 94/3/160 91/3/160 93/3/160
f 95/3/161 91/3/161 94/3/161
f 96/3/161 95/3/161 94/3/161
f 97/3/162 95/3/162 96/3/162
f 98/3/163 97/3/163 96/3/163
f 92/3/164 97/3/164 98/3/164
f 93/3/164 92/3/164 98/3/164
f 99/3/165 100/3/165 92/3/165
f 91/3/166 99/3/166 92/3/166
f 101/3/167 99/3/167 91/3/167
f 95/3/168 101/3/168 91/3/168
f 102/3/169 101/3/169 95/3/169
f 97/3/170 102/3/170 95/3/170
f 100/3/171 102/3/171 97/3/171
f 92/3/172 100/3/172 97/3/172
f 103/3/173 104/3/173 100/3/173
f 99/3/174 103/3/174 100/3/174
f 105/3/129 103/3/129 99/3/129
f 101/3/129 105/3/129 99/3/129
f 106/3/175 105/3/175 101/3/175
f 102/3/176 106/3/176 101/3/176
f 104/3/177 106/3/177 102/3/177
f 100/3/177 104/3/177 102/3/177
f 107/3/178 108/3/178 104/3/178
f 103/3/179 107/3/179 104/3/179
f 109/3/180 107/3/180 103/3/180
f 105/3/180 109/3/180 103/3/180
f 110/3/181 109/3/181 105/3/181
f 106/3/182 110/3/182 105/3/182
f 108/3/183 110/3/183 106/3/183
f 104/3/183 108/3/183 106/3/183
f 111/3/184 112/3/184 108/3/184
f 107/3/185 111/3/185 108/3/185
f 113/3/186 111/3/186 107/3/186
f 109/3/186 113/3/186 107/3/186
f 114/3/187 113/3/187 109/3/187
f 110/3/188 114/3/188 109/3/188
f 112/3/189 114/3/189 110/3/189
f 108/3/189 112/3/189 110/3/189
f 115/3/190 116/3/190 112/3/190
f 111/3/191 115/3/191 112/3/191
f 117/3/192 115/3/192 111/3/192
f 113/3/192 117/3/192 111/3/192
f 118/3/193 117/3/193 113/3/193
f 114/3/194 118/3/194 113/3/194
f 116/3/44 118/3/44 114/3/44
f 112/3/44 116/3/44 114/3/44
f 119/3/195 120/3/195 116/3/195
f 115/3/196 119/3/196 116/3/196
f 121/3/197 119/3/197 115/3/197
f 117/3/197 121/3/197 115/3/197
f 122/3/198 121/3/198 117/3/198
f 118/3/199 122/3/199 117/3/199
f 120/3/200 122/3/200 118/3/200
f 116/3/200 120/3/200 118/3/200
f 123/3/201 124/3/201 120/3/201
f 119/3/202 123/3/202 120/3/202
f 125/3/63 123/3/63 119/3/63
f 121/3/63 125/3/63 119/3/63
f 126/3/203 125/3/203 121/3/203
f 122/3/204 126/3/204 121/3/204
f 124/3/205 126/3/205 122/3/205
f 120/3/205 124/3/205 122/3/205
f 96/3/112 94/3/112 93/3/112
f 98/3/112 96/3/112 93/3/112
f 123/3/113 125/3/113 124/3/113
f 125/3/113 126/3/113 124/3/113
f 127/3/206 128/3/206 129/3/206
f 130/3/207 127/3/207 129/3/207
f 131/3/208 127/3/208 130/3/208
f 132/3/208 131/3/208 130/3/208
f 133/3/209 131/3/209 132/3/209
f 134/3/210 133/3/210 132/3/210
f 128/3/4 133/3/4 134/3/4
f 129/3/4 128/3/4 134/3/4
f 135/3/211 136/3/211 128/3/211
f 127/3/212 135/3/212 128/3/212
f 137/3/16 135/3/16 127/3/16
f 131/3/213 137/3/213 127/3/213
f 138/3/214 137/3/214 131/3/214
f 133/3/215 138/3/215 131/3/215
f 136/3/79 138/3/79 133/3/79
f 128/3/216 136/3/216 133/3/216
f 139/3/217 140/3/217 136/3/217
f 135/3/218 139/3/218 136/3/218
f 141/3/219 139/3/219 135/3/219
f 137/3/219 141/3/219 135/3/219
f 142/3/220 141/3/220 137/3/220
f 138/3/221 142/3/221 137/3/221
f 140/3/222 142/3/222 138/3/222
f 136/3/222 140/3/222 138/3/222
f 143/3/223 144/3/223 140/3/223
f 139/3/224 143/3/224 140/3/224
f 145/3/225 143/3/225 139/3/225
f 141/3/225 145/3/225 139/3/225
f 146/3/226 145/3/226 141/3/226
f 142/3/227 146/3/227 141/3/227
f 144/3/228 146/3/228 142/3/228
f 140/3/228 144/3/228 142/3/228
f 147/3/229 148/3/229 144/3/229
f 143/3/230 147/3/230 144/3/230
f 149/3/231 147/3/231 143/3/231
f 145/3/231 149/3/231 143/3/231
f 150/3/232 149/3/232 145/3/232
f 146/3/233 150/3/233 145/3/233
f 148/3/36 150/3/36 146/3/36
f 144/3/36 148/3/36 146/3/36
f 151/3/234 152/3/234 148/3/234
f 147/3/235 151/3/235 148/3/235
f 153/3/236 151/3/236 147/3/236
f 149/3/236 153/3/236 147/3/236
f 154/3/237 153/3/237 149/3/237
f 150/3/238 154/3/238 149/3/238
f 152/3/43 154/3/43 150/3/43
f 148/3/43 152/3/43 150/3/43
f 155/3/239 156/3/239 152/3/239
f 151/3/240 155/3/240 152/3/240
f 157/3/241 155/3/241 151/3/241
f 153/3/241 157/3/241 151/3/241
f 158/3/242 157/3/242 153/3/242
f 154/3/243 158/3/243 153/3/243
f 156/3/244 158/3/244 154/3/244
f 152/3/244 156/3/244 154/3/244
f 159/3/245 160/3/245 156/3/245
f 155/3/246 159/3/246 156/3/246
f 161/3/247 159/3/247 155/3/247
f 157/3/247 161/3/247 155/3/247
f 162/3/248 161/3/248 157/3/248
f 158/3/249 162/3/249 157/3/249
f 160/3/250 162/3/250 158/3/250
f 156/3/250 160/3/250 158/3/250
f 132/3/112 130/3/112 129/3/112
f 134/3/112 132/3/112 129/3/112
f 159/3/113 161/3/113 160/3/113
f 161/3/113 162/3/113 160/3/113
f 163/4/251 164/4/251 165/4/251
f 163/4/252 165/4/252 166/4/252
f 166/4/253 165/4/253 167/4/253
f 166/4/254 167/4/254 168/4/254
f 168/4/255 167/4/255 169/4/255
f 168/4/256 169/4/256 170/4/256
f 170/4/257 169/4/257 164/4/257
f 170/4/258 164/4/258 163/4/258
f 163/4/259 166/4/259 168/4/259
f 163/4/259 168/4/259 170/4/259
f 164/4/260 167/4/260 165/4/260
f 164/4/260 169/4/260 167/4/260
f 171/4/261 172/4/261 173/4/261
f 171/4/262 173/4/262 174/4/262
f 174/4/263 173/4/263 175/4/263
f 174/4/183 175/4/183 176/4/183
f 176/4/264 175/4/264 177/4/264
f 176/4/265 177/4/265 178/4/265
f 178/4/266 177/4/266 172/4/266
f 178/4/267 172/4/267 171/4/267
f 171/4/268 174/4/268 176/4/268
f 171/4/268 176/4/268 178/4/268
f 172/4/269 175/4/269 173/4/269
f 172/4/269 177/4/269 175/4/269
f 179/4/270 180/4/270 181/4/270
f 179/4/271 181/4/271 182/4/271
f 182/4/272 181/4/272 183/4/272
f 182/4/273 183/4/273 184/4/273
f 184/4/274 183/4/274 185/4/274
f 184/4/275 185/4/275 186/4/275
f 186/4/48 185/4/48 180/4/48
f 186/4/276 180/4/276 179/4/276
f 179/4/277 182/4/277 184/4/277
f 179/4/277 184/4/277 186/4/277
f 180/4/278 183/4/278 181/4/278
f 180/4/278 185/4/278 183/4/278
f 187/4/279 188/4/279 189/4/279
f 187/4/280 189/4/280 190/4/280
f 190/4/281 189/4/281 191/4/281
f 190/4/250 191/4/250 192/4/250
f 192/4/282 191/4/282 193/4/282
f 192/4/283 193/4/283 194/4/283
f 194/4/284 193/4/284 188/4/284
f 194/4/247 188/4/247 187/4/247
f 187/4/285 190/4/285 192/4/285
f 187/4/285 192/4/285 194/4/285
f 188/4/66 191/4/66 189/4/66
f 188/4/66 193/4/66 191/4/66
