# CargoTrackLift2DownBackward - generated by Tools/generate_meshes.py, do not hand-edit
# Regenerate with: python Tools/generate_meshes.py
o CargoTrackLift2DownBackward
v 7.05000 -3.08667 0.20000
v 7.05000 -3.08667 -7.20000
v 10.00000 -0.42000 -7.20000
v 10.00000 -0.42000 0.20000
v 7.05000 -2.66667 0.20000
v 10.00000 0.00000 0.20000
v 7.05000 -2.66667 -7.20000
v 10.00000 0.00000 -7.20000
v 4.10000 -5.75333 0.20000
v 4.10000 -5.75333 -7.20000
v 4.10000 -5.33333 0.20000
v 4.10000 -5.33333 -7.20000
v 1.15000 -8.42000 0.20000
v 1.15000 -8.42000 -7.20000
v 1.15000 -8.00000 0.20000
v 1.15000 -8.00000 -7.20000
v -1.80000 -11.08667 0.20000
v -1.80000 -11.08667 -7.20000
v -1.80000 -10.66667 0.20000
v -1.80000 -10.66667 -7.20000
v -1.71322 -13.75333 0.18019
v -4.92396 -13.75333 -6.48698
v -1.71322 -13.33333 0.18019
v -4.92396 -13.33333 -6.48698
v -1.64363 -16.42000 0.12470
v -7.42919 -16.42000 -4.48913
v -1.64363 -16.00000 0.12470
v -7.42919 -16.00000 -4.48913
v -1.60501 -19.08667 0.04450
v -8.81948 -19.08667 -1.60215
v -1.60501 -18.66667 0.04450
v -8.81948 -18.66667 -1.60215
v -1.60501 -21.75333 -0.04450
v -8.81948 -21.75333 1.60215
v -1.60501 -21.33333 -0.04450
v -8.81948 -21.33333 1.60215
v -1.64363 -24.42000 -0.12470
v -7.42919 -24.42000 4.48913
v -1.64363 -24.00000 -0.12470
v -7.42919 -24.00000 4.48913
v -1.71322 -27.08667 -0.18019
v -4.92396 -27.08667 6.48698
v -1.71322 -26.66667 -0.18019
v -4.92396 -26.66667 6.48698
v -1.80000 -29.75333 -0.20000
v -1.80000 -29.75333 7.20000
v -1.80000 -29.33333 -0.20000
v -1.80000 -29.33333 7.20000
v 1.15000 -32.42000 -0.20000
v 1.15000 -32.42000 7.20000
v 1.15000 -32.00000 -0.20000
v 1.15000 -32.00000 7.20000
v 4.10000 -35.08667 -0.20000
v 4.10000 -35.08667 7.20000
v 4.10000 -34.66667 -0.20000
v 4.10000 -34.66667 7.20000
v 7.05000 -37.75333 -0.20000
v 7.05000 -37.75333 7.20000
v 7.05000 -37.33333 -0.20000
v 7.05000 -37.33333 7.20000
v 10.00000 -40.42000 -0.20000
v 10.00000 -40.42000 7.20000
v 10.00000 -40.00000 -0.20000
v 10.00000 -40.00000 7.20000
v 7.05000 -3.08667 -7.95000
v 10.00000 -0.42000 -7.95000
v 7.05000 -1.51667 -7.95000
v 10.00000 1.15000 -7.95000
v 7.05000 -1.51667 -7.20000
v 10.00000 1.15000 -7.20000
v 4.10000 -5.75333 -7.95000
v 4.10000 -4.18333 -7.95000
v 4.10000 -4.18333 -7.20000
v 1.15000 -8.42000 -7.95000
v 1.15000 -6.85000 -7.95000
v 1.15000 -6.85000 -7.20000
v -1.80000 -11.08667 -7.95000
v -1.80000 -9.51667 -7.95000
v -1.80000 -9.51667 -7.20000
v -5.24938 -13.75333 -7.16270
v -5.24938 -12.18333 -7.16270
v -4.92396 -12.18333 -6.48698
v -8.01556 -16.42000 -4.95674
v -8.01556 -14.85000 -4.95674
v -7.42919 -14.85000 -4.48913
v -9.55068 -19.08667 -1.76904
v -9.55068 -17.51667 -1.76904
v -8.81948 -17.51667 -1.60215
v -9.55068 -21.75333 1.76904
v -9.55068 -20.18333 1.76904
v -8.81948 -20.18333 1.60215
v -8.01556 -24.42000 4.95674
v -8.01556 -22.85000 4.95674
v -7.42919 -22.85000 4.48913
v -5.24938 -27.08667 7.16270
v -5.24938 -25.51667 7.16270
v -4.92396 -25.51667 6.48698
v -1.80000 -29.75333 7.95000
v -1.80000 -28.18333 7.95000
v -1.80000 -28.18333 7.20000
v 1.15000 -32.42000 7.95000
v 1.15000 -30.85000 7.95000
v 1.15000 -30.85000 7.20000
v 4.10000 -35.08667 7.95000
v 4.10000 -33.51667 7.95000
v 4.10000 -33.51667 7.20000
v 7.05000 -37.75333 7.95000
v 7.05000 -36.18333 7.95000
v 7.05000 -36.18333 7.20000
v 10.00000 -40.42000 7.95000
v 10.00000 -38.85000 7.95000
v 10.00000 -38.85000 7.20000
v 7.05000 -3.08667 0.95000
v 10.00000 -0.42000 0.95000
v 7.05000 -1.51667 0.95000
v 10.00000 1.15000 0.95000
v 7.05000 -1.51667 0.20000
v 10.00000 1.15000 0.20000
v 4.10000 -5.75333 0.95000
v 4.10000 -4.18333 0.95000
v 4.10000 -4.18333 0.20000
v 1.15000 -8.42000 0.95000
v 1.15000 -6.85000 0.95000
v 1.15000 -6.85000 0.20000
v -1.80000 -11.08667 0.95000
v -1.80000 -9.51667 0.95000
v -1.80000 -9.51667 0.20000
v -1.38781 -13.75333 0.85592
v -1.38781 -12.18333 0.85592
v -1.71322 -12.18333 0.18019
v -1.05726 -16.42000 0.59232
v -1.05726 -14.85000 0.59232
v -1.64363 -14.85000 0.12470
v -0.87382 -19.08667 0.21139
v -0.87382 -17.51667 0.21139
v -1.60501 -17.51667 0.04450
v -0.87382 -21.75333 -0.21139
v -0.87382 -20.18333 -0.21139
v -1.60501 -20.18333 -0.04450
v -1.05726 -24.42000 -0.59232
v -1.05726 -22.85000 -0.59232
v -1.64363 -22.85000 -0.12470
v -1.38781 -27.08667 -0.85592
v -1.38781 -25.51667 -0.85592
v -1.71322 -25.51667 -0.18019
v -1.80000 -29.75333 -0.95000
v -1.80000 -28.18333 -0.95000
v -1.80000 -28.18333 -0.20000
v 1.15000 -32.42000 -0.95000
v 1.15000 -30.85000 -0.95000
v 1.15000 -30.85000 -0.20000
v 4.10000 -35.08667 -0.95000
v 4.10000 -33.51667 -0.95000
v 4.10000 -33.51667 -0.20000
v 7.05000 -37.75333 -0.95000
v 7.05000 -36.18333 -0.95000
v 7.05000 -36.18333 -0.20000
v 10.00000 -40.42000 -0.95000
v 10.00000 -38.85000 -0.95000
v 10.00000 -38.85000 -0.20000
v 7.05000 -1.56667 -8.10000
v 7.05000 -1.56667 -7.05000
v 10.00000 1.10000 -7.05000
v 10.00000 1.10000 -8.10000
v 7.05000 -1.24667 -8.10000
v 10.00000 1.42000 -8.10000
v 7.05000 -1.24667 -7.05000
v 10.00000 1.42000 -7.05000
v 4.10000 -4.23333 -8.10000
v 4.10000 -4.23333 -7.05000
v 4.10000 -3.91333 -8.10000
v 4.10000 -3.91333 -7.05000
v 1.15000 -6.90000 -8.10000
v 1.15000 -6.90000 -7.05000
v 1.15000 -6.58000 -8.10000
v 1.15000 -6.58000 -7.05000
v -1.80000 -9.56667 -8.10000
v -1.80000 -9.56667 -7.05000
v -1.80000 -9.24667 -8.10000
v -1.80000 -9.24667 -7.05000
v -5.31446 -12.23333 -7.29785
v -4.85888 -12.23333 -6.35183
v -5.31446 -11.91333 -7.29785
v -4.85888 -11.91333 -6.35183
v -8.13284 -14.90000 -5.05027
v -7.31191 -14.90000 -4.39560
v -8.13284 -14.58000 -5.05027
v -7.31191 -14.58000 -4.39560
v -9.69692 -17.56667 -1.80242
v -8.67324 -17.56667 -1.56877
v -9.69692 -17.24667 -1.80242
v -8.67324 -17.24667 -1.56877
v -9.69692 -20.23333 1.80242
v -8.67324 -20.23333 1.56877
v -9.69692 -19.91333 1.80242
v -8.67324 -19.91333 1.56877
v -8.13284 -22.90000 5.05027
v -7.31191 -22.90000 4.39560
v -8.13284 -22.58000 5.05027
v -7.31191 -22.58000 4.39560
v -5.31446 -25.56667 7.29785
v -4.85888 -25.56667 6.35183
v -5.31446 -25.24667 7.29785
v -4.85888 -25.24667 6.35183
v -1.80000 -28.23333 8.10000
v -1.80000 -28.23333 7.05000
v -1.80000 -27.91333 8.10000
v -1.80000 -27.91333 7.05000
v 1.15000 -30.90000 8.10000
v 1.15000 -30.90000 7.05000
v 1.15000 -30.58000 8.10000
v 1.15000 -30.58000 7.05000
v 4.10000 -33.56667 8.10000
v 4.10000 -33.56667 7.05000
v 4.10000 -33.24667 8.10000
v 4.10000 -33.24667 7.05000
v 7.05000 -36.23333 8.10000
v 7.05000 -36.23333 7.05000
v 7.05000 -35.91333 8.10000
v 7.05000 -35.91333 7.05000
v 10.00000 -38.90000 8.10000
v 10.00000 -38.90000 7.05000
v 10.00000 -38.58000 8.10000
v 10.00000 -38.58000 7.05000
v 7.05000 -1.56667 1.10000
v 7.05000 -1.56667 0.05000
v 10.00000 1.10000 0.05000
v 10.00000 1.10000 1.10000
v 7.05000 -1.24667 1.10000
v 10.00000 1.42000 1.10000
v 7.05000 -1.24667 0.05000
v 10.00000 1.42000 0.05000
v 4.10000 -4.23333 1.10000
v 4.10000 -4.23333 0.05000
v 4.10000 -3.91333 1.10000
v 4.10000 -3.91333 0.05000
v 1.15000 -6.90000 1.10000
v 1.15000 -6.90000 0.05000
v 1.15000 -6.58000 1.10000
v 1.15000 -6.58000 0.05000
v -1.80000 -9.56667 1.10000
v -1.80000 -9.56667 0.05000
v -1.80000 -9.24667 1.10000
v -1.80000 -9.24667 0.05000
v -1.32273 -12.23333 0.99107
v -1.77831 -12.23333 0.04505
v -1.32273 -11.91333 0.99107
v -1.77831 -11.91333 0.04505
v -0.93999 -14.90000 0.68584
v -1.76091 -14.90000 0.03117
v -0.93999 -14.58000 0.68584
v -1.76091 -14.58000 0.03117
v -0.72758 -17.56667 0.24477
v -1.75125 -17.56667 0.01113
v -0.72758 -17.24667 0.24477
v -1.75125 -17.24667 0.01113
v -0.72758 -20.23333 -0.24477
v -1.75125 -20.23333 -0.01113
v -0.72758 -19.91333 -0.24477
v -1.75125 -19.91333 -0.01113
v -0.93999 -22.90000 -0.68584
v -1.76091 -22.90000 -0.03117
v -0.93999 -22.58000 -0.68584
v -1.76091 -22.58000 -0.03117
v -1.32273 -25.56667 -0.99107
v -1.77831 -25.56667 -0.04505
v -1.32273 -25.24667 -0.99107
v -1.77831 -25.24667 -0.04505
v -1.80000 -28.23333 -1.10000
v -1.80000 -28.23333 -0.05000
v -1.80000 -27.91333 -1.10000
v -1.80000 -27.91333 -0.05000
v 1.15000 -30.90000 -1.10000
v 1.15000 -30.90000 -0.05000
v 1.15000 -30.58000 -1.10000
v 1.15000 -30.58000 -0.05000
v 4.10000 -33.56667 -1.10000
v 4.10000 -33.56667 -0.05000
v 4.10000 -33.24667 -1.10000
v 4.10000 -33.24667 -0.05000
v 7.05000 -36.23333 -1.10000
v 7.05000 -36.23333 -0.05000
v 7.05000 -35.91333 -1.10000
v 7.05000 -35.91333 -0.05000
v 10.00000 -38.90000 -1.10000
v 10.00000 -38.90000 -0.05000
v 10.00000 -38.58000 -1.10000
v 10.00000 -38.58000 -0.05000
v 4.10000 -5.77333 -0.10000
v 4.10000 -5.77333 -6.90000
v 7.05000 -3.10667 -6.90000
v 7.05000 -3.10667 -0.10000
v 4.10000 -5.51333 -0.10000
v 7.05000 -2.84667 -0.10000
v 4.10000 -5.51333 -6.90000
v 7.05000 -2.84667 -6.90000
v -1.87818 -16.44000 -0.06235
v -7.19464 -16.44000 -4.30208
v -4.79380 -13.77333 -6.21669
v -1.84339 -13.77333 -0.09010
v -1.87818 -16.18000 -0.06235
v -1.84339 -13.51333 -0.09010
v -7.19464 -16.18000 -4.30208
v -4.79380 -13.51333 -6.21669
v -1.84339 -27.10667 0.09010
v -4.79380 -27.10667 6.21669
v -7.19464 -24.44000 4.30208
v -1.87818 -24.44000 0.06235
v -1.84339 -26.84667 0.09010
v -1.87818 -24.18000 0.06235
v -4.79380 -26.84667 6.21669
v -7.19464 -24.18000 4.30208
v 7.05000 -37.77333 0.10000
v 7.05000 -37.77333 6.90000
v 4.10000 -35.10667 6.90000
v 4.10000 -35.10667 0.10000
v 7.05000 -37.51333 0.10000
v 4.10000 -34.84667 0.10000
v 7.05000 -37.51333 6.90000
v 4.10000 -34.84667 6.90000
vt 0.07000 0.01000
vt 0.06000 0.01000
vt 0.02000 0.01000
vt 0.08000 0.01000
vn 0.67058 -0.74183 0.00000
vn -0.00000 0.00000 1.00000
vn -0.67058 0.74183 0.00000
vn 0.00000 0.00000 -1.00000
vn 0.67058 -0.74183 0.00000
vn -0.67058 0.74183 0.00000
vn 0.67058 -0.74183 0.00000
vn -0.67058 0.74183 0.00000
vn 0.58495 -0.76058 -0.28170
vn 0.99947 0.03252 0.00000
vn -0.22252 -0.00000 -0.97493
vn -0.90049 -0.03252 0.43365
vn -0.64924 0.76058 0.00000
vn -0.22252 0.00000 -0.97493
vn 0.40480 -0.76058 -0.50760
vn 0.90049 0.03252 -0.43365
vn -0.62349 -0.00000 -0.78183
vn -0.62349 -0.00000 -0.78183
vn -0.62316 -0.03252 0.78142
vn -0.58495 0.76058 0.28170
vn -0.62349 0.00000 -0.78183
vn -0.62349 0.00000 -0.78183
vn 0.14447 -0.76058 -0.63297
vn 0.62316 0.03252 -0.78142
vn -0.90097 -0.00000 -0.43388
vn -0.22240 -0.03252 0.97441
vn -0.40480 0.76058 0.50760
vn -0.90097 0.00000 -0.43388
vn -0.14447 -0.76058 -0.63297
vn 0.22240 0.03252 -0.97441
vn -1.00000 0.00000 0.00000
vn 0.22240 -0.03252 0.97441
vn -0.14447 0.76058 0.63297
vn -0.40480 -0.76058 -0.50760
vn -0.22240 0.03252 -0.97441
vn -0.90097 0.00000 0.43388
vn 0.62316 -0.03252 0.78142
vn 0.14447 0.76058 0.63297
vn -0.90097 0.00000 0.43388
vn -0.58495 -0.76058 -0.28170
vn -0.62316 0.03252 -0.78142
vn -0.62349 0.00000 0.78183
vn 0.90049 -0.03252 0.43365
vn 0.40480 0.76058 0.50760
vn -0.62349 0.00000 0.78183
vn -0.64924 -0.76058 -0.00000
vn -0.90049 0.03252 -0.43365
vn -0.22252 0.00000 0.97493
vn 0.99947 -0.03252 0.00000
vn 0.58495 0.76058 0.28170
vn -0.22252 0.00000 0.97493
vn -0.67058 -0.74183 -0.00000
vn 0.67058 0.74183 0.00000
vn -0.67058 -0.74183 -0.00000
vn -0.67058 -0.74183 -0.00000
vn 0.67058 0.74183 0.00000
vn 0.67058 0.74183 0.00000
vn -0.67058 -0.74183 -0.00000
vn 0.67058 0.74183 0.00000
vn -0.67058 -0.74183 0.00000
vn -0.67058 -0.74183 -0.00000
vn 0.67058 0.74183 0.00000
vn 0.67058 0.74183 0.00000
vn 1.00000 0.00000 0.00000
vn -0.67058 0.74183 0.00000
vn 0.67058 -0.74183 0.00000
vn -0.67058 0.74183 0.00000
vn 0.67058 -0.74183 0.00000
vn -0.58495 0.76058 0.28170
vn -0.61163 0.79115 0.00000
vn 0.22252 0.00000 0.97493
vn 0.55106 -0.79115 -0.26537
vn 0.64924 -0.76058 0.00000
vn -0.22252 0.00000 -0.97493
vn -0.40480 0.76058 0.50760
vn -0.55106 0.79115 0.26537
vn 0.62349 0.00000 0.78183
vn 0.62349 0.00000 0.78183
vn 0.38134 -0.79115 -0.47819
vn 0.58495 -0.76058 -0.28170
vn -0.62349 0.00000 -0.78183
vn -0.14447 0.76058 0.63297
vn -0.38134 0.79115 0.47819
vn 0.90097 0.00000 0.43388
vn 0.90097 0.00000 0.43388
vn 0.13610 -0.79115 -0.59629
vn 0.40480 -0.76058 -0.50760
vn -0.90097 0.00000 -0.43388
vn -0.90097 0.00000 -0.43388
vn 0.14447 0.76058 0.63297
vn -0.13610 0.79115 0.59629
vn -0.13610 -0.79115 -0.59629
vn 0.14447 -0.76058 -0.63297
vn 0.40480 0.76058 0.50760
vn 0.13610 0.79115 0.59629
vn 0.90097 0.00000 -0.43388
vn -0.38134 -0.79115 -0.47819
vn -0.14447 -0.76058 -0.63297
vn -0.90097 0.00000 0.43388
vn 0.58495 0.76058 0.28170
vn 0.38134 0.79115 0.47819
vn 0.62349 0.00000 -0.78183
vn -0.55106 -0.79115 -0.26537
vn -0.40480 -0.76058 -0.50760
vn 0.64924 0.76058 0.00000
vn 0.55106 0.79115 0.26537
vn 0.22252 0.00000 -0.97493
vn -0.61163 -0.79115 0.00000
vn -0.58495 -0.76058 -0.28170
vn -0.22252 0.00000 0.97493
vn 0.67058 0.74183 0.00000
vn -0.67058 -0.74183 0.00000
vn 0.67058 0.74183 0.00000
vn -0.67058 -0.74183 0.00000
vn 0.67058 0.74183 0.00000
vn -0.67058 -0.74183 0.00000
vn 0.67058 0.74183 0.00000
vn 0.67058 -0.74183 0.00000
vn -0.67058 0.74183 0.00000
vn 0.90049 0.03252 -0.43365
vn 0.98826 0.15276 0.00000
vn -0.22252 -0.00000 -0.97493
vn -0.89039 -0.15276 0.42879
vn -0.99947 -0.03252 0.00000
vn 0.22252 -0.00000 0.97493
vn 0.62316 0.03252 -0.78142
vn 0.89039 0.15276 -0.42879
vn -0.62349 -0.00000 -0.78183
vn -0.62349 -0.00000 -0.78183
vn -0.61617 -0.15276 0.77266
vn -0.90049 -0.03252 0.43365
vn 0.62349 -0.00000 0.78183
vn 0.22240 0.03252 -0.97441
vn 0.61617 0.15276 -0.77266
vn -0.90097 -0.00000 -0.43388
vn -0.90097 -0.00000 -0.43388
vn -0.21991 -0.15276 0.96349
vn -0.62316 -0.03252 0.78142
vn 0.90097 -0.00000 0.43388
vn 0.90097 -0.00000 0.43388
vn -0.22240 0.03252 -0.97441
vn 0.21991 0.15276 -0.96349
vn 0.21991 -0.15276 0.96349
vn -0.22240 -0.03252 0.97441
vn -0.62316 0.03252 -0.78142
vn -0.21991 0.15276 -0.96349
vn -0.90097 0.00000 0.43388
vn 0.61617 -0.15276 0.77266
vn 0.22240 -0.03252 0.97441
vn 0.90097 0.00000 -0.43388
vn -0.90049 0.03252 -0.43365
vn -0.61617 0.15276 -0.77266
vn -0.62349 0.00000 0.78183
vn 0.89039 -0.15276 0.42879
vn 0.62316 -0.03252 0.78142
vn 0.62349 0.00000 -0.78183
vn -0.99947 0.03252 0.00000
vn -0.89039 0.15276 -0.42879
vn -0.22252 0.00000 0.97493
vn 0.98826 -0.15276 0.00000
vn 0.90049 -0.03252 0.43365
vn 0.22252 0.00000 -0.97493
vn -0.67058 -0.74183 0.00000
vn 0.67058 0.74183 0.00000
vn -0.67058 -0.74183 0.00000
vn 0.67058 -0.74183 0.00000
vn -0.59205 0.75378 0.28512
vn -0.60446 0.79663 0.00000
vn 0.22252 0.00000 0.97493
vn 0.54460 -0.79663 -0.26227
vn 0.65713 -0.75378 0.00000
vn -0.40971 0.75378 0.51376
vn -0.54460 0.79663 0.26227
vn 0.62349 0.00000 0.78183
vn 0.37688 -0.79663 -0.47259
vn 0.59205 -0.75378 -0.28512
vn -0.62349 0.00000 -0.78183
vn -0.14622 0.75378 0.64065
vn -0.37688 0.79663 0.47259
vn 0.90097 0.00000 0.43388
vn 0.90097 0.00000 0.43388
vn 0.13451 -0.79663 -0.58931
vn 0.40971 -0.75378 -0.51376
vn -0.90097 0.00000 -0.43388
vn -0.90097 0.00000 -0.43388
vn 0.14622 0.75378 0.64065
vn -0.13451 0.79663 0.58931
vn -0.13451 -0.79663 -0.58931
vn 0.14622 -0.75378 -0.64065
vn 0.40971 0.75378 0.51376
vn 0.13451 0.79663 0.58931
vn 0.90097 0.00000 -0.43388
vn 0.90097 0.00000 -0.43388
vn -0.37688 -0.79663 -0.47259
vn -0.14622 -0.75378 -0.64065
vn -0.90097 0.00000 0.43388
vn -0.90097 0.00000 0.43388
vn 0.59205 0.75378 0.28512
vn 0.37688 0.79663 0.47259
vn 0.62349 0.00000 -0.78183
vn -0.54460 -0.79663 -0.26227
vn -0.40971 -0.75378 -0.51376
vn -0.62349 0.00000 0.78183
vn 0.65713 0.75378 0.00000
vn 0.54460 0.79663 0.26227
vn 0.22252 0.00000 -0.97493
vn 0.22252 0.00000 -0.97493
vn -0.60446 -0.79663 -0.00000
vn -0.59205 -0.75378 -0.28512
vn -0.22252 0.00000 0.97493
vn 0.67058 0.74183 0.00000
vn 0.67058 0.74183 0.00000
vn -0.67058 -0.74183 -0.00000
vn 0.67058 0.74183 0.00000
vn 0.67058 0.74183 0.00000
vn -0.67058 -0.74183 -0.00000
vn -0.67058 -0.74183 -0.00000
vn 0.67058 0.74183 0.00000
vn -0.67058 -0.74183 -0.00000
vn 0.67058 0.74183 0.00000
vn 0.67058 0.74183 0.00000
vn -0.67058 -0.74183 -0.00000
vn -0.67058 0.74183 0.00000
vn 0.90094 0.00814 -0.43387
vn 0.98436 0.17618 0.00000
vn -0.22252 -0.00000 -0.97493
vn -0.88688 -0.17618 0.42710
vn -0.99997 -0.00814 0.00000
vn 0.22252 -0.00000 0.97493
vn 0.62347 0.00814 -0.78181
vn 0.88688 0.17618 -0.42710
vn -0.61374 -0.17618 0.76960
vn -0.90094 -0.00814 0.43387
vn 0.62349 -0.00000 0.78183
vn 0.22251 0.00814 -0.97490
vn 0.61374 0.17618 -0.76960
vn -0.90097 -0.00000 -0.43388
vn -0.90097 -0.00000 -0.43388
vn -0.21904 -0.17618 0.95968
vn -0.62347 -0.00814 0.78181
vn 0.90097 -0.00000 0.43388
vn 0.90097 -0.00000 0.43388
vn -0.22251 0.00814 -0.97490
vn 0.21904 0.17618 -0.95968
vn 0.21904 -0.17618 0.95968
vn -0.22251 -0.00814 0.97490
vn -0.62347 0.00814 -0.78181
vn -0.21904 0.17618 -0.95968
vn -0.90097 0.00000 0.43388
vn 0.61374 -0.17618 0.76960
vn 0.22251 -0.00814 0.97490
vn 0.90097 0.00000 -0.43388
vn 0.90097 0.00000 -0.43388
vn -0.90094 0.00814 -0.43387
vn -0.61374 0.17618 -0.76960
vn -0.62349 0.00000 0.78183
vn 0.88688 -0.17618 0.42710
vn 0.62347 -0.00814 0.78181
vn 0.62349 0.00000 -0.78183
vn -0.99997 0.00814 -0.00000
vn -0.88688 0.17618 -0.42710
vn -0.22252 0.00000 0.97493
vn -0.22252 0.00000 0.97493
vn 0.98436 -0.17618 0.00000
vn 0.90094 -0.00814 0.43387
vn 0.22252 0.00000 -0.97493
vn 0.22252 0.00000 -0.97493
vn -0.67058 -0.74183 -0.00000
vn 0.67058 0.74183 0.00000
vn 0.67058 0.74183 0.00000
vn -0.67058 -0.74183 0.00000
vn -0.67058 -0.74183 -0.00000
vn 0.67058 0.74183 0.00000
vn 0.67058 0.74183 0.00000
vn 0.41470 -0.74673 -0.52002
vn 0.90085 -0.01627 -0.43383
vn 0.62349 0.00000 0.78183
vn 0.62349 0.00000 0.78183
vn -0.62341 0.01627 0.78173
vn -0.59926 0.74673 0.28859
vn -0.62349 0.00000 -0.78183
vn -0.62349 0.00000 -0.78183
vn 0.90097 0.00000 -0.43388
vn -0.62349 0.00000 0.78183
vn -0.59926 -0.74673 -0.28859
vn -0.62341 -0.01627 -0.78173
vn 0.62349 0.00000 -0.78183
vn 0.90085 0.01627 0.43383
vn 0.41470 0.74673 0.52002
vn 0.90097 -0.00000 0.43388
vn -0.67058 -0.74183 0.00000
vn 0.67058 0.74183 0.00000
f 1/1/1 2/1/1 3/1/1
f 4/1/1 1/1/1 3/1/1
f 5/1/2 1/1/2 4/1/2
f 6/1/2 5/1/2 4/1/2
f 7/1/3 5/1/3 6/1/3
f 8/1/3 7/1/3 6/1/3
f 2/1/4 7/1/4 8/1/4
f 3/1/4 2/1/4 8/1/4
f 9/1/1 10/1/1 2/1/1
f 1/1/1 9/1/1 2/1/1
f 11/1/2 9/1/2 1/1/2
f 5/1/2 11/1/2 1/1/2
f 12/1/3 11/1/3 5/1/3
f 7/1/3 12/1/3 5/1/3
f 10/1/4 12/1/4 7/1/4
f 2/1/4 10/1/4 7/1/4
f 13/1/5 14/1/5 10/1/5
f 9/1/5 13/1/5 10/1/5
f 15/1/2 13/1/2 9/1/2
f 11/1/2 15/1/2 9/1/2
f 16/1/6 15/1/6 11/1/6
f 12/1/6 16/1/6 11/1/6
f 14/1/4 16/1/4 12/1/4
f 10/1/4 14/1/4 12/1/4
f 17/1/7 18/1/7 14/1/7
f 13/1/7 17/1/7 14/1/7
f 19/1/2 17/1/2 13/1/2
f 15/1/2 19/1/2 13/1/2
f 20/1/8 19/1/8 15/1/8
f 16/1/8 20/1/8 15/1/8
f 18/1/4 20/1/4 16/1/4
f 14/1/4 18/1/4 16/1/4
f 21/1/9 22/1/9 18/1/9
f 17/1/10 21/1/10 18/1/10
f 23/1/11 21/1/11 17/1/11
f 19/1/11 23/1/11 17/1/11
f 24/1/12 23/1/12 19/1/12
f 20/1/13 24/1/13 19/1/13
f 22/1/14 24/1/14 20/1/14
f 18/1/14 22/1/14 20/1/14
f 25/1/15 26/1/15 22/1/15
f 21/1/16 25/1/16 22/1/16
f 27/1/17 25/1/17 21/1/17
f 23/1/18 27/1/18 21/1/18
f 28/1/19 27/1/19 23/1/19
f 24/1/20 28/1/20 23/1/20
f 26/1/21 28/1/21 24/1/21
f 22/1/22 26/1/22 24/1/22
f 29/1/23 30/1/23 26/1/23
f 25/1/24 29/1/24 26/1/24
f 31/1/25 29/1/25 25/1/25
f 27/1/25 31/1/25 25/1/25
f 32/1/26 31/1/26 27/1/26
f 28/1/27 32/1/27 27/1/27
f 30/1/28 32/1/28 28/1/28
f 26/1/28 30/1/28 28/1/28
f 33/1/29 34/1/29 30/1/29
f 29/1/30 33/1/30 30/1/30
f 35/1/31 33/1/31 29/1/31
f 31/1/31 35/1/31 29/1/31
f 36/1/32 35/1/32 31/1/32
f 32/1/33 36/1/33 31/1/33
f 34/1/31 36/1/31 32/1/31
f 30/1/31 34/1/31 32/1/31
f 37/1/34 38/1/34 34/1/34
f 33/1/35 37/1/35 34/1/35
f 39/1/36 37/1/36 33/1/36
f 35/1/36 39/1/36 33/1/36
f 40/1/37 39/1/37 35/1/37
f 36/1/38 40/1/38 35/1/38
f 38/1/39 40/1/39 36/1/39
f 34/1/39 38/1/39 36/1/39
f 41/1/40 42/1/40 38/1/40
f 37/1/41 41/1/41 38/1/41
f 43/1/42 41/1/42 37/1/42
f 39/1/42 43/1/42 37/1/42
f 44/1/43 43/1/43 39/1/43
f 40/1/44 44/1/44 39/1/44
f 42/1/45 44/1/45 40/1/45
f 38/1/45 42/1/45 40/1/45
f 45/1/46 46/1/46 42/1/46
f 41/1/47 45/1/47 42/1/47
f 47/1/48 45/1/48 41/1/48
f 43/1/48 47/1/48 41/1/48
f 48/1/49 47/1/49 43/1/49
f 44/1/50 48/1/50 43/1/50
f 46/1/51 48/1/51 44/1/51
f 42/1/51 46/1/51 44/1/51
f 49/1/52 50/1/52 46/1/52
f 45/1/52 49/1/52 46/1/52
f 51/1/4 49/1/4 45/1/4
f 47/1/4 51/1/4 45/1/4
f 52/1/53 51/1/53 47/1/53
f 48/1/53 52/1/53 47/1/53
f 50/1/2 52/1/2 48/1/2
f 46/1/2 50/1/2 48/1/2
f 53/1/54 54/1/54 50/1/54
f 49/1/55 53/1/55 50/1/55
f 55/1/4 53/1/4 49/1/4
f 51/1/4 55/1/4 49/1/4
f 56/1/56 55/1/56 51/1/56
f 52/1/57 56/1/57 51/1/57
f 54/1/2 56/1/2 52/1/2
f 50/1/2 54/1/2 52/1/2
f 57/1/58 58/1/58 54/1/58
f 53/1/58 57/1/58 54/1/58
f 59/1/4 57/1/4 53/1/4
f 55/1/4 59/1/4 53/1/4
f 60/1/59 59/1/59 55/1/59
f 56/1/59 60/1/59 55/1/59
f 58/1/2 60/1/2 56/1/2
f 54/1/2 58/1/2 56/1/2
f 61/1/60 62/1/60 58/1/60
f 57/1/61 61/1/61 58/1/61
f 63/1/4 61/1/4 57/1/4
f 59/1/4 63/1/4 57/1/4
f 64/1/62 63/1/62 59/1/62
f 60/1/63 64/1/63 59/1/63
f 62/1/2 64/1/2 60/1/2
f 58/1/2 62/1/2 60/1/2
f 6/1/64 4/1/64 3/1/64
f 8/1/64 6/1/64 3/1/64
f 61/1/64 63/1/64 62/1/64
f 63/1/64 64/1/64 62/1/64
f 65/2/6 2/2/6 3/2/6
f 66/2/6 65/2/6 3/2/6
f 67/2/2 65/2/2 66/2/2
f 68/2/2 67/2/2 66/2/2
f 69/2/5 67/2/5 68/2/5
f 70/2/5 69/2/5 68/2/5
f 2/2/4 69/2/4 70/2/4
f 3/2/4 2/2/4 70/2/4
f 71/2/6 10/2/6 2/2/6
f 65/2/6 71/2/6 2/2/6
f 72/2/2 71/2/2 65/2/2
f 67/2/2 72/2/2 65/2/2
f 73/2/5 72/2/5 67/2/5
f 69/2/5 73/2/5 67/2/5
f 10/2/4 73/2/4 69/2/4
f 2/2/4 10/2/4 69/2/4
f 74/2/65 14/2/65 10/2/65
f 71/2/65 74/2/65 10/2/65
f 75/2/2 74/2/2 71/2/2
f 72/2/2 75/2/2 71/2/2
f 76/2/66 75/2/66 72/2/66
f 73/2/66 76/2/66 72/2/66
f 14/2/4 76/2/4 73/2/4
f 10/2/4 14/2/4 73/2/4
f 77/2/67 18/2/67 14/2/67
f 74/2/67 77/2/67 14/2/67
f 78/2/2 77/2/2 74/2/2
f 75/2/2 78/2/2 74/2/2
f 79/2/68 78/2/68 75/2/68
f 76/2/68 79/2/68 75/2/68
f 18/2/4 79/2/4 76/2/4
f 14/2/4 18/2/4 76/2/4
f 80/2/69 22/2/69 18/2/69
f 77/2/70 80/2/70 18/2/70
f 81/2/71 80/2/71 77/2/71
f 78/2/71 81/2/71 77/2/71
f 82/2/72 81/2/72 78/2/72
f 79/2/73 82/2/73 78/2/73
f 22/2/74 82/2/74 79/2/74
f 18/2/74 22/2/74 79/2/74
f 83/2/75 26/2/75 22/2/75
f 80/2/76 83/2/76 22/2/76
f 84/2/77 83/2/77 80/2/77
f 81/2/78 84/2/78 80/2/78
f 85/2/79 84/2/79 81/2/79
f 82/2/80 85/2/80 81/2/80
f 26/2/81 85/2/81 82/2/81
f 22/2/21 26/2/21 82/2/21
f 86/2/82 30/2/82 26/2/82
f 83/2/83 86/2/83 26/2/83
f 87/2/84 86/2/84 83/2/84
f 84/2/85 87/2/85 83/2/85
f 88/2/86 87/2/86 84/2/86
f 85/2/87 88/2/87 84/2/87
f 30/2/88 88/2/88 85/2/88
f 26/2/89 30/2/89 85/2/89
f 89/2/90 34/2/90 30/2/90
f 86/2/91 89/2/91 30/2/91
f 90/2/64 89/2/64 86/2/64
f 87/2/64 90/2/64 86/2/64
f 91/2/92 90/2/92 87/2/92
f 88/2/93 91/2/93 87/2/93
f 34/2/31 91/2/31 88/2/31
f 30/2/31 34/2/31 88/2/31
f 92/2/94 38/2/94 34/2/94
f 89/2/95 92/2/95 34/2/95
f 93/2/96 92/2/96 89/2/96
f 90/2/96 93/2/96 89/2/96
f 94/2/97 93/2/97 90/2/97
f 91/2/98 94/2/98 90/2/98
f 38/2/99 94/2/99 91/2/99
f 34/2/99 38/2/99 91/2/99
f 95/2/100 42/2/100 38/2/100
f 92/2/101 95/2/101 38/2/101
f 96/2/102 95/2/102 92/2/102
f 93/2/102 96/2/102 92/2/102
f 97/2/103 96/2/103 93/2/103
f 94/2/104 97/2/104 93/2/104
f 42/2/45 97/2/45 94/2/45
f 38/2/45 42/2/45 94/2/45
f 98/2/105 46/2/105 42/2/105
f 95/2/106 98/2/106 42/2/106
f 99/2/107 98/2/107 95/2/107
f 96/2/107 99/2/107 95/2/107
f 100/2/108 99/2/108 96/2/108
f 97/2/109 100/2/109 96/2/109
f 46/2/110 100/2/110 97/2/110
f 42/2/110 46/2/110 97/2/110
f 101/2/111 50/2/111 46/2/111
f 98/2/111 101/2/111 46/2/111
f 102/2/4 101/2/4 98/2/4
f 99/2/4 102/2/4 98/2/4
f 103/2/112 102/2/112 99/2/112
f 100/2/112 103/2/112 99/2/112
f 50/2/2 103/2/2 100/2/2
f 46/2/2 50/2/2 100/2/2
f 104/2/113 54/2/113 50/2/113
f 101/2/113 104/2/113 50/2/113
f 105/2/4 104/2/4 101/2/4
f 102/2/4 105/2/4 101/2/4
f 106/2/114 105/2/114 102/2/114
f 103/2/114 106/2/114 102/2/114
f 54/2/2 106/2/2 103/2/2
f 50/2/2 54/2/2 103/2/2
f 107/2/115 58/2/115 54/2/115
f 104/2/115 107/2/115 54/2/115
f 108/2/4 107/2/4 104/2/4
f 105/2/4 108/2/4 104/2/4
f 109/2/116 108/2/116 105/2/116
f 106/2/116 109/2/116 105/2/116
f 58/2/2 109/2/2 106/2/2
f 54/2/2 58/2/2 106/2/2
f 110/2/117 62/2/117 58/2/117
f 107/2/117 110/2/117 58/2/117
f 111/2/4 110/2/4 107/2/4
f 108/2/4 111/2/4 107/2/4
f 112/2/60 111/2/60 108/2/60
f 109/2/60 112/2/60 108/2/60
f 62/2/2 112/2/2 109/2/2
f 58/2/2 62/2/2 109/2/2
f 68/2/31 66/2/31 3/2/31
f 70/2/31 68/2/31 3/2/31
f 110/2/31 111/2/31 62/2/31
f 111/2/31 112/2/31 62/2/31
f 113/2/5 1/2/5 4/2/5
f 114/2/5 113/2/5 4/2/5
f 115/2/2 113/2/2 114/2/2
f 116/2/2 115/2/2 114/2/2
f 117/2/6 115/2/6 116/2/6
f 118/2/6 117/2/6 116/2/6
f 1/2/4 117/2/4 118/2/4
f 4/2/4 1/2/4 118/2/4
f 119/2/5 9/2/5 1/2/5
f 113/2/5 119/2/5 1/2/5
f 120/2/2 119/2/2 113/2/2
f 115/2/2 120/2/2 113/2/2
f 121/2/6 120/2/6 115/2/6
f 117/2/6 121/2/6 115/2/6
f 9/2/4 121/2/4 117/2/4
f 1/2/4 9/2/4 117/2/4
f 122/2/118 13/2/118 9/2/118
f 119/2/118 122/2/118 9/2/118
f 123/2/2 122/2/2 119/2/2
f 120/2/2 123/2/2 119/2/2
f 124/2/119 123/2/119 120/2/119
f 121/2/119 124/2/119 120/2/119
f 13/2/4 124/2/4 121/2/4
f 9/2/4 13/2/4 121/2/4
f 125/2/68 17/2/68 13/2/68
f 122/2/68 125/2/68 13/2/68
f 126/2/2 125/2/2 122/2/2
f 123/2/2 126/2/2 122/2/2
f 127/2/67 126/2/67 123/2/67
f 124/2/67 127/2/67 123/2/67
f 17/2/4 127/2/4 124/2/4
f 13/2/4 17/2/4 124/2/4
f 128/2/120 21/2/120 17/2/120
f 125/2/121 128/2/121 17/2/121
f 129/2/122 128/2/122 125/2/122
f 126/2/122 129/2/122 125/2/122
f 130/2/123 129/2/123 126/2/123
f 127/2/124 130/2/124 126/2/124
f 21/2/125 130/2/125 127/2/125
f 17/2/125 21/2/125 127/2/125
f 131/2/126 25/2/126 21/2/126
f 128/2/127 131/2/127 21/2/127
f 132/2/128 131/2/128 128/2/128
f 129/2/129 132/2/129 128/2/129
f 133/2/130 132/2/130 129/2/130
f 130/2/131 133/2/131 129/2/131
f 25/2/132 133/2/132 130/2/132
f 21/2/132 25/2/132 130/2/132
f 134/2/133 29/2/133 25/2/133
f 131/2/134 134/2/134 25/2/134
f 135/2/135 134/2/135 131/2/135
f 132/2/136 135/2/136 131/2/136
f 136/2/137 135/2/137 132/2/137
f 133/2/138 136/2/138 132/2/138
f 29/2/139 136/2/139 133/2/139
f 25/2/140 29/2/140 133/2/140
f 137/2/141 33/2/141 29/2/141
f 134/2/142 137/2/142 29/2/142
f 138/2/31 137/2/31 134/2/31
f 135/2/31 138/2/31 134/2/31
f 139/2/143 138/2/143 135/2/143
f 136/2/144 139/2/144 135/2/144
f 33/2/64 139/2/64 136/2/64
f 29/2/64 33/2/64 136/2/64
f 140/2/145 37/2/145 33/2/145
f 137/2/146 140/2/146 33/2/146
f 141/2/147 140/2/147 137/2/147
f 138/2/147 141/2/147 137/2/147
f 142/2/148 141/2/148 138/2/148
f 139/2/149 142/2/149 138/2/149
f 37/2/150 142/2/150 139/2/150
f 33/2/150 37/2/150 139/2/150
f 143/2/151 41/2/151 37/2/151
f 140/2/152 143/2/152 37/2/152
f 144/2/153 143/2/153 140/2/153
f 141/2/153 144/2/153 140/2/153
f 145/2/154 144/2/154 141/2/154
f 142/2/155 145/2/155 141/2/155
f 41/2/156 145/2/156 142/2/156
f 37/2/156 41/2/156 142/2/156
f 146/2/157 45/2/157 41/2/157
f 143/2/158 146/2/158 41/2/158
f 147/2/159 146/2/159 143/2/159
f 144/2/159 147/2/159 143/2/159
f 148/2/160 147/2/160 144/2/160
f 145/2/161 148/2/161 144/2/161
f 45/2/162 148/2/162 145/2/162
f 41/2/162 45/2/162 145/2/162
f 149/2/112 49/2/112 45/2/112
f 146/2/112 149/2/112 45/2/112
f 150/2/4 149/2/4 146/2/4
f 147/2/4 150/2/4 146/2/4
f 151/2/111 150/2/111 147/2/111
f 148/2/111 151/2/111 147/2/111
f 49/2/2 151/2/2 148/2/2
f 45/2/2 49/2/2 148/2/2
f 152/2/163 53/2/163 49/2/163
f 149/2/163 152/2/163 49/2/163
f 153/2/4 152/2/4 149/2/4
f 150/2/4 153/2/4 149/2/4
f 154/2/164 153/2/164 150/2/164
f 151/2/164 154/2/164 150/2/164
f 53/2/2 154/2/2 151/2/2
f 49/2/2 53/2/2 151/2/2
f 155/2/116 57/2/116 53/2/116
f 152/2/116 155/2/116 53/2/116
f 156/2/4 155/2/4 152/2/4
f 153/2/4 156/2/4 152/2/4
f 157/2/115 156/2/115 153/2/115
f 154/2/115 157/2/115 153/2/115
f 57/2/2 157/2/2 154/2/2
f 53/2/2 57/2/2 154/2/2
f 158/2/165 61/2/165 57/2/165
f 155/2/165 158/2/165 57/2/165
f 159/2/4 158/2/4 155/2/4
f 156/2/4 159/2/4 155/2/4
f 160/2/62 159/2/62 156/2/62
f 157/2/62 160/2/62 156/2/62
f 61/2/2 160/2/2 157/2/2
f 57/2/2 61/2/2 157/2/2
f 116/2/64 114/2/64 4/2/64
f 118/2/64 116/2/64 4/2/64
f 158/2/64 159/2/64 61/2/64
f 159/2/64 160/2/64 61/2/64
f 161/3/3 162/3/3 163/3/3
f 164/3/3 161/3/3 163/3/3
f 165/3/2 161/3/2 164/3/2
f 166/3/2 165/3/2 164/3/2
f 167/3/1 165/3/1 166/3/1
f 168/3/1 167/3/1 166/3/1
f 162/3/4 167/3/4 168/3/4
f 163/3/4 162/3/4 168/3/4
f 169/3/65 170/3/65 162/3/65
f 161/3/65 169/3/65 162/3/65
f 171/3/2 169/3/2 161/3/2
f 165/3/2 171/3/2 161/3/2
f 172/3/1 171/3/1 165/3/1
f 167/3/1 172/3/1 165/3/1
f 170/3/4 172/3/4 167/3/4
f 162/3/4 170/3/4 167/3/4
f 173/3/67 174/3/67 170/3/67
f 169/3/67 173/3/67 170/3/67
f 175/3/2 173/3/2 169/3/2
f 171/3/2 175/3/2 169/3/2
f 176/3/166 175/3/166 171/3/166
f 172/3/166 176/3/166 171/3/166
f 174/3/4 176/3/4 172/3/4
f 170/3/4 174/3/4 172/3/4
f 177/3/3 178/3/3 174/3/3
f 173/3/3 177/3/3 174/3/3
f 179/3/2 177/3/2 173/3/2
f 175/3/2 179/3/2 173/3/2
f 180/3/1 179/3/1 175/3/1
f 176/3/1 180/3/1 175/3/1
f 178/3/4 180/3/4 176/3/4
f 174/3/4 178/3/4 176/3/4
f 181/3/167 182/3/167 178/3/167
f 177/3/168 181/3/168 178/3/168
f 183/3/169 181/3/169 177/3/169
f 179/3/169 183/3/169 177/3/169
f 184/3/170 183/3/170 179/3/170
f 180/3/171 184/3/171 179/3/171
f 182/3/14 184/3/14 180/3/14
f 178/3/14 182/3/14 180/3/14
f 185/3/172 186/3/172 182/3/172
f 181/3/173 185/3/173 182/3/173
f 187/3/174 185/3/174 181/3/174
f 183/3/174 187/3/174 181/3/174
f 188/3/175 187/3/175 183/3/175
f 184/3/176 188/3/176 183/3/176
f 186/3/177 188/3/177 184/3/177
f 182/3/177 186/3/177 184/3/177
f 189/3/178 190/3/178 186/3/178
f 185/3/179 189/3/179 186/3/179
f 191/3/180 189/3/180 185/3/180
f 187/3/181 191/3/181 185/3/181
f 192/3/182 191/3/182 187/3/182
f 188/3/183 192/3/183 187/3/183
f 190/3/184 192/3/184 188/3/184
f 186/3/185 190/3/185 188/3/185
f 193/3/186 194/3/186 190/3/186
f 189/3/187 193/3/187 190/3/187
f 195/3/64 193/3/64 189/3/64
f 191/3/64 195/3/64 189/3/64
f 196/3/188 195/3/188 191/3/188
f 192/3/189 196/3/189 191/3/189
f 194/3/31 196/3/31 192/3/31
f 190/3/31 194/3/31 192/3/31
f 197/3/190 198/3/190 194/3/190
f 193/3/191 197/3/191 194/3/191
f 199/3/192 197/3/192 193/3/192
f 195/3/193 199/3/193 193/3/193
f 200/3/194 199/3/194 195/3/194
f 196/3/195 200/3/195 195/3/195
f 198/3/196 200/3/196 196/3/196
f 194/3/197 198/3/197 196/3/197
f 201/3/198 202/3/198 198/3/198
f 197/3/199 201/3/199 198/3/199
f 203/3/200 201/3/200 197/3/200
f 199/3/200 203/3/200 197/3/200
f 204/3/201 203/3/201 199/3/201
f 200/3/202 204/3/202 199/3/202
f 202/3/203 204/3/203 200/3/203
f 198/3/203 202/3/203 200/3/203
f 205/3/204 206/3/204 202/3/204
f 201/3/205 205/3/205 202/3/205
f 207/3/206 205/3/206 201/3/206
f 203/3/207 207/3/207 201/3/207
f 208/3/208 207/3/208 203/3/208
f 204/3/209 208/3/209 203/3/209
f 206/3/210 208/3/210 204/3/210
f 202/3/51 206/3/51 204/3/51
f 209/3/211 210/3/211 206/3/211
f 205/3/212 209/3/212 206/3/212
f 211/3/4 209/3/4 205/3/4
f 207/3/4 211/3/4 205/3/4
f 212/3/213 211/3/213 207/3/213
f 208/3/213 212/3/213 207/3/213
f 210/3/2 212/3/2 208/3/2
f 206/3/2 210/3/2 208/3/2
f 213/3/214 214/3/214 210/3/214
f 209/3/215 213/3/215 210/3/215
f 215/3/4 213/3/4 209/3/4
f 211/3/4 215/3/4 209/3/4
f 216/3/216 215/3/216 211/3/216
f 212/3/217 216/3/217 211/3/217
f 214/3/2 216/3/2 212/3/2
f 210/3/2 214/3/2 212/3/2
f 217/3/218 218/3/218 214/3/218
f 213/3/218 217/3/218 214/3/218
f 219/3/4 217/3/4 213/3/4
f 215/3/4 219/3/4 213/3/4
f 220/3/219 219/3/219 215/3/219
f 216/3/219 220/3/219 215/3/219
f 218/3/2 220/3/2 216/3/2
f 214/3/2 218/3/2 216/3/2
f 221/3/220 222/3/220 218/3/220
f 217/3/221 221/3/221 218/3/221
f 223/3/4 221/3/4 217/3/4
f 219/3/4 223/3/4 217/3/4
f 224/3/60 223/3/60 219/3/60
f 220/3/222 224/3/222 219/3/222
f 222/3/2 224/3/2 220/3/2
f 218/3/2 222/3/2 220/3/2
f 166/3/31 164/3/31 163/3/31
f 168/3/31 166/3/31 163/3/31
f 221/3/31 223/3/31 222/3/31
f 223/3/31 224/3/31 222/3/31
f 225/3/1 226/3/1 227/3/1
f 228/3/1 225/3/1 227/3/1
f 229/3/2 225/3/2 228/3/2
f 230/3/2 229/3/2 228/3/2
f 231/3/3 229/3/3 230/3/3
f 232/3/3 231/3/3 230/3/3
f 226/3/4 231/3/4 232/3/4
f 227/3/4 226/3/4 232/3/4
f 233/3/118 234/3/118 226/3/118
f 225/3/118 233/3/118 226/3/118
f 235/3/2 233/3/2 225/3/2
f 229/3/2 235/3/2 225/3/2
f 236/3/3 235/3/3 229/3/3
f 231/3/3 236/3/3 229/3/3
f 234/3/4 236/3/4 231/3/4
f 226/3/4 234/3/4 231/3/4
f 237/3/68 238/3/68 234/3/68
f 233/3/68 237/3/68 234/3/68
f 239/3/2 237/3/2 233/3/2
f 235/3/2 239/3/2 233/3/2
f 240/3/223 239/3/223 235/3/223
f 236/3/223 240/3/223 235/3/223
f 238/3/4 240/3/4 236/3/4
f 234/3/4 238/3/4 236/3/4
f 241/3/1 242/3/1 238/3/1
f 237/3/1 241/3/1 238/3/1
f 243/3/2 241/3/2 237/3/2
f 239/3/2 243/3/2 237/3/2
f 244/3/3 243/3/3 239/3/3
f 240/3/3 244/3/3 239/3/3
f 242/3/4 244/3/4 240/3/4
f 238/3/4 242/3/4 240/3/4
f 245/3/224 246/3/224 242/3/224
f 241/3/225 245/3/225 242/3/225
f 247/3/226 245/3/226 241/3/226
f 243/3/226 247/3/226 241/3/226
f 248/3/227 247/3/227 243/3/227
f 244/3/228 248/3/228 243/3/228
f 246/3/229 248/3/229 244/3/229
f 242/3/229 246/3/229 244/3/229
f 249/3/230 250/3/230 246/3/230
f 245/3/231 249/3/231 246/3/231
f 251/3/128 249/3/128 245/3/128
f 247/3/128 251/3/128 245/3/128
f 252/3/232 251/3/232 247/3/232
f 248/3/233 252/3/233 247/3/233
f 250/3/234 252/3/234 248/3/234
f 246/3/234 250/3/234 248/3/234
f 253/3/235 254/3/235 250/3/235
f 249/3/236 253/3/236 250/3/236
f 255/3/237 253/3/237 249/3/237
f 251/3/238 255/3/238 249/3/238
f 256/3/239 255/3/239 251/3/239
f 252/3/240 256/3/240 251/3/240
f 254/3/241 256/3/241 252/3/241
f 250/3/242 254/3/242 252/3/242
f 257/3/243 258/3/243 254/3/243
f 253/3/244 257/3/244 254/3/244
f 259/3/31 257/3/31 253/3/31
f 255/3/31 259/3/31 253/3/31
f 260/3/245 259/3/245 255/3/245
f 256/3/246 260/3/246 255/3/246
f 258/3/64 260/3/64 256/3/64
f 254/3/64 258/3/64 256/3/64
f 261/3/247 262/3/247 258/3/247
f 257/3/248 261/3/248 258/3/248
f 263/3/249 261/3/249 257/3/249
f 259/3/196 263/3/196 257/3/196
f 264/3/250 263/3/250 259/3/250
f 260/3/251 264/3/251 259/3/251
f 262/3/252 264/3/252 260/3/252
f 258/3/253 262/3/253 260/3/253
f 265/3/254 266/3/254 262/3/254
f 261/3/255 265/3/255 262/3/255
f 267/3/256 265/3/256 261/3/256
f 263/3/256 267/3/256 261/3/256
f 268/3/257 267/3/257 263/3/257
f 264/3/258 268/3/258 263/3/258
f 266/3/259 268/3/259 264/3/259
f 262/3/259 266/3/259 264/3/259
f 269/3/260 270/3/260 266/3/260
f 265/3/261 269/3/261 266/3/261
f 271/3/262 269/3/262 265/3/262
f 267/3/263 271/3/263 265/3/263
f 272/3/264 271/3/264 267/3/264
f 268/3/265 272/3/265 267/3/265
f 270/3/266 272/3/266 268/3/266
f 266/3/267 270/3/267 268/3/267
f 273/3/268 274/3/268 270/3/268
f 269/3/268 273/3/268 270/3/268
f 275/3/4 273/3/4 269/3/4
f 271/3/4 275/3/4 269/3/4
f 276/3/269 275/3/269 271/3/269
f 272/3/270 276/3/270 271/3/270
f 274/3/2 276/3/2 272/3/2
f 270/3/2 274/3/2 272/3/2
f 277/3/216 278/3/216 274/3/216
f 273/3/217 277/3/217 274/3/217
f 279/3/4 277/3/4 273/3/4
f 275/3/4 279/3/4 273/3/4
f 280/3/214 279/3/214 275/3/214
f 276/3/215 280/3/215 275/3/215
f 278/3/2 280/3/2 276/3/2
f 274/3/2 278/3/2 276/3/2
f 281/3/219 282/3/219 278/3/219
f 277/3/219 281/3/219 278/3/219
f 283/3/4 281/3/4 277/3/4
f 279/3/4 283/3/4 277/3/4
f 284/3/218 283/3/218 279/3/218
f 280/3/218 284/3/218 279/3/218
f 282/3/2 284/3/2 280/3/2
f 278/3/2 282/3/2 280/3/2
f 285/3/271 286/3/271 282/3/271
f 281/3/272 285/3/272 282/3/272
f 287/3/4 285/3/4 281/3/4
f 283/3/4 287/3/4 281/3/4
f 288/3/273 287/3/273 283/3/273
f 284/3/274 288/3/274 283/3/274
f 286/3/2 288/3/2 284/3/2
f 282/3/2 286/3/2 284/3/2
f 230/3/64 228/3/64 227/3/64
f 232/3/64 230/3/64 227/3/64
f 285/3/64 287/3/64 286/3/64
f 287/3/64 288/3/64 286/3/64
f 289/4/68 290/4/68 291/4/68
f 292/4/68 289/4/68 291/4/68
f 293/4/2 289/4/2 292/4/2
f 294/4/2 293/4/2 292/4/2
f 295/4/6 293/4/6 294/4/6
f 296/4/6 295/4/6 294/4/6
f 290/4/4 295/4/4 296/4/4
f 291/4/4 290/4/4 296/4/4
f 294/4/64 292/4/64 291/4/64
f 296/4/64 294/4/64 291/4/64
f 289/4/31 293/4/31 290/4/31
f 293/4/31 295/4/31 290/4/31
f 297/4/275 298/4/275 299/4/275
f 300/4/276 297/4/276 299/4/276
f 301/4/277 297/4/277 300/4/277
f 302/4/278 301/4/278 300/4/278
f 303/4/279 301/4/279 302/4/279
f 304/4/280 303/4/280 302/4/280
f 298/4/281 303/4/281 304/4/281
f 299/4/282 298/4/282 304/4/282
f 302/4/283 300/4/283 299/4/283
f 304/4/283 302/4/283 299/4/283
f 297/4/284 301/4/284 298/4/284
f 301/4/284 303/4/284 298/4/284
f 305/4/285 306/4/285 307/4/285
f 308/4/286 305/4/286 307/4/286
f 309/4/287 305/4/287 308/4/287
f 310/4/287 309/4/287 308/4/287
f 311/4/288 309/4/288 310/4/288
f 312/4/289 311/4/289 310/4/289
f 306/4/45 311/4/45 312/4/45
f 307/4/45 306/4/45 312/4/45
f 310/4/128 308/4/128 307/4/128
f 312/4/128 310/4/128 307/4/128
f 305/4/290 309/4/290 306/4/290
f 309/4/290 311/4/290 306/4/290
f 313/4/291 314/4/291 315/4/291
f 316/4/291 313/4/291 315/4/291
f 317/4/4 313/4/4 316/4/4
f 318/4/4 317/4/4 316/4/4
f 319/4/292 317/4/292 318/4/292
f 320/4/292 319/4/292 318/4/292
f 314/4/2 319/4/2 320/4/2
f 315/4/2 314/4/2 320/4/2
f 318/4/31 316/4/31 315/4/31
f 320/4/31 318/4/31 315/4/31
f 313/4/64 317/4/64 314/4/64
f 317/4/64 319/4/64 314/4/64
