# CargoTrackLift2UpBackward - generated by Tools/generate_meshes.py, do not hand-edit
# Regenerate with: python Tools/generate_meshes.py
o CargoTrackLift2UpBackward
v 7.05000 2.24667 0.20000
v 7.05000 2.24667 -7.20000
v 10.00000 -0.42000 -7.20000
v 10.00000 -0.42000 0.20000
v 7.05000 2.66667 0.20000
v 10.00000 0.00000 0.20000
v 7.05000 2.66667 -7.20000
v 10.00000 0.00000 -7.20000
v 4.10000 4.91333 0.20000
v 4.10000 4.91333 -7.20000
v 4.10000 5.33333 0.20000
v 4.10000 5.33333 -7.20000
v 1.15000 7.58000 0.20000
v 1.15000 7.58000 -7.20000
v 1.15000 8.00000 0.20000
v 1.15000 8.00000 -7.20000
v -1.80000 10.24667 0.20000
v -1.80000 10.24667 -7.20000
v -1.80000 10.66667 0.20000
v -1.80000 10.66667 -7.20000
v -1.71322 12.91333 0.18019
v -4.92396 12.91333 -6.48698
v -1.71322 13.33333 0.18019
v -4.92396 13.33333 -6.48698
v -1.64363 15.58000 0.12470
v -7.42919 15.58000 -4.48913
v -1.64363 16.00000 0.12470
v -7.42919 16.00000 -4.48913
v -1.60501 18.24667 0.04450
v -8.81948 18.24667 -1.60215
v -1.60501 18.66667 0.04450
v -8.81948 18.66667 -1.60215
v -1.60501 20.91333 -0.04450
v -8.81948 20.91333 1.60215
v -1.60501 21.33333 -0.04450
v -8.81948 21.33333 1.60215
v -1.64363 23.58000 -0.12470
v -7.42919 23.58000 4.48913
v -1.64363 24.00000 -0.12470
v -7.42919 24.00000 4.48913
v -1.71322 26.24667 -0.18019
v -4.92396 26.24667 6.48698
v -1.71322 26.66667 -0.18019
v -4.92396 26.66667 6.48698
v -1.80000 28.91333 -0.20000
v -1.80000 28.91333 7.20000
v -1.80000 29.33333 -0.20000
v -1.80000 29.33333 7.20000
v 1.15000 31.58000 -0.20000
v 1.15000 31.58000 7.20000
v 1.15000 32.00000 -0.20000
v 1.15000 32.00000 7.20000
v 4.10000 34.24667 -0.20000
v 4.10000 34.24667 7.20000
v 4.10000 34.66667 -0.20000
v 4.10000 34.66667 7.20000
v 7.05000 36.91333 -0.20000
v 7.05000 36.91333 7.20000
v 7.05000 37.33333 -0.20000
v 7.05000 37.33333 7.20000
v 10.00000 39.58000 -0.20000
v 10.00000 39.58000 7.20000
v 10.00000 40.00000 -0.20000
v 10.00000 40.00000 7.20000
v 7.05000 2.24667 -7.95000
v 10.00000 -0.42000 -7.95000
v 7.05000 3.81667 -7.20000
v 10.00000 1.15000 -7.20000
v 7.05000 3.81667 -7.95000
v 10.00000 1.15000 -7.95000
v 4.10000 4.91333 -7.95000
v 4.10000 6.48333 -7.20000
v 4.10000 6.48333 -7.95000
v 1.15000 7.58000 -7.95000
v 1.15000 9.15000 -7.20000
v 1.15000 9.15000 -7.95000
v -1.80000 10.24667 -7.95000
v -1.80000 11.81667 -7.20000
v -1.80000 11.81667 -7.95000
v -5.24938 12.91333 -7.16270
v -4.92396 14.48333 -6.48698
v -5.24938 14.48333 -7.16270
v -8.01556 15.58000 -4.95674
v -7.42919 17.15000 -4.48913
v -8.01556 17.15000 -4.95674
v -9.55068 18.24667 -1.76904
v -8.81948 19.81667 -1.60215
v -9.55068 19.81667 -1.76904
v -9.55068 20.91333 1.76904
v -8.81948 22.48333 1.60215
v -9.55068 22.48333 1.76904
v -8.01556 23.58000 4.95674
v -7.42919 25.15000 4.48913
v -8.01556 25.15000 4.95674
v -5.24938 26.24667 7.16270
v -4.92396 27.81667 6.48698
v -5.24938 27.81667 7.16270
v -1.80000 28.91333 7.95000
v -1.80000 30.48333 7.20000
v -1.80000 30.48333 7.95000
v 1.15000 31.58000 7.95000
v 1.15000 33.15000 7.20000
v 1.15000 33.15000 7.95000
v 4.10000 34.24667 7.95000
v 4.10000 35.81667 7.20000
v 4.10000 35.81667 7.95000
v 7.05000 36.91333 7.95000
v 7.05000 38.48333 7.20000
v 7.05000 38.48333 7.95000
v 10.00000 39.58000 7.95000
v 10.00000 41.15000 7.20000
v 10.00000 41.15000 7.95000
v 7.05000 2.24667 0.95000
v 10.00000 -0.42000 0.95000
v 7.05000 3.81667 0.95000
v 10.00000 1.15000 0.95000
v 7.05000 3.81667 0.20000
v 10.00000 1.15000 0.20000
v 4.10000 4.91333 0.95000
v 4.10000 6.48333 0.95000
v 4.10000 6.48333 0.20000
v 1.15000 7.58000 0.95000
v 1.15000 9.15000 0.95000
v 1.15000 9.15000 0.20000
v -1.80000 10.24667 0.95000
v -1.80000 11.81667 0.95000
v -1.80000 11.81667 0.20000
v -1.38781 12.91333 0.85592
v -1.38781 14.48333 0.85592
v -1.71322 14.48333 0.18019
v -1.05726 15.58000 0.59232
v -1.05726 17.15000 0.59232
v -1.64363 17.15000 0.12470
v -0.87382 18.24667 0.21139
v -0.87382 19.81667 0.21139
v -1.60501 19.81667 0.04450
v -0.87382 20.91333 -0.21139
v -0.87382 22.48333 -0.21139
v -1.60501 22.48333 -0.04450
v -1.05726 23.58000 -0.59232
v -1.05726 25.15000 -0.59232
v -1.64363 25.15000 -0.12470
v -1.38781 26.24667 -0.85592
v -1.38781 27.81667 -0.85592
v -1.71322 27.81667 -0.18019
v -1.80000 28.91333 -0.95000
v -1.80000 30.48333 -0.95000
v -1.80000 30.48333 -0.20000
v 1.15000 31.58000 -0.95000
v 1.15000 33.15000 -0.95000
v 1.15000 33.15000 -0.20000
v 4.10000 34.24667 -0.95000
v 4.10000 35.81667 -0.95000
v 4.10000 35.81667 -0.20000
v 7.05000 36.91333 -0.95000
v 7.05000 38.48333 -0.95000
v 7.05000 38.48333 -0.20000
v 10.00000 39.58000 -0.95000
v 10.00000 41.15000 -0.95000
v 10.00000 41.15000 -0.20000
v 7.05000 3.76667 -7.05000
v 7.05000 3.76667 -8.10000
v 10.00000 1.10000 -8.10000
v 10.00000 1.10000 -7.05000
v 7.05000 4.08667 -7.05000
v 10.00000 1.42000 -7.05000
v 7.05000 4.08667 -8.10000
v 10.00000 1.42000 -8.10000
v 4.10000 6.43333 -7.05000
v 4.10000 6.43333 -8.10000
v 4.10000 6.75333 -7.05000
v 4.10000 6.75333 -8.10000
v 1.15000 9.10000 -7.05000
v 1.15000 9.10000 -8.10000
v 1.15000 9.42000 -7.05000
v 1.15000 9.42000 -8.10000
v -1.80000 11.76667 -7.05000
v -1.80000 11.76667 -8.10000
v -1.80000 12.08667 -7.05000
v -1.80000 12.08667 -8.10000
v -4.85888 14.43333 -6.35183
v -5.31446 14.43333 -7.29785
v -4.85888 14.75333 -6.35183
v -5.31446 14.75333 -7.29785
v -7.31191 17.10000 -4.39560
v -8.13284 17.10000 -5.05027
v -7.31191 17.42000 -4.39560
v -8.13284 17.42000 -5.05027
v -8.67324 19.76667 -1.56877
v -9.69692 19.76667 -1.80242
v -8.67324 20.08667 -1.56877
v -9.69692 20.08667 -1.80242
v -8.67324 22.43333 1.56877
v -9.69692 22.43333 1.80242
v -8.67324 22.75333 1.56877
v -9.69692 22.75333 1.80242
v -7.31191 25.10000 4.39560
v -8.13284 25.10000 5.05027
v -7.31191 25.42000 4.39560
v -8.13284 25.42000 5.05027
v -4.85888 27.76667 6.35183
v -5.31446 27.76667 7.29785
v -4.85888 28.08667 6.35183
v -5.31446 28.08667 7.29785
v -1.80000 30.43333 7.05000
v -1.80000 30.43333 8.10000
v -1.80000 30.75333 7.05000
v -1.80000 30.75333 8.10000
v 1.15000 33.10000 7.05000
v 1.15000 33.10000 8.10000
v 1.15000 33.42000 7.05000
v 1.15000 33.42000 8.10000
v 4.10000 35.76667 7.05000
v 4.10000 35.76667 8.10000
v 4.10000 36.08667 7.05000
v 4.10000 36.08667 8.10000
v 7.05000 38.43333 7.05000
v 7.05000 38.43333 8.10000
v 7.05000 38.75333 7.05000
v 7.05000 38.75333 8.10000
v 10.00000 41.10000 7.05000
v 10.00000 41.10000 8.10000
v 10.00000 41.42000 7.05000
v 10.00000 41.42000 8.10000
v 7.05000 3.76667 1.10000
v 7.05000 3.76667 0.05000
v 10.00000 1.10000 0.05000
v 10.00000 1.10000 1.10000
v 7.05000 4.08667 1.10000
v 10.00000 1.42000 1.10000
v 7.05000 4.08667 0.05000
v 10.00000 1.42000 0.05000
v 4.10000 6.43333 1.10000
v 4.10000 6.43333 0.05000
v 4.10000 6.75333 1.10000
v 4.10000 6.75333 0.05000
v 1.15000 9.10000 1.10000
v 1.15000 9.10000 0.05000
v 1.15000 9.42000 1.10000
v 1.15000 9.42000 0.05000
v -1.80000 11.76667 1.10000
v -1.80000 11.76667 0.05000
v -1.80000 12.08667 1.10000
v -1.80000 12.08667 0.05000
v -1.32273 14.43333 0.99107
v -1.77831 14.43333 0.04505
v -1.32273 14.75333 0.99107
v -1.77831 14.75333 0.04505
v -0.93999 17.10000 0.68584
v -1.76091 17.10000 0.03117
v -0.93999 17.42000 0.68584
v -1.76091 17.42000 0.03117
v -0.72758 19.76667 0.24477
v -1.75125 19.76667 0.01113
v -0.72758 20.08667 0.24477
v -1.75125 20.08667 0.01113
v -0.72758 22.43333 -0.24477
v -1.75125 22.43333 -0.01113
v -0.72758 22.75333 -0.24477
v -1.75125 22.75333 -0.01113
v -0.93999 25.10000 -0.68584
v -1.76091 25.10000 -0.03117
v -0.93999 25.42000 -0.68584
v -1.76091 25.42000 -0.03117
v -1.32273 27.76667 -0.99107
v -1.77831 27.76667 -0.04505
v -1.32273 28.08667 -0.99107
v -1.77831 28.08667 -0.04505
v -1.80000 30.43333 -1.10000
v -1.80000 30.43333 -0.05000
v -1.80000 30.75333 -1.10000
v -1.80000 30.75333 -0.05000
v 1.15000 33.10000 -1.10000
v 1.15000 33.10000 -0.05000
v 1.15000 33.42000 -1.10000
v 1.15000 33.42000 -0.05000
v 4.10000 35.76667 -1.10000
v 4.10000 35.76667 -0.05000
v 4.10000 36.08667 -1.10000
v 4.10000 36.08667 -0.05000
v 7.05000 38.43333 -1.10000
v 7.05000 38.43333 -0.05000
v 7.05000 38.75333 -1.10000
v 7.05000 38.75333 -0.05000
v 10.00000 41.10000 -1.10000
v 10.00000 41.10000 -0.05000
v 10.00000 41.42000 -1.10000
v 10.00000 41.42000 -0.05000
v 4.10000 4.89333 -0.10000
v 4.10000 4.89333 -6.90000
v 7.05000 2.22667 -6.90000
v 7.05000 2.22667 -0.10000
v 4.10000 5.15333 -0.10000
v 7.05000 2.48667 -0.10000
v 4.10000 5.15333 -6.90000
v 7.05000 2.48667 -6.90000
v -4.79380 12.89333 -6.21669
v -7.19464 15.56000 -4.30208
v -1.87818 15.56000 -0.06235
v -1.84339 12.89333 -0.09010
v -1.87818 15.82000 -0.06235
v -1.84339 13.15333 -0.09010
v -7.19464 15.82000 -4.30208
v -4.79380 13.15333 -6.21669
v -7.19464 23.56000 4.30208
v -4.79380 26.22667 6.21669
v -1.84339 26.22667 0.09010
v -1.87818 23.56000 0.06235
v -1.84339 26.48667 0.09010
v -1.87818 23.82000 0.06235
v -4.79380 26.48667 6.21669
v -7.19464 23.82000 4.30208
v 7.05000 36.89333 0.10000
v 7.05000 36.89333 6.90000
v 4.10000 34.22667 6.90000
v 4.10000 34.22667 0.10000
v 7.05000 37.15333 0.10000
v 4.10000 34.48667 0.10000
v 7.05000 37.15333 6.90000
v 4.10000 34.48667 6.90000
vt 0.07000 0.01000
vt 0.06000 0.01000
vt 0.02000 0.01000
vt 0.08000 0.01000
vn -0.67058 -0.74183 -0.00000
vn 0.00000 0.00000 1.00000
vn 0.67058 0.74183 -0.00000
vn 0.00000 0.00000 -1.00000
vn -0.67058 -0.74183 -0.00000
vn 0.67058 0.74183 -0.00000
vn -0.67058 -0.74183 -0.00000
vn 0.67058 0.74183 -0.00000
vn -0.58495 -0.76058 0.28170
vn -0.99947 0.03252 0.00000
vn -0.22252 -0.00000 -0.97493
vn 0.90049 -0.03252 -0.43365
vn 0.64924 0.76058 -0.00000
vn -0.22252 0.00000 -0.97493
vn -0.40480 -0.76058 0.50760
vn -0.90049 0.03252 0.43365
vn -0.62349 -0.00000 -0.78183
vn 0.62316 -0.03252 -0.78142
vn 0.58495 0.76058 -0.28170
vn -0.62349 0.00000 -0.78183
vn -0.14447 -0.76058 0.63297
vn -0.62316 0.03252 0.78142
vn -0.90097 -0.00000 -0.43388
vn -0.90097 -0.00000 -0.43388
vn 0.22240 -0.03252 -0.97441
vn 0.40480 0.76058 -0.50760
vn -0.90097 0.00000 -0.43388
vn -0.90097 0.00000 -0.43388
vn 0.14447 -0.76058 0.63297
vn -0.22240 0.03252 0.97441
vn -1.00000 0.00000 0.00000
vn -0.22240 -0.03252 -0.97441
vn 0.14447 0.76058 -0.63297
vn 0.40480 -0.76058 0.50760
vn 0.22240 0.03252 0.97441
vn -0.90097 0.00000 0.43388
vn -0.62316 -0.03252 -0.78142
vn -0.14447 0.76058 -0.63297
vn -0.90097 0.00000 0.43388
vn 0.58495 -0.76058 0.28170
vn 0.62316 0.03252 0.78142
vn -0.62349 0.00000 0.78183
vn -0.90049 -0.03252 -0.43365
vn -0.40480 0.76058 -0.50760
vn -0.62349 0.00000 0.78183
vn 0.64924 -0.76058 0.00000
vn 0.90049 0.03252 0.43365
vn -0.22252 0.00000 0.97493
vn -0.99947 -0.03252 -0.00000
vn -0.58495 0.76058 -0.28170
vn -0.22252 0.00000 0.97493
vn 0.67058 -0.74183 0.00000
vn -0.67058 0.74183 -0.00000
vn 0.67058 -0.74183 0.00000
vn 0.67058 -0.74183 0.00000
vn -0.67058 0.74183 -0.00000
vn -0.67058 0.74183 -0.00000
vn 0.67058 -0.74183 0.00000
vn -0.67058 0.74183 -0.00000
vn 0.67058 -0.74183 0.00000
vn 0.67058 -0.74183 0.00000
vn -0.67058 0.74183 0.00000
vn -0.67058 0.74183 -0.00000
vn 1.00000 0.00000 0.00000
vn 0.67058 0.74183 -0.00000
vn -0.67058 -0.74183 -0.00000
vn -0.67058 -0.74183 -0.00000
vn 0.67058 0.74183 -0.00000
vn -0.55106 -0.79115 0.26537
vn -0.64924 -0.76058 -0.00000
vn 0.22252 0.00000 0.97493
vn 0.58495 0.76058 -0.28170
vn 0.61163 0.79115 -0.00000
vn -0.22252 0.00000 -0.97493
vn -0.38134 -0.79115 0.47819
vn -0.58495 -0.76058 0.28170
vn 0.62349 0.00000 0.78183
vn 0.40480 0.76058 -0.50760
vn 0.55106 0.79115 -0.26537
vn -0.62349 0.00000 -0.78183
vn -0.62349 0.00000 -0.78183
vn -0.13610 -0.79115 0.59629
vn -0.40480 -0.76058 0.50760
vn 0.90097 0.00000 0.43388
vn 0.90097 0.00000 0.43388
vn 0.14447 0.76058 -0.63297
vn 0.38134 0.79115 -0.47819
vn -0.90097 0.00000 -0.43388
vn -0.90097 0.00000 -0.43388
vn 0.13610 -0.79115 0.59629
vn -0.14447 -0.76058 0.63297
vn -0.14447 0.76058 -0.63297
vn 0.13610 0.79115 -0.59629
vn 0.38134 -0.79115 0.47819
vn 0.14447 -0.76058 0.63297
vn 0.90097 0.00000 -0.43388
vn -0.40480 0.76058 -0.50760
vn -0.13610 0.79115 -0.59629
vn -0.90097 0.00000 0.43388
vn 0.55106 -0.79115 0.26537
vn 0.40480 -0.76058 0.50760
vn 0.62349 0.00000 -0.78183
vn -0.58495 0.76058 -0.28170
vn -0.38134 0.79115 -0.47819
vn -0.62349 0.00000 0.78183
vn 0.61163 -0.79115 0.00000
vn 0.58495 -0.76058 0.28170
vn 0.22252 0.00000 -0.97493
vn -0.64924 0.76058 0.00000
vn -0.55106 0.79115 -0.26537
vn -0.22252 0.00000 0.97493
vn 0.67058 -0.74183 0.00000
vn -0.67058 0.74183 0.00000
vn 0.67058 -0.74183 0.00000
vn -0.67058 0.74183 0.00000
vn 0.67058 -0.74183 0.00000
vn -0.67058 0.74183 0.00000
vn -0.67058 0.74183 0.00000
vn -0.90049 0.03252 0.43365
vn -0.98826 0.15276 0.00000
vn -0.22252 -0.00000 -0.97493
vn 0.89039 -0.15276 -0.42879
vn 0.99947 -0.03252 0.00000
vn 0.22252 -0.00000 0.97493
vn -0.62316 0.03252 0.78142
vn -0.89039 0.15276 0.42879
vn -0.62349 -0.00000 -0.78183
vn -0.62349 -0.00000 -0.78183
vn 0.61617 -0.15276 -0.77266
vn 0.90049 -0.03252 -0.43365
vn 0.62349 -0.00000 0.78183
vn 0.62349 -0.00000 0.78183
vn -0.22240 0.03252 0.97441
vn -0.61617 0.15276 0.77266
vn -0.90097 -0.00000 -0.43388
vn -0.90097 -0.00000 -0.43388
vn 0.21991 -0.15276 -0.96349
vn 0.62316 -0.03252 -0.78142
vn 0.90097 -0.00000 0.43388
vn 0.90097 -0.00000 0.43388
vn 0.22240 0.03252 0.97441
vn -0.21991 0.15276 0.96349
vn -0.21991 -0.15276 -0.96349
vn 0.22240 -0.03252 -0.97441
vn 0.62316 0.03252 0.78142
vn 0.21991 0.15276 0.96349
vn -0.90097 0.00000 0.43388
vn -0.61617 -0.15276 -0.77266
vn -0.22240 -0.03252 -0.97441
vn 0.90097 0.00000 -0.43388
vn 0.90049 0.03252 0.43365
vn 0.61617 0.15276 0.77266
vn -0.62349 0.00000 0.78183
vn -0.89039 -0.15276 -0.42879
vn -0.62316 -0.03252 -0.78142
vn 0.62349 0.00000 -0.78183
vn 0.99947 0.03252 -0.00000
vn 0.89039 0.15276 0.42879
vn -0.22252 0.00000 0.97493
vn -0.98826 -0.15276 -0.00000
vn -0.90049 -0.03252 -0.43365
vn 0.22252 0.00000 -0.97493
vn 0.67058 -0.74183 0.00000
vn -0.67058 0.74183 0.00000
vn 0.67058 -0.74183 0.00000
vn -0.67058 -0.74183 -0.00000
vn 0.67058 0.74183 -0.00000
vn -0.54460 -0.79663 0.26227
vn -0.65713 -0.75378 -0.00000
vn 0.22252 0.00000 0.97493
vn 0.59205 0.75378 -0.28512
vn 0.60446 0.79663 -0.00000
vn -0.22252 0.00000 -0.97493
vn -0.37688 -0.79663 0.47259
vn -0.59205 -0.75378 0.28512
vn 0.62349 0.00000 0.78183
vn 0.40971 0.75378 -0.51376
vn 0.54460 0.79663 -0.26227
vn -0.62349 0.00000 -0.78183
vn -0.13451 -0.79663 0.58931
vn -0.40971 -0.75378 0.51376
vn 0.90097 0.00000 0.43388
vn 0.90097 0.00000 0.43388
vn 0.14622 0.75378 -0.64065
vn 0.37688 0.79663 -0.47259
vn -0.90097 0.00000 -0.43388
vn 0.13451 -0.79663 0.58931
vn -0.14622 -0.75378 0.64065
vn -0.14622 0.75378 -0.64065
vn 0.13451 0.79663 -0.58931
vn 0.37688 -0.79663 0.47259
vn 0.14622 -0.75378 0.64065
vn 0.90097 0.00000 -0.43388
vn 0.90097 0.00000 -0.43388
vn -0.40971 0.75378 -0.51376
vn -0.13451 0.79663 -0.58931
vn -0.90097 0.00000 0.43388
vn -0.90097 0.00000 0.43388
vn 0.54460 -0.79663 0.26227
vn 0.40971 -0.75378 0.51376
vn 0.62349 0.00000 -0.78183
vn -0.59205 0.75378 -0.28512
vn -0.37688 0.79663 -0.47259
vn -0.62349 0.00000 0.78183
vn 0.60446 -0.79663 0.00000
vn 0.59205 -0.75378 0.28512
vn 0.22252 0.00000 -0.97493
vn 0.22252 0.00000 -0.97493
vn -0.65713 0.75378 -0.00000
vn -0.54460 0.79663 -0.26227
vn -0.22252 0.00000 0.97493
vn -0.22252 0.00000 0.97493
vn 0.67058 -0.74183 0.00000
vn -0.67058 0.74183 -0.00000
vn -0.67058 0.74183 -0.00000
vn 0.67058 -0.74183 0.00000
vn 0.67058 -0.74183 0.00000
vn -0.67058 0.74183 -0.00000
vn 0.67058 -0.74183 0.00000
vn -0.67058 0.74183 -0.00000
vn 0.67058 -0.74183 0.00000
vn -0.67058 0.74183 0.00000
vn -0.67058 0.74183 -0.00000
vn -0.90094 0.00814 0.43387
vn -0.98436 0.17618 0.00000
vn -0.22252 -0.00000 -0.97493
vn 0.88688 -0.17618 -0.42710
vn 0.99997 -0.00814 0.00000
vn 0.22252 -0.00000 0.97493
vn -0.62347 0.00814 0.78181
vn -0.88688 0.17618 0.42710
vn -0.62349 -0.00000 -0.78183
vn 0.61374 -0.17618 -0.76960
vn 0.90094 -0.00814 -0.43387
vn 0.62349 -0.00000 0.78183
vn -0.22251 0.00814 0.97490
vn -0.61374 0.17618 0.76960
vn -0.90097 -0.00000 -0.43388
vn -0.90097 -0.00000 -0.43388
vn 0.21904 -0.17618 -0.95968
vn 0.62347 -0.00814 -0.78181
vn 0.90097 -0.00000 0.43388
vn 0.90097 -0.00000 0.43388
vn 0.22251 0.00814 0.97490
vn -0.21904 0.17618 0.95968
vn -0.21904 -0.17618 -0.95968
vn 0.22251 -0.00814 -0.97490
vn 0.62347 0.00814 0.78181
vn 0.21904 0.17618 0.95968
vn -0.90097 0.00000 0.43388
vn -0.61374 -0.17618 -0.76960
vn -0.22251 -0.00814 -0.97490
vn 0.90097 0.00000 -0.43388
vn 0.90097 0.00000 -0.43388
vn 0.90094 0.00814 0.43387
vn 0.61374 0.17618 0.76960
vn -0.62349 0.00000 0.78183
vn -0.88688 -0.17618 -0.42710
vn -0.62347 -0.00814 -0.78181
vn 0.62349 0.00000 -0.78183
vn 0.99997 0.00814 0.00000
vn 0.88688 0.17618 0.42710
vn -0.22252 0.00000 0.97493
vn -0.22252 0.00000 0.97493
vn -0.98436 -0.17618 -0.00000
vn -0.90094 -0.00814 -0.43387
vn 0.22252 0.00000 -0.97493
vn 0.22252 0.00000 -0.97493
vn 0.67058 -0.74183 0.00000
vn 0.67058 -0.74183 0.00000
vn -0.67058 0.74183 0.00000
vn -0.67058 0.74183 -0.00000
vn 0.41470 0.74673 -0.52002
vn 0.90085 0.01627 -0.43383
vn -0.62349 0.00000 -0.78183
vn -0.62349 0.00000 -0.78183
vn -0.62341 -0.01627 0.78173
vn -0.59926 -0.74673 0.28859
vn 0.62349 0.00000 0.78183
vn 0.62349 0.00000 0.78183
vn -0.90097 0.00000 0.43388
vn 0.62349 0.00000 -0.78183
vn -0.59926 0.74673 -0.28859
vn -0.62341 0.01627 -0.78173
vn -0.62349 0.00000 0.78183
vn -0.62349 0.00000 0.78183
vn 0.90085 -0.01627 0.43383
vn 0.41470 -0.74673 0.52002
vn 0.62349 0.00000 -0.78183
vn 0.62349 0.00000 0.78183
vn -0.90097 0.00000 -0.43388
vn 0.67058 -0.74183 0.00000
vn -0.67058 0.74183 0.00000
f 1/1/1 2/1/1 3/1/1
f 4/1/1 1/1/1 3/1/1
f 5/1/2 1/1/2 4/1/2
f 6/1/2 5/1/2 4/1/2
f 7/1/3 5/1/3 6/1/3
f 8/1/3 7/1/3 6/1/3
f 2/1/4 7/1/4 8/1/4
f 3/1/4 2/1/4 8/1/4
f 9/1/1 10/1/1 2/1/1
f 1/1/1 9/1/1 2/1/1
f 11/1/2 9/1/2 1/1/2
f 5/1/2 11/1/2 1/1/2
f 12/1/3 11/1/3 5/1/3
f 7/1/3 12/1/3 5/1/3
f 10/1/4 12/1/4 7/1/4
f 2/1/4 10/1/4 7/1/4
f 13/1/5 14/1/5 10/1/5
f 9/1/5 13/1/5 10/1/5
f 15/1/2 13/1/2 9/1/2
f 11/1/2 15/1/2 9/1/2
f 16/1/6 15/1/6 11/1/6
f 12/1/6 16/1/6 11/1/6
f 14/1/4 16/1/4 12/1/4
f 10/1/4 14/1/4 12/1/4
f 17/1/7 18/1/7 14/1/7
f 13/1/7 17/1/7 14/1/7
f 19/1/2 17/1/2 13/1/2
f 15/1/2 19/1/2 13/1/2
f 20/1/8 19/1/8 15/1/8
f 16/1/8 20/1/8 15/1/8
f 18/1/4 20/1/4 16/1/4
f 14/1/4 18/1/4 16/1/4
f 21/1/9 22/1/9 18/1/9
f 17/1/10 21/1/10 18/1/10
f 23/1/11 21/1/11 17/1/11
f 19/1/11 23/1/11 17/1/11
f 24/1/12 23/1/12 19/1/12
f 20/1/13 24/1/13 19/1/13
f 22/1/14 24/1/14 20/1/14
f 18/1/14 22/1/14 20/1/14
f 25/1/15 26/1/15 22/1/15
f 21/1/16 25/1/16 22/1/16
f 27/1/17 25/1/17 21/1/17
f 23/1/17 27/1/17 21/1/17
f 28/1/18 27/1/18 23/1/18
f 24/1/19 28/1/19 23/1/19
f 26/1/20 28/1/20 24/1/20
f 22/1/20 26/1/20 24/1/20
f 29/1/21 30/1/21 26/1/21
f 25/1/22 29/1/22 26/1/22
f 31/1/23 29/1/23 25/1/23
f 27/1/24 31/1/24 25/1/24
f 32/1/25 31/1/25 27/1/25
f 28/1/26 32/1/26 27/1/26
f 30/1/27 32/1/27 28/1/27
f 26/1/28 30/1/28 28/1/28
f 33/1/29 34/1/29 30/1/29
f 29/1/30 33/1/30 30/1/30
f 35/1/31 33/1/31 29/1/31
f 31/1/31 35/1/31 29/1/31
f 36/1/32 35/1/32 31/1/32
f 32/1/33 36/1/33 31/1/33
f 34/1/31 36/1/31 32/1/31
f 30/1/31 34/1/31 32/1/31
f 37/1/34 38/1/34 34/1/34
f 33/1/35 37/1/35 34/1/35
f 39/1/36 37/1/36 33/1/36
f 35/1/36 39/1/36 33/1/36
f 40/1/37 39/1/37 35/1/37
f 36/1/38 40/1/38 35/1/38
f 38/1/39 40/1/39 36/1/39
f 34/1/39 38/1/39 36/1/39
f 41/1/40 42/1/40 38/1/40
f 37/1/41 41/1/41 38/1/41
f 43/1/42 41/1/42 37/1/42
f 39/1/42 43/1/42 37/1/42
f 44/1/43 43/1/43 39/1/43
f 40/1/44 44/1/44 39/1/44
f 42/1/45 44/1/45 40/1/45
f 38/1/45 42/1/45 40/1/45
f 45/1/46 46/1/46 42/1/46
f 41/1/47 45/1/47 42/1/47
f 47/1/48 45/1/48 41/1/48
f 43/1/48 47/1/48 41/1/48
f 48/1/49 47/1/49 43/1/49
f 44/1/50 48/1/50 43/1/50
f 46/1/51 48/1/51 44/1/51
f 42/1/51 46/1/51 44/1/51
f 49/1/52 50/1/52 46/1/52
f 45/1/52 49/1/52 46/1/52
f 51/1/4 49/1/4 45/1/4
f 47/1/4 51/1/4 45/1/4
f 52/1/53 51/1/53 47/1/53
f 48/1/53 52/1/53 47/1/53
f 50/1/2 52/1/2 48/1/2
f 46/1/2 50/1/2 48/1/2
f 53/1/54 54/1/54 50/1/54
f 49/1/55 53/1/55 50/1/55
f 55/1/4 53/1/4 49/1/4
f 51/1/4 55/1/4 49/1/4
f 56/1/56 55/1/56 51/1/56
f 52/1/57 56/1/57 51/1/57
f 54/1/2 56/1/2 52/1/2
f 50/1/2 54/1/2 52/1/2
f 57/1/58 58/1/58 54/1/58
f 53/1/58 57/1/58 54/1/58
f 59/1/4 57/1/4 53/1/4
f 55/1/4 59/1/4 53/1/4
f 60/1/59 59/1/59 55/1/59
f 56/1/59 60/1/59 55/1/59
f 58/1/2 60/1/2 56/1/2
f 54/1/2 58/1/2 56/1/2
f 61/1/60 62/1/60 58/1/60
f 57/1/61 61/1/61 58/1/61
f 63/1/4 61/1/4 57/1/4
f 59/1/4 63/1/4 57/1/4
f 64/1/62 63/1/62 59/1/62
f 60/1/63 64/1/63 59/1/63
f 62/1/2 64/1/2 60/1/2
f 58/1/2 62/1/2 60/1/2
f 6/1/64 4/1/64 3/1/64
f 8/1/64 6/1/64 3/1/64
f 61/1/64 63/1/64 62/1/64
f 63/1/64 64/1/64 62/1/64
f 2/2/5 65/2/5 66/2/5
f 3/2/5 2/2/5 66/2/5
f 67/2/2 2/2/2 3/2/2
f 68/2/2 67/2/2 3/2/2
f 69/2/6 67/2/6 68/2/6
f 70/2/6 69/2/6 68/2/6
f 65/2/4 69/2/4 70/2/4
f 66/2/4 65/2/4 70/2/4
f 10/2/5 71/2/5 65/2/5
f 2/2/5 10/2/5 65/2/5
f 72/2/2 10/2/2 2/2/2
f 67/2/2 72/2/2 2/2/2
f 73/2/65 72/2/65 67/2/65
f 69/2/65 73/2/65 67/2/65
f 71/2/4 73/2/4 69/2/4
f 65/2/4 71/2/4 69/2/4
f 14/2/66 74/2/66 71/2/66
f 10/2/66 14/2/66 71/2/66
f 75/2/2 14/2/2 10/2/2
f 72/2/2 75/2/2 10/2/2
f 76/2/8 75/2/8 72/2/8
f 73/2/8 76/2/8 72/2/8
f 74/2/4 76/2/4 73/2/4
f 71/2/4 74/2/4 73/2/4
f 18/2/67 77/2/67 74/2/67
f 14/2/67 18/2/67 74/2/67
f 78/2/2 18/2/2 14/2/2
f 75/2/2 78/2/2 14/2/2
f 79/2/68 78/2/68 75/2/68
f 76/2/68 79/2/68 75/2/68
f 77/2/4 79/2/4 76/2/4
f 74/2/4 77/2/4 76/2/4
f 22/2/69 80/2/69 77/2/69
f 18/2/70 22/2/70 77/2/70
f 81/2/71 22/2/71 18/2/71
f 78/2/71 81/2/71 18/2/71
f 82/2/72 81/2/72 78/2/72
f 79/2/73 82/2/73 78/2/73
f 80/2/74 82/2/74 79/2/74
f 77/2/74 80/2/74 79/2/74
f 26/2/75 83/2/75 80/2/75
f 22/2/76 26/2/76 80/2/76
f 84/2/77 26/2/77 22/2/77
f 81/2/77 84/2/77 22/2/77
f 85/2/78 84/2/78 81/2/78
f 82/2/79 85/2/79 81/2/79
f 83/2/80 85/2/80 82/2/80
f 80/2/81 83/2/81 82/2/81
f 30/2/82 86/2/82 83/2/82
f 26/2/83 30/2/83 83/2/83
f 87/2/84 30/2/84 26/2/84
f 84/2/85 87/2/85 26/2/85
f 88/2/86 87/2/86 84/2/86
f 85/2/87 88/2/87 84/2/87
f 86/2/88 88/2/88 85/2/88
f 83/2/89 86/2/89 85/2/89
f 34/2/90 89/2/90 86/2/90
f 30/2/91 34/2/91 86/2/91
f 90/2/64 34/2/64 30/2/64
f 87/2/64 90/2/64 30/2/64
f 91/2/92 90/2/92 87/2/92
f 88/2/93 91/2/93 87/2/93
f 89/2/31 91/2/31 88/2/31
f 86/2/31 89/2/31 88/2/31
f 38/2/94 92/2/94 89/2/94
f 34/2/95 38/2/95 89/2/95
f 93/2/96 38/2/96 34/2/96
f 90/2/96 93/2/96 34/2/96
f 94/2/97 93/2/97 90/2/97
f 91/2/98 94/2/98 90/2/98
f 92/2/99 94/2/99 91/2/99
f 89/2/99 92/2/99 91/2/99
f 42/2/100 95/2/100 92/2/100
f 38/2/101 42/2/101 92/2/101
f 96/2/102 42/2/102 38/2/102
f 93/2/102 96/2/102 38/2/102
f 97/2/103 96/2/103 93/2/103
f 94/2/104 97/2/104 93/2/104
f 95/2/105 97/2/105 94/2/105
f 92/2/105 95/2/105 94/2/105
f 46/2/106 98/2/106 95/2/106
f 42/2/107 46/2/107 95/2/107
f 99/2/108 46/2/108 42/2/108
f 96/2/108 99/2/108 42/2/108
f 100/2/109 99/2/109 96/2/109
f 97/2/110 100/2/110 96/2/110
f 98/2/111 100/2/111 97/2/111
f 95/2/111 98/2/111 97/2/111
f 50/2/112 101/2/112 98/2/112
f 46/2/112 50/2/112 98/2/112
f 102/2/4 50/2/4 46/2/4
f 99/2/4 102/2/4 46/2/4
f 103/2/113 102/2/113 99/2/113
f 100/2/113 103/2/113 99/2/113
f 101/2/2 103/2/2 100/2/2
f 98/2/2 101/2/2 100/2/2
f 54/2/114 104/2/114 101/2/114
f 50/2/114 54/2/114 101/2/114
f 105/2/4 54/2/4 50/2/4
f 102/2/4 105/2/4 50/2/4
f 106/2/115 105/2/115 102/2/115
f 103/2/115 106/2/115 102/2/115
f 104/2/2 106/2/2 103/2/2
f 101/2/2 104/2/2 103/2/2
f 58/2/116 107/2/116 104/2/116
f 54/2/116 58/2/116 104/2/116
f 108/2/4 58/2/4 54/2/4
f 105/2/4 108/2/4 54/2/4
f 109/2/117 108/2/117 105/2/117
f 106/2/117 109/2/117 105/2/117
f 107/2/2 109/2/2 106/2/2
f 104/2/2 107/2/2 106/2/2
f 62/2/60 110/2/60 107/2/60
f 58/2/60 62/2/60 107/2/60
f 111/2/4 62/2/4 58/2/4
f 108/2/4 111/2/4 58/2/4
f 112/2/118 111/2/118 108/2/118
f 109/2/118 112/2/118 108/2/118
f 110/2/2 112/2/2 109/2/2
f 107/2/2 110/2/2 109/2/2
f 68/2/64 3/2/64 66/2/64
f 70/2/64 68/2/64 66/2/64
f 62/2/64 111/2/64 110/2/64
f 111/2/64 112/2/64 110/2/64
f 113/2/5 1/2/5 4/2/5
f 114/2/5 113/2/5 4/2/5
f 115/2/2 113/2/2 114/2/2
f 116/2/2 115/2/2 114/2/2
f 117/2/6 115/2/6 116/2/6
f 118/2/6 117/2/6 116/2/6
f 1/2/4 117/2/4 118/2/4
f 4/2/4 1/2/4 118/2/4
f 119/2/5 9/2/5 1/2/5
f 113/2/5 119/2/5 1/2/5
f 120/2/2 119/2/2 113/2/2
f 115/2/2 120/2/2 113/2/2
f 121/2/65 120/2/65 115/2/65
f 117/2/65 121/2/65 115/2/65
f 9/2/4 121/2/4 117/2/4
f 1/2/4 9/2/4 117/2/4
f 122/2/66 13/2/66 9/2/66
f 119/2/66 122/2/66 9/2/66
f 123/2/2 122/2/2 119/2/2
f 120/2/2 123/2/2 119/2/2
f 124/2/8 123/2/8 120/2/8
f 121/2/8 124/2/8 120/2/8
f 13/2/4 124/2/4 121/2/4
f 9/2/4 13/2/4 121/2/4
f 125/2/67 17/2/67 13/2/67
f 122/2/67 125/2/67 13/2/67
f 126/2/2 125/2/2 122/2/2
f 123/2/2 126/2/2 122/2/2
f 127/2/68 126/2/68 123/2/68
f 124/2/68 127/2/68 123/2/68
f 17/2/4 127/2/4 124/2/4
f 13/2/4 17/2/4 124/2/4
f 128/2/119 21/2/119 17/2/119
f 125/2/120 128/2/120 17/2/120
f 129/2/121 128/2/121 125/2/121
f 126/2/121 129/2/121 125/2/121
f 130/2/122 129/2/122 126/2/122
f 127/2/123 130/2/123 126/2/123
f 21/2/124 130/2/124 127/2/124
f 17/2/124 21/2/124 127/2/124
f 131/2/125 25/2/125 21/2/125
f 128/2/126 131/2/126 21/2/126
f 132/2/127 131/2/127 128/2/127
f 129/2/128 132/2/128 128/2/128
f 133/2/129 132/2/129 129/2/129
f 130/2/130 133/2/130 129/2/130
f 25/2/131 133/2/131 130/2/131
f 21/2/132 25/2/132 130/2/132
f 134/2/133 29/2/133 25/2/133
f 131/2/134 134/2/134 25/2/134
f 135/2/135 134/2/135 131/2/135
f 132/2/136 135/2/136 131/2/136
f 136/2/137 135/2/137 132/2/137
f 133/2/138 136/2/138 132/2/138
f 29/2/139 136/2/139 133/2/139
f 25/2/140 29/2/140 133/2/140
f 137/2/141 33/2/141 29/2/141
f 134/2/142 137/2/142 29/2/142
f 138/2/31 137/2/31 134/2/31
f 135/2/31 138/2/31 134/2/31
f 139/2/143 138/2/143 135/2/143
f 136/2/144 139/2/144 135/2/144
f 33/2/64 139/2/64 136/2/64
f 29/2/64 33/2/64 136/2/64
f 140/2/145 37/2/145 33/2/145
f 137/2/146 140/2/146 33/2/146
f 141/2/147 140/2/147 137/2/147
f 138/2/147 141/2/147 137/2/147
f 142/2/148 141/2/148 138/2/148
f 139/2/149 142/2/149 138/2/149
f 37/2/150 142/2/150 139/2/150
f 33/2/150 37/2/150 139/2/150
f 143/2/151 41/2/151 37/2/151
f 140/2/152 143/2/152 37/2/152
f 144/2/153 143/2/153 140/2/153
f 141/2/153 144/2/153 140/2/153
f 145/2/154 144/2/154 141/2/154
f 142/2/155 145/2/155 141/2/155
f 41/2/156 145/2/156 142/2/156
f 37/2/156 41/2/156 142/2/156
f 146/2/157 45/2/157 41/2/157
f 143/2/158 146/2/158 41/2/158
f 147/2/159 146/2/159 143/2/159
f 144/2/159 147/2/159 143/2/159
f 148/2/160 147/2/160 144/2/160
f 145/2/161 148/2/161 144/2/161
f 45/2/162 148/2/162 145/2/162
f 41/2/162 45/2/162 145/2/162
f 149/2/112 49/2/112 45/2/112
f 146/2/112 149/2/112 45/2/112
f 150/2/4 149/2/4 146/2/4
f 147/2/4 150/2/4 146/2/4
f 151/2/113 150/2/113 147/2/113
f 148/2/113 151/2/113 147/2/113
f 49/2/2 151/2/2 148/2/2
f 45/2/2 49/2/2 148/2/2
f 152/2/163 53/2/163 49/2/163
f 149/2/163 152/2/163 49/2/163
f 153/2/4 152/2/4 149/2/4
f 150/2/4 153/2/4 149/2/4
f 154/2/164 153/2/164 150/2/164
f 151/2/164 154/2/164 150/2/164
f 53/2/2 154/2/2 151/2/2
f 49/2/2 53/2/2 151/2/2
f 155/2/116 57/2/116 53/2/116
f 152/2/116 155/2/116 53/2/116
f 156/2/4 155/2/4 152/2/4
f 153/2/4 156/2/4 152/2/4
f 157/2/117 156/2/117 153/2/117
f 154/2/117 157/2/117 153/2/117
f 57/2/2 157/2/2 154/2/2
f 53/2/2 57/2/2 154/2/2
f 158/2/165 61/2/165 57/2/165
f 155/2/165 158/2/165 57/2/165
f 159/2/4 158/2/4 155/2/4
f 156/2/4 159/2/4 155/2/4
f 160/2/62 159/2/62 156/2/62
f 157/2/62 160/2/62 156/2/62
f 61/2/2 160/2/2 157/2/2
f 57/2/2 61/2/2 157/2/2
f 116/2/64 114/2/64 4/2/64
f 118/2/64 116/2/64 4/2/64
f 158/2/64 159/2/64 61/2/64
f 159/2/64 160/2/64 61/2/64
f 161/3/1 162/3/1 163/3/1
f 164/3/1 161/3/1 163/3/1
f 165/3/2 161/3/2 164/3/2
f 166/3/2 165/3/2 164/3/2
f 167/3/65 165/3/65 166/3/65
f 168/3/65 167/3/65 166/3/65
f 162/3/4 167/3/4 168/3/4
f 163/3/4 162/3/4 168/3/4
f 169/3/7 170/3/7 162/3/7
f 161/3/7 169/3/7 162/3/7
f 171/3/2 169/3/2 161/3/2
f 165/3/2 171/3/2 161/3/2
f 172/3/8 171/3/8 165/3/8
f 167/3/8 172/3/8 165/3/8
f 170/3/4 172/3/4 167/3/4
f 162/3/4 170/3/4 167/3/4
f 173/3/166 174/3/166 170/3/166
f 169/3/166 173/3/166 170/3/166
f 175/3/2 173/3/2 169/3/2
f 171/3/2 175/3/2 169/3/2
f 176/3/167 175/3/167 171/3/167
f 172/3/167 176/3/167 171/3/167
f 174/3/4 176/3/4 172/3/4
f 170/3/4 174/3/4 172/3/4
f 177/3/1 178/3/1 174/3/1
f 173/3/1 177/3/1 174/3/1
f 179/3/2 177/3/2 173/3/2
f 175/3/2 179/3/2 173/3/2
f 180/3/3 179/3/3 175/3/3
f 176/3/3 180/3/3 175/3/3
f 178/3/4 180/3/4 176/3/4
f 174/3/4 178/3/4 176/3/4
f 181/3/168 182/3/168 178/3/168
f 177/3/169 181/3/169 178/3/169
f 183/3/170 181/3/170 177/3/170
f 179/3/170 183/3/170 177/3/170
f 184/3/171 183/3/171 179/3/171
f 180/3/172 184/3/172 179/3/172
f 182/3/173 184/3/173 180/3/173
f 178/3/173 182/3/173 180/3/173
f 185/3/174 186/3/174 182/3/174
f 181/3/175 185/3/175 182/3/175
f 187/3/176 185/3/176 181/3/176
f 183/3/176 187/3/176 181/3/176
f 188/3/177 187/3/177 183/3/177
f 184/3/178 188/3/178 183/3/178
f 186/3/179 188/3/179 184/3/179
f 182/3/179 186/3/179 184/3/179
f 189/3/180 190/3/180 186/3/180
f 185/3/181 189/3/181 186/3/181
f 191/3/182 189/3/182 185/3/182
f 187/3/183 191/3/183 185/3/183
f 192/3/184 191/3/184 187/3/184
f 188/3/185 192/3/185 187/3/185
f 190/3/186 192/3/186 188/3/186
f 186/3/89 190/3/89 188/3/89
f 193/3/187 194/3/187 190/3/187
f 189/3/188 193/3/188 190/3/188
f 195/3/64 193/3/64 189/3/64
f 191/3/64 195/3/64 189/3/64
f 196/3/189 195/3/189 191/3/189
f 192/3/190 196/3/190 191/3/190
f 194/3/31 196/3/31 192/3/31
f 190/3/31 194/3/31 192/3/31
f 197/3/191 198/3/191 194/3/191
f 193/3/192 197/3/192 194/3/192
f 199/3/193 197/3/193 193/3/193
f 195/3/194 199/3/194 193/3/194
f 200/3/195 199/3/195 195/3/195
f 196/3/196 200/3/196 195/3/196
f 198/3/197 200/3/197 196/3/197
f 194/3/198 198/3/198 196/3/198
f 201/3/199 202/3/199 198/3/199
f 197/3/200 201/3/200 198/3/200
f 203/3/201 201/3/201 197/3/201
f 199/3/201 203/3/201 197/3/201
f 204/3/202 203/3/202 199/3/202
f 200/3/203 204/3/203 199/3/203
f 202/3/204 204/3/204 200/3/204
f 198/3/204 202/3/204 200/3/204
f 205/3/205 206/3/205 202/3/205
f 201/3/206 205/3/206 202/3/206
f 207/3/207 205/3/207 201/3/207
f 203/3/208 207/3/208 201/3/208
f 208/3/209 207/3/209 203/3/209
f 204/3/210 208/3/210 203/3/210
f 206/3/211 208/3/211 204/3/211
f 202/3/212 206/3/212 204/3/212
f 209/3/213 210/3/213 206/3/213
f 205/3/213 209/3/213 206/3/213
f 211/3/4 209/3/4 205/3/4
f 207/3/4 211/3/4 205/3/4
f 212/3/214 211/3/214 207/3/214
f 208/3/215 212/3/215 207/3/215
f 210/3/2 212/3/2 208/3/2
f 206/3/2 210/3/2 208/3/2
f 213/3/216 214/3/216 210/3/216
f 209/3/217 213/3/217 210/3/217
f 215/3/4 213/3/4 209/3/4
f 211/3/4 215/3/4 209/3/4
f 216/3/218 215/3/218 211/3/218
f 212/3/215 216/3/215 211/3/215
f 214/3/2 216/3/2 212/3/2
f 210/3/2 214/3/2 212/3/2
f 217/3/219 218/3/219 214/3/219
f 213/3/219 217/3/219 214/3/219
f 219/3/4 217/3/4 213/3/4
f 215/3/4 219/3/4 213/3/4
f 220/3/220 219/3/220 215/3/220
f 216/3/220 220/3/220 215/3/220
f 218/3/2 220/3/2 216/3/2
f 214/3/2 218/3/2 216/3/2
f 221/3/60 222/3/60 218/3/60
f 217/3/221 221/3/221 218/3/221
f 223/3/4 221/3/4 217/3/4
f 219/3/4 223/3/4 217/3/4
f 224/3/222 223/3/222 219/3/222
f 220/3/223 224/3/223 219/3/223
f 222/3/2 224/3/2 220/3/2
f 218/3/2 222/3/2 220/3/2
f 166/3/64 164/3/64 163/3/64
f 168/3/64 166/3/64 163/3/64
f 221/3/64 223/3/64 222/3/64
f 223/3/64 224/3/64 222/3/64
f 225/3/1 226/3/1 227/3/1
f 228/3/1 225/3/1 227/3/1
f 229/3/2 225/3/2 228/3/2
f 230/3/2 229/3/2 228/3/2
f 231/3/65 229/3/65 230/3/65
f 232/3/65 231/3/65 230/3/65
f 226/3/4 231/3/4 232/3/4
f 227/3/4 226/3/4 232/3/4
f 233/3/7 234/3/7 226/3/7
f 225/3/7 233/3/7 226/3/7
f 235/3/2 233/3/2 225/3/2
f 229/3/2 235/3/2 225/3/2
f 236/3/8 235/3/8 229/3/8
f 231/3/8 236/3/8 229/3/8
f 234/3/4 236/3/4 231/3/4
f 226/3/4 234/3/4 231/3/4
f 237/3/166 238/3/166 234/3/166
f 233/3/166 237/3/166 234/3/166
f 239/3/2 237/3/2 233/3/2
f 235/3/2 239/3/2 233/3/2
f 240/3/167 239/3/167 235/3/167
f 236/3/167 240/3/167 235/3/167
f 238/3/4 240/3/4 236/3/4
f 234/3/4 238/3/4 236/3/4
f 241/3/1 242/3/1 238/3/1
f 237/3/1 241/3/1 238/3/1
f 243/3/2 241/3/2 237/3/2
f 239/3/2 243/3/2 237/3/2
f 244/3/3 243/3/3 239/3/3
f 240/3/3 244/3/3 239/3/3
f 242/3/4 244/3/4 240/3/4
f 238/3/4 242/3/4 240/3/4
f 245/3/224 246/3/224 242/3/224
f 241/3/225 245/3/225 242/3/225
f 247/3/226 245/3/226 241/3/226
f 243/3/226 247/3/226 241/3/226
f 248/3/227 247/3/227 243/3/227
f 244/3/228 248/3/228 243/3/228
f 246/3/229 248/3/229 244/3/229
f 242/3/229 246/3/229 244/3/229
f 249/3/230 250/3/230 246/3/230
f 245/3/231 249/3/231 246/3/231
f 251/3/232 249/3/232 245/3/232
f 247/3/232 251/3/232 245/3/232
f 252/3/233 251/3/233 247/3/233
f 248/3/234 252/3/234 247/3/234
f 250/3/235 252/3/235 248/3/235
f 246/3/235 250/3/235 248/3/235
f 253/3/236 254/3/236 250/3/236
f 249/3/237 253/3/237 250/3/237
f 255/3/238 253/3/238 249/3/238
f 251/3/239 255/3/239 249/3/239
f 256/3/240 255/3/240 251/3/240
f 252/3/241 256/3/241 251/3/241
f 254/3/242 256/3/242 252/3/242
f 250/3/243 254/3/243 252/3/243
f 257/3/244 258/3/244 254/3/244
f 253/3/245 257/3/245 254/3/245
f 259/3/31 257/3/31 253/3/31
f 255/3/31 259/3/31 253/3/31
f 260/3/246 259/3/246 255/3/246
f 256/3/247 260/3/247 255/3/247
f 258/3/64 260/3/64 256/3/64
f 254/3/64 258/3/64 256/3/64
f 261/3/248 262/3/248 258/3/248
f 257/3/249 261/3/249 258/3/249
f 263/3/250 261/3/250 257/3/250
f 259/3/99 263/3/99 257/3/99
f 264/3/251 263/3/251 259/3/251
f 260/3/252 264/3/252 259/3/252
f 262/3/253 264/3/253 260/3/253
f 258/3/254 262/3/254 260/3/254
f 265/3/255 266/3/255 262/3/255
f 261/3/256 265/3/256 262/3/256
f 267/3/257 265/3/257 261/3/257
f 263/3/257 267/3/257 261/3/257
f 268/3/258 267/3/258 263/3/258
f 264/3/259 268/3/259 263/3/259
f 266/3/260 268/3/260 264/3/260
f 262/3/260 266/3/260 264/3/260
f 269/3/261 270/3/261 266/3/261
f 265/3/262 269/3/262 266/3/262
f 271/3/263 269/3/263 265/3/263
f 267/3/264 271/3/264 265/3/264
f 272/3/265 271/3/265 267/3/265
f 268/3/266 272/3/266 267/3/266
f 270/3/267 272/3/267 268/3/267
f 266/3/268 270/3/268 268/3/268
f 273/3/213 274/3/213 270/3/213
f 269/3/213 273/3/213 270/3/213
f 275/3/4 273/3/4 269/3/4
f 271/3/4 275/3/4 269/3/4
f 276/3/214 275/3/214 271/3/214
f 272/3/215 276/3/215 271/3/215
f 274/3/2 276/3/2 272/3/2
f 270/3/2 274/3/2 272/3/2
f 277/3/216 278/3/216 274/3/216
f 273/3/217 277/3/217 274/3/217
f 279/3/4 277/3/4 273/3/4
f 275/3/4 279/3/4 273/3/4
f 280/3/218 279/3/218 275/3/218
f 276/3/215 280/3/215 275/3/215
f 278/3/2 280/3/2 276/3/2
f 274/3/2 278/3/2 276/3/2
f 281/3/219 282/3/219 278/3/219
f 277/3/219 281/3/219 278/3/219
f 283/3/4 281/3/4 277/3/4
f 279/3/4 283/3/4 277/3/4
f 284/3/220 283/3/220 279/3/220
f 280/3/220 284/3/220 279/3/220
f 282/3/2 284/3/2 280/3/2
f 278/3/2 282/3/2 280/3/2
f 285/3/269 286/3/269 282/3/269
f 281/3/270 285/3/270 282/3/270
f 287/3/4 285/3/4 281/3/4
f 283/3/4 287/3/4 281/3/4
f 288/3/271 287/3/271 283/3/271
f 284/3/272 288/3/272 283/3/272
f 286/3/2 288/3/2 284/3/2
f 282/3/2 286/3/2 284/3/2
f 230/3/64 228/3/64 227/3/64
f 232/3/64 230/3/64 227/3/64
f 285/3/64 287/3/64 286/3/64
f 287/3/64 288/3/64 286/3/64
f 289/4/5 290/4/5 291/4/5
f 292/4/5 289/4/5 291/4/5
f 293/4/2 289/4/2 292/4/2
f 294/4/2 293/4/2 292/4/2
f 295/4/68 293/4/68 294/4/68
f 296/4/68 295/4/68 294/4/68
f 290/4/4 295/4/4 296/4/4
f 291/4/4 290/4/4 296/4/4
f 294/4/64 292/4/64 291/4/64
f 296/4/64 294/4/64 291/4/64
f 289/4/31 293/4/31 290/4/31
f 293/4/31 295/4/31 290/4/31
f 297/4/273 298/4/273 299/4/273
f 297/4/274 299/4/274 300/4/274
f 300/4/275 299/4/275 301/4/275
f 300/4/276 301/4/276 302/4/276
f 302/4/277 301/4/277 303/4/277
f 302/4/278 303/4/278 304/4/278
f 304/4/279 303/4/279 298/4/279
f 304/4/280 298/4/280 297/4/280
f 297/4/281 300/4/281 302/4/281
f 297/4/281 302/4/281 304/4/281
f 298/4/282 301/4/282 299/4/282
f 298/4/282 303/4/282 301/4/282
f 305/4/283 306/4/283 307/4/283
f 305/4/284 307/4/284 308/4/284
f 308/4/285 307/4/285 309/4/285
f 308/4/286 309/4/286 310/4/286
f 310/4/287 309/4/287 311/4/287
f 310/4/288 311/4/288 312/4/288
f 312/4/289 311/4/289 306/4/289
f 312/4/102 306/4/102 305/4/102
f 305/4/290 308/4/290 310/4/290
f 305/4/290 310/4/290 312/4/290
f 306/4/291 309/4/291 307/4/291
f 306/4/291 311/4/291 309/4/291
f 313/4/292 314/4/292 315/4/292
f 316/4/292 313/4/292 315/4/292
f 317/4/4 313/4/4 316/4/4
f 318/4/4 317/4/4 316/4/4
f 319/4/293 317/4/293 318/4/293
f 320/4/293 319/4/293 318/4/293
f 314/4/2 319/4/2 320/4/2
f 315/4/2 314/4/2 320/4/2
f 318/4/31 316/4/31 315/4/31
f 320/4/31 318/4/31 315/4/31
f 313/4/64 317/4/64 314/4/64
f 317/4/64 319/4/64 314/4/64
