# CargoTrackLift1UpLeft - generated by Tools/generate_meshes.py, do not hand-edit
# Regenerate with: python Tools/generate_meshes.py
o CargoTrackLift1UpLeft
v 8.77093 2.08000 3.82105
v 7.32726 2.08000 -3.43676
v 10.00000 -0.42000 -3.70000
v 10.00000 -0.42000 3.70000
v 8.77093 2.50000 3.82105
v 10.00000 0.00000 3.70000
v 7.32726 2.50000 -3.43676
v 10.00000 0.00000 -3.70000
v 7.58909 4.58000 4.17956
v 4.75724 4.58000 -2.65715
v 7.58909 5.00000 4.17956
v 4.75724 5.00000 -2.65715
v 6.49991 7.08000 4.76174
v 2.38869 7.08000 -1.39113
v 6.49991 7.50000 4.76174
v 2.38869 7.50000 -1.39113
v 5.54523 9.58000 5.54523
v 0.31264 9.58000 0.31264
v 5.54523 10.00000 5.54523
v 0.31264 10.00000 0.31264
v 4.76174 12.08000 6.49991
v -1.39113 12.08000 2.38869
v 4.76174 12.50000 6.49991
v -1.39113 12.50000 2.38869
v 4.17956 14.58000 7.58909
v -2.65715 14.58000 4.75724
v 4.17956 15.00000 7.58909
v -2.65715 15.00000 4.75724
v 3.82105 17.08000 8.77093
v -3.43676 17.08000 7.32726
v 3.82105 17.50000 8.77093
v -3.43676 17.50000 7.32726
v 3.70000 19.58000 10.00000
v -3.70000 19.58000 10.00000
v 3.70000 20.00000 10.00000
v -3.70000 20.00000 10.00000
v 7.18094 2.08000 -4.17235
v 10.00000 -0.42000 -4.45000
v 7.32726 3.65000 -3.43676
v 10.00000 1.15000 -3.70000
v 7.18094 3.65000 -4.17235
v 10.00000 1.15000 -4.45000
v 4.47022 4.58000 -3.35006
v 4.75724 6.15000 -2.65715
v 4.47022 6.15000 -3.35006
v 1.97201 7.08000 -2.01474
v 2.38869 8.65000 -1.39113
v 1.97201 8.65000 -2.01474
v -0.21769 9.58000 -0.21769
v 0.31264 11.15000 0.31264
v -0.21769 11.15000 -0.21769
v -2.01474 12.08000 1.97201
v -1.39113 13.65000 2.38869
v -2.01474 13.65000 1.97201
v -3.35006 14.58000 4.47022
v -2.65715 16.15000 4.75724
v -3.35006 16.15000 4.47022
v -4.17235 17.08000 7.18094
v -3.43676 18.65000 7.32726
v -4.17235 18.65000 7.18094
v -4.45000 19.58000 10.00000
v -3.70000 21.15000 10.00000
v -4.45000 21.15000 10.00000
v 8.91725 2.08000 4.55664
v 10.00000 -0.42000 4.45000
v 8.91725 3.65000 4.55664
v 10.00000 1.15000 4.45000
v 8.77093 3.65000 3.82105
v 10.00000 1.15000 3.70000
v 7.87611 4.58000 4.87247
v 7.87611 6.15000 4.87247
v 7.58909 6.15000 4.17956
v 6.91659 7.08000 5.38534
v 6.91659 8.65000 5.38534
v 6.49991 8.65000 4.76174
v 6.07556 9.58000 6.07556
v 6.07556 11.15000 6.07556
v 5.54523 11.15000 5.54523
v 5.38534 12.08000 6.91659
v 5.38534 13.65000 6.91659
v 4.76174 13.65000 6.49991
v 4.87247 14.58000 7.87611
v 4.87247 16.15000 7.87611
v 4.17956 16.15000 7.58909
v 4.55664 17.08000 8.91725
v 4.55664 18.65000 8.91725
v 3.82105 18.65000 8.77093
v 4.45000 19.58000 10.00000
v 4.45000 21.15000 10.00000
v 3.70000 21.15000 10.00000
v 7.35653 3.60000 -3.28964
v 7.15168 3.60000 -4.31947
v 10.00000 1.10000 -4.60000
v 10.00000 1.10000 -3.55000
v 7.35653 3.92000 -3.28964
v 10.00000 1.42000 -3.55000
v 7.15168 3.92000 -4.31947
v 10.00000 1.42000 -4.60000
v 4.81464 6.10000 -2.51857
v 4.41282 6.10000 -3.48864
v 4.81464 6.42000 -2.51857
v 4.41282 6.42000 -3.48864
v 2.47202 8.60000 -1.26641
v 1.88867 8.60000 -2.13946
v 2.47202 8.92000 -1.26641
v 1.88867 8.92000 -2.13946
v 0.41870 11.10000 0.41870
v -0.32376 11.10000 -0.32376
v 0.41870 11.42000 0.41870
v -0.32376 11.42000 -0.32376
v -1.26641 13.60000 2.47202
v -2.13946 13.60000 1.88867
v -1.26641 13.92000 2.47202
v -2.13946 13.92000 1.88867
v -2.51857 16.10000 4.81464
v -3.48864 16.10000 4.41282
v -2.51857 16.42000 4.81464
v -3.48864 16.42000 4.41282
v -3.28964 18.60000 7.35653
v -4.31947 18.60000 7.15168
v -3.28964 18.92000 7.35653
v -4.31947 18.92000 7.15168
v -3.55000 21.10000 10.00000
v -4.60000 21.10000 10.00000
v -3.55000 21.42000 10.00000
v -4.60000 21.42000 10.00000
v 8.94651 3.60000 4.70376
v 8.74167 3.60000 3.67393
v 10.00000 1.10000 3.55000
v 10.00000 1.10000 4.60000
v 8.94651 3.92000 4.70376
v 10.00000 1.42000 4.60000
v 8.74167 3.92000 3.67393
v 10.00000 1.42000 3.55000
v 7.93351 6.10000 5.01105
v 7.53169 6.10000 4.04098
v 7.93351 6.42000 5.01105
v 7.53169 6.42000 4.04098
v 6.99992 8.60000 5.51006
v 6.41657 8.60000 4.63702
v 6.99992 8.92000 5.51006
v 6.41657 8.92000 4.63702
v 6.18162 11.10000 6.18162
v 5.43916 11.10000 5.43916
v 6.18162 11.42000 6.18162
v 5.43916 11.42000 5.43916
v 5.51006 13.60000 6.99992
v 4.63702 13.60000 6.41657
v 5.51006 13.92000 6.99992
v 4.63702 13.92000 6.41657
v 5.01105 16.10000 7.93351
v 4.04098 16.10000 7.53169
v 5.01105 16.42000 7.93351
v 4.04098 16.42000 7.53169
v 4.70376 18.60000 8.94651
v 3.67393 18.60000 8.74167
v 4.70376 18.92000 8.94651
v 3.67393 18.92000 8.74167
v 4.60000 21.10000 10.00000
v 3.55000 21.10000 10.00000
v 4.60000 21.42000 10.00000
v 3.55000 21.42000 10.00000
v 7.38579 2.06000 -3.14252
v 4.87204 4.56000 -2.37999
v 7.47429 4.56000 3.90240
v 8.71240 2.06000 3.52682
v 7.47429 4.82000 3.90240
v 8.71240 2.32000 3.52682
v 4.87204 4.82000 -2.37999
v 7.38579 2.32000 -3.14252
v 2.55536 7.06000 -1.14169
v 0.52477 9.56000 0.52477
v 5.33310 9.56000 5.33310
v 6.33324 7.06000 4.51230
v 5.33310 9.82000 5.33310
v 6.33324 7.32000 4.51230
v 0.52477 9.82000 0.52477
v 2.55536 7.32000 -1.14169
v -1.14169 12.06000 2.55536
v -2.37999 14.56000 4.87204
v 3.90240 14.56000 7.47429
v 4.51230 12.06000 6.33324
v 3.90240 14.82000 7.47429
v 4.51230 12.32000 6.33324
v -2.37999 14.82000 4.87204
v -1.14169 12.32000 2.55536
v -3.14252 17.06000 7.38579
v -3.40000 19.56000 10.00000
v 3.40000 19.56000 10.00000
v 3.52682 17.06000 8.71240
v 3.40000 19.82000 10.00000
v 3.52682 17.32000 8.71240
v -3.40000 19.82000 10.00000
v -3.14252 17.32000 7.38579
vt 0.07000 0.01000
vt 0.06000 0.01000
vt 0.02000 0.01000
vt 0.08000 0.01000
vn -0.66999 -0.73031 0.13327
vn -0.89741 -0.44119 -0.00000
vn 0.09802 0.00000 0.99518
vn 0.09802 0.00000 0.99518
vn 0.88017 0.44119 -0.17508
vn 0.68311 0.73031 -0.00000
vn -0.09802 0.00000 -0.99518
vn -0.63111 -0.73031 0.26142
vn -0.88017 -0.44119 0.17508
vn 0.29028 0.00000 0.95694
vn 0.82910 0.44119 -0.34342
vn 0.66999 0.73031 -0.13327
vn -0.29028 0.00000 -0.95694
vn -0.56799 -0.73031 0.37952
vn -0.82910 -0.44119 0.34342
vn 0.47140 0.00000 0.88192
vn 0.74617 0.44119 -0.49858
vn 0.63111 0.73031 -0.26142
vn -0.47140 0.00000 -0.88192
vn -0.48303 -0.73031 0.48303
vn -0.74617 -0.44119 0.49858
vn 0.63439 0.00000 0.77301
vn 0.63457 0.44119 -0.63457
vn 0.56799 0.73031 -0.37952
vn -0.63439 0.00000 -0.77301
vn -0.37952 -0.73031 0.56799
vn -0.63457 -0.44119 0.63457
vn 0.77301 0.00000 0.63439
vn 0.49858 0.44119 -0.74617
vn 0.48303 0.73031 -0.48303
vn -0.77301 0.00000 -0.63439
vn -0.26142 -0.73031 0.63111
vn -0.49858 -0.44119 0.74617
vn 0.88192 0.00000 0.47140
vn 0.34342 0.44119 -0.82910
vn 0.37952 0.73031 -0.56799
vn -0.88192 0.00000 -0.47140
vn -0.13327 -0.73031 0.66999
vn -0.34342 -0.44119 0.82910
vn 0.95694 0.00000 0.29028
vn 0.95694 0.00000 0.29028
vn 0.17508 0.44119 -0.88017
vn 0.26142 0.73031 -0.63111
vn -0.95694 0.00000 -0.29028
vn -0.95694 0.00000 -0.29028
vn 0.00000 -0.73031 0.68311
vn -0.17508 -0.44119 0.88017
vn 0.99518 0.00000 0.09802
vn 0.00000 0.44119 -0.89741
vn 0.13327 0.73031 -0.66999
vn -0.99518 0.00000 -0.09802
vn 1.00000 0.00000 0.00000
vn 0.00000 -0.00000 1.00000
vn -0.65075 -0.74818 0.12944
vn -0.68311 -0.73031 -0.00000
vn 0.09802 0.00000 0.99518
vn 0.66999 0.73031 -0.13327
vn 0.66350 0.74818 -0.00000
vn -0.09802 0.00000 -0.99518
vn -0.61299 -0.74818 0.25391
vn -0.66999 -0.73031 0.13327
vn 0.29028 0.00000 0.95694
vn 0.29028 0.00000 0.95694
vn 0.63111 0.73031 -0.26142
vn 0.65075 0.74818 -0.12944
vn -0.29028 0.00000 -0.95694
vn -0.29028 0.00000 -0.95694
vn -0.55168 -0.74818 0.36862
vn -0.63111 -0.73031 0.26142
vn 0.47140 0.00000 0.88192
vn 0.56799 0.73031 -0.37952
vn 0.61299 0.74818 -0.25391
vn -0.47140 0.00000 -0.88192
vn -0.46917 -0.74818 0.46917
vn -0.56799 -0.73031 0.37952
vn 0.63439 0.00000 0.77301
vn 0.48303 0.73031 -0.48303
vn 0.55168 0.74818 -0.36862
vn -0.36862 -0.74818 0.55168
vn -0.48303 -0.73031 0.48303
vn 0.77301 0.00000 0.63439
vn 0.37952 0.73031 -0.56799
vn 0.46917 0.74818 -0.46917
vn -0.25391 -0.74818 0.61299
vn -0.37952 -0.73031 0.56799
vn 0.88192 0.00000 0.47140
vn 0.88192 0.00000 0.47140
vn 0.26142 0.73031 -0.63111
vn 0.36862 0.74818 -0.55168
vn -0.88192 0.00000 -0.47140
vn -0.88192 0.00000 -0.47140
vn -0.12944 -0.74818 0.65075
vn -0.26142 -0.73031 0.63111
vn 0.95694 0.00000 0.29028
vn 0.95694 0.00000 0.29028
vn 0.13327 0.73031 -0.66999
vn 0.25391 0.74818 -0.61299
vn -0.95694 0.00000 -0.29028
vn 0.00000 -0.74818 0.66350
vn -0.13327 -0.73031 0.66999
vn 0.99518 0.00000 0.09802
vn 0.00000 0.73031 -0.68311
vn 0.12944 0.74818 -0.65075
vn -0.99518 0.00000 -0.09802
vn -0.88017 -0.44119 0.17508
vn -0.91763 -0.39743 -0.00000
vn 0.09802 0.00000 0.99518
vn 0.90000 0.39743 -0.17902
vn 0.89741 0.44119 -0.00000
vn -0.09802 0.00000 -0.99518
vn -0.82910 -0.44119 0.34342
vn -0.90000 -0.39743 0.17902
vn 0.29028 0.00000 0.95694
vn 0.29028 0.00000 0.95694
vn 0.84778 0.39743 -0.35116
vn 0.88017 0.44119 -0.17508
vn -0.29028 0.00000 -0.95694
vn -0.29028 0.00000 -0.95694
vn -0.74617 -0.44119 0.49858
vn -0.84778 -0.39743 0.35116
vn 0.47140 0.00000 0.88192
vn 0.76298 0.39743 -0.50981
vn 0.82910 0.44119 -0.34342
vn -0.47140 0.00000 -0.88192
vn -0.63457 -0.44119 0.63457
vn -0.76298 -0.39743 0.50981
vn 0.63439 0.00000 0.77301
vn 0.64886 0.39743 -0.64886
vn 0.74617 0.44119 -0.49858
vn -0.63439 0.00000 -0.77301
vn -0.49858 -0.44119 0.74617
vn -0.64886 -0.39743 0.64886
vn 0.77301 0.00000 0.63439
vn 0.50981 0.39743 -0.76298
vn 0.63457 0.44119 -0.63457
vn -0.77301 0.00000 -0.63439
vn -0.34342 -0.44119 0.82910
vn -0.50981 -0.39743 0.76298
vn 0.88192 0.00000 0.47140
vn 0.88192 0.00000 0.47140
vn 0.35116 0.39743 -0.84778
vn 0.49858 0.44119 -0.74617
vn -0.88192 0.00000 -0.47140
vn -0.88192 0.00000 -0.47140
vn -0.17508 -0.44119 0.88017
vn -0.35116 -0.39743 0.84778
vn 0.95694 0.00000 0.29028
vn 0.95694 0.00000 0.29028
vn 0.17902 0.39743 -0.90000
vn 0.34342 0.44119 -0.82910
vn -0.95694 0.00000 -0.29028
vn -0.95694 0.00000 -0.29028
vn 0.00000 -0.44119 0.89741
vn -0.17902 -0.39743 0.90000
vn 0.99518 0.00000 0.09802
vn 0.00000 0.39743 -0.91763
vn 0.17508 0.44119 -0.88017
vn -0.99518 0.00000 -0.09802
vn -0.64698 -0.75157 0.12869
vn -0.68712 -0.72655 -0.00000
vn 0.67391 0.72655 -0.13405
vn 0.65966 0.75157 -0.00000
vn -0.09802 0.00000 -0.99518
vn -0.60944 -0.75157 0.25244
vn -0.67391 -0.72655 0.13405
vn 0.29028 0.00000 0.95694
vn 0.63481 0.72655 -0.26295
vn 0.64698 0.75157 -0.12869
vn -0.29028 0.00000 -0.95694
vn -0.54849 -0.75157 0.36649
vn -0.63481 -0.72655 0.26295
vn 0.47140 0.00000 0.88192
vn 0.57132 0.72655 -0.38174
vn 0.60944 0.75157 -0.25244
vn -0.47140 0.00000 -0.88192
vn -0.46645 -0.75157 0.46645
vn -0.57132 -0.72655 0.38174
vn 0.63439 0.00000 0.77301
vn 0.48586 0.72655 -0.48586
vn 0.54849 0.75157 -0.36649
vn -0.63439 0.00000 -0.77301
vn -0.36649 -0.75157 0.54849
vn -0.48586 -0.72655 0.48586
vn 0.38174 0.72655 -0.57132
vn 0.46645 0.75157 -0.46645
vn -0.77301 0.00000 -0.63439
vn -0.25244 -0.75157 0.60944
vn -0.38174 -0.72655 0.57132
vn 0.88192 0.00000 0.47140
vn 0.26295 0.72655 -0.63481
vn 0.36649 0.75157 -0.54849
vn -0.88192 0.00000 -0.47140
vn -0.12869 -0.75157 0.64698
vn -0.26295 -0.72655 0.63481
vn 0.95694 0.00000 0.29028
vn 0.13405 0.72655 -0.67391
vn 0.25244 0.75157 -0.60944
vn -0.95694 0.00000 -0.29028
vn 0.00000 -0.75157 0.65966
vn -0.13405 -0.72655 0.67391
vn 0.99518 0.00000 0.09802
vn 0.00000 0.72655 -0.68712
vn 0.12869 0.75157 -0.64698
vn -0.99518 0.00000 -0.09802
vn -0.87607 -0.44959 0.17426
vn -0.92152 -0.38833 -0.00000
vn 0.09802 0.00000 0.99518
vn 0.90382 0.38833 -0.17978
vn 0.89323 0.44959 -0.00000
vn -0.09802 0.00000 -0.99518
vn -0.82524 -0.44959 0.34183
vn -0.90382 -0.38833 0.17978
vn 0.29028 0.00000 0.95694
vn 0.29028 0.00000 0.95694
vn 0.85138 0.38833 -0.35265
vn 0.87607 0.44959 -0.17426
vn -0.29028 0.00000 -0.95694
vn -0.29028 0.00000 -0.95694
vn -0.74270 -0.44959 0.49625
vn -0.85138 -0.38833 0.35265
vn 0.47140 0.00000 0.88192
vn 0.76622 0.38833 -0.51197
vn 0.82524 0.44959 -0.34183
vn -0.63161 -0.44959 0.63161
vn -0.76622 -0.38833 0.51197
vn 0.63439 0.00000 0.77301
vn 0.65161 0.38833 -0.65161
vn 0.74270 0.44959 -0.49625
vn -0.63439 0.00000 -0.77301
vn -0.49625 -0.44959 0.74270
vn -0.65161 -0.38833 0.65161
vn 0.77301 0.00000 0.63439
vn 0.51197 0.38833 -0.76622
vn 0.63161 0.44959 -0.63161
vn -0.77301 0.00000 -0.63439
vn -0.34183 -0.44959 0.82524
vn -0.51197 -0.38833 0.76622
vn 0.88192 0.00000 0.47140
vn 0.35265 0.38833 -0.85138
vn 0.49625 0.44959 -0.74270
vn -0.88192 0.00000 -0.47140
vn -0.17426 -0.44959 0.87607
vn -0.35265 -0.38833 0.85138
vn 0.95694 0.00000 0.29028
vn 0.17978 0.38833 -0.90382
vn 0.34183 0.44959 -0.82524
vn -0.95694 0.00000 -0.29028
vn 0.00000 -0.44959 0.89323
vn -0.17978 -0.38833 0.90382
vn 0.99518 0.00000 0.09802
vn 0.00000 0.38833 -0.92152
vn 0.17426 0.44959 -0.87607
vn 0.63853 0.72272 -0.26449
vn 0.87193 0.45788 -0.17344
vn -0.29028 0.00000 -0.95694
vn -0.82134 -0.45788 0.34021
vn -0.67786 -0.72272 0.13484
vn 0.29028 0.00000 0.95694
vn -0.98079 0.00000 0.19509
vn 0.92388 0.00000 -0.38268
vn 0.48871 0.72272 -0.48871
vn 0.73919 0.45788 -0.49391
vn -0.63439 0.00000 -0.77301
vn -0.63439 0.00000 -0.77301
vn -0.62863 -0.45788 0.62863
vn -0.57466 -0.72272 0.38398
vn 0.63439 0.00000 0.77301
vn -0.83147 0.00000 0.55557
vn 0.70711 0.00000 -0.70711
vn 0.26449 0.72272 -0.63853
vn 0.49391 0.45788 -0.73919
vn -0.88192 0.00000 -0.47140
vn -0.88192 0.00000 -0.47140
vn -0.34021 -0.45788 0.82134
vn -0.38398 -0.72272 0.57466
vn 0.88192 0.00000 0.47140
vn -0.55557 0.00000 0.83147
vn 0.38268 0.00000 -0.92388
vn 0.00000 0.72272 -0.69114
vn 0.17344 0.45788 -0.87193
vn 0.00000 -0.45788 0.88902
vn -0.13484 -0.72272 0.67786
vn -0.19509 0.00000 0.98079
vn 0.00000 0.00000 -1.00000
f 1/1/1 2/1/1 3/1/1
f 4/1/2 1/1/2 3/1/2
f 5/1/3 1/1/3 4/1/3
f 6/1/4 5/1/4 4/1/4
f 7/1/5 5/1/5 6/1/5
f 8/1/6 7/1/6 6/1/6
f 2/1/7 7/1/7 8/1/7
f 3/1/7 2/1/7 8/1/7
f 9/1/8 10/1/8 2/1/8
f 1/1/9 9/1/9 2/1/9
f 11/1/10 9/1/10 1/1/10
f 5/1/10 11/1/10 1/1/10
f 12/1/11 11/1/11 5/1/11
f 7/1/12 12/1/12 5/1/12
f 10/1/13 12/1/13 7/1/13
f 2/1/13 10/1/13 7/1/13
f 13/1/14 14/1/14 10/1/14
f 9/1/15 13/1/15 10/1/15
f 15/1/16 13/1/16 9/1/16
f 11/1/16 15/1/16 9/1/16
f 16/1/17 15/1/17 11/1/17
f 12/1/18 16/1/18 11/1/18
f 14/1/19 16/1/19 12/1/19
f 10/1/19 14/1/19 12/1/19
f 17/1/20 18/1/20 14/1/20
f 13/1/21 17/1/21 14/1/21
f 19/1/22 17/1/22 13/1/22
f 15/1/22 19/1/22 13/1/22
f 20/1/23 19/1/23 15/1/23
f 16/1/24 20/1/24 15/1/24
f 18/1/25 20/1/25 16/1/25
f 14/1/25 18/1/25 16/1/25
f 21/1/26 22/1/26 18/1/26
f 17/1/27 21/1/27 18/1/27
f 23/1/28 21/1/28 17/1/28
f 19/1/28 23/1/28 17/1/28
f 24/1/29 23/1/29 19/1/29
f 20/1/30 24/1/30 19/1/30
f 22/1/31 24/1/31 20/1/31
f 18/1/31 22/1/31 20/1/31
f 25/1/32 26/1/32 22/1/32
f 21/1/33 25/1/33 22/1/33
f 27/1/34 25/1/34 21/1/34
f 23/1/34 27/1/34 21/1/34
f 28/1/35 27/1/35 23/1/35
f 24/1/36 28/1/36 23/1/36
f 26/1/37 28/1/37 24/1/37
f 22/1/37 26/1/37 24/1/37
f 29/1/38 30/1/38 26/1/38
f 25/1/39 29/1/39 26/1/39
f 31/1/40 29/1/40 25/1/40
f 27/1/41 31/1/41 25/1/41
f 32/1/42 31/1/42 27/1/42
f 28/1/43 32/1/43 27/1/43
f 30/1/44 32/1/44 28/1/44
f 26/1/45 30/1/45 28/1/45
f 33/1/46 34/1/46 30/1/46
f 29/1/47 33/1/47 30/1/47
f 35/1/48 33/1/48 29/1/48
f 31/1/48 35/1/48 29/1/48
f 36/1/49 35/1/49 31/1/49
f 32/1/50 36/1/50 31/1/50
f 34/1/51 36/1/51 32/1/51
f 30/1/51 34/1/51 32/1/51
f 6/1/52 4/1/52 3/1/52
f 8/1/52 6/1/52 3/1/52
f 33/1/53 35/1/53 34/1/53
f 35/1/53 36/1/53 34/1/53
f 2/2/54 37/2/54 38/2/54
f 3/2/55 2/2/55 38/2/55
f 39/2/56 2/2/56 3/2/56
f 40/2/56 39/2/56 3/2/56
f 41/2/57 39/2/57 40/2/57
f 42/2/58 41/2/58 40/2/58
f 37/2/59 41/2/59 42/2/59
f 38/2/59 37/2/59 42/2/59
f 10/2/60 43/2/60 37/2/60
f 2/2/61 10/2/61 37/2/61
f 44/2/62 10/2/62 2/2/62
f 39/2/63 44/2/63 2/2/63
f 45/2/64 44/2/64 39/2/64
f 41/2/65 45/2/65 39/2/65
f 43/2/66 45/2/66 41/2/66
f 37/2/67 43/2/67 41/2/67
f 14/2/68 46/2/68 43/2/68
f 10/2/69 14/2/69 43/2/69
f 47/2/70 14/2/70 10/2/70
f 44/2/70 47/2/70 10/2/70
f 48/2/71 47/2/71 44/2/71
f 45/2/72 48/2/72 44/2/72
f 46/2/73 48/2/73 45/2/73
f 43/2/73 46/2/73 45/2/73
f 18/2/74 49/2/74 46/2/74
f 14/2/75 18/2/75 46/2/75
f 50/2/76 18/2/76 14/2/76
f 47/2/76 50/2/76 14/2/76
f 51/2/77 50/2/77 47/2/77
f 48/2/78 51/2/78 47/2/78
f 49/2/25 51/2/25 48/2/25
f 46/2/25 49/2/25 48/2/25
f 22/2/79 52/2/79 49/2/79
f 18/2/80 22/2/80 49/2/80
f 53/2/81 22/2/81 18/2/81
f 50/2/81 53/2/81 18/2/81
f 54/2/82 53/2/82 50/2/82
f 51/2/83 54/2/83 50/2/83
f 52/2/31 54/2/31 51/2/31
f 49/2/31 52/2/31 51/2/31
f 26/2/84 55/2/84 52/2/84
f 22/2/85 26/2/85 52/2/85
f 56/2/86 26/2/86 22/2/86
f 53/2/87 56/2/87 22/2/87
f 57/2/88 56/2/88 53/2/88
f 54/2/89 57/2/89 53/2/89
f 55/2/90 57/2/90 54/2/90
f 52/2/91 55/2/91 54/2/91
f 30/2/92 58/2/92 55/2/92
f 26/2/93 30/2/93 55/2/93
f 59/2/94 30/2/94 26/2/94
f 56/2/95 59/2/95 26/2/95
f 60/2/96 59/2/96 56/2/96
f 57/2/97 60/2/97 56/2/97
f 58/2/45 60/2/45 57/2/45
f 55/2/98 58/2/98 57/2/98
f 34/2/99 61/2/99 58/2/99
f 30/2/100 34/2/100 58/2/100
f 62/2/101 34/2/101 30/2/101
f 59/2/101 62/2/101 30/2/101
f 63/2/102 62/2/102 59/2/102
f 60/2/103 63/2/103 59/2/103
f 61/2/104 63/2/104 60/2/104
f 58/2/104 61/2/104 60/2/104
f 40/2/52 3/2/52 38/2/52
f 42/2/52 40/2/52 38/2/52
f 34/2/53 62/2/53 61/2/53
f 62/2/53 63/2/53 61/2/53
f 64/2/105 1/2/105 4/2/105
f 65/2/106 64/2/106 4/2/106
f 66/2/107 64/2/107 65/2/107
f 67/2/107 66/2/107 65/2/107
f 68/2/108 66/2/108 67/2/108
f 69/2/109 68/2/109 67/2/109
f 1/2/110 68/2/110 69/2/110
f 4/2/110 1/2/110 69/2/110
f 70/2/111 9/2/111 1/2/111
f 64/2/112 70/2/112 1/2/112
f 71/2/113 70/2/113 64/2/113
f 66/2/114 71/2/114 64/2/114
f 72/2/115 71/2/115 66/2/115
f 68/2/116 72/2/116 66/2/116
f 9/2/117 72/2/117 68/2/117
f 1/2/118 9/2/118 68/2/118
f 73/2/119 13/2/119 9/2/119
f 70/2/120 73/2/120 9/2/120
f 74/2/121 73/2/121 70/2/121
f 71/2/121 74/2/121 70/2/121
f 75/2/122 74/2/122 71/2/122
f 72/2/123 75/2/123 71/2/123
f 13/2/124 75/2/124 72/2/124
f 9/2/124 13/2/124 72/2/124
f 76/2/125 17/2/125 13/2/125
f 73/2/126 76/2/126 13/2/126
f 77/2/127 76/2/127 73/2/127
f 74/2/127 77/2/127 73/2/127
f 78/2/128 77/2/128 74/2/128
f 75/2/129 78/2/129 74/2/129
f 17/2/130 78/2/130 75/2/130
f 13/2/130 17/2/130 75/2/130
f 79/2/131 21/2/131 17/2/131
f 76/2/132 79/2/132 17/2/132
f 80/2/133 79/2/133 76/2/133
f 77/2/133 80/2/133 76/2/133
f 81/2/134 80/2/134 77/2/134
f 78/2/135 81/2/135 77/2/135
f 21/2/136 81/2/136 78/2/136
f 17/2/136 21/2/136 78/2/136
f 82/2/137 25/2/137 21/2/137
f 79/2/138 82/2/138 21/2/138
f 83/2/139 82/2/139 79/2/139
f 80/2/140 83/2/140 79/2/140
f 84/2/141 83/2/141 80/2/141
f 81/2/142 84/2/142 80/2/142
f 25/2/143 84/2/143 81/2/143
f 21/2/144 25/2/144 81/2/144
f 85/2/145 29/2/145 25/2/145
f 82/2/146 85/2/146 25/2/146
f 86/2/147 85/2/147 82/2/147
f 83/2/148 86/2/148 82/2/148
f 87/2/149 86/2/149 83/2/149
f 84/2/150 87/2/150 83/2/150
f 29/2/151 87/2/151 84/2/151
f 25/2/152 29/2/152 84/2/152
f 88/2/153 33/2/153 29/2/153
f 85/2/154 88/2/154 29/2/154
f 89/2/155 88/2/155 85/2/155
f 86/2/155 89/2/155 85/2/155
f 90/2/156 89/2/156 86/2/156
f 87/2/157 90/2/157 86/2/157
f 33/2/158 90/2/158 87/2/158
f 29/2/158 33/2/158 87/2/158
f 67/2/52 65/2/52 4/2/52
f 69/2/52 67/2/52 4/2/52
f 88/2/53 89/2/53 33/2/53
f 89/2/53 90/2/53 33/2/53
f 91/3/159 92/3/159 93/3/159
f 94/3/160 91/3/160 93/3/160
f 95/3/56 91/3/56 94/3/56
f 96/3/56 95/3/56 94/3/56
f 97/3/161 95/3/161 96/3/161
f 98/3/162 97/3/162 96/3/162
f 92/3/163 97/3/163 98/3/163
f 93/3/163 92/3/163 98/3/163
f 99/3/164 100/3/164 92/3/164
f 91/3/165 99/3/165 92/3/165
f 101/3/114 99/3/114 91/3/114
f 95/3/166 101/3/166 91/3/166
f 102/3/167 101/3/167 95/3/167
f 97/3/168 102/3/168 95/3/168
f 100/3/118 102/3/118 97/3/118
f 92/3/169 100/3/169 97/3/169
f 103/3/170 104/3/170 100/3/170
f 99/3/171 103/3/171 100/3/171
f 105/3/172 103/3/172 99/3/172
f 101/3/172 105/3/172 99/3/172
f 106/3/173 105/3/173 101/3/173
f 102/3/174 106/3/174 101/3/174
f 104/3/175 106/3/175 102/3/175
f 100/3/175 104/3/175 102/3/175
f 107/3/176 108/3/176 104/3/176
f 103/3/177 107/3/177 104/3/177
f 109/3/178 107/3/178 103/3/178
f 105/3/178 109/3/178 103/3/178
f 110/3/179 109/3/179 105/3/179
f 106/3/180 110/3/180 105/3/180
f 108/3/181 110/3/181 106/3/181
f 104/3/181 108/3/181 106/3/181
f 111/3/182 112/3/182 108/3/182
f 107/3/183 111/3/183 108/3/183
f 113/3/81 111/3/81 107/3/81
f 109/3/81 113/3/81 107/3/81
f 114/3/184 113/3/184 109/3/184
f 110/3/185 114/3/185 109/3/185
f 112/3/186 114/3/186 110/3/186
f 108/3/186 112/3/186 110/3/186
f 115/3/187 116/3/187 112/3/187
f 111/3/188 115/3/188 112/3/188
f 117/3/189 115/3/189 111/3/189
f 113/3/189 117/3/189 111/3/189
f 118/3/190 117/3/190 113/3/190
f 114/3/191 118/3/191 113/3/191
f 116/3/192 118/3/192 114/3/192
f 112/3/192 116/3/192 114/3/192
f 119/3/193 120/3/193 116/3/193
f 115/3/194 119/3/194 116/3/194
f 121/3/195 119/3/195 115/3/195
f 117/3/195 121/3/195 115/3/195
f 122/3/196 121/3/196 117/3/196
f 118/3/197 122/3/197 117/3/197
f 120/3/198 122/3/198 118/3/198
f 116/3/198 120/3/198 118/3/198
f 123/3/199 124/3/199 120/3/199
f 119/3/200 123/3/200 120/3/200
f 125/3/201 123/3/201 119/3/201
f 121/3/201 125/3/201 119/3/201
f 126/3/202 125/3/202 121/3/202
f 122/3/203 126/3/203 121/3/203
f 124/3/204 126/3/204 122/3/204
f 120/3/204 124/3/204 122/3/204
f 96/3/52 94/3/52 93/3/52
f 98/3/52 96/3/52 93/3/52
f 123/3/53 125/3/53 124/3/53
f 125/3/53 126/3/53 124/3/53
f 127/3/205 128/3/205 129/3/205
f 130/3/206 127/3/206 129/3/206
f 131/3/207 127/3/207 130/3/207
f 132/3/207 131/3/207 130/3/207
f 133/3/208 131/3/208 132/3/208
f 134/3/209 133/3/209 132/3/209
f 128/3/210 133/3/210 134/3/210
f 129/3/210 128/3/210 134/3/210
f 135/3/211 136/3/211 128/3/211
f 127/3/212 135/3/212 128/3/212
f 137/3/213 135/3/213 127/3/213
f 131/3/214 137/3/214 127/3/214
f 138/3/215 137/3/215 131/3/215
f 133/3/216 138/3/216 131/3/216
f 136/3/217 138/3/217 133/3/217
f 128/3/218 136/3/218 133/3/218
f 139/3/219 140/3/219 136/3/219
f 135/3/220 139/3/220 136/3/220
f 141/3/221 139/3/221 135/3/221
f 137/3/221 141/3/221 135/3/221
f 142/3/222 141/3/222 137/3/222
f 138/3/223 142/3/223 137/3/223
f 140/3/73 142/3/73 138/3/73
f 136/3/73 140/3/73 138/3/73
f 143/3/224 144/3/224 140/3/224
f 139/3/225 143/3/225 140/3/225
f 145/3/226 143/3/226 139/3/226
f 141/3/226 145/3/226 139/3/226
f 146/3/227 145/3/227 141/3/227
f 142/3/228 146/3/228 141/3/228
f 144/3/229 146/3/229 142/3/229
f 140/3/229 144/3/229 142/3/229
f 147/3/230 148/3/230 144/3/230
f 143/3/231 147/3/231 144/3/231
f 149/3/232 147/3/232 143/3/232
f 145/3/232 149/3/232 143/3/232
f 150/3/233 149/3/233 145/3/233
f 146/3/234 150/3/234 145/3/234
f 148/3/235 150/3/235 146/3/235
f 144/3/235 148/3/235 146/3/235
f 151/3/236 152/3/236 148/3/236
f 147/3/237 151/3/237 148/3/237
f 153/3/238 151/3/238 147/3/238
f 149/3/238 153/3/238 147/3/238
f 154/3/239 153/3/239 149/3/239
f 150/3/240 154/3/240 149/3/240
f 152/3/241 154/3/241 150/3/241
f 148/3/241 152/3/241 150/3/241
f 155/3/242 156/3/242 152/3/242
f 151/3/243 155/3/243 152/3/243
f 157/3/244 155/3/244 151/3/244
f 153/3/244 157/3/244 151/3/244
f 158/3/245 157/3/245 153/3/245
f 154/3/246 158/3/246 153/3/246
f 156/3/247 158/3/247 154/3/247
f 152/3/247 156/3/247 154/3/247
f 159/3/248 160/3/248 156/3/248
f 155/3/249 159/3/249 156/3/249
f 161/3/250 159/3/250 155/3/250
f 157/3/250 161/3/250 155/3/250
f 162/3/251 161/3/251 157/3/251
f 158/3/252 162/3/252 157/3/252
f 160/3/51 162/3/51 158/3/51
f 156/3/51 160/3/51 158/3/51
f 132/3/52 130/3/52 129/3/52
f 134/3/52 132/3/52 129/3/52
f 159/3/53 161/3/53 160/3/53
f 161/3/53 162/3/53 160/3/53
f 163/4/253 164/4/253 165/4/253
f 163/4/254 165/4/254 166/4/254
f 166/4/13 165/4/13 167/4/13
f 166/4/255 167/4/255 168/4/255
f 168/4/256 167/4/256 169/4/256
f 168/4/257 169/4/257 170/4/257
f 170/4/258 169/4/258 164/4/258
f 170/4/10 164/4/10 163/4/10
f 163/4/259 166/4/259 168/4/259
f 163/4/259 168/4/259 170/4/259
f 164/4/260 167/4/260 165/4/260
f 164/4/260 169/4/260 167/4/260
f 171/4/261 172/4/261 173/4/261
f 171/4/262 173/4/262 174/4/262
f 174/4/263 173/4/263 175/4/263
f 174/4/264 175/4/264 176/4/264
f 176/4/265 175/4/265 177/4/265
f 176/4/266 177/4/266 178/4/266
f 178/4/267 177/4/267 172/4/267
f 178/4/226 172/4/226 171/4/226
f 171/4/268 174/4/268 176/4/268
f 171/4/268 176/4/268 178/4/268
f 172/4/269 175/4/269 173/4/269
f 172/4/269 177/4/269 175/4/269
f 179/4/270 180/4/270 181/4/270
f 179/4/271 181/4/271 182/4/271
f 182/4/272 181/4/272 183/4/272
f 182/4/273 183/4/273 184/4/273
f 184/4/274 183/4/274 185/4/274
f 184/4/275 185/4/275 186/4/275
f 186/4/276 185/4/276 180/4/276
f 186/4/276 180/4/276 179/4/276
f 179/4/277 182/4/277 184/4/277
f 179/4/277 184/4/277 186/4/277
f 180/4/278 183/4/278 181/4/278
f 180/4/278 185/4/278 183/4/278
f 187/4/279 188/4/279 189/4/279
f 187/4/280 189/4/280 190/4/280
f 190/4/158 189/4/158 191/4/158
f 190/4/204 191/4/204 192/4/204
f 192/4/281 191/4/281 193/4/281
f 192/4/282 193/4/282 194/4/282
f 194/4/101 193/4/101 188/4/101
f 194/4/201 188/4/201 187/4/201
f 187/4/283 190/4/283 192/4/283
f 187/4/283 192/4/283 194/4/283
f 188/4/284 191/4/284 189/4/284
f 188/4/284 193/4/284 191/4/284
