# CargoTrackRight - generated by Tools/generate_meshes.py, do not hand-edit
# Regenerate with: python Tools/generate_meshes.py
o CargoTrackRight
v 7.32726 -0.42000 3.43676
v 8.77093 -0.42000 -3.82105
v 10.00000 -0.42000 -3.70000
v 10.00000 -0.42000 3.70000
v 7.32726 0.00000 3.43676
v 10.00000 0.00000 3.70000
v 8.77093 0.00000 -3.82105
v 10.00000 0.00000 -3.70000
v 4.75724 -0.42000 2.65715
v 7.58909 -0.42000 -4.17956
v 4.75724 0.00000 2.65715
v 7.58909 0.00000 -4.17956
v 2.38869 -0.42000 1.39113
v 6.49991 -0.42000 -4.76174
v 2.38869 0.00000 1.39113
v 6.49991 0.00000 -4.76174
v 0.31264 -0.42000 -0.31264
v 5.54523 -0.42000 -5.54523
v 0.31264 0.00000 -0.31264
v 5.54523 0.00000 -5.54523
v -1.39113 -0.42000 -2.38869
v 4.76174 -0.42000 -6.49991
v -1.39113 0.00000 -2.38869
v 4.76174 0.00000 -6.49991
v -2.65715 -0.42000 -4.75724
v 4.17956 -0.42000 -7.58909
v -2.65715 0.00000 -4.75724
v 4.17956 0.00000 -7.58909
v -3.43676 -0.42000 -7.32726
v 3.82105 -0.42000 -8.77093
v -3.43676 0.00000 -7.32726
v 3.82105 0.00000 -8.77093
v -3.70000 -0.42000 -10.00000
v 3.70000 -0.42000 -10.00000
v -3.70000 0.00000 -10.00000
v 3.70000 0.00000 -10.00000
v 8.91725 -0.42000 -4.55664
v 10.00000 -0.42000 -4.45000
v 8.91725 1.15000 -4.55664
v 10.00000 1.15000 -4.45000
v 8.77093 1.15000 -3.82105
v 10.00000 1.15000 -3.70000
v 7.87611 -0.42000 -4.87247
v 7.87611 1.15000 -4.87247
v 7.58909 1.15000 -4.17956
v 6.91659 -0.42000 -5.38534
v 6.91659 1.15000 -5.38534
v 6.49991 1.15000 -4.76174
v 6.07556 -0.42000 -6.07556
v 6.07556 1.15000 -6.07556
v 5.54523 1.15000 -5.54523
v 5.38534 -0.42000 -6.91659
v 5.38534 1.15000 -6.91659
v 4.76174 1.15000 -6.49991
v 4.87247 -0.42000 -7.87611
v 4.87247 1.15000 -7.87611
v 4.17956 1.15000 -7.58909
v 4.55664 -0.42000 -8.91725
v 4.55664 1.15000 -8.91725
v 3.82105 1.15000 -8.77093
v 4.45000 -0.42000 -10.00000
v 4.45000 1.15000 -10.00000
v 3.70000 1.15000 -10.00000
v 7.18094 -0.42000 4.17235
v 10.00000 -0.42000 4.45000
v 7.18094 1.15000 4.17235
v 10.00000 1.15000 4.45000
v 7.32726 1.15000 3.43676
v 10.00000 1.15000 3.70000
v 4.47022 -0.42000 3.35006
v 4.47022 1.15000 3.35006
v 4.75724 1.15000 2.65715
v 1.97201 -0.42000 2.01474
v 1.97201 1.15000 2.01474
v 2.38869 1.15000 1.39113
v -0.21769 -0.42000 0.21769
v -0.21769 1.15000 0.21769
v 0.31264 1.15000 -0.31264
v -2.01474 -0.42000 -1.97201
v -2.01474 1.15000 -1.97201
v -1.39113 1.15000 -2.38869
v -3.35006 -0.42000 -4.47022
v -3.35006 1.15000 -4.47022
v -2.65715 1.15000 -4.75724
v -4.17235 -0.42000 -7.18094
v -4.17235 1.15000 -7.18094
v -3.43676 1.15000 -7.32726
v -4.45000 -0.42000 -10.00000
v -4.45000 1.15000 -10.00000
v -3.70000 1.15000 -10.00000
v 8.94651 1.10000 -4.70376
v 8.74167 1.10000 -3.67393
v 10.00000 1.10000 -3.55000
v 10.00000 1.10000 -4.60000
v 8.94651 1.42000 -4.70376
v 10.00000 1.42000 -4.60000
v 8.74167 1.42000 -3.67393
v 10.00000 1.42000 -3.55000
v 7.93351 1.10000 -5.01105
v 7.53169 1.10000 -4.04098
v 7.93351 1.42000 -5.01105
v 7.53169 1.42000 -4.04098
v 6.99992 1.10000 -5.51006
v 6.41657 1.10000 -4.63702
v 6.99992 1.42000 -5.51006
v 6.41657 1.42000 -4.63702
v 6.18162 1.10000 -6.18162
v 5.43916 1.10000 -5.43916
v 6.18162 1.42000 -6.18162
v 5.43916 1.42000 -5.43916
v 5.51006 1.10000 -6.99992
v 4.63702 1.10000 -6.41657
v 5.51006 1.42000 -6.99992
v 4.63702 1.42000 -6.41657
v 5.01105 1.10000 -7.93351
v 4.04098 1.10000 -7.53169
v 5.01105 1.42000 -7.93351
v 4.04098 1.42000 -7.53169
v 4.70376 1.10000 -8.94651
v 3.67393 1.10000 -8.74167
v 4.70376 1.42000 -8.94651
v 3.67393 1.42000 -8.74167
v 4.60000 1.10000 -10.00000
v 3.55000 1.10000 -10.00000
v 4.60000 1.42000 -10.00000
v 3.55000 1.42000 -10.00000
v 7.15168 1.10000 4.31947
v 7.35653 1.10000 3.28964
v 10.00000 1.10000 3.55000
v 10.00000 1.10000 4.60000
v 7.15168 1.42000 4.31947
v 10.00000 1.42000 4.60000
v 7.35653 1.42000 3.28964
v 10.00000 1.42000 3.55000
v 4.41282 1.10000 3.48864
v 4.81464 1.10000 2.51857
v 4.41282 1.42000 3.48864
v 4.81464 1.42000 2.51857
v 1.88867 1.10000 2.13946
v 2.47202 1.10000 1.26641
v 1.88867 1.42000 2.13946
v 2.47202 1.42000 1.26641
v -0.32376 1.10000 0.32376
v 0.41870 1.10000 -0.41870
v -0.32376 1.42000 0.32376
v 0.41870 1.42000 -0.41870
v -2.13946 1.10000 -1.88867
v -1.26641 1.10000 -2.47202
v -2.13946 1.42000 -1.88867
v -1.26641 1.42000 -2.47202
v -3.48864 1.10000 -4.41282
v -2.51857 1.10000 -4.81464
v -3.48864 1.42000 -4.41282
v -2.51857 1.42000 -4.81464
v -4.31947 1.10000 -7.15168
v -3.28964 1.10000 -7.35653
v -4.31947 1.42000 -7.15168
v -3.28964 1.42000 -7.35653
v -4.60000 1.10000 -10.00000
v -3.55000 1.10000 -10.00000
v -4.60000 1.42000 -10.00000
v -3.55000 1.42000 -10.00000
v 4.87204 -0.44000 2.37999
v 7.47429 -0.44000 -3.90240
v 8.71240 -0.44000 -3.52682
v 7.38579 -0.44000 3.14252
v 4.87204 -0.18000 2.37999
v 7.38579 -0.18000 3.14252
v 7.47429 -0.18000 -3.90240
v 8.71240 -0.18000 -3.52682
v 0.52477 -0.44000 -0.52477
v 5.33310 -0.44000 -5.33310
v 6.33324 -0.44000 -4.51230
v 2.55536 -0.44000 1.14169
v 0.52477 -0.18000 -0.52477
v 2.55536 -0.18000 1.14169
v 5.33310 -0.18000 -5.33310
v 6.33324 -0.18000 -4.51230
v -2.37999 -0.44000 -4.87204
v 3.90240 -0.44000 -7.47429
v 4.51230 -0.44000 -6.33324
v -1.14169 -0.44000 -2.55536
v -2.37999 -0.18000 -4.87204
v -1.14169 -0.18000 -2.55536
v 3.90240 -0.18000 -7.47429
v 4.51230 -0.18000 -6.33324
v -3.40000 -0.44000 -10.00000
v 3.40000 -0.44000 -10.00000
v 3.52682 -0.44000 -8.71240
v -3.14252 -0.44000 -7.38579
v -3.40000 -0.18000 -10.00000
v -3.14252 -0.18000 -7.38579
v 3.40000 -0.18000 -10.00000
v 3.52682 -0.18000 -8.71240
vt 0.07000 0.01000
vt 0.06000 0.01000
vt 0.02000 0.01000
vt 0.08000 0.01000
vn 0.00000 -1.00000 0.00000
vn -0.09802 0.00000 0.99518
vn 0.00000 1.00000 -0.00000
vn 0.09802 0.00000 -0.99518
vn -0.29028 0.00000 0.95694
vn 0.29028 0.00000 -0.95694
vn -0.47140 0.00000 0.88192
vn 0.47140 0.00000 -0.88192
vn -0.63439 0.00000 0.77301
vn 0.63439 0.00000 -0.77301
vn -0.77301 0.00000 0.63439
vn 0.77301 0.00000 -0.63439
vn -0.88192 0.00000 0.47140
vn 0.88192 0.00000 -0.47140
vn -0.95694 0.00000 0.29028
vn 0.95694 0.00000 -0.29028
vn -0.99518 0.00000 0.09802
vn 0.99518 0.00000 -0.09802
vn 1.00000 0.00000 0.00000
vn 0.00000 0.00000 -1.00000
vn -0.09802 0.00000 0.99518
vn 0.09802 0.00000 -0.99518
vn -0.29028 0.00000 0.95694
vn 0.29028 0.00000 -0.95694
vn -0.47140 0.00000 0.88192
vn 0.47140 0.00000 -0.88192
vn -0.63439 0.00000 0.77301
vn 0.63439 0.00000 -0.77301
vn -0.77301 0.00000 0.63439
vn 0.77301 0.00000 -0.63439
vn -0.88192 0.00000 0.47140
vn 0.88192 0.00000 -0.47140
vn -0.95694 0.00000 0.29028
vn 0.95694 0.00000 -0.29028
vn -0.99518 0.00000 0.09802
vn 0.99518 0.00000 -0.09802
vn -1.00000 0.00000 0.00000
vn 0.00000 -0.00000 1.00000
vn -0.09802 0.00000 0.99518
vn 0.09802 0.00000 -0.99518
vn -0.29028 0.00000 0.95694
vn 0.29028 0.00000 -0.95694
vn -0.47140 0.00000 0.88192
vn 0.47140 0.00000 -0.88192
vn -0.63439 0.00000 0.77301
vn 0.63439 0.00000 -0.77301
vn 0.77301 0.00000 -0.63439
vn -0.88192 0.00000 0.47140
vn 0.88192 0.00000 -0.47140
vn -0.95694 0.00000 0.29028
vn 0.95694 0.00000 -0.29028
vn -0.99518 0.00000 0.09802
vn 0.99518 0.00000 -0.09802
vn -0.09802 0.00000 0.99518
vn 0.09802 0.00000 -0.99518
vn -0.29028 0.00000 0.95694
vn 0.29028 0.00000 -0.95694
vn -0.47140 0.00000 0.88192
vn 0.47140 0.00000 -0.88192
vn 0.63439 0.00000 -0.77301
vn -0.77301 0.00000 0.63439
vn 0.77301 0.00000 -0.63439
vn -0.88192 0.00000 0.47140
vn 0.88192 0.00000 -0.47140
vn -0.95694 0.00000 0.29028
vn 0.95694 0.00000 -0.29028
vn -0.99518 0.00000 0.09802
vn 0.99518 0.00000 -0.09802
vn -0.09802 0.00000 0.99518
vn 0.29028 0.00000 -0.95694
vn -0.47140 0.00000 0.88192
vn 0.47140 0.00000 -0.88192
vn 0.63439 0.00000 -0.77301
vn -0.77301 0.00000 0.63439
vn 0.77301 0.00000 -0.63439
vn -0.88192 0.00000 0.47140
vn 0.88192 0.00000 -0.47140
vn -0.95694 0.00000 0.29028
vn 0.95694 0.00000 -0.29028
vn -0.99518 0.00000 0.09802
vn 0.99518 0.00000 -0.09802
vn -0.29028 0.00000 0.95694
vn 0.29028 0.00000 -0.95694
vn 0.98079 0.00000 0.19509
vn -0.92388 0.00000 -0.38268
vn -0.63439 0.00000 0.77301
vn 0.63439 0.00000 -0.77301
vn 0.83147 0.00000 0.55557
vn -0.70711 0.00000 -0.70711
vn -0.88192 0.00000 0.47140
vn 0.88192 0.00000 -0.47140
vn 0.55557 0.00000 0.83147
vn -0.38268 0.00000 -0.92388
vn 0.19509 0.00000 0.98079
f 1/1/1 2/1/1 3/1/1
f 4/1/1 1/1/1 3/1/1
f 5/1/2 1/1/2 4/1/2
f 6/1/2 5/1/2 4/1/2
f 7/1/3 5/1/3 6/1/3
f 8/1/3 7/1/3 6/1/3
f 2/1/4 7/1/4 8/1/4
f 3/1/4 2/1/4 8/1/4
f 9/1/1 10/1/1 2/1/1
f 1/1/1 9/1/1 2/1/1
f 11/1/5 9/1/5 1/1/5
f 5/1/5 11/1/5 1/1/5
f 12/1/3 11/1/3 5/1/3
f 7/1/3 12/1/3 5/1/3
f 10/1/6 12/1/6 7/1/6
f 2/1/6 10/1/6 7/1/6
f 13/1/1 14/1/1 10/1/1
f 9/1/1 13/1/1 10/1/1
f 15/1/7 13/1/7 9/1/7
f 11/1/7 15/1/7 9/1/7
f 16/1/3 15/1/3 11/1/3
f 12/1/3 16/1/3 11/1/3
f 14/1/8 16/1/8 12/1/8
f 10/1/8 14/1/8 12/1/8
f 17/1/1 18/1/1 14/1/1
f 13/1/1 17/1/1 14/1/1
f 19/1/9 17/1/9 13/1/9
f 15/1/9 19/1/9 13/1/9
f 20/1/3 19/1/3 15/1/3
f 16/1/3 20/1/3 15/1/3
f 18/1/10 20/1/10 16/1/10
f 14/1/10 18/1/10 16/1/10
f 21/1/1 22/1/1 18/1/1
f 17/1/1 21/1/1 18/1/1
f 23/1/11 21/1/11 17/1/11
f 19/1/11 23/1/11 17/1/11
f 24/1/3 23/1/3 19/1/3
f 20/1/3 24/1/3 19/1/3
f 22/1/12 24/1/12 20/1/12
f 18/1/12 22/1/12 20/1/12
f 25/1/1 26/1/1 22/1/1
f 21/1/1 25/1/1 22/1/1
f 27/1/13 25/1/13 21/1/13
f 23/1/13 27/1/13 21/1/13
f 28/1/3 27/1/3 23/1/3
f 24/1/3 28/1/3 23/1/3
f 26/1/14 28/1/14 24/1/14
f 22/1/14 26/1/14 24/1/14
f 29/1/1 30/1/1 26/1/1
f 25/1/1 29/1/1 26/1/1
f 31/1/15 29/1/15 25/1/15
f 27/1/15 31/1/15 25/1/15
f 32/1/3 31/1/3 27/1/3
f 28/1/3 32/1/3 27/1/3
f 30/1/16 32/1/16 28/1/16
f 26/1/16 30/1/16 28/1/16
f 33/1/1 34/1/1 30/1/1
f 29/1/1 33/1/1 30/1/1
f 35/1/17 33/1/17 29/1/17
f 31/1/17 35/1/17 29/1/17
f 36/1/3 35/1/3 31/1/3
f 32/1/3 36/1/3 31/1/3
f 34/1/18 36/1/18 32/1/18
f 30/1/18 34/1/18 32/1/18
f 6/1/19 4/1/19 3/1/19
f 8/1/19 6/1/19 3/1/19
f 33/1/20 35/1/20 34/1/20
f 35/1/20 36/1/20 34/1/20
f 37/2/3 2/2/3 3/2/3
f 38/2/3 37/2/3 3/2/3
f 39/2/21 37/2/21 38/2/21
f 40/2/21 39/2/21 38/2/21
f 41/2/1 39/2/1 40/2/1
f 42/2/1 41/2/1 40/2/1
f 2/2/22 41/2/22 42/2/22
f 3/2/22 2/2/22 42/2/22
f 43/2/3 10/2/3 2/2/3
f 37/2/3 43/2/3 2/2/3
f 44/2/23 43/2/23 37/2/23
f 39/2/23 44/2/23 37/2/23
f 45/2/1 44/2/1 39/2/1
f 41/2/1 45/2/1 39/2/1
f 10/2/24 45/2/24 41/2/24
f 2/2/24 10/2/24 41/2/24
f 46/2/3 14/2/3 10/2/3
f 43/2/3 46/2/3 10/2/3
f 47/2/25 46/2/25 43/2/25
f 44/2/25 47/2/25 43/2/25
f 48/2/1 47/2/1 44/2/1
f 45/2/1 48/2/1 44/2/1
f 14/2/26 48/2/26 45/2/26
f 10/2/26 14/2/26 45/2/26
f 49/2/3 18/2/3 14/2/3
f 46/2/3 49/2/3 14/2/3
f 50/2/27 49/2/27 46/2/27
f 47/2/27 50/2/27 46/2/27
f 51/2/1 50/2/1 47/2/1
f 48/2/1 51/2/1 47/2/1
f 18/2/28 51/2/28 48/2/28
f 14/2/28 18/2/28 48/2/28
f 52/2/3 22/2/3 18/2/3
f 49/2/3 52/2/3 18/2/3
f 53/2/29 52/2/29 49/2/29
f 50/2/29 53/2/29 49/2/29
f 54/2/1 53/2/1 50/2/1
f 51/2/1 54/2/1 50/2/1
f 22/2/30 54/2/30 51/2/30
f 18/2/30 22/2/30 51/2/30
f 55/2/3 26/2/3 22/2/3
f 52/2/3 55/2/3 22/2/3
f 56/2/31 55/2/31 52/2/31
f 53/2/31 56/2/31 52/2/31
f 57/2/1 56/2/1 53/2/1
f 54/2/1 57/2/1 53/2/1
f 26/2/32 57/2/32 54/2/32
f 22/2/32 26/2/32 54/2/32
f 58/2/3 30/2/3 26/2/3
f 55/2/3 58/2/3 26/2/3
f 59/2/33 58/2/33 55/2/33
f 56/2/33 59/2/33 55/2/33
f 60/2/1 59/2/1 56/2/1
f 57/2/1 60/2/1 56/2/1
f 30/2/34 60/2/34 57/2/34
f 26/2/34 30/2/34 57/2/34
f 61/2/3 34/2/3 30/2/3
f 58/2/3 61/2/3 30/2/3
f 62/2/35 61/2/35 58/2/35
f 59/2/35 62/2/35 58/2/35
f 63/2/1 62/2/1 59/2/1
f 60/2/1 63/2/1 59/2/1
f 34/2/36 63/2/36 60/2/36
f 30/2/36 34/2/36 60/2/36
f 40/2/37 38/2/37 3/2/37
f 42/2/37 40/2/37 3/2/37
f 61/2/38 62/2/38 34/2/38
f 62/2/38 63/2/38 34/2/38
f 64/2/1 1/2/1 4/2/1
f 65/2/1 64/2/1 4/2/1
f 66/2/39 64/2/39 65/2/39
f 67/2/39 66/2/39 65/2/39
f 68/2/3 66/2/3 67/2/3
f 69/2/3 68/2/3 67/2/3
f 1/2/40 68/2/40 69/2/40
f 4/2/40 1/2/40 69/2/40
f 70/2/1 9/2/1 1/2/1
f 64/2/1 70/2/1 1/2/1
f 71/2/41 70/2/41 64/2/41
f 66/2/41 71/2/41 64/2/41
f 72/2/3 71/2/3 66/2/3
f 68/2/3 72/2/3 66/2/3
f 9/2/42 72/2/42 68/2/42
f 1/2/42 9/2/42 68/2/42
f 73/2/1 13/2/1 9/2/1
f 70/2/1 73/2/1 9/2/1
f 74/2/43 73/2/43 70/2/43
f 71/2/43 74/2/43 70/2/43
f 75/2/3 74/2/3 71/2/3
f 72/2/3 75/2/3 71/2/3
f 13/2/44 75/2/44 72/2/44
f 9/2/44 13/2/44 72/2/44
f 76/2/1 17/2/1 13/2/1
f 73/2/1 76/2/1 13/2/1
f 77/2/45 76/2/45 73/2/45
f 74/2/45 77/2/45 73/2/45
f 78/2/3 77/2/3 74/2/3
f 75/2/3 78/2/3 74/2/3
f 17/2/46 78/2/46 75/2/46
f 13/2/46 17/2/46 75/2/46
f 79/2/1 21/2/1 17/2/1
f 76/2/1 79/2/1 17/2/1
f 80/2/11 79/2/11 76/2/11
f 77/2/11 80/2/11 76/2/11
f 81/2/3 80/2/3 77/2/3
f 78/2/3 81/2/3 77/2/3
f 21/2/47 81/2/47 78/2/47
f 17/2/47 21/2/47 78/2/47
f 82/2/1 25/2/1 21/2/1
f 79/2/1 82/2/1 21/2/1
f 83/2/48 82/2/48 79/2/48
f 80/2/48 83/2/48 79/2/48
f 84/2/3 83/2/3 80/2/3
f 81/2/3 84/2/3 80/2/3
f 25/2/49 84/2/49 81/2/49
f 21/2/49 25/2/49 81/2/49
f 85/2/1 29/2/1 25/2/1
f 82/2/1 85/2/1 25/2/1
f 86/2/50 85/2/50 82/2/50
f 83/2/50 86/2/50 82/2/50
f 87/2/3 86/2/3 83/2/3
f 84/2/3 87/2/3 83/2/3
f 29/2/51 87/2/51 84/2/51
f 25/2/51 29/2/51 84/2/51
f 88/2/1 33/2/1 29/2/1
f 85/2/1 88/2/1 29/2/1
f 89/2/52 88/2/52 85/2/52
f 86/2/52 89/2/52 85/2/52
f 90/2/3 89/2/3 86/2/3
f 87/2/3 90/2/3 86/2/3
f 33/2/53 90/2/53 87/2/53
f 29/2/53 33/2/53 87/2/53
f 67/2/19 65/2/19 4/2/19
f 69/2/19 67/2/19 4/2/19
f 88/2/20 89/2/20 33/2/20
f 89/2/20 90/2/20 33/2/20
f 91/3/3 92/3/3 93/3/3
f 94/3/3 91/3/3 93/3/3
f 95/3/54 91/3/54 94/3/54
f 96/3/54 95/3/54 94/3/54
f 97/3/1 95/3/1 96/3/1
f 98/3/1 97/3/1 96/3/1
f 92/3/55 97/3/55 98/3/55
f 93/3/55 92/3/55 98/3/55
f 99/3/3 100/3/3 92/3/3
f 91/3/3 99/3/3 92/3/3
f 101/3/56 99/3/56 91/3/56
f 95/3/56 101/3/56 91/3/56
f 102/3/1 101/3/1 95/3/1
f 97/3/1 102/3/1 95/3/1
f 100/3/57 102/3/57 97/3/57
f 92/3/57 100/3/57 97/3/57
f 103/3/3 104/3/3 100/3/3
f 99/3/3 103/3/3 100/3/3
f 105/3/58 103/3/58 99/3/58
f 101/3/58 105/3/58 99/3/58
f 106/3/1 105/3/1 101/3/1
f 102/3/1 106/3/1 101/3/1
f 104/3/59 106/3/59 102/3/59
f 100/3/59 104/3/59 102/3/59
f 107/3/3 108/3/3 104/3/3
f 103/3/3 107/3/3 104/3/3
f 109/3/45 107/3/45 103/3/45
f 105/3/45 109/3/45 103/3/45
f 110/3/1 109/3/1 105/3/1
f 106/3/1 110/3/1 105/3/1
f 108/3/60 110/3/60 106/3/60
f 104/3/60 108/3/60 106/3/60
f 111/3/3 112/3/3 108/3/3
f 107/3/3 111/3/3 108/3/3
f 113/3/61 111/3/61 107/3/61
f 109/3/61 113/3/61 107/3/61
f 114/3/1 113/3/1 109/3/1
f 110/3/1 114/3/1 109/3/1
f 112/3/62 114/3/62 110/3/62
f 108/3/62 112/3/62 110/3/62
f 115/3/3 116/3/3 112/3/3
f 111/3/3 115/3/3 112/3/3
f 117/3/63 115/3/63 111/3/63
f 113/3/63 117/3/63 111/3/63
f 118/3/1 117/3/1 113/3/1
f 114/3/1 118/3/1 113/3/1
f 116/3/64 118/3/64 114/3/64
f 112/3/64 116/3/64 114/3/64
f 119/3/3 120/3/3 116/3/3
f 115/3/3 119/3/3 116/3/3
f 121/3/65 119/3/65 115/3/65
f 117/3/65 121/3/65 115/3/65
f 122/3/1 121/3/1 117/3/1
f 118/3/1 122/3/1 117/3/1
f 120/3/66 122/3/66 118/3/66
f 116/3/66 120/3/66 118/3/66
f 123/3/3 124/3/3 120/3/3
f 119/3/3 123/3/3 120/3/3
f 125/3/67 123/3/67 119/3/67
f 121/3/67 125/3/67 119/3/67
f 126/3/1 125/3/1 121/3/1
f 122/3/1 126/3/1 121/3/1
f 124/3/68 126/3/68 122/3/68
f 120/3/68 124/3/68 122/3/68
f 96/3/37 94/3/37 93/3/37
f 98/3/37 96/3/37 93/3/37
f 123/3/38 125/3/38 124/3/38
f 125/3/38 126/3/38 124/3/38
f 127/3/1 128/3/1 129/3/1
f 130/3/1 127/3/1 129/3/1
f 131/3/69 127/3/69 130/3/69
f 132/3/69 131/3/69 130/3/69
f 133/3/3 131/3/3 132/3/3
f 134/3/3 133/3/3 132/3/3
f 128/3/40 133/3/40 134/3/40
f 129/3/40 128/3/40 134/3/40
f 135/3/1 136/3/1 128/3/1
f 127/3/1 135/3/1 128/3/1
f 137/3/23 135/3/23 127/3/23
f 131/3/23 137/3/23 127/3/23
f 138/3/3 137/3/3 131/3/3
f 133/3/3 138/3/3 131/3/3
f 136/3/70 138/3/70 133/3/70
f 128/3/70 136/3/70 133/3/70
f 139/3/1 140/3/1 136/3/1
f 135/3/1 139/3/1 136/3/1
f 141/3/71 139/3/71 135/3/71
f 137/3/71 141/3/71 135/3/71
f 142/3/3 141/3/3 137/3/3
f 138/3/3 142/3/3 137/3/3
f 140/3/72 142/3/72 138/3/72
f 136/3/72 140/3/72 138/3/72
f 143/3/1 144/3/1 140/3/1
f 139/3/1 143/3/1 140/3/1
f 145/3/9 143/3/9 139/3/9
f 141/3/9 145/3/9 139/3/9
f 146/3/3 145/3/3 141/3/3
f 142/3/3 146/3/3 141/3/3
f 144/3/73 146/3/73 142/3/73
f 140/3/73 144/3/73 142/3/73
f 147/3/1 148/3/1 144/3/1
f 143/3/1 147/3/1 144/3/1
f 149/3/74 147/3/74 143/3/74
f 145/3/74 149/3/74 143/3/74
f 150/3/3 149/3/3 145/3/3
f 146/3/3 150/3/3 145/3/3
f 148/3/75 150/3/75 146/3/75
f 144/3/75 148/3/75 146/3/75
f 151/3/1 152/3/1 148/3/1
f 147/3/1 151/3/1 148/3/1
f 153/3/76 151/3/76 147/3/76
f 149/3/76 153/3/76 147/3/76
f 154/3/3 153/3/3 149/3/3
f 150/3/3 154/3/3 149/3/3
f 152/3/77 154/3/77 150/3/77
f 148/3/77 152/3/77 150/3/77
f 155/3/1 156/3/1 152/3/1
f 151/3/1 155/3/1 152/3/1
f 157/3/78 155/3/78 151/3/78
f 153/3/78 157/3/78 151/3/78
f 158/3/3 157/3/3 153/3/3
f 154/3/3 158/3/3 153/3/3
f 156/3/79 158/3/79 154/3/79
f 152/3/79 156/3/79 154/3/79
f 159/3/1 160/3/1 156/3/1
f 155/3/1 159/3/1 156/3/1
f 161/3/80 159/3/80 155/3/80
f 157/3/80 161/3/80 155/3/80
f 162/3/3 161/3/3 157/3/3
f 158/3/3 162/3/3 157/3/3
f 160/3/81 162/3/81 158/3/81
f 156/3/81 160/3/81 158/3/81
f 132/3/19 130/3/19 129/3/19
f 134/3/19 132/3/19 129/3/19
f 159/3/20 161/3/20 160/3/20
f 161/3/20 162/3/20 160/3/20
f 163/4/1 164/4/1 165/4/1
f 166/4/1 163/4/1 165/4/1
f 167/4/82 163/4/82 166/4/82
f 168/4/82 167/4/82 166/4/82
f 169/4/3 167/4/3 168/4/3
f 170/4/3 169/4/3 168/4/3
f 164/4/83 169/4/83 170/4/83
f 165/4/83 164/4/83 170/4/83
f 168/4/84 166/4/84 165/4/84
f 170/4/84 168/4/84 165/4/84
f 163/4/85 167/4/85 164/4/85
f 167/4/85 169/4/85 164/4/85
f 171/4/1 172/4/1 173/4/1
f 174/4/1 171/4/1 173/4/1
f 175/4/86 171/4/86 174/4/86
f 176/4/86 175/4/86 174/4/86
f 177/4/3 175/4/3 176/4/3
f 178/4/3 177/4/3 176/4/3
f 172/4/87 177/4/87 178/4/87
f 173/4/87 172/4/87 178/4/87
f 176/4/88 174/4/88 173/4/88
f 178/4/88 176/4/88 173/4/88
f 171/4/89 175/4/89 172/4/89
f 175/4/89 177/4/89 172/4/89
f 179/4/1 180/4/1 181/4/1
f 182/4/1 179/4/1 181/4/1
f 183/4/90 179/4/90 182/4/90
f 184/4/90 183/4/90 182/4/90
f 185/4/3 183/4/3 184/4/3
f 186/4/3 185/4/3 184/4/3
f 180/4/91 185/4/91 186/4/91
f 181/4/91 180/4/91 186/4/91
f 184/4/92 182/4/92 181/4/92
f 186/4/92 184/4/92 181/4/92
f 179/4/93 183/4/93 180/4/93
f 183/4/93 185/4/93 180/4/93
f 187/4/1 188/4/1 189/4/1
f 190/4/1 187/4/1 189/4/1
f 191/4/80 187/4/80 190/4/80
f 192/4/80 191/4/80 190/4/80
f 193/4/3 191/4/3 192/4/3
f 194/4/3 193/4/3 192/4/3
f 188/4/81 193/4/81 194/4/81
f 189/4/81 188/4/81 194/4/81
f 192/4/94 190/4/94 189/4/94
f 194/4/94 192/4/94 189/4/94
f 187/4/20 191/4/20 188/4/20
f 191/4/20 193/4/20 188/4/20
