# CargoTrackSplitRightFwd - generated by Tools/generate_meshes.py, do not hand-edit
# Regenerate with: python Tools/generate_meshes.py
o CargoTrackSplitRightFwd
v -0.00000 -0.42000 3.70000
v -0.00000 -0.42000 -3.70000
v 10.00000 -0.42000 -3.70000
v 10.00000 -0.42000 3.70000
v -0.00000 0.00000 3.70000
v 10.00000 0.00000 3.70000
v -0.00000 0.00000 -3.70000
v 10.00000 0.00000 -3.70000
v -10.00000 -0.42000 3.70000
v -10.00000 -0.42000 -3.70000
v -10.00000 0.00000 3.70000
v -10.00000 0.00000 -3.70000
v -0.00000 -0.42000 -4.45000
v 10.00000 -0.42000 -4.45000
v -0.00000 1.15000 -3.70000
v 10.00000 1.15000 -3.70000
v -0.00000 1.15000 -4.45000
v 10.00000 1.15000 -4.45000
v -10.00000 -0.42000 -4.45000
v -10.00000 1.15000 -3.70000
v -10.00000 1.15000 -4.45000
v -0.00000 -0.42000 4.45000
v 10.00000 -0.42000 4.45000
v -0.00000 1.15000 4.45000
v 10.00000 1.15000 4.45000
v -0.00000 1.15000 3.70000
v 10.00000 1.15000 3.70000
v -10.00000 -0.42000 4.45000
v -10.00000 1.15000 4.45000
v -10.00000 1.15000 3.70000
v -0.00000 1.10000 -3.55000
v -0.00000 1.10000 -4.60000
v 10.00000 1.10000 -4.60000
v 10.00000 1.10000 -3.55000
v -0.00000 1.42000 -3.55000
v 10.00000 1.42000 -3.55000
v -0.00000 1.42000 -4.60000
v 10.00000 1.42000 -4.60000
v -10.00000 1.10000 -3.55000
v -10.00000 1.10000 -4.60000
v -10.00000 1.42000 -3.55000
v -10.00000 1.42000 -4.60000
v -0.00000 1.10000 4.60000
v -0.00000 1.10000 3.55000
v 10.00000 1.10000 3.55000
v 10.00000 1.10000 4.60000
v -0.00000 1.42000 4.60000
v 10.00000 1.42000 4.60000
v -0.00000 1.42000 3.55000
v 10.00000 1.42000 3.55000
v -10.00000 1.10000 4.60000
v -10.00000 1.10000 3.55000
v -10.00000 1.42000 4.60000
v -10.00000 1.42000 3.55000
v -10.00000 -0.44000 3.40000
v -10.00000 -0.44000 -3.40000
v -0.00000 -0.44000 -3.40000
v -0.00000 -0.44000 3.40000
v -10.00000 -0.18000 3.40000
v -0.00000 -0.18000 3.40000
v -10.00000 -0.18000 -3.40000
v -0.00000 -0.18000 -3.40000
v 7.32726 -0.42000 3.43676
v 8.77093 -0.42000 -3.82105
v 7.32726 0.00000 3.43676
v 8.77093 0.00000 -3.82105
v 4.75724 -0.42000 2.65715
v 7.58909 -0.42000 -4.17956
v 4.75724 0.00000 2.65715
v 7.58909 0.00000 -4.17956
v 2.38869 -0.42000 1.39113
v 6.49991 -0.42000 -4.76174
v 2.38869 0.00000 1.39113
v 6.49991 0.00000 -4.76174
v 0.31264 -0.42000 -0.31264
v 5.54523 -0.42000 -5.54523
v 0.31264 0.00000 -0.31264
v 5.54523 0.00000 -5.54523
v -1.39113 -0.42000 -2.38869
v 4.76174 -0.42000 -6.49991
v -1.39113 0.00000 -2.38869
v 4.76174 0.00000 -6.49991
v -2.65715 -0.42000 -4.75724
v 4.17956 -0.42000 -7.58909
v -2.65715 0.00000 -4.75724
v 4.17956 0.00000 -7.58909
v -3.43676 -0.42000 -7.32726
v 3.82105 -0.42000 -8.77093
v -3.43676 0.00000 -7.32726
v 3.82105 0.00000 -8.77093
v -3.70000 -0.42000 -10.00000
v 3.70000 -0.42000 -10.00000
v -3.70000 0.00000 -10.00000
v 3.70000 0.00000 -10.00000
v 8.91725 -0.42000 -4.55664
v 8.77093 1.15000 -3.82105
v 8.91725 1.15000 -4.55664
v 7.87611 -0.42000 -4.87247
v 7.58909 1.15000 -4.17956
v 7.87611 1.15000 -4.87247
v 6.91659 -0.42000 -5.38534
v 6.49991 1.15000 -4.76174
v 6.91659 1.15000 -5.38534
v 6.07556 -0.42000 -6.07556
v 5.54523 1.15000 -5.54523
v 6.07556 1.15000 -6.07556
v 5.38534 -0.42000 -6.91659
v 4.76174 1.15000 -6.49991
v 5.38534 1.15000 -6.91659
v 4.87247 -0.42000 -7.87611
v 4.17956 1.15000 -7.58909
v 4.87247 1.15000 -7.87611
v 4.55664 -0.42000 -8.91725
v 3.82105 1.15000 -8.77093
v 4.55664 1.15000 -8.91725
v 4.45000 -0.42000 -10.00000
v 3.70000 1.15000 -10.00000
v 4.45000 1.15000 -10.00000
v 7.18094 -0.42000 4.17235
v 7.18094 1.15000 4.17235
v 7.32726 1.15000 3.43676
v 4.47022 -0.42000 3.35006
v 4.47022 1.15000 3.35006
v 4.75724 1.15000 2.65715
v 1.97201 -0.42000 2.01474
v 1.97201 1.15000 2.01474
v 2.38869 1.15000 1.39113
v -0.21769 -0.42000 0.21769
v -0.21769 1.15000 0.21769
v 0.31264 1.15000 -0.31264
v -2.01474 -0.42000 -1.97201
v -2.01474 1.15000 -1.97201
v -1.39113 1.15000 -2.38869
v -3.35006 -0.42000 -4.47022
v -3.35006 1.15000 -4.47022
v -2.65715 1.15000 -4.75724
v -4.17235 -0.42000 -7.18094
v -4.17235 1.15000 -7.18094
v -3.43676 1.15000 -7.32726
v -4.45000 -0.42000 -10.00000
v -4.45000 1.15000 -10.00000
v -3.70000 1.15000 -10.00000
v 8.74167 1.10000 -3.67393
v 8.94651 1.10000 -4.70376
v 8.74167 1.42000 -3.67393
v 8.94651 1.42000 -4.70376
v 7.53169 1.10000 -4.04098
v 7.93351 1.10000 -5.01105
v 7.53169 1.42000 -4.04098
v 7.93351 1.42000 -5.01105
v 6.41657 1.10000 -4.63702
v 6.99992 1.10000 -5.51006
v 6.41657 1.42000 -4.63702
v 6.99992 1.42000 -5.51006
v 5.43916 1.10000 -5.43916
v 6.18162 1.10000 -6.18162
v 5.43916 1.42000 -5.43916
v 6.18162 1.42000 -6.18162
v 4.63702 1.10000 -6.41657
v 5.51006 1.10000 -6.99992
v 4.63702 1.42000 -6.41657
v 5.51006 1.42000 -6.99992
v 4.04098 1.10000 -7.53169
v 5.01105 1.10000 -7.93351
v 4.04098 1.42000 -7.53169
v 5.01105 1.42000 -7.93351
v 3.67393 1.10000 -8.74167
v 4.70376 1.10000 -8.94651
v 3.67393 1.42000 -8.74167
v 4.70376 1.42000 -8.94651
v 3.55000 1.10000 -10.00000
v 4.60000 1.10000 -10.00000
v 3.55000 1.42000 -10.00000
v 4.60000 1.42000 -10.00000
v 7.15168 1.10000 4.31947
v 7.35653 1.10000 3.28964
v 7.15168 1.42000 4.31947
v 7.35653 1.42000 3.28964
v 4.41282 1.10000 3.48864
v 4.81464 1.10000 2.51857
v 4.41282 1.42000 3.48864
v 4.81464 1.42000 2.51857
v 1.88867 1.10000 2.13946
v 2.47202 1.10000 1.26641
v 1.88867 1.42000 2.13946
v 2.47202 1.42000 1.26641
v -0.32376 1.10000 0.32376
v 0.41870 1.10000 -0.41870
v -0.32376 1.42000 0.32376
v 0.41870 1.42000 -0.41870
v -2.13946 1.10000 -1.88867
v -1.26641 1.10000 -2.47202
v -2.13946 1.42000 -1.88867
v -1.26641 1.42000 -2.47202
v -3.48864 1.10000 -4.41282
v -2.51857 1.10000 -4.81464
v -3.48864 1.42000 -4.41282
v -2.51857 1.42000 -4.81464
v -4.31947 1.10000 -7.15168
v -3.28964 1.10000 -7.35653
v -4.31947 1.42000 -7.15168
v -3.28964 1.42000 -7.35653
v -4.60000 1.10000 -10.00000
v -3.55000 1.10000 -10.00000
v -4.60000 1.42000 -10.00000
v -3.55000 1.42000 -10.00000
v 4.87204 -0.44000 2.37999
v 7.47429 -0.44000 -3.90240
v 8.71240 -0.44000 -3.52682
v 7.38579 -0.44000 3.14252
v 4.87204 -0.18000 2.37999
v 7.38579 -0.18000 3.14252
v 7.47429 -0.18000 -3.90240
v 8.71240 -0.18000 -3.52682
v 0.52477 -0.44000 -0.52477
v 5.33310 -0.44000 -5.33310
v 6.33324 -0.44000 -4.51230
v 2.55536 -0.44000 1.14169
v 0.52477 -0.18000 -0.52477
v 2.55536 -0.18000 1.14169
v 5.33310 -0.18000 -5.33310
v 6.33324 -0.18000 -4.51230
v -2.37999 -0.44000 -4.87204
v 3.90240 -0.44000 -7.47429
v 4.51230 -0.44000 -6.33324
v -1.14169 -0.44000 -2.55536
v -2.37999 -0.18000 -4.87204
v -1.14169 -0.18000 -2.55536
v 3.90240 -0.18000 -7.47429
v 4.51230 -0.18000 -6.33324
v -3.40000 -0.44000 -10.00000
v 3.40000 -0.44000 -10.00000
v 3.52682 -0.44000 -8.71240
v -3.14252 -0.44000 -7.38579
v -3.40000 -0.18000 -10.00000
v -3.14252 -0.18000 -7.38579
v 3.40000 -0.18000 -10.00000
v 3.52682 -0.18000 -8.71240
vt 0.07000 0.01000
vt 0.06000 0.01000
vt 0.02000 0.01000
vt 0.08000 0.01000
vn 0.00000 -1.00000 0.00000
vn 0.00000 0.00000 1.00000
vn 0.00000 1.00000 0.00000
vn 0.00000 0.00000 -1.00000
vn 1.00000 0.00000 0.00000
vn -1.00000 0.00000 0.00000
vn -0.09802 0.00000 0.99518
vn 0.09802 0.00000 -0.99518
vn -0.29028 0.00000 0.95694
vn 0.29028 0.00000 -0.95694
vn -0.47140 0.00000 0.88192
vn 0.47140 0.00000 -0.88192
vn -0.63439 0.00000 0.77301
vn 0.63439 0.00000 -0.77301
vn -0.77301 0.00000 0.63439
vn 0.77301 0.00000 -0.63439
vn -0.88192 0.00000 0.47140
vn 0.88192 0.00000 -0.47140
vn -0.95694 0.00000 0.29028
vn 0.95694 0.00000 -0.29028
vn -0.99518 0.00000 0.09802
vn 0.99518 0.00000 -0.09802
vn -0.09802 0.00000 0.99518
vn 0.09802 0.00000 -0.99518
vn -0.29028 0.00000 0.95694
vn 0.29028 0.00000 -0.95694
vn -0.47140 0.00000 0.88192
vn 0.47140 0.00000 -0.88192
vn -0.63439 0.00000 0.77301
vn 0.63439 0.00000 -0.77301
vn -0.77301 0.00000 0.63439
vn 0.77301 0.00000 -0.63439
vn -0.88192 0.00000 0.47140
vn 0.88192 0.00000 -0.47140
vn -0.95694 0.00000 0.29028
vn 0.95694 0.00000 -0.29028
vn -0.99518 0.00000 0.09802
vn 0.99518 0.00000 -0.09802
vn -0.09802 0.00000 0.99518
vn 0.09802 0.00000 -0.99518
vn -0.29028 0.00000 0.95694
vn 0.29028 0.00000 -0.95694
vn -0.47140 0.00000 0.88192
vn 0.47140 0.00000 -0.88192
vn -0.63439 0.00000 0.77301
vn 0.63439 0.00000 -0.77301
vn 0.77301 0.00000 -0.63439
vn -0.88192 0.00000 0.47140
vn 0.88192 0.00000 -0.47140
vn -0.95694 0.00000 0.29028
vn 0.95694 0.00000 -0.29028
vn -0.99518 0.00000 0.09802
vn 0.99518 0.00000 -0.09802
vn -0.09802 0.00000 0.99518
vn 0.09802 0.00000 -0.99518
vn -0.29028 0.00000 0.95694
vn 0.29028 0.00000 -0.95694
vn -0.47140 0.00000 0.88192
vn 0.47140 0.00000 -0.88192
vn -0.63439 0.00000 0.77301
vn 0.63439 0.00000 -0.77301
vn -0.77301 0.00000 0.63439
vn 0.77301 0.00000 -0.63439
vn -0.88192 0.00000 0.47140
vn 0.88192 0.00000 -0.47140
vn -0.95694 0.00000 0.29028
vn 0.95694 0.00000 -0.29028
vn -0.99518 0.00000 0.09802
vn 0.99518 0.00000 -0.09802
vn -0.09802 0.00000 0.99518
vn -0.29028 0.00000 0.95694
vn 0.29028 0.00000 -0.95694
vn -0.47140 0.00000 0.88192
vn 0.47140 0.00000 -0.88192
vn 0.63439 0.00000 -0.77301
vn -0.77301 0.00000 0.63439
vn 0.77301 0.00000 -0.63439
vn -0.88192 0.00000 0.47140
vn -0.95694 0.00000 0.29028
vn 0.95694 0.00000 -0.29028
vn -0.99518 0.00000 0.09802
vn 0.99518 0.00000 -0.09802
vn 0.29028 0.00000 -0.95694
vn 0.98079 0.00000 0.19509
vn -0.92388 0.00000 -0.38268
vn -0.63439 0.00000 0.77301
vn 0.63439 0.00000 -0.77301
vn 0.83147 0.00000 0.55557
vn -0.70711 0.00000 -0.70711
vn -0.88192 0.00000 0.47140
vn 0.88192 0.00000 -0.47140
vn 0.55557 0.00000 0.83147
vn -0.38268 0.00000 -0.92388
vn 0.19509 0.00000 0.98079
f 1/1/1 2/1/1 3/1/1
f 4/1/1 1/1/1 3/1/1
f 5/1/2 1/1/2 4/1/2
f 6/1/2 5/1/2 4/1/2
f 7/1/3 5/1/3 6/1/3
f 8/1/3 7/1/3 6/1/3
f 2/1/4 7/1/4 8/1/4
f 3/1/4 2/1/4 8/1/4
f 9/1/1 10/1/1 2/1/1
f 1/1/1 9/1/1 2/1/1
f 11/1/2 9/1/2 1/1/2
f 5/1/2 11/1/2 1/1/2
f 12/1/3 11/1/3 5/1/3
f 7/1/3 12/1/3 5/1/3
f 10/1/4 12/1/4 7/1/4
f 2/1/4 10/1/4 7/1/4
f 6/1/5 4/1/5 3/1/5
f 8/1/5 6/1/5 3/1/5
f 9/1/6 11/1/6 10/1/6
f 11/1/6 12/1/6 10/1/6
f 2/2/1 13/2/1 14/2/1
f 3/2/1 2/2/1 14/2/1
f 15/2/2 2/2/2 3/2/2
f 16/2/2 15/2/2 3/2/2
f 17/2/3 15/2/3 16/2/3
f 18/2/3 17/2/3 16/2/3
f 13/2/4 17/2/4 18/2/4
f 14/2/4 13/2/4 18/2/4
f 10/2/1 19/2/1 13/2/1
f 2/2/1 10/2/1 13/2/1
f 20/2/2 10/2/2 2/2/2
f 15/2/2 20/2/2 2/2/2
f 21/2/3 20/2/3 15/2/3
f 17/2/3 21/2/3 15/2/3
f 19/2/4 21/2/4 17/2/4
f 13/2/4 19/2/4 17/2/4
f 16/2/5 3/2/5 14/2/5
f 18/2/5 16/2/5 14/2/5
f 10/2/6 20/2/6 19/2/6
f 20/2/6 21/2/6 19/2/6
f 22/2/1 1/2/1 4/2/1
f 23/2/1 22/2/1 4/2/1
f 24/2/2 22/2/2 23/2/2
f 25/2/2 24/2/2 23/2/2
f 26/2/3 24/2/3 25/2/3
f 27/2/3 26/2/3 25/2/3
f 1/2/4 26/2/4 27/2/4
f 4/2/4 1/2/4 27/2/4
f 28/2/1 9/2/1 1/2/1
f 22/2/1 28/2/1 1/2/1
f 29/2/2 28/2/2 22/2/2
f 24/2/2 29/2/2 22/2/2
f 30/2/3 29/2/3 24/2/3
f 26/2/3 30/2/3 24/2/3
f 9/2/4 30/2/4 26/2/4
f 1/2/4 9/2/4 26/2/4
f 25/2/5 23/2/5 4/2/5
f 27/2/5 25/2/5 4/2/5
f 28/2/6 29/2/6 9/2/6
f 29/2/6 30/2/6 9/2/6
f 31/3/1 32/3/1 33/3/1
f 34/3/1 31/3/1 33/3/1
f 35/3/2 31/3/2 34/3/2
f 36/3/2 35/3/2 34/3/2
f 37/3/3 35/3/3 36/3/3
f 38/3/3 37/3/3 36/3/3
f 32/3/4 37/3/4 38/3/4
f 33/3/4 32/3/4 38/3/4
f 39/3/1 40/3/1 32/3/1
f 31/3/1 39/3/1 32/3/1
f 41/3/2 39/3/2 31/3/2
f 35/3/2 41/3/2 31/3/2
f 42/3/3 41/3/3 35/3/3
f 37/3/3 42/3/3 35/3/3
f 40/3/4 42/3/4 37/3/4
f 32/3/4 40/3/4 37/3/4
f 36/3/5 34/3/5 33/3/5
f 38/3/5 36/3/5 33/3/5
f 39/3/6 41/3/6 40/3/6
f 41/3/6 42/3/6 40/3/6
f 43/3/1 44/3/1 45/3/1
f 46/3/1 43/3/1 45/3/1
f 47/3/2 43/3/2 46/3/2
f 48/3/2 47/3/2 46/3/2
f 49/3/3 47/3/3 48/3/3
f 50/3/3 49/3/3 48/3/3
f 44/3/4 49/3/4 50/3/4
f 45/3/4 44/3/4 50/3/4
f 51/3/1 52/3/1 44/3/1
f 43/3/1 51/3/1 44/3/1
f 53/3/2 51/3/2 43/3/2
f 47/3/2 53/3/2 43/3/2
f 54/3/3 53/3/3 47/3/3
f 49/3/3 54/3/3 47/3/3
f 52/3/4 54/3/4 49/3/4
f 44/3/4 52/3/4 49/3/4
f 48/3/5 46/3/5 45/3/5
f 50/3/5 48/3/5 45/3/5
f 51/3/6 53/3/6 52/3/6
f 53/3/6 54/3/6 52/3/6
f 55/4/1 56/4/1 57/4/1
f 58/4/1 55/4/1 57/4/1
f 59/4/2 55/4/2 58/4/2
f 60/4/2 59/4/2 58/4/2
f 61/4/3 59/4/3 60/4/3
f 62/4/3 61/4/3 60/4/3
f 56/4/4 61/4/4 62/4/4
f 57/4/4 56/4/4 62/4/4
f 60/4/5 58/4/5 57/4/5
f 62/4/5 60/4/5 57/4/5
f 55/4/6 59/4/6 56/4/6
f 59/4/6 61/4/6 56/4/6
f 63/1/1 64/1/1 3/1/1
f 4/1/1 63/1/1 3/1/1
f 65/1/7 63/1/7 4/1/7
f 6/1/7 65/1/7 4/1/7
f 66/1/3 65/1/3 6/1/3
f 8/1/3 66/1/3 6/1/3
f 64/1/8 66/1/8 8/1/8
f 3/1/8 64/1/8 8/1/8
f 67/1/1 68/1/1 64/1/1
f 63/1/1 67/1/1 64/1/1
f 69/1/9 67/1/9 63/1/9
f 65/1/9 69/1/9 63/1/9
f 70/1/3 69/1/3 65/1/3
f 66/1/3 70/1/3 65/1/3
f 68/1/10 70/1/10 66/1/10
f 64/1/10 68/1/10 66/1/10
f 71/1/1 72/1/1 68/1/1
f 67/1/1 71/1/1 68/1/1
f 73/1/11 71/1/11 67/1/11
f 69/1/11 73/1/11 67/1/11
f 74/1/3 73/1/3 69/1/3
f 70/1/3 74/1/3 69/1/3
f 72/1/12 74/1/12 70/1/12
f 68/1/12 72/1/12 70/1/12
f 75/1/1 76/1/1 72/1/1
f 71/1/1 75/1/1 72/1/1
f 77/1/13 75/1/13 71/1/13
f 73/1/13 77/1/13 71/1/13
f 78/1/3 77/1/3 73/1/3
f 74/1/3 78/1/3 73/1/3
f 76/1/14 78/1/14 74/1/14
f 72/1/14 76/1/14 74/1/14
f 79/1/1 80/1/1 76/1/1
f 75/1/1 79/1/1 76/1/1
f 81/1/15 79/1/15 75/1/15
f 77/1/15 81/1/15 75/1/15
f 82/1/3 81/1/3 77/1/3
f 78/1/3 82/1/3 77/1/3
f 80/1/16 82/1/16 78/1/16
f 76/1/16 80/1/16 78/1/16
f 83/1/1 84/1/1 80/1/1
f 79/1/1 83/1/1 80/1/1
f 85/1/17 83/1/17 79/1/17
f 81/1/17 85/1/17 79/1/17
f 86/1/3 85/1/3 81/1/3
f 82/1/3 86/1/3 81/1/3
f 84/1/18 86/1/18 82/1/18
f 80/1/18 84/1/18 82/1/18
f 87/1/1 88/1/1 84/1/1
f 83/1/1 87/1/1 84/1/1
f 89/1/19 87/1/19 83/1/19
f 85/1/19 89/1/19 83/1/19
f 90/1/3 89/1/3 85/1/3
f 86/1/3 90/1/3 85/1/3
f 88/1/20 90/1/20 86/1/20
f 84/1/20 88/1/20 86/1/20
f 91/1/1 92/1/1 88/1/1
f 87/1/1 91/1/1 88/1/1
f 93/1/21 91/1/21 87/1/21
f 89/1/21 93/1/21 87/1/21
f 94/1/3 93/1/3 89/1/3
f 90/1/3 94/1/3 89/1/3
f 92/1/22 94/1/22 90/1/22
f 88/1/22 92/1/22 90/1/22
f 6/1/5 4/1/5 3/1/5
f 8/1/5 6/1/5 3/1/5
f 91/1/4 93/1/4 92/1/4
f 93/1/4 94/1/4 92/1/4
f 64/2/1 95/2/1 14/2/1
f 3/2/1 64/2/1 14/2/1
f 96/2/23 64/2/23 3/2/23
f 16/2/23 96/2/23 3/2/23
f 97/2/3 96/2/3 16/2/3
f 18/2/3 97/2/3 16/2/3
f 95/2/24 97/2/24 18/2/24
f 14/2/24 95/2/24 18/2/24
f 68/2/1 98/2/1 95/2/1
f 64/2/1 68/2/1 95/2/1
f 99/2/25 68/2/25 64/2/25
f 96/2/25 99/2/25 64/2/25
f 100/2/3 99/2/3 96/2/3
f 97/2/3 100/2/3 96/2/3
f 98/2/26 100/2/26 97/2/26
f 95/2/26 98/2/26 97/2/26
f 72/2/1 101/2/1 98/2/1
f 68/2/1 72/2/1 98/2/1
f 102/2/27 72/2/27 68/2/27
f 99/2/27 102/2/27 68/2/27
f 103/2/3 102/2/3 99/2/3
f 100/2/3 103/2/3 99/2/3
f 101/2/28 103/2/28 100/2/28
f 98/2/28 101/2/28 100/2/28
f 76/2/1 104/2/1 101/2/1
f 72/2/1 76/2/1 101/2/1
f 105/2/29 76/2/29 72/2/29
f 102/2/29 105/2/29 72/2/29
f 106/2/3 105/2/3 102/2/3
f 103/2/3 106/2/3 102/2/3
f 104/2/30 106/2/30 103/2/30
f 101/2/30 104/2/30 103/2/30
f 80/2/1 107/2/1 104/2/1
f 76/2/1 80/2/1 104/2/1
f 108/2/31 80/2/31 76/2/31
f 105/2/31 108/2/31 76/2/31
f 109/2/3 108/2/3 105/2/3
f 106/2/3 109/2/3 105/2/3
f 107/2/32 109/2/32 106/2/32
f 104/2/32 107/2/32 106/2/32
f 84/2/1 110/2/1 107/2/1
f 80/2/1 84/2/1 107/2/1
f 111/2/33 84/2/33 80/2/33
f 108/2/33 111/2/33 80/2/33
f 112/2/3 111/2/3 108/2/3
f 109/2/3 112/2/3 108/2/3
f 110/2/34 112/2/34 109/2/34
f 107/2/34 110/2/34 109/2/34
f 88/2/1 113/2/1 110/2/1
f 84/2/1 88/2/1 110/2/1
f 114/2/35 88/2/35 84/2/35
f 111/2/35 114/2/35 84/2/35
f 115/2/3 114/2/3 111/2/3
f 112/2/3 115/2/3 111/2/3
f 113/2/36 115/2/36 112/2/36
f 110/2/36 113/2/36 112/2/36
f 92/2/1 116/2/1 113/2/1
f 88/2/1 92/2/1 113/2/1
f 117/2/37 92/2/37 88/2/37
f 114/2/37 117/2/37 88/2/37
f 118/2/3 117/2/3 114/2/3
f 115/2/3 118/2/3 114/2/3
f 116/2/38 118/2/38 115/2/38
f 113/2/38 116/2/38 115/2/38
f 16/2/5 3/2/5 14/2/5
f 18/2/5 16/2/5 14/2/5
f 92/2/4 117/2/4 116/2/4
f 117/2/4 118/2/4 116/2/4
f 119/2/1 63/2/1 4/2/1
f 23/2/1 119/2/1 4/2/1
f 120/2/39 119/2/39 23/2/39
f 25/2/39 120/2/39 23/2/39
f 121/2/3 120/2/3 25/2/3
f 27/2/3 121/2/3 25/2/3
f 63/2/40 121/2/40 27/2/40
f 4/2/40 63/2/40 27/2/40
f 122/2/1 67/2/1 63/2/1
f 119/2/1 122/2/1 63/2/1
f 123/2/41 122/2/41 119/2/41
f 120/2/41 123/2/41 119/2/41
f 124/2/3 123/2/3 120/2/3
f 121/2/3 124/2/3 120/2/3
f 67/2/42 124/2/42 121/2/42
f 63/2/42 67/2/42 121/2/42
f 125/2/1 71/2/1 67/2/1
f 122/2/1 125/2/1 67/2/1
f 126/2/43 125/2/43 122/2/43
f 123/2/43 126/2/43 122/2/43
f 127/2/3 126/2/3 123/2/3
f 124/2/3 127/2/3 123/2/3
f 71/2/44 127/2/44 124/2/44
f 67/2/44 71/2/44 124/2/44
f 128/2/1 75/2/1 71/2/1
f 125/2/1 128/2/1 71/2/1
f 129/2/45 128/2/45 125/2/45
f 126/2/45 129/2/45 125/2/45
f 130/2/3 129/2/3 126/2/3
f 127/2/3 130/2/3 126/2/3
f 75/2/46 130/2/46 127/2/46
f 71/2/46 75/2/46 127/2/46
f 131/2/1 79/2/1 75/2/1
f 128/2/1 131/2/1 75/2/1
f 132/2/15 131/2/15 128/2/15
f 129/2/15 132/2/15 128/2/15
f 133/2/3 132/2/3 129/2/3
f 130/2/3 133/2/3 129/2/3
f 79/2/47 133/2/47 130/2/47
f 75/2/47 79/2/47 130/2/47
f 134/2/1 83/2/1 79/2/1
f 131/2/1 134/2/1 79/2/1
f 135/2/48 134/2/48 131/2/48
f 132/2/48 135/2/48 131/2/48
f 136/2/3 135/2/3 132/2/3
f 133/2/3 136/2/3 132/2/3
f 83/2/49 136/2/49 133/2/49
f 79/2/49 83/2/49 133/2/49
f 137/2/1 87/2/1 83/2/1
f 134/2/1 137/2/1 83/2/1
f 138/2/50 137/2/50 134/2/50
f 135/2/50 138/2/50 134/2/50
f 139/2/3 138/2/3 135/2/3
f 136/2/3 139/2/3 135/2/3
f 87/2/51 139/2/51 136/2/51
f 83/2/51 87/2/51 136/2/51
f 140/2/1 91/2/1 87/2/1
f 137/2/1 140/2/1 87/2/1
f 141/2/52 140/2/52 137/2/52
f 138/2/52 141/2/52 137/2/52
f 142/2/3 141/2/3 138/2/3
f 139/2/3 142/2/3 138/2/3
f 91/2/53 142/2/53 139/2/53
f 87/2/53 91/2/53 139/2/53
f 25/2/5 23/2/5 4/2/5
f 27/2/5 25/2/5 4/2/5
f 140/2/4 141/2/4 91/2/4
f 141/2/4 142/2/4 91/2/4
f 143/3/1 144/3/1 33/3/1
f 34/3/1 143/3/1 33/3/1
f 145/3/54 143/3/54 34/3/54
f 36/3/54 145/3/54 34/3/54
f 146/3/3 145/3/3 36/3/3
f 38/3/3 146/3/3 36/3/3
f 144/3/55 146/3/55 38/3/55
f 33/3/55 144/3/55 38/3/55
f 147/3/1 148/3/1 144/3/1
f 143/3/1 147/3/1 144/3/1
f 149/3/56 147/3/56 143/3/56
f 145/3/56 149/3/56 143/3/56
f 150/3/3 149/3/3 145/3/3
f 146/3/3 150/3/3 145/3/3
f 148/3/57 150/3/57 146/3/57
f 144/3/57 148/3/57 146/3/57
f 151/3/1 152/3/1 148/3/1
f 147/3/1 151/3/1 148/3/1
f 153/3/58 151/3/58 147/3/58
f 149/3/58 153/3/58 147/3/58
f 154/3/3 153/3/3 149/3/3
f 150/3/3 154/3/3 149/3/3
f 152/3/59 154/3/59 150/3/59
f 148/3/59 152/3/59 150/3/59
f 155/3/1 156/3/1 152/3/1
f 151/3/1 155/3/1 152/3/1
f 157/3/60 155/3/60 151/3/60
f 153/3/60 157/3/60 151/3/60
f 158/3/3 157/3/3 153/3/3
f 154/3/3 158/3/3 153/3/3
f 156/3/61 158/3/61 154/3/61
f 152/3/61 156/3/61 154/3/61
f 159/3/1 160/3/1 156/3/1
f 155/3/1 159/3/1 156/3/1
f 161/3/62 159/3/62 155/3/62
f 157/3/62 161/3/62 155/3/62
f 162/3/3 161/3/3 157/3/3
f 158/3/3 162/3/3 157/3/3
f 160/3/63 162/3/63 158/3/63
f 156/3/63 160/3/63 158/3/63
f 163/3/1 164/3/1 160/3/1
f 159/3/1 163/3/1 160/3/1
f 165/3/64 163/3/64 159/3/64
f 161/3/64 165/3/64 159/3/64
f 166/3/3 165/3/3 161/3/3
f 162/3/3 166/3/3 161/3/3
f 164/3/65 166/3/65 162/3/65
f 160/3/65 164/3/65 162/3/65
f 167/3/1 168/3/1 164/3/1
f 163/3/1 167/3/1 164/3/1
f 169/3/66 167/3/66 163/3/66
f 165/3/66 169/3/66 163/3/66
f 170/3/3 169/3/3 165/3/3
f 166/3/3 170/3/3 165/3/3
f 168/3/67 170/3/67 166/3/67
f 164/3/67 168/3/67 166/3/67
f 171/3/1 172/3/1 168/3/1
f 167/3/1 171/3/1 168/3/1
f 173/3/68 171/3/68 167/3/68
f 169/3/68 173/3/68 167/3/68
f 174/3/3 173/3/3 169/3/3
f 170/3/3 174/3/3 169/3/3
f 172/3/69 174/3/69 170/3/69
f 168/3/69 172/3/69 170/3/69
f 36/3/5 34/3/5 33/3/5
f 38/3/5 36/3/5 33/3/5
f 171/3/4 173/3/4 172/3/4
f 173/3/4 174/3/4 172/3/4
f 175/3/1 176/3/1 45/3/1
f 46/3/1 175/3/1 45/3/1
f 177/3/70 175/3/70 46/3/70
f 48/3/70 177/3/70 46/3/70
f 178/3/3 177/3/3 48/3/3
f 50/3/3 178/3/3 48/3/3
f 176/3/40 178/3/40 50/3/40
f 45/3/40 176/3/40 50/3/40
f 179/3/1 180/3/1 176/3/1
f 175/3/1 179/3/1 176/3/1
f 181/3/71 179/3/71 175/3/71
f 177/3/71 181/3/71 175/3/71
f 182/3/3 181/3/3 177/3/3
f 178/3/3 182/3/3 177/3/3
f 180/3/72 182/3/72 178/3/72
f 176/3/72 180/3/72 178/3/72
f 183/3/1 184/3/1 180/3/1
f 179/3/1 183/3/1 180/3/1
f 185/3/73 183/3/73 179/3/73
f 181/3/73 185/3/73 179/3/73
f 186/3/3 185/3/3 181/3/3
f 182/3/3 186/3/3 181/3/3
f 184/3/74 186/3/74 182/3/74
f 180/3/74 184/3/74 182/3/74
f 187/3/1 188/3/1 184/3/1
f 183/3/1 187/3/1 184/3/1
f 189/3/13 187/3/13 183/3/13
f 185/3/13 189/3/13 183/3/13
f 190/3/3 189/3/3 185/3/3
f 186/3/3 190/3/3 185/3/3
f 188/3/75 190/3/75 186/3/75
f 184/3/75 188/3/75 186/3/75
f 191/3/1 192/3/1 188/3/1
f 187/3/1 191/3/1 188/3/1
f 193/3/76 191/3/76 187/3/76
f 189/3/76 193/3/76 187/3/76
f 194/3/3 193/3/3 189/3/3
f 190/3/3 194/3/3 189/3/3
f 192/3/77 194/3/77 190/3/77
f 188/3/77 192/3/77 190/3/77
f 195/3/1 196/3/1 192/3/1
f 191/3/1 195/3/1 192/3/1
f 197/3/78 195/3/78 191/3/78
f 193/3/78 197/3/78 191/3/78
f 198/3/3 197/3/3 193/3/3
f 194/3/3 198/3/3 193/3/3
f 196/3/34 198/3/34 194/3/34
f 192/3/34 196/3/34 194/3/34
f 199/3/1 200/3/1 196/3/1
f 195/3/1 199/3/1 196/3/1
f 201/3/79 199/3/79 195/3/79
f 197/3/79 201/3/79 195/3/79
f 202/3/3 201/3/3 197/3/3
f 198/3/3 202/3/3 197/3/3
f 200/3/80 202/3/80 198/3/80
f 196/3/80 200/3/80 198/3/80
f 203/3/1 204/3/1 200/3/1
f 199/3/1 203/3/1 200/3/1
f 205/3/81 203/3/81 199/3/81
f 201/3/81 205/3/81 199/3/81
f 206/3/3 205/3/3 201/3/3
f 202/3/3 206/3/3 201/3/3
f 204/3/82 206/3/82 202/3/82
f 200/3/82 204/3/82 202/3/82
f 48/3/5 46/3/5 45/3/5
f 50/3/5 48/3/5 45/3/5
f 203/3/4 205/3/4 204/3/4
f 205/3/4 206/3/4 204/3/4
f 207/4/1 208/4/1 209/4/1
f 210/4/1 207/4/1 209/4/1
f 211/4/25 207/4/25 210/4/25
f 212/4/25 211/4/25 210/4/25
f 213/4/3 211/4/3 212/4/3
f 214/4/3 213/4/3 212/4/3
f 208/4/83 213/4/83 214/4/83
f 209/4/83 208/4/83 214/4/83
f 212/4/84 210/4/84 209/4/84
f 214/4/84 212/4/84 209/4/84
f 207/4/85 211/4/85 208/4/85
f 211/4/85 213/4/85 208/4/85
f 215/4/1 216/4/1 217/4/1
f 218/4/1 215/4/1 217/4/1
f 219/4/86 215/4/86 218/4/86
f 220/4/86 219/4/86 218/4/86
f 221/4/3 219/4/3 220/4/3
f 222/4/3 221/4/3 220/4/3
f 216/4/87 221/4/87 222/4/87
f 217/4/87 216/4/87 222/4/87
f 220/4/88 218/4/88 217/4/88
f 222/4/88 220/4/88 217/4/88
f 215/4/89 219/4/89 216/4/89
f 219/4/89 221/4/89 216/4/89
f 223/4/1 224/4/1 225/4/1
f 226/4/1 223/4/1 225/4/1
f 227/4/90 223/4/90 226/4/90
f 228/4/90 227/4/90 226/4/90
f 229/4/3 227/4/3 228/4/3
f 230/4/3 229/4/3 228/4/3
f 224/4/91 229/4/91 230/4/91
f 225/4/91 224/4/91 230/4/91
f 228/4/92 226/4/92 225/4/92
f 230/4/92 228/4/92 225/4/92
f 223/4/93 227/4/93 224/4/93
f 227/4/93 229/4/93 224/4/93
f 231/4/1 232/4/1 233/4/1
f 234/4/1 231/4/1 233/4/1
f 235/4/81 231/4/81 234/4/81
f 236/4/81 235/4/81 234/4/81
f 237/4/3 235/4/3 236/4/3
f 238/4/3 237/4/3 236/4/3
f 232/4/82 237/4/82 238/4/82
f 233/4/82 232/4/82 238/4/82
f 236/4/94 234/4/94 233/4/94
f 238/4/94 236/4/94 233/4/94
f 231/4/4 235/4/4 232/4/4
f 235/4/4 237/4/4 232/4/4
