# CargoTrackLift2UpLeft - generated by Tools/generate_meshes.py, do not hand-edit
# Regenerate with: python Tools/generate_meshes.py
o CargoTrackLift2UpLeft
v 10.00000 -0.42000 -3.70000
v 7.32726 4.58000 -3.43676
v 8.77093 4.58000 3.82105
v 10.00000 -0.42000 3.70000
v 8.77093 5.00000 3.82105
v 10.00000 0.00000 3.70000
v 7.32726 5.00000 -3.43676
v 10.00000 0.00000 -3.70000
v 4.75724 9.58000 -2.65715
v 7.58909 9.58000 4.17956
v 7.58909 10.00000 4.17956
v 4.75724 10.00000 -2.65715
v 2.38869 14.58000 -1.39113
v 6.49991 14.58000 4.76174
v 6.49991 15.00000 4.76174
v 2.38869 15.00000 -1.39113
v 0.31264 19.58000 0.31264
v 5.54523 19.58000 5.54523
v 5.54523 20.00000 5.54523
v 0.31264 20.00000 0.31264
v -1.39113 24.58000 2.38869
v 4.76174 24.58000 6.49991
v 4.76174 25.00000 6.49991
v -1.39113 25.00000 2.38869
v -2.65715 29.58000 4.75724
v 4.17956 29.58000 7.58909
v 4.17956 30.00000 7.58909
v -2.65715 30.00000 4.75724
v -3.43676 34.58000 7.32726
v 3.82105 34.58000 8.77093
v 3.82105 35.00000 8.77093
v -3.43676 35.00000 7.32726
v -3.70000 39.58000 10.00000
v 3.70000 39.58000 10.00000
v 3.70000 40.00000 10.00000
v -3.70000 40.00000 10.00000
v 7.18094 4.58000 -4.17235
v 10.00000 -0.42000 -4.45000
v 7.32726 6.15000 -3.43676
v 10.00000 1.15000 -3.70000
v 7.18094 6.15000 -4.17235
v 10.00000 1.15000 -4.45000
v 4.47022 9.58000 -3.35006
v 4.75724 11.15000 -2.65715
v 4.47022 11.15000 -3.35006
v 1.97201 14.58000 -2.01474
v 2.38869 16.15000 -1.39113
v 1.97201 16.15000 -2.01474
v -0.21769 19.58000 -0.21769
v 0.31264 21.15000 0.31264
v -0.21769 21.15000 -0.21769
v -2.01474 24.58000 1.97201
v -1.39113 26.15000 2.38869
v -2.01474 26.15000 1.97201
v -3.35006 29.58000 4.47022
v -2.65715 31.15000 4.75724
v -3.35006 31.15000 4.47022
v -4.17235 34.58000 7.18094
v -3.43676 36.15000 7.32726
v -4.17235 36.15000 7.18094
v -4.45000 39.58000 10.00000
v -3.70000 41.15000 10.00000
v -4.45000 41.15000 10.00000
v 8.91725 4.58000 4.55664
v 10.00000 -0.42000 4.45000
v 8.91725 6.15000 4.55664
v 10.00000 1.15000 4.45000
v 8.77093 6.15000 3.82105
v 10.00000 1.15000 3.70000
v 7.87611 9.58000 4.87247
v 7.87611 11.15000 4.87247
v 7.58909 11.15000 4.17956
v 6.91659 14.58000 5.38534
v 6.91659 16.15000 5.38534
v 6.49991 16.15000 4.76174
v 6.07556 19.58000 6.07556
v 6.07556 21.15000 6.07556
v 5.54523 21.15000 5.54523
v 5.38534 24.58000 6.91659
v 5.38534 26.15000 6.91659
v 4.76174 26.15000 6.49991
v 4.87247 29.58000 7.87611
v 4.87247 31.15000 7.87611
v 4.17956 31.15000 7.58909
v 4.55664 34.58000 8.91725
v 4.55664 36.15000 8.91725
v 3.82105 36.15000 8.77093
v 4.45000 39.58000 10.00000
v 4.45000 41.15000 10.00000
v 3.70000 41.15000 10.00000
v 7.35653 6.10000 -3.28964
v 7.15168 6.10000 -4.31947
v 10.00000 1.10000 -4.60000
v 10.00000 1.10000 -3.55000
v 7.35653 6.42000 -3.28964
v 10.00000 1.42000 -3.55000
v 7.15168 6.42000 -4.31947
v 10.00000 1.42000 -4.60000
v 4.81464 11.10000 -2.51857
v 4.41282 11.10000 -3.48864
v 4.81464 11.42000 -2.51857
v 4.41282 11.42000 -3.48864
v 2.47202 16.10000 -1.26641
v 1.88867 16.10000 -2.13946
v 2.47202 16.42000 -1.26641
v 1.88867 16.42000 -2.13946
v 0.41870 21.10000 0.41870
v -0.32376 21.10000 -0.32376
v 0.41870 21.42000 0.41870
v -0.32376 21.42000 -0.32376
v -1.26641 26.10000 2.47202
v -2.13946 26.10000 1.88867
v -1.26641 26.42000 2.47202
v -2.13946 26.42000 1.88867
v -2.51857 31.10000 4.81464
v -3.48864 31.10000 4.41282
v -2.51857 31.42000 4.81464
v -3.48864 31.42000 4.41282
v -3.28964 36.10000 7.35653
v -4.31947 36.10000 7.15168
v -3.28964 36.42000 7.35653
v -4.31947 36.42000 7.15168
v -3.55000 41.10000 10.00000
v -4.60000 41.10000 10.00000
v -3.55000 41.42000 10.00000
v -4.60000 41.42000 10.00000
v 8.94651 6.10000 4.70376
v 8.74167 6.10000 3.67393
v 10.00000 1.10000 3.55000
v 10.00000 1.10000 4.60000
v 8.94651 6.42000 4.70376
v 10.00000 1.42000 4.60000
v 8.74167 6.42000 3.67393
v 10.00000 1.42000 3.55000
v 7.93351 11.10000 5.01105
v 7.53169 11.10000 4.04098
v 7.93351 11.42000 5.01105
v 7.53169 11.42000 4.04098
v 6.99992 16.10000 5.51006
v 6.41657 16.10000 4.63702
v 6.99992 16.42000 5.51006
v 6.41657 16.42000 4.63702
v 6.18162 21.10000 6.18162
v 5.43916 21.10000 5.43916
v 6.18162 21.42000 6.18162
v 5.43916 21.42000 5.43916
v 5.51006 26.10000 6.99992
v 4.63702 26.10000 6.41657
v 5.51006 26.42000 6.99992
v 4.63702 26.42000 6.41657
v 5.01105 31.10000 7.93351
v 4.04098 31.10000 7.53169
v 5.01105 31.42000 7.93351
v 4.04098 31.42000 7.53169
v 4.70376 36.10000 8.94651
v 3.67393 36.10000 8.74167
v 4.70376 36.42000 8.94651
v 3.67393 36.42000 8.74167
v 4.60000 41.10000 10.00000
v 3.55000 41.10000 10.00000
v 4.60000 41.42000 10.00000
v 3.55000 41.42000 10.00000
v 7.38579 4.56000 -3.14252
v 4.87204 9.56000 -2.37999
v 7.47429 9.56000 3.90240
v 8.71240 4.56000 3.52682
v 7.47429 9.82000 3.90240
v 8.71240 4.82000 3.52682
v 4.87204 9.82000 -2.37999
v 7.38579 4.82000 -3.14252
v 2.55536 14.56000 -1.14169
v 0.52477 19.56000 0.52477
v 5.33310 19.56000 5.33310
v 6.33324 14.56000 4.51230
v 5.33310 19.82000 5.33310
v 6.33324 14.82000 4.51230
v 0.52477 19.82000 0.52477
v 2.55536 14.82000 -1.14169
v -1.14169 24.56000 2.55536
v -2.37999 29.56000 4.87204
v 3.90240 29.56000 7.47429
v 4.51230 24.56000 6.33324
v 3.90240 29.82000 7.47429
v 4.51230 24.82000 6.33324
v -2.37999 29.82000 4.87204
v -1.14169 24.82000 2.55536
v -3.14252 34.56000 7.38579
v -3.40000 39.56000 10.00000
v 3.40000 39.56000 10.00000
v 3.52682 34.56000 8.71240
v 3.40000 39.82000 10.00000
v 3.52682 34.82000 8.71240
v -3.40000 39.82000 10.00000
v -3.14252 34.82000 7.38579
vt 0.07000 0.01000
vt 0.06000 0.01000
vt 0.02000 0.01000
vt 0.08000 0.01000
vn 0.86496 0.47142 -0.17205
vn 0.97109 0.23871 -0.00000
vn -0.09802 0.00000 -0.99518
vn -0.09802 0.00000 -0.99518
vn -0.95243 -0.23871 0.18945
vn -0.88191 -0.47142 -0.00000
vn 0.09802 0.00000 0.99518
vn 0.09802 0.00000 0.99518
vn 0.81478 0.47142 -0.33749
vn 0.95243 0.23871 -0.18945
vn -0.29028 0.00000 -0.95694
vn -0.29028 0.00000 -0.95694
vn -0.89717 -0.23871 0.37162
vn -0.86496 -0.47142 0.17205
vn 0.29028 0.00000 0.95694
vn 0.29028 0.00000 0.95694
vn 0.73328 0.47142 -0.48996
vn 0.89717 0.23871 -0.37162
vn -0.47140 0.00000 -0.88192
vn -0.47140 0.00000 -0.88192
vn -0.80743 -0.23871 0.53951
vn -0.81478 -0.47142 0.33749
vn 0.47140 0.00000 0.88192
vn 0.47140 0.00000 0.88192
vn 0.62360 0.47142 -0.62360
vn 0.80743 0.23871 -0.53951
vn -0.63439 0.00000 -0.77301
vn -0.63439 0.00000 -0.77301
vn -0.68667 -0.23871 0.68667
vn -0.73328 -0.47142 0.48996
vn 0.63439 0.00000 0.77301
vn 0.63439 0.00000 0.77301
vn 0.48996 0.47142 -0.73328
vn 0.68667 0.23871 -0.68667
vn -0.77301 0.00000 -0.63439
vn -0.77301 0.00000 -0.63439
vn -0.53951 -0.23871 0.80743
vn -0.62360 -0.47142 0.62360
vn 0.77301 0.00000 0.63439
vn 0.77301 0.00000 0.63439
vn 0.33749 0.47142 -0.81478
vn 0.53951 0.23871 -0.80743
vn -0.88192 0.00000 -0.47140
vn -0.88192 0.00000 -0.47140
vn -0.37162 -0.23871 0.89717
vn -0.48996 -0.47142 0.73328
vn 0.88192 0.00000 0.47140
vn 0.88192 0.00000 0.47140
vn 0.17205 0.47142 -0.86496
vn 0.37162 0.23871 -0.89717
vn -0.95694 0.00000 -0.29028
vn -0.95694 0.00000 -0.29028
vn -0.18945 -0.23871 0.95243
vn -0.33749 -0.47142 0.81478
vn 0.95694 0.00000 0.29028
vn 0.95694 0.00000 0.29028
vn 0.00000 0.47142 -0.88191
vn 0.18945 0.23871 -0.95243
vn -0.99518 0.00000 -0.09802
vn -0.99518 0.00000 -0.09802
vn 0.00000 -0.23871 0.97109
vn -0.17205 -0.47142 0.86496
vn 0.99518 0.00000 0.09802
vn 0.99518 0.00000 0.09802
vn -1.00000 0.00000 0.00000
vn 0.00000 0.00000 -1.00000
vn -0.85435 -0.49113 0.16994
vn -0.88191 -0.47142 -0.00000
vn 0.09802 0.00000 0.99518
vn 0.86496 0.47142 -0.17205
vn 0.87109 0.49113 -0.00000
vn -0.09802 0.00000 -0.99518
vn -0.09802 0.00000 -0.99518
vn -0.80478 -0.49113 0.33335
vn -0.86496 -0.47142 0.17205
vn 0.29028 0.00000 0.95694
vn 0.81478 0.47142 -0.33749
vn 0.85435 0.49113 -0.16994
vn -0.29028 0.00000 -0.95694
vn -0.72428 -0.49113 0.48395
vn -0.81478 -0.47142 0.33749
vn 0.47140 0.00000 0.88192
vn 0.73328 0.47142 -0.48996
vn 0.80478 0.49113 -0.33335
vn -0.47140 0.00000 -0.88192
vn -0.47140 0.00000 -0.88192
vn -0.61595 -0.49113 0.61595
vn -0.73328 -0.47142 0.48996
vn 0.62360 0.47142 -0.62360
vn 0.72428 0.49113 -0.48395
vn -0.63439 0.00000 -0.77301
vn -0.48395 -0.49113 0.72428
vn 0.48996 0.47142 -0.73328
vn 0.61595 0.49113 -0.61595
vn -0.77301 0.00000 -0.63439
vn -0.33335 -0.49113 0.80478
vn -0.48996 -0.47142 0.73328
vn 0.88192 0.00000 0.47140
vn 0.33749 0.47142 -0.81478
vn 0.48395 0.49113 -0.72428
vn -0.88192 0.00000 -0.47140
vn -0.16994 -0.49113 0.85435
vn -0.33749 -0.47142 0.81478
vn 0.95694 0.00000 0.29028
vn 0.17205 0.47142 -0.86496
vn 0.33335 0.49113 -0.80478
vn -0.95694 0.00000 -0.29028
vn 0.00000 -0.49113 0.87109
vn -0.17205 -0.47142 0.86496
vn 0.00000 0.47142 -0.88191
vn 0.16994 0.49113 -0.85435
vn -0.99518 0.00000 -0.09802
vn 1.00000 0.00000 0.00000
vn 0.00000 -0.00000 1.00000
vn -0.95243 -0.23871 0.18945
vn -0.97735 -0.21164 -0.00000
vn 0.09802 0.00000 0.99518
vn 0.09802 0.00000 0.99518
vn 0.95857 0.21164 -0.19067
vn 0.97109 0.23871 -0.00000
vn -0.09802 0.00000 -0.99518
vn -0.89717 -0.23871 0.37162
vn -0.95857 -0.21164 0.19067
vn 0.29028 0.00000 0.95694
vn 0.90295 0.21164 -0.37401
vn 0.95243 0.23871 -0.18945
vn -0.29028 0.00000 -0.95694
vn -0.80743 -0.23871 0.53951
vn -0.90295 -0.21164 0.37401
vn 0.47140 0.00000 0.88192
vn 0.47140 0.00000 0.88192
vn 0.81263 0.21164 -0.54298
vn 0.89717 0.23871 -0.37162
vn -0.47140 0.00000 -0.88192
vn -0.68667 -0.23871 0.68667
vn -0.81263 -0.21164 0.54298
vn 0.63439 0.00000 0.77301
vn 0.63439 0.00000 0.77301
vn 0.69109 0.21164 -0.69109
vn 0.80743 0.23871 -0.53951
vn -0.63439 0.00000 -0.77301
vn -0.63439 0.00000 -0.77301
vn -0.53951 -0.23871 0.80743
vn -0.69109 -0.21164 0.69109
vn 0.77301 0.00000 0.63439
vn 0.54298 0.21164 -0.81263
vn 0.68667 0.23871 -0.68667
vn -0.37162 -0.23871 0.89717
vn -0.54298 -0.21164 0.81263
vn 0.88192 0.00000 0.47140
vn 0.37401 0.21164 -0.90295
vn 0.53951 0.23871 -0.80743
vn -0.18945 -0.23871 0.95243
vn -0.37401 -0.21164 0.90295
vn 0.95694 0.00000 0.29028
vn 0.19067 0.21164 -0.95857
vn 0.37162 0.23871 -0.89717
vn -0.95694 0.00000 -0.29028
vn 0.00000 -0.23871 0.97109
vn -0.19067 -0.21164 0.95857
vn 0.99518 0.00000 0.09802
vn 0.00000 0.21164 -0.97735
vn 0.18945 0.23871 -0.95243
vn -0.99518 0.00000 -0.09802
vn -0.85221 -0.49498 0.16951
vn -0.88405 -0.46739 -0.00000
vn 0.09802 0.00000 0.99518
vn 0.86706 0.46739 -0.17247
vn 0.86890 0.49498 -0.00000
vn -0.09802 0.00000 -0.99518
vn -0.09802 0.00000 -0.99518
vn -0.80276 -0.49498 0.33251
vn -0.86706 -0.46739 0.17247
vn 0.29028 0.00000 0.95694
vn 0.81676 0.46739 -0.33831
vn 0.85221 0.49498 -0.16951
vn -0.72247 -0.49498 0.48274
vn -0.81676 -0.46739 0.33831
vn 0.47140 0.00000 0.88192
vn 0.73506 0.46739 -0.49115
vn 0.80276 0.49498 -0.33251
vn -0.47140 0.00000 -0.88192
vn -0.61441 -0.49498 0.61441
vn -0.73506 -0.46739 0.49115
vn 0.63439 0.00000 0.77301
vn 0.62512 0.46739 -0.62512
vn 0.72247 0.49498 -0.48274
vn -0.63439 0.00000 -0.77301
vn -0.48274 -0.49498 0.72247
vn -0.62512 -0.46739 0.62512
vn 0.49115 0.46739 -0.73506
vn 0.61441 0.49498 -0.61441
vn -0.77301 0.00000 -0.63439
vn -0.33251 -0.49498 0.80276
vn -0.49115 -0.46739 0.73506
vn 0.33831 0.46739 -0.81676
vn 0.48274 0.49498 -0.72247
vn -0.88192 0.00000 -0.47140
vn -0.16951 -0.49498 0.85221
vn -0.33831 -0.46739 0.81676
vn 0.95694 0.00000 0.29028
vn 0.17247 0.46739 -0.86706
vn 0.33251 0.49498 -0.80276
vn -0.95694 0.00000 -0.29028
vn 0.00000 -0.49498 0.86890
vn -0.17247 -0.46739 0.86706
vn 0.99518 0.00000 0.09802
vn 0.00000 0.46739 -0.88405
vn 0.16951 0.49498 -0.85221
vn -0.99518 0.00000 -0.09802
vn -0.95113 -0.24406 0.18919
vn -0.97852 -0.20617 -0.00000
vn 0.09802 0.00000 0.99518
vn 0.09802 0.00000 0.99518
vn 0.95971 0.20617 -0.19090
vn 0.96976 0.24406 -0.00000
vn -0.09802 0.00000 -0.99518
vn -0.09802 0.00000 -0.99518
vn -0.89594 -0.24406 0.37111
vn -0.95971 -0.20617 0.19090
vn 0.29028 0.00000 0.95694
vn 0.90403 0.20617 -0.37446
vn 0.95113 0.24406 -0.18919
vn -0.29028 0.00000 -0.95694
vn -0.80633 -0.24406 0.53877
vn -0.90403 -0.20617 0.37446
vn 0.47140 0.00000 0.88192
vn 0.81361 0.20617 -0.54363
vn 0.89594 0.24406 -0.37111
vn -0.68572 -0.24406 0.68572
vn -0.81361 -0.20617 0.54363
vn 0.63439 0.00000 0.77301
vn 0.69192 0.20617 -0.69192
vn 0.80633 0.24406 -0.53877
vn -0.63439 0.00000 -0.77301
vn -0.53877 -0.24406 0.80633
vn -0.69192 -0.20617 0.69192
vn 0.77301 0.00000 0.63439
vn 0.54363 0.20617 -0.81361
vn 0.68572 0.24406 -0.68572
vn -0.77301 0.00000 -0.63439
vn -0.37111 -0.24406 0.89594
vn -0.54363 -0.20617 0.81361
vn 0.37446 0.20617 -0.90403
vn 0.53877 0.24406 -0.80633
vn -0.88192 0.00000 -0.47140
vn -0.18919 -0.24406 0.95113
vn -0.37446 -0.20617 0.90403
vn 0.95694 0.00000 0.29028
vn 0.19090 0.20617 -0.95971
vn 0.37111 0.24406 -0.89594
vn -0.95694 0.00000 -0.29028
vn 0.00000 -0.24406 0.96976
vn -0.19090 -0.20617 0.95971
vn 0.99518 0.00000 0.09802
vn 0.00000 0.20617 -0.97852
vn 0.18919 0.24406 -0.95113
vn 0.81873 0.46333 -0.33913
vn 0.94980 0.24938 -0.18893
vn -0.29028 0.00000 -0.95694
vn -0.29028 0.00000 -0.95694
vn -0.89469 -0.24938 0.37059
vn -0.86916 -0.46333 0.17289
vn 0.29028 0.00000 0.95694
vn 0.29028 0.00000 0.95694
vn -0.98079 0.00000 0.19509
vn 0.92388 0.00000 -0.38268
vn 0.62663 0.46333 -0.62663
vn 0.80520 0.24938 -0.53802
vn -0.63439 0.00000 -0.77301
vn -0.63439 0.00000 -0.77301
vn -0.68477 -0.24938 0.68477
vn -0.73683 -0.46333 0.49234
vn 0.63439 0.00000 0.77301
vn -0.83147 0.00000 0.55557
vn 0.70711 0.00000 -0.70711
vn 0.33913 0.46333 -0.81873
vn 0.53802 0.24938 -0.80520
vn -0.88192 0.00000 -0.47140
vn -0.37059 -0.24938 0.89469
vn -0.49234 -0.46333 0.73683
vn 0.88192 0.00000 0.47140
vn 0.88192 0.00000 0.47140
vn -0.55557 0.00000 0.83147
vn 0.38268 0.00000 -0.92388
vn 0.00000 0.46333 -0.88618
vn 0.18893 0.24938 -0.94980
vn -0.99518 0.00000 -0.09802
vn 0.00000 -0.24938 0.96840
vn -0.17289 -0.46333 0.86916
vn 0.99518 0.00000 0.09802
vn -0.19509 0.00000 0.98079
f 1/1/1 2/1/1 3/1/1
f 1/1/2 3/1/2 4/1/2
f 4/1/3 3/1/3 5/1/3
f 4/1/4 5/1/4 6/1/4
f 6/1/5 5/1/5 7/1/5
f 6/1/6 7/1/6 8/1/6
f 8/1/7 7/1/7 2/1/7
f 8/1/8 2/1/8 1/1/8
f 2/1/9 9/1/9 10/1/9
f 2/1/10 10/1/10 3/1/10
f 3/1/11 10/1/11 11/1/11
f 3/1/12 11/1/12 5/1/12
f 5/1/13 11/1/13 12/1/13
f 5/1/14 12/1/14 7/1/14
f 7/1/15 12/1/15 9/1/15
f 7/1/16 9/1/16 2/1/16
f 9/1/17 13/1/17 14/1/17
f 9/1/18 14/1/18 10/1/18
f 10/1/19 14/1/19 15/1/19
f 10/1/20 15/1/20 11/1/20
f 11/1/21 15/1/21 16/1/21
f 11/1/22 16/1/22 12/1/22
f 12/1/23 16/1/23 13/1/23
f 12/1/24 13/1/24 9/1/24
f 13/1/25 17/1/25 18/1/25
f 13/1/26 18/1/26 14/1/26
f 14/1/27 18/1/27 19/1/27
f 14/1/28 19/1/28 15/1/28
f 15/1/29 19/1/29 20/1/29
f 15/1/30 20/1/30 16/1/30
f 16/1/31 20/1/31 17/1/31
f 16/1/32 17/1/32 13/1/32
f 17/1/33 21/1/33 22/1/33
f 17/1/34 22/1/34 18/1/34
f 18/1/35 22/1/35 23/1/35
f 18/1/36 23/1/36 19/1/36
f 19/1/37 23/1/37 24/1/37
f 19/1/38 24/1/38 20/1/38
f 20/1/39 24/1/39 21/1/39
f 20/1/40 21/1/40 17/1/40
f 21/1/41 25/1/41 26/1/41
f 21/1/42 26/1/42 22/1/42
f 22/1/43 26/1/43 27/1/43
f 22/1/44 27/1/44 23/1/44
f 23/1/45 27/1/45 28/1/45
f 23/1/46 28/1/46 24/1/46
f 24/1/47 28/1/47 25/1/47
f 24/1/48 25/1/48 21/1/48
f 25/1/49 29/1/49 30/1/49
f 25/1/50 30/1/50 26/1/50
f 26/1/51 30/1/51 31/1/51
f 26/1/52 31/1/52 27/1/52
f 27/1/53 31/1/53 32/1/53
f 27/1/54 32/1/54 28/1/54
f 28/1/55 32/1/55 29/1/55
f 28/1/56 29/1/56 25/1/56
f 29/1/57 33/1/57 34/1/57
f 29/1/58 34/1/58 30/1/58
f 30/1/59 34/1/59 35/1/59
f 30/1/60 35/1/60 31/1/60
f 31/1/61 35/1/61 36/1/61
f 31/1/62 36/1/62 32/1/62
f 32/1/63 36/1/63 33/1/63
f 32/1/64 33/1/64 29/1/64
f 1/1/65 4/1/65 6/1/65
f 1/1/65 6/1/65 8/1/65
f 33/1/66 35/1/66 34/1/66
f 33/1/66 36/1/66 35/1/66
f 2/2/67 37/2/67 38/2/67
f 1/2/68 2/2/68 38/2/68
f 39/2/69 2/2/69 1/2/69
f 40/2/8 39/2/8 1/2/8
f 41/2/70 39/2/70 40/2/70
f 42/2/71 41/2/71 40/2/71
f 37/2/72 41/2/72 42/2/72
f 38/2/73 37/2/73 42/2/73
f 9/2/74 43/2/74 37/2/74
f 2/2/75 9/2/75 37/2/75
f 44/2/76 9/2/76 2/2/76
f 39/2/76 44/2/76 2/2/76
f 45/2/77 44/2/77 39/2/77
f 41/2/78 45/2/78 39/2/78
f 43/2/79 45/2/79 41/2/79
f 37/2/79 43/2/79 41/2/79
f 13/2/80 46/2/80 43/2/80
f 9/2/81 13/2/81 43/2/81
f 47/2/82 13/2/82 9/2/82
f 44/2/82 47/2/82 9/2/82
f 48/2/83 47/2/83 44/2/83
f 45/2/84 48/2/84 44/2/84
f 46/2/85 48/2/85 45/2/85
f 43/2/86 46/2/86 45/2/86
f 17/2/87 49/2/87 46/2/87
f 13/2/88 17/2/88 46/2/88
f 50/2/32 17/2/32 13/2/32
f 47/2/32 50/2/32 13/2/32
f 51/2/89 50/2/89 47/2/89
f 48/2/90 51/2/90 47/2/90
f 49/2/91 51/2/91 48/2/91
f 46/2/91 49/2/91 48/2/91
f 21/2/92 52/2/92 49/2/92
f 17/2/38 21/2/38 49/2/38
f 53/2/40 21/2/40 17/2/40
f 50/2/40 53/2/40 17/2/40
f 54/2/93 53/2/93 50/2/93
f 51/2/94 54/2/94 50/2/94
f 52/2/95 54/2/95 51/2/95
f 49/2/95 52/2/95 51/2/95
f 25/2/96 55/2/96 52/2/96
f 21/2/97 25/2/97 52/2/97
f 56/2/98 25/2/98 21/2/98
f 53/2/98 56/2/98 21/2/98
f 57/2/99 56/2/99 53/2/99
f 54/2/100 57/2/100 53/2/100
f 55/2/101 57/2/101 54/2/101
f 52/2/101 55/2/101 54/2/101
f 29/2/102 58/2/102 55/2/102
f 25/2/103 29/2/103 55/2/103
f 59/2/104 29/2/104 25/2/104
f 56/2/104 59/2/104 25/2/104
f 60/2/105 59/2/105 56/2/105
f 57/2/106 60/2/106 56/2/106
f 58/2/107 60/2/107 57/2/107
f 55/2/107 58/2/107 57/2/107
f 33/2/108 61/2/108 58/2/108
f 29/2/109 33/2/109 58/2/109
f 62/2/64 33/2/64 29/2/64
f 59/2/64 62/2/64 29/2/64
f 63/2/110 62/2/110 59/2/110
f 60/2/111 63/2/111 59/2/111
f 61/2/112 63/2/112 60/2/112
f 58/2/112 61/2/112 60/2/112
f 40/2/113 1/2/113 38/2/113
f 42/2/113 40/2/113 38/2/113
f 33/2/114 62/2/114 61/2/114
f 62/2/114 63/2/114 61/2/114
f 64/2/115 3/2/115 4/2/115
f 65/2/116 64/2/116 4/2/116
f 66/2/117 64/2/117 65/2/117
f 67/2/118 66/2/118 65/2/118
f 68/2/119 66/2/119 67/2/119
f 69/2/120 68/2/120 67/2/120
f 3/2/121 68/2/121 69/2/121
f 4/2/121 3/2/121 69/2/121
f 70/2/122 10/2/122 3/2/122
f 64/2/123 70/2/123 3/2/123
f 71/2/124 70/2/124 64/2/124
f 66/2/124 71/2/124 64/2/124
f 72/2/125 71/2/125 66/2/125
f 68/2/126 72/2/126 66/2/126
f 10/2/127 72/2/127 68/2/127
f 3/2/127 10/2/127 68/2/127
f 73/2/128 14/2/128 10/2/128
f 70/2/129 73/2/129 10/2/129
f 74/2/130 73/2/130 70/2/130
f 71/2/131 74/2/131 70/2/131
f 75/2/132 74/2/132 71/2/132
f 72/2/133 75/2/133 71/2/133
f 14/2/134 75/2/134 72/2/134
f 10/2/20 14/2/20 72/2/20
f 76/2/135 18/2/135 14/2/135
f 73/2/136 76/2/136 14/2/136
f 77/2/137 76/2/137 73/2/137
f 74/2/138 77/2/138 73/2/138
f 78/2/139 77/2/139 74/2/139
f 75/2/140 78/2/140 74/2/140
f 18/2/141 78/2/141 75/2/141
f 14/2/142 18/2/142 75/2/142
f 79/2/143 22/2/143 18/2/143
f 76/2/144 79/2/144 18/2/144
f 80/2/145 79/2/145 76/2/145
f 77/2/145 80/2/145 76/2/145
f 81/2/146 80/2/146 77/2/146
f 78/2/147 81/2/147 77/2/147
f 22/2/36 81/2/36 78/2/36
f 18/2/36 22/2/36 78/2/36
f 82/2/148 26/2/148 22/2/148
f 79/2/149 82/2/149 22/2/149
f 83/2/150 82/2/150 79/2/150
f 80/2/150 83/2/150 79/2/150
f 84/2/151 83/2/151 80/2/151
f 81/2/152 84/2/152 80/2/152
f 26/2/44 84/2/44 81/2/44
f 22/2/44 26/2/44 81/2/44
f 85/2/153 30/2/153 26/2/153
f 82/2/154 85/2/154 26/2/154
f 86/2/155 85/2/155 82/2/155
f 83/2/155 86/2/155 82/2/155
f 87/2/156 86/2/156 83/2/156
f 84/2/157 87/2/157 83/2/157
f 30/2/158 87/2/158 84/2/158
f 26/2/158 30/2/158 84/2/158
f 88/2/159 34/2/159 30/2/159
f 85/2/160 88/2/160 30/2/160
f 89/2/161 88/2/161 85/2/161
f 86/2/161 89/2/161 85/2/161
f 90/2/162 89/2/162 86/2/162
f 87/2/163 90/2/163 86/2/163
f 34/2/164 90/2/164 87/2/164
f 30/2/164 34/2/164 87/2/164
f 67/2/113 65/2/113 4/2/113
f 69/2/113 67/2/113 4/2/113
f 88/2/114 89/2/114 34/2/114
f 89/2/114 90/2/114 34/2/114
f 91/3/165 92/3/165 93/3/165
f 94/3/166 91/3/166 93/3/166
f 95/3/167 91/3/167 94/3/167
f 96/3/8 95/3/8 94/3/8
f 97/3/168 95/3/168 96/3/168
f 98/3/169 97/3/169 96/3/169
f 92/3/170 97/3/170 98/3/170
f 93/3/171 92/3/171 98/3/171
f 99/3/172 100/3/172 92/3/172
f 91/3/173 99/3/173 92/3/173
f 101/3/174 99/3/174 91/3/174
f 95/3/174 101/3/174 91/3/174
f 102/3/175 101/3/175 95/3/175
f 97/3/176 102/3/176 95/3/176
f 100/3/12 102/3/12 97/3/12
f 92/3/12 100/3/12 97/3/12
f 103/3/177 104/3/177 100/3/177
f 99/3/178 103/3/178 100/3/178
f 105/3/179 103/3/179 99/3/179
f 101/3/179 105/3/179 99/3/179
f 106/3/180 105/3/180 101/3/180
f 102/3/181 106/3/181 101/3/181
f 104/3/182 106/3/182 102/3/182
f 100/3/182 104/3/182 102/3/182
f 107/3/183 108/3/183 104/3/183
f 103/3/184 107/3/184 104/3/184
f 109/3/185 107/3/185 103/3/185
f 105/3/185 109/3/185 103/3/185
f 110/3/186 109/3/186 105/3/186
f 106/3/187 110/3/187 105/3/187
f 108/3/188 110/3/188 106/3/188
f 104/3/188 108/3/188 106/3/188
f 111/3/189 112/3/189 108/3/189
f 107/3/190 111/3/190 108/3/190
f 113/3/40 111/3/40 107/3/40
f 109/3/40 113/3/40 107/3/40
f 114/3/191 113/3/191 109/3/191
f 110/3/192 114/3/192 109/3/192
f 112/3/193 114/3/193 110/3/193
f 108/3/193 112/3/193 110/3/193
f 115/3/194 116/3/194 112/3/194
f 111/3/195 115/3/195 112/3/195
f 117/3/47 115/3/47 111/3/47
f 113/3/47 117/3/47 111/3/47
f 118/3/196 117/3/196 113/3/196
f 114/3/197 118/3/197 113/3/197
f 116/3/198 118/3/198 114/3/198
f 112/3/198 116/3/198 114/3/198
f 119/3/199 120/3/199 116/3/199
f 115/3/200 119/3/200 116/3/200
f 121/3/201 119/3/201 115/3/201
f 117/3/201 121/3/201 115/3/201
f 122/3/202 121/3/202 117/3/202
f 118/3/203 122/3/203 117/3/203
f 120/3/204 122/3/204 118/3/204
f 116/3/204 120/3/204 118/3/204
f 123/3/205 124/3/205 120/3/205
f 119/3/206 123/3/206 120/3/206
f 125/3/207 123/3/207 119/3/207
f 121/3/207 125/3/207 119/3/207
f 126/3/208 125/3/208 121/3/208
f 122/3/209 126/3/209 121/3/209
f 124/3/210 126/3/210 122/3/210
f 120/3/210 124/3/210 122/3/210
f 96/3/113 94/3/113 93/3/113
f 98/3/113 96/3/113 93/3/113
f 123/3/114 125/3/114 124/3/114
f 125/3/114 126/3/114 124/3/114
f 127/3/211 128/3/211 129/3/211
f 130/3/212 127/3/212 129/3/212
f 131/3/213 127/3/213 130/3/213
f 132/3/214 131/3/214 130/3/214
f 133/3/215 131/3/215 132/3/215
f 134/3/216 133/3/216 132/3/216
f 128/3/217 133/3/217 134/3/217
f 129/3/218 128/3/218 134/3/218
f 135/3/219 136/3/219 128/3/219
f 127/3/220 135/3/220 128/3/220
f 137/3/221 135/3/221 127/3/221
f 131/3/221 137/3/221 127/3/221
f 138/3/222 137/3/222 131/3/222
f 133/3/223 138/3/223 131/3/223
f 136/3/224 138/3/224 133/3/224
f 128/3/224 136/3/224 133/3/224
f 139/3/225 140/3/225 136/3/225
f 135/3/226 139/3/226 136/3/226
f 141/3/227 139/3/227 135/3/227
f 137/3/227 141/3/227 135/3/227
f 142/3/228 141/3/228 137/3/228
f 138/3/229 142/3/229 137/3/229
f 140/3/86 142/3/86 138/3/86
f 136/3/86 140/3/86 138/3/86
f 143/3/230 144/3/230 140/3/230
f 139/3/231 143/3/231 140/3/231
f 145/3/232 143/3/232 139/3/232
f 141/3/232 145/3/232 139/3/232
f 146/3/233 145/3/233 141/3/233
f 142/3/234 146/3/234 141/3/234
f 144/3/235 146/3/235 142/3/235
f 140/3/235 144/3/235 142/3/235
f 147/3/236 148/3/236 144/3/236
f 143/3/237 147/3/237 144/3/237
f 149/3/238 147/3/238 143/3/238
f 145/3/238 149/3/238 143/3/238
f 150/3/239 149/3/239 145/3/239
f 146/3/240 150/3/240 145/3/240
f 148/3/241 150/3/241 146/3/241
f 144/3/241 148/3/241 146/3/241
f 151/3/242 152/3/242 148/3/242
f 147/3/243 151/3/243 148/3/243
f 153/3/48 151/3/48 147/3/48
f 149/3/48 153/3/48 147/3/48
f 154/3/244 153/3/244 149/3/244
f 150/3/245 154/3/245 149/3/245
f 152/3/246 154/3/246 150/3/246
f 148/3/246 152/3/246 150/3/246
f 155/3/247 156/3/247 152/3/247
f 151/3/248 155/3/248 152/3/248
f 157/3/249 155/3/249 151/3/249
f 153/3/249 157/3/249 151/3/249
f 158/3/250 157/3/250 153/3/250
f 154/3/251 158/3/251 153/3/251
f 156/3/252 158/3/252 154/3/252
f 152/3/252 156/3/252 154/3/252
f 159/3/253 160/3/253 156/3/253
f 155/3/254 159/3/254 156/3/254
f 161/3/255 159/3/255 155/3/255
f 157/3/255 161/3/255 155/3/255
f 162/3/256 161/3/256 157/3/256
f 158/3/257 162/3/257 157/3/257
f 160/3/59 162/3/59 158/3/59
f 156/3/59 160/3/59 158/3/59
f 132/3/113 130/3/113 129/3/113
f 134/3/113 132/3/113 129/3/113
f 159/3/114 161/3/114 160/3/114
f 161/3/114 162/3/114 160/3/114
f 163/4/258 164/4/258 165/4/258
f 163/4/259 165/4/259 166/4/259
f 166/4/260 165/4/260 167/4/260
f 166/4/261 167/4/261 168/4/261
f 168/4/262 167/4/262 169/4/262
f 168/4/263 169/4/263 170/4/263
f 170/4/264 169/4/264 164/4/264
f 170/4/265 164/4/265 163/4/265
f 163/4/266 166/4/266 168/4/266
f 163/4/266 168/4/266 170/4/266
f 164/4/267 167/4/267 165/4/267
f 164/4/267 169/4/267 167/4/267
f 171/4/268 172/4/268 173/4/268
f 171/4/269 173/4/269 174/4/269
f 174/4/270 173/4/270 175/4/270
f 174/4/271 175/4/271 176/4/271
f 176/4/272 175/4/272 177/4/272
f 176/4/273 177/4/273 178/4/273
f 178/4/274 177/4/274 172/4/274
f 178/4/232 172/4/232 171/4/232
f 171/4/275 174/4/275 176/4/275
f 171/4/275 176/4/275 178/4/275
f 172/4/276 175/4/276 173/4/276
f 172/4/276 177/4/276 175/4/276
f 179/4/277 180/4/277 181/4/277
f 179/4/278 181/4/278 182/4/278
f 182/4/44 181/4/44 183/4/44
f 182/4/279 183/4/279 184/4/279
f 184/4/280 183/4/280 185/4/280
f 184/4/281 185/4/281 186/4/281
f 186/4/282 185/4/282 180/4/282
f 186/4/283 180/4/283 179/4/283
f 179/4/284 182/4/284 184/4/284
f 179/4/284 184/4/284 186/4/284
f 180/4/285 183/4/285 181/4/285
f 180/4/285 185/4/285 183/4/285
f 187/4/286 188/4/286 189/4/286
f 187/4/287 189/4/287 190/4/287
f 190/4/288 189/4/288 191/4/288
f 190/4/210 191/4/210 192/4/210
f 192/4/289 191/4/289 193/4/289
f 192/4/290 193/4/290 194/4/290
f 194/4/291 193/4/291 188/4/291
f 194/4/207 188/4/207 187/4/207
f 187/4/292 190/4/292 192/4/292
f 187/4/292 192/4/292 194/4/292
f 188/4/66 191/4/66 189/4/66
f 188/4/66 193/4/66 191/4/66
