# CargoTrackMergeTriple - generated by Tools/generate_meshes.py, do not hand-edit
# Regenerate with: python Tools/generate_meshes.py
o CargoTrackMergeTriple
v -0.00000 -0.42000 3.70000
v -0.00000 -0.42000 -3.70000
v 10.00000 -0.42000 -3.70000
v 10.00000 -0.42000 3.70000
v -0.00000 0.00000 3.70000
v 10.00000 0.00000 3.70000
v -0.00000 0.00000 -3.70000
v 10.00000 0.00000 -3.70000
v -10.00000 -0.42000 3.70000
v -10.00000 -0.42000 -3.70000
v -10.00000 0.00000 3.70000
v -10.00000 0.00000 -3.70000
v -0.00000 -0.42000 -4.45000
v 10.00000 -0.42000 -4.45000
v -0.00000 1.15000 -3.70000
v 10.00000 1.15000 -3.70000
v -0.00000 1.15000 -4.45000
v 10.00000 1.15000 -4.45000
v -10.00000 -0.42000 -4.45000
v -10.00000 1.15000 -3.70000
v -10.00000 1.15000 -4.45000
v -0.00000 -0.42000 4.45000
v 10.00000 -0.42000 4.45000
v -0.00000 1.15000 4.45000
v 10.00000 1.15000 4.45000
v -0.00000 1.15000 3.70000
v 10.00000 1.15000 3.70000
v -10.00000 -0.42000 4.45000
v -10.00000 1.15000 4.45000
v -10.00000 1.15000 3.70000
v -0.00000 1.10000 -3.55000
v -0.00000 1.10000 -4.60000
v 10.00000 1.10000 -4.60000
v 10.00000 1.10000 -3.55000
v -0.00000 1.42000 -3.55000
v 10.00000 1.42000 -3.55000
v -0.00000 1.42000 -4.60000
v 10.00000 1.42000 -4.60000
v -10.00000 1.10000 -3.55000
v -10.00000 1.10000 -4.60000
v -10.00000 1.42000 -3.55000
v -10.00000 1.42000 -4.60000
v -0.00000 1.10000 4.60000
v -0.00000 1.10000 3.55000
v 10.00000 1.10000 3.55000
v 10.00000 1.10000 4.60000
v -0.00000 1.42000 4.60000
v 10.00000 1.42000 4.60000
v -0.00000 1.42000 3.55000
v 10.00000 1.42000 3.55000
v -10.00000 1.10000 4.60000
v -10.00000 1.10000 3.55000
v -10.00000 1.42000 4.60000
v -10.00000 1.42000 3.55000
v -10.00000 -0.44000 3.40000
v -10.00000 -0.44000 -3.40000
v -0.00000 -0.44000 -3.40000
v -0.00000 -0.44000 3.40000
v -10.00000 -0.18000 3.40000
v -0.00000 -0.18000 3.40000
v -10.00000 -0.18000 -3.40000
v -0.00000 -0.18000 -3.40000
v -7.32726 -0.42000 -3.43676
v -8.77093 -0.42000 3.82105
v -7.32726 0.00000 -3.43676
v -8.77093 0.00000 3.82105
v -4.75724 -0.42000 -2.65715
v -7.58909 -0.42000 4.17956
v -4.75724 0.00000 -2.65715
v -7.58909 0.00000 4.17956
v -2.38869 -0.42000 -1.39113
v -6.49991 -0.42000 4.76174
v -2.38869 0.00000 -1.39113
v -6.49991 0.00000 4.76174
v -0.31264 -0.42000 0.31264
v -5.54523 -0.42000 5.54523
v -0.31264 0.00000 0.31264
v -5.54523 0.00000 5.54523
v 1.39113 -0.42000 2.38869
v -4.76174 -0.42000 6.49991
v 1.39113 0.00000 2.38869
v -4.76174 0.00000 6.49991
v 2.65715 -0.42000 4.75724
v -4.17956 -0.42000 7.58909
v 2.65715 0.00000 4.75724
v -4.17956 0.00000 7.58909
v 3.43676 -0.42000 7.32726
v -3.82105 -0.42000 8.77093
v 3.43676 0.00000 7.32726
v -3.82105 0.00000 8.77093
v 3.70000 -0.42000 10.00000
v -3.70000 -0.42000 10.00000
v 3.70000 0.00000 10.00000
v -3.70000 0.00000 10.00000
v -8.91725 -0.42000 4.55664
v -8.77093 1.15000 3.82105
v -8.91725 1.15000 4.55664
v -7.87611 -0.42000 4.87247
v -7.58909 1.15000 4.17956
v -7.87611 1.15000 4.87247
v -6.91659 -0.42000 5.38534
v -6.49991 1.15000 4.76174
v -6.91659 1.15000 5.38534
v -6.07556 -0.42000 6.07556
v -5.54523 1.15000 5.54523
v -6.07556 1.15000 6.07556
v -5.38534 -0.42000 6.91659
v -4.76174 1.15000 6.49991
v -5.38534 1.15000 6.91659
v -4.87247 -0.42000 7.87611
v -4.17956 1.15000 7.58909
v -4.87247 1.15000 7.87611
v -4.55664 -0.42000 8.91725
v -3.82105 1.15000 8.77093
v -4.55664 1.15000 8.91725
v -4.45000 -0.42000 10.00000
v -3.70000 1.15000 10.00000
v -4.45000 1.15000 10.00000
v -7.18094 -0.42000 -4.17235
v -7.18094 1.15000 -4.17235
v -7.32726 1.15000 -3.43676
v -4.47022 -0.42000 -3.35006
v -4.47022 1.15000 -3.35006
v -4.75724 1.15000 -2.65715
v -1.97201 -0.42000 -2.01474
v -1.97201 1.15000 -2.01474
v -2.38869 1.15000 -1.39113
v 0.21769 -0.42000 -0.21769
v 0.21769 1.15000 -0.21769
v -0.31264 1.15000 0.31264
v 2.01474 -0.42000 1.97201
v 2.01474 1.15000 1.97201
v 1.39113 1.15000 2.38869
v 3.35006 -0.42000 4.47022
v 3.35006 1.15000 4.47022
v 2.65715 1.15000 4.75724
v 4.17235 -0.42000 7.18094
v 4.17235 1.15000 7.18094
v 3.43676 1.15000 7.32726
v 4.45000 -0.42000 10.00000
v 4.45000 1.15000 10.00000
v 3.70000 1.15000 10.00000
v -8.74167 1.10000 3.67393
v -8.94651 1.10000 4.70376
v -8.74167 1.42000 3.67393
v -8.94651 1.42000 4.70376
v -7.53169 1.10000 4.04098
v -7.93351 1.10000 5.01105
v -7.53169 1.42000 4.04098
v -7.93351 1.42000 5.01105
v -6.41657 1.10000 4.63702
v -6.99992 1.10000 5.51006
v -6.41657 1.42000 4.63702
v -6.99992 1.42000 5.51006
v -5.43916 1.10000 5.43916
v -6.18162 1.10000 6.18162
v -5.43916 1.42000 5.43916
v -6.18162 1.42000 6.18162
v -4.63702 1.10000 6.41657
v -5.51006 1.10000 6.99992
v -4.63702 1.42000 6.41657
v -5.51006 1.42000 6.99992
v -4.04098 1.10000 7.53169
v -5.01105 1.10000 7.93351
v -4.04098 1.42000 7.53169
v -5.01105 1.42000 7.93351
v -3.67393 1.10000 8.74167
v -4.70376 1.10000 8.94651
v -3.67393 1.42000 8.74167
v -4.70376 1.42000 8.94651
v -3.55000 1.10000 10.00000
v -4.60000 1.10000 10.00000
v -3.55000 1.42000 10.00000
v -4.60000 1.42000 10.00000
v -7.15168 1.10000 -4.31947
v -7.35653 1.10000 -3.28964
v -7.15168 1.42000 -4.31947
v -7.35653 1.42000 -3.28964
v -4.41282 1.10000 -3.48864
v -4.81464 1.10000 -2.51857
v -4.41282 1.42000 -3.48864
v -4.81464 1.42000 -2.51857
v -1.88867 1.10000 -2.13946
v -2.47202 1.10000 -1.26641
v -1.88867 1.42000 -2.13946
v -2.47202 1.42000 -1.26641
v 0.32376 1.10000 -0.32376
v -0.41870 1.10000 0.41870
v 0.32376 1.42000 -0.32376
v -0.41870 1.42000 0.41870
v 2.13946 1.10000 1.88867
v 1.26641 1.10000 2.47202
v 2.13946 1.42000 1.88867
v 1.26641 1.42000 2.47202
v 3.48864 1.10000 4.41282
v 2.51857 1.10000 4.81464
v 3.48864 1.42000 4.41282
v 2.51857 1.42000 4.81464
v 4.31947 1.10000 7.15168
v 3.28964 1.10000 7.35653
v 4.31947 1.42000 7.15168
v 3.28964 1.42000 7.35653
v 4.60000 1.10000 10.00000
v 3.55000 1.10000 10.00000
v 4.60000 1.42000 10.00000
v 3.55000 1.42000 10.00000
v -4.87204 -0.44000 -2.37999
v -7.47429 -0.44000 3.90240
v -8.71240 -0.44000 3.52682
v -7.38579 -0.44000 -3.14252
v -4.87204 -0.18000 -2.37999
v -7.38579 -0.18000 -3.14252
v -7.47429 -0.18000 3.90240
v -8.71240 -0.18000 3.52682
v -0.52477 -0.44000 0.52477
v -5.33310 -0.44000 5.33310
v -6.33324 -0.44000 4.51230
v -2.55536 -0.44000 -1.14169
v -0.52477 -0.18000 0.52477
v -2.55536 -0.18000 -1.14169
v -5.33310 -0.18000 5.33310
v -6.33324 -0.18000 4.51230
v 2.37999 -0.44000 4.87204
v -3.90240 -0.44000 7.47429
v -4.51230 -0.44000 6.33324
v 1.14169 -0.44000 2.55536
v 2.37999 -0.18000 4.87204
v 1.14169 -0.18000 2.55536
v -3.90240 -0.18000 7.47429
v -4.51230 -0.18000 6.33324
v 3.40000 -0.44000 10.00000
v -3.40000 -0.44000 10.00000
v -3.52682 -0.44000 8.71240
v 3.14252 -0.44000 7.38579
v 3.40000 -0.18000 10.00000
v 3.14252 -0.18000 7.38579
v -3.40000 -0.18000 10.00000
v -3.52682 -0.18000 8.71240
v -8.77093 -0.42000 -3.82105
v -7.32726 -0.42000 3.43676
v -8.77093 0.00000 -3.82105
v -7.32726 0.00000 3.43676
v -7.58909 -0.42000 -4.17956
v -4.75724 -0.42000 2.65715
v -7.58909 0.00000 -4.17956
v -4.75724 0.00000 2.65715
v -6.49991 -0.42000 -4.76174
v -2.38869 -0.42000 1.39113
v -6.49991 0.00000 -4.76174
v -2.38869 0.00000 1.39113
v -5.54523 -0.42000 -5.54523
v -0.31264 -0.42000 -0.31264
v -5.54523 0.00000 -5.54523
v -0.31264 0.00000 -0.31264
v -4.76174 -0.42000 -6.49991
v 1.39113 -0.42000 -2.38869
v -4.76174 0.00000 -6.49991
v 1.39113 0.00000 -2.38869
v -4.17956 -0.42000 -7.58909
v 2.65715 -0.42000 -4.75724
v -4.17956 0.00000 -7.58909
v 2.65715 0.00000 -4.75724
v -3.82105 -0.42000 -8.77093
v 3.43676 -0.42000 -7.32726
v -3.82105 0.00000 -8.77093
v 3.43676 0.00000 -7.32726
v -3.70000 -0.42000 -10.00000
v 3.70000 -0.42000 -10.00000
v -3.70000 0.00000 -10.00000
v 3.70000 0.00000 -10.00000
v -7.18094 -0.42000 4.17235
v -7.32726 1.15000 3.43676
v -7.18094 1.15000 4.17235
v -4.47022 -0.42000 3.35006
v -4.75724 1.15000 2.65715
v -4.47022 1.15000 3.35006
v -1.97201 -0.42000 2.01474
v -2.38869 1.15000 1.39113
v -1.97201 1.15000 2.01474
v 0.21769 -0.42000 0.21769
v -0.31264 1.15000 -0.31264
v 0.21769 1.15000 0.21769
v 2.01474 -0.42000 -1.97201
v 1.39113 1.15000 -2.38869
v 2.01474 1.15000 -1.97201
v 3.35006 -0.42000 -4.47022
v 2.65715 1.15000 -4.75724
v 3.35006 1.15000 -4.47022
v 4.17235 -0.42000 -7.18094
v 3.43676 1.15000 -7.32726
v 4.17235 1.15000 -7.18094
v 4.45000 -0.42000 -10.00000
v 3.70000 1.15000 -10.00000
v 4.45000 1.15000 -10.00000
v -8.91725 -0.42000 -4.55664
v -8.91725 1.15000 -4.55664
v -8.77093 1.15000 -3.82105
v -7.87611 -0.42000 -4.87247
v -7.87611 1.15000 -4.87247
v -7.58909 1.15000 -4.17956
v -6.91659 -0.42000 -5.38534
v -6.91659 1.15000 -5.38534
v -6.49991 1.15000 -4.76174
v -6.07556 -0.42000 -6.07556
v -6.07556 1.15000 -6.07556
v -5.54523 1.15000 -5.54523
v -5.38534 -0.42000 -6.91659
v -5.38534 1.15000 -6.91659
v -4.76174 1.15000 -6.49991
v -4.87247 -0.42000 -7.87611
v -4.87247 1.15000 -7.87611
v -4.17956 1.15000 -7.58909
v -4.55664 -0.42000 -8.91725
v -4.55664 1.15000 -8.91725
v -3.82105 1.15000 -8.77093
v -4.45000 -0.42000 -10.00000
v -4.45000 1.15000 -10.00000
v -3.70000 1.15000 -10.00000
v -7.35653 1.10000 3.28964
v -7.15168 1.10000 4.31947
v -7.35653 1.42000 3.28964
v -7.15168 1.42000 4.31947
v -4.81464 1.10000 2.51857
v -4.41282 1.10000 3.48864
v -4.81464 1.42000 2.51857
v -4.41282 1.42000 3.48864
v -2.47202 1.10000 1.26641
v -1.88867 1.10000 2.13946
v -2.47202 1.42000 1.26641
v -1.88867 1.42000 2.13946
v -0.41870 1.10000 -0.41870
v 0.32376 1.10000 0.32376
v -0.41870 1.42000 -0.41870
v 0.32376 1.42000 0.32376
v 1.26641 1.10000 -2.47202
v 2.13946 1.10000 -1.88867
v 1.26641 1.42000 -2.47202
v 2.13946 1.42000 -1.88867
v 2.51857 1.10000 -4.81464
v 3.48864 1.10000 -4.41282
v 2.51857 1.42000 -4.81464
v 3.48864 1.42000 -4.41282
v 3.28964 1.10000 -7.35653
v 4.31947 1.10000 -7.15168
v 3.28964 1.42000 -7.35653
v 4.31947 1.42000 -7.15168
v 3.55000 1.10000 -10.00000
v 4.60000 1.10000 -10.00000
v 3.55000 1.42000 -10.00000
v 4.60000 1.42000 -10.00000
v -8.94651 1.10000 -4.70376
v -8.74167 1.10000 -3.67393
v -8.94651 1.42000 -4.70376
v -8.74167 1.42000 -3.67393
v -7.93351 1.10000 -5.01105
v -7.53169 1.10000 -4.04098
v -7.93351 1.42000 -5.01105
v -7.53169 1.42000 -4.04098
v -6.99992 1.10000 -5.51006
v -6.41657 1.10000 -4.63702
v -6.99992 1.42000 -5.51006
v -6.41657 1.42000 -4.63702
v -6.18162 1.10000 -6.18162
v -5.43916 1.10000 -5.43916
v -6.18162 1.42000 -6.18162
v -5.43916 1.42000 -5.43916
v -5.51006 1.10000 -6.99992
v -4.63702 1.10000 -6.41657
v -5.51006 1.42000 -6.99992
v -4.63702 1.42000 -6.41657
v -5.01105 1.10000 -7.93351
v -4.04098 1.10000 -7.53169
v -5.01105 1.42000 -7.93351
v -4.04098 1.42000 -7.53169
v -4.70376 1.10000 -8.94651
v -3.67393 1.10000 -8.74167
v -4.70376 1.42000 -8.94651
v -3.67393 1.42000 -8.74167
v -4.60000 1.10000 -10.00000
v -3.55000 1.10000 -10.00000
v -4.60000 1.42000 -10.00000
v -3.55000 1.42000 -10.00000
v -7.47429 -0.44000 -3.90240
v -4.87204 -0.44000 2.37999
v -7.38579 -0.44000 3.14252
v -8.71240 -0.44000 -3.52682
v -7.47429 -0.18000 -3.90240
v -8.71240 -0.18000 -3.52682
v -4.87204 -0.18000 2.37999
v -7.38579 -0.18000 3.14252
v -5.33310 -0.44000 -5.33310
v -0.52477 -0.44000 -0.52477
v -2.55536 -0.44000 1.14169
v -6.33324 -0.44000 -4.51230
v -5.33310 -0.18000 -5.33310
v -6.33324 -0.18000 -4.51230
v -0.52477 -0.18000 -0.52477
v -2.55536 -0.18000 1.14169
v -3.90240 -0.44000 -7.47429
v 2.37999 -0.44000 -4.87204
v 1.14169 -0.44000 -2.55536
v -4.51230 -0.44000 -6.33324
v -3.90240 -0.18000 -7.47429
v -4.51230 -0.18000 -6.33324
v 2.37999 -0.18000 -4.87204
v 1.14169 -0.18000 -2.55536
v -3.40000 -0.44000 -10.00000
v 3.40000 -0.44000 -10.00000
v 3.14252 -0.44000 -7.38579
v -3.52682 -0.44000 -8.71240
v -3.40000 -0.18000 -10.00000
v -3.52682 -0.18000 -8.71240
v 3.40000 -0.18000 -10.00000
v 3.14252 -0.18000 -7.38579
vt 0.07000 0.01000
vt 0.06000 0.01000
vt 0.02000 0.01000
vt 0.08000 0.01000
vn 0.00000 -1.00000 0.00000
vn 0.00000 0.00000 1.00000
vn 0.00000 1.00000 0.00000
vn 0.00000 0.00000 -1.00000
vn 1.00000 0.00000 0.00000
vn -1.00000 0.00000 0.00000
vn 0.09802 0.00000 -0.99518
vn -0.09802 0.00000 0.99518
vn 0.29028 0.00000 -0.95694
vn -0.29028 0.00000 0.95694
vn 0.47140 0.00000 -0.88192
vn -0.47140 0.00000 0.88192
vn 0.63439 0.00000 -0.77301
vn -0.63439 0.00000 0.77301
vn 0.77301 0.00000 -0.63439
vn -0.77301 0.00000 0.63439
vn 0.88192 0.00000 -0.47140
vn -0.88192 0.00000 0.47140
vn 0.95694 0.00000 -0.29028
vn -0.95694 0.00000 0.29028
vn 0.99518 0.00000 -0.09802
vn -0.99518 0.00000 0.09802
vn 0.09802 0.00000 -0.99518
vn -0.09802 0.00000 0.99518
vn 0.29028 0.00000 -0.95694
vn 0.47140 0.00000 -0.88192
vn -0.47140 0.00000 0.88192
vn 0.63439 0.00000 -0.77301
vn -0.63439 0.00000 0.77301
vn 0.77301 0.00000 -0.63439
vn -0.77301 0.00000 0.63439
vn 0.88192 0.00000 -0.47140
vn -0.88192 0.00000 0.47140
vn 0.95694 0.00000 -0.29028
vn -0.95694 0.00000 0.29028
vn 0.99518 0.00000 -0.09802
vn -0.99518 0.00000 0.09802
vn 0.09802 0.00000 -0.99518
vn -0.09802 0.00000 0.99518
vn 0.29028 0.00000 -0.95694
vn -0.29028 0.00000 0.95694
vn 0.47140 0.00000 -0.88192
vn -0.47140 0.00000 0.88192
vn -0.63439 0.00000 0.77301
vn 0.77301 0.00000 -0.63439
vn -0.77301 0.00000 0.63439
vn 0.88192 0.00000 -0.47140
vn -0.88192 0.00000 0.47140
vn 0.95694 0.00000 -0.29028
vn -0.95694 0.00000 0.29028
vn 0.99518 0.00000 -0.09802
vn -0.99518 0.00000 0.09802
vn 0.09802 0.00000 -0.99518
vn -0.09802 0.00000 0.99518
vn 0.29028 0.00000 -0.95694
vn -0.29028 0.00000 0.95694
vn 0.47140 0.00000 -0.88192
vn -0.47140 0.00000 0.88192
vn 0.63439 0.00000 -0.77301
vn -0.63439 0.00000 0.77301
vn 0.77301 0.00000 -0.63439
vn -0.77301 0.00000 0.63439
vn 0.88192 0.00000 -0.47140
vn -0.88192 0.00000 0.47140
vn 0.95694 0.00000 -0.29028
vn -0.95694 0.00000 0.29028
vn 0.99518 0.00000 -0.09802
vn -0.99518 0.00000 0.09802
vn -0.09802 0.00000 0.99518
vn 0.29028 0.00000 -0.95694
vn 0.47140 0.00000 -0.88192
vn -0.47140 0.00000 0.88192
vn 0.63439 0.00000 -0.77301
vn 0.77301 0.00000 -0.63439
vn -0.77301 0.00000 0.63439
vn -0.88192 0.00000 0.47140
vn 0.95694 0.00000 -0.29028
vn -0.95694 0.00000 0.29028
vn 0.99518 0.00000 -0.09802
vn 0.29028 0.00000 -0.95694
vn -0.98079 -0.00000 -0.19509
vn 0.92388 -0.00000 0.38268
vn 0.63439 0.00000 -0.77301
vn -0.83147 -0.00000 -0.55557
vn 0.70711 -0.00000 0.70711
vn 0.88192 0.00000 -0.47140
vn -0.88192 0.00000 0.47140
vn -0.55557 -0.00000 -0.83147
vn 0.38268 -0.00000 0.92388
vn 0.99518 0.00000 -0.09802
vn -0.19509 -0.00000 -0.98079
vn -0.09802 -0.00000 -0.99518
vn 0.09802 -0.00000 0.99518
vn -0.29028 -0.00000 -0.95694
vn 0.29028 -0.00000 0.95694
vn -0.47140 -0.00000 -0.88192
vn 0.47140 -0.00000 0.88192
vn -0.63439 -0.00000 -0.77301
vn 0.63439 -0.00000 0.77301
vn -0.77301 -0.00000 -0.63439
vn 0.77301 -0.00000 0.63439
vn -0.88192 -0.00000 -0.47140
vn 0.88192 -0.00000 0.47140
vn -0.95694 -0.00000 -0.29028
vn 0.95694 -0.00000 0.29028
vn -0.99518 -0.00000 -0.09802
vn 0.99518 -0.00000 0.09802
vn -0.09802 -0.00000 -0.99518
vn 0.09802 -0.00000 0.99518
vn -0.29028 -0.00000 -0.95694
vn 0.29028 -0.00000 0.95694
vn -0.47140 -0.00000 -0.88192
vn 0.47140 -0.00000 0.88192
vn -0.63439 -0.00000 -0.77301
vn 0.63439 -0.00000 0.77301
vn -0.77301 -0.00000 -0.63439
vn 0.77301 -0.00000 0.63439
vn -0.88192 -0.00000 -0.47140
vn 0.88192 -0.00000 0.47140
vn -0.95694 -0.00000 -0.29028
vn 0.95694 -0.00000 0.29028
vn -0.99518 -0.00000 -0.09802
vn 0.99518 -0.00000 0.09802
vn -0.09802 -0.00000 -0.99518
vn 0.09802 -0.00000 0.99518
vn -0.29028 -0.00000 -0.95694
vn 0.29028 -0.00000 0.95694
vn -0.47140 -0.00000 -0.88192
vn 0.47140 -0.00000 0.88192
vn -0.63439 -0.00000 -0.77301
vn 0.63439 -0.00000 0.77301
vn -0.77301 -0.00000 -0.63439
vn 0.77301 -0.00000 0.63439
vn -0.88192 -0.00000 -0.47140
vn 0.88192 -0.00000 0.47140
vn -0.95694 -0.00000 -0.29028
vn 0.95694 -0.00000 0.29028
vn -0.99518 -0.00000 -0.09802
vn 0.99518 -0.00000 0.09802
vn -0.09802 -0.00000 -0.99518
vn -0.29028 -0.00000 -0.95694
vn 0.29028 -0.00000 0.95694
vn 0.47140 -0.00000 0.88192
vn -0.63439 -0.00000 -0.77301
vn 0.63439 -0.00000 0.77301
vn -0.77301 -0.00000 -0.63439
vn -0.88192 -0.00000 -0.47140
vn 0.88192 -0.00000 0.47140
vn -0.95694 -0.00000 -0.29028
vn 0.95694 -0.00000 0.29028
vn -0.99518 -0.00000 -0.09802
vn 0.99518 -0.00000 0.09802
vn -0.09802 -0.00000 -0.99518
vn 0.09802 -0.00000 0.99518
vn -0.29028 -0.00000 -0.95694
vn 0.29028 -0.00000 0.95694
vn -0.47140 -0.00000 -0.88192
vn 0.47140 -0.00000 0.88192
vn -0.63439 -0.00000 -0.77301
vn 0.63439 -0.00000 0.77301
vn -0.77301 -0.00000 -0.63439
vn 0.77301 -0.00000 0.63439
vn -0.88192 -0.00000 -0.47140
vn 0.88192 -0.00000 0.47140
vn 0.95694 -0.00000 0.29028
vn -0.99518 -0.00000 -0.09802
vn 0.99518 -0.00000 0.09802
vn 0.29028 -0.00000 0.95694
vn -0.98079 0.00000 0.19509
vn 0.92388 0.00000 -0.38268
vn -0.63439 -0.00000 -0.77301
vn -0.83147 0.00000 0.55557
vn 0.70711 0.00000 -0.70711
vn -0.88192 -0.00000 -0.47140
vn -0.55557 0.00000 0.83147
vn 0.38268 0.00000 -0.92388
vn -0.99518 -0.00000 -0.09802
vn -0.19509 0.00000 0.98079
f 1/1/1 2/1/1 3/1/1
f 4/1/1 1/1/1 3/1/1
f 5/1/2 1/1/2 4/1/2
f 6/1/2 5/1/2 4/1/2
f 7/1/3 5/1/3 6/1/3
f 8/1/3 7/1/3 6/1/3
f 2/1/4 7/1/4 8/1/4
f 3/1/4 2/1/4 8/1/4
f 9/1/1 10/1/1 2/1/1
f 1/1/1 9/1/1 2/1/1
f 11/1/2 9/1/2 1/1/2
f 5/1/2 11/1/2 1/1/2
f 12/1/3 11/1/3 5/1/3
f 7/1/3 12/1/3 5/1/3
f 10/1/4 12/1/4 7/1/4
f 2/1/4 10/1/4 7/1/4
f 6/1/5 4/1/5 3/1/5
f 8/1/5 6/1/5 3/1/5
f 9/1/6 11/1/6 10/1/6
f 11/1/6 12/1/6 10/1/6
f 2/2/1 13/2/1 14/2/1
f 3/2/1 2/2/1 14/2/1
f 15/2/2 2/2/2 3/2/2
f 16/2/2 15/2/2 3/2/2
f 17/2/3 15/2/3 16/2/3
f 18/2/3 17/2/3 16/2/3
f 13/2/4 17/2/4 18/2/4
f 14/2/4 13/2/4 18/2/4
f 10/2/1 19/2/1 13/2/1
f 2/2/1 10/2/1 13/2/1
f 20/2/2 10/2/2 2/2/2
f 15/2/2 20/2/2 2/2/2
f 21/2/3 20/2/3 15/2/3
f 17/2/3 21/2/3 15/2/3
f 19/2/4 21/2/4 17/2/4
f 13/2/4 19/2/4 17/2/4
f 16/2/5 3/2/5 14/2/5
f 18/2/5 16/2/5 14/2/5
f 10/2/6 20/2/6 19/2/6
f 20/2/6 21/2/6 19/2/6
f 22/2/1 1/2/1 4/2/1
f 23/2/1 22/2/1 4/2/1
f 24/2/2 22/2/2 23/2/2
f 25/2/2 24/2/2 23/2/2
f 26/2/3 24/2/3 25/2/3
f 27/2/3 26/2/3 25/2/3
f 1/2/4 26/2/4 27/2/4
f 4/2/4 1/2/4 27/2/4
f 28/2/1 9/2/1 1/2/1
f 22/2/1 28/2/1 1/2/1
f 29/2/2 28/2/2 22/2/2
f 24/2/2 29/2/2 22/2/2
f 30/2/3 29/2/3 24/2/3
f 26/2/3 30/2/3 24/2/3
f 9/2/4 30/2/4 26/2/4
f 1/2/4 9/2/4 26/2/4
f 25/2/5 23/2/5 4/2/5
f 27/2/5 25/2/5 4/2/5
f 28/2/6 29/2/6 9/2/6
f 29/2/6 30/2/6 9/2/6
f 31/3/1 32/3/1 33/3/1
f 34/3/1 31/3/1 33/3/1
f 35/3/2 31/3/2 34/3/2
f 36/3/2 35/3/2 34/3/2
f 37/3/3 35/3/3 36/3/3
f 38/3/3 37/3/3 36/3/3
f 32/3/4 37/3/4 38/3/4
f 33/3/4 32/3/4 38/3/4
f 39/3/1 40/3/1 32/3/1
f 31/3/1 39/3/1 32/3/1
f 41/3/2 39/3/2 31/3/2
f 35/3/2 41/3/2 31/3/2
f 42/3/3 41/3/3 35/3/3
f 37/3/3 42/3/3 35/3/3
f 40/3/4 42/3/4 37/3/4
f 32/3/4 40/3/4 37/3/4
f 36/3/5 34/3/5 33/3/5
f 38/3/5 36/3/5 33/3/5
f 39/3/6 41/3/6 40/3/6
f 41/3/6 42/3/6 40/3/6
f 43/3/1 44/3/1 45/3/1
f 46/3/1 43/3/1 45/3/1
f 47/3/2 43/3/2 46/3/2
f 48/3/2 47/3/2 46/3/2
f 49/3/3 47/3/3 48/3/3
f 50/3/3 49/3/3 48/3/3
f 44/3/4 49/3/4 50/3/4
f 45/3/4 44/3/4 50/3/4
f 51/3/1 52/3/1 44/3/1
f 43/3/1 51/3/1 44/3/1
f 53/3/2 51/3/2 43/3/2
f 47/3/2 53/3/2 43/3/2
f 54/3/3 53/3/3 47/3/3
f 49/3/3 54/3/3 47/3/3
f 52/3/4 54/3/4 49/3/4
f 44/3/4 52/3/4 49/3/4
f 48/3/5 46/3/5 45/3/5
f 50/3/5 48/3/5 45/3/5
f 51/3/6 53/3/6 52/3/6
f 53/3/6 54/3/6 52/3/6
f 55/4/1 56/4/1 57/4/1
f 58/4/1 55/4/1 57/4/1
f 59/4/2 55/4/2 58/4/2
f 60/4/2 59/4/2 58/4/2
f 61/4/3 59/4/3 60/4/3
f 62/4/3 61/4/3 60/4/3
f 56/4/4 61/4/4 62/4/4
f 57/4/4 56/4/4 62/4/4
f 60/4/5 58/4/5 57/4/5
f 62/4/5 60/4/5 57/4/5
f 55/4/6 59/4/6 56/4/6
f 59/4/6 61/4/6 56/4/6
f 63/1/1 64/1/1 9/1/1
f 10/1/1 63/1/1 9/1/1
f 65/1/7 63/1/7 10/1/7
f 12/1/7 65/1/7 10/1/7
f 66/1/3 65/1/3 12/1/3
f 11/1/3 66/1/3 12/1/3
f 64/1/8 66/1/8 11/1/8
f 9/1/8 64/1/8 11/1/8
f 67/1/1 68/1/1 64/1/1
f 63/1/1 67/1/1 64/1/1
f 69/1/9 67/1/9 63/1/9
f 65/1/9 69/1/9 63/1/9
f 70/1/3 69/1/3 65/1/3
f 66/1/3 70/1/3 65/1/3
f 68/1/10 70/1/10 66/1/10
f 64/1/10 68/1/10 66/1/10
f 71/1/1 72/1/1 68/1/1
f 67/1/1 71/1/1 68/1/1
f 73/1/11 71/1/11 67/1/11
f 69/1/11 73/1/11 67/1/11
f 74/1/3 73/1/3 69/1/3
f 70/1/3 74/1/3 69/1/3
f 72/1/12 74/1/12 70/1/12
f 68/1/12 72/1/12 70/1/12
f 75/1/1 76/1/1 72/1/1
f 71/1/1 75/1/1 72/1/1
f 77/1/13 75/1/13 71/1/13
f 73/1/13 77/1/13 71/1/13
f 78/1/3 77/1/3 73/1/3
f 74/1/3 78/1/3 73/1/3
f 76/1/14 78/1/14 74/1/14
f 72/1/14 76/1/14 74/1/14
f 79/1/1 80/1/1 76/1/1
f 75/1/1 79/1/1 76/1/1
f 81/1/15 79/1/15 75/1/15
f 77/1/15 81/1/15 75/1/15
f 82/1/3 81/1/3 77/1/3
f 78/1/3 82/1/3 77/1/3
f 80/1/16 82/1/16 78/1/16
f 76/1/16 80/1/16 78/1/16
f 83/1/1 84/1/1 80/1/1
f 79/1/1 83/1/1 80/1/1
f 85/1/17 83/1/17 79/1/17
f 81/1/17 85/1/17 79/1/17
f 86/1/3 85/1/3 81/1/3
f 82/1/3 86/1/3 81/1/3
f 84/1/18 86/1/18 82/1/18
f 80/1/18 84/1/18 82/1/18
f 87/1/1 88/1/1 84/1/1
f 83/1/1 87/1/1 84/1/1
f 89/1/19 87/1/19 83/1/19
f 85/1/19 89/1/19 83/1/19
f 90/1/3 89/1/3 85/1/3
f 86/1/3 90/1/3 85/1/3
f 88/1/20 90/1/20 86/1/20
f 84/1/20 88/1/20 86/1/20
f 91/1/1 92/1/1 88/1/1
f 87/1/1 91/1/1 88/1/1
f 93/1/21 91/1/21 87/1/21
f 89/1/21 93/1/21 87/1/21
f 94/1/3 93/1/3 89/1/3
f 90/1/3 94/1/3 89/1/3
f 92/1/22 94/1/22 90/1/22
f 88/1/22 92/1/22 90/1/22
f 12/1/6 10/1/6 9/1/6
f 11/1/6 12/1/6 9/1/6
f 91/1/2 93/1/2 92/1/2
f 93/1/2 94/1/2 92/1/2
f 64/2/1 95/2/1 28/2/1
f 9/2/1 64/2/1 28/2/1
f 96/2/23 64/2/23 9/2/23
f 30/2/23 96/2/23 9/2/23
f 97/2/3 96/2/3 30/2/3
f 29/2/3 97/2/3 30/2/3
f 95/2/24 97/2/24 29/2/24
f 28/2/24 95/2/24 29/2/24
f 68/2/1 98/2/1 95/2/1
f 64/2/1 68/2/1 95/2/1
f 99/2/25 68/2/25 64/2/25
f 96/2/25 99/2/25 64/2/25
f 100/2/3 99/2/3 96/2/3
f 97/2/3 100/2/3 96/2/3
f 98/2/10 100/2/10 97/2/10
f 95/2/10 98/2/10 97/2/10
f 72/2/1 101/2/1 98/2/1
f 68/2/1 72/2/1 98/2/1
f 102/2/26 72/2/26 68/2/26
f 99/2/26 102/2/26 68/2/26
f 103/2/3 102/2/3 99/2/3
f 100/2/3 103/2/3 99/2/3
f 101/2/27 103/2/27 100/2/27
f 98/2/27 101/2/27 100/2/27
f 76/2/1 104/2/1 101/2/1
f 72/2/1 76/2/1 101/2/1
f 105/2/28 76/2/28 72/2/28
f 102/2/28 105/2/28 72/2/28
f 106/2/3 105/2/3 102/2/3
f 103/2/3 106/2/3 102/2/3
f 104/2/29 106/2/29 103/2/29
f 101/2/29 104/2/29 103/2/29
f 80/2/1 107/2/1 104/2/1
f 76/2/1 80/2/1 104/2/1
f 108/2/30 80/2/30 76/2/30
f 105/2/30 108/2/30 76/2/30
f 109/2/3 108/2/3 105/2/3
f 106/2/3 109/2/3 105/2/3
f 107/2/31 109/2/31 106/2/31
f 104/2/31 107/2/31 106/2/31
f 84/2/1 110/2/1 107/2/1
f 80/2/1 84/2/1 107/2/1
f 111/2/32 84/2/32 80/2/32
f 108/2/32 111/2/32 80/2/32
f 112/2/3 111/2/3 108/2/3
f 109/2/3 112/2/3 108/2/3
f 110/2/33 112/2/33 109/2/33
f 107/2/33 110/2/33 109/2/33
f 88/2/1 113/2/1 110/2/1
f 84/2/1 88/2/1 110/2/1
f 114/2/34 88/2/34 84/2/34
f 111/2/34 114/2/34 84/2/34
f 115/2/3 114/2/3 111/2/3
f 112/2/3 115/2/3 111/2/3
f 113/2/35 115/2/35 112/2/35
f 110/2/35 113/2/35 112/2/35
f 92/2/1 116/2/1 113/2/1
f 88/2/1 92/2/1 113/2/1
f 117/2/36 92/2/36 88/2/36
f 114/2/36 117/2/36 88/2/36
f 118/2/3 117/2/3 114/2/3
f 115/2/3 118/2/3 114/2/3
f 116/2/37 118/2/37 115/2/37
f 113/2/37 116/2/37 115/2/37
f 30/2/6 9/2/6 28/2/6
f 29/2/6 30/2/6 28/2/6
f 92/2/2 117/2/2 116/2/2
f 117/2/2 118/2/2 116/2/2
f 119/2/1 63/2/1 10/2/1
f 19/2/1 119/2/1 10/2/1
f 120/2/38 119/2/38 19/2/38
f 21/2/38 120/2/38 19/2/38
f 121/2/3 120/2/3 21/2/3
f 20/2/3 121/2/3 21/2/3
f 63/2/39 121/2/39 20/2/39
f 10/2/39 63/2/39 20/2/39
f 122/2/1 67/2/1 63/2/1
f 119/2/1 122/2/1 63/2/1
f 123/2/40 122/2/40 119/2/40
f 120/2/40 123/2/40 119/2/40
f 124/2/3 123/2/3 120/2/3
f 121/2/3 124/2/3 120/2/3
f 67/2/41 124/2/41 121/2/41
f 63/2/41 67/2/41 121/2/41
f 125/2/1 71/2/1 67/2/1
f 122/2/1 125/2/1 67/2/1
f 126/2/42 125/2/42 122/2/42
f 123/2/42 126/2/42 122/2/42
f 127/2/3 126/2/3 123/2/3
f 124/2/3 127/2/3 123/2/3
f 71/2/43 127/2/43 124/2/43
f 67/2/43 71/2/43 124/2/43
f 128/2/1 75/2/1 71/2/1
f 125/2/1 128/2/1 71/2/1
f 129/2/13 128/2/13 125/2/13
f 126/2/13 129/2/13 125/2/13
f 130/2/3 129/2/3 126/2/3
f 127/2/3 130/2/3 126/2/3
f 75/2/44 130/2/44 127/2/44
f 71/2/44 75/2/44 127/2/44
f 131/2/1 79/2/1 75/2/1
f 128/2/1 131/2/1 75/2/1
f 132/2/45 131/2/45 128/2/45
f 129/2/45 132/2/45 128/2/45
f 133/2/3 132/2/3 129/2/3
f 130/2/3 133/2/3 129/2/3
f 79/2/46 133/2/46 130/2/46
f 75/2/46 79/2/46 130/2/46
f 134/2/1 83/2/1 79/2/1
f 131/2/1 134/2/1 79/2/1
f 135/2/47 134/2/47 131/2/47
f 132/2/47 135/2/47 131/2/47
f 136/2/3 135/2/3 132/2/3
f 133/2/3 136/2/3 132/2/3
f 83/2/48 136/2/48 133/2/48
f 79/2/48 83/2/48 133/2/48
f 137/2/1 87/2/1 83/2/1
f 134/2/1 137/2/1 83/2/1
f 138/2/49 137/2/49 134/2/49
f 135/2/49 138/2/49 134/2/49
f 139/2/3 138/2/3 135/2/3
f 136/2/3 139/2/3 135/2/3
f 87/2/50 139/2/50 136/2/50
f 83/2/50 87/2/50 136/2/50
f 140/2/1 91/2/1 87/2/1
f 137/2/1 140/2/1 87/2/1
f 141/2/51 140/2/51 137/2/51
f 138/2/51 141/2/51 137/2/51
f 142/2/3 141/2/3 138/2/3
f 139/2/3 142/2/3 138/2/3
f 91/2/52 142/2/52 139/2/52
f 87/2/52 91/2/52 139/2/52
f 21/2/6 19/2/6 10/2/6
f 20/2/6 21/2/6 10/2/6
f 140/2/2 141/2/2 91/2/2
f 141/2/2 142/2/2 91/2/2
f 143/3/1 144/3/1 51/3/1
f 52/3/1 143/3/1 51/3/1
f 145/3/53 143/3/53 52/3/53
f 54/3/53 145/3/53 52/3/53
f 146/3/3 145/3/3 54/3/3
f 53/3/3 146/3/3 54/3/3
f 144/3/54 146/3/54 53/3/54
f 51/3/54 144/3/54 53/3/54
f 147/3/1 148/3/1 144/3/1
f 143/3/1 147/3/1 144/3/1
f 149/3/55 147/3/55 143/3/55
f 145/3/55 149/3/55 143/3/55
f 150/3/3 149/3/3 145/3/3
f 146/3/3 150/3/3 145/3/3
f 148/3/56 150/3/56 146/3/56
f 144/3/56 148/3/56 146/3/56
f 151/3/1 152/3/1 148/3/1
f 147/3/1 151/3/1 148/3/1
f 153/3/57 151/3/57 147/3/57
f 149/3/57 153/3/57 147/3/57
f 154/3/3 153/3/3 149/3/3
f 150/3/3 154/3/3 149/3/3
f 152/3/58 154/3/58 150/3/58
f 148/3/58 152/3/58 150/3/58
f 155/3/1 156/3/1 152/3/1
f 151/3/1 155/3/1 152/3/1
f 157/3/59 155/3/59 151/3/59
f 153/3/59 157/3/59 151/3/59
f 158/3/3 157/3/3 153/3/3
f 154/3/3 158/3/3 153/3/3
f 156/3/60 158/3/60 154/3/60
f 152/3/60 156/3/60 154/3/60
f 159/3/1 160/3/1 156/3/1
f 155/3/1 159/3/1 156/3/1
f 161/3/61 159/3/61 155/3/61
f 157/3/61 161/3/61 155/3/61
f 162/3/3 161/3/3 157/3/3
f 158/3/3 162/3/3 157/3/3
f 160/3/62 162/3/62 158/3/62
f 156/3/62 160/3/62 158/3/62
f 163/3/1 164/3/1 160/3/1
f 159/3/1 163/3/1 160/3/1
f 165/3/63 163/3/63 159/3/63
f 161/3/63 165/3/63 159/3/63
f 166/3/3 165/3/3 161/3/3
f 162/3/3 166/3/3 161/3/3
f 164/3/64 166/3/64 162/3/64
f 160/3/64 164/3/64 162/3/64
f 167/3/1 168/3/1 164/3/1
f 163/3/1 167/3/1 164/3/1
f 169/3/65 167/3/65 163/3/65
f 165/3/65 169/3/65 163/3/65
f 170/3/3 169/3/3 165/3/3
f 166/3/3 170/3/3 165/3/3
f 168/3/66 170/3/66 166/3/66
f 164/3/66 168/3/66 166/3/66
f 171/3/1 172/3/1 168/3/1
f 167/3/1 171/3/1 168/3/1
f 173/3/67 171/3/67 167/3/67
f 169/3/67 173/3/67 167/3/67
f 174/3/3 173/3/3 169/3/3
f 170/3/3 174/3/3 169/3/3
f 172/3/68 174/3/68 170/3/68
f 168/3/68 172/3/68 170/3/68
f 54/3/6 52/3/6 51/3/6
f 53/3/6 54/3/6 51/3/6
f 171/3/2 173/3/2 172/3/2
f 173/3/2 174/3/2 172/3/2
f 175/3/1 176/3/1 39/3/1
f 40/3/1 175/3/1 39/3/1
f 177/3/7 175/3/7 40/3/7
f 42/3/7 177/3/7 40/3/7
f 178/3/3 177/3/3 42/3/3
f 41/3/3 178/3/3 42/3/3
f 176/3/69 178/3/69 41/3/69
f 39/3/69 176/3/69 41/3/69
f 179/3/1 180/3/1 176/3/1
f 175/3/1 179/3/1 176/3/1
f 181/3/70 179/3/70 175/3/70
f 177/3/70 181/3/70 175/3/70
f 182/3/3 181/3/3 177/3/3
f 178/3/3 182/3/3 177/3/3
f 180/3/41 182/3/41 178/3/41
f 176/3/41 180/3/41 178/3/41
f 183/3/1 184/3/1 180/3/1
f 179/3/1 183/3/1 180/3/1
f 185/3/71 183/3/71 179/3/71
f 181/3/71 185/3/71 179/3/71
f 186/3/3 185/3/3 181/3/3
f 182/3/3 186/3/3 181/3/3
f 184/3/72 186/3/72 182/3/72
f 180/3/72 184/3/72 182/3/72
f 187/3/1 188/3/1 184/3/1
f 183/3/1 187/3/1 184/3/1
f 189/3/73 187/3/73 183/3/73
f 185/3/73 189/3/73 183/3/73
f 190/3/3 189/3/3 185/3/3
f 186/3/3 190/3/3 185/3/3
f 188/3/44 190/3/44 186/3/44
f 184/3/44 188/3/44 186/3/44
f 191/3/1 192/3/1 188/3/1
f 187/3/1 191/3/1 188/3/1
f 193/3/74 191/3/74 187/3/74
f 189/3/74 193/3/74 187/3/74
f 194/3/3 193/3/3 189/3/3
f 190/3/3 194/3/3 189/3/3
f 192/3/75 194/3/75 190/3/75
f 188/3/75 192/3/75 190/3/75
f 195/3/1 196/3/1 192/3/1
f 191/3/1 195/3/1 192/3/1
f 197/3/63 195/3/63 191/3/63
f 193/3/63 197/3/63 191/3/63
f 198/3/3 197/3/3 193/3/3
f 194/3/3 198/3/3 193/3/3
f 196/3/76 198/3/76 194/3/76
f 192/3/76 196/3/76 194/3/76
f 199/3/1 200/3/1 196/3/1
f 195/3/1 199/3/1 196/3/1
f 201/3/77 199/3/77 195/3/77
f 197/3/77 201/3/77 195/3/77
f 202/3/3 201/3/3 197/3/3
f 198/3/3 202/3/3 197/3/3
f 200/3/78 202/3/78 198/3/78
f 196/3/78 200/3/78 198/3/78
f 203/3/1 204/3/1 200/3/1
f 199/3/1 203/3/1 200/3/1
f 205/3/79 203/3/79 199/3/79
f 201/3/79 205/3/79 199/3/79
f 206/3/3 205/3/3 201/3/3
f 202/3/3 206/3/3 201/3/3
f 204/3/52 206/3/52 202/3/52
f 200/3/52 204/3/52 202/3/52
f 42/3/6 40/3/6 39/3/6
f 41/3/6 42/3/6 39/3/6
f 203/3/2 205/3/2 204/3/2
f 205/3/2 206/3/2 204/3/2
f 207/4/1 208/4/1 209/4/1
f 210/4/1 207/4/1 209/4/1
f 211/4/80 207/4/80 210/4/80
f 212/4/80 211/4/80 210/4/80
f 213/4/3 211/4/3 212/4/3
f 214/4/3 213/4/3 212/4/3
f 208/4/10 213/4/10 214/4/10
f 209/4/10 208/4/10 214/4/10
f 212/4/81 210/4/81 209/4/81
f 214/4/81 212/4/81 209/4/81
f 207/4/82 211/4/82 208/4/82
f 211/4/82 213/4/82 208/4/82
f 215/4/1 216/4/1 217/4/1
f 218/4/1 215/4/1 217/4/1
f 219/4/83 215/4/83 218/4/83
f 220/4/83 219/4/83 218/4/83
f 221/4/3 219/4/3 220/4/3
f 222/4/3 221/4/3 220/4/3
f 216/4/14 221/4/14 222/4/14
f 217/4/14 216/4/14 222/4/14
f 220/4/84 218/4/84 217/4/84
f 222/4/84 220/4/84 217/4/84
f 215/4/85 219/4/85 216/4/85
f 219/4/85 221/4/85 216/4/85
f 223/4/1 224/4/1 225/4/1
f 226/4/1 223/4/1 225/4/1
f 227/4/86 223/4/86 226/4/86
f 228/4/86 227/4/86 226/4/86
f 229/4/3 227/4/3 228/4/3
f 230/4/3 229/4/3 228/4/3
f 224/4/87 229/4/87 230/4/87
f 225/4/87 224/4/87 230/4/87
f 228/4/88 226/4/88 225/4/88
f 230/4/88 228/4/88 225/4/88
f 223/4/89 227/4/89 224/4/89
f 227/4/89 229/4/89 224/4/89
f 231/4/1 232/4/1 233/4/1
f 234/4/1 231/4/1 233/4/1
f 235/4/90 231/4/90 234/4/90
f 236/4/90 235/4/90 234/4/90
f 237/4/3 235/4/3 236/4/3
f 238/4/3 237/4/3 236/4/3
f 232/4/52 237/4/52 238/4/52
f 233/4/52 232/4/52 238/4/52
f 236/4/91 234/4/91 233/4/91
f 238/4/91 236/4/91 233/4/91
f 231/4/2 235/4/2 232/4/2
f 235/4/2 237/4/2 232/4/2
f 239/1/1 240/1/1 9/1/1
f 10/1/1 239/1/1 9/1/1
f 241/1/92 239/1/92 10/1/92
f 12/1/92 241/1/92 10/1/92
f 242/1/3 241/1/3 12/1/3
f 11/1/3 242/1/3 12/1/3
f 240/1/93 242/1/93 11/1/93
f 9/1/93 240/1/93 11/1/93
f 243/1/1 244/1/1 240/1/1
f 239/1/1 243/1/1 240/1/1
f 245/1/94 243/1/94 239/1/94
f 241/1/94 245/1/94 239/1/94
f 246/1/3 245/1/3 241/1/3
f 242/1/3 246/1/3 241/1/3
f 244/1/95 246/1/95 242/1/95
f 240/1/95 244/1/95 242/1/95
f 247/1/1 248/1/1 244/1/1
f 243/1/1 247/1/1 244/1/1
f 249/1/96 247/1/96 243/1/96
f 245/1/96 249/1/96 243/1/96
f 250/1/3 249/1/3 245/1/3
f 246/1/3 250/1/3 245/1/3
f 248/1/97 250/1/97 246/1/97
f 244/1/97 248/1/97 246/1/97
f 251/1/1 252/1/1 248/1/1
f 247/1/1 251/1/1 248/1/1
f 253/1/98 251/1/98 247/1/98
f 249/1/98 253/1/98 247/1/98
f 254/1/3 253/1/3 249/1/3
f 250/1/3 254/1/3 249/1/3
f 252/1/99 254/1/99 250/1/99
f 248/1/99 252/1/99 250/1/99
f 255/1/1 256/1/1 252/1/1
f 251/1/1 255/1/1 252/1/1
f 257/1/100 255/1/100 251/1/100
f 253/1/100 257/1/100 251/1/100
f 258/1/3 257/1/3 253/1/3
f 254/1/3 258/1/3 253/1/3
f 256/1/101 258/1/101 254/1/101
f 252/1/101 256/1/101 254/1/101
f 259/1/1 260/1/1 256/1/1
f 255/1/1 259/1/1 256/1/1
f 261/1/102 259/1/102 255/1/102
f 257/1/102 261/1/102 255/1/102
f 262/1/3 261/1/3 257/1/3
f 258/1/3 262/1/3 257/1/3
f 260/1/103 262/1/103 258/1/103
f 256/1/103 260/1/103 258/1/103
f 263/1/1 264/1/1 260/1/1
f 259/1/1 263/1/1 260/1/1
f 265/1/104 263/1/104 259/1/104
f 261/1/104 265/1/104 259/1/104
f 266/1/3 265/1/3 261/1/3
f 262/1/3 266/1/3 261/1/3
f 264/1/105 266/1/105 262/1/105
f 260/1/105 264/1/105 262/1/105
f 267/1/1 268/1/1 264/1/1
f 263/1/1 267/1/1 264/1/1
f 269/1/106 267/1/106 263/1/106
f 265/1/106 269/1/106 263/1/106
f 270/1/3 269/1/3 265/1/3
f 266/1/3 270/1/3 265/1/3
f 268/1/107 270/1/107 266/1/107
f 264/1/107 268/1/107 266/1/107
f 12/1/6 10/1/6 9/1/6
f 11/1/6 12/1/6 9/1/6
f 267/1/4 269/1/4 268/1/4
f 269/1/4 270/1/4 268/1/4
f 240/2/1 271/2/1 28/2/1
f 9/2/1 240/2/1 28/2/1
f 272/2/108 240/2/108 9/2/108
f 30/2/108 272/2/108 9/2/108
f 273/2/3 272/2/3 30/2/3
f 29/2/3 273/2/3 30/2/3
f 271/2/109 273/2/109 29/2/109
f 28/2/109 271/2/109 29/2/109
f 244/2/1 274/2/1 271/2/1
f 240/2/1 244/2/1 271/2/1
f 275/2/110 244/2/110 240/2/110
f 272/2/110 275/2/110 240/2/110
f 276/2/3 275/2/3 272/2/3
f 273/2/3 276/2/3 272/2/3
f 274/2/111 276/2/111 273/2/111
f 271/2/111 274/2/111 273/2/111
f 248/2/1 277/2/1 274/2/1
f 244/2/1 248/2/1 274/2/1
f 278/2/112 248/2/112 244/2/112
f 275/2/112 278/2/112 244/2/112
f 279/2/3 278/2/3 275/2/3
f 276/2/3 279/2/3 275/2/3
f 277/2/113 279/2/113 276/2/113
f 274/2/113 277/2/113 276/2/113
f 252/2/1 280/2/1 277/2/1
f 248/2/1 252/2/1 277/2/1
f 281/2/114 252/2/114 248/2/114
f 278/2/114 281/2/114 248/2/114
f 282/2/3 281/2/3 278/2/3
f 279/2/3 282/2/3 278/2/3
f 280/2/115 282/2/115 279/2/115
f 277/2/115 280/2/115 279/2/115
f 256/2/1 283/2/1 280/2/1
f 252/2/1 256/2/1 280/2/1
f 284/2/116 256/2/116 252/2/116
f 281/2/116 284/2/116 252/2/116
f 285/2/3 284/2/3 281/2/3
f 282/2/3 285/2/3 281/2/3
f 283/2/117 285/2/117 282/2/117
f 280/2/117 283/2/117 282/2/117
f 260/2/1 286/2/1 283/2/1
f 256/2/1 260/2/1 283/2/1
f 287/2/118 260/2/118 256/2/118
f 284/2/118 287/2/118 256/2/118
f 288/2/3 287/2/3 284/2/3
f 285/2/3 288/2/3 284/2/3
f 286/2/119 288/2/119 285/2/119
f 283/2/119 286/2/119 285/2/119
f 264/2/1 289/2/1 286/2/1
f 260/2/1 264/2/1 286/2/1
f 290/2/120 264/2/120 260/2/120
f 287/2/120 290/2/120 260/2/120
f 291/2/3 290/2/3 287/2/3
f 288/2/3 291/2/3 287/2/3
f 289/2/121 291/2/121 288/2/121
f 286/2/121 289/2/121 288/2/121
f 268/2/1 292/2/1 289/2/1
f 264/2/1 268/2/1 289/2/1
f 293/2/122 268/2/122 264/2/122
f 290/2/122 293/2/122 264/2/122
f 294/2/3 293/2/3 290/2/3
f 291/2/3 294/2/3 290/2/3
f 292/2/123 294/2/123 291/2/123
f 289/2/123 292/2/123 291/2/123
f 30/2/6 9/2/6 28/2/6
f 29/2/6 30/2/6 28/2/6
f 268/2/4 293/2/4 292/2/4
f 293/2/4 294/2/4 292/2/4
f 295/2/1 239/2/1 10/2/1
f 19/2/1 295/2/1 10/2/1
f 296/2/124 295/2/124 19/2/124
f 21/2/124 296/2/124 19/2/124
f 297/2/3 296/2/3 21/2/3
f 20/2/3 297/2/3 21/2/3
f 239/2/125 297/2/125 20/2/125
f 10/2/125 239/2/125 20/2/125
f 298/2/1 243/2/1 239/2/1
f 295/2/1 298/2/1 239/2/1
f 299/2/126 298/2/126 295/2/126
f 296/2/126 299/2/126 295/2/126
f 300/2/3 299/2/3 296/2/3
f 297/2/3 300/2/3 296/2/3
f 243/2/127 300/2/127 297/2/127
f 239/2/127 243/2/127 297/2/127
f 301/2/1 247/2/1 243/2/1
f 298/2/1 301/2/1 243/2/1
f 302/2/128 301/2/128 298/2/128
f 299/2/128 302/2/128 298/2/128
f 303/2/3 302/2/3 299/2/3
f 300/2/3 303/2/3 299/2/3
f 247/2/129 303/2/129 300/2/129
f 243/2/129 247/2/129 300/2/129
f 304/2/1 251/2/1 247/2/1
f 301/2/1 304/2/1 247/2/1
f 305/2/130 304/2/130 301/2/130
f 302/2/130 305/2/130 301/2/130
f 306/2/3 305/2/3 302/2/3
f 303/2/3 306/2/3 302/2/3
f 251/2/131 306/2/131 303/2/131
f 247/2/131 251/2/131 303/2/131
f 307/2/1 255/2/1 251/2/1
f 304/2/1 307/2/1 251/2/1
f 308/2/132 307/2/132 304/2/132
f 305/2/132 308/2/132 304/2/132
f 309/2/3 308/2/3 305/2/3
f 306/2/3 309/2/3 305/2/3
f 255/2/133 309/2/133 306/2/133
f 251/2/133 255/2/133 306/2/133
f 310/2/1 259/2/1 255/2/1
f 307/2/1 310/2/1 255/2/1
f 311/2/134 310/2/134 307/2/134
f 308/2/134 311/2/134 307/2/134
f 312/2/3 311/2/3 308/2/3
f 309/2/3 312/2/3 308/2/3
f 259/2/135 312/2/135 309/2/135
f 255/2/135 259/2/135 309/2/135
f 313/2/1 263/2/1 259/2/1
f 310/2/1 313/2/1 259/2/1
f 314/2/136 313/2/136 310/2/136
f 311/2/136 314/2/136 310/2/136
f 315/2/3 314/2/3 311/2/3
f 312/2/3 315/2/3 311/2/3
f 263/2/137 315/2/137 312/2/137
f 259/2/137 263/2/137 312/2/137
f 316/2/1 267/2/1 263/2/1
f 313/2/1 316/2/1 263/2/1
f 317/2/138 316/2/138 313/2/138
f 314/2/138 317/2/138 313/2/138
f 318/2/3 317/2/3 314/2/3
f 315/2/3 318/2/3 314/2/3
f 267/2/139 318/2/139 315/2/139
f 263/2/139 267/2/139 315/2/139
f 21/2/6 19/2/6 10/2/6
f 20/2/6 21/2/6 10/2/6
f 316/2/4 317/2/4 267/2/4
f 317/2/4 318/2/4 267/2/4
f 319/3/1 320/3/1 51/3/1
f 52/3/1 319/3/1 51/3/1
f 321/3/140 319/3/140 52/3/140
f 54/3/140 321/3/140 52/3/140
f 322/3/3 321/3/3 54/3/3
f 53/3/3 322/3/3 54/3/3
f 320/3/93 322/3/93 53/3/93
f 51/3/93 320/3/93 53/3/93
f 323/3/1 324/3/1 320/3/1
f 319/3/1 323/3/1 320/3/1
f 325/3/141 323/3/141 319/3/141
f 321/3/141 325/3/141 319/3/141
f 326/3/3 325/3/3 321/3/3
f 322/3/3 326/3/3 321/3/3
f 324/3/142 326/3/142 322/3/142
f 320/3/142 324/3/142 322/3/142
f 327/3/1 328/3/1 324/3/1
f 323/3/1 327/3/1 324/3/1
f 329/3/112 327/3/112 323/3/112
f 325/3/112 329/3/112 323/3/112
f 330/3/3 329/3/3 325/3/3
f 326/3/3 330/3/3 325/3/3
f 328/3/143 330/3/143 326/3/143
f 324/3/143 328/3/143 326/3/143
f 331/3/1 332/3/1 328/3/1
f 327/3/1 331/3/1 328/3/1
f 333/3/144 331/3/144 327/3/144
f 329/3/144 333/3/144 327/3/144
f 334/3/3 333/3/3 329/3/3
f 330/3/3 334/3/3 329/3/3
f 332/3/145 334/3/145 330/3/145
f 328/3/145 332/3/145 330/3/145
f 335/3/1 336/3/1 332/3/1
f 331/3/1 335/3/1 332/3/1
f 337/3/146 335/3/146 331/3/146
f 333/3/146 337/3/146 331/3/146
f 338/3/3 337/3/3 333/3/3
f 334/3/3 338/3/3 333/3/3
f 336/3/117 338/3/117 334/3/117
f 332/3/117 336/3/117 334/3/117
f 339/3/1 340/3/1 336/3/1
f 335/3/1 339/3/1 336/3/1
f 341/3/147 339/3/147 335/3/147
f 337/3/147 341/3/147 335/3/147
f 342/3/3 341/3/3 337/3/3
f 338/3/3 342/3/3 337/3/3
f 340/3/148 342/3/148 338/3/148
f 336/3/148 340/3/148 338/3/148
f 343/3/1 344/3/1 340/3/1
f 339/3/1 343/3/1 340/3/1
f 345/3/149 343/3/149 339/3/149
f 341/3/149 345/3/149 339/3/149
f 346/3/3 345/3/3 341/3/3
f 342/3/3 346/3/3 341/3/3
f 344/3/150 346/3/150 342/3/150
f 340/3/150 344/3/150 342/3/150
f 347/3/1 348/3/1 344/3/1
f 343/3/1 347/3/1 344/3/1
f 349/3/151 347/3/151 343/3/151
f 345/3/151 349/3/151 343/3/151
f 350/3/3 349/3/3 345/3/3
f 346/3/3 350/3/3 345/3/3
f 348/3/152 350/3/152 346/3/152
f 344/3/152 348/3/152 346/3/152
f 54/3/6 52/3/6 51/3/6
f 53/3/6 54/3/6 51/3/6
f 347/3/4 349/3/4 348/3/4
f 349/3/4 350/3/4 348/3/4
f 351/3/1 352/3/1 39/3/1
f 40/3/1 351/3/1 39/3/1
f 353/3/153 351/3/153 40/3/153
f 42/3/153 353/3/153 40/3/153
f 354/3/3 353/3/3 42/3/3
f 41/3/3 354/3/3 42/3/3
f 352/3/154 354/3/154 41/3/154
f 39/3/154 352/3/154 41/3/154
f 355/3/1 356/3/1 352/3/1
f 351/3/1 355/3/1 352/3/1
f 357/3/155 355/3/155 351/3/155
f 353/3/155 357/3/155 351/3/155
f 358/3/3 357/3/3 353/3/3
f 354/3/3 358/3/3 353/3/3
f 356/3/156 358/3/156 354/3/156
f 352/3/156 356/3/156 354/3/156
f 359/3/1 360/3/1 356/3/1
f 355/3/1 359/3/1 356/3/1
f 361/3/157 359/3/157 355/3/157
f 357/3/157 361/3/157 355/3/157
f 362/3/3 361/3/3 357/3/3
f 358/3/3 362/3/3 357/3/3
f 360/3/158 362/3/158 358/3/158
f 356/3/158 360/3/158 358/3/158
f 363/3/1 364/3/1 360/3/1
f 359/3/1 363/3/1 360/3/1
f 365/3/159 363/3/159 359/3/159
f 361/3/159 365/3/159 359/3/159
f 366/3/3 365/3/3 361/3/3
f 362/3/3 366/3/3 361/3/3
f 364/3/160 366/3/160 362/3/160
f 360/3/160 364/3/160 362/3/160
f 367/3/1 368/3/1 364/3/1
f 363/3/1 367/3/1 364/3/1
f 369/3/161 367/3/161 363/3/161
f 365/3/161 369/3/161 363/3/161
f 370/3/3 369/3/3 365/3/3
f 366/3/3 370/3/3 365/3/3
f 368/3/162 370/3/162 366/3/162
f 364/3/162 368/3/162 366/3/162
f 371/3/1 372/3/1 368/3/1
f 367/3/1 371/3/1 368/3/1
f 373/3/163 371/3/163 367/3/163
f 369/3/163 373/3/163 367/3/163
f 374/3/3 373/3/3 369/3/3
f 370/3/3 374/3/3 369/3/3
f 372/3/164 374/3/164 370/3/164
f 368/3/164 372/3/164 370/3/164
f 375/3/1 376/3/1 372/3/1
f 371/3/1 375/3/1 372/3/1
f 377/3/136 375/3/136 371/3/136
f 373/3/136 377/3/136 371/3/136
f 378/3/3 377/3/3 373/3/3
f 374/3/3 378/3/3 373/3/3
f 376/3/165 378/3/165 374/3/165
f 372/3/165 376/3/165 374/3/165
f 379/3/1 380/3/1 376/3/1
f 375/3/1 379/3/1 376/3/1
f 381/3/166 379/3/166 375/3/166
f 377/3/166 381/3/166 375/3/166
f 382/3/3 381/3/3 377/3/3
f 378/3/3 382/3/3 377/3/3
f 380/3/167 382/3/167 378/3/167
f 376/3/167 380/3/167 378/3/167
f 42/3/6 40/3/6 39/3/6
f 41/3/6 42/3/6 39/3/6
f 379/3/4 381/3/4 380/3/4
f 381/3/4 382/3/4 380/3/4
f 383/4/1 384/4/1 385/4/1
f 386/4/1 383/4/1 385/4/1
f 387/4/94 383/4/94 386/4/94
f 388/4/94 387/4/94 386/4/94
f 389/4/3 387/4/3 388/4/3
f 390/4/3 389/4/3 388/4/3
f 384/4/168 389/4/168 390/4/168
f 385/4/168 384/4/168 390/4/168
f 388/4/169 386/4/169 385/4/169
f 390/4/169 388/4/169 385/4/169
f 383/4/170 387/4/170 384/4/170
f 387/4/170 389/4/170 384/4/170
f 391/4/1 392/4/1 393/4/1
f 394/4/1 391/4/1 393/4/1
f 395/4/171 391/4/171 394/4/171
f 396/4/171 395/4/171 394/4/171
f 397/4/3 395/4/3 396/4/3
f 398/4/3 397/4/3 396/4/3
f 392/4/131 397/4/131 398/4/131
f 393/4/131 392/4/131 398/4/131
f 396/4/172 394/4/172 393/4/172
f 398/4/172 396/4/172 393/4/172
f 391/4/173 395/4/173 392/4/173
f 395/4/173 397/4/173 392/4/173
f 399/4/1 400/4/1 401/4/1
f 402/4/1 399/4/1 401/4/1
f 403/4/174 399/4/174 402/4/174
f 404/4/174 403/4/174 402/4/174
f 405/4/3 403/4/3 404/4/3
f 406/4/3 405/4/3 404/4/3
f 400/4/119 405/4/119 406/4/119
f 401/4/119 400/4/119 406/4/119
f 404/4/175 402/4/175 401/4/175
f 406/4/175 404/4/175 401/4/175
f 399/4/176 403/4/176 400/4/176
f 403/4/176 405/4/176 400/4/176
f 407/4/1 408/4/1 409/4/1
f 410/4/1 407/4/1 409/4/1
f 411/4/177 407/4/177 410/4/177
f 412/4/177 411/4/177 410/4/177
f 413/4/3 411/4/3 412/4/3
f 414/4/3 413/4/3 412/4/3
f 408/4/107 413/4/107 414/4/107
f 409/4/107 408/4/107 414/4/107
f 412/4/178 410/4/178 409/4/178
f 414/4/178 412/4/178 409/4/178
f 407/4/4 411/4/4 408/4/4
f 411/4/4 413/4/4 408/4/4
