# CargoTrack - generated by Tools/generate_meshes.py, do not hand-edit
# Regenerate with: python Tools/generate_meshes.py
o CargoTrack
v 5.00000 -0.42000 3.70000
v 5.00000 -0.42000 -3.70000
v 10.00000 -0.42000 -3.70000
v 10.00000 -0.42000 3.70000
v 5.00000 0.00000 3.70000
v 10.00000 0.00000 3.70000
v 5.00000 0.00000 -3.70000
v 10.00000 0.00000 -3.70000
v -0.00000 -0.42000 3.70000
v -0.00000 -0.42000 -3.70000
v -0.00000 0.00000 3.70000
v -0.00000 0.00000 -3.70000
v -5.00000 -0.42000 3.70000
v -5.00000 -0.42000 -3.70000
v -5.00000 0.00000 3.70000
v -5.00000 0.00000 -3.70000
v -10.00000 -0.42000 3.70000
v -10.00000 -0.42000 -3.70000
v -10.00000 0.00000 3.70000
v -10.00000 0.00000 -3.70000
v 5.00000 -0.42000 -4.45000
v 10.00000 -0.42000 -4.45000
v 5.00000 1.15000 -3.70000
v 10.00000 1.15000 -3.70000
v 5.00000 1.15000 -4.45000
v 10.00000 1.15000 -4.45000
v -0.00000 -0.42000 -4.45000
v -0.00000 1.15000 -3.70000
v -0.00000 1.15000 -4.45000
v -5.00000 -0.42000 -4.45000
v -5.00000 1.15000 -3.70000
v -5.00000 1.15000 -4.45000
v -10.00000 -0.42000 -4.45000
v -10.00000 1.15000 -3.70000
v -10.00000 1.15000 -4.45000
v 5.00000 -0.42000 4.45000
v 10.00000 -0.42000 4.45000
v 5.00000 1.15000 4.45000
v 10.00000 1.15000 4.45000
v 5.00000 1.15000 3.70000
v 10.00000 1.15000 3.70000
v -0.00000 -0.42000 4.45000
v -0.00000 1.15000 4.45000
v -0.00000 1.15000 3.70000
v -5.00000 -0.42000 4.45000
v -5.00000 1.15000 4.45000
v -5.00000 1.15000 3.70000
v -10.00000 -0.42000 4.45000
v -10.00000 1.15000 4.45000
v -10.00000 1.15000 3.70000
v 5.00000 1.10000 -3.55000
v 5.00000 1.10000 -4.60000
v 10.00000 1.10000 -4.60000
v 10.00000 1.10000 -3.55000
v 5.00000 1.42000 -3.55000
v 10.00000 1.42000 -3.55000
v 5.00000 1.42000 -4.60000
v 10.00000 1.42000 -4.60000
v -0.00000 1.10000 -3.55000
v -0.00000 1.10000 -4.60000
v -0.00000 1.42000 -3.55000
v -0.00000 1.42000 -4.60000
v -5.00000 1.10000 -3.55000
v -5.00000 1.10000 -4.60000
v -5.00000 1.42000 -3.55000
v -5.00000 1.42000 -4.60000
v -10.00000 1.10000 -3.55000
v -10.00000 1.10000 -4.60000
v -10.00000 1.42000 -3.55000
v -10.00000 1.42000 -4.60000
v 5.00000 1.10000 4.60000
v 5.00000 1.10000 3.55000
v 10.00000 1.10000 3.55000
v 10.00000 1.10000 4.60000
v 5.00000 1.42000 4.60000
v 10.00000 1.42000 4.60000
v 5.00000 1.42000 3.55000
v 10.00000 1.42000 3.55000
v -0.00000 1.10000 4.60000
v -0.00000 1.10000 3.55000
v -0.00000 1.42000 4.60000
v -0.00000 1.42000 3.55000
v -5.00000 1.10000 4.60000
v -5.00000 1.10000 3.55000
v -5.00000 1.42000 4.60000
v -5.00000 1.42000 3.55000
v -10.00000 1.10000 4.60000
v -10.00000 1.10000 3.55000
v -10.00000 1.42000 4.60000
v -10.00000 1.42000 3.55000
v -0.00000 -0.44000 3.40000
v -0.00000 -0.44000 -3.40000
v 5.00000 -0.44000 -3.40000
v 5.00000 -0.44000 3.40000
v -0.00000 -0.18000 3.40000
v 5.00000 -0.18000 3.40000
v -0.00000 -0.18000 -3.40000
v 5.00000 -0.18000 -3.40000
v -5.00000 -0.44000 3.40000
v -5.00000 -0.44000 -3.40000
v -5.00000 -0.18000 3.40000
v -5.00000 -0.18000 -3.40000
v -10.00000 -0.44000 3.40000
v -10.00000 -0.44000 -3.40000
v -10.00000 -0.18000 3.40000
v -10.00000 -0.18000 -3.40000
vt 0.07000 0.01000
vt 0.06000 0.01000
vt 0.02000 0.01000
vt 0.08000 0.01000
vn 0.00000 -1.00000 0.00000
vn 0.00000 0.00000 1.00000
vn 0.00000 1.00000 0.00000
vn 0.00000 0.00000 -1.00000
vn 1.00000 0.00000 0.00000
vn -1.00000 0.00000 0.00000
f 1/1/1 2/1/1 3/1/1
f 4/1/1 1/1/1 3/1/1
f 5/1/2 1/1/2 4/1/2
f 6/1/2 5/1/2 4/1/2
f 7/1/3 5/1/3 6/1/3
f 8/1/3 7/1/3 6/1/3
f 2/1/4 7/1/4 8/1/4
f 3/1/4 2/1/4 8/1/4
f 9/1/1 10/1/1 2/1/1
f 1/1/1 9/1/1 2/1/1
f 11/1/2 9/1/2 1/1/2
f 5/1/2 11/1/2 1/1/2
f 12/1/3 11/1/3 5/1/3
f 7/1/3 12/1/3 5/1/3
f 10/1/4 12/1/4 7/1/4
f 2/1/4 10/1/4 7/1/4
f 13/1/1 14/1/1 10/1/1
f 9/1/1 13/1/1 10/1/1
f 15/1/2 13/1/2 9/1/2
f 11/1/2 15/1/2 9/1/2
f 16/1/3 15/1/3 11/1/3
f 12/1/3 16/1/3 11/1/3
f 14/1/4 16/1/4 12/1/4
f 10/1/4 14/1/4 12/1/4
f 17/1/1 18/1/1 14/1/1
f 13/1/1 17/1/1 14/1/1
f 19/1/2 17/1/2 13/1/2
f 15/1/2 19/1/2 13/1/2
f 20/1/3 19/1/3 15/1/3
f 16/1/3 20/1/3 15/1/3
f 18/1/4 20/1/4 16/1/4
f 14/1/4 18/1/4 16/1/4
f 6/1/5 4/1/5 3/1/5
f 8/1/5 6/1/5 3/1/5
f 17/1/6 19/1/6 18/1/6
f 19/1/6 20/1/6 18/1/6
f 2/2/1 21/2/1 22/2/1
f 3/2/1 2/2/1 22/2/1
f 23/2/2 2/2/2 3/2/2
f 24/2/2 23/2/2 3/2/2
f 25/2/3 23/2/3 24/2/3
f 26/2/3 25/2/3 24/2/3
f 21/2/4 25/2/4 26/2/4
f 22/2/4 21/2/4 26/2/4
f 10/2/1 27/2/1 21/2/1
f 2/2/1 10/2/1 21/2/1
f 28/2/2 10/2/2 2/2/2
f 23/2/2 28/2/2 2/2/2
f 29/2/3 28/2/3 23/2/3
f 25/2/3 29/2/3 23/2/3
f 27/2/4 29/2/4 25/2/4
f 21/2/4 27/2/4 25/2/4
f 14/2/1 30/2/1 27/2/1
f 10/2/1 14/2/1 27/2/1
f 31/2/2 14/2/2 10/2/2
f 28/2/2 31/2/2 10/2/2
f 32/2/3 31/2/3 28/2/3
f 29/2/3 32/2/3 28/2/3
f 30/2/4 32/2/4 29/2/4
f 27/2/4 30/2/4 29/2/4
f 18/2/1 33/2/1 30/2/1
f 14/2/1 18/2/1 30/2/1
f 34/2/2 18/2/2 14/2/2
f 31/2/2 34/2/2 14/2/2
f 35/2/3 34/2/3 31/2/3
f 32/2/3 35/2/3 31/2/3
f 33/2/4 35/2/4 32/2/4
f 30/2/4 33/2/4 32/2/4
f 24/2/5 3/2/5 22/2/5
f 26/2/5 24/2/5 22/2/5
f 18/2/6 34/2/6 33/2/6
f 34/2/6 35/2/6 33/2/6
f 36/2/1 1/2/1 4/2/1
f 37/2/1 36/2/1 4/2/1
f 38/2/2 36/2/2 37/2/2
f 39/2/2 38/2/2 37/2/2
f 40/2/3 38/2/3 39/2/3
f 41/2/3 40/2/3 39/2/3
f 1/2/4 40/2/4 41/2/4
f 4/2/4 1/2/4 41/2/4
f 42/2/1 9/2/1 1/2/1
f 36/2/1 42/2/1 1/2/1
f 43/2/2 42/2/2 36/2/2
f 38/2/2 43/2/2 36/2/2
f 44/2/3 43/2/3 38/2/3
f 40/2/3 44/2/3 38/2/3
f 9/2/4 44/2/4 40/2/4
f 1/2/4 9/2/4 40/2/4
f 45/2/1 13/2/1 9/2/1
f 42/2/1 45/2/1 9/2/1
f 46/2/2 45/2/2 42/2/2
f 43/2/2 46/2/2 42/2/2
f 47/2/3 46/2/3 43/2/3
f 44/2/3 47/2/3 43/2/3
f 13/2/4 47/2/4 44/2/4
f 9/2/4 13/2/4 44/2/4
f 48/2/1 17/2/1 13/2/1
f 45/2/1 48/2/1 13/2/1
f 49/2/2 48/2/2 45/2/2
f 46/2/2 49/2/2 45/2/2
f 50/2/3 49/2/3 46/2/3
f 47/2/3 50/2/3 46/2/3
f 17/2/4 50/2/4 47/2/4
f 13/2/4 17/2/4 47/2/4
f 39/2/5 37/2/5 4/2/5
f 41/2/5 39/2/5 4/2/5
f 48/2/6 49/2/6 17/2/6
f 49/2/6 50/2/6 17/2/6
f 51/3/1 52/3/1 53/3/1
f 54/3/1 51/3/1 53/3/1
f 55/3/2 51/3/2 54/3/2
f 56/3/2 55/3/2 54/3/2
f 57/3/3 55/3/3 56/3/3
f 58/3/3 57/3/3 56/3/3
f 52/3/4 57/3/4 58/3/4
f 53/3/4 52/3/4 58/3/4
f 59/3/1 60/3/1 52/3/1
f 51/3/1 59/3/1 52/3/1
f 61/3/2 59/3/2 51/3/2
f 55/3/2 61/3/2 51/3/2
f 62/3/3 61/3/3 55/3/3
f 57/3/3 62/3/3 55/3/3
f 60/3/4 62/3/4 57/3/4
f 52/3/4 60/3/4 57/3/4
f 63/3/1 64/3/1 60/3/1
f 59/3/1 63/3/1 60/3/1
f 65/3/2 63/3/2 59/3/2
f 61/3/2 65/3/2 59/3/2
f 66/3/3 65/3/3 61/3/3
f 62/3/3 66/3/3 61/3/3
f 64/3/4 66/3/4 62/3/4
f 60/3/4 64/3/4 62/3/4
f 67/3/1 68/3/1 64/3/1
f 63/3/1 67/3/1 64/3/1
f 69/3/2 67/3/2 63/3/2
f 65/3/2 69/3/2 63/3/2
f 70/3/3 69/3/3 65/3/3
f 66/3/3 70/3/3 65/3/3
f 68/3/4 70/3/4 66/3/4
f 64/3/4 68/3/4 66/3/4
f 56/3/5 54/3/5 53/3/5
f 58/3/5 56/3/5 53/3/5
f 67/3/6 69/3/6 68/3/6
f 69/3/6 70/3/6 68/3/6
f 71/3/1 72/3/1 73/3/1
f 74/3/1 71/3/1 73/3/1
f 75/3/2 71/3/2 74/3/2
f 76/3/2 75/3/2 74/3/2
f 77/3/3 75/3/3 76/3/3
f 78/3/3 77/3/3 76/3/3
f 72/3/4 77/3/4 78/3/4
f 73/3/4 72/3/4 78/3/4
f 79/3/1 80/3/1 72/3/1
f 71/3/1 79/3/1 72/3/1
f 81/3/2 79/3/2 71/3/2
f 75/3/2 81/3/2 71/3/2
f 82/3/3 81/3/3 75/3/3
f 77/3/3 82/3/3 75/3/3
f 80/3/4 82/3/4 77/3/4
f 72/3/4 80/3/4 77/3/4
f 83/3/1 84/3/1 80/3/1
f 79/3/1 83/3/1 80/3/1
f 85/3/2 83/3/2 79/3/2
f 81/3/2 85/3/2 79/3/2
f 86/3/3 85/3/3 81/3/3
f 82/3/3 86/3/3 81/3/3
f 84/3/4 86/3/4 82/3/4
f 80/3/4 84/3/4 82/3/4
f 87/3/1 88/3/1 84/3/1
f 83/3/1 87/3/1 84/3/1
f 89/3/2 87/3/2 83/3/2
f 85/3/2 89/3/2 83/3/2
f 90/3/3 89/3/3 85/3/3
f 86/3/3 90/3/3 85/3/3
f 88/3/4 90/3/4 86/3/4
f 84/3/4 88/3/4 86/3/4
f 76/3/5 74/3/5 73/3/5
f 78/3/5 76/3/5 73/3/5
f 87/3/6 89/3/6 88/3/6
f 89/3/6 90/3/6 88/3/6
f 91/4/1 92/4/1 93/4/1
f 94/4/1 91/4/1 93/4/1
f 95/4/2 91/4/2 94/4/2
f 96/4/2 95/4/2 94/4/2
f 97/4/3 95/4/3 96/4/3
f 98/4/3 97/4/3 96/4/3
f 92/4/4 97/4/4 98/4/4
f 93/4/4 92/4/4 98/4/4
f 96/4/5 94/4/5 93/4/5
f 98/4/5 96/4/5 93/4/5
f 91/4/6 95/4/6 92/4/6
f 95/4/6 97/4/6 92/4/6
f 99/4/1 100/4/1 92/4/1
f 91/4/1 99/4/1 92/4/1
f 101/4/2 99/4/2 91/4/2
f 95/4/2 101/4/2 91/4/2
f 102/4/3 101/4/3 95/4/3
f 97/4/3 102/4/3 95/4/3
f 100/4/4 102/4/4 97/4/4
f 92/4/4 100/4/4 97/4/4
f 95/4/5 91/4/5 92/4/5
f 97/4/5 95/4/5 92/4/5
f 99/4/6 101/4/6 100/4/6
f 101/4/6 102/4/6 100/4/6
f 103/4/1 104/4/1 100/4/1
f 99/4/1 103/4/1 100/4/1
f 105/4/2 103/4/2 99/4/2
f 101/4/2 105/4/2 99/4/2
f 106/4/3 105/4/3 101/4/3
f 102/4/3 106/4/3 101/4/3
f 104/4/4 106/4/4 102/4/4
f 100/4/4 104/4/4 102/4/4
f 101/4/5 99/4/5 100/4/5
f 102/4/5 101/4/5 100/4/5
f 103/4/6 105/4/6 104/4/6
f 105/4/6 106/4/6 104/4/6
