# CargoTrackMergeY - generated by Tools/generate_meshes.py, do not hand-edit
# Regenerate with: python Tools/generate_meshes.py
o CargoTrackMergeY
v -7.32726 -0.42000 -3.43676
v -8.77093 -0.42000 3.82105
v -10.00000 -0.42000 3.70000
v -10.00000 -0.42000 -3.70000
v -7.32726 0.00000 -3.43676
v -10.00000 0.00000 -3.70000
v -8.77093 0.00000 3.82105
v -10.00000 0.00000 3.70000
v -4.75724 -0.42000 -2.65715
v -7.58909 -0.42000 4.17956
v -4.75724 0.00000 -2.65715
v -7.58909 0.00000 4.17956
v -2.38869 -0.42000 -1.39113
v -6.49991 -0.42000 4.76174
v -2.38869 0.00000 -1.39113
v -6.49991 0.00000 4.76174
v -0.31264 -0.42000 0.31264
v -5.54523 -0.42000 5.54523
v -0.31264 0.00000 0.31264
v -5.54523 0.00000 5.54523
v 1.39113 -0.42000 2.38869
v -4.76174 -0.42000 6.49991
v 1.39113 0.00000 2.38869
v -4.76174 0.00000 6.49991
v 2.65715 -0.42000 4.75724
v -4.17956 -0.42000 7.58909
v 2.65715 0.00000 4.75724
v -4.17956 0.00000 7.58909
v 3.43676 -0.42000 7.32726
v -3.82105 -0.42000 8.77093
v 3.43676 0.00000 7.32726
v -3.82105 0.00000 8.77093
v 3.70000 -0.42000 10.00000
v -3.70000 -0.42000 10.00000
v 3.70000 0.00000 10.00000
v -3.70000 0.00000 10.00000
v -8.91725 -0.42000 4.55664
v -10.00000 -0.42000 4.45000
v -8.91725 1.15000 4.55664
v -10.00000 1.15000 4.45000
v -8.77093 1.15000 3.82105
v -10.00000 1.15000 3.70000
v -7.87611 -0.42000 4.87247
v -7.87611 1.15000 4.87247
v -7.58909 1.15000 4.17956
v -6.91659 -0.42000 5.38534
v -6.91659 1.15000 5.38534
v -6.49991 1.15000 4.76174
v -6.07556 -0.42000 6.07556
v -6.07556 1.15000 6.07556
v -5.54523 1.15000 5.54523
v -5.38534 -0.42000 6.91659
v -5.38534 1.15000 6.91659
v -4.76174 1.15000 6.49991
v -4.87247 -0.42000 7.87611
v -4.87247 1.15000 7.87611
v -4.17956 1.15000 7.58909
v -4.55664 -0.42000 8.91725
v -4.55664 1.15000 8.91725
v -3.82105 1.15000 8.77093
v -4.45000 -0.42000 10.00000
v -4.45000 1.15000 10.00000
v -3.70000 1.15000 10.00000
v -7.18094 -0.42000 -4.17235
v -10.00000 -0.42000 -4.45000
v -7.18094 1.15000 -4.17235
v -10.00000 1.15000 -4.45000
v -7.32726 1.15000 -3.43676
v -10.00000 1.15000 -3.70000
v -4.47022 -0.42000 -3.35006
v -4.47022 1.15000 -3.35006
v -4.75724 1.15000 -2.65715
v -1.97201 -0.42000 -2.01474
v -1.97201 1.15000 -2.01474
v -2.38869 1.15000 -1.39113
v 0.21769 -0.42000 -0.21769
v 0.21769 1.15000 -0.21769
v -0.31264 1.15000 0.31264
v 2.01474 -0.42000 1.97201
v 2.01474 1.15000 1.97201
v 1.39113 1.15000 2.38869
v 3.35006 -0.42000 4.47022
v 3.35006 1.15000 4.47022
v 2.65715 1.15000 4.75724
v 4.17235 -0.42000 7.18094
v 4.17235 1.15000 7.18094
v 3.43676 1.15000 7.32726
v 4.45000 -0.42000 10.00000
v 4.45000 1.15000 10.00000
v 3.70000 1.15000 10.00000
v -8.94651 1.10000 4.70376
v -8.74167 1.10000 3.67393
v -10.00000 1.10000 3.55000
v -10.00000 1.10000 4.60000
v -8.94651 1.42000 4.70376
v -10.00000 1.42000 4.60000
v -8.74167 1.42000 3.67393
v -10.00000 1.42000 3.55000
v -7.93351 1.10000 5.01105
v -7.53169 1.10000 4.04098
v -7.93351 1.42000 5.01105
v -7.53169 1.42000 4.04098
v -6.99992 1.10000 5.51006
v -6.41657 1.10000 4.63702
v -6.99992 1.42000 5.51006
v -6.41657 1.42000 4.63702
v -6.18162 1.10000 6.18162
v -5.43916 1.10000 5.43916
v -6.18162 1.42000 6.18162
v -5.43916 1.42000 5.43916
v -5.51006 1.10000 6.99992
v -4.63702 1.10000 6.41657
v -5.51006 1.42000 6.99992
v -4.63702 1.42000 6.41657
v -5.01105 1.10000 7.93351
v -4.04098 1.10000 7.53169
v -5.01105 1.42000 7.93351
v -4.04098 1.42000 7.53169
v -4.70376 1.10000 8.94651
v -3.67393 1.10000 8.74167
v -4.70376 1.42000 8.94651
v -3.67393 1.42000 8.74167
v -4.60000 1.10000 10.00000
v -3.55000 1.10000 10.00000
v -4.60000 1.42000 10.00000
v -3.55000 1.42000 10.00000
v -7.15168 1.10000 -4.31947
v -7.35653 1.10000 -3.28964
v -10.00000 1.10000 -3.55000
v -10.00000 1.10000 -4.60000
v -7.15168 1.42000 -4.31947
v -10.00000 1.42000 -4.60000
v -7.35653 1.42000 -3.28964
v -10.00000 1.42000 -3.55000
v -4.41282 1.10000 -3.48864
v -4.81464 1.10000 -2.51857
v -4.41282 1.42000 -3.48864
v -4.81464 1.42000 -2.51857
v -1.88867 1.10000 -2.13946
v -2.47202 1.10000 -1.26641
v -1.88867 1.42000 -2.13946
v -2.47202 1.42000 -1.26641
v 0.32376 1.10000 -0.32376
v -0.41870 1.10000 0.41870
v 0.32376 1.42000 -0.32376
v -0.41870 1.42000 0.41870
v 2.13946 1.10000 1.88867
v 1.26641 1.10000 2.47202
v 2.13946 1.42000 1.88867
v 1.26641 1.42000 2.47202
v 3.48864 1.10000 4.41282
v 2.51857 1.10000 4.81464
v 3.48864 1.42000 4.41282
v 2.51857 1.42000 4.81464
v 4.31947 1.10000 7.15168
v 3.28964 1.10000 7.35653
v 4.31947 1.42000 7.15168
v 3.28964 1.42000 7.35653
v 4.60000 1.10000 10.00000
v 3.55000 1.10000 10.00000
v 4.60000 1.42000 10.00000
v 3.55000 1.42000 10.00000
v -4.87204 -0.44000 -2.37999
v -7.47429 -0.44000 3.90240
v -8.71240 -0.44000 3.52682
v -7.38579 -0.44000 -3.14252
v -4.87204 -0.18000 -2.37999
v -7.38579 -0.18000 -3.14252
v -7.47429 -0.18000 3.90240
v -8.71240 -0.18000 3.52682
v -0.52477 -0.44000 0.52477
v -5.33310 -0.44000 5.33310
v -6.33324 -0.44000 4.51230
v -2.55536 -0.44000 -1.14169
v -0.52477 -0.18000 0.52477
v -2.55536 -0.18000 -1.14169
v -5.33310 -0.18000 5.33310
v -6.33324 -0.18000 4.51230
v 2.37999 -0.44000 4.87204
v -3.90240 -0.44000 7.47429
v -4.51230 -0.44000 6.33324
v 1.14169 -0.44000 2.55536
v 2.37999 -0.18000 4.87204
v 1.14169 -0.18000 2.55536
v -3.90240 -0.18000 7.47429
v -4.51230 -0.18000 6.33324
v 3.40000 -0.44000 10.00000
v -3.40000 -0.44000 10.00000
v -3.52682 -0.44000 8.71240
v 3.14252 -0.44000 7.38579
v 3.40000 -0.18000 10.00000
v 3.14252 -0.18000 7.38579
v -3.40000 -0.18000 10.00000
v -3.52682 -0.18000 8.71240
v -8.77093 -0.42000 -3.82105
v -7.32726 -0.42000 3.43676
v -8.77093 0.00000 -3.82105
v -7.32726 0.00000 3.43676
v -7.58909 -0.42000 -4.17956
v -4.75724 -0.42000 2.65715
v -7.58909 0.00000 -4.17956
v -4.75724 0.00000 2.65715
v -6.49991 -0.42000 -4.76174
v -2.38869 -0.42000 1.39113
v -6.49991 0.00000 -4.76174
v -2.38869 0.00000 1.39113
v -5.54523 -0.42000 -5.54523
v -0.31264 -0.42000 -0.31264
v -5.54523 0.00000 -5.54523
v -0.31264 0.00000 -0.31264
v -4.76174 -0.42000 -6.49991
v 1.39113 -0.42000 -2.38869
v -4.76174 0.00000 -6.49991
v 1.39113 0.00000 -2.38869
v -4.17956 -0.42000 -7.58909
v 2.65715 -0.42000 -4.75724
v -4.17956 0.00000 -7.58909
v 2.65715 0.00000 -4.75724
v -3.82105 -0.42000 -8.77093
v 3.43676 -0.42000 -7.32726
v -3.82105 0.00000 -8.77093
v 3.43676 0.00000 -7.32726
v -3.70000 -0.42000 -10.00000
v 3.70000 -0.42000 -10.00000
v -3.70000 0.00000 -10.00000
v 3.70000 0.00000 -10.00000
v -7.18094 -0.42000 4.17235
v -7.18094 1.15000 4.17235
v -7.32726 1.15000 3.43676
v -4.47022 -0.42000 3.35006
v -4.47022 1.15000 3.35006
v -4.75724 1.15000 2.65715
v -1.97201 -0.42000 2.01474
v -1.97201 1.15000 2.01474
v -2.38869 1.15000 1.39113
v 0.21769 -0.42000 0.21769
v 0.21769 1.15000 0.21769
v -0.31264 1.15000 -0.31264
v 2.01474 -0.42000 -1.97201
v 2.01474 1.15000 -1.97201
v 1.39113 1.15000 -2.38869
v 3.35006 -0.42000 -4.47022
v 3.35006 1.15000 -4.47022
v 2.65715 1.15000 -4.75724
v 4.17235 -0.42000 -7.18094
v 4.17235 1.15000 -7.18094
v 3.43676 1.15000 -7.32726
v 4.45000 -0.42000 -10.00000
v 4.45000 1.15000 -10.00000
v 3.70000 1.15000 -10.00000
v -8.91725 -0.42000 -4.55664
v -8.91725 1.15000 -4.55664
v -8.77093 1.15000 -3.82105
v -7.87611 -0.42000 -4.87247
v -7.87611 1.15000 -4.87247
v -7.58909 1.15000 -4.17956
v -6.91659 -0.42000 -5.38534
v -6.91659 1.15000 -5.38534
v -6.49991 1.15000 -4.76174
v -6.07556 -0.42000 -6.07556
v -6.07556 1.15000 -6.07556
v -5.54523 1.15000 -5.54523
v -5.38534 -0.42000 -6.91659
v -5.38534 1.15000 -6.91659
v -4.76174 1.15000 -6.49991
v -4.87247 -0.42000 -7.87611
v -4.87247 1.15000 -7.87611
v -4.17956 1.15000 -7.58909
v -4.55664 -0.42000 -8.91725
v -4.55664 1.15000 -8.91725
v -3.82105 1.15000 -8.77093
v -4.45000 -0.42000 -10.00000
v -4.45000 1.15000 -10.00000
v -3.70000 1.15000 -10.00000
v -7.15168 1.10000 4.31947
v -7.35653 1.10000 3.28964
v -7.15168 1.42000 4.31947
v -7.35653 1.42000 3.28964
v -4.41282 1.10000 3.48864
v -4.81464 1.10000 2.51857
v -4.41282 1.42000 3.48864
v -4.81464 1.42000 2.51857
v -1.88867 1.10000 2.13946
v -2.47202 1.10000 1.26641
v -1.88867 1.42000 2.13946
v -2.47202 1.42000 1.26641
v 0.32376 1.10000 0.32376
v -0.41870 1.10000 -0.41870
v 0.32376 1.42000 0.32376
v -0.41870 1.42000 -0.41870
v 2.13946 1.10000 -1.88867
v 1.26641 1.10000 -2.47202
v 2.13946 1.42000 -1.88867
v 1.26641 1.42000 -2.47202
v 3.48864 1.10000 -4.41282
v 2.51857 1.10000 -4.81464
v 3.48864 1.42000 -4.41282
v 2.51857 1.42000 -4.81464
v 4.31947 1.10000 -7.15168
v 3.28964 1.10000 -7.35653
v 4.31947 1.42000 -7.15168
v 3.28964 1.42000 -7.35653
v 4.60000 1.10000 -10.00000
v 3.55000 1.10000 -10.00000
v 4.60000 1.42000 -10.00000
v 3.55000 1.42000 -10.00000
v -8.94651 1.10000 -4.70376
v -8.74167 1.10000 -3.67393
v -8.94651 1.42000 -4.70376
v -8.74167 1.42000 -3.67393
v -7.93351 1.10000 -5.01105
v -7.53169 1.10000 -4.04098
v -7.93351 1.42000 -5.01105
v -7.53169 1.42000 -4.04098
v -6.99992 1.10000 -5.51006
v -6.41657 1.10000 -4.63702
v -6.99992 1.42000 -5.51006
v -6.41657 1.42000 -4.63702
v -6.18162 1.10000 -6.18162
v -5.43916 1.10000 -5.43916
v -6.18162 1.42000 -6.18162
v -5.43916 1.42000 -5.43916
v -5.51006 1.10000 -6.99992
v -4.63702 1.10000 -6.41657
v -5.51006 1.42000 -6.99992
v -4.63702 1.42000 -6.41657
v -5.01105 1.10000 -7.93351
v -4.04098 1.10000 -7.53169
v -5.01105 1.42000 -7.93351
v -4.04098 1.42000 -7.53169
v -4.70376 1.10000 -8.94651
v -3.67393 1.10000 -8.74167
v -4.70376 1.42000 -8.94651
v -3.67393 1.42000 -8.74167
v -4.60000 1.10000 -10.00000
v -3.55000 1.10000 -10.00000
v -4.60000 1.42000 -10.00000
v -3.55000 1.42000 -10.00000
v -7.47429 -0.44000 -3.90240
v -4.87204 -0.44000 2.37999
v -7.38579 -0.44000 3.14252
v -8.71240 -0.44000 -3.52682
v -7.47429 -0.18000 -3.90240
v -8.71240 -0.18000 -3.52682
v -4.87204 -0.18000 2.37999
v -7.38579 -0.18000 3.14252
v -5.33310 -0.44000 -5.33310
v -0.52477 -0.44000 -0.52477
v -2.55536 -0.44000 1.14169
v -6.33324 -0.44000 -4.51230
v -5.33310 -0.18000 -5.33310
v -6.33324 -0.18000 -4.51230
v -0.52477 -0.18000 -0.52477
v -2.55536 -0.18000 1.14169
v -3.90240 -0.44000 -7.47429
v 2.37999 -0.44000 -4.87204
v 1.14169 -0.44000 -2.55536
v -4.51230 -0.44000 -6.33324
v -3.90240 -0.18000 -7.47429
v -4.51230 -0.18000 -6.33324
v 2.37999 -0.18000 -4.87204
v 1.14169 -0.18000 -2.55536
v -3.40000 -0.44000 -10.00000
v 3.40000 -0.44000 -10.00000
v 3.14252 -0.44000 -7.38579
v -3.52682 -0.44000 -8.71240
v -3.40000 -0.18000 -10.00000
v -3.52682 -0.18000 -8.71240
v 3.40000 -0.18000 -10.00000
v 3.14252 -0.18000 -7.38579
vt 0.01000 0.01000
vt 0.03000 0.01000
vt 0.02000 0.01000
vn 0.00000 -1.00000 0.00000
vn 0.09802 0.00000 -0.99518
vn 0.00000 1.00000 0.00000
vn -0.09802 0.00000 0.99518
vn 0.29028 0.00000 -0.95694
vn -0.29028 0.00000 0.95694
vn 0.47140 0.00000 -0.88192
vn -0.47140 0.00000 0.88192
vn 0.63439 0.00000 -0.77301
vn -0.63439 0.00000 0.77301
vn 0.77301 0.00000 -0.63439
vn -0.77301 0.00000 0.63439
vn 0.88192 0.00000 -0.47140
vn -0.88192 0.00000 0.47140
vn 0.95694 0.00000 -0.29028
vn -0.95694 0.00000 0.29028
vn 0.99518 0.00000 -0.09802
vn -0.99518 0.00000 0.09802
vn -1.00000 0.00000 0.00000
vn 0.00000 -0.00000 1.00000
vn 0.09802 0.00000 -0.99518
vn -0.09802 0.00000 0.99518
vn 0.29028 0.00000 -0.95694
vn -0.29028 0.00000 0.95694
vn 0.47140 0.00000 -0.88192
vn -0.47140 0.00000 0.88192
vn 0.63439 0.00000 -0.77301
vn 0.77301 0.00000 -0.63439
vn -0.77301 0.00000 0.63439
vn 0.88192 0.00000 -0.47140
vn -0.88192 0.00000 0.47140
vn 0.95694 0.00000 -0.29028
vn -0.95694 0.00000 0.29028
vn 0.99518 0.00000 -0.09802
vn -0.99518 0.00000 0.09802
vn 1.00000 0.00000 0.00000
vn 0.00000 0.00000 -1.00000
vn 0.09802 0.00000 -0.99518
vn -0.09802 0.00000 0.99518
vn 0.29028 0.00000 -0.95694
vn -0.29028 0.00000 0.95694
vn 0.47140 0.00000 -0.88192
vn -0.47140 0.00000 0.88192
vn -0.63439 0.00000 0.77301
vn 0.77301 0.00000 -0.63439
vn -0.77301 0.00000 0.63439
vn 0.88192 0.00000 -0.47140
vn -0.88192 0.00000 0.47140
vn 0.95694 0.00000 -0.29028
vn -0.95694 0.00000 0.29028
vn 0.99518 0.00000 -0.09802
vn -0.99518 0.00000 0.09802
vn 0.09802 0.00000 -0.99518
vn -0.09802 0.00000 0.99518
vn 0.29028 0.00000 -0.95694
vn -0.29028 0.00000 0.95694
vn 0.47140 0.00000 -0.88192
vn -0.47140 0.00000 0.88192
vn 0.63439 0.00000 -0.77301
vn -0.63439 0.00000 0.77301
vn 0.77301 0.00000 -0.63439
vn -0.77301 0.00000 0.63439
vn 0.88192 0.00000 -0.47140
vn -0.88192 0.00000 0.47140
vn 0.95694 0.00000 -0.29028
vn -0.95694 0.00000 0.29028
vn 0.99518 0.00000 -0.09802
vn -0.99518 0.00000 0.09802
vn -0.09802 0.00000 0.99518
vn 0.29028 0.00000 -0.95694
vn 0.47140 0.00000 -0.88192
vn -0.47140 0.00000 0.88192
vn 0.63439 0.00000 -0.77301
vn 0.77301 0.00000 -0.63439
vn -0.77301 0.00000 0.63439
vn 0.88192 0.00000 -0.47140
vn -0.88192 0.00000 0.47140
vn 0.95694 0.00000 -0.29028
vn -0.95694 0.00000 0.29028
vn 0.99518 0.00000 -0.09802
vn 0.29028 0.00000 -0.95694
vn -0.98079 -0.00000 -0.19509
vn 0.92388 -0.00000 0.38268
vn 0.63439 0.00000 -0.77301
vn -0.83147 -0.00000 -0.55557
vn 0.70711 -0.00000 0.70711
vn 0.88192 0.00000 -0.47140
vn -0.88192 0.00000 0.47140
vn -0.55557 -0.00000 -0.83147
vn 0.38268 -0.00000 0.92388
vn 0.99518 0.00000 -0.09802
vn -0.19509 -0.00000 -0.98079
vn -0.09802 -0.00000 -0.99518
vn 0.09802 -0.00000 0.99518
vn -0.29028 -0.00000 -0.95694
vn 0.29028 -0.00000 0.95694
vn -0.47140 -0.00000 -0.88192
vn 0.47140 -0.00000 0.88192
vn -0.63439 -0.00000 -0.77301
vn 0.63439 -0.00000 0.77301
vn -0.77301 -0.00000 -0.63439
vn 0.77301 -0.00000 0.63439
vn -0.88192 -0.00000 -0.47140
vn 0.88192 -0.00000 0.47140
vn -0.95694 -0.00000 -0.29028
vn 0.95694 -0.00000 0.29028
vn -0.99518 -0.00000 -0.09802
vn 0.99518 -0.00000 0.09802
vn -0.09802 -0.00000 -0.99518
vn 0.09802 -0.00000 0.99518
vn -0.29028 -0.00000 -0.95694
vn 0.29028 -0.00000 0.95694
vn -0.47140 -0.00000 -0.88192
vn 0.47140 -0.00000 0.88192
vn -0.63439 -0.00000 -0.77301
vn 0.63439 -0.00000 0.77301
vn -0.77301 -0.00000 -0.63439
vn 0.77301 -0.00000 0.63439
vn -0.88192 -0.00000 -0.47140
vn 0.88192 -0.00000 0.47140
vn -0.95694 -0.00000 -0.29028
vn 0.95694 -0.00000 0.29028
vn -0.99518 -0.00000 -0.09802
vn 0.99518 -0.00000 0.09802
vn -0.09802 -0.00000 -0.99518
vn 0.09802 -0.00000 0.99518
vn -0.29028 -0.00000 -0.95694
vn 0.29028 -0.00000 0.95694
vn -0.47140 -0.00000 -0.88192
vn 0.47140 -0.00000 0.88192
vn -0.63439 -0.00000 -0.77301
vn 0.63439 -0.00000 0.77301
vn -0.77301 -0.00000 -0.63439
vn 0.77301 -0.00000 0.63439
vn -0.88192 -0.00000 -0.47140
vn 0.88192 -0.00000 0.47140
vn -0.95694 -0.00000 -0.29028
vn 0.95694 -0.00000 0.29028
vn -0.99518 -0.00000 -0.09802
vn 0.99518 -0.00000 0.09802
vn -0.09802 -0.00000 -0.99518
vn 0.09802 -0.00000 0.99518
vn 0.29028 -0.00000 0.95694
vn -0.47140 -0.00000 -0.88192
vn -0.63439 -0.00000 -0.77301
vn 0.63439 -0.00000 0.77301
vn 0.77301 -0.00000 0.63439
vn -0.88192 -0.00000 -0.47140
vn 0.88192 -0.00000 0.47140
vn -0.95694 -0.00000 -0.29028
vn 0.95694 -0.00000 0.29028
vn -0.99518 -0.00000 -0.09802
vn 0.99518 -0.00000 0.09802
vn -0.09802 -0.00000 -0.99518
vn 0.09802 -0.00000 0.99518
vn -0.29028 -0.00000 -0.95694
vn 0.29028 -0.00000 0.95694
vn -0.47140 -0.00000 -0.88192
vn 0.47140 -0.00000 0.88192
vn -0.63439 -0.00000 -0.77301
vn 0.63439 -0.00000 0.77301
vn -0.77301 -0.00000 -0.63439
vn 0.77301 -0.00000 0.63439
vn -0.88192 -0.00000 -0.47140
vn 0.88192 -0.00000 0.47140
vn 0.95694 -0.00000 0.29028
vn -0.99518 -0.00000 -0.09802
vn 0.99518 -0.00000 0.09802
vn 0.29028 -0.00000 0.95694
vn -0.98079 0.00000 0.19509
vn 0.92388 0.00000 -0.38268
vn -0.63439 -0.00000 -0.77301
vn -0.83147 0.00000 0.55557
vn 0.70711 0.00000 -0.70711
vn -0.88192 -0.00000 -0.47140
vn 0.88192 -0.00000 0.47140
vn -0.55557 0.00000 0.83147
vn 0.38268 0.00000 -0.92388
vn -0.99518 -0.00000 -0.09802
vn -0.19509 0.00000 0.98079
f 1/1/1 2/1/1 3/1/1
f 4/1/1 1/1/1 3/1/1
f 5/1/2 1/1/2 4/1/2
f 6/1/2 5/1/2 4/1/2
f 7/1/3 5/1/3 6/1/3
f 8/1/3 7/1/3 6/1/3
f 2/1/4 7/1/4 8/1/4
f 3/1/4 2/1/4 8/1/4
f 9/1/1 10/1/1 2/1/1
f 1/1/1 9/1/1 2/1/1
f 11/1/5 9/1/5 1/1/5
f 5/1/5 11/1/5 1/1/5
f 12/1/3 11/1/3 5/1/3
f 7/1/3 12/1/3 5/1/3
f 10/1/6 12/1/6 7/1/6
f 2/1/6 10/1/6 7/1/6
f 13/1/1 14/1/1 10/1/1
f 9/1/1 13/1/1 10/1/1
f 15/1/7 13/1/7 9/1/7
f 11/1/7 15/1/7 9/1/7
f 16/1/3 15/1/3 11/1/3
f 12/1/3 16/1/3 11/1/3
f 14/1/8 16/1/8 12/1/8
f 10/1/8 14/1/8 12/1/8
f 17/1/1 18/1/1 14/1/1
f 13/1/1 17/1/1 14/1/1
f 19/1/9 17/1/9 13/1/9
f 15/1/9 19/1/9 13/1/9
f 20/1/3 19/1/3 15/1/3
f 16/1/3 20/1/3 15/1/3
f 18/1/10 20/1/10 16/1/10
f 14/1/10 18/1/10 16/1/10
f 21/1/1 22/1/1 18/1/1
f 17/1/1 21/1/1 18/1/1
f 23/1/11 21/1/11 17/1/11
f 19/1/11 23/1/11 17/1/11
f 24/1/3 23/1/3 19/1/3
f 20/1/3 24/1/3 19/1/3
f 22/1/12 24/1/12 20/1/12
f 18/1/12 22/1/12 20/1/12
f 25/1/1 26/1/1 22/1/1
f 21/1/1 25/1/1 22/1/1
f 27/1/13 25/1/13 21/1/13
f 23/1/13 27/1/13 21/1/13
f 28/1/3 27/1/3 23/1/3
f 24/1/3 28/1/3 23/1/3
f 26/1/14 28/1/14 24/1/14
f 22/1/14 26/1/14 24/1/14
f 29/1/1 30/1/1 26/1/1
f 25/1/1 29/1/1 26/1/1
f 31/1/15 29/1/15 25/1/15
f 27/1/15 31/1/15 25/1/15
f 32/1/3 31/1/3 27/1/3
f 28/1/3 32/1/3 27/1/3
f 30/1/16 32/1/16 28/1/16
f 26/1/16 30/1/16 28/1/16
f 33/1/1 34/1/1 30/1/1
f 29/1/1 33/1/1 30/1/1
f 35/1/17 33/1/17 29/1/17
f 31/1/17 35/1/17 29/1/17
f 36/1/3 35/1/3 31/1/3
f 32/1/3 36/1/3 31/1/3
f 34/1/18 36/1/18 32/1/18
f 30/1/18 34/1/18 32/1/18
f 6/1/19 4/1/19 3/1/19
f 8/1/19 6/1/19 3/1/19
f 33/1/20 35/1/20 34/1/20
f 35/1/20 36/1/20 34/1/20
f 37/2/3 2/2/3 3/2/3
f 38/2/3 37/2/3 3/2/3
f 39/2/21 37/2/21 38/2/21
f 40/2/21 39/2/21 38/2/21
f 41/2/1 39/2/1 40/2/1
f 42/2/1 41/2/1 40/2/1
f 2/2/22 41/2/22 42/2/22
f 3/2/22 2/2/22 42/2/22
f 43/2/3 10/2/3 2/2/3
f 37/2/3 43/2/3 2/2/3
f 44/2/23 43/2/23 37/2/23
f 39/2/23 44/2/23 37/2/23
f 45/2/1 44/2/1 39/2/1
f 41/2/1 45/2/1 39/2/1
f 10/2/24 45/2/24 41/2/24
f 2/2/24 10/2/24 41/2/24
f 46/2/3 14/2/3 10/2/3
f 43/2/3 46/2/3 10/2/3
f 47/2/25 46/2/25 43/2/25
f 44/2/25 47/2/25 43/2/25
f 48/2/1 47/2/1 44/2/1
f 45/2/1 48/2/1 44/2/1
f 14/2/26 48/2/26 45/2/26
f 10/2/26 14/2/26 45/2/26
f 49/2/3 18/2/3 14/2/3
f 46/2/3 49/2/3 14/2/3
f 50/2/27 49/2/27 46/2/27
f 47/2/27 50/2/27 46/2/27
f 51/2/1 50/2/1 47/2/1
f 48/2/1 51/2/1 47/2/1
f 18/2/10 51/2/10 48/2/10
f 14/2/10 18/2/10 48/2/10
f 52/2/3 22/2/3 18/2/3
f 49/2/3 52/2/3 18/2/3
f 53/2/28 52/2/28 49/2/28
f 50/2/28 53/2/28 49/2/28
f 54/2/1 53/2/1 50/2/1
f 51/2/1 54/2/1 50/2/1
f 22/2/29 54/2/29 51/2/29
f 18/2/29 22/2/29 51/2/29
f 55/2/3 26/2/3 22/2/3
f 52/2/3 55/2/3 22/2/3
f 56/2/30 55/2/30 52/2/30
f 53/2/30 56/2/30 52/2/30
f 57/2/1 56/2/1 53/2/1
f 54/2/1 57/2/1 53/2/1
f 26/2/31 57/2/31 54/2/31
f 22/2/31 26/2/31 54/2/31
f 58/2/3 30/2/3 26/2/3
f 55/2/3 58/2/3 26/2/3
f 59/2/32 58/2/32 55/2/32
f 56/2/32 59/2/32 55/2/32
f 60/2/1 59/2/1 56/2/1
f 57/2/1 60/2/1 56/2/1
f 30/2/33 60/2/33 57/2/33
f 26/2/33 30/2/33 57/2/33
f 61/2/3 34/2/3 30/2/3
f 58/2/3 61/2/3 30/2/3
f 62/2/34 61/2/34 58/2/34
f 59/2/34 62/2/34 58/2/34
f 63/2/1 62/2/1 59/2/1
f 60/2/1 63/2/1 59/2/1
f 34/2/35 63/2/35 60/2/35
f 30/2/35 34/2/35 60/2/35
f 40/2/36 38/2/36 3/2/36
f 42/2/36 40/2/36 3/2/36
f 61/2/37 62/2/37 34/2/37
f 62/2/37 63/2/37 34/2/37
f 64/2/1 1/2/1 4/2/1
f 65/2/1 64/2/1 4/2/1
f 66/2/38 64/2/38 65/2/38
f 67/2/38 66/2/38 65/2/38
f 68/2/3 66/2/3 67/2/3
f 69/2/3 68/2/3 67/2/3
f 1/2/39 68/2/39 69/2/39
f 4/2/39 1/2/39 69/2/39
f 70/2/1 9/2/1 1/2/1
f 64/2/1 70/2/1 1/2/1
f 71/2/40 70/2/40 64/2/40
f 66/2/40 71/2/40 64/2/40
f 72/2/3 71/2/3 66/2/3
f 68/2/3 72/2/3 66/2/3
f 9/2/41 72/2/41 68/2/41
f 1/2/41 9/2/41 68/2/41
f 73/2/1 13/2/1 9/2/1
f 70/2/1 73/2/1 9/2/1
f 74/2/42 73/2/42 70/2/42
f 71/2/42 74/2/42 70/2/42
f 75/2/3 74/2/3 71/2/3
f 72/2/3 75/2/3 71/2/3
f 13/2/43 75/2/43 72/2/43
f 9/2/43 13/2/43 72/2/43
f 76/2/1 17/2/1 13/2/1
f 73/2/1 76/2/1 13/2/1
f 77/2/9 76/2/9 73/2/9
f 74/2/9 77/2/9 73/2/9
f 78/2/3 77/2/3 74/2/3
f 75/2/3 78/2/3 74/2/3
f 17/2/44 78/2/44 75/2/44
f 13/2/44 17/2/44 75/2/44
f 79/2/1 21/2/1 17/2/1
f 76/2/1 79/2/1 17/2/1
f 80/2/45 79/2/45 76/2/45
f 77/2/45 80/2/45 76/2/45
f 81/2/3 80/2/3 77/2/3
f 78/2/3 81/2/3 77/2/3
f 21/2/46 81/2/46 78/2/46
f 17/2/46 21/2/46 78/2/46
f 82/2/1 25/2/1 21/2/1
f 79/2/1 82/2/1 21/2/1
f 83/2/47 82/2/47 79/2/47
f 80/2/47 83/2/47 79/2/47
f 84/2/3 83/2/3 80/2/3
f 81/2/3 84/2/3 80/2/3
f 25/2/48 84/2/48 81/2/48
f 21/2/48 25/2/48 81/2/48
f 85/2/1 29/2/1 25/2/1
f 82/2/1 85/2/1 25/2/1
f 86/2/49 85/2/49 82/2/49
f 83/2/49 86/2/49 82/2/49
f 87/2/3 86/2/3 83/2/3
f 84/2/3 87/2/3 83/2/3
f 29/2/50 87/2/50 84/2/50
f 25/2/50 29/2/50 84/2/50
f 88/2/1 33/2/1 29/2/1
f 85/2/1 88/2/1 29/2/1
f 89/2/51 88/2/51 85/2/51
f 86/2/51 89/2/51 85/2/51
f 90/2/3 89/2/3 86/2/3
f 87/2/3 90/2/3 86/2/3
f 33/2/52 90/2/52 87/2/52
f 29/2/52 33/2/52 87/2/52
f 67/2/19 65/2/19 4/2/19
f 69/2/19 67/2/19 4/2/19
f 88/2/20 89/2/20 33/2/20
f 89/2/20 90/2/20 33/2/20
f 91/3/3 92/3/3 93/3/3
f 94/3/3 91/3/3 93/3/3
f 95/3/53 91/3/53 94/3/53
f 96/3/53 95/3/53 94/3/53
f 97/3/1 95/3/1 96/3/1
f 98/3/1 97/3/1 96/3/1
f 92/3/54 97/3/54 98/3/54
f 93/3/54 92/3/54 98/3/54
f 99/3/3 100/3/3 92/3/3
f 91/3/3 99/3/3 92/3/3
f 101/3/55 99/3/55 91/3/55
f 95/3/55 101/3/55 91/3/55
f 102/3/1 101/3/1 95/3/1
f 97/3/1 102/3/1 95/3/1
f 100/3/56 102/3/56 97/3/56
f 92/3/56 100/3/56 97/3/56
f 103/3/3 104/3/3 100/3/3
f 99/3/3 103/3/3 100/3/3
f 105/3/57 103/3/57 99/3/57
f 101/3/57 105/3/57 99/3/57
f 106/3/1 105/3/1 101/3/1
f 102/3/1 106/3/1 101/3/1
f 104/3/58 106/3/58 102/3/58
f 100/3/58 104/3/58 102/3/58
f 107/3/3 108/3/3 104/3/3
f 103/3/3 107/3/3 104/3/3
f 109/3/59 107/3/59 103/3/59
f 105/3/59 109/3/59 103/3/59
f 110/3/1 109/3/1 105/3/1
f 106/3/1 110/3/1 105/3/1
f 108/3/60 110/3/60 106/3/60
f 104/3/60 108/3/60 106/3/60
f 111/3/3 112/3/3 108/3/3
f 107/3/3 111/3/3 108/3/3
f 113/3/61 111/3/61 107/3/61
f 109/3/61 113/3/61 107/3/61
f 114/3/1 113/3/1 109/3/1
f 110/3/1 114/3/1 109/3/1
f 112/3/62 114/3/62 110/3/62
f 108/3/62 112/3/62 110/3/62
f 115/3/3 116/3/3 112/3/3
f 111/3/3 115/3/3 112/3/3
f 117/3/63 115/3/63 111/3/63
f 113/3/63 117/3/63 111/3/63
f 118/3/1 117/3/1 113/3/1
f 114/3/1 118/3/1 113/3/1
f 116/3/64 118/3/64 114/3/64
f 112/3/64 116/3/64 114/3/64
f 119/3/3 120/3/3 116/3/3
f 115/3/3 119/3/3 116/3/3
f 121/3/65 119/3/65 115/3/65
f 117/3/65 121/3/65 115/3/65
f 122/3/1 121/3/1 117/3/1
f 118/3/1 122/3/1 117/3/1
f 120/3/66 122/3/66 118/3/66
f 116/3/66 120/3/66 118/3/66
f 123/3/3 124/3/3 120/3/3
f 119/3/3 123/3/3 120/3/3
f 125/3/67 123/3/67 119/3/67
f 121/3/67 125/3/67 119/3/67
f 126/3/1 125/3/1 121/3/1
f 122/3/1 126/3/1 121/3/1
f 124/3/68 126/3/68 122/3/68
f 120/3/68 124/3/68 122/3/68
f 96/3/36 94/3/36 93/3/36
f 98/3/36 96/3/36 93/3/36
f 123/3/37 125/3/37 124/3/37
f 125/3/37 126/3/37 124/3/37
f 127/3/1 128/3/1 129/3/1
f 130/3/1 127/3/1 129/3/1
f 131/3/2 127/3/2 130/3/2
f 132/3/2 131/3/2 130/3/2
f 133/3/3 131/3/3 132/3/3
f 134/3/3 133/3/3 132/3/3
f 128/3/69 133/3/69 134/3/69
f 129/3/69 128/3/69 134/3/69
f 135/3/1 136/3/1 128/3/1
f 127/3/1 135/3/1 128/3/1
f 137/3/70 135/3/70 127/3/70
f 131/3/70 137/3/70 127/3/70
f 138/3/3 137/3/3 131/3/3
f 133/3/3 138/3/3 131/3/3
f 136/3/41 138/3/41 133/3/41
f 128/3/41 136/3/41 133/3/41
f 139/3/1 140/3/1 136/3/1
f 135/3/1 139/3/1 136/3/1
f 141/3/71 139/3/71 135/3/71
f 137/3/71 141/3/71 135/3/71
f 142/3/3 141/3/3 137/3/3
f 138/3/3 142/3/3 137/3/3
f 140/3/72 142/3/72 138/3/72
f 136/3/72 140/3/72 138/3/72
f 143/3/1 144/3/1 140/3/1
f 139/3/1 143/3/1 140/3/1
f 145/3/73 143/3/73 139/3/73
f 141/3/73 145/3/73 139/3/73
f 146/3/3 145/3/3 141/3/3
f 142/3/3 146/3/3 141/3/3
f 144/3/44 146/3/44 142/3/44
f 140/3/44 144/3/44 142/3/44
f 147/3/1 148/3/1 144/3/1
f 143/3/1 147/3/1 144/3/1
f 149/3/74 147/3/74 143/3/74
f 145/3/74 149/3/74 143/3/74
f 150/3/3 149/3/3 145/3/3
f 146/3/3 150/3/3 145/3/3
f 148/3/75 150/3/75 146/3/75
f 144/3/75 148/3/75 146/3/75
f 151/3/1 152/3/1 148/3/1
f 147/3/1 151/3/1 148/3/1
f 153/3/76 151/3/76 147/3/76
f 149/3/76 153/3/76 147/3/76
f 154/3/3 153/3/3 149/3/3
f 150/3/3 154/3/3 149/3/3
f 152/3/77 154/3/77 150/3/77
f 148/3/77 152/3/77 150/3/77
f 155/3/1 156/3/1 152/3/1
f 151/3/1 155/3/1 152/3/1
f 157/3/78 155/3/78 151/3/78
f 153/3/78 157/3/78 151/3/78
f 158/3/3 157/3/3 153/3/3
f 154/3/3 158/3/3 153/3/3
f 156/3/79 158/3/79 154/3/79
f 152/3/79 156/3/79 154/3/79
f 159/3/1 160/3/1 156/3/1
f 155/3/1 159/3/1 156/3/1
f 161/3/80 159/3/80 155/3/80
f 157/3/80 161/3/80 155/3/80
f 162/3/3 161/3/3 157/3/3
f 158/3/3 162/3/3 157/3/3
f 160/3/52 162/3/52 158/3/52
f 156/3/52 160/3/52 158/3/52
f 132/3/19 130/3/19 129/3/19
f 134/3/19 132/3/19 129/3/19
f 159/3/20 161/3/20 160/3/20
f 161/3/20 162/3/20 160/3/20
f 163/2/1 164/2/1 165/2/1
f 166/2/1 163/2/1 165/2/1
f 167/2/81 163/2/81 166/2/81
f 168/2/81 167/2/81 166/2/81
f 169/2/3 167/2/3 168/2/3
f 170/2/3 169/2/3 168/2/3
f 164/2/6 169/2/6 170/2/6
f 165/2/6 164/2/6 170/2/6
f 168/2/82 166/2/82 165/2/82
f 170/2/82 168/2/82 165/2/82
f 163/2/83 167/2/83 164/2/83
f 167/2/83 169/2/83 164/2/83
f 171/2/1 172/2/1 173/2/1
f 174/2/1 171/2/1 173/2/1
f 175/2/84 171/2/84 174/2/84
f 176/2/84 175/2/84 174/2/84
f 177/2/3 175/2/3 176/2/3
f 178/2/3 177/2/3 176/2/3
f 172/2/10 177/2/10 178/2/10
f 173/2/10 172/2/10 178/2/10
f 176/2/85 174/2/85 173/2/85
f 178/2/85 176/2/85 173/2/85
f 171/2/86 175/2/86 172/2/86
f 175/2/86 177/2/86 172/2/86
f 179/2/1 180/2/1 181/2/1
f 182/2/1 179/2/1 181/2/1
f 183/2/87 179/2/87 182/2/87
f 184/2/87 183/2/87 182/2/87
f 185/2/3 183/2/3 184/2/3
f 186/2/3 185/2/3 184/2/3
f 180/2/88 185/2/88 186/2/88
f 181/2/88 180/2/88 186/2/88
f 184/2/89 182/2/89 181/2/89
f 186/2/89 184/2/89 181/2/89
f 179/2/90 183/2/90 180/2/90
f 183/2/90 185/2/90 180/2/90
f 187/2/1 188/2/1 189/2/1
f 190/2/1 187/2/1 189/2/1
f 191/2/91 187/2/91 190/2/91
f 192/2/91 191/2/91 190/2/91
f 193/2/3 191/2/3 192/2/3
f 194/2/3 193/2/3 192/2/3
f 188/2/52 193/2/52 194/2/52
f 189/2/52 188/2/52 194/2/52
f 192/2/92 190/2/92 189/2/92
f 194/2/92 192/2/92 189/2/92
f 187/2/20 191/2/20 188/2/20
f 191/2/20 193/2/20 188/2/20
f 195/1/1 196/1/1 3/1/1
f 4/1/1 195/1/1 3/1/1
f 197/1/93 195/1/93 4/1/93
f 6/1/93 197/1/93 4/1/93
f 198/1/3 197/1/3 6/1/3
f 8/1/3 198/1/3 6/1/3
f 196/1/94 198/1/94 8/1/94
f 3/1/94 196/1/94 8/1/94
f 199/1/1 200/1/1 196/1/1
f 195/1/1 199/1/1 196/1/1
f 201/1/95 199/1/95 195/1/95
f 197/1/95 201/1/95 195/1/95
f 202/1/3 201/1/3 197/1/3
f 198/1/3 202/1/3 197/1/3
f 200/1/96 202/1/96 198/1/96
f 196/1/96 200/1/96 198/1/96
f 203/1/1 204/1/1 200/1/1
f 199/1/1 203/1/1 200/1/1
f 205/1/97 203/1/97 199/1/97
f 201/1/97 205/1/97 199/1/97
f 206/1/3 205/1/3 201/1/3
f 202/1/3 206/1/3 201/1/3
f 204/1/98 206/1/98 202/1/98
f 200/1/98 204/1/98 202/1/98
f 207/1/1 208/1/1 204/1/1
f 203/1/1 207/1/1 204/1/1
f 209/1/99 207/1/99 203/1/99
f 205/1/99 209/1/99 203/1/99
f 210/1/3 209/1/3 205/1/3
f 206/1/3 210/1/3 205/1/3
f 208/1/100 210/1/100 206/1/100
f 204/1/100 208/1/100 206/1/100
f 211/1/1 212/1/1 208/1/1
f 207/1/1 211/1/1 208/1/1
f 213/1/101 211/1/101 207/1/101
f 209/1/101 213/1/101 207/1/101
f 214/1/3 213/1/3 209/1/3
f 210/1/3 214/1/3 209/1/3
f 212/1/102 214/1/102 210/1/102
f 208/1/102 212/1/102 210/1/102
f 215/1/1 216/1/1 212/1/1
f 211/1/1 215/1/1 212/1/1
f 217/1/103 215/1/103 211/1/103
f 213/1/103 217/1/103 211/1/103
f 218/1/3 217/1/3 213/1/3
f 214/1/3 218/1/3 213/1/3
f 216/1/104 218/1/104 214/1/104
f 212/1/104 216/1/104 214/1/104
f 219/1/1 220/1/1 216/1/1
f 215/1/1 219/1/1 216/1/1
f 221/1/105 219/1/105 215/1/105
f 217/1/105 221/1/105 215/1/105
f 222/1/3 221/1/3 217/1/3
f 218/1/3 222/1/3 217/1/3
f 220/1/106 222/1/106 218/1/106
f 216/1/106 220/1/106 218/1/106
f 223/1/1 224/1/1 220/1/1
f 219/1/1 223/1/1 220/1/1
f 225/1/107 223/1/107 219/1/107
f 221/1/107 225/1/107 219/1/107
f 226/1/3 225/1/3 221/1/3
f 222/1/3 226/1/3 221/1/3
f 224/1/108 226/1/108 222/1/108
f 220/1/108 224/1/108 222/1/108
f 6/1/19 4/1/19 3/1/19
f 8/1/19 6/1/19 3/1/19
f 223/1/37 225/1/37 224/1/37
f 225/1/37 226/1/37 224/1/37
f 227/2/3 196/2/3 3/2/3
f 38/2/3 227/2/3 3/2/3
f 228/2/109 227/2/109 38/2/109
f 40/2/109 228/2/109 38/2/109
f 229/2/1 228/2/1 40/2/1
f 42/2/1 229/2/1 40/2/1
f 196/2/110 229/2/110 42/2/110
f 3/2/110 196/2/110 42/2/110
f 230/2/3 200/2/3 196/2/3
f 227/2/3 230/2/3 196/2/3
f 231/2/111 230/2/111 227/2/111
f 228/2/111 231/2/111 227/2/111
f 232/2/1 231/2/1 228/2/1
f 229/2/1 232/2/1 228/2/1
f 200/2/112 232/2/112 229/2/112
f 196/2/112 200/2/112 229/2/112
f 233/2/3 204/2/3 200/2/3
f 230/2/3 233/2/3 200/2/3
f 234/2/113 233/2/113 230/2/113
f 231/2/113 234/2/113 230/2/113
f 235/2/1 234/2/1 231/2/1
f 232/2/1 235/2/1 231/2/1
f 204/2/114 235/2/114 232/2/114
f 200/2/114 204/2/114 232/2/114
f 236/2/3 208/2/3 204/2/3
f 233/2/3 236/2/3 204/2/3
f 237/2/115 236/2/115 233/2/115
f 234/2/115 237/2/115 233/2/115
f 238/2/1 237/2/1 234/2/1
f 235/2/1 238/2/1 234/2/1
f 208/2/116 238/2/116 235/2/116
f 204/2/116 208/2/116 235/2/116
f 239/2/3 212/2/3 208/2/3
f 236/2/3 239/2/3 208/2/3
f 240/2/117 239/2/117 236/2/117
f 237/2/117 240/2/117 236/2/117
f 241/2/1 240/2/1 237/2/1
f 238/2/1 241/2/1 237/2/1
f 212/2/118 241/2/118 238/2/118
f 208/2/118 212/2/118 238/2/118
f 242/2/3 216/2/3 212/2/3
f 239/2/3 242/2/3 212/2/3
f 243/2/119 242/2/119 239/2/119
f 240/2/119 243/2/119 239/2/119
f 244/2/1 243/2/1 240/2/1
f 241/2/1 244/2/1 240/2/1
f 216/2/120 244/2/120 241/2/120
f 212/2/120 216/2/120 241/2/120
f 245/2/3 220/2/3 216/2/3
f 242/2/3 245/2/3 216/2/3
f 246/2/121 245/2/121 242/2/121
f 243/2/121 246/2/121 242/2/121
f 247/2/1 246/2/1 243/2/1
f 244/2/1 247/2/1 243/2/1
f 220/2/122 247/2/122 244/2/122
f 216/2/122 220/2/122 244/2/122
f 248/2/3 224/2/3 220/2/3
f 245/2/3 248/2/3 220/2/3
f 249/2/123 248/2/123 245/2/123
f 246/2/123 249/2/123 245/2/123
f 250/2/1 249/2/1 246/2/1
f 247/2/1 250/2/1 246/2/1
f 224/2/124 250/2/124 247/2/124
f 220/2/124 224/2/124 247/2/124
f 40/2/36 38/2/36 3/2/36
f 42/2/36 40/2/36 3/2/36
f 248/2/20 249/2/20 224/2/20
f 249/2/20 250/2/20 224/2/20
f 251/2/1 195/2/1 4/2/1
f 65/2/1 251/2/1 4/2/1
f 252/2/125 251/2/125 65/2/125
f 67/2/125 252/2/125 65/2/125
f 253/2/3 252/2/3 67/2/3
f 69/2/3 253/2/3 67/2/3
f 195/2/126 253/2/126 69/2/126
f 4/2/126 195/2/126 69/2/126
f 254/2/1 199/2/1 195/2/1
f 251/2/1 254/2/1 195/2/1
f 255/2/127 254/2/127 251/2/127
f 252/2/127 255/2/127 251/2/127
f 256/2/3 255/2/3 252/2/3
f 253/2/3 256/2/3 252/2/3
f 199/2/128 256/2/128 253/2/128
f 195/2/128 199/2/128 253/2/128
f 257/2/1 203/2/1 199/2/1
f 254/2/1 257/2/1 199/2/1
f 258/2/129 257/2/129 254/2/129
f 255/2/129 258/2/129 254/2/129
f 259/2/3 258/2/3 255/2/3
f 256/2/3 259/2/3 255/2/3
f 203/2/130 259/2/130 256/2/130
f 199/2/130 203/2/130 256/2/130
f 260/2/1 207/2/1 203/2/1
f 257/2/1 260/2/1 203/2/1
f 261/2/131 260/2/131 257/2/131
f 258/2/131 261/2/131 257/2/131
f 262/2/3 261/2/3 258/2/3
f 259/2/3 262/2/3 258/2/3
f 207/2/132 262/2/132 259/2/132
f 203/2/132 207/2/132 259/2/132
f 263/2/1 211/2/1 207/2/1
f 260/2/1 263/2/1 207/2/1
f 264/2/133 263/2/133 260/2/133
f 261/2/133 264/2/133 260/2/133
f 265/2/3 264/2/3 261/2/3
f 262/2/3 265/2/3 261/2/3
f 211/2/134 265/2/134 262/2/134
f 207/2/134 211/2/134 262/2/134
f 266/2/1 215/2/1 211/2/1
f 263/2/1 266/2/1 211/2/1
f 267/2/135 266/2/135 263/2/135
f 264/2/135 267/2/135 263/2/135
f 268/2/3 267/2/3 264/2/3
f 265/2/3 268/2/3 264/2/3
f 215/2/136 268/2/136 265/2/136
f 211/2/136 215/2/136 265/2/136
f 269/2/1 219/2/1 215/2/1
f 266/2/1 269/2/1 215/2/1
f 270/2/137 269/2/137 266/2/137
f 267/2/137 270/2/137 266/2/137
f 271/2/3 270/2/3 267/2/3
f 268/2/3 271/2/3 267/2/3
f 219/2/138 271/2/138 268/2/138
f 215/2/138 219/2/138 268/2/138
f 272/2/1 223/2/1 219/2/1
f 269/2/1 272/2/1 219/2/1
f 273/2/139 272/2/139 269/2/139
f 270/2/139 273/2/139 269/2/139
f 274/2/3 273/2/3 270/2/3
f 271/2/3 274/2/3 270/2/3
f 223/2/140 274/2/140 271/2/140
f 219/2/140 223/2/140 271/2/140
f 67/2/19 65/2/19 4/2/19
f 69/2/19 67/2/19 4/2/19
f 272/2/37 273/2/37 223/2/37
f 273/2/37 274/2/37 223/2/37
f 275/3/3 276/3/3 93/3/3
f 94/3/3 275/3/3 93/3/3
f 277/3/141 275/3/141 94/3/141
f 96/3/141 277/3/141 94/3/141
f 278/3/1 277/3/1 96/3/1
f 98/3/1 278/3/1 96/3/1
f 276/3/142 278/3/142 98/3/142
f 93/3/142 276/3/142 98/3/142
f 279/3/3 280/3/3 276/3/3
f 275/3/3 279/3/3 276/3/3
f 281/3/95 279/3/95 275/3/95
f 277/3/95 281/3/95 275/3/95
f 282/3/1 281/3/1 277/3/1
f 278/3/1 282/3/1 277/3/1
f 280/3/143 282/3/143 278/3/143
f 276/3/143 280/3/143 278/3/143
f 283/3/3 284/3/3 280/3/3
f 279/3/3 283/3/3 280/3/3
f 285/3/144 283/3/144 279/3/144
f 281/3/144 285/3/144 279/3/144
f 286/3/1 285/3/1 281/3/1
f 282/3/1 286/3/1 281/3/1
f 284/3/114 286/3/114 282/3/114
f 280/3/114 284/3/114 282/3/114
f 287/3/3 288/3/3 284/3/3
f 283/3/3 287/3/3 284/3/3
f 289/3/145 287/3/145 283/3/145
f 285/3/145 289/3/145 283/3/145
f 290/3/1 289/3/1 285/3/1
f 286/3/1 290/3/1 285/3/1
f 288/3/146 290/3/146 286/3/146
f 284/3/146 288/3/146 286/3/146
f 291/3/3 292/3/3 288/3/3
f 287/3/3 291/3/3 288/3/3
f 293/3/117 291/3/117 287/3/117
f 289/3/117 293/3/117 287/3/117
f 294/3/1 293/3/1 289/3/1
f 290/3/1 294/3/1 289/3/1
f 292/3/147 294/3/147 290/3/147
f 288/3/147 292/3/147 290/3/147
f 295/3/3 296/3/3 292/3/3
f 291/3/3 295/3/3 292/3/3
f 297/3/148 295/3/148 291/3/148
f 293/3/148 297/3/148 291/3/148
f 298/3/1 297/3/1 293/3/1
f 294/3/1 298/3/1 293/3/1
f 296/3/149 298/3/149 294/3/149
f 292/3/149 296/3/149 294/3/149
f 299/3/3 300/3/3 296/3/3
f 295/3/3 299/3/3 296/3/3
f 301/3/150 299/3/150 295/3/150
f 297/3/150 301/3/150 295/3/150
f 302/3/1 301/3/1 297/3/1
f 298/3/1 302/3/1 297/3/1
f 300/3/151 302/3/151 298/3/151
f 296/3/151 300/3/151 298/3/151
f 303/3/3 304/3/3 300/3/3
f 299/3/3 303/3/3 300/3/3
f 305/3/152 303/3/152 299/3/152
f 301/3/152 305/3/152 299/3/152
f 306/3/1 305/3/1 301/3/1
f 302/3/1 306/3/1 301/3/1
f 304/3/153 306/3/153 302/3/153
f 300/3/153 304/3/153 302/3/153
f 96/3/36 94/3/36 93/3/36
f 98/3/36 96/3/36 93/3/36
f 303/3/20 305/3/20 304/3/20
f 305/3/20 306/3/20 304/3/20
f 307/3/1 308/3/1 129/3/1
f 130/3/1 307/3/1 129/3/1
f 309/3/154 307/3/154 130/3/154
f 132/3/154 309/3/154 130/3/154
f 310/3/3 309/3/3 132/3/3
f 134/3/3 310/3/3 132/3/3
f 308/3/155 310/3/155 134/3/155
f 129/3/155 308/3/155 134/3/155
f 311/3/1 312/3/1 308/3/1
f 307/3/1 311/3/1 308/3/1
f 313/3/156 311/3/156 307/3/156
f 309/3/156 313/3/156 307/3/156
f 314/3/3 313/3/3 309/3/3
f 310/3/3 314/3/3 309/3/3
f 312/3/157 314/3/157 310/3/157
f 308/3/157 312/3/157 310/3/157
f 315/3/1 316/3/1 312/3/1
f 311/3/1 315/3/1 312/3/1
f 317/3/158 315/3/158 311/3/158
f 313/3/158 317/3/158 311/3/158
f 318/3/3 317/3/3 313/3/3
f 314/3/3 318/3/3 313/3/3
f 316/3/159 318/3/159 314/3/159
f 312/3/159 316/3/159 314/3/159
f 319/3/1 320/3/1 316/3/1
f 315/3/1 319/3/1 316/3/1
f 321/3/160 319/3/160 315/3/160
f 317/3/160 321/3/160 315/3/160
f 322/3/3 321/3/3 317/3/3
f 318/3/3 322/3/3 317/3/3
f 320/3/161 322/3/161 318/3/161
f 316/3/161 320/3/161 318/3/161
f 323/3/1 324/3/1 320/3/1
f 319/3/1 323/3/1 320/3/1
f 325/3/162 323/3/162 319/3/162
f 321/3/162 325/3/162 319/3/162
f 326/3/3 325/3/3 321/3/3
f 322/3/3 326/3/3 321/3/3
f 324/3/163 326/3/163 322/3/163
f 320/3/163 324/3/163 322/3/163
f 327/3/1 328/3/1 324/3/1
f 323/3/1 327/3/1 324/3/1
f 329/3/164 327/3/164 323/3/164
f 325/3/164 329/3/164 323/3/164
f 330/3/3 329/3/3 325/3/3
f 326/3/3 330/3/3 325/3/3
f 328/3/165 330/3/165 326/3/165
f 324/3/165 328/3/165 326/3/165
f 331/3/1 332/3/1 328/3/1
f 327/3/1 331/3/1 328/3/1
f 333/3/137 331/3/137 327/3/137
f 329/3/137 333/3/137 327/3/137
f 334/3/3 333/3/3 329/3/3
f 330/3/3 334/3/3 329/3/3
f 332/3/166 334/3/166 330/3/166
f 328/3/166 332/3/166 330/3/166
f 335/3/1 336/3/1 332/3/1
f 331/3/1 335/3/1 332/3/1
f 337/3/167 335/3/167 331/3/167
f 333/3/167 337/3/167 331/3/167
f 338/3/3 337/3/3 333/3/3
f 334/3/3 338/3/3 333/3/3
f 336/3/168 338/3/168 334/3/168
f 332/3/168 336/3/168 334/3/168
f 132/3/19 130/3/19 129/3/19
f 134/3/19 132/3/19 129/3/19
f 335/3/37 337/3/37 336/3/37
f 337/3/37 338/3/37 336/3/37
f 339/2/1 340/2/1 341/2/1
f 342/2/1 339/2/1 341/2/1
f 343/2/95 339/2/95 342/2/95
f 344/2/95 343/2/95 342/2/95
f 345/2/3 343/2/3 344/2/3
f 346/2/3 345/2/3 344/2/3
f 340/2/169 345/2/169 346/2/169
f 341/2/169 340/2/169 346/2/169
f 344/2/170 342/2/170 341/2/170
f 346/2/170 344/2/170 341/2/170
f 339/2/171 343/2/171 340/2/171
f 343/2/171 345/2/171 340/2/171
f 347/2/1 348/2/1 349/2/1
f 350/2/1 347/2/1 349/2/1
f 351/2/172 347/2/172 350/2/172
f 352/2/172 351/2/172 350/2/172
f 353/2/3 351/2/3 352/2/3
f 354/2/3 353/2/3 352/2/3
f 348/2/132 353/2/132 354/2/132
f 349/2/132 348/2/132 354/2/132
f 352/2/173 350/2/173 349/2/173
f 354/2/173 352/2/173 349/2/173
f 347/2/174 351/2/174 348/2/174
f 351/2/174 353/2/174 348/2/174
f 355/2/1 356/2/1 357/2/1
f 358/2/1 355/2/1 357/2/1
f 359/2/175 355/2/175 358/2/175
f 360/2/175 359/2/175 358/2/175
f 361/2/3 359/2/3 360/2/3
f 362/2/3 361/2/3 360/2/3
f 356/2/176 361/2/176 362/2/176
f 357/2/176 356/2/176 362/2/176
f 360/2/177 358/2/177 357/2/177
f 362/2/177 360/2/177 357/2/177
f 355/2/178 359/2/178 356/2/178
f 359/2/178 361/2/178 356/2/178
f 363/2/1 364/2/1 365/2/1
f 366/2/1 363/2/1 365/2/1
f 367/2/179 363/2/179 366/2/179
f 368/2/179 367/2/179 366/2/179
f 369/2/3 367/2/3 368/2/3
f 370/2/3 369/2/3 368/2/3
f 364/2/108 369/2/108 370/2/108
f 365/2/108 364/2/108 370/2/108
f 368/2/180 366/2/180 365/2/180
f 370/2/180 368/2/180 365/2/180
f 363/2/37 367/2/37 364/2/37
f 367/2/37 369/2/37 364/2/37
