# CargoTrackLift1DownLeft - generated by Tools/generate_meshes.py, do not hand-edit
# Regenerate with: python Tools/generate_meshes.py
o CargoTrackLift1DownLeft
v 8.77093 -2.92000 3.82105
v 7.32726 -2.92000 -3.43676
v 10.00000 -0.42000 -3.70000
v 10.00000 -0.42000 3.70000
v 8.77093 -2.50000 3.82105
v 10.00000 0.00000 3.70000
v 7.32726 -2.50000 -3.43676
v 10.00000 0.00000 -3.70000
v 7.58909 -5.42000 4.17956
v 4.75724 -5.42000 -2.65715
v 7.58909 -5.00000 4.17956
v 4.75724 -5.00000 -2.65715
v 6.49991 -7.92000 4.76174
v 2.38869 -7.92000 -1.39113
v 6.49991 -7.50000 4.76174
v 2.38869 -7.50000 -1.39113
v 5.54523 -10.42000 5.54523
v 0.31264 -10.42000 0.31264
v 5.54523 -10.00000 5.54523
v 0.31264 -10.00000 0.31264
v 4.76174 -12.92000 6.49991
v -1.39113 -12.92000 2.38869
v 4.76174 -12.50000 6.49991
v -1.39113 -12.50000 2.38869
v 4.17956 -15.42000 7.58909
v -2.65715 -15.42000 4.75724
v 4.17956 -15.00000 7.58909
v -2.65715 -15.00000 4.75724
v 3.82105 -17.92000 8.77093
v -3.43676 -17.92000 7.32726
v 3.82105 -17.50000 8.77093
v -3.43676 -17.50000 7.32726
v 3.70000 -20.42000 10.00000
v -3.70000 -20.42000 10.00000
v 3.70000 -20.00000 10.00000
v -3.70000 -20.00000 10.00000
v 7.18094 -2.92000 -4.17235
v 10.00000 -0.42000 -4.45000
v 7.32726 -1.35000 -3.43676
v 10.00000 1.15000 -3.70000
v 7.18094 -1.35000 -4.17235
v 10.00000 1.15000 -4.45000
v 4.47022 -5.42000 -3.35006
v 4.75724 -3.85000 -2.65715
v 4.47022 -3.85000 -3.35006
v 1.97201 -7.92000 -2.01474
v 2.38869 -6.35000 -1.39113
v 1.97201 -6.35000 -2.01474
v -0.21769 -10.42000 -0.21769
v 0.31264 -8.85000 0.31264
v -0.21769 -8.85000 -0.21769
v -2.01474 -12.92000 1.97201
v -1.39113 -11.35000 2.38869
v -2.01474 -11.35000 1.97201
v -3.35006 -15.42000 4.47022
v -2.65715 -13.85000 4.75724
v -3.35006 -13.85000 4.47022
v -4.17235 -17.92000 7.18094
v -3.43676 -16.35000 7.32726
v -4.17235 -16.35000 7.18094
v -4.45000 -20.42000 10.00000
v -3.70000 -18.85000 10.00000
v -4.45000 -18.85000 10.00000
v 8.91725 -2.92000 4.55664
v 10.00000 -0.42000 4.45000
v 8.91725 -1.35000 4.55664
v 10.00000 1.15000 4.45000
v 8.77093 -1.35000 3.82105
v 10.00000 1.15000 3.70000
v 7.87611 -5.42000 4.87247
v 7.87611 -3.85000 4.87247
v 7.58909 -3.85000 4.17956
v 6.91659 -7.92000 5.38534
v 6.91659 -6.35000 5.38534
v 6.49991 -6.35000 4.76174
v 6.07556 -10.42000 6.07556
v 6.07556 -8.85000 6.07556
v 5.54523 -8.85000 5.54523
v 5.38534 -12.92000 6.91659
v 5.38534 -11.35000 6.91659
v 4.76174 -11.35000 6.49991
v 4.87247 -15.42000 7.87611
v 4.87247 -13.85000 7.87611
v 4.17956 -13.85000 7.58909
v 4.55664 -17.92000 8.91725
v 4.55664 -16.35000 8.91725
v 3.82105 -16.35000 8.77093
v 4.45000 -20.42000 10.00000
v 4.45000 -18.85000 10.00000
v 3.70000 -18.85000 10.00000
v 7.35653 -1.40000 -3.28964
v 7.15168 -1.40000 -4.31947
v 10.00000 1.10000 -4.60000
v 10.00000 1.10000 -3.55000
v 7.35653 -1.08000 -3.28964
v 10.00000 1.42000 -3.55000
v 7.15168 -1.08000 -4.31947
v 10.00000 1.42000 -4.60000
v 4.81464 -3.90000 -2.51857
v 4.41282 -3.90000 -3.48864
v 4.81464 -3.58000 -2.51857
v 4.41282 -3.58000 -3.48864
v 2.47202 -6.40000 -1.26641
v 1.88867 -6.40000 -2.13946
v 2.47202 -6.08000 -1.26641
v 1.88867 -6.08000 -2.13946
v 0.41870 -8.90000 0.41870
v -0.32376 -8.90000 -0.32376
v 0.41870 -8.58000 0.41870
v -0.32376 -8.58000 -0.32376
v -1.26641 -11.40000 2.47202
v -2.13946 -11.40000 1.88867
v -1.26641 -11.08000 2.47202
v -2.13946 -11.08000 1.88867
v -2.51857 -13.90000 4.81464
v -3.48864 -13.90000 4.41282
v -2.51857 -13.58000 4.81464
v -3.48864 -13.58000 4.41282
v -3.28964 -16.40000 7.35653
v -4.31947 -16.40000 7.15168
v -3.28964 -16.08000 7.35653
v -4.31947 -16.08000 7.15168
v -3.55000 -18.90000 10.00000
v -4.60000 -18.90000 10.00000
v -3.55000 -18.58000 10.00000
v -4.60000 -18.58000 10.00000
v 8.94651 -1.40000 4.70376
v 8.74167 -1.40000 3.67393
v 10.00000 1.10000 3.55000
v 10.00000 1.10000 4.60000
v 8.94651 -1.08000 4.70376
v 10.00000 1.42000 4.60000
v 8.74167 -1.08000 3.67393
v 10.00000 1.42000 3.55000
v 7.93351 -3.90000 5.01105
v 7.53169 -3.90000 4.04098
v 7.93351 -3.58000 5.01105
v 7.53169 -3.58000 4.04098
v 6.99992 -6.40000 5.51006
v 6.41657 -6.40000 4.63702
v 6.99992 -6.08000 5.51006
v 6.41657 -6.08000 4.63702
v 6.18162 -8.90000 6.18162
v 5.43916 -8.90000 5.43916
v 6.18162 -8.58000 6.18162
v 5.43916 -8.58000 5.43916
v 5.51006 -11.40000 6.99992
v 4.63702 -11.40000 6.41657
v 5.51006 -11.08000 6.99992
v 4.63702 -11.08000 6.41657
v 5.01105 -13.90000 7.93351
v 4.04098 -13.90000 7.53169
v 5.01105 -13.58000 7.93351
v 4.04098 -13.58000 7.53169
v 4.70376 -16.40000 8.94651
v 3.67393 -16.40000 8.74167
v 4.70376 -16.08000 8.94651
v 3.67393 -16.08000 8.74167
v 4.60000 -18.90000 10.00000
v 3.55000 -18.90000 10.00000
v 4.60000 -18.58000 10.00000
v 3.55000 -18.58000 10.00000
v 7.47429 -5.44000 3.90240
v 4.87204 -5.44000 -2.37999
v 7.38579 -2.94000 -3.14252
v 8.71240 -2.94000 3.52682
v 7.47429 -5.18000 3.90240
v 8.71240 -2.68000 3.52682
v 4.87204 -5.18000 -2.37999
v 7.38579 -2.68000 -3.14252
v 5.33310 -10.44000 5.33310
v 0.52477 -10.44000 0.52477
v 2.55536 -7.94000 -1.14169
v 6.33324 -7.94000 4.51230
v 5.33310 -10.18000 5.33310
v 6.33324 -7.68000 4.51230
v 0.52477 -10.18000 0.52477
v 2.55536 -7.68000 -1.14169
v 3.90240 -15.44000 7.47429
v -2.37999 -15.44000 4.87204
v -1.14169 -12.94000 2.55536
v 4.51230 -12.94000 6.33324
v 3.90240 -15.18000 7.47429
v 4.51230 -12.68000 6.33324
v -2.37999 -15.18000 4.87204
v -1.14169 -12.68000 2.55536
v 3.40000 -20.44000 10.00000
v -3.40000 -20.44000 10.00000
v -3.14252 -17.94000 7.38579
v 3.52682 -17.94000 8.71240
v 3.40000 -20.18000 10.00000
v 3.52682 -17.68000 8.71240
v -3.40000 -20.18000 10.00000
v -3.14252 -17.68000 7.38579
vt 0.07000 0.01000
vt 0.06000 0.01000
vt 0.02000 0.01000
vt 0.08000 0.01000
vn 0.66999 -0.73031 -0.13327
vn 0.89741 -0.44119 0.00000
vn 0.09802 0.00000 0.99518
vn 0.09802 0.00000 0.99518
vn -0.88017 0.44119 0.17508
vn -0.68311 0.73031 0.00000
vn -0.09802 0.00000 -0.99518
vn 0.63111 -0.73031 -0.26142
vn 0.88017 -0.44119 -0.17508
vn 0.29028 0.00000 0.95694
vn -0.82910 0.44119 0.34342
vn -0.66999 0.73031 0.13327
vn -0.29028 0.00000 -0.95694
vn 0.56799 -0.73031 -0.37952
vn 0.82910 -0.44119 -0.34342
vn 0.47140 0.00000 0.88192
vn -0.74617 0.44119 0.49858
vn -0.63111 0.73031 0.26142
vn -0.47140 0.00000 -0.88192
vn 0.48303 -0.73031 -0.48303
vn 0.74617 -0.44119 -0.49858
vn 0.63439 0.00000 0.77301
vn -0.63457 0.44119 0.63457
vn -0.56799 0.73031 0.37952
vn -0.63439 0.00000 -0.77301
vn 0.37952 -0.73031 -0.56799
vn 0.63457 -0.44119 -0.63457
vn 0.77301 0.00000 0.63439
vn -0.49858 0.44119 0.74617
vn -0.48303 0.73031 0.48303
vn -0.77301 0.00000 -0.63439
vn 0.26142 -0.73031 -0.63111
vn 0.49858 -0.44119 -0.74617
vn 0.88192 0.00000 0.47140
vn -0.34342 0.44119 0.82910
vn -0.37952 0.73031 0.56799
vn -0.88192 0.00000 -0.47140
vn 0.13327 -0.73031 -0.66999
vn 0.34342 -0.44119 -0.82910
vn 0.95694 0.00000 0.29028
vn 0.95694 0.00000 0.29028
vn -0.17508 0.44119 0.88017
vn -0.26142 0.73031 0.63111
vn -0.95694 0.00000 -0.29028
vn -0.95694 0.00000 -0.29028
vn -0.00000 -0.73031 -0.68311
vn 0.17508 -0.44119 -0.88017
vn 0.99518 0.00000 0.09802
vn -0.00000 0.44119 0.89741
vn -0.13327 0.73031 0.66999
vn -0.99518 0.00000 -0.09802
vn 1.00000 0.00000 0.00000
vn 0.00000 -0.00000 1.00000
vn 0.65075 -0.74818 -0.12944
vn 0.68311 -0.73031 0.00000
vn 0.09802 0.00000 0.99518
vn -0.66999 0.73031 0.13327
vn -0.66350 0.74818 0.00000
vn -0.09802 0.00000 -0.99518
vn 0.61299 -0.74818 -0.25391
vn 0.66999 -0.73031 -0.13327
vn 0.29028 0.00000 0.95694
vn -0.63111 0.73031 0.26142
vn -0.65075 0.74818 0.12944
vn -0.29028 0.00000 -0.95694
vn 0.55168 -0.74818 -0.36862
vn 0.63111 -0.73031 -0.26142
vn 0.47140 0.00000 0.88192
vn 0.47140 0.00000 0.88192
vn -0.56799 0.73031 0.37952
vn -0.61299 0.74818 0.25391
vn -0.47140 0.00000 -0.88192
vn 0.46917 -0.74818 -0.46917
vn 0.56799 -0.73031 -0.37952
vn 0.63439 0.00000 0.77301
vn -0.48303 0.73031 0.48303
vn -0.55168 0.74818 0.36862
vn 0.36862 -0.74818 -0.55168
vn 0.48303 -0.73031 -0.48303
vn 0.77301 0.00000 0.63439
vn -0.37952 0.73031 0.56799
vn -0.46917 0.74818 0.46917
vn 0.25391 -0.74818 -0.61299
vn 0.37952 -0.73031 -0.56799
vn 0.88192 0.00000 0.47140
vn -0.26142 0.73031 0.63111
vn -0.36862 0.74818 0.55168
vn -0.88192 0.00000 -0.47140
vn 0.12944 -0.74818 -0.65075
vn 0.26142 -0.73031 -0.63111
vn 0.95694 0.00000 0.29028
vn -0.13327 0.73031 0.66999
vn -0.25391 0.74818 0.61299
vn -0.00000 -0.74818 -0.66350
vn 0.13327 -0.73031 -0.66999
vn 0.99518 0.00000 0.09802
vn -0.00000 0.73031 0.68311
vn -0.12944 0.74818 0.65075
vn -0.99518 0.00000 -0.09802
vn 0.88017 -0.44119 -0.17508
vn 0.91763 -0.39743 0.00000
vn 0.09802 0.00000 0.99518
vn -0.90000 0.39743 0.17902
vn -0.89741 0.44119 0.00000
vn -0.09802 0.00000 -0.99518
vn 0.82910 -0.44119 -0.34342
vn 0.90000 -0.39743 -0.17902
vn 0.29028 0.00000 0.95694
vn -0.84778 0.39743 0.35116
vn -0.88017 0.44119 0.17508
vn -0.29028 0.00000 -0.95694
vn 0.74617 -0.44119 -0.49858
vn 0.84778 -0.39743 -0.35116
vn 0.47140 0.00000 0.88192
vn 0.47140 0.00000 0.88192
vn -0.76298 0.39743 0.50981
vn -0.82910 0.44119 0.34342
vn -0.47140 0.00000 -0.88192
vn -0.47140 0.00000 -0.88192
vn 0.63457 -0.44119 -0.63457
vn 0.76298 -0.39743 -0.50981
vn 0.63439 0.00000 0.77301
vn -0.64886 0.39743 0.64886
vn -0.74617 0.44119 0.49858
vn -0.63439 0.00000 -0.77301
vn 0.49858 -0.44119 -0.74617
vn 0.64886 -0.39743 -0.64886
vn 0.77301 0.00000 0.63439
vn -0.50981 0.39743 0.76298
vn -0.63457 0.44119 0.63457
vn -0.77301 0.00000 -0.63439
vn 0.34342 -0.44119 -0.82910
vn 0.50981 -0.39743 -0.76298
vn 0.88192 0.00000 0.47140
vn -0.35116 0.39743 0.84778
vn -0.49858 0.44119 0.74617
vn -0.88192 0.00000 -0.47140
vn 0.17508 -0.44119 -0.88017
vn 0.35116 -0.39743 -0.84778
vn 0.95694 0.00000 0.29028
vn -0.17902 0.39743 0.90000
vn -0.34342 0.44119 0.82910
vn -0.95694 0.00000 -0.29028
vn -0.00000 -0.44119 -0.89741
vn 0.17902 -0.39743 -0.90000
vn 0.99518 0.00000 0.09802
vn -0.00000 0.39743 0.91763
vn -0.17508 0.44119 0.88017
vn -0.99518 0.00000 -0.09802
vn 0.64698 -0.75157 -0.12869
vn 0.68712 -0.72655 0.00000
vn -0.67391 0.72655 0.13405
vn -0.65966 0.75157 0.00000
vn -0.09802 0.00000 -0.99518
vn 0.60944 -0.75157 -0.25244
vn 0.67391 -0.72655 -0.13405
vn 0.29028 0.00000 0.95694
vn -0.63481 0.72655 0.26295
vn -0.64698 0.75157 0.12869
vn -0.29028 0.00000 -0.95694
vn 0.54849 -0.75157 -0.36649
vn 0.63481 -0.72655 -0.26295
vn 0.47140 0.00000 0.88192
vn 0.47140 0.00000 0.88192
vn -0.57132 0.72655 0.38174
vn -0.60944 0.75157 0.25244
vn -0.47140 0.00000 -0.88192
vn -0.47140 0.00000 -0.88192
vn 0.46645 -0.75157 -0.46645
vn 0.57132 -0.72655 -0.38174
vn 0.63439 0.00000 0.77301
vn -0.48586 0.72655 0.48586
vn -0.54849 0.75157 0.36649
vn -0.63439 0.00000 -0.77301
vn 0.36649 -0.75157 -0.54849
vn 0.48586 -0.72655 -0.48586
vn -0.38174 0.72655 0.57132
vn -0.46645 0.75157 0.46645
vn -0.77301 0.00000 -0.63439
vn 0.25244 -0.75157 -0.60944
vn 0.38174 -0.72655 -0.57132
vn 0.88192 0.00000 0.47140
vn -0.26295 0.72655 0.63481
vn -0.36649 0.75157 0.54849
vn -0.88192 0.00000 -0.47140
vn 0.12869 -0.75157 -0.64698
vn 0.26295 -0.72655 -0.63481
vn 0.95694 0.00000 0.29028
vn -0.13405 0.72655 0.67391
vn -0.25244 0.75157 0.60944
vn -0.95694 0.00000 -0.29028
vn -0.00000 -0.75157 -0.65966
vn 0.13405 -0.72655 -0.67391
vn 0.99518 0.00000 0.09802
vn -0.00000 0.72655 0.68712
vn -0.12869 0.75157 0.64698
vn -0.99518 0.00000 -0.09802
vn 0.87607 -0.44959 -0.17426
vn 0.92152 -0.38833 0.00000
vn 0.09802 0.00000 0.99518
vn -0.90382 0.38833 0.17978
vn -0.89323 0.44959 0.00000
vn -0.09802 0.00000 -0.99518
vn 0.82524 -0.44959 -0.34183
vn 0.90382 -0.38833 -0.17978
vn 0.29028 0.00000 0.95694
vn -0.85138 0.38833 0.35265
vn -0.87607 0.44959 0.17426
vn -0.29028 0.00000 -0.95694
vn 0.74270 -0.44959 -0.49625
vn 0.85138 -0.38833 -0.35265
vn 0.47140 0.00000 0.88192
vn 0.47140 0.00000 0.88192
vn -0.76622 0.38833 0.51197
vn -0.82524 0.44959 0.34183
vn -0.47140 0.00000 -0.88192
vn 0.63161 -0.44959 -0.63161
vn 0.76622 -0.38833 -0.51197
vn 0.63439 0.00000 0.77301
vn -0.65161 0.38833 0.65161
vn -0.74270 0.44959 0.49625
vn -0.63439 0.00000 -0.77301
vn 0.49625 -0.44959 -0.74270
vn 0.65161 -0.38833 -0.65161
vn 0.77301 0.00000 0.63439
vn -0.51197 0.38833 0.76622
vn -0.63161 0.44959 0.63161
vn -0.77301 0.00000 -0.63439
vn 0.34183 -0.44959 -0.82524
vn 0.51197 -0.38833 -0.76622
vn 0.88192 0.00000 0.47140
vn -0.35265 0.38833 0.85138
vn -0.49625 0.44959 0.74270
vn -0.88192 0.00000 -0.47140
vn 0.17426 -0.44959 -0.87607
vn 0.35265 -0.38833 -0.85138
vn 0.95694 0.00000 0.29028
vn -0.17978 0.38833 0.90382
vn -0.34183 0.44959 0.82524
vn -0.95694 0.00000 -0.29028
vn -0.00000 -0.44959 -0.89323
vn 0.17978 -0.38833 -0.90382
vn 0.99518 0.00000 0.09802
vn -0.00000 0.38833 0.92152
vn -0.17426 0.44959 0.87607
vn 0.63853 -0.72272 -0.26449
vn 0.87193 -0.45788 -0.17344
vn 0.29028 0.00000 0.95694
vn 0.29028 0.00000 0.95694
vn -0.82134 0.45788 0.34021
vn -0.67786 0.72272 0.13484
vn -0.29028 0.00000 -0.95694
vn 0.98079 0.00000 -0.19509
vn -0.92388 0.00000 0.38268
vn 0.48871 -0.72272 -0.48871
vn 0.73919 -0.45788 -0.49391
vn 0.63439 0.00000 0.77301
vn -0.62863 0.45788 0.62863
vn -0.57466 0.72272 0.38398
vn 0.83147 0.00000 -0.55557
vn -0.70711 0.00000 0.70711
vn 0.26449 -0.72272 -0.63853
vn 0.49391 -0.45788 -0.73919
vn 0.88192 0.00000 0.47140
vn -0.34021 0.45788 0.82134
vn -0.38398 0.72272 0.57466
vn -0.88192 0.00000 -0.47140
vn 0.55557 0.00000 -0.83147
vn -0.38268 0.00000 0.92388
vn -0.00000 -0.72272 -0.69114
vn 0.17344 -0.45788 -0.87193
vn 0.99518 0.00000 0.09802
vn -0.00000 0.45788 0.88902
vn -0.13484 0.72272 0.67786
vn -0.99518 0.00000 -0.09802
vn 0.19509 0.00000 -0.98079
f 1/1/1 2/1/1 3/1/1
f 4/1/2 1/1/2 3/1/2
f 5/1/3 1/1/3 4/1/3
f 6/1/4 5/1/4 4/1/4
f 7/1/5 5/1/5 6/1/5
f 8/1/6 7/1/6 6/1/6
f 2/1/7 7/1/7 8/1/7
f 3/1/7 2/1/7 8/1/7
f 9/1/8 10/1/8 2/1/8
f 1/1/9 9/1/9 2/1/9
f 11/1/10 9/1/10 1/1/10
f 5/1/10 11/1/10 1/1/10
f 12/1/11 11/1/11 5/1/11
f 7/1/12 12/1/12 5/1/12
f 10/1/13 12/1/13 7/1/13
f 2/1/13 10/1/13 7/1/13
f 13/1/14 14/1/14 10/1/14
f 9/1/15 13/1/15 10/1/15
f 15/1/16 13/1/16 9/1/16
f 11/1/16 15/1/16 9/1/16
f 16/1/17 15/1/17 11/1/17
f 12/1/18 16/1/18 11/1/18
f 14/1/19 16/1/19 12/1/19
f 10/1/19 14/1/19 12/1/19
f 17/1/20 18/1/20 14/1/20
f 13/1/21 17/1/21 14/1/21
f 19/1/22 17/1/22 13/1/22
f 15/1/22 19/1/22 13/1/22
f 20/1/23 19/1/23 15/1/23
f 16/1/24 20/1/24 15/1/24
f 18/1/25 20/1/25 16/1/25
f 14/1/25 18/1/25 16/1/25
f 21/1/26 22/1/26 18/1/26
f 17/1/27 21/1/27 18/1/27
f 23/1/28 21/1/28 17/1/28
f 19/1/28 23/1/28 17/1/28
f 24/1/29 23/1/29 19/1/29
f 20/1/30 24/1/30 19/1/30
f 22/1/31 24/1/31 20/1/31
f 18/1/31 22/1/31 20/1/31
f 25/1/32 26/1/32 22/1/32
f 21/1/33 25/1/33 22/1/33
f 27/1/34 25/1/34 21/1/34
f 23/1/34 27/1/34 21/1/34
f 28/1/35 27/1/35 23/1/35
f 24/1/36 28/1/36 23/1/36
f 26/1/37 28/1/37 24/1/37
f 22/1/37 26/1/37 24/1/37
f 29/1/38 30/1/38 26/1/38
f 25/1/39 29/1/39 26/1/39
f 31/1/40 29/1/40 25/1/40
f 27/1/41 31/1/41 25/1/41
f 32/1/42 31/1/42 27/1/42
f 28/1/43 32/1/43 27/1/43
f 30/1/44 32/1/44 28/1/44
f 26/1/45 30/1/45 28/1/45
f 33/1/46 34/1/46 30/1/46
f 29/1/47 33/1/47 30/1/47
f 35/1/48 33/1/48 29/1/48
f 31/1/48 35/1/48 29/1/48
f 36/1/49 35/1/49 31/1/49
f 32/1/50 36/1/50 31/1/50
f 34/1/51 36/1/51 32/1/51
f 30/1/51 34/1/51 32/1/51
f 6/1/52 4/1/52 3/1/52
f 8/1/52 6/1/52 3/1/52
f 33/1/53 35/1/53 34/1/53
f 35/1/53 36/1/53 34/1/53
f 2/2/54 37/2/54 38/2/54
f 3/2/55 2/2/55 38/2/55
f 39/2/56 2/2/56 3/2/56
f 40/2/56 39/2/56 3/2/56
f 41/2/57 39/2/57 40/2/57
f 42/2/58 41/2/58 40/2/58
f 37/2/59 41/2/59 42/2/59
f 38/2/59 37/2/59 42/2/59
f 10/2/60 43/2/60 37/2/60
f 2/2/61 10/2/61 37/2/61
f 44/2/62 10/2/62 2/2/62
f 39/2/62 44/2/62 2/2/62
f 45/2/63 44/2/63 39/2/63
f 41/2/64 45/2/64 39/2/64
f 43/2/65 45/2/65 41/2/65
f 37/2/65 43/2/65 41/2/65
f 14/2/66 46/2/66 43/2/66
f 10/2/67 14/2/67 43/2/67
f 47/2/68 14/2/68 10/2/68
f 44/2/69 47/2/69 10/2/69
f 48/2/70 47/2/70 44/2/70
f 45/2/71 48/2/71 44/2/71
f 46/2/72 48/2/72 45/2/72
f 43/2/72 46/2/72 45/2/72
f 18/2/73 49/2/73 46/2/73
f 14/2/74 18/2/74 46/2/74
f 50/2/75 18/2/75 14/2/75
f 47/2/75 50/2/75 14/2/75
f 51/2/76 50/2/76 47/2/76
f 48/2/77 51/2/77 47/2/77
f 49/2/25 51/2/25 48/2/25
f 46/2/25 49/2/25 48/2/25
f 22/2/78 52/2/78 49/2/78
f 18/2/79 22/2/79 49/2/79
f 53/2/80 22/2/80 18/2/80
f 50/2/80 53/2/80 18/2/80
f 54/2/81 53/2/81 50/2/81
f 51/2/82 54/2/82 50/2/82
f 52/2/31 54/2/31 51/2/31
f 49/2/31 52/2/31 51/2/31
f 26/2/83 55/2/83 52/2/83
f 22/2/84 26/2/84 52/2/84
f 56/2/85 26/2/85 22/2/85
f 53/2/85 56/2/85 22/2/85
f 57/2/86 56/2/86 53/2/86
f 54/2/87 57/2/87 53/2/87
f 55/2/88 57/2/88 54/2/88
f 52/2/88 55/2/88 54/2/88
f 30/2/89 58/2/89 55/2/89
f 26/2/90 30/2/90 55/2/90
f 59/2/91 30/2/91 26/2/91
f 56/2/91 59/2/91 26/2/91
f 60/2/92 59/2/92 56/2/92
f 57/2/93 60/2/93 56/2/93
f 58/2/45 60/2/45 57/2/45
f 55/2/45 58/2/45 57/2/45
f 34/2/94 61/2/94 58/2/94
f 30/2/95 34/2/95 58/2/95
f 62/2/96 34/2/96 30/2/96
f 59/2/96 62/2/96 30/2/96
f 63/2/97 62/2/97 59/2/97
f 60/2/98 63/2/98 59/2/98
f 61/2/99 63/2/99 60/2/99
f 58/2/99 61/2/99 60/2/99
f 40/2/52 3/2/52 38/2/52
f 42/2/52 40/2/52 38/2/52
f 34/2/53 62/2/53 61/2/53
f 62/2/53 63/2/53 61/2/53
f 64/2/100 1/2/100 4/2/100
f 65/2/101 64/2/101 4/2/101
f 66/2/102 64/2/102 65/2/102
f 67/2/102 66/2/102 65/2/102
f 68/2/103 66/2/103 67/2/103
f 69/2/104 68/2/104 67/2/104
f 1/2/105 68/2/105 69/2/105
f 4/2/105 1/2/105 69/2/105
f 70/2/106 9/2/106 1/2/106
f 64/2/107 70/2/107 1/2/107
f 71/2/108 70/2/108 64/2/108
f 66/2/108 71/2/108 64/2/108
f 72/2/109 71/2/109 66/2/109
f 68/2/110 72/2/110 66/2/110
f 9/2/111 72/2/111 68/2/111
f 1/2/111 9/2/111 68/2/111
f 73/2/112 13/2/112 9/2/112
f 70/2/113 73/2/113 9/2/113
f 74/2/114 73/2/114 70/2/114
f 71/2/115 74/2/115 70/2/115
f 75/2/116 74/2/116 71/2/116
f 72/2/117 75/2/117 71/2/117
f 13/2/118 75/2/118 72/2/118
f 9/2/119 13/2/119 72/2/119
f 76/2/120 17/2/120 13/2/120
f 73/2/121 76/2/121 13/2/121
f 77/2/122 76/2/122 73/2/122
f 74/2/122 77/2/122 73/2/122
f 78/2/123 77/2/123 74/2/123
f 75/2/124 78/2/124 74/2/124
f 17/2/125 78/2/125 75/2/125
f 13/2/125 17/2/125 75/2/125
f 79/2/126 21/2/126 17/2/126
f 76/2/127 79/2/127 17/2/127
f 80/2/128 79/2/128 76/2/128
f 77/2/128 80/2/128 76/2/128
f 81/2/129 80/2/129 77/2/129
f 78/2/130 81/2/130 77/2/130
f 21/2/131 81/2/131 78/2/131
f 17/2/131 21/2/131 78/2/131
f 82/2/132 25/2/132 21/2/132
f 79/2/133 82/2/133 21/2/133
f 83/2/134 82/2/134 79/2/134
f 80/2/134 83/2/134 79/2/134
f 84/2/135 83/2/135 80/2/135
f 81/2/136 84/2/136 80/2/136
f 25/2/137 84/2/137 81/2/137
f 21/2/137 25/2/137 81/2/137
f 85/2/138 29/2/138 25/2/138
f 82/2/139 85/2/139 25/2/139
f 86/2/140 85/2/140 82/2/140
f 83/2/140 86/2/140 82/2/140
f 87/2/141 86/2/141 83/2/141
f 84/2/142 87/2/142 83/2/142
f 29/2/143 87/2/143 84/2/143
f 25/2/143 29/2/143 84/2/143
f 88/2/144 33/2/144 29/2/144
f 85/2/145 88/2/145 29/2/145
f 89/2/146 88/2/146 85/2/146
f 86/2/146 89/2/146 85/2/146
f 90/2/147 89/2/147 86/2/147
f 87/2/148 90/2/148 86/2/148
f 33/2/149 90/2/149 87/2/149
f 29/2/149 33/2/149 87/2/149
f 67/2/52 65/2/52 4/2/52
f 69/2/52 67/2/52 4/2/52
f 88/2/53 89/2/53 33/2/53
f 89/2/53 90/2/53 33/2/53
f 91/3/150 92/3/150 93/3/150
f 94/3/151 91/3/151 93/3/151
f 95/3/56 91/3/56 94/3/56
f 96/3/56 95/3/56 94/3/56
f 97/3/152 95/3/152 96/3/152
f 98/3/153 97/3/153 96/3/153
f 92/3/154 97/3/154 98/3/154
f 93/3/154 92/3/154 98/3/154
f 99/3/155 100/3/155 92/3/155
f 91/3/156 99/3/156 92/3/156
f 101/3/157 99/3/157 91/3/157
f 95/3/157 101/3/157 91/3/157
f 102/3/158 101/3/158 95/3/158
f 97/3/159 102/3/159 95/3/159
f 100/3/160 102/3/160 97/3/160
f 92/3/160 100/3/160 97/3/160
f 103/3/161 104/3/161 100/3/161
f 99/3/162 103/3/162 100/3/162
f 105/3/163 103/3/163 99/3/163
f 101/3/164 105/3/164 99/3/164
f 106/3/165 105/3/165 101/3/165
f 102/3/166 106/3/166 101/3/166
f 104/3/167 106/3/167 102/3/167
f 100/3/168 104/3/168 102/3/168
f 107/3/169 108/3/169 104/3/169
f 103/3/170 107/3/170 104/3/170
f 109/3/171 107/3/171 103/3/171
f 105/3/171 109/3/171 103/3/171
f 110/3/172 109/3/172 105/3/172
f 106/3/173 110/3/173 105/3/173
f 108/3/174 110/3/174 106/3/174
f 104/3/174 108/3/174 106/3/174
f 111/3/175 112/3/175 108/3/175
f 107/3/176 111/3/176 108/3/176
f 113/3/80 111/3/80 107/3/80
f 109/3/80 113/3/80 107/3/80
f 114/3/177 113/3/177 109/3/177
f 110/3/178 114/3/178 109/3/178
f 112/3/179 114/3/179 110/3/179
f 108/3/179 112/3/179 110/3/179
f 115/3/180 116/3/180 112/3/180
f 111/3/181 115/3/181 112/3/181
f 117/3/182 115/3/182 111/3/182
f 113/3/182 117/3/182 111/3/182
f 118/3/183 117/3/183 113/3/183
f 114/3/184 118/3/184 113/3/184
f 116/3/185 118/3/185 114/3/185
f 112/3/185 116/3/185 114/3/185
f 119/3/186 120/3/186 116/3/186
f 115/3/187 119/3/187 116/3/187
f 121/3/188 119/3/188 115/3/188
f 117/3/188 121/3/188 115/3/188
f 122/3/189 121/3/189 117/3/189
f 118/3/190 122/3/190 117/3/190
f 120/3/191 122/3/191 118/3/191
f 116/3/191 120/3/191 118/3/191
f 123/3/192 124/3/192 120/3/192
f 119/3/193 123/3/193 120/3/193
f 125/3/194 123/3/194 119/3/194
f 121/3/194 125/3/194 119/3/194
f 126/3/195 125/3/195 121/3/195
f 122/3/196 126/3/196 121/3/196
f 124/3/197 126/3/197 122/3/197
f 120/3/197 124/3/197 122/3/197
f 96/3/52 94/3/52 93/3/52
f 98/3/52 96/3/52 93/3/52
f 123/3/53 125/3/53 124/3/53
f 125/3/53 126/3/53 124/3/53
f 127/3/198 128/3/198 129/3/198
f 130/3/199 127/3/199 129/3/199
f 131/3/200 127/3/200 130/3/200
f 132/3/200 131/3/200 130/3/200
f 133/3/201 131/3/201 132/3/201
f 134/3/202 133/3/202 132/3/202
f 128/3/203 133/3/203 134/3/203
f 129/3/203 128/3/203 134/3/203
f 135/3/204 136/3/204 128/3/204
f 127/3/205 135/3/205 128/3/205
f 137/3/206 135/3/206 127/3/206
f 131/3/206 137/3/206 127/3/206
f 138/3/207 137/3/207 131/3/207
f 133/3/208 138/3/208 131/3/208
f 136/3/209 138/3/209 133/3/209
f 128/3/209 136/3/209 133/3/209
f 139/3/210 140/3/210 136/3/210
f 135/3/211 139/3/211 136/3/211
f 141/3/212 139/3/212 135/3/212
f 137/3/213 141/3/213 135/3/213
f 142/3/214 141/3/214 137/3/214
f 138/3/215 142/3/215 137/3/215
f 140/3/72 142/3/72 138/3/72
f 136/3/216 140/3/216 138/3/216
f 143/3/217 144/3/217 140/3/217
f 139/3/218 143/3/218 140/3/218
f 145/3/219 143/3/219 139/3/219
f 141/3/219 145/3/219 139/3/219
f 146/3/220 145/3/220 141/3/220
f 142/3/221 146/3/221 141/3/221
f 144/3/222 146/3/222 142/3/222
f 140/3/222 144/3/222 142/3/222
f 147/3/223 148/3/223 144/3/223
f 143/3/224 147/3/224 144/3/224
f 149/3/225 147/3/225 143/3/225
f 145/3/225 149/3/225 143/3/225
f 150/3/226 149/3/226 145/3/226
f 146/3/227 150/3/227 145/3/227
f 148/3/228 150/3/228 146/3/228
f 144/3/228 148/3/228 146/3/228
f 151/3/229 152/3/229 148/3/229
f 147/3/230 151/3/230 148/3/230
f 153/3/231 151/3/231 147/3/231
f 149/3/231 153/3/231 147/3/231
f 154/3/232 153/3/232 149/3/232
f 150/3/233 154/3/233 149/3/233
f 152/3/234 154/3/234 150/3/234
f 148/3/234 152/3/234 150/3/234
f 155/3/235 156/3/235 152/3/235
f 151/3/236 155/3/236 152/3/236
f 157/3/237 155/3/237 151/3/237
f 153/3/237 157/3/237 151/3/237
f 158/3/238 157/3/238 153/3/238
f 154/3/239 158/3/239 153/3/239
f 156/3/240 158/3/240 154/3/240
f 152/3/240 156/3/240 154/3/240
f 159/3/241 160/3/241 156/3/241
f 155/3/242 159/3/242 156/3/242
f 161/3/243 159/3/243 155/3/243
f 157/3/243 161/3/243 155/3/243
f 162/3/244 161/3/244 157/3/244
f 158/3/245 162/3/245 157/3/245
f 160/3/51 162/3/51 158/3/51
f 156/3/51 160/3/51 158/3/51
f 132/3/52 130/3/52 129/3/52
f 134/3/52 132/3/52 129/3/52
f 159/3/53 161/3/53 160/3/53
f 161/3/53 162/3/53 160/3/53
f 163/4/246 164/4/246 165/4/246
f 166/4/247 163/4/247 165/4/247
f 167/4/248 163/4/248 166/4/248
f 168/4/249 167/4/249 166/4/249
f 169/4/250 167/4/250 168/4/250
f 170/4/251 169/4/251 168/4/251
f 164/4/252 169/4/252 170/4/252
f 165/4/111 164/4/111 170/4/111
f 168/4/253 166/4/253 165/4/253
f 170/4/253 168/4/253 165/4/253
f 163/4/254 167/4/254 164/4/254
f 167/4/254 169/4/254 164/4/254
f 171/4/255 172/4/255 173/4/255
f 174/4/256 171/4/256 173/4/256
f 175/4/257 171/4/257 174/4/257
f 176/4/257 175/4/257 174/4/257
f 177/4/258 175/4/258 176/4/258
f 178/4/259 177/4/259 176/4/259
f 172/4/174 177/4/174 178/4/174
f 173/4/174 172/4/174 178/4/174
f 176/4/260 174/4/260 173/4/260
f 178/4/260 176/4/260 173/4/260
f 171/4/261 175/4/261 172/4/261
f 175/4/261 177/4/261 172/4/261
f 179/4/262 180/4/262 181/4/262
f 182/4/263 179/4/263 181/4/263
f 183/4/264 179/4/264 182/4/264
f 184/4/264 183/4/264 182/4/264
f 185/4/265 183/4/265 184/4/265
f 186/4/266 185/4/266 184/4/266
f 180/4/267 185/4/267 186/4/267
f 181/4/267 180/4/267 186/4/267
f 184/4/268 182/4/268 181/4/268
f 186/4/268 184/4/268 181/4/268
f 179/4/269 183/4/269 180/4/269
f 183/4/269 185/4/269 180/4/269
f 187/4/270 188/4/270 189/4/270
f 190/4/271 187/4/271 189/4/271
f 191/4/272 187/4/272 190/4/272
f 192/4/272 191/4/272 190/4/272
f 193/4/273 191/4/273 192/4/273
f 194/4/274 193/4/274 192/4/274
f 188/4/275 193/4/275 194/4/275
f 189/4/275 188/4/275 194/4/275
f 192/4/276 190/4/276 189/4/276
f 194/4/276 192/4/276 189/4/276
f 187/4/53 191/4/53 188/4/53
f 191/4/53 193/4/53 188/4/53
