# CargoTrackLift2UpRight - generated by Tools/generate_meshes.py, do not hand-edit
# Regenerate with: python Tools/generate_meshes.py
o CargoTrackLift2UpRight
v 7.32726 4.58000 3.43676
v 8.77093 4.58000 -3.82105
v 10.00000 -0.42000 -3.70000
v 10.00000 -0.42000 3.70000
v 7.32726 5.00000 3.43676
v 10.00000 0.00000 3.70000
v 8.77093 5.00000 -3.82105
v 10.00000 0.00000 -3.70000
v 4.75724 9.58000 2.65715
v 7.58909 9.58000 -4.17956
v 4.75724 10.00000 2.65715
v 7.58909 10.00000 -4.17956
v 2.38869 14.58000 1.39113
v 6.49991 14.58000 -4.76174
v 2.38869 15.00000 1.39113
v 6.49991 15.00000 -4.76174
v 0.31264 19.58000 -0.31264
v 5.54523 19.58000 -5.54523
v 0.31264 20.00000 -0.31264
v 5.54523 20.00000 -5.54523
v -1.39113 24.58000 -2.38869
v 4.76174 24.58000 -6.49991
v -1.39113 25.00000 -2.38869
v 4.76174 25.00000 -6.49991
v -2.65715 29.58000 -4.75724
v 4.17956 29.58000 -7.58909
v -2.65715 30.00000 -4.75724
v 4.17956 30.00000 -7.58909
v -3.43676 34.58000 -7.32726
v 3.82105 34.58000 -8.77093
v -3.43676 35.00000 -7.32726
v 3.82105 35.00000 -8.77093
v -3.70000 39.58000 -10.00000
v 3.70000 39.58000 -10.00000
v -3.70000 40.00000 -10.00000
v 3.70000 40.00000 -10.00000
v 8.91725 4.58000 -4.55664
v 10.00000 -0.42000 -4.45000
v 8.77093 6.15000 -3.82105
v 10.00000 1.15000 -3.70000
v 8.91725 6.15000 -4.55664
v 10.00000 1.15000 -4.45000
v 7.87611 9.58000 -4.87247
v 7.58909 11.15000 -4.17956
v 7.87611 11.15000 -4.87247
v 6.91659 14.58000 -5.38534
v 6.49991 16.15000 -4.76174
v 6.91659 16.15000 -5.38534
v 6.07556 19.58000 -6.07556
v 5.54523 21.15000 -5.54523
v 6.07556 21.15000 -6.07556
v 5.38534 24.58000 -6.91659
v 4.76174 26.15000 -6.49991
v 5.38534 26.15000 -6.91659
v 4.87247 29.58000 -7.87611
v 4.17956 31.15000 -7.58909
v 4.87247 31.15000 -7.87611
v 4.55664 34.58000 -8.91725
v 3.82105 36.15000 -8.77093
v 4.55664 36.15000 -8.91725
v 4.45000 39.58000 -10.00000
v 3.70000 41.15000 -10.00000
v 4.45000 41.15000 -10.00000
v 7.18094 4.58000 4.17235
v 10.00000 -0.42000 4.45000
v 7.18094 6.15000 4.17235
v 10.00000 1.15000 4.45000
v 7.32726 6.15000 3.43676
v 10.00000 1.15000 3.70000
v 4.47022 9.58000 3.35006
v 4.47022 11.15000 3.35006
v 4.75724 11.15000 2.65715
v 1.97201 14.58000 2.01474
v 1.97201 16.15000 2.01474
v 2.38869 16.15000 1.39113
v -0.21769 19.58000 0.21769
v -0.21769 21.15000 0.21769
v 0.31264 21.15000 -0.31264
v -2.01474 24.58000 -1.97201
v -2.01474 26.15000 -1.97201
v -1.39113 26.15000 -2.38869
v -3.35006 29.58000 -4.47022
v -3.35006 31.15000 -4.47022
v -2.65715 31.15000 -4.75724
v -4.17235 34.58000 -7.18094
v -4.17235 36.15000 -7.18094
v -3.43676 36.15000 -7.32726
v -4.45000 39.58000 -10.00000
v -4.45000 41.15000 -10.00000
v -3.70000 41.15000 -10.00000
v 8.74167 6.10000 -3.67393
v 8.94651 6.10000 -4.70376
v 10.00000 1.10000 -4.60000
v 10.00000 1.10000 -3.55000
v 8.74167 6.42000 -3.67393
v 10.00000 1.42000 -3.55000
v 8.94651 6.42000 -4.70376
v 10.00000 1.42000 -4.60000
v 7.53169 11.10000 -4.04098
v 7.93351 11.10000 -5.01105
v 7.53169 11.42000 -4.04098
v 7.93351 11.42000 -5.01105
v 6.41657 16.10000 -4.63702
v 6.99992 16.10000 -5.51006
v 6.41657 16.42000 -4.63702
v 6.99992 16.42000 -5.51006
v 5.43916 21.10000 -5.43916
v 6.18162 21.10000 -6.18162
v 5.43916 21.42000 -5.43916
v 6.18162 21.42000 -6.18162
v 4.63702 26.10000 -6.41657
v 5.51006 26.10000 -6.99992
v 4.63702 26.42000 -6.41657
v 5.51006 26.42000 -6.99992
v 4.04098 31.10000 -7.53169
v 5.01105 31.10000 -7.93351
v 4.04098 31.42000 -7.53169
v 5.01105 31.42000 -7.93351
v 3.67393 36.10000 -8.74167
v 4.70376 36.10000 -8.94651
v 3.67393 36.42000 -8.74167
v 4.70376 36.42000 -8.94651
v 3.55000 41.10000 -10.00000
v 4.60000 41.10000 -10.00000
v 3.55000 41.42000 -10.00000
v 4.60000 41.42000 -10.00000
v 7.15168 6.10000 4.31947
v 7.35653 6.10000 3.28964
v 10.00000 1.10000 3.55000
v 10.00000 1.10000 4.60000
v 7.15168 6.42000 4.31947
v 10.00000 1.42000 4.60000
v 7.35653 6.42000 3.28964
v 10.00000 1.42000 3.55000
v 4.41282 11.10000 3.48864
v 4.81464 11.10000 2.51857
v 4.41282 11.42000 3.48864
v 4.81464 11.42000 2.51857
v 1.88867 16.10000 2.13946
v 2.47202 16.10000 1.26641
v 1.88867 16.42000 2.13946
v 2.47202 16.42000 1.26641
v -0.32376 21.10000 0.32376
v 0.41870 21.10000 -0.41870
v -0.32376 21.42000 0.32376
v 0.41870 21.42000 -0.41870
v -2.13946 26.10000 -1.88867
v -1.26641 26.10000 -2.47202
v -2.13946 26.42000 -1.88867
v -1.26641 26.42000 -2.47202
v -3.48864 31.10000 -4.41282
v -2.51857 31.10000 -4.81464
v -3.48864 31.42000 -4.41282
v -2.51857 31.42000 -4.81464
v -4.31947 36.10000 -7.15168
v -3.28964 36.10000 -7.35653
v -4.31947 36.42000 -7.15168
v -3.28964 36.42000 -7.35653
v -4.60000 41.10000 -10.00000
v -3.55000 41.10000 -10.00000
v -4.60000 41.42000 -10.00000
v -3.55000 41.42000 -10.00000
v 4.87204 9.56000 2.37999
v 7.47429 9.56000 -3.90240
v 8.71240 4.56000 -3.52682
v 7.38579 4.56000 3.14252
v 4.87204 9.82000 2.37999
v 7.38579 4.82000 3.14252
v 7.47429 9.82000 -3.90240
v 8.71240 4.82000 -3.52682
v 0.52477 19.56000 -0.52477
v 5.33310 19.56000 -5.33310
v 6.33324 14.56000 -4.51230
v 2.55536 14.56000 1.14169
v 0.52477 19.82000 -0.52477
v 2.55536 14.82000 1.14169
v 5.33310 19.82000 -5.33310
v 6.33324 14.82000 -4.51230
v -2.37999 29.56000 -4.87204
v 3.90240 29.56000 -7.47429
v 4.51230 24.56000 -6.33324
v -1.14169 24.56000 -2.55536
v -2.37999 29.82000 -4.87204
v -1.14169 24.82000 -2.55536
v 3.90240 29.82000 -7.47429
v 4.51230 24.82000 -6.33324
v -3.40000 39.56000 -10.00000
v 3.40000 39.56000 -10.00000
v 3.52682 34.56000 -8.71240
v -3.14252 34.56000 -7.38579
v -3.40000 39.82000 -10.00000
v -3.14252 34.82000 -7.38579
v 3.40000 39.82000 -10.00000
v 3.52682 34.82000 -8.71240
vt 0.07000 0.01000
vt 0.06000 0.01000
vt 0.02000 0.01000
vt 0.08000 0.01000
vn -0.95243 -0.23871 -0.18945
vn -0.88191 -0.47142 -0.00000
vn -0.09802 0.00000 0.99518
vn 0.86496 0.47142 0.17205
vn 0.97109 0.23871 -0.00000
vn 0.09802 0.00000 -0.99518
vn 0.09802 0.00000 -0.99518
vn -0.89717 -0.23871 -0.37162
vn -0.86496 -0.47142 -0.17205
vn -0.29028 0.00000 0.95694
vn 0.81478 0.47142 0.33749
vn 0.95243 0.23871 0.18945
vn 0.29028 0.00000 -0.95694
vn -0.80743 -0.23871 -0.53951
vn -0.81478 -0.47142 -0.33749
vn -0.47140 0.00000 0.88192
vn 0.73328 0.47142 0.48996
vn 0.89717 0.23871 0.37162
vn 0.47140 0.00000 -0.88192
vn -0.68667 -0.23871 -0.68667
vn -0.73328 -0.47142 -0.48996
vn -0.63439 0.00000 0.77301
vn 0.62360 0.47142 0.62360
vn 0.80743 0.23871 0.53951
vn 0.63439 0.00000 -0.77301
vn 0.63439 0.00000 -0.77301
vn -0.53951 -0.23871 -0.80743
vn -0.62360 -0.47142 -0.62360
vn -0.77301 0.00000 0.63439
vn 0.48996 0.47142 0.73328
vn 0.68667 0.23871 0.68667
vn 0.77301 0.00000 -0.63439
vn -0.37162 -0.23871 -0.89717
vn -0.48996 -0.47142 -0.73328
vn -0.88192 0.00000 0.47140
vn 0.33749 0.47142 0.81478
vn 0.53951 0.23871 0.80743
vn 0.88192 0.00000 -0.47140
vn -0.18945 -0.23871 -0.95243
vn -0.33749 -0.47142 -0.81478
vn -0.95694 0.00000 0.29028
vn 0.17205 0.47142 0.86496
vn 0.37162 0.23871 0.89717
vn 0.95694 0.00000 -0.29028
vn 0.00000 -0.23871 -0.97109
vn -0.17205 -0.47142 -0.86496
vn -0.99518 0.00000 0.09802
vn 0.00000 0.47142 0.88191
vn 0.18945 0.23871 0.95243
vn 0.99518 0.00000 -0.09802
vn 1.00000 0.00000 0.00000
vn 0.00000 0.00000 -1.00000
vn -0.95857 -0.21164 -0.19067
vn -0.97109 -0.23871 -0.00000
vn -0.09802 0.00000 0.99518
vn 0.95243 0.23871 0.18945
vn 0.97735 0.21164 -0.00000
vn 0.09802 0.00000 -0.99518
vn 0.09802 0.00000 -0.99518
vn -0.90295 -0.21164 -0.37401
vn -0.95243 -0.23871 -0.18945
vn -0.29028 0.00000 0.95694
vn 0.89717 0.23871 0.37162
vn 0.95857 0.21164 0.19067
vn 0.29028 0.00000 -0.95694
vn -0.81263 -0.21164 -0.54298
vn -0.89717 -0.23871 -0.37162
vn -0.47140 0.00000 0.88192
vn -0.47140 0.00000 0.88192
vn 0.80743 0.23871 0.53951
vn 0.90295 0.21164 0.37401
vn 0.47140 0.00000 -0.88192
vn 0.47140 0.00000 -0.88192
vn -0.69109 -0.21164 -0.69109
vn -0.80743 -0.23871 -0.53951
vn -0.63439 0.00000 0.77301
vn -0.63439 0.00000 0.77301
vn 0.81263 0.21164 0.54298
vn 0.63439 0.00000 -0.77301
vn 0.63439 0.00000 -0.77301
vn -0.54298 -0.21164 -0.81263
vn -0.68667 -0.23871 -0.68667
vn -0.77301 0.00000 0.63439
vn 0.53951 0.23871 0.80743
vn 0.69109 0.21164 0.69109
vn 0.77301 0.00000 -0.63439
vn -0.37401 -0.21164 -0.90295
vn -0.53951 -0.23871 -0.80743
vn -0.88192 0.00000 0.47140
vn 0.37162 0.23871 0.89717
vn 0.54298 0.21164 0.81263
vn 0.88192 0.00000 -0.47140
vn -0.19067 -0.21164 -0.95857
vn -0.37162 -0.23871 -0.89717
vn -0.95694 0.00000 0.29028
vn 0.18945 0.23871 0.95243
vn 0.37401 0.21164 0.90295
vn 0.95694 0.00000 -0.29028
vn 0.00000 -0.21164 -0.97735
vn -0.18945 -0.23871 -0.95243
vn -0.99518 0.00000 0.09802
vn 0.00000 0.23871 0.97109
vn 0.19067 0.21164 0.95857
vn 0.99518 0.00000 -0.09802
vn -0.86496 -0.47142 -0.17205
vn -0.87109 -0.49113 -0.00000
vn -0.09802 0.00000 0.99518
vn -0.09802 0.00000 0.99518
vn 0.85435 0.49113 0.16994
vn 0.88191 0.47142 -0.00000
vn 0.09802 0.00000 -0.99518
vn 0.09802 0.00000 -0.99518
vn -0.81478 -0.47142 -0.33749
vn -0.85435 -0.49113 -0.16994
vn -0.29028 0.00000 0.95694
vn 0.80478 0.49113 0.33335
vn 0.86496 0.47142 0.17205
vn 0.29028 0.00000 -0.95694
vn -0.73328 -0.47142 -0.48996
vn -0.80478 -0.49113 -0.33335
vn -0.47140 0.00000 0.88192
vn -0.47140 0.00000 0.88192
vn 0.72428 0.49113 0.48395
vn 0.81478 0.47142 0.33749
vn 0.47140 0.00000 -0.88192
vn -0.62360 -0.47142 -0.62360
vn -0.72428 -0.49113 -0.48395
vn 0.61595 0.49113 0.61595
vn 0.73328 0.47142 0.48996
vn 0.63439 0.00000 -0.77301
vn -0.48996 -0.47142 -0.73328
vn -0.61595 -0.49113 -0.61595
vn 0.48395 0.49113 0.72428
vn 0.62360 0.47142 0.62360
vn 0.77301 0.00000 -0.63439
vn -0.33749 -0.47142 -0.81478
vn -0.48395 -0.49113 -0.72428
vn -0.88192 0.00000 0.47140
vn 0.33335 0.49113 0.80478
vn 0.48996 0.47142 0.73328
vn 0.88192 0.00000 -0.47140
vn -0.17205 -0.47142 -0.86496
vn -0.33335 -0.49113 -0.80478
vn -0.95694 0.00000 0.29028
vn 0.16994 0.49113 0.85435
vn 0.33749 0.47142 0.81478
vn 0.95694 0.00000 -0.29028
vn 0.00000 -0.47142 -0.88191
vn -0.16994 -0.49113 -0.85435
vn -0.99518 0.00000 0.09802
vn 0.00000 0.49113 0.87109
vn 0.17205 0.47142 0.86496
vn 0.99518 0.00000 -0.09802
vn -0.95971 -0.20617 -0.19090
vn -0.96976 -0.24406 -0.00000
vn -0.09802 0.00000 0.99518
vn -0.09802 0.00000 0.99518
vn 0.95113 0.24406 0.18919
vn 0.97852 0.20617 -0.00000
vn 0.09802 0.00000 -0.99518
vn 0.09802 0.00000 -0.99518
vn -0.90403 -0.20617 -0.37446
vn -0.95113 -0.24406 -0.18919
vn -0.29028 0.00000 0.95694
vn 0.89594 0.24406 0.37111
vn 0.95971 0.20617 0.19090
vn 0.29028 0.00000 -0.95694
vn -0.81361 -0.20617 -0.54363
vn -0.89594 -0.24406 -0.37111
vn 0.80633 0.24406 0.53877
vn 0.90403 0.20617 0.37446
vn 0.47140 0.00000 -0.88192
vn -0.69192 -0.20617 -0.69192
vn -0.80633 -0.24406 -0.53877
vn -0.63439 0.00000 0.77301
vn 0.68572 0.24406 0.68572
vn 0.81361 0.20617 0.54363
vn 0.63439 0.00000 -0.77301
vn -0.54363 -0.20617 -0.81361
vn -0.68572 -0.24406 -0.68572
vn -0.77301 0.00000 0.63439
vn 0.53877 0.24406 0.80633
vn 0.69192 0.20617 0.69192
vn 0.77301 0.00000 -0.63439
vn -0.37446 -0.20617 -0.90403
vn -0.53877 -0.24406 -0.80633
vn -0.88192 0.00000 0.47140
vn 0.37111 0.24406 0.89594
vn 0.54363 0.20617 0.81361
vn 0.88192 0.00000 -0.47140
vn -0.19090 -0.20617 -0.95971
vn -0.37111 -0.24406 -0.89594
vn -0.95694 0.00000 0.29028
vn 0.18919 0.24406 0.95113
vn 0.37446 0.20617 0.90403
vn 0.95694 0.00000 -0.29028
vn 0.00000 -0.20617 -0.97852
vn -0.18919 -0.24406 -0.95113
vn 0.00000 0.24406 0.96976
vn 0.19090 0.20617 0.95971
vn 0.99518 0.00000 -0.09802
vn -0.86706 -0.46739 -0.17247
vn -0.86890 -0.49498 -0.00000
vn -0.09802 0.00000 0.99518
vn 0.85221 0.49498 0.16951
vn 0.88405 0.46739 -0.00000
vn 0.09802 0.00000 -0.99518
vn -0.81676 -0.46739 -0.33831
vn -0.85221 -0.49498 -0.16951
vn -0.29028 0.00000 0.95694
vn 0.80276 0.49498 0.33251
vn 0.86706 0.46739 0.17247
vn 0.29028 0.00000 -0.95694
vn -0.73506 -0.46739 -0.49115
vn -0.80276 -0.49498 -0.33251
vn -0.47140 0.00000 0.88192
vn 0.72247 0.49498 0.48274
vn 0.81676 0.46739 0.33831
vn 0.47140 0.00000 -0.88192
vn -0.62512 -0.46739 -0.62512
vn -0.72247 -0.49498 -0.48274
vn -0.63439 0.00000 0.77301
vn 0.61441 0.49498 0.61441
vn 0.73506 0.46739 0.49115
vn 0.63439 0.00000 -0.77301
vn -0.49115 -0.46739 -0.73506
vn -0.61441 -0.49498 -0.61441
vn -0.77301 0.00000 0.63439
vn 0.48274 0.49498 0.72247
vn 0.62512 0.46739 0.62512
vn -0.33831 -0.46739 -0.81676
vn -0.48274 -0.49498 -0.72247
vn -0.88192 0.00000 0.47140
vn 0.33251 0.49498 0.80276
vn 0.49115 0.46739 0.73506
vn 0.88192 0.00000 -0.47140
vn -0.17247 -0.46739 -0.86706
vn -0.33251 -0.49498 -0.80276
vn -0.95694 0.00000 0.29028
vn 0.16951 0.49498 0.85221
vn 0.33831 0.46739 0.81676
vn 0.95694 0.00000 -0.29028
vn 0.00000 -0.46739 -0.88405
vn -0.16951 -0.49498 -0.85221
vn -0.99518 0.00000 0.09802
vn 0.00000 0.49498 0.86890
vn 0.17247 0.46739 0.86706
vn 0.99518 0.00000 -0.09802
vn -0.89469 -0.24938 -0.37059
vn -0.86916 -0.46333 -0.17289
vn -0.29028 0.00000 0.95694
vn 0.81873 0.46333 0.33913
vn 0.94980 0.24938 0.18893
vn 0.29028 0.00000 -0.95694
vn 0.29028 0.00000 -0.95694
vn 0.98079 0.00000 0.19509
vn -0.92388 0.00000 -0.38268
vn -0.68477 -0.24938 -0.68477
vn -0.73683 -0.46333 -0.49234
vn -0.63439 0.00000 0.77301
vn 0.62663 0.46333 0.62663
vn 0.80520 0.24938 0.53802
vn 0.83147 0.00000 0.55557
vn -0.70711 0.00000 -0.70711
vn -0.37059 -0.24938 -0.89469
vn -0.49234 -0.46333 -0.73683
vn -0.88192 0.00000 0.47140
vn 0.33913 0.46333 0.81873
vn 0.53802 0.24938 0.80520
vn 0.88192 0.00000 -0.47140
vn 0.55557 0.00000 0.83147
vn -0.38268 0.00000 -0.92388
vn 0.00000 -0.24938 -0.96840
vn -0.17289 -0.46333 -0.86916
vn -0.99518 0.00000 0.09802
vn 0.00000 0.46333 0.88618
vn 0.18893 0.24938 0.94980
vn 0.99518 0.00000 -0.09802
vn 0.19509 0.00000 0.98079
f 1/1/1 2/1/1 3/1/1
f 4/1/2 1/1/2 3/1/2
f 5/1/3 1/1/3 4/1/3
f 6/1/3 5/1/3 4/1/3
f 7/1/4 5/1/4 6/1/4
f 8/1/5 7/1/5 6/1/5
f 2/1/6 7/1/6 8/1/6
f 3/1/7 2/1/7 8/1/7
f 9/1/8 10/1/8 2/1/8
f 1/1/9 9/1/9 2/1/9
f 11/1/10 9/1/10 1/1/10
f 5/1/10 11/1/10 1/1/10
f 12/1/11 11/1/11 5/1/11
f 7/1/12 12/1/12 5/1/12
f 10/1/13 12/1/13 7/1/13
f 2/1/13 10/1/13 7/1/13
f 13/1/14 14/1/14 10/1/14
f 9/1/15 13/1/15 10/1/15
f 15/1/16 13/1/16 9/1/16
f 11/1/16 15/1/16 9/1/16
f 16/1/17 15/1/17 11/1/17
f 12/1/18 16/1/18 11/1/18
f 14/1/19 16/1/19 12/1/19
f 10/1/19 14/1/19 12/1/19
f 17/1/20 18/1/20 14/1/20
f 13/1/21 17/1/21 14/1/21
f 19/1/22 17/1/22 13/1/22
f 15/1/22 19/1/22 13/1/22
f 20/1/23 19/1/23 15/1/23
f 16/1/24 20/1/24 15/1/24
f 18/1/25 20/1/25 16/1/25
f 14/1/26 18/1/26 16/1/26
f 21/1/27 22/1/27 18/1/27
f 17/1/28 21/1/28 18/1/28
f 23/1/29 21/1/29 17/1/29
f 19/1/29 23/1/29 17/1/29
f 24/1/30 23/1/30 19/1/30
f 20/1/31 24/1/31 19/1/31
f 22/1/32 24/1/32 20/1/32
f 18/1/32 22/1/32 20/1/32
f 25/1/33 26/1/33 22/1/33
f 21/1/34 25/1/34 22/1/34
f 27/1/35 25/1/35 21/1/35
f 23/1/35 27/1/35 21/1/35
f 28/1/36 27/1/36 23/1/36
f 24/1/37 28/1/37 23/1/37
f 26/1/38 28/1/38 24/1/38
f 22/1/38 26/1/38 24/1/38
f 29/1/39 30/1/39 26/1/39
f 25/1/40 29/1/40 26/1/40
f 31/1/41 29/1/41 25/1/41
f 27/1/41 31/1/41 25/1/41
f 32/1/42 31/1/42 27/1/42
f 28/1/43 32/1/43 27/1/43
f 30/1/44 32/1/44 28/1/44
f 26/1/44 30/1/44 28/1/44
f 33/1/45 34/1/45 30/1/45
f 29/1/46 33/1/46 30/1/46
f 35/1/47 33/1/47 29/1/47
f 31/1/47 35/1/47 29/1/47
f 36/1/48 35/1/48 31/1/48
f 32/1/49 36/1/49 31/1/49
f 34/1/50 36/1/50 32/1/50
f 30/1/50 34/1/50 32/1/50
f 6/1/51 4/1/51 3/1/51
f 8/1/51 6/1/51 3/1/51
f 33/1/52 35/1/52 34/1/52
f 35/1/52 36/1/52 34/1/52
f 2/2/53 37/2/53 38/2/53
f 3/2/54 2/2/54 38/2/54
f 39/2/55 2/2/55 3/2/55
f 40/2/55 39/2/55 3/2/55
f 41/2/56 39/2/56 40/2/56
f 42/2/57 41/2/57 40/2/57
f 37/2/58 41/2/58 42/2/58
f 38/2/59 37/2/59 42/2/59
f 10/2/60 43/2/60 37/2/60
f 2/2/61 10/2/61 37/2/61
f 44/2/62 10/2/62 2/2/62
f 39/2/62 44/2/62 2/2/62
f 45/2/63 44/2/63 39/2/63
f 41/2/64 45/2/64 39/2/64
f 43/2/65 45/2/65 41/2/65
f 37/2/65 43/2/65 41/2/65
f 14/2/66 46/2/66 43/2/66
f 10/2/67 14/2/67 43/2/67
f 47/2/68 14/2/68 10/2/68
f 44/2/69 47/2/69 10/2/69
f 48/2/70 47/2/70 44/2/70
f 45/2/71 48/2/71 44/2/71
f 46/2/72 48/2/72 45/2/72
f 43/2/73 46/2/73 45/2/73
f 18/2/74 49/2/74 46/2/74
f 14/2/75 18/2/75 46/2/75
f 50/2/76 18/2/76 14/2/76
f 47/2/77 50/2/77 14/2/77
f 51/2/31 50/2/31 47/2/31
f 48/2/78 51/2/78 47/2/78
f 49/2/79 51/2/79 48/2/79
f 46/2/80 49/2/80 48/2/80
f 22/2/81 52/2/81 49/2/81
f 18/2/82 22/2/82 49/2/82
f 53/2/83 22/2/83 18/2/83
f 50/2/83 53/2/83 18/2/83
f 54/2/84 53/2/84 50/2/84
f 51/2/85 54/2/85 50/2/85
f 52/2/86 54/2/86 51/2/86
f 49/2/86 52/2/86 51/2/86
f 26/2/87 55/2/87 52/2/87
f 22/2/88 26/2/88 52/2/88
f 56/2/89 26/2/89 22/2/89
f 53/2/89 56/2/89 22/2/89
f 57/2/90 56/2/90 53/2/90
f 54/2/91 57/2/91 53/2/91
f 55/2/92 57/2/92 54/2/92
f 52/2/92 55/2/92 54/2/92
f 30/2/93 58/2/93 55/2/93
f 26/2/94 30/2/94 55/2/94
f 59/2/95 30/2/95 26/2/95
f 56/2/95 59/2/95 26/2/95
f 60/2/96 59/2/96 56/2/96
f 57/2/97 60/2/97 56/2/97
f 58/2/98 60/2/98 57/2/98
f 55/2/98 58/2/98 57/2/98
f 34/2/99 61/2/99 58/2/99
f 30/2/100 34/2/100 58/2/100
f 62/2/101 34/2/101 30/2/101
f 59/2/101 62/2/101 30/2/101
f 63/2/102 62/2/102 59/2/102
f 60/2/103 63/2/103 59/2/103
f 61/2/104 63/2/104 60/2/104
f 58/2/104 61/2/104 60/2/104
f 40/2/51 3/2/51 38/2/51
f 42/2/51 40/2/51 38/2/51
f 34/2/52 62/2/52 61/2/52
f 62/2/52 63/2/52 61/2/52
f 64/2/105 1/2/105 4/2/105
f 65/2/106 64/2/106 4/2/106
f 66/2/107 64/2/107 65/2/107
f 67/2/108 66/2/108 65/2/108
f 68/2/109 66/2/109 67/2/109
f 69/2/110 68/2/110 67/2/110
f 1/2/111 68/2/111 69/2/111
f 4/2/112 1/2/112 69/2/112
f 70/2/113 9/2/113 1/2/113
f 64/2/114 70/2/114 1/2/114
f 71/2/115 70/2/115 64/2/115
f 66/2/115 71/2/115 64/2/115
f 72/2/116 71/2/116 66/2/116
f 68/2/117 72/2/117 66/2/117
f 9/2/118 72/2/118 68/2/118
f 1/2/118 9/2/118 68/2/118
f 73/2/119 13/2/119 9/2/119
f 70/2/120 73/2/120 9/2/120
f 74/2/121 73/2/121 70/2/121
f 71/2/122 74/2/122 70/2/122
f 75/2/123 74/2/123 71/2/123
f 72/2/124 75/2/124 71/2/124
f 13/2/125 75/2/125 72/2/125
f 9/2/125 13/2/125 72/2/125
f 76/2/126 17/2/126 13/2/126
f 73/2/127 76/2/127 13/2/127
f 77/2/22 76/2/22 73/2/22
f 74/2/22 77/2/22 73/2/22
f 78/2/128 77/2/128 74/2/128
f 75/2/129 78/2/129 74/2/129
f 17/2/130 78/2/130 75/2/130
f 13/2/130 17/2/130 75/2/130
f 79/2/131 21/2/131 17/2/131
f 76/2/132 79/2/132 17/2/132
f 80/2/29 79/2/29 76/2/29
f 77/2/29 80/2/29 76/2/29
f 81/2/133 80/2/133 77/2/133
f 78/2/134 81/2/134 77/2/134
f 21/2/135 81/2/135 78/2/135
f 17/2/135 21/2/135 78/2/135
f 82/2/136 25/2/136 21/2/136
f 79/2/137 82/2/137 21/2/137
f 83/2/138 82/2/138 79/2/138
f 80/2/138 83/2/138 79/2/138
f 84/2/139 83/2/139 80/2/139
f 81/2/140 84/2/140 80/2/140
f 25/2/141 84/2/141 81/2/141
f 21/2/141 25/2/141 81/2/141
f 85/2/142 29/2/142 25/2/142
f 82/2/143 85/2/143 25/2/143
f 86/2/144 85/2/144 82/2/144
f 83/2/144 86/2/144 82/2/144
f 87/2/145 86/2/145 83/2/145
f 84/2/146 87/2/146 83/2/146
f 29/2/147 87/2/147 84/2/147
f 25/2/147 29/2/147 84/2/147
f 88/2/148 33/2/148 29/2/148
f 85/2/149 88/2/149 29/2/149
f 89/2/150 88/2/150 85/2/150
f 86/2/150 89/2/150 85/2/150
f 90/2/151 89/2/151 86/2/151
f 87/2/152 90/2/152 86/2/152
f 33/2/153 90/2/153 87/2/153
f 29/2/153 33/2/153 87/2/153
f 67/2/51 65/2/51 4/2/51
f 69/2/51 67/2/51 4/2/51
f 88/2/52 89/2/52 33/2/52
f 89/2/52 90/2/52 33/2/52
f 91/3/154 92/3/154 93/3/154
f 94/3/155 91/3/155 93/3/155
f 95/3/156 91/3/156 94/3/156
f 96/3/157 95/3/157 94/3/157
f 97/3/158 95/3/158 96/3/158
f 98/3/159 97/3/159 96/3/159
f 92/3/160 97/3/160 98/3/160
f 93/3/161 92/3/161 98/3/161
f 99/3/162 100/3/162 92/3/162
f 91/3/163 99/3/163 92/3/163
f 101/3/164 99/3/164 91/3/164
f 95/3/164 101/3/164 91/3/164
f 102/3/165 101/3/165 95/3/165
f 97/3/166 102/3/166 95/3/166
f 100/3/167 102/3/167 97/3/167
f 92/3/167 100/3/167 97/3/167
f 103/3/168 104/3/168 100/3/168
f 99/3/169 103/3/169 100/3/169
f 105/3/122 103/3/122 99/3/122
f 101/3/122 105/3/122 99/3/122
f 106/3/170 105/3/170 101/3/170
f 102/3/171 106/3/171 101/3/171
f 104/3/172 106/3/172 102/3/172
f 100/3/172 104/3/172 102/3/172
f 107/3/173 108/3/173 104/3/173
f 103/3/174 107/3/174 104/3/174
f 109/3/175 107/3/175 103/3/175
f 105/3/175 109/3/175 103/3/175
f 110/3/176 109/3/176 105/3/176
f 106/3/177 110/3/177 105/3/177
f 108/3/178 110/3/178 106/3/178
f 104/3/178 108/3/178 106/3/178
f 111/3/179 112/3/179 108/3/179
f 107/3/180 111/3/180 108/3/180
f 113/3/181 111/3/181 107/3/181
f 109/3/181 113/3/181 107/3/181
f 114/3/182 113/3/182 109/3/182
f 110/3/183 114/3/183 109/3/183
f 112/3/184 114/3/184 110/3/184
f 108/3/184 112/3/184 110/3/184
f 115/3/185 116/3/185 112/3/185
f 111/3/186 115/3/186 112/3/186
f 117/3/187 115/3/187 111/3/187
f 113/3/187 117/3/187 111/3/187
f 118/3/188 117/3/188 113/3/188
f 114/3/189 118/3/189 113/3/189
f 116/3/190 118/3/190 114/3/190
f 112/3/190 116/3/190 114/3/190
f 119/3/191 120/3/191 116/3/191
f 115/3/192 119/3/192 116/3/192
f 121/3/193 119/3/193 115/3/193
f 117/3/193 121/3/193 115/3/193
f 122/3/194 121/3/194 117/3/194
f 118/3/195 122/3/195 117/3/195
f 120/3/196 122/3/196 118/3/196
f 116/3/196 120/3/196 118/3/196
f 123/3/197 124/3/197 120/3/197
f 119/3/198 123/3/198 120/3/198
f 125/3/47 123/3/47 119/3/47
f 121/3/47 125/3/47 119/3/47
f 126/3/199 125/3/199 121/3/199
f 122/3/200 126/3/200 121/3/200
f 124/3/201 126/3/201 122/3/201
f 120/3/201 124/3/201 122/3/201
f 96/3/51 94/3/51 93/3/51
f 98/3/51 96/3/51 93/3/51
f 123/3/52 125/3/52 124/3/52
f 125/3/52 126/3/52 124/3/52
f 127/3/202 128/3/202 129/3/202
f 130/3/203 127/3/203 129/3/203
f 131/3/3 127/3/3 130/3/3
f 132/3/204 131/3/204 130/3/204
f 133/3/205 131/3/205 132/3/205
f 134/3/206 133/3/206 132/3/206
f 128/3/207 133/3/207 134/3/207
f 129/3/112 128/3/112 134/3/112
f 135/3/208 136/3/208 128/3/208
f 127/3/209 135/3/209 128/3/209
f 137/3/210 135/3/210 127/3/210
f 131/3/210 137/3/210 127/3/210
f 138/3/211 137/3/211 131/3/211
f 133/3/212 138/3/212 131/3/212
f 136/3/213 138/3/213 133/3/213
f 128/3/213 136/3/213 133/3/213
f 139/3/214 140/3/214 136/3/214
f 135/3/215 139/3/215 136/3/215
f 141/3/216 139/3/216 135/3/216
f 137/3/216 141/3/216 135/3/216
f 142/3/217 141/3/217 137/3/217
f 138/3/218 142/3/218 137/3/218
f 140/3/219 142/3/219 138/3/219
f 136/3/219 140/3/219 138/3/219
f 143/3/220 144/3/220 140/3/220
f 139/3/221 143/3/221 140/3/221
f 145/3/222 143/3/222 139/3/222
f 141/3/222 145/3/222 139/3/222
f 146/3/223 145/3/223 141/3/223
f 142/3/224 146/3/224 141/3/224
f 144/3/225 146/3/225 142/3/225
f 140/3/225 144/3/225 142/3/225
f 147/3/226 148/3/226 144/3/226
f 143/3/227 147/3/227 144/3/227
f 149/3/228 147/3/228 143/3/228
f 145/3/228 149/3/228 143/3/228
f 150/3/229 149/3/229 145/3/229
f 146/3/230 150/3/230 145/3/230
f 148/3/135 150/3/135 146/3/135
f 144/3/135 148/3/135 146/3/135
f 151/3/231 152/3/231 148/3/231
f 147/3/232 151/3/232 148/3/232
f 153/3/233 151/3/233 147/3/233
f 149/3/233 153/3/233 147/3/233
f 154/3/234 153/3/234 149/3/234
f 150/3/235 154/3/235 149/3/235
f 152/3/236 154/3/236 150/3/236
f 148/3/236 152/3/236 150/3/236
f 155/3/237 156/3/237 152/3/237
f 151/3/238 155/3/238 152/3/238
f 157/3/239 155/3/239 151/3/239
f 153/3/239 157/3/239 151/3/239
f 158/3/240 157/3/240 153/3/240
f 154/3/241 158/3/241 153/3/241
f 156/3/242 158/3/242 154/3/242
f 152/3/242 156/3/242 154/3/242
f 159/3/243 160/3/243 156/3/243
f 155/3/244 159/3/244 156/3/244
f 161/3/245 159/3/245 155/3/245
f 157/3/245 161/3/245 155/3/245
f 162/3/246 161/3/246 157/3/246
f 158/3/247 162/3/247 157/3/247
f 160/3/248 162/3/248 158/3/248
f 156/3/248 160/3/248 158/3/248
f 132/3/51 130/3/51 129/3/51
f 134/3/51 132/3/51 129/3/51
f 159/3/52 161/3/52 160/3/52
f 161/3/52 162/3/52 160/3/52
f 163/4/249 164/4/249 165/4/249
f 166/4/250 163/4/250 165/4/250
f 167/4/210 163/4/210 166/4/210
f 168/4/251 167/4/251 166/4/251
f 169/4/252 167/4/252 168/4/252
f 170/4/253 169/4/253 168/4/253
f 164/4/254 169/4/254 170/4/254
f 165/4/255 164/4/255 170/4/255
f 168/4/256 166/4/256 165/4/256
f 170/4/256 168/4/256 165/4/256
f 163/4/257 167/4/257 164/4/257
f 167/4/257 169/4/257 164/4/257
f 171/4/258 172/4/258 173/4/258
f 174/4/259 171/4/259 173/4/259
f 175/4/260 171/4/260 174/4/260
f 176/4/222 175/4/222 174/4/222
f 177/4/261 175/4/261 176/4/261
f 178/4/262 177/4/262 176/4/262
f 172/4/80 177/4/80 178/4/80
f 173/4/80 172/4/80 178/4/80
f 176/4/263 174/4/263 173/4/263
f 178/4/263 176/4/263 173/4/263
f 171/4/264 175/4/264 172/4/264
f 175/4/264 177/4/264 172/4/264
f 179/4/265 180/4/265 181/4/265
f 182/4/266 179/4/266 181/4/266
f 183/4/267 179/4/267 182/4/267
f 184/4/267 183/4/267 182/4/267
f 185/4/268 183/4/268 184/4/268
f 186/4/269 185/4/269 184/4/269
f 180/4/270 185/4/270 186/4/270
f 181/4/270 180/4/270 186/4/270
f 184/4/271 182/4/271 181/4/271
f 186/4/271 184/4/271 181/4/271
f 179/4/272 183/4/272 180/4/272
f 183/4/272 185/4/272 180/4/272
f 187/4/273 188/4/273 189/4/273
f 190/4/274 187/4/274 189/4/274
f 191/4/275 187/4/275 190/4/275
f 192/4/275 191/4/275 190/4/275
f 193/4/276 191/4/276 192/4/276
f 194/4/277 193/4/277 192/4/277
f 188/4/278 193/4/278 194/4/278
f 189/4/278 188/4/278 194/4/278
f 192/4/279 190/4/279 189/4/279
f 194/4/279 192/4/279 189/4/279
f 187/4/52 191/4/52 188/4/52
f 191/4/52 193/4/52 188/4/52
