# CargoTrackLift1DownBackward - generated by Tools/generate_meshes.py, do not hand-edit
# Regenerate with: python Tools/generate_meshes.py
o CargoTrackLift1DownBackward
v 7.05000 -1.75333 0.20000
v 7.05000 -1.75333 -7.20000
v 10.00000 -0.42000 -7.20000
v 10.00000 -0.42000 0.20000
v 7.05000 -1.33333 0.20000
v 10.00000 0.00000 0.20000
v 7.05000 -1.33333 -7.20000
v 10.00000 0.00000 -7.20000
v 4.10000 -3.08667 0.20000
v 4.10000 -3.08667 -7.20000
v 4.10000 -2.66667 0.20000
v 4.10000 -2.66667 -7.20000
v 1.15000 -4.42000 0.20000
v 1.15000 -4.42000 -7.20000
v 1.15000 -4.00000 0.20000
v 1.15000 -4.00000 -7.20000
v -1.80000 -5.75333 0.20000
v -1.80000 -5.75333 -7.20000
v -1.80000 -5.33333 0.20000
v -1.80000 -5.33333 -7.20000
v -1.71322 -7.08667 0.18019
v -4.92396 -7.08667 -6.48698
v -1.71322 -6.66667 0.18019
v -4.92396 -6.66667 -6.48698
v -1.64363 -8.42000 0.12470
v -7.42919 -8.42000 -4.48913
v -1.64363 -8.00000 0.12470
v -7.42919 -8.00000 -4.48913
v -1.60501 -9.75333 0.04450
v -8.81948 -9.75333 -1.60215
v -1.60501 -9.33333 0.04450
v -8.81948 -9.33333 -1.60215
v -1.60501 -11.08667 -0.04450
v -8.81948 -11.08667 1.60215
v -1.60501 -10.66667 -0.04450
v -8.81948 -10.66667 1.60215
v -1.64363 -12.42000 -0.12470
v -7.42919 -12.42000 4.48913
v -1.64363 -12.00000 -0.12470
v -7.42919 -12.00000 4.48913
v -1.71322 -13.75333 -0.18019
v -4.92396 -13.75333 6.48698
v -1.71322 -13.33333 -0.18019
v -4.92396 -13.33333 6.48698
v -1.80000 -15.08667 -0.20000
v -1.80000 -15.08667 7.20000
v -1.80000 -14.66667 -0.20000
v -1.80000 -14.66667 7.20000
v 1.15000 -16.42000 -0.20000
v 1.15000 -16.42000 7.20000
v 1.15000 -16.00000 -0.20000
v 1.15000 -16.00000 7.20000
v 4.10000 -17.75333 -0.20000
v 4.10000 -17.75333 7.20000
v 4.10000 -17.33333 -0.20000
v 4.10000 -17.33333 7.20000
v 7.05000 -19.08667 -0.20000
v 7.05000 -19.08667 7.20000
v 7.05000 -18.66667 -0.20000
v 7.05000 -18.66667 7.20000
v 10.00000 -20.42000 -0.20000
v 10.00000 -20.42000 7.20000
v 10.00000 -20.00000 -0.20000
v 10.00000 -20.00000 7.20000
v 7.05000 -1.75333 -7.95000
v 10.00000 -0.42000 -7.95000
v 7.05000 -0.18333 -7.20000
v 10.00000 1.15000 -7.20000
v 7.05000 -0.18333 -7.95000
v 10.00000 1.15000 -7.95000
v 4.10000 -3.08667 -7.95000
v 4.10000 -1.51667 -7.20000
v 4.10000 -1.51667 -7.95000
v 1.15000 -4.42000 -7.95000
v 1.15000 -2.85000 -7.20000
v 1.15000 -2.85000 -7.95000
v -1.80000 -5.75333 -7.95000
v -1.80000 -4.18333 -7.20000
v -1.80000 -4.18333 -7.95000
v -5.24938 -7.08667 -7.16270
v -4.92396 -5.51667 -6.48698
v -5.24938 -5.51667 -7.16270
v -8.01556 -8.42000 -4.95674
v -7.42919 -6.85000 -4.48913
v -8.01556 -6.85000 -4.95674
v -9.55068 -9.75333 -1.76904
v -8.81948 -8.18333 -1.60215
v -9.55068 -8.18333 -1.76904
v -9.55068 -11.08667 1.76904
v -8.81948 -9.51667 1.60215
v -9.55068 -9.51667 1.76904
v -8.01556 -12.42000 4.95674
v -7.42919 -10.85000 4.48913
v -8.01556 -10.85000 4.95674
v -5.24938 -13.75333 7.16270
v -4.92396 -12.18333 6.48698
v -5.24938 -12.18333 7.16270
v -1.80000 -15.08667 7.95000
v -1.80000 -13.51667 7.20000
v -1.80000 -13.51667 7.95000
v 1.15000 -16.42000 7.95000
v 1.15000 -14.85000 7.20000
v 1.15000 -14.85000 7.95000
v 4.10000 -17.75333 7.95000
v 4.10000 -16.18333 7.20000
v 4.10000 -16.18333 7.95000
v 7.05000 -19.08667 7.95000
v 7.05000 -17.51667 7.20000
v 7.05000 -17.51667 7.95000
v 10.00000 -20.42000 7.95000
v 10.00000 -18.85000 7.20000
v 10.00000 -18.85000 7.95000
v 7.05000 -1.75333 0.95000
v 10.00000 -0.42000 0.95000
v 7.05000 -0.18333 0.95000
v 10.00000 1.15000 0.95000
v 7.05000 -0.18333 0.20000
v 10.00000 1.15000 0.20000
v 4.10000 -3.08667 0.95000
v 4.10000 -1.51667 0.95000
v 4.10000 -1.51667 0.20000
v 1.15000 -4.42000 0.95000
v 1.15000 -2.85000 0.95000
v 1.15000 -2.85000 0.20000
v -1.80000 -5.75333 0.95000
v -1.80000 -4.18333 0.95000
v -1.80000 -4.18333 0.20000
v -1.38781 -7.08667 0.85592
v -1.38781 -5.51667 0.85592
v -1.71322 -5.51667 0.18019
v -1.05726 -8.42000 0.59232
v -1.05726 -6.85000 0.59232
v -1.64363 -6.85000 0.12470
v -0.87382 -9.75333 0.21139
v -0.87382 -8.18333 0.21139
v -1.60501 -8.18333 0.04450
v -0.87382 -11.08667 -0.21139
v -0.87382 -9.51667 -0.21139
v -1.60501 -9.51667 -0.04450
v -1.05726 -12.42000 -0.59232
v -1.05726 -10.85000 -0.59232
v -1.64363 -10.85000 -0.12470
v -1.38781 -13.75333 -0.85592
v -1.38781 -12.18333 -0.85592
v -1.71322 -12.18333 -0.18019
v -1.80000 -15.08667 -0.95000
v -1.80000 -13.51667 -0.95000
v -1.80000 -13.51667 -0.20000
v 1.15000 -16.42000 -0.95000
v 1.15000 -14.85000 -0.95000
v 1.15000 -14.85000 -0.20000
v 4.10000 -17.75333 -0.95000
v 4.10000 -16.18333 -0.95000
v 4.10000 -16.18333 -0.20000
v 7.05000 -19.08667 -0.95000
v 7.05000 -17.51667 -0.95000
v 7.05000 -17.51667 -0.20000
v 10.00000 -20.42000 -0.95000
v 10.00000 -18.85000 -0.95000
v 10.00000 -18.85000 -0.20000
v 7.05000 -0.23333 -7.05000
v 7.05000 -0.23333 -8.10000
v 10.00000 1.10000 -8.10000
v 10.00000 1.10000 -7.05000
v 7.05000 0.08667 -7.05000
v 10.00000 1.42000 -7.05000
v 7.05000 0.08667 -8.10000
v 10.00000 1.42000 -8.10000
v 4.10000 -1.56667 -7.05000
v 4.10000 -1.56667 -8.10000
v 4.10000 -1.24667 -7.05000
v 4.10000 -1.24667 -8.10000
v 1.15000 -2.90000 -7.05000
v 1.15000 -2.90000 -8.10000
v 1.15000 -2.58000 -7.05000
v 1.15000 -2.58000 -8.10000
v -1.80000 -4.23333 -7.05000
v -1.80000 -4.23333 -8.10000
v -1.80000 -3.91333 -7.05000
v -1.80000 -3.91333 -8.10000
v -4.85888 -5.56667 -6.35183
v -5.31446 -5.56667 -7.29785
v -4.85888 -5.24667 -6.35183
v -5.31446 -5.24667 -7.29785
v -7.31191 -6.90000 -4.39560
v -8.13284 -6.90000 -5.05027
v -7.31191 -6.58000 -4.39560
v -8.13284 -6.58000 -5.05027
v -8.67324 -8.23333 -1.56877
v -9.69692 -8.23333 -1.80242
v -8.67324 -7.91333 -1.56877
v -9.69692 -7.91333 -1.80242
v -8.67324 -9.56667 1.56877
v -9.69692 -9.56667 1.80242
v -8.67324 -9.24667 1.56877
v -9.69692 -9.24667 1.80242
v -7.31191 -10.90000 4.39560
v -8.13284 -10.90000 5.05027
v -7.31191 -10.58000 4.39560
v -8.13284 -10.58000 5.05027
v -4.85888 -12.23333 6.35183
v -5.31446 -12.23333 7.29785
v -4.85888 -11.91333 6.35183
v -5.31446 -11.91333 7.29785
v -1.80000 -13.56667 7.05000
v -1.80000 -13.56667 8.10000
v -1.80000 -13.24667 7.05000
v -1.80000 -13.24667 8.10000
v 1.15000 -14.90000 7.05000
v 1.15000 -14.90000 8.10000
v 1.15000 -14.58000 7.05000
v 1.15000 -14.58000 8.10000
v 4.10000 -16.23333 7.05000
v 4.10000 -16.23333 8.10000
v 4.10000 -15.91333 7.05000
v 4.10000 -15.91333 8.10000
v 7.05000 -17.56667 7.05000
v 7.05000 -17.56667 8.10000
v 7.05000 -17.24667 7.05000
v 7.05000 -17.24667 8.10000
v 10.00000 -18.90000 7.05000
v 10.00000 -18.90000 8.10000
v 10.00000 -18.58000 7.05000
v 10.00000 -18.58000 8.10000
v 7.05000 -0.23333 1.10000
v 7.05000 -0.23333 0.05000
v 10.00000 1.10000 0.05000
v 10.00000 1.10000 1.10000
v 7.05000 0.08667 1.10000
v 10.00000 1.42000 1.10000
v 7.05000 0.08667 0.05000
v 10.00000 1.42000 0.05000
v 4.10000 -1.56667 1.10000
v 4.10000 -1.56667 0.05000
v 4.10000 -1.24667 1.10000
v 4.10000 -1.24667 0.05000
v 1.15000 -2.90000 1.10000
v 1.15000 -2.90000 0.05000
v 1.15000 -2.58000 1.10000
v 1.15000 -2.58000 0.05000
v -1.80000 -4.23333 1.10000
v -1.80000 -4.23333 0.05000
v -1.80000 -3.91333 1.10000
v -1.80000 -3.91333 0.05000
v -1.32273 -5.56667 0.99107
v -1.77831 -5.56667 0.04505
v -1.32273 -5.24667 0.99107
v -1.77831 -5.24667 0.04505
v -0.93999 -6.90000 0.68584
v -1.76091 -6.90000 0.03117
v -0.93999 -6.58000 0.68584
v -1.76091 -6.58000 0.03117
v -0.72758 -8.23333 0.24477
v -1.75125 -8.23333 0.01113
v -0.72758 -7.91333 0.24477
v -1.75125 -7.91333 0.01113
v -0.72758 -9.56667 -0.24477
v -1.75125 -9.56667 -0.01113
v -0.72758 -9.24667 -0.24477
v -1.75125 -9.24667 -0.01113
v -0.93999 -10.90000 -0.68584
v -1.76091 -10.90000 -0.03117
v -0.93999 -10.58000 -0.68584
v -1.76091 -10.58000 -0.03117
v -1.32273 -12.23333 -0.99107
v -1.77831 -12.23333 -0.04505
v -1.32273 -11.91333 -0.99107
v -1.77831 -11.91333 -0.04505
v -1.80000 -13.56667 -1.10000
v -1.80000 -13.56667 -0.05000
v -1.80000 -13.24667 -1.10000
v -1.80000 -13.24667 -0.05000
v 1.15000 -14.90000 -1.10000
v 1.15000 -14.90000 -0.05000
v 1.15000 -14.58000 -1.10000
v 1.15000 -14.58000 -0.05000
v 4.10000 -16.23333 -1.10000
v 4.10000 -16.23333 -0.05000
v 4.10000 -15.91333 -1.10000
v 4.10000 -15.91333 -0.05000
v 7.05000 -17.56667 -1.10000
v 7.05000 -17.56667 -0.05000
v 7.05000 -17.24667 -1.10000
v 7.05000 -17.24667 -0.05000
v 10.00000 -18.90000 -1.10000
v 10.00000 -18.90000 -0.05000
v 10.00000 -18.58000 -1.10000
v 10.00000 -18.58000 -0.05000
v 4.10000 -3.10667 -0.10000
v 4.10000 -3.10667 -6.90000
v 7.05000 -1.77333 -6.90000
v 7.05000 -1.77333 -0.10000
v 4.10000 -2.84667 -0.10000
v 7.05000 -1.51333 -0.10000
v 4.10000 -2.84667 -6.90000
v 7.05000 -1.51333 -6.90000
v -1.87818 -8.44000 -0.06235
v -7.19464 -8.44000 -4.30208
v -4.79380 -7.10667 -6.21669
v -1.84339 -7.10667 -0.09010
v -1.87818 -8.18000 -0.06235
v -1.84339 -6.84667 -0.09010
v -7.19464 -8.18000 -4.30208
v -4.79380 -6.84667 -6.21669
v -1.84339 -13.77333 0.09010
v -4.79380 -13.77333 6.21669
v -7.19464 -12.44000 4.30208
v -1.87818 -12.44000 0.06235
v -1.84339 -13.51333 0.09010
v -1.87818 -12.18000 0.06235
v -4.79380 -13.51333 6.21669
v -7.19464 -12.18000 4.30208
v 7.05000 -19.10667 0.10000
v 7.05000 -19.10667 6.90000
v 4.10000 -17.77333 6.90000
v 4.10000 -17.77333 0.10000
v 7.05000 -18.84667 0.10000
v 4.10000 -17.51333 0.10000
v 7.05000 -18.84667 6.90000
v 4.10000 -17.51333 6.90000
vt 0.07000 0.01000
vt 0.06000 0.01000
vt 0.02000 0.01000
vt 0.08000 0.01000
vn 0.41186 -0.91125 0.00000
vn -0.00000 0.00000 1.00000
vn -0.41186 0.91125 0.00000
vn 0.00000 0.00000 -1.00000
vn 0.41186 -0.91125 0.00000
vn -0.41186 0.91125 0.00000
vn 0.41186 -0.91125 0.00000
vn -0.41186 0.91125 0.00000
vn 0.35367 -0.91973 -0.17032
vn 0.99789 0.06495 0.00000
vn -0.22252 -0.00000 -0.97493
vn -0.89907 -0.06495 0.43297
vn -0.39255 0.91973 0.00000
vn -0.22252 0.00000 -0.97493
vn 0.24475 -0.91973 -0.30691
vn 0.89907 0.06495 -0.43297
vn -0.62349 -0.00000 -0.78183
vn -0.62217 -0.06495 0.78018
vn -0.35367 0.91973 0.17032
vn -0.62349 0.00000 -0.78183
vn 0.08735 -0.91973 -0.38271
vn 0.62217 0.06495 -0.78018
vn -0.90097 -0.00000 -0.43388
vn -0.22205 -0.06495 0.97287
vn -0.24475 0.91973 0.30691
vn -0.90097 0.00000 -0.43388
vn -0.08735 -0.91973 -0.38271
vn 0.22205 0.06495 -0.97287
vn -1.00000 0.00000 0.00000
vn 0.22205 -0.06495 0.97287
vn -0.08735 0.91973 0.38271
vn -0.24475 -0.91973 -0.30691
vn -0.22205 0.06495 -0.97287
vn -0.90097 0.00000 0.43388
vn 0.62217 -0.06495 0.78018
vn 0.08735 0.91973 0.38271
vn -0.90097 0.00000 0.43388
vn -0.35367 -0.91973 -0.17032
vn -0.62217 0.06495 -0.78018
vn -0.62349 0.00000 0.78183
vn 0.89907 -0.06495 0.43297
vn 0.24475 0.91973 0.30691
vn -0.62349 0.00000 0.78183
vn -0.39255 -0.91973 -0.00000
vn -0.89907 0.06495 -0.43297
vn -0.22252 0.00000 0.97493
vn 0.99789 -0.06495 0.00000
vn 0.35367 0.91973 0.17032
vn -0.22252 0.00000 0.97493
vn -0.41186 -0.91125 -0.00000
vn 0.41186 0.91125 0.00000
vn -0.41186 -0.91125 -0.00000
vn -0.41186 -0.91125 -0.00000
vn 0.41186 0.91125 0.00000
vn 0.41186 0.91125 0.00000
vn -0.41186 -0.91125 -0.00000
vn 0.41186 0.91125 0.00000
vn -0.41186 -0.91125 0.00000
vn -0.41186 -0.91125 -0.00000
vn 0.41186 0.91125 0.00000
vn 0.41186 0.91125 0.00000
vn 1.00000 0.00000 0.00000
vn 0.41186 -0.91125 0.00000
vn -0.41186 0.91125 0.00000
vn -0.41186 0.91125 0.00000
vn 0.32484 -0.93274 -0.15643
vn 0.39255 -0.91973 0.00000
vn 0.22252 0.00000 0.97493
vn -0.35367 0.91973 0.17032
vn -0.36055 0.93274 0.00000
vn -0.22252 0.00000 -0.97493
vn -0.22252 0.00000 -0.97493
vn 0.22480 -0.93274 -0.28189
vn 0.35367 -0.91973 -0.17032
vn 0.62349 0.00000 0.78183
vn -0.24475 0.91973 0.30691
vn -0.32484 0.93274 0.15643
vn -0.62349 0.00000 -0.78183
vn 0.08023 -0.93274 -0.35151
vn 0.24475 -0.91973 -0.30691
vn 0.90097 0.00000 0.43388
vn -0.08735 0.91973 0.38271
vn -0.22480 0.93274 0.28189
vn -0.90097 0.00000 -0.43388
vn -0.08023 -0.93274 -0.35151
vn 0.08735 -0.91973 -0.38271
vn 0.08735 0.91973 0.38271
vn -0.08023 0.93274 0.35151
vn -0.22480 -0.93274 -0.28189
vn -0.08735 -0.91973 -0.38271
vn 0.90097 0.00000 -0.43388
vn 0.24475 0.91973 0.30691
vn 0.08023 0.93274 0.35151
vn -0.90097 0.00000 0.43388
vn -0.32484 -0.93274 -0.15643
vn -0.24475 -0.91973 -0.30691
vn 0.62349 0.00000 -0.78183
vn 0.35367 0.91973 0.17032
vn 0.22480 0.93274 0.28189
vn -0.62349 0.00000 0.78183
vn -0.36055 -0.93274 0.00000
vn -0.35367 -0.91973 -0.17032
vn 0.22252 0.00000 -0.97493
vn 0.39255 0.91973 0.00000
vn 0.32484 0.93274 0.15643
vn -0.22252 0.00000 0.97493
vn -0.41186 -0.91125 0.00000
vn 0.41186 0.91125 0.00000
vn 0.41186 0.91125 0.00000
vn -0.41186 -0.91125 0.00000
vn 0.41186 0.91125 0.00000
vn -0.41186 -0.91125 0.00000
vn 0.41186 0.91125 0.00000
vn 0.89907 0.06495 -0.43297
vn 0.95539 0.29535 0.00000
vn -0.22252 -0.00000 -0.97493
vn -0.22252 -0.00000 -0.97493
vn -0.86078 -0.29535 0.41453
vn -0.99789 -0.06495 0.00000
vn 0.22252 -0.00000 0.97493
vn 0.62217 0.06495 -0.78018
vn 0.86078 0.29535 -0.41453
vn -0.62349 -0.00000 -0.78183
vn -0.59568 -0.29535 0.74695
vn -0.89907 -0.06495 0.43297
vn 0.62349 -0.00000 0.78183
vn 0.22205 0.06495 -0.97287
vn 0.59568 0.29535 -0.74695
vn -0.90097 -0.00000 -0.43388
vn -0.21259 -0.29535 0.93144
vn -0.62217 -0.06495 0.78018
vn 0.90097 -0.00000 0.43388
vn -0.22205 0.06495 -0.97287
vn 0.21259 0.29535 -0.93144
vn 0.21259 -0.29535 0.93144
vn -0.22205 -0.06495 0.97287
vn -0.62217 0.06495 -0.78018
vn -0.21259 0.29535 -0.93144
vn -0.90097 0.00000 0.43388
vn 0.59568 -0.29535 0.74695
vn 0.22205 -0.06495 0.97287
vn 0.90097 0.00000 -0.43388
vn -0.89907 0.06495 -0.43297
vn -0.59568 0.29535 -0.74695
vn -0.62349 0.00000 0.78183
vn 0.86078 -0.29535 0.41453
vn 0.62217 -0.06495 0.78018
vn 0.62349 0.00000 -0.78183
vn -0.99789 0.06495 0.00000
vn -0.86078 0.29535 -0.41453
vn -0.22252 0.00000 0.97493
vn 0.95539 -0.29535 0.00000
vn 0.89907 -0.06495 0.43297
vn 0.22252 0.00000 -0.97493
vn -0.41186 -0.91125 0.00000
vn 0.41186 0.91125 0.00000
vn -0.41186 -0.91125 0.00000
vn 0.41186 0.91125 0.00000
vn 0.41186 -0.91125 0.00000
vn -0.41186 0.91125 0.00000
vn 0.41186 -0.91125 0.00000
vn -0.41186 0.91125 0.00000
vn 0.41186 -0.91125 0.00000
vn 0.31959 -0.93497 -0.15391
vn 0.39958 -0.91670 0.00000
vn 0.22252 0.00000 0.97493
vn 0.22252 0.00000 0.97493
vn -0.36001 0.91670 0.17337
vn -0.35472 0.93497 0.00000
vn -0.22252 0.00000 -0.97493
vn -0.22252 0.00000 -0.97493
vn 0.22116 -0.93497 -0.27733
vn 0.36001 -0.91670 -0.17337
vn 0.62349 0.00000 0.78183
vn -0.24913 0.91670 0.31240
vn -0.31959 0.93497 0.15391
vn -0.62349 0.00000 -0.78183
vn 0.07893 -0.93497 -0.34582
vn 0.24913 -0.91670 -0.31240
vn 0.90097 0.00000 0.43388
vn -0.08891 0.91670 0.38956
vn -0.22116 0.93497 0.27733
vn -0.90097 0.00000 -0.43388
vn -0.07893 -0.93497 -0.34582
vn 0.08891 -0.91670 -0.38956
vn 0.08891 0.91670 0.38956
vn -0.07893 0.93497 0.34582
vn -0.22116 -0.93497 -0.27733
vn -0.08891 -0.91670 -0.38956
vn 0.90097 0.00000 -0.43388
vn 0.24913 0.91670 0.31240
vn 0.07893 0.93497 0.34582
vn -0.90097 0.00000 0.43388
vn -0.31959 -0.93497 -0.15391
vn -0.24913 -0.91670 -0.31240
vn 0.62349 0.00000 -0.78183
vn 0.36001 0.91670 0.17337
vn 0.22116 0.93497 0.27733
vn -0.62349 0.00000 0.78183
vn -0.35472 -0.93497 -0.00000
vn -0.36001 -0.91670 -0.17337
vn 0.22252 0.00000 -0.97493
vn 0.39958 0.91670 0.00000
vn 0.31959 0.93497 0.15391
vn -0.22252 0.00000 0.97493
vn -0.41186 -0.91125 -0.00000
vn 0.41186 0.91125 0.00000
vn 0.41186 0.91125 0.00000
vn -0.41186 -0.91125 -0.00000
vn -0.41186 -0.91125 -0.00000
vn 0.41186 0.91125 0.00000
vn 0.41186 0.91125 0.00000
vn -0.41186 -0.91125 -0.00000
vn 0.41186 0.91125 0.00000
vn -0.41186 -0.91125 -0.00000
vn 0.41186 0.91125 0.00000
vn 0.41186 0.91125 0.00000
vn 0.90085 0.01627 -0.43383
vn 0.94150 0.33701 0.00000
vn -0.22252 -0.00000 -0.97493
vn -0.22252 -0.00000 -0.97493
vn -0.84826 -0.33701 0.40850
vn -0.99987 -0.01627 0.00000
vn 0.22252 -0.00000 0.97493
vn 0.22252 -0.00000 0.97493
vn 0.62341 0.01627 -0.78173
vn 0.84826 0.33701 -0.40850
vn -0.62349 -0.00000 -0.78183
vn -0.58702 -0.33701 0.73609
vn -0.90085 -0.01627 0.43383
vn 0.62349 -0.00000 0.78183
vn 0.22249 0.01627 -0.97480
vn 0.58702 0.33701 -0.73609
vn -0.90097 -0.00000 -0.43388
vn -0.20950 -0.33701 0.91789
vn -0.62341 -0.01627 0.78173
vn 0.90097 -0.00000 0.43388
vn -0.22249 0.01627 -0.97480
vn 0.20950 0.33701 -0.91789
vn 0.20950 -0.33701 0.91789
vn -0.22249 -0.01627 0.97480
vn -0.62341 0.01627 -0.78173
vn -0.20950 0.33701 -0.91789
vn -0.90097 0.00000 0.43388
vn 0.58702 -0.33701 0.73609
vn 0.22249 -0.01627 0.97480
vn 0.90097 0.00000 -0.43388
vn -0.90085 0.01627 -0.43383
vn -0.58702 0.33701 -0.73609
vn -0.62349 0.00000 0.78183
vn 0.84826 -0.33701 0.40850
vn 0.62341 -0.01627 0.78173
vn 0.62349 0.00000 -0.78183
vn -0.99987 0.01627 -0.00000
vn -0.84826 0.33701 -0.40850
vn -0.22252 0.00000 0.97493
vn 0.94150 -0.33701 0.00000
vn 0.90085 -0.01627 0.43383
vn 0.22252 0.00000 -0.97493
vn -0.41186 -0.91125 -0.00000
vn 0.41186 0.91125 0.00000
vn -0.41186 -0.91125 0.00000
vn -0.41186 -0.91125 -0.00000
vn 0.41186 0.91125 0.00000
vn 0.41186 0.91125 0.00000
vn -0.41186 0.91125 0.00000
vn 0.25366 -0.91350 -0.31808
vn 0.90049 -0.03252 -0.43365
vn 0.62349 0.00000 0.78183
vn -0.62316 0.03252 0.78142
vn -0.36655 0.91350 0.17652
vn 0.90097 0.00000 -0.43388
vn -0.62349 0.00000 0.78183
vn -0.36655 -0.91350 -0.17652
vn -0.62316 -0.03252 -0.78142
vn 0.62349 0.00000 -0.78183
vn 0.90049 0.03252 0.43365
vn 0.25366 0.91350 0.31808
vn 0.90097 -0.00000 0.43388
vn -0.41186 -0.91125 0.00000
vn 0.41186 0.91125 0.00000
f 1/1/1 2/1/1 3/1/1
f 4/1/1 1/1/1 3/1/1
f 5/1/2 1/1/2 4/1/2
f 6/1/2 5/1/2 4/1/2
f 7/1/3 5/1/3 6/1/3
f 8/1/3 7/1/3 6/1/3
f 2/1/4 7/1/4 8/1/4
f 3/1/4 2/1/4 8/1/4
f 9/1/1 10/1/1 2/1/1
f 1/1/1 9/1/1 2/1/1
f 11/1/2 9/1/2 1/1/2
f 5/1/2 11/1/2 1/1/2
f 12/1/3 11/1/3 5/1/3
f 7/1/3 12/1/3 5/1/3
f 10/1/4 12/1/4 7/1/4
f 2/1/4 10/1/4 7/1/4
f 13/1/5 14/1/5 10/1/5
f 9/1/5 13/1/5 10/1/5
f 15/1/2 13/1/2 9/1/2
f 11/1/2 15/1/2 9/1/2
f 16/1/6 15/1/6 11/1/6
f 12/1/6 16/1/6 11/1/6
f 14/1/4 16/1/4 12/1/4
f 10/1/4 14/1/4 12/1/4
f 17/1/7 18/1/7 14/1/7
f 13/1/7 17/1/7 14/1/7
f 19/1/2 17/1/2 13/1/2
f 15/1/2 19/1/2 13/1/2
f 20/1/8 19/1/8 15/1/8
f 16/1/8 20/1/8 15/1/8
f 18/1/4 20/1/4 16/1/4
f 14/1/4 18/1/4 16/1/4
f 21/1/9 22/1/9 18/1/9
f 17/1/10 21/1/10 18/1/10
f 23/1/11 21/1/11 17/1/11
f 19/1/11 23/1/11 17/1/11
f 24/1/12 23/1/12 19/1/12
f 20/1/13 24/1/13 19/1/13
f 22/1/14 24/1/14 20/1/14
f 18/1/14 22/1/14 20/1/14
f 25/1/15 26/1/15 22/1/15
f 21/1/16 25/1/16 22/1/16
f 27/1/17 25/1/17 21/1/17
f 23/1/17 27/1/17 21/1/17
f 28/1/18 27/1/18 23/1/18
f 24/1/19 28/1/19 23/1/19
f 26/1/20 28/1/20 24/1/20
f 22/1/20 26/1/20 24/1/20
f 29/1/21 30/1/21 26/1/21
f 25/1/22 29/1/22 26/1/22
f 31/1/23 29/1/23 25/1/23
f 27/1/23 31/1/23 25/1/23
f 32/1/24 31/1/24 27/1/24
f 28/1/25 32/1/25 27/1/25
f 30/1/26 32/1/26 28/1/26
f 26/1/26 30/1/26 28/1/26
f 33/1/27 34/1/27 30/1/27
f 29/1/28 33/1/28 30/1/28
f 35/1/29 33/1/29 29/1/29
f 31/1/29 35/1/29 29/1/29
f 36/1/30 35/1/30 31/1/30
f 32/1/31 36/1/31 31/1/31
f 34/1/29 36/1/29 32/1/29
f 30/1/29 34/1/29 32/1/29
f 37/1/32 38/1/32 34/1/32
f 33/1/33 37/1/33 34/1/33
f 39/1/34 37/1/34 33/1/34
f 35/1/34 39/1/34 33/1/34
f 40/1/35 39/1/35 35/1/35
f 36/1/36 40/1/36 35/1/36
f 38/1/37 40/1/37 36/1/37
f 34/1/37 38/1/37 36/1/37
f 41/1/38 42/1/38 38/1/38
f 37/1/39 41/1/39 38/1/39
f 43/1/40 41/1/40 37/1/40
f 39/1/40 43/1/40 37/1/40
f 44/1/41 43/1/41 39/1/41
f 40/1/42 44/1/42 39/1/42
f 42/1/43 44/1/43 40/1/43
f 38/1/43 42/1/43 40/1/43
f 45/1/44 46/1/44 42/1/44
f 41/1/45 45/1/45 42/1/45
f 47/1/46 45/1/46 41/1/46
f 43/1/46 47/1/46 41/1/46
f 48/1/47 47/1/47 43/1/47
f 44/1/48 48/1/48 43/1/48
f 46/1/49 48/1/49 44/1/49
f 42/1/49 46/1/49 44/1/49
f 49/1/50 50/1/50 46/1/50
f 45/1/50 49/1/50 46/1/50
f 51/1/4 49/1/4 45/1/4
f 47/1/4 51/1/4 45/1/4
f 52/1/51 51/1/51 47/1/51
f 48/1/51 52/1/51 47/1/51
f 50/1/2 52/1/2 48/1/2
f 46/1/2 50/1/2 48/1/2
f 53/1/52 54/1/52 50/1/52
f 49/1/53 53/1/53 50/1/53
f 55/1/4 53/1/4 49/1/4
f 51/1/4 55/1/4 49/1/4
f 56/1/54 55/1/54 51/1/54
f 52/1/55 56/1/55 51/1/55
f 54/1/2 56/1/2 52/1/2
f 50/1/2 54/1/2 52/1/2
f 57/1/56 58/1/56 54/1/56
f 53/1/56 57/1/56 54/1/56
f 59/1/4 57/1/4 53/1/4
f 55/1/4 59/1/4 53/1/4
f 60/1/57 59/1/57 55/1/57
f 56/1/57 60/1/57 55/1/57
f 58/1/2 60/1/2 56/1/2
f 54/1/2 58/1/2 56/1/2
f 61/1/58 62/1/58 58/1/58
f 57/1/59 61/1/59 58/1/59
f 63/1/4 61/1/4 57/1/4
f 59/1/4 63/1/4 57/1/4
f 64/1/60 63/1/60 59/1/60
f 60/1/61 64/1/61 59/1/61
f 62/1/2 64/1/2 60/1/2
f 58/1/2 62/1/2 60/1/2
f 6/1/62 4/1/62 3/1/62
f 8/1/62 6/1/62 3/1/62
f 61/1/62 63/1/62 62/1/62
f 63/1/62 64/1/62 62/1/62
f 2/2/1 65/2/1 66/2/1
f 3/2/1 2/2/1 66/2/1
f 67/2/2 2/2/2 3/2/2
f 68/2/2 67/2/2 3/2/2
f 69/2/3 67/2/3 68/2/3
f 70/2/3 69/2/3 68/2/3
f 65/2/4 69/2/4 70/2/4
f 66/2/4 65/2/4 70/2/4
f 10/2/1 71/2/1 65/2/1
f 2/2/1 10/2/1 65/2/1
f 72/2/2 10/2/2 2/2/2
f 67/2/2 72/2/2 2/2/2
f 73/2/3 72/2/3 67/2/3
f 69/2/3 73/2/3 67/2/3
f 71/2/4 73/2/4 69/2/4
f 65/2/4 71/2/4 69/2/4
f 14/2/63 74/2/63 71/2/63
f 10/2/63 14/2/63 71/2/63
f 75/2/2 14/2/2 10/2/2
f 72/2/2 75/2/2 10/2/2
f 76/2/64 75/2/64 72/2/64
f 73/2/64 76/2/64 72/2/64
f 74/2/4 76/2/4 73/2/4
f 71/2/4 74/2/4 73/2/4
f 18/2/7 77/2/7 74/2/7
f 14/2/7 18/2/7 74/2/7
f 78/2/2 18/2/2 14/2/2
f 75/2/2 78/2/2 14/2/2
f 79/2/65 78/2/65 75/2/65
f 76/2/65 79/2/65 75/2/65
f 77/2/4 79/2/4 76/2/4
f 74/2/4 77/2/4 76/2/4
f 22/2/66 80/2/66 77/2/66
f 18/2/67 22/2/67 77/2/67
f 81/2/68 22/2/68 18/2/68
f 78/2/68 81/2/68 18/2/68
f 82/2/69 81/2/69 78/2/69
f 79/2/70 82/2/70 78/2/70
f 80/2/71 82/2/71 79/2/71
f 77/2/72 80/2/72 79/2/72
f 26/2/73 83/2/73 80/2/73
f 22/2/74 26/2/74 80/2/74
f 84/2/75 26/2/75 22/2/75
f 81/2/75 84/2/75 22/2/75
f 85/2/76 84/2/76 81/2/76
f 82/2/77 85/2/77 81/2/77
f 83/2/78 85/2/78 82/2/78
f 80/2/78 83/2/78 82/2/78
f 30/2/79 86/2/79 83/2/79
f 26/2/80 30/2/80 83/2/80
f 87/2/81 30/2/81 26/2/81
f 84/2/81 87/2/81 26/2/81
f 88/2/82 87/2/82 84/2/82
f 85/2/83 88/2/83 84/2/83
f 86/2/84 88/2/84 85/2/84
f 83/2/84 86/2/84 85/2/84
f 34/2/85 89/2/85 86/2/85
f 30/2/86 34/2/86 86/2/86
f 90/2/62 34/2/62 30/2/62
f 87/2/62 90/2/62 30/2/62
f 91/2/87 90/2/87 87/2/87
f 88/2/88 91/2/88 87/2/88
f 89/2/29 91/2/29 88/2/29
f 86/2/29 89/2/29 88/2/29
f 38/2/89 92/2/89 89/2/89
f 34/2/90 38/2/90 89/2/90
f 93/2/91 38/2/91 34/2/91
f 90/2/91 93/2/91 34/2/91
f 94/2/92 93/2/92 90/2/92
f 91/2/93 94/2/93 90/2/93
f 92/2/94 94/2/94 91/2/94
f 89/2/94 92/2/94 91/2/94
f 42/2/95 95/2/95 92/2/95
f 38/2/96 42/2/96 92/2/96
f 96/2/97 42/2/97 38/2/97
f 93/2/97 96/2/97 38/2/97
f 97/2/98 96/2/98 93/2/98
f 94/2/99 97/2/99 93/2/99
f 95/2/100 97/2/100 94/2/100
f 92/2/100 95/2/100 94/2/100
f 46/2/101 98/2/101 95/2/101
f 42/2/102 46/2/102 95/2/102
f 99/2/103 46/2/103 42/2/103
f 96/2/103 99/2/103 42/2/103
f 100/2/104 99/2/104 96/2/104
f 97/2/105 100/2/105 96/2/105
f 98/2/106 100/2/106 97/2/106
f 95/2/106 98/2/106 97/2/106
f 50/2/107 101/2/107 98/2/107
f 46/2/107 50/2/107 98/2/107
f 102/2/4 50/2/4 46/2/4
f 99/2/4 102/2/4 46/2/4
f 103/2/108 102/2/108 99/2/108
f 100/2/108 103/2/108 99/2/108
f 101/2/2 103/2/2 100/2/2
f 98/2/2 101/2/2 100/2/2
f 54/2/107 104/2/107 101/2/107
f 50/2/107 54/2/107 101/2/107
f 105/2/4 54/2/4 50/2/4
f 102/2/4 105/2/4 50/2/4
f 106/2/109 105/2/109 102/2/109
f 103/2/109 106/2/109 102/2/109
f 104/2/2 106/2/2 103/2/2
f 101/2/2 104/2/2 103/2/2
f 58/2/110 107/2/110 104/2/110
f 54/2/110 58/2/110 104/2/110
f 108/2/4 58/2/4 54/2/4
f 105/2/4 108/2/4 54/2/4
f 109/2/111 108/2/111 105/2/111
f 106/2/111 109/2/111 105/2/111
f 107/2/2 109/2/2 106/2/2
f 104/2/2 107/2/2 106/2/2
f 62/2/112 110/2/112 107/2/112
f 58/2/112 62/2/112 107/2/112
f 111/2/4 62/2/4 58/2/4
f 108/2/4 111/2/4 58/2/4
f 112/2/113 111/2/113 108/2/113
f 109/2/113 112/2/113 108/2/113
f 110/2/2 112/2/2 109/2/2
f 107/2/2 110/2/2 109/2/2
f 68/2/62 3/2/62 66/2/62
f 70/2/62 68/2/62 66/2/62
f 62/2/62 111/2/62 110/2/62
f 111/2/62 112/2/62 110/2/62
f 113/2/1 1/2/1 4/2/1
f 114/2/1 113/2/1 4/2/1
f 115/2/2 113/2/2 114/2/2
f 116/2/2 115/2/2 114/2/2
f 117/2/3 115/2/3 116/2/3
f 118/2/3 117/2/3 116/2/3
f 1/2/4 117/2/4 118/2/4
f 4/2/4 1/2/4 118/2/4
f 119/2/1 9/2/1 1/2/1
f 113/2/1 119/2/1 1/2/1
f 120/2/2 119/2/2 113/2/2
f 115/2/2 120/2/2 113/2/2
f 121/2/3 120/2/3 115/2/3
f 117/2/3 121/2/3 115/2/3
f 9/2/4 121/2/4 117/2/4
f 1/2/4 9/2/4 117/2/4
f 122/2/63 13/2/63 9/2/63
f 119/2/63 122/2/63 9/2/63
f 123/2/2 122/2/2 119/2/2
f 120/2/2 123/2/2 119/2/2
f 124/2/64 123/2/64 120/2/64
f 121/2/64 124/2/64 120/2/64
f 13/2/4 124/2/4 121/2/4
f 9/2/4 13/2/4 121/2/4
f 125/2/7 17/2/7 13/2/7
f 122/2/7 125/2/7 13/2/7
f 126/2/2 125/2/2 122/2/2
f 123/2/2 126/2/2 122/2/2
f 127/2/65 126/2/65 123/2/65
f 124/2/65 127/2/65 123/2/65
f 17/2/4 127/2/4 124/2/4
f 13/2/4 17/2/4 124/2/4
f 128/2/114 21/2/114 17/2/114
f 125/2/115 128/2/115 17/2/115
f 129/2/116 128/2/116 125/2/116
f 126/2/117 129/2/117 125/2/117
f 130/2/118 129/2/118 126/2/118
f 127/2/119 130/2/119 126/2/119
f 21/2/120 130/2/120 127/2/120
f 17/2/120 21/2/120 127/2/120
f 131/2/121 25/2/121 21/2/121
f 128/2/122 131/2/122 21/2/122
f 132/2/123 131/2/123 128/2/123
f 129/2/123 132/2/123 128/2/123
f 133/2/124 132/2/124 129/2/124
f 130/2/125 133/2/125 129/2/125
f 25/2/126 133/2/126 130/2/126
f 21/2/126 25/2/126 130/2/126
f 134/2/127 29/2/127 25/2/127
f 131/2/128 134/2/128 25/2/128
f 135/2/129 134/2/129 131/2/129
f 132/2/129 135/2/129 131/2/129
f 136/2/130 135/2/130 132/2/130
f 133/2/131 136/2/131 132/2/131
f 29/2/132 136/2/132 133/2/132
f 25/2/132 29/2/132 133/2/132
f 137/2/133 33/2/133 29/2/133
f 134/2/134 137/2/134 29/2/134
f 138/2/29 137/2/29 134/2/29
f 135/2/29 138/2/29 134/2/29
f 139/2/135 138/2/135 135/2/135
f 136/2/136 139/2/136 135/2/136
f 33/2/62 139/2/62 136/2/62
f 29/2/62 33/2/62 136/2/62
f 140/2/137 37/2/137 33/2/137
f 137/2/138 140/2/138 33/2/138
f 141/2/139 140/2/139 137/2/139
f 138/2/139 141/2/139 137/2/139
f 142/2/140 141/2/140 138/2/140
f 139/2/141 142/2/141 138/2/141
f 37/2/142 142/2/142 139/2/142
f 33/2/142 37/2/142 139/2/142
f 143/2/143 41/2/143 37/2/143
f 140/2/144 143/2/144 37/2/144
f 144/2/145 143/2/145 140/2/145
f 141/2/145 144/2/145 140/2/145
f 145/2/146 144/2/146 141/2/146
f 142/2/147 145/2/147 141/2/147
f 41/2/148 145/2/148 142/2/148
f 37/2/148 41/2/148 142/2/148
f 146/2/149 45/2/149 41/2/149
f 143/2/150 146/2/150 41/2/150
f 147/2/151 146/2/151 143/2/151
f 144/2/151 147/2/151 143/2/151
f 148/2/152 147/2/152 144/2/152
f 145/2/153 148/2/153 144/2/153
f 45/2/154 148/2/154 145/2/154
f 41/2/154 45/2/154 145/2/154
f 149/2/107 49/2/107 45/2/107
f 146/2/107 149/2/107 45/2/107
f 150/2/4 149/2/4 146/2/4
f 147/2/4 150/2/4 146/2/4
f 151/2/108 150/2/108 147/2/108
f 148/2/108 151/2/108 147/2/108
f 49/2/2 151/2/2 148/2/2
f 45/2/2 49/2/2 148/2/2
f 152/2/155 53/2/155 49/2/155
f 149/2/155 152/2/155 49/2/155
f 153/2/4 152/2/4 149/2/4
f 150/2/4 153/2/4 149/2/4
f 154/2/156 153/2/156 150/2/156
f 151/2/156 154/2/156 150/2/156
f 53/2/2 154/2/2 151/2/2
f 49/2/2 53/2/2 151/2/2
f 155/2/110 57/2/110 53/2/110
f 152/2/110 155/2/110 53/2/110
f 156/2/4 155/2/4 152/2/4
f 153/2/4 156/2/4 152/2/4
f 157/2/111 156/2/111 153/2/111
f 154/2/111 157/2/111 153/2/111
f 57/2/2 157/2/2 154/2/2
f 53/2/2 57/2/2 154/2/2
f 158/2/157 61/2/157 57/2/157
f 155/2/157 158/2/157 57/2/157
f 159/2/4 158/2/4 155/2/4
f 156/2/4 159/2/4 155/2/4
f 160/2/158 159/2/158 156/2/158
f 157/2/158 160/2/158 156/2/158
f 61/2/2 160/2/2 157/2/2
f 57/2/2 61/2/2 157/2/2
f 116/2/62 114/2/62 4/2/62
f 118/2/62 116/2/62 4/2/62
f 158/2/62 159/2/62 61/2/62
f 159/2/62 160/2/62 61/2/62
f 161/3/159 162/3/159 163/3/159
f 164/3/159 161/3/159 163/3/159
f 165/3/2 161/3/2 164/3/2
f 166/3/2 165/3/2 164/3/2
f 167/3/160 165/3/160 166/3/160
f 168/3/160 167/3/160 166/3/160
f 162/3/4 167/3/4 168/3/4
f 163/3/4 162/3/4 168/3/4
f 169/3/159 170/3/159 162/3/159
f 161/3/159 169/3/159 162/3/159
f 171/3/2 169/3/2 161/3/2
f 165/3/2 171/3/2 161/3/2
f 172/3/160 171/3/160 165/3/160
f 167/3/160 172/3/160 165/3/160
f 170/3/4 172/3/4 167/3/4
f 162/3/4 170/3/4 167/3/4
f 173/3/161 174/3/161 170/3/161
f 169/3/161 173/3/161 170/3/161
f 175/3/2 173/3/2 169/3/2
f 171/3/2 175/3/2 169/3/2
f 176/3/162 175/3/162 171/3/162
f 172/3/162 176/3/162 171/3/162
f 174/3/4 176/3/4 172/3/4
f 170/3/4 174/3/4 172/3/4
f 177/3/163 178/3/163 174/3/163
f 173/3/163 177/3/163 174/3/163
f 179/3/2 177/3/2 173/3/2
f 175/3/2 179/3/2 173/3/2
f 180/3/8 179/3/8 175/3/8
f 176/3/8 180/3/8 175/3/8
f 178/3/4 180/3/4 176/3/4
f 174/3/4 178/3/4 176/3/4
f 181/3/164 182/3/164 178/3/164
f 177/3/165 181/3/165 178/3/165
f 183/3/166 181/3/166 177/3/166
f 179/3/167 183/3/167 177/3/167
f 184/3/168 183/3/168 179/3/168
f 180/3/169 184/3/169 179/3/169
f 182/3/170 184/3/170 180/3/170
f 178/3/171 182/3/171 180/3/171
f 185/3/172 186/3/172 182/3/172
f 181/3/173 185/3/173 182/3/173
f 187/3/174 185/3/174 181/3/174
f 183/3/174 187/3/174 181/3/174
f 188/3/175 187/3/175 183/3/175
f 184/3/176 188/3/176 183/3/176
f 186/3/177 188/3/177 184/3/177
f 182/3/177 186/3/177 184/3/177
f 189/3/178 190/3/178 186/3/178
f 185/3/179 189/3/179 186/3/179
f 191/3/180 189/3/180 185/3/180
f 187/3/180 191/3/180 185/3/180
f 192/3/181 191/3/181 187/3/181
f 188/3/182 192/3/182 187/3/182
f 190/3/183 192/3/183 188/3/183
f 186/3/183 190/3/183 188/3/183
f 193/3/184 194/3/184 190/3/184
f 189/3/185 193/3/185 190/3/185
f 195/3/62 193/3/62 189/3/62
f 191/3/62 195/3/62 189/3/62
f 196/3/186 195/3/186 191/3/186
f 192/3/187 196/3/187 191/3/187
f 194/3/29 196/3/29 192/3/29
f 190/3/29 194/3/29 192/3/29
f 197/3/188 198/3/188 194/3/188
f 193/3/189 197/3/189 194/3/189
f 199/3/190 197/3/190 193/3/190
f 195/3/190 199/3/190 193/3/190
f 200/3/191 199/3/191 195/3/191
f 196/3/192 200/3/192 195/3/192
f 198/3/193 200/3/193 196/3/193
f 194/3/193 198/3/193 196/3/193
f 201/3/194 202/3/194 198/3/194
f 197/3/195 201/3/195 198/3/195
f 203/3/196 201/3/196 197/3/196
f 199/3/196 203/3/196 197/3/196
f 204/3/197 203/3/197 199/3/197
f 200/3/198 204/3/198 199/3/198
f 202/3/199 204/3/199 200/3/199
f 198/3/199 202/3/199 200/3/199
f 205/3/200 206/3/200 202/3/200
f 201/3/201 205/3/201 202/3/201
f 207/3/202 205/3/202 201/3/202
f 203/3/202 207/3/202 201/3/202
f 208/3/203 207/3/203 203/3/203
f 204/3/204 208/3/204 203/3/204
f 206/3/205 208/3/205 204/3/205
f 202/3/205 206/3/205 204/3/205
f 209/3/206 210/3/206 206/3/206
f 205/3/206 209/3/206 206/3/206
f 211/3/4 209/3/4 205/3/4
f 207/3/4 211/3/4 205/3/4
f 212/3/207 211/3/207 207/3/207
f 208/3/208 212/3/208 207/3/208
f 210/3/2 212/3/2 208/3/2
f 206/3/2 210/3/2 208/3/2
f 213/3/209 214/3/209 210/3/209
f 209/3/210 213/3/210 210/3/210
f 215/3/4 213/3/4 209/3/4
f 211/3/4 215/3/4 209/3/4
f 216/3/211 215/3/211 211/3/211
f 212/3/212 216/3/212 211/3/212
f 214/3/2 216/3/2 212/3/2
f 210/3/2 214/3/2 212/3/2
f 217/3/213 218/3/213 214/3/213
f 213/3/213 217/3/213 214/3/213
f 219/3/4 217/3/4 213/3/4
f 215/3/4 219/3/4 213/3/4
f 220/3/214 219/3/214 215/3/214
f 216/3/214 220/3/214 215/3/214
f 218/3/2 220/3/2 216/3/2
f 214/3/2 218/3/2 216/3/2
f 221/3/58 222/3/58 218/3/58
f 217/3/215 221/3/215 218/3/215
f 223/3/4 221/3/4 217/3/4
f 219/3/4 223/3/4 217/3/4
f 224/3/216 223/3/216 219/3/216
f 220/3/217 224/3/217 219/3/217
f 222/3/2 224/3/2 220/3/2
f 218/3/2 222/3/2 220/3/2
f 166/3/62 164/3/62 163/3/62
f 168/3/62 166/3/62 163/3/62
f 221/3/62 223/3/62 222/3/62
f 223/3/62 224/3/62 222/3/62
f 225/3/159 226/3/159 227/3/159
f 228/3/159 225/3/159 227/3/159
f 229/3/2 225/3/2 228/3/2
f 230/3/2 229/3/2 228/3/2
f 231/3/160 229/3/160 230/3/160
f 232/3/160 231/3/160 230/3/160
f 226/3/4 231/3/4 232/3/4
f 227/3/4 226/3/4 232/3/4
f 233/3/159 234/3/159 226/3/159
f 225/3/159 233/3/159 226/3/159
f 235/3/2 233/3/2 225/3/2
f 229/3/2 235/3/2 225/3/2
f 236/3/160 235/3/160 229/3/160
f 231/3/160 236/3/160 229/3/160
f 234/3/4 236/3/4 231/3/4
f 226/3/4 234/3/4 231/3/4
f 237/3/161 238/3/161 234/3/161
f 233/3/161 237/3/161 234/3/161
f 239/3/2 237/3/2 233/3/2
f 235/3/2 239/3/2 233/3/2
f 240/3/162 239/3/162 235/3/162
f 236/3/162 240/3/162 235/3/162
f 238/3/4 240/3/4 236/3/4
f 234/3/4 238/3/4 236/3/4
f 241/3/163 242/3/163 238/3/163
f 237/3/163 241/3/163 238/3/163
f 243/3/2 241/3/2 237/3/2
f 239/3/2 243/3/2 237/3/2
f 244/3/8 243/3/8 239/3/8
f 240/3/8 244/3/8 239/3/8
f 242/3/4 244/3/4 240/3/4
f 238/3/4 242/3/4 240/3/4
f 245/3/218 246/3/218 242/3/218
f 241/3/219 245/3/219 242/3/219
f 247/3/220 245/3/220 241/3/220
f 243/3/221 247/3/221 241/3/221
f 248/3/222 247/3/222 243/3/222
f 244/3/223 248/3/223 243/3/223
f 246/3/224 248/3/224 244/3/224
f 242/3/225 246/3/225 244/3/225
f 249/3/226 250/3/226 246/3/226
f 245/3/227 249/3/227 246/3/227
f 251/3/228 249/3/228 245/3/228
f 247/3/228 251/3/228 245/3/228
f 252/3/229 251/3/229 247/3/229
f 248/3/230 252/3/230 247/3/230
f 250/3/231 252/3/231 248/3/231
f 246/3/231 250/3/231 248/3/231
f 253/3/232 254/3/232 250/3/232
f 249/3/233 253/3/233 250/3/233
f 255/3/234 253/3/234 249/3/234
f 251/3/234 255/3/234 249/3/234
f 256/3/235 255/3/235 251/3/235
f 252/3/236 256/3/236 251/3/236
f 254/3/237 256/3/237 252/3/237
f 250/3/237 254/3/237 252/3/237
f 257/3/238 258/3/238 254/3/238
f 253/3/239 257/3/239 254/3/239
f 259/3/29 257/3/29 253/3/29
f 255/3/29 259/3/29 253/3/29
f 260/3/240 259/3/240 255/3/240
f 256/3/241 260/3/241 255/3/241
f 258/3/62 260/3/62 256/3/62
f 254/3/62 258/3/62 256/3/62
f 261/3/242 262/3/242 258/3/242
f 257/3/243 261/3/243 258/3/243
f 263/3/244 261/3/244 257/3/244
f 259/3/244 263/3/244 257/3/244
f 264/3/245 263/3/245 259/3/245
f 260/3/246 264/3/246 259/3/246
f 262/3/247 264/3/247 260/3/247
f 258/3/247 262/3/247 260/3/247
f 265/3/248 266/3/248 262/3/248
f 261/3/249 265/3/249 262/3/249
f 267/3/250 265/3/250 261/3/250
f 263/3/250 267/3/250 261/3/250
f 268/3/251 267/3/251 263/3/251
f 264/3/252 268/3/252 263/3/252
f 266/3/253 268/3/253 264/3/253
f 262/3/253 266/3/253 264/3/253
f 269/3/254 270/3/254 266/3/254
f 265/3/255 269/3/255 266/3/255
f 271/3/256 269/3/256 265/3/256
f 267/3/256 271/3/256 265/3/256
f 272/3/257 271/3/257 267/3/257
f 268/3/258 272/3/258 267/3/258
f 270/3/259 272/3/259 268/3/259
f 266/3/259 270/3/259 268/3/259
f 273/3/206 274/3/206 270/3/206
f 269/3/206 273/3/206 270/3/206
f 275/3/4 273/3/4 269/3/4
f 271/3/4 275/3/4 269/3/4
f 276/3/207 275/3/207 271/3/207
f 272/3/208 276/3/208 271/3/208
f 274/3/2 276/3/2 272/3/2
f 270/3/2 274/3/2 272/3/2
f 277/3/209 278/3/209 274/3/209
f 273/3/260 277/3/260 274/3/260
f 279/3/4 277/3/4 273/3/4
f 275/3/4 279/3/4 273/3/4
f 280/3/261 279/3/261 275/3/261
f 276/3/212 280/3/212 275/3/212
f 278/3/2 280/3/2 276/3/2
f 274/3/2 278/3/2 276/3/2
f 281/3/213 282/3/213 278/3/213
f 277/3/213 281/3/213 278/3/213
f 283/3/4 281/3/4 277/3/4
f 279/3/4 283/3/4 277/3/4
f 284/3/214 283/3/214 279/3/214
f 280/3/214 284/3/214 279/3/214
f 282/3/2 284/3/2 280/3/2
f 278/3/2 282/3/2 280/3/2
f 285/3/262 286/3/262 282/3/262
f 281/3/263 285/3/263 282/3/263
f 287/3/4 285/3/4 281/3/4
f 283/3/4 287/3/4 281/3/4
f 288/3/264 287/3/264 283/3/264
f 284/3/265 288/3/265 283/3/265
f 286/3/2 288/3/2 284/3/2
f 282/3/2 286/3/2 284/3/2
f 230/3/62 228/3/62 227/3/62
f 232/3/62 230/3/62 227/3/62
f 285/3/62 287/3/62 286/3/62
f 287/3/62 288/3/62 286/3/62
f 289/4/159 290/4/159 291/4/159
f 292/4/159 289/4/159 291/4/159
f 293/4/2 289/4/2 292/4/2
f 294/4/2 293/4/2 292/4/2
f 295/4/266 293/4/266 294/4/266
f 296/4/266 295/4/266 294/4/266
f 290/4/4 295/4/4 296/4/4
f 291/4/4 290/4/4 296/4/4
f 294/4/62 292/4/62 291/4/62
f 296/4/62 294/4/62 291/4/62
f 289/4/29 293/4/29 290/4/29
f 293/4/29 295/4/29 290/4/29
f 297/4/267 298/4/267 299/4/267
f 300/4/268 297/4/268 299/4/268
f 301/4/269 297/4/269 300/4/269
f 302/4/269 301/4/269 300/4/269
f 303/4/270 301/4/270 302/4/270
f 304/4/271 303/4/271 302/4/271
f 298/4/177 303/4/177 304/4/177
f 299/4/177 298/4/177 304/4/177
f 302/4/272 300/4/272 299/4/272
f 304/4/272 302/4/272 299/4/272
f 297/4/273 301/4/273 298/4/273
f 301/4/273 303/4/273 298/4/273
f 305/4/274 306/4/274 307/4/274
f 308/4/275 305/4/275 307/4/275
f 309/4/276 305/4/276 308/4/276
f 310/4/276 309/4/276 308/4/276
f 311/4/277 309/4/277 310/4/277
f 312/4/278 311/4/278 310/4/278
f 306/4/273 311/4/273 312/4/273
f 307/4/273 306/4/273 312/4/273
f 310/4/228 308/4/228 307/4/228
f 312/4/228 310/4/228 307/4/228
f 305/4/279 309/4/279 306/4/279
f 309/4/279 311/4/279 306/4/279
f 313/4/280 314/4/280 315/4/280
f 316/4/280 313/4/280 315/4/280
f 317/4/4 313/4/4 316/4/4
f 318/4/4 317/4/4 316/4/4
f 319/4/281 317/4/281 318/4/281
f 320/4/281 319/4/281 318/4/281
f 314/4/2 319/4/2 320/4/2
f 315/4/2 314/4/2 320/4/2
f 318/4/29 316/4/29 315/4/29
f 320/4/29 318/4/29 315/4/29
f 313/4/62 317/4/62 314/4/62
f 317/4/62 319/4/62 314/4/62
