# FluidCargoUnpackager - generated by Tools/generate_meshes.py, do not hand-edit
# Regenerate with: python Tools/generate_meshes.py
o FluidCargoUnpackager
v -6.40000 0.00000 -6.00000
v -6.40000 0.40000 -6.00000
v 6.40000 0.40000 -6.00000
v 6.40000 0.00000 -6.00000
v -7.50000 0.00000 -4.90000
v -7.50000 0.40000 -4.90000
v -7.50000 0.00000 4.90000
v -7.50000 0.40000 4.90000
v -6.40000 0.00000 6.00000
v -6.40000 0.40000 6.00000
v 6.40000 0.00000 6.00000
v 6.40000 0.40000 6.00000
v 7.50000 0.00000 4.90000
v 7.50000 0.40000 4.90000
v 7.50000 0.00000 -4.90000
v 7.50000 0.40000 -4.90000
v -6.18114 0.70000 -5.79482
v 6.18114 0.70000 -5.79482
v -7.24885 0.70000 -4.73592
v -7.24885 0.70000 4.73592
v -6.18114 0.70000 5.79482
v 6.18114 0.70000 5.79482
v 7.24885 0.70000 4.73592
v 7.24885 0.70000 -4.73592
v 2.40000 2.30000 -1.90000
v 2.40000 3.12438 -1.71184
v 9.60000 3.12438 -1.71184
v 9.60000 2.30000 -1.90000
v 2.40000 3.78548 -1.18463
v 9.60000 3.78548 -1.18463
v 2.40000 4.15236 -0.42279
v 9.60000 4.15236 -0.42279
v 2.40000 4.15236 0.42279
v 9.60000 4.15236 0.42279
v 2.40000 3.78548 1.18463
v 9.60000 3.78548 1.18463
v 2.40000 3.12438 1.71184
v 9.60000 3.12438 1.71184
v 2.40000 2.30000 1.90000
v 9.60000 2.30000 1.90000
v 2.40000 1.47562 1.71184
v 9.60000 1.47562 1.71184
v 2.40000 0.81452 1.18463
v 9.60000 0.81452 1.18463
v 2.40000 0.44764 0.42279
v 9.60000 0.44764 0.42279
v 2.40000 0.44764 -0.42279
v 9.60000 0.44764 -0.42279
v 2.40000 0.81452 -1.18463
v 9.60000 0.81452 -1.18463
v 2.40000 1.47562 -1.71184
v 9.60000 1.47562 -1.71184
v -9.60000 2.30000 -1.90000
v -9.60000 3.12438 -1.71184
v -2.40000 3.12438 -1.71184
v -2.40000 2.30000 -1.90000
v -9.60000 3.78548 -1.18463
v -2.40000 3.78548 -1.18463
v -9.60000 4.15236 -0.42279
v -2.40000 4.15236 -0.42279
v -9.60000 4.15236 0.42279
v -2.40000 4.15236 0.42279
v -9.60000 3.78548 1.18463
v -2.40000 3.78548 1.18463
v -9.60000 3.12438 1.71184
v -2.40000 3.12438 1.71184
v -9.60000 2.30000 1.90000
v -2.40000 2.30000 1.90000
v -9.60000 1.47562 1.71184
v -2.40000 1.47562 1.71184
v -9.60000 0.81452 1.18463
v -2.40000 0.81452 1.18463
v -9.60000 0.44764 0.42279
v -2.40000 0.44764 0.42279
v -9.60000 0.44764 -0.42279
v -2.40000 0.44764 -0.42279
v -9.60000 0.81452 -1.18463
v -2.40000 0.81452 -1.18463
v -9.60000 1.47562 -1.71184
v -2.40000 1.47562 -1.71184
v -3.60000 0.45000 -4.30000
v -3.60000 1.00000 -4.30000
v 3.60000 1.00000 -4.30000
v 3.60000 0.45000 -4.30000
v -4.30000 0.45000 -3.60000
v -4.30000 1.00000 -3.60000
v -4.30000 0.45000 3.60000
v -4.30000 1.00000 3.60000
v -3.60000 0.45000 4.30000
v -3.60000 1.00000 4.30000
v 3.60000 0.45000 4.30000
v 3.60000 1.00000 4.30000
v 4.30000 0.45000 3.60000
v 4.30000 1.00000 3.60000
v 4.30000 0.45000 -3.60000
v 4.30000 1.00000 -3.60000
v -3.40742 1.30000 -4.06997
v 3.40742 1.30000 -4.06997
v -4.06997 1.30000 -3.40742
v -4.06997 1.30000 3.40742
v -3.40742 1.30000 4.06997
v 3.40742 1.30000 4.06997
v 4.06997 1.30000 3.40742
v 4.06997 1.30000 -3.40742
v -3.23358 1.10000 1.33939
v -3.23358 9.10000 1.33939
v -3.50000 9.10000 0.00000
v -3.50000 1.10000 0.00000
v -2.47487 1.10000 2.47487
v -2.47487 9.10000 2.47487
v -1.33939 1.10000 3.23358
v -1.33939 9.10000 3.23358
v -0.00000 1.10000 3.50000
v -0.00000 9.10000 3.50000
v 1.33939 1.10000 3.23358
v 1.33939 9.10000 3.23358
v 2.47487 1.10000 2.47487
v 2.47487 9.10000 2.47487
v 3.23358 1.10000 1.33939
v 3.23358 9.10000 1.33939
v 3.50000 1.10000 0.00000
v 3.50000 9.10000 0.00000
v 3.23358 1.10000 -1.33939
v 3.23358 9.10000 -1.33939
v 2.47487 1.10000 -2.47487
v 2.47487 9.10000 -2.47487
v 1.33939 1.10000 -3.23358
v 1.33939 9.10000 -3.23358
v 0.00000 1.10000 -3.50000
v 0.00000 9.10000 -3.50000
v -1.33939 1.10000 -3.23358
v -1.33939 9.10000 -3.23358
v -2.47487 1.10000 -2.47487
v -2.47487 9.10000 -2.47487
v -3.23358 1.10000 -1.33939
v -3.23358 9.10000 -1.33939
v -2.77164 9.60000 1.14805
v -3.00000 9.60000 -0.00000
v -2.12132 9.60000 2.12132
v -1.14805 9.60000 2.77164
v -0.00000 9.60000 3.00000
v 1.14805 9.60000 2.77164
v 2.12132 9.60000 2.12132
v 2.77164 9.60000 1.14805
v 3.00000 9.60000 0.00000
v 2.77164 9.60000 -1.14805
v 2.12132 9.60000 -2.12132
v 1.14805 9.60000 -2.77164
v 0.00000 9.60000 -3.00000
v -1.14805 9.60000 -2.77164
v -2.12132 9.60000 -2.12132
v -2.77164 9.60000 -1.14805
v -0.60676 5.40000 -3.75916
v -0.60676 8.60000 -3.75916
v -0.75000 8.60000 -4.20000
v -0.75000 5.40000 -4.20000
v -0.23176 5.40000 -3.48671
v -0.23176 8.60000 -3.48671
v 0.23176 5.40000 -3.48671
v 0.23176 8.60000 -3.48671
v 0.60676 5.40000 -3.75916
v 0.60676 8.60000 -3.75916
v 0.75000 5.40000 -4.20000
v 0.75000 8.60000 -4.20000
v 0.60676 5.40000 -4.64084
v 0.60676 8.60000 -4.64084
v 0.23176 5.40000 -4.91329
v 0.23176 8.60000 -4.91329
v -0.23176 5.40000 -4.91329
v -0.23176 8.60000 -4.91329
v -0.60676 5.40000 -4.64084
v -0.60676 8.60000 -4.64084
v -0.60676 5.40000 4.64084
v -0.60676 8.60000 4.64084
v -0.75000 8.60000 4.20000
v -0.75000 5.40000 4.20000
v -0.23176 5.40000 4.91329
v -0.23176 8.60000 4.91329
v 0.23176 5.40000 4.91329
v 0.23176 8.60000 4.91329
v 0.60676 5.40000 4.64084
v 0.60676 8.60000 4.64084
v 0.75000 5.40000 4.20000
v 0.75000 8.60000 4.20000
v 0.60676 5.40000 3.75916
v 0.60676 8.60000 3.75916
v 0.23176 5.40000 3.48671
v 0.23176 8.60000 3.48671
v -0.23176 5.40000 3.48671
v -0.23176 8.60000 3.48671
v -0.60676 5.40000 3.75916
v -0.60676 8.60000 3.75916
v -0.60676 9.04084 4.20000
v -0.60676 9.04084 -4.20000
v -0.23176 9.31329 4.20000
v -0.23176 9.31329 -4.20000
v 0.23176 9.31329 4.20000
v 0.23176 9.31329 -4.20000
v 0.60676 9.04084 4.20000
v 0.60676 9.04084 -4.20000
v 0.60676 8.15916 4.20000
v 0.60676 8.15916 -4.20000
v 0.23176 7.88671 4.20000
v 0.23176 7.88671 -4.20000
v -0.23176 7.88671 4.20000
v -0.23176 7.88671 -4.20000
v -0.60676 8.15916 4.20000
v -0.60676 8.15916 -4.20000
v 2.45000 2.30000 -2.20000
v 2.45000 3.25454 -1.98213
v 3.35000 3.25454 -1.98213
v 3.35000 2.30000 -2.20000
v 2.45000 4.02003 -1.37168
v 3.35000 4.02003 -1.37168
v 2.45000 4.44484 -0.48955
v 3.35000 4.44484 -0.48955
v 2.45000 4.44484 0.48955
v 3.35000 4.44484 0.48955
v 2.45000 4.02003 1.37168
v 3.35000 4.02003 1.37168
v 2.45000 3.25454 1.98213
v 3.35000 3.25454 1.98213
v 2.45000 2.30000 2.20000
v 3.35000 2.30000 2.20000
v 2.45000 1.34546 1.98213
v 3.35000 1.34546 1.98213
v 2.45000 0.57997 1.37168
v 3.35000 0.57997 1.37168
v 2.45000 0.15516 0.48955
v 3.35000 0.15516 0.48955
v 2.45000 0.15516 -0.48955
v 3.35000 0.15516 -0.48955
v 2.45000 0.57997 -1.37168
v 3.35000 0.57997 -1.37168
v 2.45000 1.34546 -1.98213
v 3.35000 1.34546 -1.98213
v -3.35000 2.30000 -2.20000
v -3.35000 3.25454 -1.98213
v -2.45000 3.25454 -1.98213
v -2.45000 2.30000 -2.20000
v -3.35000 4.02003 -1.37168
v -2.45000 4.02003 -1.37168
v -3.35000 4.44484 -0.48955
v -2.45000 4.44484 -0.48955
v -3.35000 4.44484 0.48955
v -2.45000 4.44484 0.48955
v -3.35000 4.02003 1.37168
v -2.45000 4.02003 1.37168
v -3.35000 3.25454 1.98213
v -2.45000 3.25454 1.98213
v -3.35000 2.30000 2.20000
v -2.45000 2.30000 2.20000
v -3.35000 1.34546 1.98213
v -2.45000 1.34546 1.98213
v -3.35000 0.57997 1.37168
v -2.45000 0.57997 1.37168
v -3.35000 0.15516 0.48955
v -2.45000 0.15516 0.48955
v -3.35000 0.15516 -0.48955
v -2.45000 0.15516 -0.48955
v -3.35000 0.57997 -1.37168
v -2.45000 0.57997 -1.37168
v -3.35000 1.34546 -1.98213
v -2.45000 1.34546 -1.98213
v -3.46455 3.40000 1.43506
v -3.46455 3.80000 1.43506
v -3.75000 3.80000 0.00000
v -3.75000 3.40000 0.00000
v -2.65165 3.40000 2.65165
v -2.65165 3.80000 2.65165
v -1.43506 3.40000 3.46455
v -1.43506 3.80000 3.46455
v -0.00000 3.40000 3.75000
v -0.00000 3.80000 3.75000
v 1.43506 3.40000 3.46455
v 1.43506 3.80000 3.46455
v 2.65165 3.40000 2.65165
v 2.65165 3.80000 2.65165
v 3.46455 3.40000 1.43506
v 3.46455 3.80000 1.43506
v 3.75000 3.40000 0.00000
v 3.75000 3.80000 0.00000
v 3.46455 3.40000 -1.43506
v 3.46455 3.80000 -1.43506
v 2.65165 3.40000 -2.65165
v 2.65165 3.80000 -2.65165
v 1.43506 3.40000 -3.46455
v 1.43506 3.80000 -3.46455
v 0.00000 3.40000 -3.75000
v 0.00000 3.80000 -3.75000
v -1.43506 3.40000 -3.46455
v -1.43506 3.80000 -3.46455
v -2.65165 3.40000 -2.65165
v -2.65165 3.80000 -2.65165
v -3.46455 3.40000 -1.43506
v -3.46455 3.80000 -1.43506
v -3.46455 6.40000 1.43506
v -3.46455 6.80000 1.43506
v -3.75000 6.80000 0.00000
v -3.75000 6.40000 0.00000
v -2.65165 6.40000 2.65165
v -2.65165 6.80000 2.65165
v -1.43506 6.40000 3.46455
v -1.43506 6.80000 3.46455
v -0.00000 6.40000 3.75000
v -0.00000 6.80000 3.75000
v 1.43506 6.40000 3.46455
v 1.43506 6.80000 3.46455
v 2.65165 6.40000 2.65165
v 2.65165 6.80000 2.65165
v 3.46455 6.40000 1.43506
v 3.46455 6.80000 1.43506
v 3.75000 6.40000 0.00000
v 3.75000 6.80000 0.00000
v 3.46455 6.40000 -1.43506
v 3.46455 6.80000 -1.43506
v 2.65165 6.40000 -2.65165
v 2.65165 6.80000 -2.65165
v 1.43506 6.40000 -3.46455
v 1.43506 6.80000 -3.46455
v 0.00000 6.40000 -3.75000
v 0.00000 6.80000 -3.75000
v -1.43506 6.40000 -3.46455
v -1.43506 6.80000 -3.46455
v -2.65165 6.40000 -2.65165
v -2.65165 6.80000 -2.65165
v -3.46455 6.40000 -1.43506
v -3.46455 6.80000 -1.43506
v -5.51820 0.45000 -3.88180
v -5.51820 2.55000 -3.88180
v -5.65000 2.55000 -4.20000
v -5.65000 0.45000 -4.20000
v -5.20000 0.45000 -3.75000
v -5.20000 2.55000 -3.75000
v -4.88180 0.45000 -3.88180
v -4.88180 2.55000 -3.88180
v -4.75000 0.45000 -4.20000
v -4.75000 2.55000 -4.20000
v -4.88180 0.45000 -4.51820
v -4.88180 2.55000 -4.51820
v -5.20000 0.45000 -4.65000
v -5.20000 2.55000 -4.65000
v -5.51820 0.45000 -4.51820
v -5.51820 2.55000 -4.51820
v -6.91184 2.55000 -3.37562
v -6.91184 2.80000 -3.37562
v -7.10000 2.80000 -4.20000
v -7.10000 2.55000 -4.20000
v -6.38463 2.55000 -2.71452
v -6.38463 2.80000 -2.71452
v -5.62279 2.55000 -2.34764
v -5.62279 2.80000 -2.34764
v -4.77721 2.55000 -2.34764
v -4.77721 2.80000 -2.34764
v -4.01537 2.55000 -2.71452
v -4.01537 2.80000 -2.71452
v -3.48816 2.55000 -3.37562
v -3.48816 2.80000 -3.37562
v -3.30000 2.55000 -4.20000
v -3.30000 2.80000 -4.20000
v -3.48816 2.55000 -5.02438
v -3.48816 2.80000 -5.02438
v -4.01537 2.55000 -5.68548
v -4.01537 2.80000 -5.68548
v -4.77721 2.55000 -6.05236
v -4.77721 2.80000 -6.05236
v -5.62279 2.55000 -6.05236
v -5.62279 2.80000 -6.05236
v -6.38463 2.55000 -5.68548
v -6.38463 2.80000 -5.68548
v -6.91184 2.55000 -5.02438
v -6.91184 2.80000 -5.02438
v -6.77670 2.95000 -3.44070
v -6.95000 2.95000 -4.20000
v -6.29111 2.95000 -2.83179
v -5.58941 2.95000 -2.49388
v -4.81059 2.95000 -2.49388
v -4.10889 2.95000 -2.83179
v -3.62330 2.95000 -3.44070
v -3.45000 2.95000 -4.20000
v -3.62330 2.95000 -4.95930
v -4.10889 2.95000 -5.56821
v -4.81059 2.95000 -5.90612
v -5.58941 2.95000 -5.90612
v -6.29111 2.95000 -5.56821
v -6.77670 2.95000 -4.95930
v -5.73740 2.45000 -3.66260
v -5.73740 3.10000 -3.66260
v -5.96000 3.10000 -4.20000
v -5.96000 2.45000 -4.20000
v -5.20000 2.45000 -3.44000
v -5.20000 3.10000 -3.44000
v -4.66260 2.45000 -3.66260
v -4.66260 3.10000 -3.66260
v -4.44000 2.45000 -4.20000
v -4.44000 3.10000 -4.20000
v -4.66260 2.45000 -4.73740
v -4.66260 3.10000 -4.73740
v -5.20000 2.45000 -4.96000
v -5.20000 3.10000 -4.96000
v -5.73740 2.45000 -4.73740
v -5.73740 3.10000 -4.73740
v 4.44000 0.45000 -4.87500
v 4.44000 2.34000 -4.87500
v 5.56000 2.34000 -4.87500
v 5.56000 0.45000 -4.87500
v 4.19000 0.45000 -4.62500
v 4.19000 2.34000 -4.62500
v 4.19000 0.45000 -3.77500
v 4.19000 2.34000 -3.77500
v 4.44000 0.45000 -3.52500
v 4.44000 2.34000 -3.52500
v 5.56000 0.45000 -3.52500
v 5.56000 2.34000 -3.52500
v 5.81000 0.45000 -3.77500
v 5.81000 2.34000 -3.77500
v 5.81000 0.45000 -4.62500
v 5.81000 2.34000 -4.62500
v 3.65000 2.13000 -5.70000
v 3.65000 4.25000 -5.70000
v 6.35000 4.25000 -5.70000
v 6.35000 2.13000 -5.70000
v 3.20000 2.13000 -5.25000
v 3.20000 4.25000 -5.25000
v 3.20000 2.13000 -3.15000
v 3.20000 4.25000 -3.15000
v 3.65000 2.13000 -2.70000
v 3.65000 4.25000 -2.70000
v 6.35000 2.13000 -2.70000
v 6.35000 4.25000 -2.70000
v 6.80000 2.13000 -3.15000
v 6.80000 4.25000 -3.15000
v 6.80000 2.13000 -5.25000
v 6.80000 4.25000 -5.25000
v 3.91759 4.65000 -5.40268
v 6.08241 4.65000 -5.40268
v 3.54551 4.65000 -5.04845
v 3.54551 4.65000 -3.35155
v 3.91759 4.65000 -2.99732
v 6.08241 4.65000 -2.99732
v 6.45449 4.65000 -3.35155
v 6.45449 4.65000 -5.04845
v 3.15000 4.30000 -6.07500
v 3.15000 4.85000 -6.07500
v 6.85000 4.85000 -6.07500
v 6.85000 4.30000 -6.07500
v 2.75000 4.30000 -5.67500
v 2.75000 4.85000 -5.67500
v 2.75000 4.30000 -2.72500
v 2.75000 4.85000 -2.72500
v 3.15000 4.30000 -2.32500
v 3.15000 4.85000 -2.32500
v 6.85000 4.30000 -2.32500
v 6.85000 4.85000 -2.32500
v 7.25000 4.30000 -2.72500
v 7.25000 4.85000 -2.72500
v 7.25000 4.30000 -5.67500
v 7.25000 4.85000 -5.67500
v 3.32559 5.10000 -5.89704
v 6.67441 5.10000 -5.89704
v 2.95908 5.10000 -5.53794
v 2.95908 5.10000 -2.86206
v 3.32559 5.10000 -2.50296
v 6.67441 5.10000 -2.50296
v 7.04092 5.10000 -2.86206
v 7.04092 5.10000 -5.53794
v 4.95000 0.00000 -5.35000
v 4.95000 0.60000 -5.35000
v 5.85000 0.60000 -5.35000
v 5.85000 0.00000 -5.35000
v 4.65000 0.00000 -5.05000
v 4.65000 0.60000 -5.05000
v 4.65000 0.00000 -4.15000
v 4.65000 0.60000 -4.15000
v 4.95000 0.00000 -3.85000
v 4.95000 0.60000 -3.85000
v 5.85000 0.00000 -3.85000
v 5.85000 0.60000 -3.85000
v 6.15000 0.00000 -4.15000
v 6.15000 0.60000 -4.15000
v 6.15000 0.00000 -5.05000
v 6.15000 0.60000 -5.05000
v 4.95000 0.00000 3.85000
v 4.95000 0.60000 3.85000
v 5.85000 0.60000 3.85000
v 5.85000 0.00000 3.85000
v 4.65000 0.00000 4.15000
v 4.65000 0.60000 4.15000
v 4.65000 0.00000 5.05000
v 4.65000 0.60000 5.05000
v 4.95000 0.00000 5.35000
v 4.95000 0.60000 5.35000
v 5.85000 0.00000 5.35000
v 5.85000 0.60000 5.35000
v 6.15000 0.00000 5.05000
v 6.15000 0.60000 5.05000
v 6.15000 0.00000 4.15000
v 6.15000 0.60000 4.15000
v -5.85000 0.00000 -5.35000
v -5.85000 0.60000 -5.35000
v -4.95000 0.60000 -5.35000
v -4.95000 0.00000 -5.35000
v -6.15000 0.00000 -5.05000
v -6.15000 0.60000 -5.05000
v -6.15000 0.00000 -4.15000
v -6.15000 0.60000 -4.15000
v -5.85000 0.00000 -3.85000
v -5.85000 0.60000 -3.85000
v -4.95000 0.00000 -3.85000
v -4.95000 0.60000 -3.85000
v -4.65000 0.00000 -4.15000
v -4.65000 0.60000 -4.15000
v -4.65000 0.00000 -5.05000
v -4.65000 0.60000 -5.05000
v -5.85000 0.00000 3.85000
v -5.85000 0.60000 3.85000
v -4.95000 0.60000 3.85000
v -4.95000 0.00000 3.85000
v -6.15000 0.00000 4.15000
v -6.15000 0.60000 4.15000
v -6.15000 0.00000 5.05000
v -6.15000 0.60000 5.05000
v -5.85000 0.00000 5.35000
v -5.85000 0.60000 5.35000
v -4.95000 0.00000 5.35000
v -4.95000 0.60000 5.35000
v -4.65000 0.00000 5.05000
v -4.65000 0.60000 5.05000
v -4.65000 0.00000 4.15000
v -4.65000 0.60000 4.15000
vt 0.08000 0.01000
vt 0.06000 0.01000
vt 0.04000 0.01000
vt 0.01000 0.01000
vt 0.12000 0.01000
vt 0.13000 0.01000
vt 0.09000 0.01000
vt 0.03000 0.01000
vt 0.11000 0.01000
vn 0.00000 0.00000 -1.00000
vn -0.70711 0.00000 -0.70711
vn -1.00000 0.00000 0.00000
vn -0.70711 0.00000 0.70711
vn 0.00000 -0.00000 1.00000
vn 0.70711 -0.00000 0.70711
vn 1.00000 0.00000 0.00000
vn 0.70711 0.00000 -0.70711
vn 0.00000 -1.00000 0.00000
vn 0.00000 0.56453 -0.82541
vn -0.50347 0.69915 -0.50766
vn -0.50013 0.70692 -0.50013
vn -0.76677 0.64192 0.00000
vn -0.76677 0.64192 0.00000
vn -0.49809 0.70687 0.50223
vn -0.50535 0.69946 0.50535
vn 0.00000 0.56453 0.82541
vn 0.50347 0.69915 0.50766
vn 0.50013 0.70692 0.50013
vn 0.76677 0.64192 0.00000
vn 0.76677 0.64192 0.00000
vn 0.49809 0.70687 -0.50223
vn 0.50535 0.69946 -0.50535
vn 0.00000 1.00000 -0.00000
vn 0.00000 0.22252 -0.97493
vn 0.00000 0.62349 -0.78183
vn 0.00000 0.90097 -0.43388
vn 0.00000 0.90097 0.43388
vn 0.00000 0.62349 0.78183
vn 0.00000 0.22252 0.97493
vn 0.00000 -0.22252 0.97493
vn 0.00000 -0.62349 0.78183
vn 0.00000 -0.90097 0.43388
vn 0.00000 -1.00000 0.00000
vn 0.00000 -0.90097 -0.43388
vn 0.00000 -0.62349 -0.78183
vn 0.00000 -0.22252 -0.97493
vn -0.70711 0.00000 -0.70711
vn -0.70711 0.00000 0.70711
vn 0.70711 -0.00000 0.70711
vn 0.70711 0.00000 -0.70711
vn 0.00000 0.60848 -0.79357
vn 0.00000 0.60848 -0.79357
vn -0.50098 0.70572 -0.50098
vn -0.79357 0.60848 0.00000
vn -0.79357 0.60848 0.00000
vn -0.50098 0.70572 0.50098
vn 0.00000 0.60848 0.79357
vn -0.00000 0.60848 0.79357
vn 0.50098 0.70572 0.50098
vn 0.79357 0.60848 0.00000
vn 0.79357 0.60848 0.00000
vn 0.50098 0.70572 -0.50098
vn -0.98079 0.00000 0.19509
vn -0.83147 0.00000 0.55557
vn -0.55557 0.00000 0.83147
vn -0.19509 0.00000 0.98079
vn 0.19509 -0.00000 0.98079
vn 0.55557 -0.00000 0.83147
vn 0.83147 -0.00000 0.55557
vn 0.98079 -0.00000 0.19509
vn 0.98079 0.00000 -0.19509
vn 0.83147 0.00000 -0.55557
vn 0.55557 0.00000 -0.83147
vn 0.19509 0.00000 -0.98079
vn -0.19509 0.00000 -0.98079
vn -0.55557 0.00000 -0.83147
vn -0.83147 0.00000 -0.55557
vn -0.98079 0.00000 -0.19509
vn -0.70021 0.70021 0.13928
vn -0.70021 0.70021 0.13928
vn -0.59361 0.70021 0.39664
vn -0.59361 0.70021 0.39664
vn -0.39664 0.70021 0.59361
vn -0.39664 0.70021 0.59361
vn -0.13928 0.70021 0.70021
vn -0.13928 0.70021 0.70021
vn 0.13928 0.70021 0.70021
vn 0.13928 0.70021 0.70021
vn 0.39664 0.70021 0.59361
vn 0.39664 0.70021 0.59361
vn 0.59361 0.70021 0.39664
vn 0.59361 0.70021 0.39664
vn 0.70021 0.70021 0.13928
vn 0.70021 0.70021 0.13928
vn 0.70021 0.70021 -0.13928
vn 0.70021 0.70021 -0.13928
vn 0.59361 0.70021 -0.39664
vn 0.59361 0.70021 -0.39664
vn 0.39664 0.70021 -0.59361
vn 0.39664 0.70021 -0.59361
vn 0.13928 0.70021 -0.70021
vn 0.13928 0.70021 -0.70021
vn -0.13928 0.70021 -0.70021
vn -0.13928 0.70021 -0.70021
vn -0.39664 0.70021 -0.59361
vn -0.39664 0.70021 -0.59361
vn -0.59361 0.70021 -0.39664
vn -0.59361 0.70021 -0.39664
vn -0.70021 0.70021 -0.13928
vn -0.70021 0.70021 -0.13928
vn -0.95106 0.00000 0.30902
vn -0.58779 0.00000 0.80902
vn 0.58779 -0.00000 0.80902
vn 0.95106 -0.00000 0.30902
vn 0.95106 0.00000 -0.30902
vn 0.58779 0.00000 -0.80902
vn -0.58779 0.00000 -0.80902
vn -0.95106 0.00000 -0.30902
vn -0.95106 0.30902 0.00000
vn -0.58779 0.80902 0.00000
vn 0.58779 0.80902 0.00000
vn 0.95106 0.30902 0.00000
vn 0.95106 -0.30902 0.00000
vn 0.58779 -0.80902 0.00000
vn -0.58779 -0.80902 0.00000
vn -0.95106 -0.30902 0.00000
vn 0.00000 0.22252 -0.97493
vn 0.00000 0.62349 -0.78183
vn 0.00000 0.90097 -0.43388
vn 0.00000 0.90097 0.43388
vn 0.00000 0.22252 0.97493
vn 0.00000 -0.22252 0.97493
vn 0.00000 -0.90097 0.43388
vn 0.00000 -1.00000 0.00000
vn 0.00000 -0.90097 -0.43388
vn 0.00000 -0.62349 -0.78183
vn 0.00000 -0.22252 -0.97493
vn -0.98079 0.00000 0.19509
vn -0.83147 0.00000 0.55557
vn -0.55557 0.00000 0.83147
vn -0.19509 0.00000 0.98079
vn 0.19509 -0.00000 0.98079
vn 0.55557 -0.00000 0.83147
vn 0.83147 -0.00000 0.55557
vn 0.98079 -0.00000 0.19509
vn 0.98079 0.00000 -0.19509
vn 0.83147 0.00000 -0.55557
vn 0.55557 0.00000 -0.83147
vn 0.19509 0.00000 -0.98079
vn -0.19509 0.00000 -0.98079
vn -0.55557 0.00000 -0.83147
vn -0.83147 0.00000 -0.55557
vn -0.98079 0.00000 -0.19509
vn -0.83147 0.00000 0.55557
vn 0.83147 -0.00000 0.55557
vn 0.98079 0.00000 -0.19509
vn 0.83147 0.00000 -0.55557
vn -0.55557 0.00000 -0.83147
vn -0.92388 0.00000 0.38268
vn -0.38268 0.00000 0.92388
vn 0.38268 -0.00000 0.92388
vn 0.92388 -0.00000 0.38268
vn 0.92388 0.00000 -0.38268
vn 0.38268 0.00000 -0.92388
vn -0.38268 0.00000 -0.92388
vn -0.92388 0.00000 -0.38268
vn -0.97493 0.00000 0.22252
vn -0.78183 0.00000 0.62349
vn -0.43388 0.00000 0.90097
vn 0.43388 -0.00000 0.90097
vn 0.78183 -0.00000 0.62349
vn 0.97493 -0.00000 0.22252
vn 0.97493 0.00000 -0.22252
vn 0.78183 0.00000 -0.62349
vn 0.43388 0.00000 -0.90097
vn 0.00000 0.00000 -1.00000
vn -0.43388 0.00000 -0.90097
vn -0.78183 0.00000 -0.62349
vn -0.97493 0.00000 -0.22252
vn -0.69807 0.69807 0.15933
vn -0.69807 0.69807 0.15933
vn -0.55981 0.69807 0.44643
vn -0.55981 0.69807 0.44643
vn -0.31067 0.69807 0.64512
vn -0.31067 0.69807 0.64512
vn 0.00000 0.69807 0.71603
vn -0.00000 0.69807 0.71603
vn 0.31067 0.69807 0.64512
vn 0.31067 0.69807 0.64512
vn 0.55981 0.69807 0.44643
vn 0.55981 0.69807 0.44643
vn 0.69807 0.69807 0.15933
vn 0.69807 0.69807 0.15933
vn 0.69807 0.69807 -0.15933
vn 0.69807 0.69807 -0.15933
vn 0.55981 0.69807 -0.44643
vn 0.55981 0.69807 -0.44643
vn 0.31067 0.69807 -0.64512
vn 0.31067 0.69807 -0.64512
vn 0.00000 0.69807 -0.71603
vn 0.00000 0.69807 -0.71603
vn -0.31067 0.69807 -0.64512
vn -0.31067 0.69807 -0.64512
vn -0.55981 0.69807 -0.44643
vn -0.55981 0.69807 -0.44643
vn -0.69807 0.69807 -0.15933
vn -0.69807 0.69807 -0.15933
vn -0.92388 0.00000 0.38268
vn -0.38268 0.00000 0.92388
vn 0.38268 -0.00000 0.92388
vn 0.92388 -0.00000 0.38268
vn 0.92388 0.00000 -0.38268
vn 0.38268 0.00000 -0.92388
vn -0.38268 0.00000 -0.92388
vn -0.92388 0.00000 -0.38268
vn 0.00000 0.59655 -0.80258
vn 0.00000 0.59655 -0.80258
vn -0.49728 0.69273 -0.52233
vn -0.50035 0.70662 -0.50035
vn -0.75677 0.65368 0.00000
vn -0.75677 0.65368 0.00000
vn -0.48766 0.70697 0.51223
vn -0.50830 0.69517 0.50830
vn 0.00000 0.59655 0.80258
vn -0.00000 0.59655 0.80258
vn 0.49728 0.69273 0.52233
vn 0.50035 0.70662 0.50035
vn 0.75677 0.65368 0.00000
vn 0.75677 0.65368 0.00000
vn 0.48766 0.70697 -0.51223
vn 0.50830 0.69517 -0.50830
vn -0.70711 0.00000 -0.70711
vn 0.70711 -0.00000 0.70711
vn 0.00000 0.57992 -0.81468
vn 0.00000 0.57992 -0.81468
vn -0.50062 0.69880 -0.51094
vn -0.50001 0.70710 -0.50001
vn -0.76710 0.64153 0.00000
vn -0.76710 0.64153 0.00000
vn -0.49487 0.70710 0.50508
vn -0.50527 0.69958 0.50527
vn 0.00000 0.57992 0.81468
vn -0.00000 0.57992 0.81468
vn 0.50062 0.69880 0.51094
vn 0.50001 0.70710 0.50001
vn 0.76710 0.64153 0.00000
vn 0.76710 0.64153 0.00000
vn 0.49487 0.70710 -0.50508
vn 0.50527 0.69958 -0.50527
f 1/1/1 2/1/1 3/1/1
f 4/1/1 1/1/1 3/1/1
f 5/1/2 6/1/2 2/1/2
f 1/1/2 5/1/2 2/1/2
f 7/1/3 8/1/3 6/1/3
f 5/1/3 7/1/3 6/1/3
f 9/1/4 10/1/4 8/1/4
f 7/1/4 9/1/4 8/1/4
f 11/1/5 12/1/5 10/1/5
f 9/1/5 11/1/5 10/1/5
f 13/1/6 14/1/6 12/1/6
f 11/1/6 13/1/6 12/1/6
f 15/1/7 16/1/7 14/1/7
f 13/1/7 15/1/7 14/1/7
f 4/1/8 3/1/8 16/1/8
f 15/1/8 4/1/8 16/1/8
f 5/1/9 1/1/9 4/1/9
f 7/1/9 5/1/9 4/1/9
f 9/1/9 7/1/9 4/1/9
f 11/1/9 9/1/9 4/1/9
f 13/1/9 11/1/9 4/1/9
f 15/1/9 13/1/9 4/1/9
f 2/2/10 17/2/10 18/2/10
f 3/2/10 2/2/10 18/2/10
f 6/2/11 19/2/11 17/2/11
f 2/2/12 6/2/12 17/2/12
f 8/2/13 20/2/13 19/2/13
f 6/2/14 8/2/14 19/2/14
f 10/2/15 21/2/15 20/2/15
f 8/2/16 10/2/16 20/2/16
f 12/2/17 22/2/17 21/2/17
f 10/2/17 12/2/17 21/2/17
f 14/2/18 23/2/18 22/2/18
f 12/2/19 14/2/19 22/2/19
f 16/2/20 24/2/20 23/2/20
f 14/2/21 16/2/21 23/2/21
f 3/2/22 18/2/22 24/2/22
f 16/2/23 3/2/23 24/2/23
f 17/2/24 19/2/24 18/2/24
f 19/2/24 20/2/24 18/2/24
f 20/2/24 21/2/24 18/2/24
f 21/2/24 22/2/24 18/2/24
f 22/2/24 23/2/24 18/2/24
f 23/2/24 24/2/24 18/2/24
f 25/3/25 26/3/25 27/3/25
f 25/3/25 27/3/25 28/3/25
f 26/3/26 29/3/26 30/3/26
f 26/3/26 30/3/26 27/3/26
f 29/3/27 31/3/27 32/3/27
f 29/3/27 32/3/27 30/3/27
f 31/3/24 33/3/24 34/3/24
f 31/3/24 34/3/24 32/3/24
f 33/3/28 35/3/28 36/3/28
f 33/3/28 36/3/28 34/3/28
f 35/3/29 37/3/29 38/3/29
f 35/3/29 38/3/29 36/3/29
f 37/3/30 39/3/30 40/3/30
f 37/3/30 40/3/30 38/3/30
f 39/3/31 41/3/31 42/3/31
f 39/3/31 42/3/31 40/3/31
f 41/3/32 43/3/32 44/3/32
f 41/3/32 44/3/32 42/3/32
f 43/3/33 45/3/33 46/3/33
f 43/3/33 46/3/33 44/3/33
f 45/3/34 47/3/34 48/3/34
f 45/3/34 48/3/34 46/3/34
f 47/3/35 49/3/35 50/3/35
f 47/3/35 50/3/35 48/3/35
f 49/3/36 51/3/36 52/3/36
f 49/3/36 52/3/36 50/3/36
f 51/3/37 25/3/37 28/3/37
f 51/3/37 28/3/37 52/3/37
f 28/3/7 27/3/7 30/3/7
f 25/3/3 29/3/3 26/3/3
f 28/3/7 30/3/7 32/3/7
f 25/3/3 31/3/3 29/3/3
f 28/3/7 32/3/7 34/3/7
f 25/3/3 33/3/3 31/3/3
f 28/3/7 34/3/7 36/3/7
f 25/3/3 35/3/3 33/3/3
f 28/3/7 36/3/7 38/3/7
f 25/3/3 37/3/3 35/3/3
f 28/3/7 38/3/7 40/3/7
f 25/3/3 39/3/3 37/3/3
f 28/3/7 40/3/7 42/3/7
f 25/3/3 41/3/3 39/3/3
f 28/3/7 42/3/7 44/3/7
f 25/3/3 43/3/3 41/3/3
f 28/3/7 44/3/7 46/3/7
f 25/3/3 45/3/3 43/3/3
f 28/3/7 46/3/7 48/3/7
f 25/3/3 47/3/3 45/3/3
f 28/3/7 48/3/7 50/3/7
f 25/3/3 49/3/3 47/3/3
f 28/3/7 50/3/7 52/3/7
f 25/3/3 51/3/3 49/3/3
f 53/3/25 54/3/25 55/3/25
f 53/3/25 55/3/25 56/3/25
f 54/3/26 57/3/26 58/3/26
f 54/3/26 58/3/26 55/3/26
f 57/3/27 59/3/27 60/3/27
f 57/3/27 60/3/27 58/3/27
f 59/3/24 61/3/24 62/3/24
f 59/3/24 62/3/24 60/3/24
f 61/3/28 63/3/28 64/3/28
f 61/3/28 64/3/28 62/3/28
f 63/3/29 65/3/29 66/3/29
f 63/3/29 66/3/29 64/3/29
f 65/3/30 67/3/30 68/3/30
f 65/3/30 68/3/30 66/3/30
f 67/3/31 69/3/31 70/3/31
f 67/3/31 70/3/31 68/3/31
f 69/3/32 71/3/32 72/3/32
f 69/3/32 72/3/32 70/3/32
f 71/3/33 73/3/33 74/3/33
f 71/3/33 74/3/33 72/3/33
f 73/3/34 75/3/34 76/3/34
f 73/3/34 76/3/34 74/3/34
f 75/3/35 77/3/35 78/3/35
f 75/3/35 78/3/35 76/3/35
f 77/3/36 79/3/36 80/3/36
f 77/3/36 80/3/36 78/3/36
f 79/3/37 53/3/37 56/3/37
f 79/3/37 56/3/37 80/3/37
f 56/3/7 55/3/7 58/3/7
f 53/3/3 57/3/3 54/3/3
f 56/3/7 58/3/7 60/3/7
f 53/3/3 59/3/3 57/3/3
f 56/3/7 60/3/7 62/3/7
f 53/3/3 61/3/3 59/3/3
f 56/3/7 62/3/7 64/3/7
f 53/3/3 63/3/3 61/3/3
f 56/3/7 64/3/7 66/3/7
f 53/3/3 65/3/3 63/3/3
f 56/3/7 66/3/7 68/3/7
f 53/3/3 67/3/3 65/3/3
f 56/3/7 68/3/7 70/3/7
f 53/3/3 69/3/3 67/3/3
f 56/3/7 70/3/7 72/3/7
f 53/3/3 71/3/3 69/3/3
f 56/3/7 72/3/7 74/3/7
f 53/3/3 73/3/3 71/3/3
f 56/3/7 74/3/7 76/3/7
f 53/3/3 75/3/3 73/3/3
f 56/3/7 76/3/7 78/3/7
f 53/3/3 77/3/3 75/3/3
f 56/3/7 78/3/7 80/3/7
f 53/3/3 79/3/3 77/3/3
f 81/2/1 82/2/1 83/2/1
f 84/2/1 81/2/1 83/2/1
f 85/2/38 86/2/38 82/2/38
f 81/2/38 85/2/38 82/2/38
f 87/2/3 88/2/3 86/2/3
f 85/2/3 87/2/3 86/2/3
f 89/2/39 90/2/39 88/2/39
f 87/2/39 89/2/39 88/2/39
f 91/2/5 92/2/5 90/2/5
f 89/2/5 91/2/5 90/2/5
f 93/2/40 94/2/40 92/2/40
f 91/2/40 93/2/40 92/2/40
f 95/2/7 96/2/7 94/2/7
f 93/2/7 95/2/7 94/2/7
f 84/2/41 83/2/41 96/2/41
f 95/2/41 84/2/41 96/2/41
f 85/2/9 81/2/9 84/2/9
f 87/2/9 85/2/9 84/2/9
f 89/2/9 87/2/9 84/2/9
f 91/2/9 89/2/9 84/2/9
f 93/2/9 91/2/9 84/2/9
f 95/2/9 93/2/9 84/2/9
f 82/4/42 97/4/42 98/4/42
f 83/4/43 82/4/43 98/4/43
f 86/4/44 99/4/44 97/4/44
f 82/4/44 86/4/44 97/4/44
f 88/4/45 100/4/45 99/4/45
f 86/4/46 88/4/46 99/4/46
f 90/4/47 101/4/47 100/4/47
f 88/4/47 90/4/47 100/4/47
f 92/4/48 102/4/48 101/4/48
f 90/4/49 92/4/49 101/4/49
f 94/4/50 103/4/50 102/4/50
f 92/4/50 94/4/50 102/4/50
f 96/4/51 104/4/51 103/4/51
f 94/4/52 96/4/52 103/4/52
f 83/4/53 98/4/53 104/4/53
f 96/4/53 83/4/53 104/4/53
f 97/4/24 99/4/24 98/4/24
f 99/4/24 100/4/24 98/4/24
f 100/4/24 101/4/24 98/4/24
f 101/4/24 102/4/24 98/4/24
f 102/4/24 103/4/24 98/4/24
f 103/4/24 104/4/24 98/4/24
f 105/3/54 106/3/54 107/3/54
f 108/3/54 105/3/54 107/3/54
f 109/3/55 110/3/55 106/3/55
f 105/3/55 109/3/55 106/3/55
f 111/3/56 112/3/56 110/3/56
f 109/3/56 111/3/56 110/3/56
f 113/3/57 114/3/57 112/3/57
f 111/3/57 113/3/57 112/3/57
f 115/3/58 116/3/58 114/3/58
f 113/3/58 115/3/58 114/3/58
f 117/3/59 118/3/59 116/3/59
f 115/3/59 117/3/59 116/3/59
f 119/3/60 120/3/60 118/3/60
f 117/3/60 119/3/60 118/3/60
f 121/3/61 122/3/61 120/3/61
f 119/3/61 121/3/61 120/3/61
f 123/3/62 124/3/62 122/3/62
f 121/3/62 123/3/62 122/3/62
f 125/3/63 126/3/63 124/3/63
f 123/3/63 125/3/63 124/3/63
f 127/3/64 128/3/64 126/3/64
f 125/3/64 127/3/64 126/3/64
f 129/3/65 130/3/65 128/3/65
f 127/3/65 129/3/65 128/3/65
f 131/3/66 132/3/66 130/3/66
f 129/3/66 131/3/66 130/3/66
f 133/3/67 134/3/67 132/3/67
f 131/3/67 133/3/67 132/3/67
f 135/3/68 136/3/68 134/3/68
f 133/3/68 135/3/68 134/3/68
f 108/3/69 107/3/69 136/3/69
f 135/3/69 108/3/69 136/3/69
f 109/3/9 105/3/9 108/3/9
f 111/3/9 109/3/9 108/3/9
f 113/3/9 111/3/9 108/3/9
f 115/3/9 113/3/9 108/3/9
f 117/3/9 115/3/9 108/3/9
f 119/3/9 117/3/9 108/3/9
f 121/3/9 119/3/9 108/3/9
f 123/3/9 121/3/9 108/3/9
f 125/3/9 123/3/9 108/3/9
f 127/3/9 125/3/9 108/3/9
f 129/3/9 127/3/9 108/3/9
f 131/3/9 129/3/9 108/3/9
f 133/3/9 131/3/9 108/3/9
f 135/3/9 133/3/9 108/3/9
f 106/5/70 137/5/70 138/5/70
f 107/5/71 106/5/71 138/5/71
f 110/5/72 139/5/72 137/5/72
f 106/5/73 110/5/73 137/5/73
f 112/5/74 140/5/74 139/5/74
f 110/5/75 112/5/75 139/5/75
f 114/5/76 141/5/76 140/5/76
f 112/5/77 114/5/77 140/5/77
f 116/5/78 142/5/78 141/5/78
f 114/5/79 116/5/79 141/5/79
f 118/5/80 143/5/80 142/5/80
f 116/5/81 118/5/81 142/5/81
f 120/5/82 144/5/82 143/5/82
f 118/5/83 120/5/83 143/5/83
f 122/5/84 145/5/84 144/5/84
f 120/5/85 122/5/85 144/5/85
f 124/5/86 146/5/86 145/5/86
f 122/5/87 124/5/87 145/5/87
f 126/5/88 147/5/88 146/5/88
f 124/5/89 126/5/89 146/5/89
f 128/5/90 148/5/90 147/5/90
f 126/5/91 128/5/91 147/5/91
f 130/5/92 149/5/92 148/5/92
f 128/5/93 130/5/93 148/5/93
f 132/5/94 150/5/94 149/5/94
f 130/5/95 132/5/95 149/5/95
f 134/5/96 151/5/96 150/5/96
f 132/5/97 134/5/97 150/5/97
f 136/5/98 152/5/98 151/5/98
f 134/5/99 136/5/99 151/5/99
f 107/5/100 138/5/100 152/5/100
f 136/5/101 107/5/101 152/5/101
f 137/5/24 139/5/24 138/5/24
f 139/5/24 140/5/24 138/5/24
f 140/5/24 141/5/24 138/5/24
f 141/5/24 142/5/24 138/5/24
f 142/5/24 143/5/24 138/5/24
f 143/5/24 144/5/24 138/5/24
f 144/5/24 145/5/24 138/5/24
f 145/5/24 146/5/24 138/5/24
f 146/5/24 147/5/24 138/5/24
f 147/5/24 148/5/24 138/5/24
f 148/5/24 149/5/24 138/5/24
f 149/5/24 150/5/24 138/5/24
f 150/5/24 151/5/24 138/5/24
f 151/5/24 152/5/24 138/5/24
f 153/6/102 154/6/102 155/6/102
f 156/6/102 153/6/102 155/6/102
f 157/6/103 158/6/103 154/6/103
f 153/6/103 157/6/103 154/6/103
f 159/6/5 160/6/5 158/6/5
f 157/6/5 159/6/5 158/6/5
f 161/6/104 162/6/104 160/6/104
f 159/6/104 161/6/104 160/6/104
f 163/6/105 164/6/105 162/6/105
f 161/6/105 163/6/105 162/6/105
f 165/6/106 166/6/106 164/6/106
f 163/6/106 165/6/106 164/6/106
f 167/6/107 168/6/107 166/6/107
f 165/6/107 167/6/107 166/6/107
f 169/6/1 170/6/1 168/6/1
f 167/6/1 169/6/1 168/6/1
f 171/6/108 172/6/108 170/6/108
f 169/6/108 171/6/108 170/6/108
f 156/6/109 155/6/109 172/6/109
f 171/6/109 156/6/109 172/6/109
f 157/6/9 153/6/9 156/6/9
f 159/6/9 157/6/9 156/6/9
f 161/6/9 159/6/9 156/6/9
f 163/6/9 161/6/9 156/6/9
f 165/6/9 163/6/9 156/6/9
f 167/6/9 165/6/9 156/6/9
f 169/6/9 167/6/9 156/6/9
f 171/6/9 169/6/9 156/6/9
f 154/6/24 158/6/24 155/6/24
f 158/6/24 160/6/24 155/6/24
f 160/6/24 162/6/24 155/6/24
f 162/6/24 164/6/24 155/6/24
f 164/6/24 166/6/24 155/6/24
f 166/6/24 168/6/24 155/6/24
f 168/6/24 170/6/24 155/6/24
f 170/6/24 172/6/24 155/6/24
f 173/6/102 174/6/102 175/6/102
f 176/6/102 173/6/102 175/6/102
f 177/6/103 178/6/103 174/6/103
f 173/6/103 177/6/103 174/6/103
f 179/6/5 180/6/5 178/6/5
f 177/6/5 179/6/5 178/6/5
f 181/6/104 182/6/104 180/6/104
f 179/6/104 181/6/104 180/6/104
f 183/6/105 184/6/105 182/6/105
f 181/6/105 183/6/105 182/6/105
f 185/6/106 186/6/106 184/6/106
f 183/6/106 185/6/106 184/6/106
f 187/6/107 188/6/107 186/6/107
f 185/6/107 187/6/107 186/6/107
f 189/6/1 190/6/1 188/6/1
f 187/6/1 189/6/1 188/6/1
f 191/6/108 192/6/108 190/6/108
f 189/6/108 191/6/108 190/6/108
f 176/6/109 175/6/109 192/6/109
f 191/6/109 176/6/109 192/6/109
f 177/6/9 173/6/9 176/6/9
f 179/6/9 177/6/9 176/6/9
f 181/6/9 179/6/9 176/6/9
f 183/6/9 181/6/9 176/6/9
f 185/6/9 183/6/9 176/6/9
f 187/6/9 185/6/9 176/6/9
f 189/6/9 187/6/9 176/6/9
f 191/6/9 189/6/9 176/6/9
f 174/6/24 178/6/24 175/6/24
f 178/6/24 180/6/24 175/6/24
f 180/6/24 182/6/24 175/6/24
f 182/6/24 184/6/24 175/6/24
f 184/6/24 186/6/24 175/6/24
f 186/6/24 188/6/24 175/6/24
f 188/6/24 190/6/24 175/6/24
f 190/6/24 192/6/24 175/6/24
f 175/6/110 193/6/110 194/6/110
f 175/6/110 194/6/110 155/6/110
f 193/6/111 195/6/111 196/6/111
f 193/6/111 196/6/111 194/6/111
f 195/6/24 197/6/24 198/6/24
f 195/6/24 198/6/24 196/6/24
f 197/6/112 199/6/112 200/6/112
f 197/6/112 200/6/112 198/6/112
f 199/6/113 184/6/113 164/6/113
f 199/6/113 164/6/113 200/6/113
f 184/6/114 201/6/114 202/6/114
f 184/6/114 202/6/114 164/6/114
f 201/6/115 203/6/115 204/6/115
f 201/6/115 204/6/115 202/6/115
f 203/6/9 205/6/9 206/6/9
f 203/6/9 206/6/9 204/6/9
f 205/6/116 207/6/116 208/6/116
f 205/6/116 208/6/116 206/6/116
f 207/6/117 175/6/117 155/6/117
f 207/6/117 155/6/117 208/6/117
f 155/6/1 194/6/1 196/6/1
f 175/6/5 195/6/5 193/6/5
f 155/6/1 196/6/1 198/6/1
f 175/6/5 197/6/5 195/6/5
f 155/6/1 198/6/1 200/6/1
f 175/6/5 199/6/5 197/6/5
f 155/6/1 200/6/1 164/6/1
f 175/6/5 184/6/5 199/6/5
f 155/6/1 164/6/1 202/6/1
f 175/6/5 201/6/5 184/6/5
f 155/6/1 202/6/1 204/6/1
f 175/6/5 203/6/5 201/6/5
f 155/6/1 204/6/1 206/6/1
f 175/6/5 205/6/5 203/6/5
f 155/6/1 206/6/1 208/6/1
f 175/6/5 207/6/5 205/6/5
f 209/6/118 210/6/118 211/6/118
f 209/6/118 211/6/118 212/6/118
f 210/6/119 213/6/119 214/6/119
f 210/6/119 214/6/119 211/6/119
f 213/6/120 215/6/120 216/6/120
f 213/6/120 216/6/120 214/6/120
f 215/6/24 217/6/24 218/6/24
f 215/6/24 218/6/24 216/6/24
f 217/6/121 219/6/121 220/6/121
f 217/6/121 220/6/121 218/6/121
f 219/6/29 221/6/29 222/6/29
f 219/6/29 222/6/29 220/6/29
f 221/6/122 223/6/122 224/6/122
f 221/6/122 224/6/122 222/6/122
f 223/6/123 225/6/123 226/6/123
f 223/6/123 226/6/123 224/6/123
f 225/6/32 227/6/32 228/6/32
f 225/6/32 228/6/32 226/6/32
f 227/6/124 229/6/124 230/6/124
f 227/6/124 230/6/124 228/6/124
f 229/6/125 231/6/125 232/6/125
f 229/6/125 232/6/125 230/6/125
f 231/6/126 233/6/126 234/6/126
f 231/6/126 234/6/126 232/6/126
f 233/6/127 235/6/127 236/6/127
f 233/6/127 236/6/127 234/6/127
f 235/6/128 209/6/128 212/6/128
f 235/6/128 212/6/128 236/6/128
f 212/6/7 211/6/7 214/6/7
f 209/6/3 213/6/3 210/6/3
f 212/6/7 214/6/7 216/6/7
f 209/6/3 215/6/3 213/6/3
f 212/6/7 216/6/7 218/6/7
f 209/6/3 217/6/3 215/6/3
f 212/6/7 218/6/7 220/6/7
f 209/6/3 219/6/3 217/6/3
f 212/6/7 220/6/7 222/6/7
f 209/6/3 221/6/3 219/6/3
f 212/6/7 222/6/7 224/6/7
f 209/6/3 223/6/3 221/6/3
f 212/6/7 224/6/7 226/6/7
f 209/6/3 225/6/3 223/6/3
f 212/6/7 226/6/7 228/6/7
f 209/6/3 227/6/3 225/6/3
f 212/6/7 228/6/7 230/6/7
f 209/6/3 229/6/3 227/6/3
f 212/6/7 230/6/7 232/6/7
f 209/6/3 231/6/3 229/6/3
f 212/6/7 232/6/7 234/6/7
f 209/6/3 233/6/3 231/6/3
f 212/6/7 234/6/7 236/6/7
f 209/6/3 235/6/3 233/6/3
f 237/6/118 238/6/118 239/6/118
f 237/6/118 239/6/118 240/6/118
f 238/6/119 241/6/119 242/6/119
f 238/6/119 242/6/119 239/6/119
f 241/6/120 243/6/120 244/6/120
f 241/6/120 244/6/120 242/6/120
f 243/6/24 245/6/24 246/6/24
f 243/6/24 246/6/24 244/6/24
f 245/6/121 247/6/121 248/6/121
f 245/6/121 248/6/121 246/6/121
f 247/6/29 249/6/29 250/6/29
f 247/6/29 250/6/29 248/6/29
f 249/6/122 251/6/122 252/6/122
f 249/6/122 252/6/122 250/6/122
f 251/6/123 253/6/123 254/6/123
f 251/6/123 254/6/123 252/6/123
f 253/6/32 255/6/32 256/6/32
f 253/6/32 256/6/32 254/6/32
f 255/6/124 257/6/124 258/6/124
f 255/6/124 258/6/124 256/6/124
f 257/6/125 259/6/125 260/6/125
f 257/6/125 260/6/125 258/6/125
f 259/6/126 261/6/126 262/6/126
f 259/6/126 262/6/126 260/6/126
f 261/6/127 263/6/127 264/6/127
f 261/6/127 264/6/127 262/6/127
f 263/6/128 237/6/128 240/6/128
f 263/6/128 240/6/128 264/6/128
f 240/6/7 239/6/7 242/6/7
f 237/6/3 241/6/3 238/6/3
f 240/6/7 242/6/7 244/6/7
f 237/6/3 243/6/3 241/6/3
f 240/6/7 244/6/7 246/6/7
f 237/6/3 245/6/3 243/6/3
f 240/6/7 246/6/7 248/6/7
f 237/6/3 247/6/3 245/6/3
f 240/6/7 248/6/7 250/6/7
f 237/6/3 249/6/3 247/6/3
f 240/6/7 250/6/7 252/6/7
f 237/6/3 251/6/3 249/6/3
f 240/6/7 252/6/7 254/6/7
f 237/6/3 253/6/3 251/6/3
f 240/6/7 254/6/7 256/6/7
f 237/6/3 255/6/3 253/6/3
f 240/6/7 256/6/7 258/6/7
f 237/6/3 257/6/3 255/6/3
f 240/6/7 258/6/7 260/6/7
f 237/6/3 259/6/3 257/6/3
f 240/6/7 260/6/7 262/6/7
f 237/6/3 261/6/3 259/6/3
f 240/6/7 262/6/7 264/6/7
f 237/6/3 263/6/3 261/6/3
f 265/7/129 266/7/129 267/7/129
f 268/7/129 265/7/129 267/7/129
f 269/7/130 270/7/130 266/7/130
f 265/7/130 269/7/130 266/7/130
f 271/7/131 272/7/131 270/7/131
f 269/7/131 271/7/131 270/7/131
f 273/7/132 274/7/132 272/7/132
f 271/7/132 273/7/132 272/7/132
f 275/7/133 276/7/133 274/7/133
f 273/7/133 275/7/133 274/7/133
f 277/7/134 278/7/134 276/7/134
f 275/7/134 277/7/134 276/7/134
f 279/7/135 280/7/135 278/7/135
f 277/7/135 279/7/135 278/7/135
f 281/7/136 282/7/136 280/7/136
f 279/7/136 281/7/136 280/7/136
f 283/7/137 284/7/137 282/7/137
f 281/7/137 283/7/137 282/7/137
f 285/7/138 286/7/138 284/7/138
f 283/7/138 285/7/138 284/7/138
f 287/7/139 288/7/139 286/7/139
f 285/7/139 287/7/139 286/7/139
f 289/7/140 290/7/140 288/7/140
f 287/7/140 289/7/140 288/7/140
f 291/7/141 292/7/141 290/7/141
f 289/7/141 291/7/141 290/7/141
f 293/7/142 294/7/142 292/7/142
f 291/7/142 293/7/142 292/7/142
f 295/7/143 296/7/143 294/7/143
f 293/7/143 295/7/143 294/7/143
f 268/7/144 267/7/144 296/7/144
f 295/7/144 268/7/144 296/7/144
f 269/7/9 265/7/9 268/7/9
f 271/7/9 269/7/9 268/7/9
f 273/7/9 271/7/9 268/7/9
f 275/7/9 273/7/9 268/7/9
f 277/7/9 275/7/9 268/7/9
f 279/7/9 277/7/9 268/7/9
f 281/7/9 279/7/9 268/7/9
f 283/7/9 281/7/9 268/7/9
f 285/7/9 283/7/9 268/7/9
f 287/7/9 285/7/9 268/7/9
f 289/7/9 287/7/9 268/7/9
f 291/7/9 289/7/9 268/7/9
f 293/7/9 291/7/9 268/7/9
f 295/7/9 293/7/9 268/7/9
f 266/7/24 270/7/24 267/7/24
f 270/7/24 272/7/24 267/7/24
f 272/7/24 274/7/24 267/7/24
f 274/7/24 276/7/24 267/7/24
f 276/7/24 278/7/24 267/7/24
f 278/7/24 280/7/24 267/7/24
f 280/7/24 282/7/24 267/7/24
f 282/7/24 284/7/24 267/7/24
f 284/7/24 286/7/24 267/7/24
f 286/7/24 288/7/24 267/7/24
f 288/7/24 290/7/24 267/7/24
f 290/7/24 292/7/24 267/7/24
f 292/7/24 294/7/24 267/7/24
f 294/7/24 296/7/24 267/7/24
f 297/7/129 298/7/129 299/7/129
f 300/7/129 297/7/129 299/7/129
f 301/7/145 302/7/145 298/7/145
f 297/7/145 301/7/145 298/7/145
f 303/7/131 304/7/131 302/7/131
f 301/7/131 303/7/131 302/7/131
f 305/7/132 306/7/132 304/7/132
f 303/7/132 305/7/132 304/7/132
f 307/7/133 308/7/133 306/7/133
f 305/7/133 307/7/133 306/7/133
f 309/7/134 310/7/134 308/7/134
f 307/7/134 309/7/134 308/7/134
f 311/7/146 312/7/146 310/7/146
f 309/7/146 311/7/146 310/7/146
f 313/7/136 314/7/136 312/7/136
f 311/7/136 313/7/136 312/7/136
f 315/7/147 316/7/147 314/7/147
f 313/7/147 315/7/147 314/7/147
f 317/7/148 318/7/148 316/7/148
f 315/7/148 317/7/148 316/7/148
f 319/7/139 320/7/139 318/7/139
f 317/7/139 319/7/139 318/7/139
f 321/7/140 322/7/140 320/7/140
f 319/7/140 321/7/140 320/7/140
f 323/7/141 324/7/141 322/7/141
f 321/7/141 323/7/141 322/7/141
f 325/7/149 326/7/149 324/7/149
f 323/7/149 325/7/149 324/7/149
f 327/7/143 328/7/143 326/7/143
f 325/7/143 327/7/143 326/7/143
f 300/7/144 299/7/144 328/7/144
f 327/7/144 300/7/144 328/7/144
f 301/7/9 297/7/9 300/7/9
f 303/7/9 301/7/9 300/7/9
f 305/7/9 303/7/9 300/7/9
f 307/7/9 305/7/9 300/7/9
f 309/7/9 307/7/9 300/7/9
f 311/7/9 309/7/9 300/7/9
f 313/7/9 311/7/9 300/7/9
f 315/7/9 313/7/9 300/7/9
f 317/7/9 315/7/9 300/7/9
f 319/7/9 317/7/9 300/7/9
f 321/7/9 319/7/9 300/7/9
f 323/7/9 321/7/9 300/7/9
f 325/7/9 323/7/9 300/7/9
f 327/7/9 325/7/9 300/7/9
f 298/7/24 302/7/24 299/7/24
f 302/7/24 304/7/24 299/7/24
f 304/7/24 306/7/24 299/7/24
f 306/7/24 308/7/24 299/7/24
f 308/7/24 310/7/24 299/7/24
f 310/7/24 312/7/24 299/7/24
f 312/7/24 314/7/24 299/7/24
f 314/7/24 316/7/24 299/7/24
f 316/7/24 318/7/24 299/7/24
f 318/7/24 320/7/24 299/7/24
f 320/7/24 322/7/24 299/7/24
f 322/7/24 324/7/24 299/7/24
f 324/7/24 326/7/24 299/7/24
f 326/7/24 328/7/24 299/7/24
f 329/8/150 330/8/150 331/8/150
f 332/8/150 329/8/150 331/8/150
f 333/8/151 334/8/151 330/8/151
f 329/8/151 333/8/151 330/8/151
f 335/8/152 336/8/152 334/8/152
f 333/8/152 335/8/152 334/8/152
f 337/8/153 338/8/153 336/8/153
f 335/8/153 337/8/153 336/8/153
f 339/8/154 340/8/154 338/8/154
f 337/8/154 339/8/154 338/8/154
f 341/8/155 342/8/155 340/8/155
f 339/8/155 341/8/155 340/8/155
f 343/8/156 344/8/156 342/8/156
f 341/8/156 343/8/156 342/8/156
f 332/8/157 331/8/157 344/8/157
f 343/8/157 332/8/157 344/8/157
f 333/8/9 329/8/9 332/8/9
f 335/8/9 333/8/9 332/8/9
f 337/8/9 335/8/9 332/8/9
f 339/8/9 337/8/9 332/8/9
f 341/8/9 339/8/9 332/8/9
f 343/8/9 341/8/9 332/8/9
f 330/8/24 334/8/24 331/8/24
f 334/8/24 336/8/24 331/8/24
f 336/8/24 338/8/24 331/8/24
f 338/8/24 340/8/24 331/8/24
f 340/8/24 342/8/24 331/8/24
f 342/8/24 344/8/24 331/8/24
f 345/9/158 346/9/158 347/9/158
f 348/9/158 345/9/158 347/9/158
f 349/9/159 350/9/159 346/9/159
f 345/9/159 349/9/159 346/9/159
f 351/9/160 352/9/160 350/9/160
f 349/9/160 351/9/160 350/9/160
f 353/9/5 354/9/5 352/9/5
f 351/9/5 353/9/5 352/9/5
f 355/9/161 356/9/161 354/9/161
f 353/9/161 355/9/161 354/9/161
f 357/9/162 358/9/162 356/9/162
f 355/9/162 357/9/162 356/9/162
f 359/9/163 360/9/163 358/9/163
f 357/9/163 359/9/163 358/9/163
f 361/9/164 362/9/164 360/9/164
f 359/9/164 361/9/164 360/9/164
f 363/9/165 364/9/165 362/9/165
f 361/9/165 363/9/165 362/9/165
f 365/9/166 366/9/166 364/9/166
f 363/9/166 365/9/166 364/9/166
f 367/9/167 368/9/167 366/9/167
f 365/9/167 367/9/167 366/9/167
f 369/9/168 370/9/168 368/9/168
f 367/9/168 369/9/168 368/9/168
f 371/9/169 372/9/169 370/9/169
f 369/9/169 371/9/169 370/9/169
f 348/9/170 347/9/170 372/9/170
f 371/9/170 348/9/170 372/9/170
f 349/9/9 345/9/9 348/9/9
f 351/9/9 349/9/9 348/9/9
f 353/9/9 351/9/9 348/9/9
f 355/9/9 353/9/9 348/9/9
f 357/9/9 355/9/9 348/9/9
f 359/9/9 357/9/9 348/9/9
f 361/9/9 359/9/9 348/9/9
f 363/9/9 361/9/9 348/9/9
f 365/9/9 363/9/9 348/9/9
f 367/9/9 365/9/9 348/9/9
f 369/9/9 367/9/9 348/9/9
f 371/9/9 369/9/9 348/9/9
f 346/9/171 373/9/171 374/9/171
f 347/9/172 346/9/172 374/9/172
f 350/9/173 375/9/173 373/9/173
f 346/9/174 350/9/174 373/9/174
f 352/9/175 376/9/175 375/9/175
f 350/9/176 352/9/176 375/9/176
f 354/9/177 377/9/177 376/9/177
f 352/9/178 354/9/178 376/9/178
f 356/9/179 378/9/179 377/9/179
f 354/9/180 356/9/180 377/9/180
f 358/9/181 379/9/181 378/9/181
f 356/9/182 358/9/182 378/9/182
f 360/9/183 380/9/183 379/9/183
f 358/9/184 360/9/184 379/9/184
f 362/9/185 381/9/185 380/9/185
f 360/9/186 362/9/186 380/9/186
f 364/9/187 382/9/187 381/9/187
f 362/9/188 364/9/188 381/9/188
f 366/9/189 383/9/189 382/9/189
f 364/9/190 366/9/190 382/9/190
f 368/9/191 384/9/191 383/9/191
f 366/9/192 368/9/192 383/9/192
f 370/9/193 385/9/193 384/9/193
f 368/9/194 370/9/194 384/9/194
f 372/9/195 386/9/195 385/9/195
f 370/9/196 372/9/196 385/9/196
f 347/9/197 374/9/197 386/9/197
f 372/9/198 347/9/198 386/9/198
f 373/9/24 375/9/24 374/9/24
f 375/9/24 376/9/24 374/9/24
f 376/9/24 377/9/24 374/9/24
f 377/9/24 378/9/24 374/9/24
f 378/9/24 379/9/24 374/9/24
f 379/9/24 380/9/24 374/9/24
f 380/9/24 381/9/24 374/9/24
f 381/9/24 382/9/24 374/9/24
f 382/9/24 383/9/24 374/9/24
f 383/9/24 384/9/24 374/9/24
f 384/9/24 385/9/24 374/9/24
f 385/9/24 386/9/24 374/9/24
f 387/8/199 388/8/199 389/8/199
f 390/8/199 387/8/199 389/8/199
f 391/8/200 392/8/200 388/8/200
f 387/8/200 391/8/200 388/8/200
f 393/8/201 394/8/201 392/8/201
f 391/8/201 393/8/201 392/8/201
f 395/8/202 396/8/202 394/8/202
f 393/8/202 395/8/202 394/8/202
f 397/8/203 398/8/203 396/8/203
f 395/8/203 397/8/203 396/8/203
f 399/8/204 400/8/204 398/8/204
f 397/8/204 399/8/204 398/8/204
f 401/8/205 402/8/205 400/8/205
f 399/8/205 401/8/205 400/8/205
f 390/8/206 389/8/206 402/8/206
f 401/8/206 390/8/206 402/8/206
f 391/8/9 387/8/9 390/8/9
f 393/8/9 391/8/9 390/8/9
f 395/8/9 393/8/9 390/8/9
f 397/8/9 395/8/9 390/8/9
f 399/8/9 397/8/9 390/8/9
f 401/8/9 399/8/9 390/8/9
f 388/8/24 392/8/24 389/8/24
f 392/8/24 394/8/24 389/8/24
f 394/8/24 396/8/24 389/8/24
f 396/8/24 398/8/24 389/8/24
f 398/8/24 400/8/24 389/8/24
f 400/8/24 402/8/24 389/8/24
f 403/1/1 404/1/1 405/1/1
f 406/1/1 403/1/1 405/1/1
f 407/1/2 408/1/2 404/1/2
f 403/1/2 407/1/2 404/1/2
f 409/1/3 410/1/3 408/1/3
f 407/1/3 409/1/3 408/1/3
f 411/1/4 412/1/4 410/1/4
f 409/1/4 411/1/4 410/1/4
f 413/1/5 414/1/5 412/1/5
f 411/1/5 413/1/5 412/1/5
f 415/1/6 416/1/6 414/1/6
f 413/1/6 415/1/6 414/1/6
f 417/1/7 418/1/7 416/1/7
f 415/1/7 417/1/7 416/1/7
f 406/1/8 405/1/8 418/1/8
f 417/1/8 406/1/8 418/1/8
f 407/1/9 403/1/9 406/1/9
f 409/1/9 407/1/9 406/1/9
f 411/1/9 409/1/9 406/1/9
f 413/1/9 411/1/9 406/1/9
f 415/1/9 413/1/9 406/1/9
f 417/1/9 415/1/9 406/1/9
f 404/1/24 408/1/24 405/1/24
f 408/1/24 410/1/24 405/1/24
f 410/1/24 412/1/24 405/1/24
f 412/1/24 414/1/24 405/1/24
f 414/1/24 416/1/24 405/1/24
f 416/1/24 418/1/24 405/1/24
f 419/5/1 420/5/1 421/5/1
f 422/5/1 419/5/1 421/5/1
f 423/5/2 424/5/2 420/5/2
f 419/5/2 423/5/2 420/5/2
f 425/5/3 426/5/3 424/5/3
f 423/5/3 425/5/3 424/5/3
f 427/5/4 428/5/4 426/5/4
f 425/5/4 427/5/4 426/5/4
f 429/5/5 430/5/5 428/5/5
f 427/5/5 429/5/5 428/5/5
f 431/5/6 432/5/6 430/5/6
f 429/5/6 431/5/6 430/5/6
f 433/5/7 434/5/7 432/5/7
f 431/5/7 433/5/7 432/5/7
f 422/5/8 421/5/8 434/5/8
f 433/5/8 422/5/8 434/5/8
f 423/5/9 419/5/9 422/5/9
f 425/5/9 423/5/9 422/5/9
f 427/5/9 425/5/9 422/5/9
f 429/5/9 427/5/9 422/5/9
f 431/5/9 429/5/9 422/5/9
f 433/5/9 431/5/9 422/5/9
f 420/5/207 435/5/207 436/5/207
f 421/5/208 420/5/208 436/5/208
f 424/5/209 437/5/209 435/5/209
f 420/5/210 424/5/210 435/5/210
f 426/5/211 438/5/211 437/5/211
f 424/5/212 426/5/212 437/5/212
f 428/5/213 439/5/213 438/5/213
f 426/5/214 428/5/214 438/5/214
f 430/5/215 440/5/215 439/5/215
f 428/5/216 430/5/216 439/5/216
f 432/5/217 441/5/217 440/5/217
f 430/5/218 432/5/218 440/5/218
f 434/5/219 442/5/219 441/5/219
f 432/5/220 434/5/220 441/5/220
f 421/5/221 436/5/221 442/5/221
f 434/5/222 421/5/222 442/5/222
f 435/5/24 437/5/24 436/5/24
f 437/5/24 438/5/24 436/5/24
f 438/5/24 439/5/24 436/5/24
f 439/5/24 440/5/24 436/5/24
f 440/5/24 441/5/24 436/5/24
f 441/5/24 442/5/24 436/5/24
f 443/8/1 444/8/1 445/8/1
f 446/8/1 443/8/1 445/8/1
f 447/8/223 448/8/223 444/8/223
f 443/8/223 447/8/223 444/8/223
f 449/8/3 450/8/3 448/8/3
f 447/8/3 449/8/3 448/8/3
f 451/8/39 452/8/39 450/8/39
f 449/8/39 451/8/39 450/8/39
f 453/8/5 454/8/5 452/8/5
f 451/8/5 453/8/5 452/8/5
f 455/8/224 456/8/224 454/8/224
f 453/8/224 455/8/224 454/8/224
f 457/8/7 458/8/7 456/8/7
f 455/8/7 457/8/7 456/8/7
f 446/8/8 445/8/8 458/8/8
f 457/8/8 446/8/8 458/8/8
f 447/8/9 443/8/9 446/8/9
f 449/8/9 447/8/9 446/8/9
f 451/8/9 449/8/9 446/8/9
f 453/8/9 451/8/9 446/8/9
f 455/8/9 453/8/9 446/8/9
f 457/8/9 455/8/9 446/8/9
f 444/7/225 459/7/225 460/7/225
f 445/7/226 444/7/226 460/7/226
f 448/7/227 461/7/227 459/7/227
f 444/7/228 448/7/228 459/7/228
f 450/7/229 462/7/229 461/7/229
f 448/7/230 450/7/230 461/7/230
f 452/7/231 463/7/231 462/7/231
f 450/7/232 452/7/232 462/7/232
f 454/7/233 464/7/233 463/7/233
f 452/7/234 454/7/234 463/7/234
f 456/7/235 465/7/235 464/7/235
f 454/7/236 456/7/236 464/7/236
f 458/7/237 466/7/237 465/7/237
f 456/7/238 458/7/238 465/7/238
f 445/7/239 460/7/239 466/7/239
f 458/7/240 445/7/240 466/7/240
f 459/7/24 461/7/24 460/7/24
f 461/7/24 462/7/24 460/7/24
f 462/7/24 463/7/24 460/7/24
f 463/7/24 464/7/24 460/7/24
f 464/7/24 465/7/24 460/7/24
f 465/7/24 466/7/24 460/7/24
f 467/1/1 468/1/1 469/1/1
f 470/1/1 467/1/1 469/1/1
f 471/1/38 472/1/38 468/1/38
f 467/1/38 471/1/38 468/1/38
f 473/1/3 474/1/3 472/1/3
f 471/1/3 473/1/3 472/1/3
f 475/1/39 476/1/39 474/1/39
f 473/1/39 475/1/39 474/1/39
f 477/1/5 478/1/5 476/1/5
f 475/1/5 477/1/5 476/1/5
f 479/1/40 480/1/40 478/1/40
f 477/1/40 479/1/40 478/1/40
f 481/1/7 482/1/7 480/1/7
f 479/1/7 481/1/7 480/1/7
f 470/1/41 469/1/41 482/1/41
f 481/1/41 470/1/41 482/1/41
f 471/1/9 467/1/9 470/1/9
f 473/1/9 471/1/9 470/1/9
f 475/1/9 473/1/9 470/1/9
f 477/1/9 475/1/9 470/1/9
f 479/1/9 477/1/9 470/1/9
f 481/1/9 479/1/9 470/1/9
f 468/1/24 472/1/24 469/1/24
f 472/1/24 474/1/24 469/1/24
f 474/1/24 476/1/24 469/1/24
f 476/1/24 478/1/24 469/1/24
f 478/1/24 480/1/24 469/1/24
f 480/1/24 482/1/24 469/1/24
f 483/1/1 484/1/1 485/1/1
f 486/1/1 483/1/1 485/1/1
f 487/1/38 488/1/38 484/1/38
f 483/1/38 487/1/38 484/1/38
f 489/1/3 490/1/3 488/1/3
f 487/1/3 489/1/3 488/1/3
f 491/1/39 492/1/39 490/1/39
f 489/1/39 491/1/39 490/1/39
f 493/1/5 494/1/5 492/1/5
f 491/1/5 493/1/5 492/1/5
f 495/1/40 496/1/40 494/1/40
f 493/1/40 495/1/40 494/1/40
f 497/1/7 498/1/7 496/1/7
f 495/1/7 497/1/7 496/1/7
f 486/1/41 485/1/41 498/1/41
f 497/1/41 486/1/41 498/1/41
f 487/1/9 483/1/9 486/1/9
f 489/1/9 487/1/9 486/1/9
f 491/1/9 489/1/9 486/1/9
f 493/1/9 491/1/9 486/1/9
f 495/1/9 493/1/9 486/1/9
f 497/1/9 495/1/9 486/1/9
f 484/1/24 488/1/24 485/1/24
f 488/1/24 490/1/24 485/1/24
f 490/1/24 492/1/24 485/1/24
f 492/1/24 494/1/24 485/1/24
f 494/1/24 496/1/24 485/1/24
f 496/1/24 498/1/24 485/1/24
f 499/1/1 500/1/1 501/1/1
f 502/1/1 499/1/1 501/1/1
f 503/1/38 504/1/38 500/1/38
f 499/1/38 503/1/38 500/1/38
f 505/1/3 506/1/3 504/1/3
f 503/1/3 505/1/3 504/1/3
f 507/1/39 508/1/39 506/1/39
f 505/1/39 507/1/39 506/1/39
f 509/1/5 510/1/5 508/1/5
f 507/1/5 509/1/5 508/1/5
f 511/1/40 512/1/40 510/1/40
f 509/1/40 511/1/40 510/1/40
f 513/1/7 514/1/7 512/1/7
f 511/1/7 513/1/7 512/1/7
f 502/1/41 501/1/41 514/1/41
f 513/1/41 502/1/41 514/1/41
f 503/1/9 499/1/9 502/1/9
f 505/1/9 503/1/9 502/1/9
f 507/1/9 505/1/9 502/1/9
f 509/1/9 507/1/9 502/1/9
f 511/1/9 509/1/9 502/1/9
f 513/1/9 511/1/9 502/1/9
f 500/1/24 504/1/24 501/1/24
f 504/1/24 506/1/24 501/1/24
f 506/1/24 508/1/24 501/1/24
f 508/1/24 510/1/24 501/1/24
f 510/1/24 512/1/24 501/1/24
f 512/1/24 514/1/24 501/1/24
f 515/1/1 516/1/1 517/1/1
f 518/1/1 515/1/1 517/1/1
f 519/1/38 520/1/38 516/1/38
f 515/1/38 519/1/38 516/1/38
f 521/1/3 522/1/3 520/1/3
f 519/1/3 521/1/3 520/1/3
f 523/1/39 524/1/39 522/1/39
f 521/1/39 523/1/39 522/1/39
f 525/1/5 526/1/5 524/1/5
f 523/1/5 525/1/5 524/1/5
f 527/1/40 528/1/40 526/1/40
f 525/1/40 527/1/40 526/1/40
f 529/1/7 530/1/7 528/1/7
f 527/1/7 529/1/7 528/1/7
f 518/1/41 517/1/41 530/1/41
f 529/1/41 518/1/41 530/1/41
f 519/1/9 515/1/9 518/1/9
f 521/1/9 519/1/9 518/1/9
f 523/1/9 521/1/9 518/1/9
f 525/1/9 523/1/9 518/1/9
f 527/1/9 525/1/9 518/1/9
f 529/1/9 527/1/9 518/1/9
f 516/1/24 520/1/24 517/1/24
f 520/1/24 522/1/24 517/1/24
f 522/1/24 524/1/24 517/1/24
f 524/1/24 526/1/24 517/1/24
f 526/1/24 528/1/24 517/1/24
f 528/1/24 530/1/24 517/1/24
