# FluidCargoStore - generated by Tools/generate_meshes.py, do not hand-edit
# Regenerate with: python Tools/generate_meshes.py
o FluidCargoStore
v -6.40000 0.00000 -7.50000
v -6.40000 0.40000 -7.50000
v 6.40000 0.40000 -7.50000
v 6.40000 0.00000 -7.50000
v -7.50000 0.00000 -6.40000
v -7.50000 0.40000 -6.40000
v -7.50000 0.00000 6.40000
v -7.50000 0.40000 6.40000
v -6.40000 0.00000 7.50000
v -6.40000 0.40000 7.50000
v 6.40000 0.00000 7.50000
v 6.40000 0.40000 7.50000
v 7.50000 0.00000 6.40000
v 7.50000 0.40000 6.40000
v 7.50000 0.00000 -6.40000
v 7.50000 0.40000 -6.40000
v -6.20526 0.70000 -7.27179
v 6.20526 0.70000 -7.27179
v -7.27179 0.70000 -6.20526
v -7.27179 0.70000 6.20526
v -6.20526 0.70000 7.27179
v 6.20526 0.70000 7.27179
v 7.27179 0.70000 6.20526
v 7.27179 0.70000 -6.20526
v 6.00000 0.45000 -7.25000
v 6.00000 9.10000 -7.25000
v 7.00000 9.10000 -7.25000
v 7.00000 0.45000 -7.25000
v 5.75000 0.45000 -7.00000
v 5.75000 9.10000 -7.00000
v 5.75000 0.45000 -6.00000
v 5.75000 9.10000 -6.00000
v 6.00000 0.45000 -5.75000
v 6.00000 9.10000 -5.75000
v 7.00000 0.45000 -5.75000
v 7.00000 9.10000 -5.75000
v 7.25000 0.45000 -6.00000
v 7.25000 9.10000 -6.00000
v 7.25000 0.45000 -7.00000
v 7.25000 9.10000 -7.00000
v 6.11094 9.30000 -7.08359
v 6.88906 9.30000 -7.08359
v 5.91641 9.30000 -6.88906
v 5.91641 9.30000 -6.11094
v 6.11094 9.30000 -5.91641
v 6.88906 9.30000 -5.91641
v 7.08359 9.30000 -6.11094
v 7.08359 9.30000 -6.88906
v 6.00000 0.45000 5.75000
v 6.00000 9.10000 5.75000
v 7.00000 9.10000 5.75000
v 7.00000 0.45000 5.75000
v 5.75000 0.45000 6.00000
v 5.75000 9.10000 6.00000
v 5.75000 0.45000 7.00000
v 5.75000 9.10000 7.00000
v 6.00000 0.45000 7.25000
v 6.00000 9.10000 7.25000
v 7.00000 0.45000 7.25000
v 7.00000 9.10000 7.25000
v 7.25000 0.45000 7.00000
v 7.25000 9.10000 7.00000
v 7.25000 0.45000 6.00000
v 7.25000 9.10000 6.00000
v 6.11094 9.30000 5.91641
v 6.88906 9.30000 5.91641
v 5.91641 9.30000 6.11094
v 5.91641 9.30000 6.88906
v 6.11094 9.30000 7.08359
v 6.88906 9.30000 7.08359
v 7.08359 9.30000 6.88906
v 7.08359 9.30000 6.11094
v -7.00000 0.45000 -7.25000
v -7.00000 9.10000 -7.25000
v -6.00000 9.10000 -7.25000
v -6.00000 0.45000 -7.25000
v -7.25000 0.45000 -7.00000
v -7.25000 9.10000 -7.00000
v -7.25000 0.45000 -6.00000
v -7.25000 9.10000 -6.00000
v -7.00000 0.45000 -5.75000
v -7.00000 9.10000 -5.75000
v -6.00000 0.45000 -5.75000
v -6.00000 9.10000 -5.75000
v -5.75000 0.45000 -6.00000
v -5.75000 9.10000 -6.00000
v -5.75000 0.45000 -7.00000
v -5.75000 9.10000 -7.00000
v -6.88906 9.30000 -7.08359
v -6.11094 9.30000 -7.08359
v -7.08359 9.30000 -6.88906
v -7.08359 9.30000 -6.11094
v -6.88906 9.30000 -5.91641
v -6.11094 9.30000 -5.91641
v -5.91641 9.30000 -6.11094
v -5.91641 9.30000 -6.88906
v -7.00000 0.45000 5.75000
v -7.00000 9.10000 5.75000
v -6.00000 9.10000 5.75000
v -6.00000 0.45000 5.75000
v -7.25000 0.45000 6.00000
v -7.25000 9.10000 6.00000
v -7.25000 0.45000 7.00000
v -7.25000 9.10000 7.00000
v -7.00000 0.45000 7.25000
v -7.00000 9.10000 7.25000
v -6.00000 0.45000 7.25000
v -6.00000 9.10000 7.25000
v -5.75000 0.45000 7.00000
v -5.75000 9.10000 7.00000
v -5.75000 0.45000 6.00000
v -5.75000 9.10000 6.00000
v -6.88906 9.30000 5.91641
v -6.11094 9.30000 5.91641
v -7.08359 9.30000 6.11094
v -7.08359 9.30000 6.88906
v -6.88906 9.30000 7.08359
v -6.11094 9.30000 7.08359
v -5.91641 9.30000 6.88906
v -5.91641 9.30000 6.11094
v -5.05000 0.60000 -6.77500
v -5.05000 1.10000 -6.77500
v 5.05000 1.10000 -6.77500
v 5.05000 0.60000 -6.77500
v -5.20000 0.60000 -6.62500
v -5.20000 1.10000 -6.62500
v -5.20000 0.60000 -6.37500
v -5.20000 1.10000 -6.37500
v -5.05000 0.60000 -6.22500
v -5.05000 1.10000 -6.22500
v 5.05000 0.60000 -6.22500
v 5.05000 1.10000 -6.22500
v 5.20000 0.60000 -6.37500
v 5.20000 1.10000 -6.37500
v 5.20000 0.60000 -6.62500
v 5.20000 1.10000 -6.62500
v -5.05000 0.60000 6.22500
v -5.05000 1.10000 6.22500
v 5.05000 1.10000 6.22500
v 5.05000 0.60000 6.22500
v -5.20000 0.60000 6.37500
v -5.20000 1.10000 6.37500
v -5.20000 0.60000 6.62500
v -5.20000 1.10000 6.62500
v -5.05000 0.60000 6.77500
v -5.05000 1.10000 6.77500
v 5.05000 0.60000 6.77500
v 5.05000 1.10000 6.77500
v 5.20000 0.60000 6.62500
v 5.20000 1.10000 6.62500
v 5.20000 0.60000 6.37500
v 5.20000 1.10000 6.37500
v -5.05000 8.10000 -6.77500
v -5.05000 8.60000 -6.77500
v 5.05000 8.60000 -6.77500
v 5.05000 8.10000 -6.77500
v -5.20000 8.10000 -6.62500
v -5.20000 8.60000 -6.62500
v -5.20000 8.10000 -6.37500
v -5.20000 8.60000 -6.37500
v -5.05000 8.10000 -6.22500
v -5.05000 8.60000 -6.22500
v 5.05000 8.10000 -6.22500
v 5.05000 8.60000 -6.22500
v 5.20000 8.10000 -6.37500
v 5.20000 8.60000 -6.37500
v 5.20000 8.10000 -6.62500
v 5.20000 8.60000 -6.62500
v -5.05000 8.10000 6.22500
v -5.05000 8.60000 6.22500
v 5.05000 8.60000 6.22500
v 5.05000 8.10000 6.22500
v -5.20000 8.10000 6.37500
v -5.20000 8.60000 6.37500
v -5.20000 8.10000 6.62500
v -5.20000 8.60000 6.62500
v -5.05000 8.10000 6.77500
v -5.05000 8.60000 6.77500
v 5.05000 8.10000 6.77500
v 5.05000 8.60000 6.77500
v 5.20000 8.10000 6.62500
v 5.20000 8.60000 6.62500
v 5.20000 8.10000 6.37500
v 5.20000 8.60000 6.37500
v -6.80000 0.95000 -7.00000
v -6.80000 1.50000 -7.00000
v 6.80000 1.50000 -7.00000
v 6.80000 0.95000 -7.00000
v -7.00000 0.95000 -6.80000
v -7.00000 1.50000 -6.80000
v -7.00000 0.95000 -6.40000
v -7.00000 1.50000 -6.40000
v -6.80000 0.95000 -6.20000
v -6.80000 1.50000 -6.20000
v 6.80000 0.95000 -6.20000
v 6.80000 1.50000 -6.20000
v 7.00000 0.95000 -6.40000
v 7.00000 1.50000 -6.40000
v 7.00000 0.95000 -6.80000
v 7.00000 1.50000 -6.80000
v -6.80000 0.95000 6.20000
v -6.80000 1.50000 6.20000
v 6.80000 1.50000 6.20000
v 6.80000 0.95000 6.20000
v -7.00000 0.95000 6.40000
v -7.00000 1.50000 6.40000
v -7.00000 0.95000 6.80000
v -7.00000 1.50000 6.80000
v -6.80000 0.95000 7.00000
v -6.80000 1.50000 7.00000
v 6.80000 0.95000 7.00000
v 6.80000 1.50000 7.00000
v 7.00000 0.95000 6.80000
v 7.00000 1.50000 6.80000
v 7.00000 0.95000 6.40000
v 7.00000 1.50000 6.40000
v -6.35000 1.00000 -5.72880
v -6.35000 1.50000 -5.72880
v 6.35000 1.50000 -5.72880
v 6.35000 1.00000 -5.72880
v -6.50000 1.00000 -5.57880
v -6.50000 1.50000 -5.57880
v -6.50000 1.00000 -4.34120
v -6.50000 1.50000 -4.34120
v -6.35000 1.00000 -4.19120
v -6.35000 1.50000 -4.19120
v 6.35000 1.00000 -4.19120
v 6.35000 1.50000 -4.19120
v 6.50000 1.00000 -4.34120
v 6.50000 1.50000 -4.34120
v 6.50000 1.00000 -5.57880
v 6.50000 1.50000 -5.57880
v -6.35000 1.00000 -3.24880
v -6.35000 1.50000 -3.24880
v 6.35000 1.50000 -3.24880
v 6.35000 1.00000 -3.24880
v -6.50000 1.00000 -3.09880
v -6.50000 1.50000 -3.09880
v -6.50000 1.00000 -1.86120
v -6.50000 1.50000 -1.86120
v -6.35000 1.00000 -1.71120
v -6.35000 1.50000 -1.71120
v 6.35000 1.00000 -1.71120
v 6.35000 1.50000 -1.71120
v 6.50000 1.00000 -1.86120
v 6.50000 1.50000 -1.86120
v 6.50000 1.00000 -3.09880
v 6.50000 1.50000 -3.09880
v -6.35000 1.00000 -0.76880
v -6.35000 1.50000 -0.76880
v 6.35000 1.50000 -0.76880
v 6.35000 1.00000 -0.76880
v -6.50000 1.00000 -0.61880
v -6.50000 1.50000 -0.61880
v -6.50000 1.00000 0.61880
v -6.50000 1.50000 0.61880
v -6.35000 1.00000 0.76880
v -6.35000 1.50000 0.76880
v 6.35000 1.00000 0.76880
v 6.35000 1.50000 0.76880
v 6.50000 1.00000 0.61880
v 6.50000 1.50000 0.61880
v 6.50000 1.00000 -0.61880
v 6.50000 1.50000 -0.61880
v -6.35000 1.00000 1.71120
v -6.35000 1.50000 1.71120
v 6.35000 1.50000 1.71120
v 6.35000 1.00000 1.71120
v -6.50000 1.00000 1.86120
v -6.50000 1.50000 1.86120
v -6.50000 1.00000 3.09880
v -6.50000 1.50000 3.09880
v -6.35000 1.00000 3.24880
v -6.35000 1.50000 3.24880
v 6.35000 1.00000 3.24880
v 6.35000 1.50000 3.24880
v 6.50000 1.00000 3.09880
v 6.50000 1.50000 3.09880
v 6.50000 1.00000 1.86120
v 6.50000 1.50000 1.86120
v -6.35000 1.00000 4.19120
v -6.35000 1.50000 4.19120
v 6.35000 1.50000 4.19120
v 6.35000 1.00000 4.19120
v -6.50000 1.00000 4.34120
v -6.50000 1.50000 4.34120
v -6.50000 1.00000 5.57880
v -6.50000 1.50000 5.57880
v -6.35000 1.00000 5.72880
v -6.35000 1.50000 5.72880
v 6.35000 1.00000 5.72880
v 6.35000 1.50000 5.72880
v 6.50000 1.00000 5.57880
v 6.50000 1.50000 5.57880
v 6.50000 1.00000 4.34120
v 6.50000 1.50000 4.34120
v -6.80000 3.55000 -7.00000
v -6.80000 4.10000 -7.00000
v 6.80000 4.10000 -7.00000
v 6.80000 3.55000 -7.00000
v -7.00000 3.55000 -6.80000
v -7.00000 4.10000 -6.80000
v -7.00000 3.55000 -6.40000
v -7.00000 4.10000 -6.40000
v -6.80000 3.55000 -6.20000
v -6.80000 4.10000 -6.20000
v 6.80000 3.55000 -6.20000
v 6.80000 4.10000 -6.20000
v 7.00000 3.55000 -6.40000
v 7.00000 4.10000 -6.40000
v 7.00000 3.55000 -6.80000
v 7.00000 4.10000 -6.80000
v -6.80000 3.55000 6.20000
v -6.80000 4.10000 6.20000
v 6.80000 4.10000 6.20000
v 6.80000 3.55000 6.20000
v -7.00000 3.55000 6.40000
v -7.00000 4.10000 6.40000
v -7.00000 3.55000 6.80000
v -7.00000 4.10000 6.80000
v -6.80000 3.55000 7.00000
v -6.80000 4.10000 7.00000
v 6.80000 3.55000 7.00000
v 6.80000 4.10000 7.00000
v 7.00000 3.55000 6.80000
v 7.00000 4.10000 6.80000
v 7.00000 3.55000 6.40000
v 7.00000 4.10000 6.40000
v -6.35000 3.60000 -5.72880
v -6.35000 4.10000 -5.72880
v 6.35000 4.10000 -5.72880
v 6.35000 3.60000 -5.72880
v -6.50000 3.60000 -5.57880
v -6.50000 4.10000 -5.57880
v -6.50000 3.60000 -4.34120
v -6.50000 4.10000 -4.34120
v -6.35000 3.60000 -4.19120
v -6.35000 4.10000 -4.19120
v 6.35000 3.60000 -4.19120
v 6.35000 4.10000 -4.19120
v 6.50000 3.60000 -4.34120
v 6.50000 4.10000 -4.34120
v 6.50000 3.60000 -5.57880
v 6.50000 4.10000 -5.57880
v -6.35000 3.60000 -3.24880
v -6.35000 4.10000 -3.24880
v 6.35000 4.10000 -3.24880
v 6.35000 3.60000 -3.24880
v -6.50000 3.60000 -3.09880
v -6.50000 4.10000 -3.09880
v -6.50000 3.60000 -1.86120
v -6.50000 4.10000 -1.86120
v -6.35000 3.60000 -1.71120
v -6.35000 4.10000 -1.71120
v 6.35000 3.60000 -1.71120
v 6.35000 4.10000 -1.71120
v 6.50000 3.60000 -1.86120
v 6.50000 4.10000 -1.86120
v 6.50000 3.60000 -3.09880
v 6.50000 4.10000 -3.09880
v -6.35000 3.60000 -0.76880
v -6.35000 4.10000 -0.76880
v 6.35000 4.10000 -0.76880
v 6.35000 3.60000 -0.76880
v -6.50000 3.60000 -0.61880
v -6.50000 4.10000 -0.61880
v -6.50000 3.60000 0.61880
v -6.50000 4.10000 0.61880
v -6.35000 3.60000 0.76880
v -6.35000 4.10000 0.76880
v 6.35000 3.60000 0.76880
v 6.35000 4.10000 0.76880
v 6.50000 3.60000 0.61880
v 6.50000 4.10000 0.61880
v 6.50000 3.60000 -0.61880
v 6.50000 4.10000 -0.61880
v -6.35000 3.60000 1.71120
v -6.35000 4.10000 1.71120
v 6.35000 4.10000 1.71120
v 6.35000 3.60000 1.71120
v -6.50000 3.60000 1.86120
v -6.50000 4.10000 1.86120
v -6.50000 3.60000 3.09880
v -6.50000 4.10000 3.09880
v -6.35000 3.60000 3.24880
v -6.35000 4.10000 3.24880
v 6.35000 3.60000 3.24880
v 6.35000 4.10000 3.24880
v 6.50000 3.60000 3.09880
v 6.50000 4.10000 3.09880
v 6.50000 3.60000 1.86120
v 6.50000 4.10000 1.86120
v -6.35000 3.60000 4.19120
v -6.35000 4.10000 4.19120
v 6.35000 4.10000 4.19120
v 6.35000 3.60000 4.19120
v -6.50000 3.60000 4.34120
v -6.50000 4.10000 4.34120
v -6.50000 3.60000 5.57880
v -6.50000 4.10000 5.57880
v -6.35000 3.60000 5.72880
v -6.35000 4.10000 5.72880
v 6.35000 3.60000 5.72880
v 6.35000 4.10000 5.72880
v 6.50000 3.60000 5.57880
v 6.50000 4.10000 5.57880
v 6.50000 3.60000 4.34120
v 6.50000 4.10000 4.34120
v -6.80000 6.15000 -7.00000
v -6.80000 6.70000 -7.00000
v 6.80000 6.70000 -7.00000
v 6.80000 6.15000 -7.00000
v -7.00000 6.15000 -6.80000
v -7.00000 6.70000 -6.80000
v -7.00000 6.15000 -6.40000
v -7.00000 6.70000 -6.40000
v -6.80000 6.15000 -6.20000
v -6.80000 6.70000 -6.20000
v 6.80000 6.15000 -6.20000
v 6.80000 6.70000 -6.20000
v 7.00000 6.15000 -6.40000
v 7.00000 6.70000 -6.40000
v 7.00000 6.15000 -6.80000
v 7.00000 6.70000 -6.80000
v -6.80000 6.15000 6.20000
v -6.80000 6.70000 6.20000
v 6.80000 6.70000 6.20000
v 6.80000 6.15000 6.20000
v -7.00000 6.15000 6.40000
v -7.00000 6.70000 6.40000
v -7.00000 6.15000 6.80000
v -7.00000 6.70000 6.80000
v -6.80000 6.15000 7.00000
v -6.80000 6.70000 7.00000
v 6.80000 6.15000 7.00000
v 6.80000 6.70000 7.00000
v 7.00000 6.15000 6.80000
v 7.00000 6.70000 6.80000
v 7.00000 6.15000 6.40000
v 7.00000 6.70000 6.40000
v -6.35000 6.20000 -5.72880
v -6.35000 6.70000 -5.72880
v 6.35000 6.70000 -5.72880
v 6.35000 6.20000 -5.72880
v -6.50000 6.20000 -5.57880
v -6.50000 6.70000 -5.57880
v -6.50000 6.20000 -4.34120
v -6.50000 6.70000 -4.34120
v -6.35000 6.20000 -4.19120
v -6.35000 6.70000 -4.19120
v 6.35000 6.20000 -4.19120
v 6.35000 6.70000 -4.19120
v 6.50000 6.20000 -4.34120
v 6.50000 6.70000 -4.34120
v 6.50000 6.20000 -5.57880
v 6.50000 6.70000 -5.57880
v -6.35000 6.20000 -3.24880
v -6.35000 6.70000 -3.24880
v 6.35000 6.70000 -3.24880
v 6.35000 6.20000 -3.24880
v -6.50000 6.20000 -3.09880
v -6.50000 6.70000 -3.09880
v -6.50000 6.20000 -1.86120
v -6.50000 6.70000 -1.86120
v -6.35000 6.20000 -1.71120
v -6.35000 6.70000 -1.71120
v 6.35000 6.20000 -1.71120
v 6.35000 6.70000 -1.71120
v 6.50000 6.20000 -1.86120
v 6.50000 6.70000 -1.86120
v 6.50000 6.20000 -3.09880
v 6.50000 6.70000 -3.09880
v -6.35000 6.20000 -0.76880
v -6.35000 6.70000 -0.76880
v 6.35000 6.70000 -0.76880
v 6.35000 6.20000 -0.76880
v -6.50000 6.20000 -0.61880
v -6.50000 6.70000 -0.61880
v -6.50000 6.20000 0.61880
v -6.50000 6.70000 0.61880
v -6.35000 6.20000 0.76880
v -6.35000 6.70000 0.76880
v 6.35000 6.20000 0.76880
v 6.35000 6.70000 0.76880
v 6.50000 6.20000 0.61880
v 6.50000 6.70000 0.61880
v 6.50000 6.20000 -0.61880
v 6.50000 6.70000 -0.61880
v -6.35000 6.20000 1.71120
v -6.35000 6.70000 1.71120
v 6.35000 6.70000 1.71120
v 6.35000 6.20000 1.71120
v -6.50000 6.20000 1.86120
v -6.50000 6.70000 1.86120
v -6.50000 6.20000 3.09880
v -6.50000 6.70000 3.09880
v -6.35000 6.20000 3.24880
v -6.35000 6.70000 3.24880
v 6.35000 6.20000 3.24880
v 6.35000 6.70000 3.24880
v 6.50000 6.20000 3.09880
v 6.50000 6.70000 3.09880
v 6.50000 6.20000 1.86120
v 6.50000 6.70000 1.86120
v -6.35000 6.20000 4.19120
v -6.35000 6.70000 4.19120
v 6.35000 6.70000 4.19120
v 6.35000 6.20000 4.19120
v -6.50000 6.20000 4.34120
v -6.50000 6.70000 4.34120
v -6.50000 6.20000 5.57880
v -6.50000 6.70000 5.57880
v -6.35000 6.20000 5.72880
v -6.35000 6.70000 5.72880
v 6.35000 6.20000 5.72880
v 6.35000 6.70000 5.72880
v 6.50000 6.20000 5.57880
v 6.50000 6.70000 5.57880
v 6.50000 6.20000 4.34120
v 6.50000 6.70000 4.34120
v 5.60000 2.25000 -1.90000
v 5.60000 3.07438 -1.71184
v 9.40000 3.07438 -1.71184
v 9.40000 2.25000 -1.90000
v 5.60000 3.73548 -1.18463
v 9.40000 3.73548 -1.18463
v 5.60000 4.10236 -0.42279
v 9.40000 4.10236 -0.42279
v 5.60000 4.10236 0.42279
v 9.40000 4.10236 0.42279
v 5.60000 3.73548 1.18463
v 9.40000 3.73548 1.18463
v 5.60000 3.07438 1.71184
v 9.40000 3.07438 1.71184
v 5.60000 2.25000 1.90000
v 9.40000 2.25000 1.90000
v 5.60000 1.42562 1.71184
v 9.40000 1.42562 1.71184
v 5.60000 0.76452 1.18463
v 9.40000 0.76452 1.18463
v 5.60000 0.39764 0.42279
v 9.40000 0.39764 0.42279
v 5.60000 0.39764 -0.42279
v 9.40000 0.39764 -0.42279
v 5.60000 0.76452 -1.18463
v 9.40000 0.76452 -1.18463
v 5.60000 1.42562 -1.71184
v 9.40000 1.42562 -1.71184
v -9.40000 2.25000 -1.90000
v -9.40000 3.07438 -1.71184
v -5.60000 3.07438 -1.71184
v -5.60000 2.25000 -1.90000
v -9.40000 3.73548 -1.18463
v -5.60000 3.73548 -1.18463
v -9.40000 4.10236 -0.42279
v -5.60000 4.10236 -0.42279
v -9.40000 4.10236 0.42279
v -5.60000 4.10236 0.42279
v -9.40000 3.73548 1.18463
v -5.60000 3.73548 1.18463
v -9.40000 3.07438 1.71184
v -5.60000 3.07438 1.71184
v -9.40000 2.25000 1.90000
v -5.60000 2.25000 1.90000
v -9.40000 1.42562 1.71184
v -5.60000 1.42562 1.71184
v -9.40000 0.76452 1.18463
v -5.60000 0.76452 1.18463
v -9.40000 0.39764 0.42279
v -5.60000 0.39764 0.42279
v -9.40000 0.39764 -0.42279
v -5.60000 0.39764 -0.42279
v -9.40000 0.76452 -1.18463
v -5.60000 0.76452 -1.18463
v -9.40000 1.42562 -1.71184
v -5.60000 1.42562 -1.71184
v 5.45000 2.25000 -2.20000
v 5.45000 3.20454 -1.98213
v 6.35000 3.20454 -1.98213
v 6.35000 2.25000 -2.20000
v 5.45000 3.97003 -1.37168
v 6.35000 3.97003 -1.37168
v 5.45000 4.39484 -0.48955
v 6.35000 4.39484 -0.48955
v 5.45000 4.39484 0.48955
v 6.35000 4.39484 0.48955
v 5.45000 3.97003 1.37168
v 6.35000 3.97003 1.37168
v 5.45000 3.20454 1.98213
v 6.35000 3.20454 1.98213
v 5.45000 2.25000 2.20000
v 6.35000 2.25000 2.20000
v 5.45000 1.29546 1.98213
v 6.35000 1.29546 1.98213
v 5.45000 0.52997 1.37168
v 6.35000 0.52997 1.37168
v 5.45000 0.10516 0.48955
v 6.35000 0.10516 0.48955
v 5.45000 0.10516 -0.48955
v 6.35000 0.10516 -0.48955
v 5.45000 0.52997 -1.37168
v 6.35000 0.52997 -1.37168
v 5.45000 1.29546 -1.98213
v 6.35000 1.29546 -1.98213
v -6.35000 2.25000 -2.20000
v -6.35000 3.20454 -1.98213
v -5.45000 3.20454 -1.98213
v -5.45000 2.25000 -2.20000
v -6.35000 3.97003 -1.37168
v -5.45000 3.97003 -1.37168
v -6.35000 4.39484 -0.48955
v -5.45000 4.39484 -0.48955
v -6.35000 4.39484 0.48955
v -5.45000 4.39484 0.48955
v -6.35000 3.97003 1.37168
v -5.45000 3.97003 1.37168
v -6.35000 3.20454 1.98213
v -5.45000 3.20454 1.98213
v -6.35000 2.25000 2.20000
v -5.45000 2.25000 2.20000
v -6.35000 1.29546 1.98213
v -5.45000 1.29546 1.98213
v -6.35000 0.52997 1.37168
v -5.45000 0.52997 1.37168
v -6.35000 0.10516 0.48955
v -5.45000 0.10516 0.48955
v -6.35000 0.10516 -0.48955
v -5.45000 0.10516 -0.48955
v -6.35000 0.52997 -1.37168
v -5.45000 0.52997 -1.37168
v -6.35000 1.29546 -1.98213
v -5.45000 1.29546 -1.98213
v -3.07900 0.45000 -7.80750
v -3.07900 2.15100 -7.80750
v -2.12100 2.15100 -7.80750
v -2.12100 0.45000 -7.80750
v -3.32900 0.45000 -7.55750
v -3.32900 2.15100 -7.55750
v -3.32900 0.45000 -6.84250
v -3.32900 2.15100 -6.84250
v -3.07900 0.45000 -6.59250
v -3.07900 2.15100 -6.59250
v -2.12100 0.45000 -6.59250
v -2.12100 2.15100 -6.59250
v -1.87100 0.45000 -6.84250
v -1.87100 2.15100 -6.84250
v -1.87100 0.45000 -7.55750
v -1.87100 2.15100 -7.55750
v -3.77000 1.96200 -8.55000
v -3.77000 3.83000 -8.55000
v -1.43000 3.83000 -8.55000
v -1.43000 1.96200 -8.55000
v -4.22000 1.96200 -8.10000
v -4.22000 3.83000 -8.10000
v -4.22000 1.96200 -6.30000
v -4.22000 3.83000 -6.30000
v -3.77000 1.96200 -5.85000
v -3.77000 3.83000 -5.85000
v -1.43000 1.96200 -5.85000
v -1.43000 3.83000 -5.85000
v -0.98000 1.96200 -6.30000
v -0.98000 3.83000 -6.30000
v -0.98000 1.96200 -8.10000
v -0.98000 3.83000 -8.10000
v -3.50803 4.23000 -8.24772
v -1.69197 4.23000 -8.24772
v -3.87034 4.23000 -7.90574
v -3.87034 4.23000 -6.49426
v -3.50803 4.23000 -6.15228
v -1.69197 4.23000 -6.15228
v -1.32966 4.23000 -6.49426
v -1.32966 4.23000 -7.90574
v -4.22500 3.88000 -8.88750
v -4.22500 4.43000 -8.88750
v -0.97500 4.43000 -8.88750
v -0.97500 3.88000 -8.88750
v -4.62500 3.88000 -8.48750
v -4.62500 4.43000 -8.48750
v -4.62500 3.88000 -5.91250
v -4.62500 4.43000 -5.91250
v -4.22500 3.88000 -5.51250
v -4.22500 4.43000 -5.51250
v -0.97500 3.88000 -5.51250
v -0.97500 4.43000 -5.51250
v -0.57500 3.88000 -5.91250
v -0.57500 4.43000 -5.91250
v -0.57500 3.88000 -8.48750
v -0.57500 4.43000 -8.48750
v -4.05159 4.68000 -8.70742
v -1.14841 4.68000 -8.70742
v -4.41403 4.68000 -8.35337
v -4.41403 4.68000 -6.04663
v -4.05159 4.68000 -5.69258
v -1.14841 4.68000 -5.69258
v -0.78597 4.68000 -6.04663
v -0.78597 4.68000 -8.35337
v 3.28180 0.45000 -6.88180
v 3.28180 2.55000 -6.88180
v 3.15000 2.55000 -7.20000
v 3.15000 0.45000 -7.20000
v 3.60000 0.45000 -6.75000
v 3.60000 2.55000 -6.75000
v 3.91820 0.45000 -6.88180
v 3.91820 2.55000 -6.88180
v 4.05000 0.45000 -7.20000
v 4.05000 2.55000 -7.20000
v 3.91820 0.45000 -7.51820
v 3.91820 2.55000 -7.51820
v 3.60000 0.45000 -7.65000
v 3.60000 2.55000 -7.65000
v 3.28180 0.45000 -7.51820
v 3.28180 2.55000 -7.51820
v 1.88816 2.55000 -6.37562
v 1.88816 2.80000 -6.37562
v 1.70000 2.80000 -7.20000
v 1.70000 2.55000 -7.20000
v 2.41537 2.55000 -5.71452
v 2.41537 2.80000 -5.71452
v 3.17721 2.55000 -5.34764
v 3.17721 2.80000 -5.34764
v 4.02279 2.55000 -5.34764
v 4.02279 2.80000 -5.34764
v 4.78463 2.55000 -5.71452
v 4.78463 2.80000 -5.71452
v 5.31184 2.55000 -6.37562
v 5.31184 2.80000 -6.37562
v 5.50000 2.55000 -7.20000
v 5.50000 2.80000 -7.20000
v 5.31184 2.55000 -8.02438
v 5.31184 2.80000 -8.02438
v 4.78463 2.55000 -8.68548
v 4.78463 2.80000 -8.68548
v 4.02279 2.55000 -9.05236
v 4.02279 2.80000 -9.05236
v 3.17721 2.55000 -9.05236
v 3.17721 2.80000 -9.05236
v 2.41537 2.55000 -8.68548
v 2.41537 2.80000 -8.68548
v 1.88816 2.55000 -8.02438
v 1.88816 2.80000 -8.02438
v 2.02330 2.95000 -6.44070
v 1.85000 2.95000 -7.20000
v 2.50889 2.95000 -5.83179
v 3.21059 2.95000 -5.49388
v 3.98941 2.95000 -5.49388
v 4.69111 2.95000 -5.83179
v 5.17670 2.95000 -6.44070
v 5.35000 2.95000 -7.20000
v 5.17670 2.95000 -7.95930
v 4.69111 2.95000 -8.56821
v 3.98941 2.95000 -8.90612
v 3.21059 2.95000 -8.90612
v 2.50889 2.95000 -8.56821
v 2.02330 2.95000 -7.95930
v 3.06260 2.45000 -6.66260
v 3.06260 3.10000 -6.66260
v 2.84000 3.10000 -7.20000
v 2.84000 2.45000 -7.20000
v 3.60000 2.45000 -6.44000
v 3.60000 3.10000 -6.44000
v 4.13740 2.45000 -6.66260
v 4.13740 3.10000 -6.66260
v 4.36000 2.45000 -7.20000
v 4.36000 3.10000 -7.20000
v 4.13740 2.45000 -7.73740
v 4.13740 3.10000 -7.73740
v 3.60000 2.45000 -7.96000
v 3.60000 3.10000 -7.96000
v 3.06260 2.45000 -7.73740
v 3.06260 3.10000 -7.73740
v 5.95000 0.00000 -7.15000
v 5.95000 0.60000 -7.15000
v 6.85000 0.60000 -7.15000
v 6.85000 0.00000 -7.15000
v 5.65000 0.00000 -6.85000
v 5.65000 0.60000 -6.85000
v 5.65000 0.00000 -5.95000
v 5.65000 0.60000 -5.95000
v 5.95000 0.00000 -5.65000
v 5.95000 0.60000 -5.65000
v 6.85000 0.00000 -5.65000
v 6.85000 0.60000 -5.65000
v 7.15000 0.00000 -5.95000
v 7.15000 0.60000 -5.95000
v 7.15000 0.00000 -6.85000
v 7.15000 0.60000 -6.85000
v 5.95000 0.00000 5.65000
v 5.95000 0.60000 5.65000
v 6.85000 0.60000 5.65000
v 6.85000 0.00000 5.65000
v 5.65000 0.00000 5.95000
v 5.65000 0.60000 5.95000
v 5.65000 0.00000 6.85000
v 5.65000 0.60000 6.85000
v 5.95000 0.00000 7.15000
v 5.95000 0.60000 7.15000
v 6.85000 0.00000 7.15000
v 6.85000 0.60000 7.15000
v 7.15000 0.00000 6.85000
v 7.15000 0.60000 6.85000
v 7.15000 0.00000 5.95000
v 7.15000 0.60000 5.95000
v -6.85000 0.00000 -7.15000
v -6.85000 0.60000 -7.15000
v -5.95000 0.60000 -7.15000
v -5.95000 0.00000 -7.15000
v -7.15000 0.00000 -6.85000
v -7.15000 0.60000 -6.85000
v -7.15000 0.00000 -5.95000
v -7.15000 0.60000 -5.95000
v -6.85000 0.00000 -5.65000
v -6.85000 0.60000 -5.65000
v -5.95000 0.00000 -5.65000
v -5.95000 0.60000 -5.65000
v -5.65000 0.00000 -5.95000
v -5.65000 0.60000 -5.95000
v -5.65000 0.00000 -6.85000
v -5.65000 0.60000 -6.85000
v -6.85000 0.00000 5.65000
v -6.85000 0.60000 5.65000
v -5.95000 0.60000 5.65000
v -5.95000 0.00000 5.65000
v -7.15000 0.00000 5.95000
v -7.15000 0.60000 5.95000
v -7.15000 0.00000 6.85000
v -7.15000 0.60000 6.85000
v -6.85000 0.00000 7.15000
v -6.85000 0.60000 7.15000
v -5.95000 0.00000 7.15000
v -5.95000 0.60000 7.15000
v -5.65000 0.00000 6.85000
v -5.65000 0.60000 6.85000
v -5.65000 0.00000 5.95000
v -5.65000 0.60000 5.95000
vt 0.01000 0.01000
vt 0.03000 0.01000
vt 0.04000 0.01000
vt 0.02000 0.01000
vn 0.00000 0.00000 -1.00000
vn -0.70711 0.00000 -0.70711
vn -1.00000 0.00000 0.00000
vn -0.70711 0.00000 0.70711
vn 0.00000 -0.00000 1.00000
vn 0.70711 -0.00000 0.70711
vn 1.00000 0.00000 0.00000
vn 0.70711 0.00000 -0.70711
vn 0.00000 -1.00000 0.00000
vn 0.00000 0.60543 -0.79590
vn 0.00000 0.60543 -0.79590
vn -0.50078 0.70600 -0.50078
vn -0.50078 0.70600 -0.50078
vn -0.79590 0.60543 0.00000
vn -0.79590 0.60543 0.00000
vn -0.50078 0.70600 0.50078
vn -0.50078 0.70600 0.50078
vn 0.00000 0.60543 0.79590
vn -0.00000 0.60543 0.79590
vn 0.50078 0.70600 0.50078
vn 0.50078 0.70600 0.50078
vn 0.79590 0.60543 0.00000
vn 0.79590 0.60543 0.00000
vn 0.50078 0.70600 -0.50078
vn 0.50078 0.70600 -0.50078
vn 0.00000 1.00000 -0.00000
vn -0.70711 0.00000 -0.70711
vn -0.70711 0.00000 0.70711
vn 0.70711 -0.00000 0.70711
vn 0.70711 0.00000 -0.70711
vn 0.00000 0.63960 -0.76871
vn 0.00000 0.63960 -0.76871
vn -0.50488 0.70014 -0.50488
vn -0.50488 0.70014 -0.50488
vn -0.76871 0.63960 0.00000
vn -0.76871 0.63960 0.00000
vn -0.50488 0.70014 0.50488
vn -0.50488 0.70014 0.50488
vn 0.00000 0.63960 0.76871
vn -0.00000 0.63960 0.76871
vn 0.50488 0.70014 0.50488
vn 0.50488 0.70014 0.50488
vn 0.76871 0.63960 0.00000
vn 0.76871 0.63960 0.00000
vn 0.50488 0.70014 -0.50488
vn 0.50488 0.70014 -0.50488
vn -0.70711 0.00000 -0.70711
vn -0.70711 0.00000 0.70711
vn 0.70711 -0.00000 0.70711
vn 0.70711 0.00000 -0.70711
vn -0.70711 0.00000 -0.70711
vn -0.70711 0.00000 0.70711
vn 0.70711 -0.00000 0.70711
vn 0.70711 0.00000 -0.70711
vn 0.00000 0.22252 -0.97493
vn 0.00000 0.62349 -0.78183
vn 0.00000 0.90097 -0.43388
vn 0.00000 0.90097 0.43388
vn 0.00000 0.62349 0.78183
vn 0.00000 0.22252 0.97493
vn 0.00000 -0.22252 0.97493
vn 0.00000 -0.62349 0.78183
vn 0.00000 -0.90097 0.43388
vn 0.00000 -1.00000 0.00000
vn 0.00000 -0.90097 -0.43388
vn 0.00000 -0.62349 -0.78183
vn 0.00000 -0.22252 -0.97493
vn 0.00000 0.22252 -0.97493
vn 0.00000 0.62349 -0.78183
vn 0.00000 0.90097 -0.43388
vn 0.00000 0.90097 0.43388
vn 0.00000 0.22252 0.97493
vn 0.00000 -0.22252 0.97493
vn 0.00000 -0.62349 0.78183
vn 0.00000 -0.90097 0.43388
vn 0.00000 -1.00000 0.00000
vn 0.00000 -0.90097 -0.43388
vn 0.00000 -0.62349 -0.78183
vn 0.00000 -0.22252 -0.97493
vn -0.70711 0.00000 -0.70711
vn 0.70711 -0.00000 0.70711
vn 0.70711 0.00000 -0.70711
vn 0.00000 0.60290 -0.79782
vn 0.00000 0.60290 -0.79782
vn -0.49685 0.68997 -0.52639
vn -0.50064 0.70621 -0.50064
vn -0.75289 0.65815 0.00000
vn -0.75289 0.65815 0.00000
vn -0.48559 0.70679 0.51445
vn -0.50971 0.69310 0.50971
vn -0.00000 0.60290 0.79782
vn -0.00000 0.60290 0.79782
vn 0.49685 0.68997 0.52639
vn 0.50064 0.70621 0.50064
vn 0.75289 0.65815 0.00000
vn 0.75289 0.65815 0.00000
vn 0.48559 0.70679 -0.51445
vn 0.50971 0.69310 -0.50971
vn 0.70711 -0.00000 0.70711
vn 0.70711 0.00000 -0.70711
vn 0.00000 0.58448 -0.81141
vn -0.50071 0.69755 -0.51257
vn -0.50004 0.70704 -0.50004
vn -0.76424 0.64493 0.00000
vn -0.76424 0.64493 0.00000
vn -0.49412 0.70710 0.50582
vn -0.50601 0.69850 0.50601
vn 0.00000 0.58448 0.81141
vn -0.00000 0.58448 0.81141
vn 0.50071 0.69755 0.51257
vn 0.50004 0.70704 0.50004
vn 0.76424 0.64493 0.00000
vn 0.76424 0.64493 0.00000
vn 0.49412 0.70710 -0.50582
vn 0.50601 0.69850 -0.50601
vn -0.92388 0.00000 0.38268
vn -0.38268 0.00000 0.92388
vn 0.38268 -0.00000 0.92388
vn 0.92388 -0.00000 0.38268
vn 0.92388 0.00000 -0.38268
vn 0.38268 0.00000 -0.92388
vn -0.38268 0.00000 -0.92388
vn -0.92388 0.00000 -0.38268
vn -0.97493 0.00000 0.22252
vn -0.78183 0.00000 0.62349
vn -0.43388 0.00000 0.90097
vn 0.43388 -0.00000 0.90097
vn 0.78183 -0.00000 0.62349
vn 0.97493 -0.00000 0.22252
vn 0.97493 0.00000 -0.22252
vn 0.78183 0.00000 -0.62349
vn 0.43388 0.00000 -0.90097
vn -0.43388 0.00000 -0.90097
vn -0.78183 0.00000 -0.62349
vn -0.97493 0.00000 -0.22252
vn -0.69807 0.69807 0.15933
vn -0.69807 0.69807 0.15933
vn -0.55981 0.69807 0.44643
vn -0.55981 0.69807 0.44643
vn -0.31067 0.69807 0.64512
vn -0.31067 0.69807 0.64512
vn 0.00000 0.69807 0.71603
vn -0.00000 0.69807 0.71603
vn 0.31067 0.69807 0.64512
vn 0.31067 0.69807 0.64512
vn 0.55981 0.69807 0.44643
vn 0.55981 0.69807 0.44643
vn 0.69807 0.69807 0.15933
vn 0.69807 0.69807 0.15933
vn 0.69807 0.69807 -0.15933
vn 0.69807 0.69807 -0.15933
vn 0.55981 0.69807 -0.44643
vn 0.55981 0.69807 -0.44643
vn 0.31067 0.69807 -0.64512
vn 0.31067 0.69807 -0.64512
vn 0.00000 0.69807 -0.71603
vn -0.31067 0.69807 -0.64512
vn -0.31067 0.69807 -0.64512
vn -0.55981 0.69807 -0.44643
vn -0.55981 0.69807 -0.44643
vn -0.69807 0.69807 -0.15933
vn -0.69807 0.69807 -0.15933
vn -0.92388 0.00000 0.38268
vn -0.38268 0.00000 0.92388
vn 0.38268 -0.00000 0.92388
vn 0.92388 -0.00000 0.38268
vn 0.92388 0.00000 -0.38268
vn 0.38268 0.00000 -0.92388
vn -0.38268 0.00000 -0.92388
vn -0.92388 0.00000 -0.38268
f 1/1/1 2/1/1 3/1/1
f 4/1/1 1/1/1 3/1/1
f 5/1/2 6/1/2 2/1/2
f 1/1/2 5/1/2 2/1/2
f 7/1/3 8/1/3 6/1/3
f 5/1/3 7/1/3 6/1/3
f 9/1/4 10/1/4 8/1/4
f 7/1/4 9/1/4 8/1/4
f 11/1/5 12/1/5 10/1/5
f 9/1/5 11/1/5 10/1/5
f 13/1/6 14/1/6 12/1/6
f 11/1/6 13/1/6 12/1/6
f 15/1/7 16/1/7 14/1/7
f 13/1/7 15/1/7 14/1/7
f 4/1/8 3/1/8 16/1/8
f 15/1/8 4/1/8 16/1/8
f 5/1/9 1/1/9 4/1/9
f 7/1/9 5/1/9 4/1/9
f 9/1/9 7/1/9 4/1/9
f 11/1/9 9/1/9 4/1/9
f 13/1/9 11/1/9 4/1/9
f 15/1/9 13/1/9 4/1/9
f 2/1/10 17/1/10 18/1/10
f 3/1/11 2/1/11 18/1/11
f 6/1/12 19/1/12 17/1/12
f 2/1/13 6/1/13 17/1/13
f 8/1/14 20/1/14 19/1/14
f 6/1/15 8/1/15 19/1/15
f 10/1/16 21/1/16 20/1/16
f 8/1/17 10/1/17 20/1/17
f 12/1/18 22/1/18 21/1/18
f 10/1/19 12/1/19 21/1/19
f 14/1/20 23/1/20 22/1/20
f 12/1/21 14/1/21 22/1/21
f 16/1/22 24/1/22 23/1/22
f 14/1/23 16/1/23 23/1/23
f 3/1/24 18/1/24 24/1/24
f 16/1/25 3/1/25 24/1/25
f 17/1/26 19/1/26 18/1/26
f 19/1/26 20/1/26 18/1/26
f 20/1/26 21/1/26 18/1/26
f 21/1/26 22/1/26 18/1/26
f 22/1/26 23/1/26 18/1/26
f 23/1/26 24/1/26 18/1/26
f 25/2/1 26/2/1 27/2/1
f 28/2/1 25/2/1 27/2/1
f 29/2/27 30/2/27 26/2/27
f 25/2/27 29/2/27 26/2/27
f 31/2/3 32/2/3 30/2/3
f 29/2/3 31/2/3 30/2/3
f 33/2/28 34/2/28 32/2/28
f 31/2/28 33/2/28 32/2/28
f 35/2/5 36/2/5 34/2/5
f 33/2/5 35/2/5 34/2/5
f 37/2/29 38/2/29 36/2/29
f 35/2/29 37/2/29 36/2/29
f 39/2/7 40/2/7 38/2/7
f 37/2/7 39/2/7 38/2/7
f 28/2/30 27/2/30 40/2/30
f 39/2/30 28/2/30 40/2/30
f 29/2/9 25/2/9 28/2/9
f 31/2/9 29/2/9 28/2/9
f 33/2/9 31/2/9 28/2/9
f 35/2/9 33/2/9 28/2/9
f 37/2/9 35/2/9 28/2/9
f 39/2/9 37/2/9 28/2/9
f 26/2/31 41/2/31 42/2/31
f 27/2/32 26/2/32 42/2/32
f 30/2/33 43/2/33 41/2/33
f 26/2/34 30/2/34 41/2/34
f 32/2/35 44/2/35 43/2/35
f 30/2/36 32/2/36 43/2/36
f 34/2/37 45/2/37 44/2/37
f 32/2/38 34/2/38 44/2/38
f 36/2/39 46/2/39 45/2/39
f 34/2/40 36/2/40 45/2/40
f 38/2/41 47/2/41 46/2/41
f 36/2/42 38/2/42 46/2/42
f 40/2/43 48/2/43 47/2/43
f 38/2/44 40/2/44 47/2/44
f 27/2/45 42/2/45 48/2/45
f 40/2/46 27/2/46 48/2/46
f 41/2/26 43/2/26 42/2/26
f 43/2/26 44/2/26 42/2/26
f 44/2/26 45/2/26 42/2/26
f 45/2/26 46/2/26 42/2/26
f 46/2/26 47/2/26 42/2/26
f 47/2/26 48/2/26 42/2/26
f 49/2/1 50/2/1 51/2/1
f 52/2/1 49/2/1 51/2/1
f 53/2/27 54/2/27 50/2/27
f 49/2/27 53/2/27 50/2/27
f 55/2/3 56/2/3 54/2/3
f 53/2/3 55/2/3 54/2/3
f 57/2/28 58/2/28 56/2/28
f 55/2/28 57/2/28 56/2/28
f 59/2/5 60/2/5 58/2/5
f 57/2/5 59/2/5 58/2/5
f 61/2/29 62/2/29 60/2/29
f 59/2/29 61/2/29 60/2/29
f 63/2/7 64/2/7 62/2/7
f 61/2/7 63/2/7 62/2/7
f 52/2/30 51/2/30 64/2/30
f 63/2/30 52/2/30 64/2/30
f 53/2/9 49/2/9 52/2/9
f 55/2/9 53/2/9 52/2/9
f 57/2/9 55/2/9 52/2/9
f 59/2/9 57/2/9 52/2/9
f 61/2/9 59/2/9 52/2/9
f 63/2/9 61/2/9 52/2/9
f 50/2/31 65/2/31 66/2/31
f 51/2/32 50/2/32 66/2/32
f 54/2/33 67/2/33 65/2/33
f 50/2/34 54/2/34 65/2/34
f 56/2/35 68/2/35 67/2/35
f 54/2/36 56/2/36 67/2/36
f 58/2/37 69/2/37 68/2/37
f 56/2/38 58/2/38 68/2/38
f 60/2/39 70/2/39 69/2/39
f 58/2/40 60/2/40 69/2/40
f 62/2/41 71/2/41 70/2/41
f 60/2/42 62/2/42 70/2/42
f 64/2/43 72/2/43 71/2/43
f 62/2/44 64/2/44 71/2/44
f 51/2/45 66/2/45 72/2/45
f 64/2/46 51/2/46 72/2/46
f 65/2/26 67/2/26 66/2/26
f 67/2/26 68/2/26 66/2/26
f 68/2/26 69/2/26 66/2/26
f 69/2/26 70/2/26 66/2/26
f 70/2/26 71/2/26 66/2/26
f 71/2/26 72/2/26 66/2/26
f 73/2/1 74/2/1 75/2/1
f 76/2/1 73/2/1 75/2/1
f 77/2/27 78/2/27 74/2/27
f 73/2/27 77/2/27 74/2/27
f 79/2/3 80/2/3 78/2/3
f 77/2/3 79/2/3 78/2/3
f 81/2/28 82/2/28 80/2/28
f 79/2/28 81/2/28 80/2/28
f 83/2/5 84/2/5 82/2/5
f 81/2/5 83/2/5 82/2/5
f 85/2/29 86/2/29 84/2/29
f 83/2/29 85/2/29 84/2/29
f 87/2/7 88/2/7 86/2/7
f 85/2/7 87/2/7 86/2/7
f 76/2/30 75/2/30 88/2/30
f 87/2/30 76/2/30 88/2/30
f 77/2/9 73/2/9 76/2/9
f 79/2/9 77/2/9 76/2/9
f 81/2/9 79/2/9 76/2/9
f 83/2/9 81/2/9 76/2/9
f 85/2/9 83/2/9 76/2/9
f 87/2/9 85/2/9 76/2/9
f 74/2/31 89/2/31 90/2/31
f 75/2/32 74/2/32 90/2/32
f 78/2/33 91/2/33 89/2/33
f 74/2/34 78/2/34 89/2/34
f 80/2/35 92/2/35 91/2/35
f 78/2/36 80/2/36 91/2/36
f 82/2/37 93/2/37 92/2/37
f 80/2/38 82/2/38 92/2/38
f 84/2/39 94/2/39 93/2/39
f 82/2/40 84/2/40 93/2/40
f 86/2/41 95/2/41 94/2/41
f 84/2/42 86/2/42 94/2/42
f 88/2/43 96/2/43 95/2/43
f 86/2/44 88/2/44 95/2/44
f 75/2/45 90/2/45 96/2/45
f 88/2/46 75/2/46 96/2/46
f 89/2/26 91/2/26 90/2/26
f 91/2/26 92/2/26 90/2/26
f 92/2/26 93/2/26 90/2/26
f 93/2/26 94/2/26 90/2/26
f 94/2/26 95/2/26 90/2/26
f 95/2/26 96/2/26 90/2/26
f 97/2/1 98/2/1 99/2/1
f 100/2/1 97/2/1 99/2/1
f 101/2/27 102/2/27 98/2/27
f 97/2/27 101/2/27 98/2/27
f 103/2/3 104/2/3 102/2/3
f 101/2/3 103/2/3 102/2/3
f 105/2/28 106/2/28 104/2/28
f 103/2/28 105/2/28 104/2/28
f 107/2/5 108/2/5 106/2/5
f 105/2/5 107/2/5 106/2/5
f 109/2/29 110/2/29 108/2/29
f 107/2/29 109/2/29 108/2/29
f 111/2/7 112/2/7 110/2/7
f 109/2/7 111/2/7 110/2/7
f 100/2/30 99/2/30 112/2/30
f 111/2/30 100/2/30 112/2/30
f 101/2/9 97/2/9 100/2/9
f 103/2/9 101/2/9 100/2/9
f 105/2/9 103/2/9 100/2/9
f 107/2/9 105/2/9 100/2/9
f 109/2/9 107/2/9 100/2/9
f 111/2/9 109/2/9 100/2/9
f 98/2/31 113/2/31 114/2/31
f 99/2/32 98/2/32 114/2/32
f 102/2/33 115/2/33 113/2/33
f 98/2/34 102/2/34 113/2/34
f 104/2/35 116/2/35 115/2/35
f 102/2/36 104/2/36 115/2/36
f 106/2/37 117/2/37 116/2/37
f 104/2/38 106/2/38 116/2/38
f 108/2/39 118/2/39 117/2/39
f 106/2/40 108/2/40 117/2/40
f 110/2/41 119/2/41 118/2/41
f 108/2/42 110/2/42 118/2/42
f 112/2/43 120/2/43 119/2/43
f 110/2/44 112/2/44 119/2/44
f 99/2/45 114/2/45 120/2/45
f 112/2/46 99/2/46 120/2/46
f 113/2/26 115/2/26 114/2/26
f 115/2/26 116/2/26 114/2/26
f 116/2/26 117/2/26 114/2/26
f 117/2/26 118/2/26 114/2/26
f 118/2/26 119/2/26 114/2/26
f 119/2/26 120/2/26 114/2/26
f 121/2/1 122/2/1 123/2/1
f 124/2/1 121/2/1 123/2/1
f 125/2/27 126/2/27 122/2/27
f 121/2/27 125/2/27 122/2/27
f 127/2/3 128/2/3 126/2/3
f 125/2/3 127/2/3 126/2/3
f 129/2/28 130/2/28 128/2/28
f 127/2/28 129/2/28 128/2/28
f 131/2/5 132/2/5 130/2/5
f 129/2/5 131/2/5 130/2/5
f 133/2/29 134/2/29 132/2/29
f 131/2/29 133/2/29 132/2/29
f 135/2/7 136/2/7 134/2/7
f 133/2/7 135/2/7 134/2/7
f 124/2/30 123/2/30 136/2/30
f 135/2/30 124/2/30 136/2/30
f 125/2/9 121/2/9 124/2/9
f 127/2/9 125/2/9 124/2/9
f 129/2/9 127/2/9 124/2/9
f 131/2/9 129/2/9 124/2/9
f 133/2/9 131/2/9 124/2/9
f 135/2/9 133/2/9 124/2/9
f 122/2/26 126/2/26 123/2/26
f 126/2/26 128/2/26 123/2/26
f 128/2/26 130/2/26 123/2/26
f 130/2/26 132/2/26 123/2/26
f 132/2/26 134/2/26 123/2/26
f 134/2/26 136/2/26 123/2/26
f 137/2/1 138/2/1 139/2/1
f 140/2/1 137/2/1 139/2/1
f 141/2/27 142/2/27 138/2/27
f 137/2/27 141/2/27 138/2/27
f 143/2/3 144/2/3 142/2/3
f 141/2/3 143/2/3 142/2/3
f 145/2/28 146/2/28 144/2/28
f 143/2/28 145/2/28 144/2/28
f 147/2/5 148/2/5 146/2/5
f 145/2/5 147/2/5 146/2/5
f 149/2/29 150/2/29 148/2/29
f 147/2/29 149/2/29 148/2/29
f 151/2/7 152/2/7 150/2/7
f 149/2/7 151/2/7 150/2/7
f 140/2/30 139/2/30 152/2/30
f 151/2/30 140/2/30 152/2/30
f 141/2/9 137/2/9 140/2/9
f 143/2/9 141/2/9 140/2/9
f 145/2/9 143/2/9 140/2/9
f 147/2/9 145/2/9 140/2/9
f 149/2/9 147/2/9 140/2/9
f 151/2/9 149/2/9 140/2/9
f 138/2/26 142/2/26 139/2/26
f 142/2/26 144/2/26 139/2/26
f 144/2/26 146/2/26 139/2/26
f 146/2/26 148/2/26 139/2/26
f 148/2/26 150/2/26 139/2/26
f 150/2/26 152/2/26 139/2/26
f 153/2/1 154/2/1 155/2/1
f 156/2/1 153/2/1 155/2/1
f 157/2/27 158/2/27 154/2/27
f 153/2/27 157/2/27 154/2/27
f 159/2/3 160/2/3 158/2/3
f 157/2/3 159/2/3 158/2/3
f 161/2/28 162/2/28 160/2/28
f 159/2/28 161/2/28 160/2/28
f 163/2/5 164/2/5 162/2/5
f 161/2/5 163/2/5 162/2/5
f 165/2/29 166/2/29 164/2/29
f 163/2/29 165/2/29 164/2/29
f 167/2/7 168/2/7 166/2/7
f 165/2/7 167/2/7 166/2/7
f 156/2/30 155/2/30 168/2/30
f 167/2/30 156/2/30 168/2/30
f 157/2/9 153/2/9 156/2/9
f 159/2/9 157/2/9 156/2/9
f 161/2/9 159/2/9 156/2/9
f 163/2/9 161/2/9 156/2/9
f 165/2/9 163/2/9 156/2/9
f 167/2/9 165/2/9 156/2/9
f 154/2/26 158/2/26 155/2/26
f 158/2/26 160/2/26 155/2/26
f 160/2/26 162/2/26 155/2/26
f 162/2/26 164/2/26 155/2/26
f 164/2/26 166/2/26 155/2/26
f 166/2/26 168/2/26 155/2/26
f 169/2/1 170/2/1 171/2/1
f 172/2/1 169/2/1 171/2/1
f 173/2/27 174/2/27 170/2/27
f 169/2/27 173/2/27 170/2/27
f 175/2/3 176/2/3 174/2/3
f 173/2/3 175/2/3 174/2/3
f 177/2/28 178/2/28 176/2/28
f 175/2/28 177/2/28 176/2/28
f 179/2/5 180/2/5 178/2/5
f 177/2/5 179/2/5 178/2/5
f 181/2/29 182/2/29 180/2/29
f 179/2/29 181/2/29 180/2/29
f 183/2/7 184/2/7 182/2/7
f 181/2/7 183/2/7 182/2/7
f 172/2/30 171/2/30 184/2/30
f 183/2/30 172/2/30 184/2/30
f 173/2/9 169/2/9 172/2/9
f 175/2/9 173/2/9 172/2/9
f 177/2/9 175/2/9 172/2/9
f 179/2/9 177/2/9 172/2/9
f 181/2/9 179/2/9 172/2/9
f 183/2/9 181/2/9 172/2/9
f 170/2/26 174/2/26 171/2/26
f 174/2/26 176/2/26 171/2/26
f 176/2/26 178/2/26 171/2/26
f 178/2/26 180/2/26 171/2/26
f 180/2/26 182/2/26 171/2/26
f 182/2/26 184/2/26 171/2/26
f 185/2/1 186/2/1 187/2/1
f 188/2/1 185/2/1 187/2/1
f 189/2/27 190/2/27 186/2/27
f 185/2/27 189/2/27 186/2/27
f 191/2/3 192/2/3 190/2/3
f 189/2/3 191/2/3 190/2/3
f 193/2/28 194/2/28 192/2/28
f 191/2/28 193/2/28 192/2/28
f 195/2/5 196/2/5 194/2/5
f 193/2/5 195/2/5 194/2/5
f 197/2/29 198/2/29 196/2/29
f 195/2/29 197/2/29 196/2/29
f 199/2/7 200/2/7 198/2/7
f 197/2/7 199/2/7 198/2/7
f 188/2/30 187/2/30 200/2/30
f 199/2/30 188/2/30 200/2/30
f 189/2/9 185/2/9 188/2/9
f 191/2/9 189/2/9 188/2/9
f 193/2/9 191/2/9 188/2/9
f 195/2/9 193/2/9 188/2/9
f 197/2/9 195/2/9 188/2/9
f 199/2/9 197/2/9 188/2/9
f 186/2/26 190/2/26 187/2/26
f 190/2/26 192/2/26 187/2/26
f 192/2/26 194/2/26 187/2/26
f 194/2/26 196/2/26 187/2/26
f 196/2/26 198/2/26 187/2/26
f 198/2/26 200/2/26 187/2/26
f 201/2/1 202/2/1 203/2/1
f 204/2/1 201/2/1 203/2/1
f 205/2/27 206/2/27 202/2/27
f 201/2/27 205/2/27 202/2/27
f 207/2/3 208/2/3 206/2/3
f 205/2/3 207/2/3 206/2/3
f 209/2/28 210/2/28 208/2/28
f 207/2/28 209/2/28 208/2/28
f 211/2/5 212/2/5 210/2/5
f 209/2/5 211/2/5 210/2/5
f 213/2/29 214/2/29 212/2/29
f 211/2/29 213/2/29 212/2/29
f 215/2/7 216/2/7 214/2/7
f 213/2/7 215/2/7 214/2/7
f 204/2/30 203/2/30 216/2/30
f 215/2/30 204/2/30 216/2/30
f 205/2/9 201/2/9 204/2/9
f 207/2/9 205/2/9 204/2/9
f 209/2/9 207/2/9 204/2/9
f 211/2/9 209/2/9 204/2/9
f 213/2/9 211/2/9 204/2/9
f 215/2/9 213/2/9 204/2/9
f 202/2/26 206/2/26 203/2/26
f 206/2/26 208/2/26 203/2/26
f 208/2/26 210/2/26 203/2/26
f 210/2/26 212/2/26 203/2/26
f 212/2/26 214/2/26 203/2/26
f 214/2/26 216/2/26 203/2/26
f 217/2/1 218/2/1 219/2/1
f 220/2/1 217/2/1 219/2/1
f 221/2/27 222/2/27 218/2/27
f 217/2/27 221/2/27 218/2/27
f 223/2/3 224/2/3 222/2/3
f 221/2/3 223/2/3 222/2/3
f 225/2/28 226/2/28 224/2/28
f 223/2/28 225/2/28 224/2/28
f 227/2/5 228/2/5 226/2/5
f 225/2/5 227/2/5 226/2/5
f 229/2/29 230/2/29 228/2/29
f 227/2/29 229/2/29 228/2/29
f 231/2/7 232/2/7 230/2/7
f 229/2/7 231/2/7 230/2/7
f 220/2/30 219/2/30 232/2/30
f 231/2/30 220/2/30 232/2/30
f 221/2/9 217/2/9 220/2/9
f 223/2/9 221/2/9 220/2/9
f 225/2/9 223/2/9 220/2/9
f 227/2/9 225/2/9 220/2/9
f 229/2/9 227/2/9 220/2/9
f 231/2/9 229/2/9 220/2/9
f 218/2/26 222/2/26 219/2/26
f 222/2/26 224/2/26 219/2/26
f 224/2/26 226/2/26 219/2/26
f 226/2/26 228/2/26 219/2/26
f 228/2/26 230/2/26 219/2/26
f 230/2/26 232/2/26 219/2/26
f 233/2/1 234/2/1 235/2/1
f 236/2/1 233/2/1 235/2/1
f 237/2/47 238/2/47 234/2/47
f 233/2/47 237/2/47 234/2/47
f 239/2/3 240/2/3 238/2/3
f 237/2/3 239/2/3 238/2/3
f 241/2/48 242/2/48 240/2/48
f 239/2/48 241/2/48 240/2/48
f 243/2/5 244/2/5 242/2/5
f 241/2/5 243/2/5 242/2/5
f 245/2/49 246/2/49 244/2/49
f 243/2/49 245/2/49 244/2/49
f 247/2/7 248/2/7 246/2/7
f 245/2/7 247/2/7 246/2/7
f 236/2/50 235/2/50 248/2/50
f 247/2/50 236/2/50 248/2/50
f 237/2/9 233/2/9 236/2/9
f 239/2/9 237/2/9 236/2/9
f 241/2/9 239/2/9 236/2/9
f 243/2/9 241/2/9 236/2/9
f 245/2/9 243/2/9 236/2/9
f 247/2/9 245/2/9 236/2/9
f 234/2/26 238/2/26 235/2/26
f 238/2/26 240/2/26 235/2/26
f 240/2/26 242/2/26 235/2/26
f 242/2/26 244/2/26 235/2/26
f 244/2/26 246/2/26 235/2/26
f 246/2/26 248/2/26 235/2/26
f 249/2/1 250/2/1 251/2/1
f 252/2/1 249/2/1 251/2/1
f 253/2/51 254/2/51 250/2/51
f 249/2/51 253/2/51 250/2/51
f 255/2/3 256/2/3 254/2/3
f 253/2/3 255/2/3 254/2/3
f 257/2/52 258/2/52 256/2/52
f 255/2/52 257/2/52 256/2/52
f 259/2/5 260/2/5 258/2/5
f 257/2/5 259/2/5 258/2/5
f 261/2/53 262/2/53 260/2/53
f 259/2/53 261/2/53 260/2/53
f 263/2/7 264/2/7 262/2/7
f 261/2/7 263/2/7 262/2/7
f 252/2/54 251/2/54 264/2/54
f 263/2/54 252/2/54 264/2/54
f 253/2/9 249/2/9 252/2/9
f 255/2/9 253/2/9 252/2/9
f 257/2/9 255/2/9 252/2/9
f 259/2/9 257/2/9 252/2/9
f 261/2/9 259/2/9 252/2/9
f 263/2/9 261/2/9 252/2/9
f 250/2/26 254/2/26 251/2/26
f 254/2/26 256/2/26 251/2/26
f 256/2/26 258/2/26 251/2/26
f 258/2/26 260/2/26 251/2/26
f 260/2/26 262/2/26 251/2/26
f 262/2/26 264/2/26 251/2/26
f 265/2/1 266/2/1 267/2/1
f 268/2/1 265/2/1 267/2/1
f 269/2/47 270/2/47 266/2/47
f 265/2/47 269/2/47 266/2/47
f 271/2/3 272/2/3 270/2/3
f 269/2/3 271/2/3 270/2/3
f 273/2/48 274/2/48 272/2/48
f 271/2/48 273/2/48 272/2/48
f 275/2/5 276/2/5 274/2/5
f 273/2/5 275/2/5 274/2/5
f 277/2/49 278/2/49 276/2/49
f 275/2/49 277/2/49 276/2/49
f 279/2/7 280/2/7 278/2/7
f 277/2/7 279/2/7 278/2/7
f 268/2/50 267/2/50 280/2/50
f 279/2/50 268/2/50 280/2/50
f 269/2/9 265/2/9 268/2/9
f 271/2/9 269/2/9 268/2/9
f 273/2/9 271/2/9 268/2/9
f 275/2/9 273/2/9 268/2/9
f 277/2/9 275/2/9 268/2/9
f 279/2/9 277/2/9 268/2/9
f 266/2/26 270/2/26 267/2/26
f 270/2/26 272/2/26 267/2/26
f 272/2/26 274/2/26 267/2/26
f 274/2/26 276/2/26 267/2/26
f 276/2/26 278/2/26 267/2/26
f 278/2/26 280/2/26 267/2/26
f 281/2/1 282/2/1 283/2/1
f 284/2/1 281/2/1 283/2/1
f 285/2/27 286/2/27 282/2/27
f 281/2/27 285/2/27 282/2/27
f 287/2/3 288/2/3 286/2/3
f 285/2/3 287/2/3 286/2/3
f 289/2/28 290/2/28 288/2/28
f 287/2/28 289/2/28 288/2/28
f 291/2/5 292/2/5 290/2/5
f 289/2/5 291/2/5 290/2/5
f 293/2/29 294/2/29 292/2/29
f 291/2/29 293/2/29 292/2/29
f 295/2/7 296/2/7 294/2/7
f 293/2/7 295/2/7 294/2/7
f 284/2/30 283/2/30 296/2/30
f 295/2/30 284/2/30 296/2/30
f 285/2/9 281/2/9 284/2/9
f 287/2/9 285/2/9 284/2/9
f 289/2/9 287/2/9 284/2/9
f 291/2/9 289/2/9 284/2/9
f 293/2/9 291/2/9 284/2/9
f 295/2/9 293/2/9 284/2/9
f 282/2/26 286/2/26 283/2/26
f 286/2/26 288/2/26 283/2/26
f 288/2/26 290/2/26 283/2/26
f 290/2/26 292/2/26 283/2/26
f 292/2/26 294/2/26 283/2/26
f 294/2/26 296/2/26 283/2/26
f 297/2/1 298/2/1 299/2/1
f 300/2/1 297/2/1 299/2/1
f 301/2/2 302/2/2 298/2/2
f 297/2/2 301/2/2 298/2/2
f 303/2/3 304/2/3 302/2/3
f 301/2/3 303/2/3 302/2/3
f 305/2/4 306/2/4 304/2/4
f 303/2/4 305/2/4 304/2/4
f 307/2/5 308/2/5 306/2/5
f 305/2/5 307/2/5 306/2/5
f 309/2/6 310/2/6 308/2/6
f 307/2/6 309/2/6 308/2/6
f 311/2/7 312/2/7 310/2/7
f 309/2/7 311/2/7 310/2/7
f 300/2/8 299/2/8 312/2/8
f 311/2/8 300/2/8 312/2/8
f 301/2/9 297/2/9 300/2/9
f 303/2/9 301/2/9 300/2/9
f 305/2/9 303/2/9 300/2/9
f 307/2/9 305/2/9 300/2/9
f 309/2/9 307/2/9 300/2/9
f 311/2/9 309/2/9 300/2/9
f 298/2/26 302/2/26 299/2/26
f 302/2/26 304/2/26 299/2/26
f 304/2/26 306/2/26 299/2/26
f 306/2/26 308/2/26 299/2/26
f 308/2/26 310/2/26 299/2/26
f 310/2/26 312/2/26 299/2/26
f 313/2/1 314/2/1 315/2/1
f 316/2/1 313/2/1 315/2/1
f 317/2/2 318/2/2 314/2/2
f 313/2/2 317/2/2 314/2/2
f 319/2/3 320/2/3 318/2/3
f 317/2/3 319/2/3 318/2/3
f 321/2/4 322/2/4 320/2/4
f 319/2/4 321/2/4 320/2/4
f 323/2/5 324/2/5 322/2/5
f 321/2/5 323/2/5 322/2/5
f 325/2/6 326/2/6 324/2/6
f 323/2/6 325/2/6 324/2/6
f 327/2/7 328/2/7 326/2/7
f 325/2/7 327/2/7 326/2/7
f 316/2/8 315/2/8 328/2/8
f 327/2/8 316/2/8 328/2/8
f 317/2/9 313/2/9 316/2/9
f 319/2/9 317/2/9 316/2/9
f 321/2/9 319/2/9 316/2/9
f 323/2/9 321/2/9 316/2/9
f 325/2/9 323/2/9 316/2/9
f 327/2/9 325/2/9 316/2/9
f 314/2/26 318/2/26 315/2/26
f 318/2/26 320/2/26 315/2/26
f 320/2/26 322/2/26 315/2/26
f 322/2/26 324/2/26 315/2/26
f 324/2/26 326/2/26 315/2/26
f 326/2/26 328/2/26 315/2/26
f 329/2/1 330/2/1 331/2/1
f 332/2/1 329/2/1 331/2/1
f 333/2/27 334/2/27 330/2/27
f 329/2/27 333/2/27 330/2/27
f 335/2/3 336/2/3 334/2/3
f 333/2/3 335/2/3 334/2/3
f 337/2/28 338/2/28 336/2/28
f 335/2/28 337/2/28 336/2/28
f 339/2/5 340/2/5 338/2/5
f 337/2/5 339/2/5 338/2/5
f 341/2/29 342/2/29 340/2/29
f 339/2/29 341/2/29 340/2/29
f 343/2/7 344/2/7 342/2/7
f 341/2/7 343/2/7 342/2/7
f 332/2/30 331/2/30 344/2/30
f 343/2/30 332/2/30 344/2/30
f 333/2/9 329/2/9 332/2/9
f 335/2/9 333/2/9 332/2/9
f 337/2/9 335/2/9 332/2/9
f 339/2/9 337/2/9 332/2/9
f 341/2/9 339/2/9 332/2/9
f 343/2/9 341/2/9 332/2/9
f 330/2/26 334/2/26 331/2/26
f 334/2/26 336/2/26 331/2/26
f 336/2/26 338/2/26 331/2/26
f 338/2/26 340/2/26 331/2/26
f 340/2/26 342/2/26 331/2/26
f 342/2/26 344/2/26 331/2/26
f 345/2/1 346/2/1 347/2/1
f 348/2/1 345/2/1 347/2/1
f 349/2/47 350/2/47 346/2/47
f 345/2/47 349/2/47 346/2/47
f 351/2/3 352/2/3 350/2/3
f 349/2/3 351/2/3 350/2/3
f 353/2/48 354/2/48 352/2/48
f 351/2/48 353/2/48 352/2/48
f 355/2/5 356/2/5 354/2/5
f 353/2/5 355/2/5 354/2/5
f 357/2/49 358/2/49 356/2/49
f 355/2/49 357/2/49 356/2/49
f 359/2/7 360/2/7 358/2/7
f 357/2/7 359/2/7 358/2/7
f 348/2/50 347/2/50 360/2/50
f 359/2/50 348/2/50 360/2/50
f 349/2/9 345/2/9 348/2/9
f 351/2/9 349/2/9 348/2/9
f 353/2/9 351/2/9 348/2/9
f 355/2/9 353/2/9 348/2/9
f 357/2/9 355/2/9 348/2/9
f 359/2/9 357/2/9 348/2/9
f 346/2/26 350/2/26 347/2/26
f 350/2/26 352/2/26 347/2/26
f 352/2/26 354/2/26 347/2/26
f 354/2/26 356/2/26 347/2/26
f 356/2/26 358/2/26 347/2/26
f 358/2/26 360/2/26 347/2/26
f 361/2/1 362/2/1 363/2/1
f 364/2/1 361/2/1 363/2/1
f 365/2/51 366/2/51 362/2/51
f 361/2/51 365/2/51 362/2/51
f 367/2/3 368/2/3 366/2/3
f 365/2/3 367/2/3 366/2/3
f 369/2/52 370/2/52 368/2/52
f 367/2/52 369/2/52 368/2/52
f 371/2/5 372/2/5 370/2/5
f 369/2/5 371/2/5 370/2/5
f 373/2/53 374/2/53 372/2/53
f 371/2/53 373/2/53 372/2/53
f 375/2/7 376/2/7 374/2/7
f 373/2/7 375/2/7 374/2/7
f 364/2/54 363/2/54 376/2/54
f 375/2/54 364/2/54 376/2/54
f 365/2/9 361/2/9 364/2/9
f 367/2/9 365/2/9 364/2/9
f 369/2/9 367/2/9 364/2/9
f 371/2/9 369/2/9 364/2/9
f 373/2/9 371/2/9 364/2/9
f 375/2/9 373/2/9 364/2/9
f 362/2/26 366/2/26 363/2/26
f 366/2/26 368/2/26 363/2/26
f 368/2/26 370/2/26 363/2/26
f 370/2/26 372/2/26 363/2/26
f 372/2/26 374/2/26 363/2/26
f 374/2/26 376/2/26 363/2/26
f 377/2/1 378/2/1 379/2/1
f 380/2/1 377/2/1 379/2/1
f 381/2/47 382/2/47 378/2/47
f 377/2/47 381/2/47 378/2/47
f 383/2/3 384/2/3 382/2/3
f 381/2/3 383/2/3 382/2/3
f 385/2/48 386/2/48 384/2/48
f 383/2/48 385/2/48 384/2/48
f 387/2/5 388/2/5 386/2/5
f 385/2/5 387/2/5 386/2/5
f 389/2/49 390/2/49 388/2/49
f 387/2/49 389/2/49 388/2/49
f 391/2/7 392/2/7 390/2/7
f 389/2/7 391/2/7 390/2/7
f 380/2/50 379/2/50 392/2/50
f 391/2/50 380/2/50 392/2/50
f 381/2/9 377/2/9 380/2/9
f 383/2/9 381/2/9 380/2/9
f 385/2/9 383/2/9 380/2/9
f 387/2/9 385/2/9 380/2/9
f 389/2/9 387/2/9 380/2/9
f 391/2/9 389/2/9 380/2/9
f 378/2/26 382/2/26 379/2/26
f 382/2/26 384/2/26 379/2/26
f 384/2/26 386/2/26 379/2/26
f 386/2/26 388/2/26 379/2/26
f 388/2/26 390/2/26 379/2/26
f 390/2/26 392/2/26 379/2/26
f 393/2/1 394/2/1 395/2/1
f 396/2/1 393/2/1 395/2/1
f 397/2/27 398/2/27 394/2/27
f 393/2/27 397/2/27 394/2/27
f 399/2/3 400/2/3 398/2/3
f 397/2/3 399/2/3 398/2/3
f 401/2/28 402/2/28 400/2/28
f 399/2/28 401/2/28 400/2/28
f 403/2/5 404/2/5 402/2/5
f 401/2/5 403/2/5 402/2/5
f 405/2/29 406/2/29 404/2/29
f 403/2/29 405/2/29 404/2/29
f 407/2/7 408/2/7 406/2/7
f 405/2/7 407/2/7 406/2/7
f 396/2/30 395/2/30 408/2/30
f 407/2/30 396/2/30 408/2/30
f 397/2/9 393/2/9 396/2/9
f 399/2/9 397/2/9 396/2/9
f 401/2/9 399/2/9 396/2/9
f 403/2/9 401/2/9 396/2/9
f 405/2/9 403/2/9 396/2/9
f 407/2/9 405/2/9 396/2/9
f 394/2/26 398/2/26 395/2/26
f 398/2/26 400/2/26 395/2/26
f 400/2/26 402/2/26 395/2/26
f 402/2/26 404/2/26 395/2/26
f 404/2/26 406/2/26 395/2/26
f 406/2/26 408/2/26 395/2/26
f 409/2/1 410/2/1 411/2/1
f 412/2/1 409/2/1 411/2/1
f 413/2/2 414/2/2 410/2/2
f 409/2/2 413/2/2 410/2/2
f 415/2/3 416/2/3 414/2/3
f 413/2/3 415/2/3 414/2/3
f 417/2/4 418/2/4 416/2/4
f 415/2/4 417/2/4 416/2/4
f 419/2/5 420/2/5 418/2/5
f 417/2/5 419/2/5 418/2/5
f 421/2/6 422/2/6 420/2/6
f 419/2/6 421/2/6 420/2/6
f 423/2/7 424/2/7 422/2/7
f 421/2/7 423/2/7 422/2/7
f 412/2/8 411/2/8 424/2/8
f 423/2/8 412/2/8 424/2/8
f 413/2/9 409/2/9 412/2/9
f 415/2/9 413/2/9 412/2/9
f 417/2/9 415/2/9 412/2/9
f 419/2/9 417/2/9 412/2/9
f 421/2/9 419/2/9 412/2/9
f 423/2/9 421/2/9 412/2/9
f 410/2/26 414/2/26 411/2/26
f 414/2/26 416/2/26 411/2/26
f 416/2/26 418/2/26 411/2/26
f 418/2/26 420/2/26 411/2/26
f 420/2/26 422/2/26 411/2/26
f 422/2/26 424/2/26 411/2/26
f 425/2/1 426/2/1 427/2/1
f 428/2/1 425/2/1 427/2/1
f 429/2/2 430/2/2 426/2/2
f 425/2/2 429/2/2 426/2/2
f 431/2/3 432/2/3 430/2/3
f 429/2/3 431/2/3 430/2/3
f 433/2/4 434/2/4 432/2/4
f 431/2/4 433/2/4 432/2/4
f 435/2/5 436/2/5 434/2/5
f 433/2/5 435/2/5 434/2/5
f 437/2/6 438/2/6 436/2/6
f 435/2/6 437/2/6 436/2/6
f 439/2/7 440/2/7 438/2/7
f 437/2/7 439/2/7 438/2/7
f 428/2/8 427/2/8 440/2/8
f 439/2/8 428/2/8 440/2/8
f 429/2/9 425/2/9 428/2/9
f 431/2/9 429/2/9 428/2/9
f 433/2/9 431/2/9 428/2/9
f 435/2/9 433/2/9 428/2/9
f 437/2/9 435/2/9 428/2/9
f 439/2/9 437/2/9 428/2/9
f 426/2/26 430/2/26 427/2/26
f 430/2/26 432/2/26 427/2/26
f 432/2/26 434/2/26 427/2/26
f 434/2/26 436/2/26 427/2/26
f 436/2/26 438/2/26 427/2/26
f 438/2/26 440/2/26 427/2/26
f 441/2/1 442/2/1 443/2/1
f 444/2/1 441/2/1 443/2/1
f 445/2/27 446/2/27 442/2/27
f 441/2/27 445/2/27 442/2/27
f 447/2/3 448/2/3 446/2/3
f 445/2/3 447/2/3 446/2/3
f 449/2/28 450/2/28 448/2/28
f 447/2/28 449/2/28 448/2/28
f 451/2/5 452/2/5 450/2/5
f 449/2/5 451/2/5 450/2/5
f 453/2/29 454/2/29 452/2/29
f 451/2/29 453/2/29 452/2/29
f 455/2/7 456/2/7 454/2/7
f 453/2/7 455/2/7 454/2/7
f 444/2/30 443/2/30 456/2/30
f 455/2/30 444/2/30 456/2/30
f 445/2/9 441/2/9 444/2/9
f 447/2/9 445/2/9 444/2/9
f 449/2/9 447/2/9 444/2/9
f 451/2/9 449/2/9 444/2/9
f 453/2/9 451/2/9 444/2/9
f 455/2/9 453/2/9 444/2/9
f 442/2/26 446/2/26 443/2/26
f 446/2/26 448/2/26 443/2/26
f 448/2/26 450/2/26 443/2/26
f 450/2/26 452/2/26 443/2/26
f 452/2/26 454/2/26 443/2/26
f 454/2/26 456/2/26 443/2/26
f 457/2/1 458/2/1 459/2/1
f 460/2/1 457/2/1 459/2/1
f 461/2/47 462/2/47 458/2/47
f 457/2/47 461/2/47 458/2/47
f 463/2/3 464/2/3 462/2/3
f 461/2/3 463/2/3 462/2/3
f 465/2/48 466/2/48 464/2/48
f 463/2/48 465/2/48 464/2/48
f 467/2/5 468/2/5 466/2/5
f 465/2/5 467/2/5 466/2/5
f 469/2/49 470/2/49 468/2/49
f 467/2/49 469/2/49 468/2/49
f 471/2/7 472/2/7 470/2/7
f 469/2/7 471/2/7 470/2/7
f 460/2/50 459/2/50 472/2/50
f 471/2/50 460/2/50 472/2/50
f 461/2/9 457/2/9 460/2/9
f 463/2/9 461/2/9 460/2/9
f 465/2/9 463/2/9 460/2/9
f 467/2/9 465/2/9 460/2/9
f 469/2/9 467/2/9 460/2/9
f 471/2/9 469/2/9 460/2/9
f 458/2/26 462/2/26 459/2/26
f 462/2/26 464/2/26 459/2/26
f 464/2/26 466/2/26 459/2/26
f 466/2/26 468/2/26 459/2/26
f 468/2/26 470/2/26 459/2/26
f 470/2/26 472/2/26 459/2/26
f 473/2/1 474/2/1 475/2/1
f 476/2/1 473/2/1 475/2/1
f 477/2/51 478/2/51 474/2/51
f 473/2/51 477/2/51 474/2/51
f 479/2/3 480/2/3 478/2/3
f 477/2/3 479/2/3 478/2/3
f 481/2/52 482/2/52 480/2/52
f 479/2/52 481/2/52 480/2/52
f 483/2/5 484/2/5 482/2/5
f 481/2/5 483/2/5 482/2/5
f 485/2/53 486/2/53 484/2/53
f 483/2/53 485/2/53 484/2/53
f 487/2/7 488/2/7 486/2/7
f 485/2/7 487/2/7 486/2/7
f 476/2/54 475/2/54 488/2/54
f 487/2/54 476/2/54 488/2/54
f 477/2/9 473/2/9 476/2/9
f 479/2/9 477/2/9 476/2/9
f 481/2/9 479/2/9 476/2/9
f 483/2/9 481/2/9 476/2/9
f 485/2/9 483/2/9 476/2/9
f 487/2/9 485/2/9 476/2/9
f 474/2/26 478/2/26 475/2/26
f 478/2/26 480/2/26 475/2/26
f 480/2/26 482/2/26 475/2/26
f 482/2/26 484/2/26 475/2/26
f 484/2/26 486/2/26 475/2/26
f 486/2/26 488/2/26 475/2/26
f 489/2/1 490/2/1 491/2/1
f 492/2/1 489/2/1 491/2/1
f 493/2/47 494/2/47 490/2/47
f 489/2/47 493/2/47 490/2/47
f 495/2/3 496/2/3 494/2/3
f 493/2/3 495/2/3 494/2/3
f 497/2/48 498/2/48 496/2/48
f 495/2/48 497/2/48 496/2/48
f 499/2/5 500/2/5 498/2/5
f 497/2/5 499/2/5 498/2/5
f 501/2/49 502/2/49 500/2/49
f 499/2/49 501/2/49 500/2/49
f 503/2/7 504/2/7 502/2/7
f 501/2/7 503/2/7 502/2/7
f 492/2/50 491/2/50 504/2/50
f 503/2/50 492/2/50 504/2/50
f 493/2/9 489/2/9 492/2/9
f 495/2/9 493/2/9 492/2/9
f 497/2/9 495/2/9 492/2/9
f 499/2/9 497/2/9 492/2/9
f 501/2/9 499/2/9 492/2/9
f 503/2/9 501/2/9 492/2/9
f 490/2/26 494/2/26 491/2/26
f 494/2/26 496/2/26 491/2/26
f 496/2/26 498/2/26 491/2/26
f 498/2/26 500/2/26 491/2/26
f 500/2/26 502/2/26 491/2/26
f 502/2/26 504/2/26 491/2/26
f 505/2/1 506/2/1 507/2/1
f 508/2/1 505/2/1 507/2/1
f 509/2/27 510/2/27 506/2/27
f 505/2/27 509/2/27 506/2/27
f 511/2/3 512/2/3 510/2/3
f 509/2/3 511/2/3 510/2/3
f 513/2/28 514/2/28 512/2/28
f 511/2/28 513/2/28 512/2/28
f 515/2/5 516/2/5 514/2/5
f 513/2/5 515/2/5 514/2/5
f 517/2/29 518/2/29 516/2/29
f 515/2/29 517/2/29 516/2/29
f 519/2/7 520/2/7 518/2/7
f 517/2/7 519/2/7 518/2/7
f 508/2/30 507/2/30 520/2/30
f 519/2/30 508/2/30 520/2/30
f 509/2/9 505/2/9 508/2/9
f 511/2/9 509/2/9 508/2/9
f 513/2/9 511/2/9 508/2/9
f 515/2/9 513/2/9 508/2/9
f 517/2/9 515/2/9 508/2/9
f 519/2/9 517/2/9 508/2/9
f 506/2/26 510/2/26 507/2/26
f 510/2/26 512/2/26 507/2/26
f 512/2/26 514/2/26 507/2/26
f 514/2/26 516/2/26 507/2/26
f 516/2/26 518/2/26 507/2/26
f 518/2/26 520/2/26 507/2/26
f 521/3/55 522/3/55 523/3/55
f 521/3/55 523/3/55 524/3/55
f 522/3/56 525/3/56 526/3/56
f 522/3/56 526/3/56 523/3/56
f 525/3/57 527/3/57 528/3/57
f 525/3/57 528/3/57 526/3/57
f 527/3/26 529/3/26 530/3/26
f 527/3/26 530/3/26 528/3/26
f 529/3/58 531/3/58 532/3/58
f 529/3/58 532/3/58 530/3/58
f 531/3/59 533/3/59 534/3/59
f 531/3/59 534/3/59 532/3/59
f 533/3/60 535/3/60 536/3/60
f 533/3/60 536/3/60 534/3/60
f 535/3/61 537/3/61 538/3/61
f 535/3/61 538/3/61 536/3/61
f 537/3/62 539/3/62 540/3/62
f 537/3/62 540/3/62 538/3/62
f 539/3/63 541/3/63 542/3/63
f 539/3/63 542/3/63 540/3/63
f 541/3/64 543/3/64 544/3/64
f 541/3/64 544/3/64 542/3/64
f 543/3/65 545/3/65 546/3/65
f 543/3/65 546/3/65 544/3/65
f 545/3/66 547/3/66 548/3/66
f 545/3/66 548/3/66 546/3/66
f 547/3/67 521/3/67 524/3/67
f 547/3/67 524/3/67 548/3/67
f 524/3/7 523/3/7 526/3/7
f 521/3/3 525/3/3 522/3/3
f 524/3/7 526/3/7 528/3/7
f 521/3/3 527/3/3 525/3/3
f 524/3/7 528/3/7 530/3/7
f 521/3/3 529/3/3 527/3/3
f 524/3/7 530/3/7 532/3/7
f 521/3/3 531/3/3 529/3/3
f 524/3/7 532/3/7 534/3/7
f 521/3/3 533/3/3 531/3/3
f 524/3/7 534/3/7 536/3/7
f 521/3/3 535/3/3 533/3/3
f 524/3/7 536/3/7 538/3/7
f 521/3/3 537/3/3 535/3/3
f 524/3/7 538/3/7 540/3/7
f 521/3/3 539/3/3 537/3/3
f 524/3/7 540/3/7 542/3/7
f 521/3/3 541/3/3 539/3/3
f 524/3/7 542/3/7 544/3/7
f 521/3/3 543/3/3 541/3/3
f 524/3/7 544/3/7 546/3/7
f 521/3/3 545/3/3 543/3/3
f 524/3/7 546/3/7 548/3/7
f 521/3/3 547/3/3 545/3/3
f 549/3/55 550/3/55 551/3/55
f 549/3/55 551/3/55 552/3/55
f 550/3/56 553/3/56 554/3/56
f 550/3/56 554/3/56 551/3/56
f 553/3/57 555/3/57 556/3/57
f 553/3/57 556/3/57 554/3/57
f 555/3/26 557/3/26 558/3/26
f 555/3/26 558/3/26 556/3/26
f 557/3/58 559/3/58 560/3/58
f 557/3/58 560/3/58 558/3/58
f 559/3/59 561/3/59 562/3/59
f 559/3/59 562/3/59 560/3/59
f 561/3/60 563/3/60 564/3/60
f 561/3/60 564/3/60 562/3/60
f 563/3/61 565/3/61 566/3/61
f 563/3/61 566/3/61 564/3/61
f 565/3/62 567/3/62 568/3/62
f 565/3/62 568/3/62 566/3/62
f 567/3/63 569/3/63 570/3/63
f 567/3/63 570/3/63 568/3/63
f 569/3/64 571/3/64 572/3/64
f 569/3/64 572/3/64 570/3/64
f 571/3/65 573/3/65 574/3/65
f 571/3/65 574/3/65 572/3/65
f 573/3/66 575/3/66 576/3/66
f 573/3/66 576/3/66 574/3/66
f 575/3/67 549/3/67 552/3/67
f 575/3/67 552/3/67 576/3/67
f 552/3/7 551/3/7 554/3/7
f 549/3/3 553/3/3 550/3/3
f 552/3/7 554/3/7 556/3/7
f 549/3/3 555/3/3 553/3/3
f 552/3/7 556/3/7 558/3/7
f 549/3/3 557/3/3 555/3/3
f 552/3/7 558/3/7 560/3/7
f 549/3/3 559/3/3 557/3/3
f 552/3/7 560/3/7 562/3/7
f 549/3/3 561/3/3 559/3/3
f 552/3/7 562/3/7 564/3/7
f 549/3/3 563/3/3 561/3/3
f 552/3/7 564/3/7 566/3/7
f 549/3/3 565/3/3 563/3/3
f 552/3/7 566/3/7 568/3/7
f 549/3/3 567/3/3 565/3/3
f 552/3/7 568/3/7 570/3/7
f 549/3/3 569/3/3 567/3/3
f 552/3/7 570/3/7 572/3/7
f 549/3/3 571/3/3 569/3/3
f 552/3/7 572/3/7 574/3/7
f 549/3/3 573/3/3 571/3/3
f 552/3/7 574/3/7 576/3/7
f 549/3/3 575/3/3 573/3/3
f 577/2/68 578/2/68 579/2/68
f 577/2/68 579/2/68 580/2/68
f 578/2/69 581/2/69 582/2/69
f 578/2/69 582/2/69 579/2/69
f 581/2/70 583/2/70 584/2/70
f 581/2/70 584/2/70 582/2/70
f 583/2/26 585/2/26 586/2/26
f 583/2/26 586/2/26 584/2/26
f 585/2/71 587/2/71 588/2/71
f 585/2/71 588/2/71 586/2/71
f 587/2/59 589/2/59 590/2/59
f 587/2/59 590/2/59 588/2/59
f 589/2/72 591/2/72 592/2/72
f 589/2/72 592/2/72 590/2/72
f 591/2/73 593/2/73 594/2/73
f 591/2/73 594/2/73 592/2/73
f 593/2/74 595/2/74 596/2/74
f 593/2/74 596/2/74 594/2/74
f 595/2/75 597/2/75 598/2/75
f 595/2/75 598/2/75 596/2/75
f 597/2/76 599/2/76 600/2/76
f 597/2/76 600/2/76 598/2/76
f 599/2/77 601/2/77 602/2/77
f 599/2/77 602/2/77 600/2/77
f 601/2/78 603/2/78 604/2/78
f 601/2/78 604/2/78 602/2/78
f 603/2/79 577/2/79 580/2/79
f 603/2/79 580/2/79 604/2/79
f 580/2/7 579/2/7 582/2/7
f 577/2/3 581/2/3 578/2/3
f 580/2/7 582/2/7 584/2/7
f 577/2/3 583/2/3 581/2/3
f 580/2/7 584/2/7 586/2/7
f 577/2/3 585/2/3 583/2/3
f 580/2/7 586/2/7 588/2/7
f 577/2/3 587/2/3 585/2/3
f 580/2/7 588/2/7 590/2/7
f 577/2/3 589/2/3 587/2/3
f 580/2/7 590/2/7 592/2/7
f 577/2/3 591/2/3 589/2/3
f 580/2/7 592/2/7 594/2/7
f 577/2/3 593/2/3 591/2/3
f 580/2/7 594/2/7 596/2/7
f 577/2/3 595/2/3 593/2/3
f 580/2/7 596/2/7 598/2/7
f 577/2/3 597/2/3 595/2/3
f 580/2/7 598/2/7 600/2/7
f 577/2/3 599/2/3 597/2/3
f 580/2/7 600/2/7 602/2/7
f 577/2/3 601/2/3 599/2/3
f 580/2/7 602/2/7 604/2/7
f 577/2/3 603/2/3 601/2/3
f 605/2/68 606/2/68 607/2/68
f 605/2/68 607/2/68 608/2/68
f 606/2/69 609/2/69 610/2/69
f 606/2/69 610/2/69 607/2/69
f 609/2/70 611/2/70 612/2/70
f 609/2/70 612/2/70 610/2/70
f 611/2/26 613/2/26 614/2/26
f 611/2/26 614/2/26 612/2/26
f 613/2/71 615/2/71 616/2/71
f 613/2/71 616/2/71 614/2/71
f 615/2/59 617/2/59 618/2/59
f 615/2/59 618/2/59 616/2/59
f 617/2/72 619/2/72 620/2/72
f 617/2/72 620/2/72 618/2/72
f 619/2/73 621/2/73 622/2/73
f 619/2/73 622/2/73 620/2/73
f 621/2/74 623/2/74 624/2/74
f 621/2/74 624/2/74 622/2/74
f 623/2/75 625/2/75 626/2/75
f 623/2/75 626/2/75 624/2/75
f 625/2/76 627/2/76 628/2/76
f 625/2/76 628/2/76 626/2/76
f 627/2/77 629/2/77 630/2/77
f 627/2/77 630/2/77 628/2/77
f 629/2/78 631/2/78 632/2/78
f 629/2/78 632/2/78 630/2/78
f 631/2/79 605/2/79 608/2/79
f 631/2/79 608/2/79 632/2/79
f 608/2/7 607/2/7 610/2/7
f 605/2/3 609/2/3 606/2/3
f 608/2/7 610/2/7 612/2/7
f 605/2/3 611/2/3 609/2/3
f 608/2/7 612/2/7 614/2/7
f 605/2/3 613/2/3 611/2/3
f 608/2/7 614/2/7 616/2/7
f 605/2/3 615/2/3 613/2/3
f 608/2/7 616/2/7 618/2/7
f 605/2/3 617/2/3 615/2/3
f 608/2/7 618/2/7 620/2/7
f 605/2/3 619/2/3 617/2/3
f 608/2/7 620/2/7 622/2/7
f 605/2/3 621/2/3 619/2/3
f 608/2/7 622/2/7 624/2/7
f 605/2/3 623/2/3 621/2/3
f 608/2/7 624/2/7 626/2/7
f 605/2/3 625/2/3 623/2/3
f 608/2/7 626/2/7 628/2/7
f 605/2/3 627/2/3 625/2/3
f 608/2/7 628/2/7 630/2/7
f 605/2/3 629/2/3 627/2/3
f 608/2/7 630/2/7 632/2/7
f 605/2/3 631/2/3 629/2/3
f 633/2/1 634/2/1 635/2/1
f 636/2/1 633/2/1 635/2/1
f 637/2/27 638/2/27 634/2/27
f 633/2/27 637/2/27 634/2/27
f 639/2/3 640/2/3 638/2/3
f 637/2/3 639/2/3 638/2/3
f 641/2/28 642/2/28 640/2/28
f 639/2/28 641/2/28 640/2/28
f 643/2/5 644/2/5 642/2/5
f 641/2/5 643/2/5 642/2/5
f 645/2/29 646/2/29 644/2/29
f 643/2/29 645/2/29 644/2/29
f 647/2/7 648/2/7 646/2/7
f 645/2/7 647/2/7 646/2/7
f 636/2/30 635/2/30 648/2/30
f 647/2/30 636/2/30 648/2/30
f 637/2/9 633/2/9 636/2/9
f 639/2/9 637/2/9 636/2/9
f 641/2/9 639/2/9 636/2/9
f 643/2/9 641/2/9 636/2/9
f 645/2/9 643/2/9 636/2/9
f 647/2/9 645/2/9 636/2/9
f 634/2/26 638/2/26 635/2/26
f 638/2/26 640/2/26 635/2/26
f 640/2/26 642/2/26 635/2/26
f 642/2/26 644/2/26 635/2/26
f 644/2/26 646/2/26 635/2/26
f 646/2/26 648/2/26 635/2/26
f 649/1/1 650/1/1 651/1/1
f 652/1/1 649/1/1 651/1/1
f 653/1/80 654/1/80 650/1/80
f 649/1/80 653/1/80 650/1/80
f 655/1/3 656/1/3 654/1/3
f 653/1/3 655/1/3 654/1/3
f 657/1/4 658/1/4 656/1/4
f 655/1/4 657/1/4 656/1/4
f 659/1/5 660/1/5 658/1/5
f 657/1/5 659/1/5 658/1/5
f 661/1/81 662/1/81 660/1/81
f 659/1/81 661/1/81 660/1/81
f 663/1/7 664/1/7 662/1/7
f 661/1/7 663/1/7 662/1/7
f 652/1/82 651/1/82 664/1/82
f 663/1/82 652/1/82 664/1/82
f 653/1/9 649/1/9 652/1/9
f 655/1/9 653/1/9 652/1/9
f 657/1/9 655/1/9 652/1/9
f 659/1/9 657/1/9 652/1/9
f 661/1/9 659/1/9 652/1/9
f 663/1/9 661/1/9 652/1/9
f 650/1/83 665/1/83 666/1/83
f 651/1/84 650/1/84 666/1/84
f 654/1/85 667/1/85 665/1/85
f 650/1/86 654/1/86 665/1/86
f 656/1/87 668/1/87 667/1/87
f 654/1/88 656/1/88 667/1/88
f 658/1/89 669/1/89 668/1/89
f 656/1/90 658/1/90 668/1/90
f 660/1/91 670/1/91 669/1/91
f 658/1/92 660/1/92 669/1/92
f 662/1/93 671/1/93 670/1/93
f 660/1/94 662/1/94 670/1/94
f 664/1/95 672/1/95 671/1/95
f 662/1/96 664/1/96 671/1/96
f 651/1/97 666/1/97 672/1/97
f 664/1/98 651/1/98 672/1/98
f 665/1/26 667/1/26 666/1/26
f 667/1/26 668/1/26 666/1/26
f 668/1/26 669/1/26 666/1/26
f 669/1/26 670/1/26 666/1/26
f 670/1/26 671/1/26 666/1/26
f 671/1/26 672/1/26 666/1/26
f 673/2/1 674/2/1 675/2/1
f 676/2/1 673/2/1 675/2/1
f 677/2/2 678/2/2 674/2/2
f 673/2/2 677/2/2 674/2/2
f 679/2/3 680/2/3 678/2/3
f 677/2/3 679/2/3 678/2/3
f 681/2/4 682/2/4 680/2/4
f 679/2/4 681/2/4 680/2/4
f 683/2/5 684/2/5 682/2/5
f 681/2/5 683/2/5 682/2/5
f 685/2/99 686/2/99 684/2/99
f 683/2/99 685/2/99 684/2/99
f 687/2/7 688/2/7 686/2/7
f 685/2/7 687/2/7 686/2/7
f 676/2/100 675/2/100 688/2/100
f 687/2/100 676/2/100 688/2/100
f 677/2/9 673/2/9 676/2/9
f 679/2/9 677/2/9 676/2/9
f 681/2/9 679/2/9 676/2/9
f 683/2/9 681/2/9 676/2/9
f 685/2/9 683/2/9 676/2/9
f 687/2/9 685/2/9 676/2/9
f 674/2/101 689/2/101 690/2/101
f 675/2/101 674/2/101 690/2/101
f 678/2/102 691/2/102 689/2/102
f 674/2/103 678/2/103 689/2/103
f 680/2/104 692/2/104 691/2/104
f 678/2/105 680/2/105 691/2/105
f 682/2/106 693/2/106 692/2/106
f 680/2/107 682/2/107 692/2/107
f 684/2/108 694/2/108 693/2/108
f 682/2/109 684/2/109 693/2/109
f 686/2/110 695/2/110 694/2/110
f 684/2/111 686/2/111 694/2/111
f 688/2/112 696/2/112 695/2/112
f 686/2/113 688/2/113 695/2/113
f 675/2/114 690/2/114 696/2/114
f 688/2/115 675/2/115 696/2/115
f 689/2/26 691/2/26 690/2/26
f 691/2/26 692/2/26 690/2/26
f 692/2/26 693/2/26 690/2/26
f 693/2/26 694/2/26 690/2/26
f 694/2/26 695/2/26 690/2/26
f 695/2/26 696/2/26 690/2/26
f 697/2/116 698/2/116 699/2/116
f 700/2/116 697/2/116 699/2/116
f 701/2/117 702/2/117 698/2/117
f 697/2/117 701/2/117 698/2/117
f 703/2/118 704/2/118 702/2/118
f 701/2/118 703/2/118 702/2/118
f 705/2/119 706/2/119 704/2/119
f 703/2/119 705/2/119 704/2/119
f 707/2/120 708/2/120 706/2/120
f 705/2/120 707/2/120 706/2/120
f 709/2/121 710/2/121 708/2/121
f 707/2/121 709/2/121 708/2/121
f 711/2/122 712/2/122 710/2/122
f 709/2/122 711/2/122 710/2/122
f 700/2/123 699/2/123 712/2/123
f 711/2/123 700/2/123 712/2/123
f 701/2/9 697/2/9 700/2/9
f 703/2/9 701/2/9 700/2/9
f 705/2/9 703/2/9 700/2/9
f 707/2/9 705/2/9 700/2/9
f 709/2/9 707/2/9 700/2/9
f 711/2/9 709/2/9 700/2/9
f 698/2/26 702/2/26 699/2/26
f 702/2/26 704/2/26 699/2/26
f 704/2/26 706/2/26 699/2/26
f 706/2/26 708/2/26 699/2/26
f 708/2/26 710/2/26 699/2/26
f 710/2/26 712/2/26 699/2/26
f 713/4/124 714/4/124 715/4/124
f 716/4/124 713/4/124 715/4/124
f 717/4/125 718/4/125 714/4/125
f 713/4/125 717/4/125 714/4/125
f 719/4/126 720/4/126 718/4/126
f 717/4/126 719/4/126 718/4/126
f 721/4/5 722/4/5 720/4/5
f 719/4/5 721/4/5 720/4/5
f 723/4/127 724/4/127 722/4/127
f 721/4/127 723/4/127 722/4/127
f 725/4/128 726/4/128 724/4/128
f 723/4/128 725/4/128 724/4/128
f 727/4/129 728/4/129 726/4/129
f 725/4/129 727/4/129 726/4/129
f 729/4/130 730/4/130 728/4/130
f 727/4/130 729/4/130 728/4/130
f 731/4/131 732/4/131 730/4/131
f 729/4/131 731/4/131 730/4/131
f 733/4/132 734/4/132 732/4/132
f 731/4/132 733/4/132 732/4/132
f 735/4/1 736/4/1 734/4/1
f 733/4/1 735/4/1 734/4/1
f 737/4/133 738/4/133 736/4/133
f 735/4/133 737/4/133 736/4/133
f 739/4/134 740/4/134 738/4/134
f 737/4/134 739/4/134 738/4/134
f 716/4/135 715/4/135 740/4/135
f 739/4/135 716/4/135 740/4/135
f 717/4/9 713/4/9 716/4/9
f 719/4/9 717/4/9 716/4/9
f 721/4/9 719/4/9 716/4/9
f 723/4/9 721/4/9 716/4/9
f 725/4/9 723/4/9 716/4/9
f 727/4/9 725/4/9 716/4/9
f 729/4/9 727/4/9 716/4/9
f 731/4/9 729/4/9 716/4/9
f 733/4/9 731/4/9 716/4/9
f 735/4/9 733/4/9 716/4/9
f 737/4/9 735/4/9 716/4/9
f 739/4/9 737/4/9 716/4/9
f 714/4/136 741/4/136 742/4/136
f 715/4/137 714/4/137 742/4/137
f 718/4/138 743/4/138 741/4/138
f 714/4/139 718/4/139 741/4/139
f 720/4/140 744/4/140 743/4/140
f 718/4/141 720/4/141 743/4/141
f 722/4/142 745/4/142 744/4/142
f 720/4/143 722/4/143 744/4/143
f 724/4/144 746/4/144 745/4/144
f 722/4/145 724/4/145 745/4/145
f 726/4/146 747/4/146 746/4/146
f 724/4/147 726/4/147 746/4/147
f 728/4/148 748/4/148 747/4/148
f 726/4/149 728/4/149 747/4/149
f 730/4/150 749/4/150 748/4/150
f 728/4/151 730/4/151 748/4/151
f 732/4/152 750/4/152 749/4/152
f 730/4/153 732/4/153 749/4/153
f 734/4/154 751/4/154 750/4/154
f 732/4/155 734/4/155 750/4/155
f 736/4/156 752/4/156 751/4/156
f 734/4/156 736/4/156 751/4/156
f 738/4/157 753/4/157 752/4/157
f 736/4/158 738/4/158 752/4/158
f 740/4/159 754/4/159 753/4/159
f 738/4/160 740/4/160 753/4/160
f 715/4/161 742/4/161 754/4/161
f 740/4/162 715/4/162 754/4/162
f 741/4/26 743/4/26 742/4/26
f 743/4/26 744/4/26 742/4/26
f 744/4/26 745/4/26 742/4/26
f 745/4/26 746/4/26 742/4/26
f 746/4/26 747/4/26 742/4/26
f 747/4/26 748/4/26 742/4/26
f 748/4/26 749/4/26 742/4/26
f 749/4/26 750/4/26 742/4/26
f 750/4/26 751/4/26 742/4/26
f 751/4/26 752/4/26 742/4/26
f 752/4/26 753/4/26 742/4/26
f 753/4/26 754/4/26 742/4/26
f 755/2/163 756/2/163 757/2/163
f 758/2/163 755/2/163 757/2/163
f 759/2/164 760/2/164 756/2/164
f 755/2/164 759/2/164 756/2/164
f 761/2/165 762/2/165 760/2/165
f 759/2/165 761/2/165 760/2/165
f 763/2/166 764/2/166 762/2/166
f 761/2/166 763/2/166 762/2/166
f 765/2/167 766/2/167 764/2/167
f 763/2/167 765/2/167 764/2/167
f 767/2/168 768/2/168 766/2/168
f 765/2/168 767/2/168 766/2/168
f 769/2/169 770/2/169 768/2/169
f 767/2/169 769/2/169 768/2/169
f 758/2/170 757/2/170 770/2/170
f 769/2/170 758/2/170 770/2/170
f 759/2/9 755/2/9 758/2/9
f 761/2/9 759/2/9 758/2/9
f 763/2/9 761/2/9 758/2/9
f 765/2/9 763/2/9 758/2/9
f 767/2/9 765/2/9 758/2/9
f 769/2/9 767/2/9 758/2/9
f 756/2/26 760/2/26 757/2/26
f 760/2/26 762/2/26 757/2/26
f 762/2/26 764/2/26 757/2/26
f 764/2/26 766/2/26 757/2/26
f 766/2/26 768/2/26 757/2/26
f 768/2/26 770/2/26 757/2/26
f 771/2/1 772/2/1 773/2/1
f 774/2/1 771/2/1 773/2/1
f 775/2/27 776/2/27 772/2/27
f 771/2/27 775/2/27 772/2/27
f 777/2/3 778/2/3 776/2/3
f 775/2/3 777/2/3 776/2/3
f 779/2/28 780/2/28 778/2/28
f 777/2/28 779/2/28 778/2/28
f 781/2/5 782/2/5 780/2/5
f 779/2/5 781/2/5 780/2/5
f 783/2/29 784/2/29 782/2/29
f 781/2/29 783/2/29 782/2/29
f 785/2/7 786/2/7 784/2/7
f 783/2/7 785/2/7 784/2/7
f 774/2/30 773/2/30 786/2/30
f 785/2/30 774/2/30 786/2/30
f 775/2/9 771/2/9 774/2/9
f 777/2/9 775/2/9 774/2/9
f 779/2/9 777/2/9 774/2/9
f 781/2/9 779/2/9 774/2/9
f 783/2/9 781/2/9 774/2/9
f 785/2/9 783/2/9 774/2/9
f 772/2/26 776/2/26 773/2/26
f 776/2/26 778/2/26 773/2/26
f 778/2/26 780/2/26 773/2/26
f 780/2/26 782/2/26 773/2/26
f 782/2/26 784/2/26 773/2/26
f 784/2/26 786/2/26 773/2/26
f 787/2/1 788/2/1 789/2/1
f 790/2/1 787/2/1 789/2/1
f 791/2/27 792/2/27 788/2/27
f 787/2/27 791/2/27 788/2/27
f 793/2/3 794/2/3 792/2/3
f 791/2/3 793/2/3 792/2/3
f 795/2/28 796/2/28 794/2/28
f 793/2/28 795/2/28 794/2/28
f 797/2/5 798/2/5 796/2/5
f 795/2/5 797/2/5 796/2/5
f 799/2/29 800/2/29 798/2/29
f 797/2/29 799/2/29 798/2/29
f 801/2/7 802/2/7 800/2/7
f 799/2/7 801/2/7 800/2/7
f 790/2/30 789/2/30 802/2/30
f 801/2/30 790/2/30 802/2/30
f 791/2/9 787/2/9 790/2/9
f 793/2/9 791/2/9 790/2/9
f 795/2/9 793/2/9 790/2/9
f 797/2/9 795/2/9 790/2/9
f 799/2/9 797/2/9 790/2/9
f 801/2/9 799/2/9 790/2/9
f 788/2/26 792/2/26 789/2/26
f 792/2/26 794/2/26 789/2/26
f 794/2/26 796/2/26 789/2/26
f 796/2/26 798/2/26 789/2/26
f 798/2/26 800/2/26 789/2/26
f 800/2/26 802/2/26 789/2/26
f 803/2/1 804/2/1 805/2/1
f 806/2/1 803/2/1 805/2/1
f 807/2/27 808/2/27 804/2/27
f 803/2/27 807/2/27 804/2/27
f 809/2/3 810/2/3 808/2/3
f 807/2/3 809/2/3 808/2/3
f 811/2/28 812/2/28 810/2/28
f 809/2/28 811/2/28 810/2/28
f 813/2/5 814/2/5 812/2/5
f 811/2/5 813/2/5 812/2/5
f 815/2/29 816/2/29 814/2/29
f 813/2/29 815/2/29 814/2/29
f 817/2/7 818/2/7 816/2/7
f 815/2/7 817/2/7 816/2/7
f 806/2/30 805/2/30 818/2/30
f 817/2/30 806/2/30 818/2/30
f 807/2/9 803/2/9 806/2/9
f 809/2/9 807/2/9 806/2/9
f 811/2/9 809/2/9 806/2/9
f 813/2/9 811/2/9 806/2/9
f 815/2/9 813/2/9 806/2/9
f 817/2/9 815/2/9 806/2/9
f 804/2/26 808/2/26 805/2/26
f 808/2/26 810/2/26 805/2/26
f 810/2/26 812/2/26 805/2/26
f 812/2/26 814/2/26 805/2/26
f 814/2/26 816/2/26 805/2/26
f 816/2/26 818/2/26 805/2/26
f 819/2/1 820/2/1 821/2/1
f 822/2/1 819/2/1 821/2/1
f 823/2/27 824/2/27 820/2/27
f 819/2/27 823/2/27 820/2/27
f 825/2/3 826/2/3 824/2/3
f 823/2/3 825/2/3 824/2/3
f 827/2/28 828/2/28 826/2/28
f 825/2/28 827/2/28 826/2/28
f 829/2/5 830/2/5 828/2/5
f 827/2/5 829/2/5 828/2/5
f 831/2/29 832/2/29 830/2/29
f 829/2/29 831/2/29 830/2/29
f 833/2/7 834/2/7 832/2/7
f 831/2/7 833/2/7 832/2/7
f 822/2/30 821/2/30 834/2/30
f 833/2/30 822/2/30 834/2/30
f 823/2/9 819/2/9 822/2/9
f 825/2/9 823/2/9 822/2/9
f 827/2/9 825/2/9 822/2/9
f 829/2/9 827/2/9 822/2/9
f 831/2/9 829/2/9 822/2/9
f 833/2/9 831/2/9 822/2/9
f 820/2/26 824/2/26 821/2/26
f 824/2/26 826/2/26 821/2/26
f 826/2/26 828/2/26 821/2/26
f 828/2/26 830/2/26 821/2/26
f 830/2/26 832/2/26 821/2/26
f 832/2/26 834/2/26 821/2/26
