# FluidCargoPackager - generated by Tools/generate_meshes.py, do not hand-edit
# Regenerate with: python Tools/generate_meshes.py
o FluidCargoPackager
v -6.40000 0.00000 -6.00000
v -6.40000 0.40000 -6.00000
v 6.40000 0.40000 -6.00000
v 6.40000 0.00000 -6.00000
v -7.50000 0.00000 -4.90000
v -7.50000 0.40000 -4.90000
v -7.50000 0.00000 4.90000
v -7.50000 0.40000 4.90000
v -6.40000 0.00000 6.00000
v -6.40000 0.40000 6.00000
v 6.40000 0.00000 6.00000
v 6.40000 0.40000 6.00000
v 7.50000 0.00000 4.90000
v 7.50000 0.40000 4.90000
v 7.50000 0.00000 -4.90000
v 7.50000 0.40000 -4.90000
v -6.18114 0.70000 -5.79482
v 6.18114 0.70000 -5.79482
v -7.24885 0.70000 -4.73592
v -7.24885 0.70000 4.73592
v -6.18114 0.70000 5.79482
v 6.18114 0.70000 5.79482
v 7.24885 0.70000 4.73592
v 7.24885 0.70000 -4.73592
v 3.40000 2.30000 -1.90000
v 3.40000 3.12438 -1.71184
v 9.60000 3.12438 -1.71184
v 9.60000 2.30000 -1.90000
v 3.40000 3.78548 -1.18463
v 9.60000 3.78548 -1.18463
v 3.40000 4.15236 -0.42279
v 9.60000 4.15236 -0.42279
v 3.40000 4.15236 0.42279
v 9.60000 4.15236 0.42279
v 3.40000 3.78548 1.18463
v 9.60000 3.78548 1.18463
v 3.40000 3.12438 1.71184
v 9.60000 3.12438 1.71184
v 3.40000 2.30000 1.90000
v 9.60000 2.30000 1.90000
v 3.40000 1.47562 1.71184
v 9.60000 1.47562 1.71184
v 3.40000 0.81452 1.18463
v 9.60000 0.81452 1.18463
v 3.40000 0.44764 0.42279
v 9.60000 0.44764 0.42279
v 3.40000 0.44764 -0.42279
v 9.60000 0.44764 -0.42279
v 3.40000 0.81452 -1.18463
v 9.60000 0.81452 -1.18463
v 3.40000 1.47562 -1.71184
v 9.60000 1.47562 -1.71184
v -9.60000 2.30000 -1.90000
v -9.60000 3.12438 -1.71184
v -3.40000 3.12438 -1.71184
v -3.40000 2.30000 -1.90000
v -9.60000 3.78548 -1.18463
v -3.40000 3.78548 -1.18463
v -9.60000 4.15236 -0.42279
v -3.40000 4.15236 -0.42279
v -9.60000 4.15236 0.42279
v -3.40000 4.15236 0.42279
v -9.60000 3.78548 1.18463
v -3.40000 3.78548 1.18463
v -9.60000 3.12438 1.71184
v -3.40000 3.12438 1.71184
v -9.60000 2.30000 1.90000
v -3.40000 2.30000 1.90000
v -9.60000 1.47562 1.71184
v -3.40000 1.47562 1.71184
v -9.60000 0.81452 1.18463
v -3.40000 0.81452 1.18463
v -9.60000 0.44764 0.42279
v -3.40000 0.44764 0.42279
v -9.60000 0.44764 -0.42279
v -3.40000 0.44764 -0.42279
v -9.60000 0.81452 -1.18463
v -3.40000 0.81452 -1.18463
v -9.60000 1.47562 -1.71184
v -3.40000 1.47562 -1.71184
v 3.45000 0.45000 -2.70000
v 3.45000 4.15000 -2.70000
v 3.75000 4.15000 -2.70000
v 3.75000 0.45000 -2.70000
v 3.15000 0.45000 -2.40000
v 3.15000 4.15000 -2.40000
v 3.15000 0.45000 2.40000
v 3.15000 4.15000 2.40000
v 3.45000 0.45000 2.70000
v 3.45000 4.15000 2.70000
v 3.75000 0.45000 2.70000
v 3.75000 4.15000 2.70000
v 4.05000 0.45000 2.40000
v 4.05000 4.15000 2.40000
v 4.05000 0.45000 -2.40000
v 4.05000 4.15000 -2.40000
v 3.46387 4.40000 -2.45038
v 3.73613 4.40000 -2.45038
v 3.19607 4.40000 -2.15428
v 3.19607 4.40000 2.15428
v 3.46387 4.40000 2.45038
v 3.73613 4.40000 2.45038
v 4.00393 4.40000 2.15428
v 4.00393 4.40000 -2.15428
v -3.75000 0.45000 -2.70000
v -3.75000 4.15000 -2.70000
v -3.45000 4.15000 -2.70000
v -3.45000 0.45000 -2.70000
v -4.05000 0.45000 -2.40000
v -4.05000 4.15000 -2.40000
v -4.05000 0.45000 2.40000
v -4.05000 4.15000 2.40000
v -3.75000 0.45000 2.70000
v -3.75000 4.15000 2.70000
v -3.45000 0.45000 2.70000
v -3.45000 4.15000 2.70000
v -3.15000 0.45000 2.40000
v -3.15000 4.15000 2.40000
v -3.15000 0.45000 -2.40000
v -3.15000 4.15000 -2.40000
v -3.73613 4.40000 -2.45038
v -3.46387 4.40000 -2.45038
v -4.00393 4.40000 -2.15428
v -4.00393 4.40000 2.15428
v -3.73613 4.40000 2.45038
v -3.46387 4.40000 2.45038
v -3.19607 4.40000 2.15428
v -3.19607 4.40000 -2.15428
v -2.90000 0.45000 -5.00000
v -2.90000 4.35000 -5.00000
v 2.90000 4.35000 -5.00000
v 2.90000 0.45000 -5.00000
v -3.20000 0.45000 -4.70000
v -3.20000 4.35000 -4.70000
v -3.20000 0.45000 -3.90000
v -3.20000 4.35000 -3.90000
v -2.90000 0.45000 -3.60000
v -2.90000 4.35000 -3.60000
v 2.90000 0.45000 -3.60000
v 2.90000 4.35000 -3.60000
v 3.20000 0.45000 -3.90000
v 3.20000 4.35000 -3.90000
v 3.20000 0.45000 -4.70000
v 3.20000 4.35000 -4.70000
v -2.65698 4.60000 -4.94134
v 2.65698 4.60000 -4.94134
v -2.95193 4.60000 -4.66899
v -2.95193 4.60000 -3.93101
v -2.65698 4.60000 -3.65866
v 2.65698 4.60000 -3.65866
v 2.95193 4.60000 -3.93101
v 2.95193 4.60000 -4.66899
v -2.90000 0.45000 3.60000
v -2.90000 4.35000 3.60000
v 2.90000 4.35000 3.60000
v 2.90000 0.45000 3.60000
v -3.20000 0.45000 3.90000
v -3.20000 4.35000 3.90000
v -3.20000 0.45000 4.70000
v -3.20000 4.35000 4.70000
v -2.90000 0.45000 5.00000
v -2.90000 4.35000 5.00000
v 2.90000 0.45000 5.00000
v 2.90000 4.35000 5.00000
v 3.20000 0.45000 4.70000
v 3.20000 4.35000 4.70000
v 3.20000 0.45000 3.90000
v 3.20000 4.35000 3.90000
v -2.65698 4.60000 3.65866
v 2.65698 4.60000 3.65866
v -2.95193 4.60000 3.93101
v -2.95193 4.60000 4.66899
v -2.65698 4.60000 4.94134
v 2.65698 4.60000 4.94134
v 2.95193 4.60000 4.66899
v 2.95193 4.60000 3.93101
v -3.20000 6.20000 5.80000
v -2.95641 7.42459 5.80000
v -2.95641 7.42459 -5.80000
v -3.20000 6.20000 -5.80000
v -2.26274 8.46274 5.80000
v -2.26274 8.46274 -5.80000
v -1.22459 9.15641 5.80000
v -1.22459 9.15641 -5.80000
v -0.00000 9.40000 5.80000
v -0.00000 9.40000 -5.80000
v 1.22459 9.15641 5.80000
v 1.22459 9.15641 -5.80000
v 2.26274 8.46274 5.80000
v 2.26274 8.46274 -5.80000
v 2.95641 7.42459 5.80000
v 2.95641 7.42459 -5.80000
v 3.20000 6.20000 5.80000
v 3.20000 6.20000 -5.80000
v 2.95641 4.97541 5.80000
v 2.95641 4.97541 -5.80000
v 2.26274 3.93726 5.80000
v 2.26274 3.93726 -5.80000
v 1.22459 3.24359 5.80000
v 1.22459 3.24359 -5.80000
v 0.00000 3.00000 5.80000
v 0.00000 3.00000 -5.80000
v -1.22459 3.24359 5.80000
v -1.22459 3.24359 -5.80000
v -2.26274 3.93726 5.80000
v -2.26274 3.93726 -5.80000
v -2.95641 4.97541 5.80000
v -2.95641 4.97541 -5.80000
v -1.20000 8.60000 -1.60000
v -1.20000 9.90000 -1.60000
v 1.20000 9.90000 -1.60000
v 1.20000 8.60000 -1.60000
v -1.60000 8.60000 -1.20000
v -1.60000 9.90000 -1.20000
v -1.60000 8.60000 1.20000
v -1.60000 9.90000 1.20000
v -1.20000 8.60000 1.60000
v -1.20000 9.90000 1.60000
v 1.20000 8.60000 1.60000
v 1.20000 9.90000 1.60000
v 1.60000 8.60000 1.20000
v 1.60000 9.90000 1.20000
v 1.60000 8.60000 -1.20000
v 1.60000 9.90000 -1.20000
v -1.02000 10.20000 -1.36000
v 1.02000 10.20000 -1.36000
v -1.36000 10.20000 -1.02000
v -1.36000 10.20000 1.02000
v -1.02000 10.20000 1.36000
v 1.02000 10.20000 1.36000
v 1.36000 10.20000 1.02000
v 1.36000 10.20000 -1.02000
v 3.45000 2.30000 -2.20000
v 3.45000 3.25454 -1.98213
v 4.35000 3.25454 -1.98213
v 4.35000 2.30000 -2.20000
v 3.45000 4.02003 -1.37168
v 4.35000 4.02003 -1.37168
v 3.45000 4.44484 -0.48955
v 4.35000 4.44484 -0.48955
v 3.45000 4.44484 0.48955
v 4.35000 4.44484 0.48955
v 3.45000 4.02003 1.37168
v 4.35000 4.02003 1.37168
v 3.45000 3.25454 1.98213
v 4.35000 3.25454 1.98213
v 3.45000 2.30000 2.20000
v 4.35000 2.30000 2.20000
v 3.45000 1.34546 1.98213
v 4.35000 1.34546 1.98213
v 3.45000 0.57997 1.37168
v 4.35000 0.57997 1.37168
v 3.45000 0.15516 0.48955
v 4.35000 0.15516 0.48955
v 3.45000 0.15516 -0.48955
v 4.35000 0.15516 -0.48955
v 3.45000 0.57997 -1.37168
v 4.35000 0.57997 -1.37168
v 3.45000 1.34546 -1.98213
v 4.35000 1.34546 -1.98213
v -4.35000 2.30000 -2.20000
v -4.35000 3.25454 -1.98213
v -3.45000 3.25454 -1.98213
v -3.45000 2.30000 -2.20000
v -4.35000 4.02003 -1.37168
v -3.45000 4.02003 -1.37168
v -4.35000 4.44484 -0.48955
v -3.45000 4.44484 -0.48955
v -4.35000 4.44484 0.48955
v -3.45000 4.44484 0.48955
v -4.35000 4.02003 1.37168
v -3.45000 4.02003 1.37168
v -4.35000 3.25454 1.98213
v -3.45000 3.25454 1.98213
v -4.35000 2.30000 2.20000
v -3.45000 2.30000 2.20000
v -4.35000 1.34546 1.98213
v -3.45000 1.34546 1.98213
v -4.35000 0.57997 1.37168
v -3.45000 0.57997 1.37168
v -4.35000 0.15516 0.48955
v -3.45000 0.15516 0.48955
v -4.35000 0.15516 -0.48955
v -3.45000 0.15516 -0.48955
v -4.35000 0.57997 -1.37168
v -3.45000 0.57997 -1.37168
v -4.35000 1.34546 -1.98213
v -3.45000 1.34546 -1.98213
v 2.45000 8.90000 -3.50000
v 2.45000 9.30000 -3.50000
v 2.75000 9.30000 -3.50000
v 2.75000 8.90000 -3.50000
v 2.35000 8.90000 -3.40000
v 2.35000 9.30000 -3.40000
v 2.35000 8.90000 3.40000
v 2.35000 9.30000 3.40000
v 2.45000 8.90000 3.50000
v 2.45000 9.30000 3.50000
v 2.75000 8.90000 3.50000
v 2.75000 9.30000 3.50000
v 2.85000 8.90000 3.40000
v 2.85000 9.30000 3.40000
v 2.85000 8.90000 -3.40000
v 2.85000 9.30000 -3.40000
v -0.15000 8.90000 -3.50000
v -0.15000 9.30000 -3.50000
v 0.15000 9.30000 -3.50000
v 0.15000 8.90000 -3.50000
v -0.25000 8.90000 -3.40000
v -0.25000 9.30000 -3.40000
v -0.25000 8.90000 3.40000
v -0.25000 9.30000 3.40000
v -0.15000 8.90000 3.50000
v -0.15000 9.30000 3.50000
v 0.15000 8.90000 3.50000
v 0.15000 9.30000 3.50000
v 0.25000 8.90000 3.40000
v 0.25000 9.30000 3.40000
v 0.25000 8.90000 -3.40000
v 0.25000 9.30000 -3.40000
v -2.75000 8.90000 -3.50000
v -2.75000 9.30000 -3.50000
v -2.45000 9.30000 -3.50000
v -2.45000 8.90000 -3.50000
v -2.85000 8.90000 -3.40000
v -2.85000 9.30000 -3.40000
v -2.85000 8.90000 3.40000
v -2.85000 9.30000 3.40000
v -2.75000 8.90000 3.50000
v -2.75000 9.30000 3.50000
v -2.45000 8.90000 3.50000
v -2.45000 9.30000 3.50000
v -2.35000 8.90000 3.40000
v -2.35000 9.30000 3.40000
v -2.35000 8.90000 -3.40000
v -2.35000 9.30000 -3.40000
v -4.71820 0.45000 -4.08180
v -4.71820 2.55000 -4.08180
v -4.85000 2.55000 -4.40000
v -4.85000 0.45000 -4.40000
v -4.40000 0.45000 -3.95000
v -4.40000 2.55000 -3.95000
v -4.08180 0.45000 -4.08180
v -4.08180 2.55000 -4.08180
v -3.95000 0.45000 -4.40000
v -3.95000 2.55000 -4.40000
v -4.08180 0.45000 -4.71820
v -4.08180 2.55000 -4.71820
v -4.40000 0.45000 -4.85000
v -4.40000 2.55000 -4.85000
v -4.71820 0.45000 -4.71820
v -4.71820 2.55000 -4.71820
v -6.11184 2.55000 -3.57562
v -6.11184 2.80000 -3.57562
v -6.30000 2.80000 -4.40000
v -6.30000 2.55000 -4.40000
v -5.58463 2.55000 -2.91452
v -5.58463 2.80000 -2.91452
v -4.82279 2.55000 -2.54764
v -4.82279 2.80000 -2.54764
v -3.97721 2.55000 -2.54764
v -3.97721 2.80000 -2.54764
v -3.21537 2.55000 -2.91452
v -3.21537 2.80000 -2.91452
v -2.68816 2.55000 -3.57562
v -2.68816 2.80000 -3.57562
v -2.50000 2.55000 -4.40000
v -2.50000 2.80000 -4.40000
v -2.68816 2.55000 -5.22438
v -2.68816 2.80000 -5.22438
v -3.21537 2.55000 -5.88548
v -3.21537 2.80000 -5.88548
v -3.97721 2.55000 -6.25236
v -3.97721 2.80000 -6.25236
v -4.82279 2.55000 -6.25236
v -4.82279 2.80000 -6.25236
v -5.58463 2.55000 -5.88548
v -5.58463 2.80000 -5.88548
v -6.11184 2.55000 -5.22438
v -6.11184 2.80000 -5.22438
v -5.97670 2.95000 -3.64070
v -6.15000 2.95000 -4.40000
v -5.49111 2.95000 -3.03179
v -4.78941 2.95000 -2.69388
v -4.01059 2.95000 -2.69388
v -3.30889 2.95000 -3.03179
v -2.82330 2.95000 -3.64070
v -2.65000 2.95000 -4.40000
v -2.82330 2.95000 -5.15930
v -3.30889 2.95000 -5.76821
v -4.01059 2.95000 -6.10612
v -4.78941 2.95000 -6.10612
v -5.49111 2.95000 -5.76821
v -5.97670 2.95000 -5.15930
v -4.93740 2.45000 -3.86260
v -4.93740 3.10000 -3.86260
v -5.16000 3.10000 -4.40000
v -5.16000 2.45000 -4.40000
v -4.40000 2.45000 -3.64000
v -4.40000 3.10000 -3.64000
v -3.86260 2.45000 -3.86260
v -3.86260 3.10000 -3.86260
v -3.64000 2.45000 -4.40000
v -3.64000 3.10000 -4.40000
v -3.86260 2.45000 -4.93740
v -3.86260 3.10000 -4.93740
v -4.40000 2.45000 -5.16000
v -4.40000 3.10000 -5.16000
v -4.93740 2.45000 -4.93740
v -4.93740 3.10000 -4.93740
v 4.04000 0.45000 -5.07500
v 4.04000 2.34000 -5.07500
v 5.16000 2.34000 -5.07500
v 5.16000 0.45000 -5.07500
v 3.79000 0.45000 -4.82500
v 3.79000 2.34000 -4.82500
v 3.79000 0.45000 -3.97500
v 3.79000 2.34000 -3.97500
v 4.04000 0.45000 -3.72500
v 4.04000 2.34000 -3.72500
v 5.16000 0.45000 -3.72500
v 5.16000 2.34000 -3.72500
v 5.41000 0.45000 -3.97500
v 5.41000 2.34000 -3.97500
v 5.41000 0.45000 -4.82500
v 5.41000 2.34000 -4.82500
v 3.25000 2.13000 -5.90000
v 3.25000 4.25000 -5.90000
v 5.95000 4.25000 -5.90000
v 5.95000 2.13000 -5.90000
v 2.80000 2.13000 -5.45000
v 2.80000 4.25000 -5.45000
v 2.80000 2.13000 -3.35000
v 2.80000 4.25000 -3.35000
v 3.25000 2.13000 -2.90000
v 3.25000 4.25000 -2.90000
v 5.95000 2.13000 -2.90000
v 5.95000 4.25000 -2.90000
v 6.40000 2.13000 -3.35000
v 6.40000 4.25000 -3.35000
v 6.40000 2.13000 -5.45000
v 6.40000 4.25000 -5.45000
v 3.51759 4.65000 -5.60268
v 5.68241 4.65000 -5.60268
v 3.14551 4.65000 -5.24845
v 3.14551 4.65000 -3.55155
v 3.51759 4.65000 -3.19732
v 5.68241 4.65000 -3.19732
v 6.05449 4.65000 -3.55155
v 6.05449 4.65000 -5.24845
v 2.75000 4.30000 -6.27500
v 2.75000 4.85000 -6.27500
v 6.45000 4.85000 -6.27500
v 6.45000 4.30000 -6.27500
v 2.35000 4.30000 -5.87500
v 2.35000 4.85000 -5.87500
v 2.35000 4.30000 -2.92500
v 2.35000 4.85000 -2.92500
v 2.75000 4.30000 -2.52500
v 2.75000 4.85000 -2.52500
v 6.45000 4.30000 -2.52500
v 6.45000 4.85000 -2.52500
v 6.85000 4.30000 -2.92500
v 6.85000 4.85000 -2.92500
v 6.85000 4.30000 -5.87500
v 6.85000 4.85000 -5.87500
v 2.92559 5.10000 -6.09704
v 6.27441 5.10000 -6.09704
v 2.55908 5.10000 -5.73794
v 2.55908 5.10000 -3.06206
v 2.92559 5.10000 -2.70296
v 6.27441 5.10000 -2.70296
v 6.64092 5.10000 -3.06206
v 6.64092 5.10000 -5.73794
v 5.75000 0.00000 -5.35000
v 5.75000 0.60000 -5.35000
v 6.65000 0.60000 -5.35000
v 6.65000 0.00000 -5.35000
v 5.45000 0.00000 -5.05000
v 5.45000 0.60000 -5.05000
v 5.45000 0.00000 -4.15000
v 5.45000 0.60000 -4.15000
v 5.75000 0.00000 -3.85000
v 5.75000 0.60000 -3.85000
v 6.65000 0.00000 -3.85000
v 6.65000 0.60000 -3.85000
v 6.95000 0.00000 -4.15000
v 6.95000 0.60000 -4.15000
v 6.95000 0.00000 -5.05000
v 6.95000 0.60000 -5.05000
v 5.75000 0.00000 3.85000
v 5.75000 0.60000 3.85000
v 6.65000 0.60000 3.85000
v 6.65000 0.00000 3.85000
v 5.45000 0.00000 4.15000
v 5.45000 0.60000 4.15000
v 5.45000 0.00000 5.05000
v 5.45000 0.60000 5.05000
v 5.75000 0.00000 5.35000
v 5.75000 0.60000 5.35000
v 6.65000 0.00000 5.35000
v 6.65000 0.60000 5.35000
v 6.95000 0.00000 5.05000
v 6.95000 0.60000 5.05000
v 6.95000 0.00000 4.15000
v 6.95000 0.60000 4.15000
v -6.65000 0.00000 -5.35000
v -6.65000 0.60000 -5.35000
v -5.75000 0.60000 -5.35000
v -5.75000 0.00000 -5.35000
v -6.95000 0.00000 -5.05000
v -6.95000 0.60000 -5.05000
v -6.95000 0.00000 -4.15000
v -6.95000 0.60000 -4.15000
v -6.65000 0.00000 -3.85000
v -6.65000 0.60000 -3.85000
v -5.75000 0.00000 -3.85000
v -5.75000 0.60000 -3.85000
v -5.45000 0.00000 -4.15000
v -5.45000 0.60000 -4.15000
v -5.45000 0.00000 -5.05000
v -5.45000 0.60000 -5.05000
v -6.65000 0.00000 3.85000
v -6.65000 0.60000 3.85000
v -5.75000 0.60000 3.85000
v -5.75000 0.00000 3.85000
v -6.95000 0.00000 4.15000
v -6.95000 0.60000 4.15000
v -6.95000 0.00000 5.05000
v -6.95000 0.60000 5.05000
v -6.65000 0.00000 5.35000
v -6.65000 0.60000 5.35000
v -5.75000 0.00000 5.35000
v -5.75000 0.60000 5.35000
v -5.45000 0.00000 5.05000
v -5.45000 0.60000 5.05000
v -5.45000 0.00000 4.15000
v -5.45000 0.60000 4.15000
vt 0.01000 0.01000
vt 0.04000 0.01000
vt 0.03000 0.01000
vt 0.02000 0.01000
vn 0.00000 0.00000 -1.00000
vn -0.70711 0.00000 -0.70711
vn -1.00000 0.00000 0.00000
vn -0.70711 0.00000 0.70711
vn 0.00000 -0.00000 1.00000
vn 0.70711 -0.00000 0.70711
vn 1.00000 0.00000 0.00000
vn 0.70711 0.00000 -0.70711
vn 0.00000 -1.00000 0.00000
vn 0.00000 0.56453 -0.82541
vn -0.50347 0.69915 -0.50766
vn -0.50013 0.70692 -0.50013
vn -0.76677 0.64192 0.00000
vn -0.76677 0.64192 0.00000
vn -0.49809 0.70687 0.50223
vn -0.50535 0.69946 0.50535
vn 0.00000 0.56453 0.82541
vn 0.50347 0.69915 0.50766
vn 0.50013 0.70692 0.50013
vn 0.76677 0.64192 0.00000
vn 0.76677 0.64192 0.00000
vn 0.49809 0.70687 -0.50223
vn 0.50535 0.69946 -0.50535
vn 0.00000 1.00000 -0.00000
vn 0.00000 0.22252 -0.97493
vn 0.00000 0.62349 -0.78183
vn 0.00000 0.90097 -0.43388
vn 0.00000 0.90097 0.43388
vn 0.00000 0.62349 0.78183
vn 0.00000 0.22252 0.97493
vn 0.00000 -0.22252 0.97493
vn 0.00000 -0.62349 0.78183
vn 0.00000 -0.90097 0.43388
vn 0.00000 -1.00000 0.00000
vn 0.00000 -0.90097 -0.43388
vn 0.00000 -0.62349 -0.78183
vn 0.00000 -0.22252 -0.97493
vn 0.00000 0.70656 -0.70765
vn 0.00000 0.70656 -0.70765
vn -0.58029 0.62276 -0.52481
vn -0.56698 0.59756 -0.56698
vn -0.98344 0.18124 0.00000
vn -0.98344 0.18124 0.00000
vn -0.60450 0.57939 0.54671
vn -0.54536 0.63652 0.54536
vn 0.00000 0.70656 0.70765
vn -0.00000 0.70656 0.70765
vn 0.58029 0.62276 0.52481
vn 0.56698 0.59756 0.56698
vn 0.98344 0.18124 0.00000
vn 0.98344 0.18124 0.00000
vn 0.60450 0.57939 -0.54671
vn 0.54536 0.63652 -0.54536
vn 0.00000 0.22844 -0.97356
vn 0.00000 0.22844 -0.97356
vn -0.53900 0.60724 -0.58373
vn -0.53790 0.64910 -0.53790
vn -0.70984 0.70436 0.00000
vn -0.52154 0.63951 0.56482
vn -0.55503 0.61959 0.55503
vn 0.00000 0.22844 0.97356
vn -0.00000 0.22844 0.97356
vn 0.53900 0.60724 0.58373
vn 0.53790 0.64910 0.53790
vn 0.70984 0.70436 0.00000
vn 0.52154 0.63951 -0.56482
vn 0.55503 0.61959 -0.55503
vn 0.00000 0.22844 -0.97356
vn 0.00000 0.22844 -0.97356
vn -0.53900 0.60724 -0.58373
vn -0.53790 0.64910 -0.53790
vn -0.52154 0.63951 0.56482
vn 0.00000 0.22844 0.97356
vn -0.00000 0.22844 0.97356
vn 0.53900 0.60724 0.58373
vn 0.53790 0.64910 0.53790
vn 0.52154 0.63951 -0.56482
vn -0.98079 0.19509 0.00000
vn -0.83147 0.55557 0.00000
vn -0.55557 0.83147 0.00000
vn -0.19509 0.98079 0.00000
vn 0.19509 0.98079 0.00000
vn 0.55557 0.83147 0.00000
vn 0.83147 0.55557 0.00000
vn 0.98079 0.19509 0.00000
vn 0.98079 -0.19509 0.00000
vn 0.83147 -0.55557 0.00000
vn 0.55557 -0.83147 0.00000
vn 0.19509 -0.98079 0.00000
vn -0.19509 -0.98079 0.00000
vn -0.55557 -0.83147 0.00000
vn -0.83147 -0.55557 0.00000
vn -0.98079 -0.19509 0.00000
vn -0.70711 0.00000 -0.70711
vn -0.70711 0.00000 0.70711
vn 0.70711 -0.00000 0.70711
vn 0.70711 0.00000 -0.70711
vn 0.00000 0.62470 -0.78087
vn 0.00000 0.62470 -0.78087
vn -0.50252 0.70353 -0.50252
vn -0.50252 0.70353 -0.50252
vn -0.78087 0.62470 0.00000
vn -0.78087 0.62470 0.00000
vn -0.50252 0.70353 0.50252
vn -0.50252 0.70353 0.50252
vn 0.00000 0.62470 0.78087
vn -0.00000 0.62470 0.78087
vn 0.50252 0.70353 0.50252
vn 0.50252 0.70353 0.50252
vn 0.78087 0.62470 0.00000
vn 0.78087 0.62470 0.00000
vn 0.50252 0.70353 -0.50252
vn 0.50252 0.70353 -0.50252
vn 0.00000 0.22252 -0.97493
vn 0.00000 0.62349 -0.78183
vn 0.00000 0.90097 -0.43388
vn 0.00000 0.90097 0.43388
vn 0.00000 0.62349 0.78183
vn 0.00000 0.22252 0.97493
vn 0.00000 -0.22252 0.97493
vn 0.00000 -0.62349 0.78183
vn 0.00000 -0.90097 0.43388
vn 0.00000 -1.00000 0.00000
vn 0.00000 -0.90097 -0.43388
vn 0.00000 -0.62349 -0.78183
vn 0.00000 -0.22252 -0.97493
vn -0.70711 0.00000 -0.70711
vn -0.70711 0.00000 0.70711
vn 0.70711 -0.00000 0.70711
vn 0.70711 0.00000 -0.70711
vn -0.92388 0.00000 0.38268
vn -0.38268 0.00000 0.92388
vn 0.38268 -0.00000 0.92388
vn 0.92388 -0.00000 0.38268
vn 0.92388 0.00000 -0.38268
vn 0.38268 0.00000 -0.92388
vn -0.38268 0.00000 -0.92388
vn -0.92388 0.00000 -0.38268
vn -0.97493 0.00000 0.22252
vn -0.78183 0.00000 0.62349
vn -0.43388 0.00000 0.90097
vn 0.43388 -0.00000 0.90097
vn 0.78183 -0.00000 0.62349
vn 0.97493 -0.00000 0.22252
vn 0.97493 0.00000 -0.22252
vn 0.78183 0.00000 -0.62349
vn 0.43388 0.00000 -0.90097
vn 0.00000 0.00000 -1.00000
vn -0.43388 0.00000 -0.90097
vn -0.78183 0.00000 -0.62349
vn -0.97493 0.00000 -0.22252
vn -0.69807 0.69807 0.15933
vn -0.69807 0.69807 0.15933
vn -0.55981 0.69807 0.44643
vn -0.55981 0.69807 0.44643
vn -0.31067 0.69807 0.64512
vn -0.31067 0.69807 0.64512
vn 0.00000 0.69807 0.71603
vn -0.00000 0.69807 0.71603
vn 0.31067 0.69807 0.64512
vn 0.31067 0.69807 0.64512
vn 0.55981 0.69807 0.44643
vn 0.55981 0.69807 0.44643
vn 0.69807 0.69807 0.15933
vn 0.69807 0.69807 0.15933
vn 0.69807 0.69807 -0.15933
vn 0.69807 0.69807 -0.15933
vn 0.55981 0.69807 -0.44643
vn 0.55981 0.69807 -0.44643
vn 0.31067 0.69807 -0.64512
vn 0.31067 0.69807 -0.64512
vn 0.00000 0.69807 -0.71603
vn 0.00000 0.69807 -0.71603
vn -0.31067 0.69807 -0.64512
vn -0.31067 0.69807 -0.64512
vn -0.55981 0.69807 -0.44643
vn -0.55981 0.69807 -0.44643
vn -0.69807 0.69807 -0.15933
vn -0.69807 0.69807 -0.15933
vn -0.92388 0.00000 0.38268
vn -0.38268 0.00000 0.92388
vn 0.38268 -0.00000 0.92388
vn 0.92388 -0.00000 0.38268
vn 0.92388 0.00000 -0.38268
vn 0.38268 0.00000 -0.92388
vn -0.38268 0.00000 -0.92388
vn -0.92388 0.00000 -0.38268
vn -0.70711 0.00000 -0.70711
vn -0.70711 0.00000 0.70711
vn 0.00000 0.59655 -0.80258
vn 0.00000 0.59655 -0.80258
vn -0.49728 0.69273 -0.52233
vn -0.50035 0.70662 -0.50035
vn -0.75677 0.65368 0.00000
vn -0.75677 0.65368 0.00000
vn -0.48766 0.70697 0.51223
vn -0.50830 0.69517 0.50830
vn 0.00000 0.59655 0.80258
vn -0.00000 0.59655 0.80258
vn 0.49728 0.69273 0.52233
vn 0.50035 0.70662 0.50035
vn 0.75677 0.65368 0.00000
vn 0.75677 0.65368 0.00000
vn 0.48766 0.70697 -0.51223
vn 0.50830 0.69517 -0.50830
vn -0.70711 0.00000 -0.70711
vn 0.70711 -0.00000 0.70711
vn 0.00000 0.57992 -0.81468
vn 0.00000 0.57992 -0.81468
vn -0.50062 0.69880 -0.51094
vn -0.50001 0.70710 -0.50001
vn -0.76710 0.64153 0.00000
vn -0.76710 0.64153 0.00000
vn -0.49487 0.70710 0.50508
vn -0.50527 0.69958 0.50527
vn 0.00000 0.57992 0.81468
vn -0.00000 0.57992 0.81468
vn 0.50062 0.69880 0.51094
vn 0.50001 0.70710 0.50001
vn 0.76710 0.64153 0.00000
vn 0.76710 0.64153 0.00000
vn 0.49487 0.70710 -0.50508
vn 0.50527 0.69958 -0.50527
f 1/1/1 2/1/1 3/1/1
f 4/1/1 1/1/1 3/1/1
f 5/1/2 6/1/2 2/1/2
f 1/1/2 5/1/2 2/1/2
f 7/1/3 8/1/3 6/1/3
f 5/1/3 7/1/3 6/1/3
f 9/1/4 10/1/4 8/1/4
f 7/1/4 9/1/4 8/1/4
f 11/1/5 12/1/5 10/1/5
f 9/1/5 11/1/5 10/1/5
f 13/1/6 14/1/6 12/1/6
f 11/1/6 13/1/6 12/1/6
f 15/1/7 16/1/7 14/1/7
f 13/1/7 15/1/7 14/1/7
f 4/1/8 3/1/8 16/1/8
f 15/1/8 4/1/8 16/1/8
f 5/1/9 1/1/9 4/1/9
f 7/1/9 5/1/9 4/1/9
f 9/1/9 7/1/9 4/1/9
f 11/1/9 9/1/9 4/1/9
f 13/1/9 11/1/9 4/1/9
f 15/1/9 13/1/9 4/1/9
f 2/1/10 17/1/10 18/1/10
f 3/1/10 2/1/10 18/1/10
f 6/1/11 19/1/11 17/1/11
f 2/1/12 6/1/12 17/1/12
f 8/1/13 20/1/13 19/1/13
f 6/1/14 8/1/14 19/1/14
f 10/1/15 21/1/15 20/1/15
f 8/1/16 10/1/16 20/1/16
f 12/1/17 22/1/17 21/1/17
f 10/1/17 12/1/17 21/1/17
f 14/1/18 23/1/18 22/1/18
f 12/1/19 14/1/19 22/1/19
f 16/1/20 24/1/20 23/1/20
f 14/1/21 16/1/21 23/1/21
f 3/1/22 18/1/22 24/1/22
f 16/1/23 3/1/23 24/1/23
f 17/1/24 19/1/24 18/1/24
f 19/1/24 20/1/24 18/1/24
f 20/1/24 21/1/24 18/1/24
f 21/1/24 22/1/24 18/1/24
f 22/1/24 23/1/24 18/1/24
f 23/1/24 24/1/24 18/1/24
f 25/2/25 26/2/25 27/2/25
f 25/2/25 27/2/25 28/2/25
f 26/2/26 29/2/26 30/2/26
f 26/2/26 30/2/26 27/2/26
f 29/2/27 31/2/27 32/2/27
f 29/2/27 32/2/27 30/2/27
f 31/2/24 33/2/24 34/2/24
f 31/2/24 34/2/24 32/2/24
f 33/2/28 35/2/28 36/2/28
f 33/2/28 36/2/28 34/2/28
f 35/2/29 37/2/29 38/2/29
f 35/2/29 38/2/29 36/2/29
f 37/2/30 39/2/30 40/2/30
f 37/2/30 40/2/30 38/2/30
f 39/2/31 41/2/31 42/2/31
f 39/2/31 42/2/31 40/2/31
f 41/2/32 43/2/32 44/2/32
f 41/2/32 44/2/32 42/2/32
f 43/2/33 45/2/33 46/2/33
f 43/2/33 46/2/33 44/2/33
f 45/2/34 47/2/34 48/2/34
f 45/2/34 48/2/34 46/2/34
f 47/2/35 49/2/35 50/2/35
f 47/2/35 50/2/35 48/2/35
f 49/2/36 51/2/36 52/2/36
f 49/2/36 52/2/36 50/2/36
f 51/2/37 25/2/37 28/2/37
f 51/2/37 28/2/37 52/2/37
f 28/2/7 27/2/7 30/2/7
f 25/2/3 29/2/3 26/2/3
f 28/2/7 30/2/7 32/2/7
f 25/2/3 31/2/3 29/2/3
f 28/2/7 32/2/7 34/2/7
f 25/2/3 33/2/3 31/2/3
f 28/2/7 34/2/7 36/2/7
f 25/2/3 35/2/3 33/2/3
f 28/2/7 36/2/7 38/2/7
f 25/2/3 37/2/3 35/2/3
f 28/2/7 38/2/7 40/2/7
f 25/2/3 39/2/3 37/2/3
f 28/2/7 40/2/7 42/2/7
f 25/2/3 41/2/3 39/2/3
f 28/2/7 42/2/7 44/2/7
f 25/2/3 43/2/3 41/2/3
f 28/2/7 44/2/7 46/2/7
f 25/2/3 45/2/3 43/2/3
f 28/2/7 46/2/7 48/2/7
f 25/2/3 47/2/3 45/2/3
f 28/2/7 48/2/7 50/2/7
f 25/2/3 49/2/3 47/2/3
f 28/2/7 50/2/7 52/2/7
f 25/2/3 51/2/3 49/2/3
f 53/2/25 54/2/25 55/2/25
f 53/2/25 55/2/25 56/2/25
f 54/2/26 57/2/26 58/2/26
f 54/2/26 58/2/26 55/2/26
f 57/2/27 59/2/27 60/2/27
f 57/2/27 60/2/27 58/2/27
f 59/2/24 61/2/24 62/2/24
f 59/2/24 62/2/24 60/2/24
f 61/2/28 63/2/28 64/2/28
f 61/2/28 64/2/28 62/2/28
f 63/2/29 65/2/29 66/2/29
f 63/2/29 66/2/29 64/2/29
f 65/2/30 67/2/30 68/2/30
f 65/2/30 68/2/30 66/2/30
f 67/2/31 69/2/31 70/2/31
f 67/2/31 70/2/31 68/2/31
f 69/2/32 71/2/32 72/2/32
f 69/2/32 72/2/32 70/2/32
f 71/2/33 73/2/33 74/2/33
f 71/2/33 74/2/33 72/2/33
f 73/2/34 75/2/34 76/2/34
f 73/2/34 76/2/34 74/2/34
f 75/2/35 77/2/35 78/2/35
f 75/2/35 78/2/35 76/2/35
f 77/2/36 79/2/36 80/2/36
f 77/2/36 80/2/36 78/2/36
f 79/2/37 53/2/37 56/2/37
f 79/2/37 56/2/37 80/2/37
f 56/2/7 55/2/7 58/2/7
f 53/2/3 57/2/3 54/2/3
f 56/2/7 58/2/7 60/2/7
f 53/2/3 59/2/3 57/2/3
f 56/2/7 60/2/7 62/2/7
f 53/2/3 61/2/3 59/2/3
f 56/2/7 62/2/7 64/2/7
f 53/2/3 63/2/3 61/2/3
f 56/2/7 64/2/7 66/2/7
f 53/2/3 65/2/3 63/2/3
f 56/2/7 66/2/7 68/2/7
f 53/2/3 67/2/3 65/2/3
f 56/2/7 68/2/7 70/2/7
f 53/2/3 69/2/3 67/2/3
f 56/2/7 70/2/7 72/2/7
f 53/2/3 71/2/3 69/2/3
f 56/2/7 72/2/7 74/2/7
f 53/2/3 73/2/3 71/2/3
f 56/2/7 74/2/7 76/2/7
f 53/2/3 75/2/3 73/2/3
f 56/2/7 76/2/7 78/2/7
f 53/2/3 77/2/3 75/2/3
f 56/2/7 78/2/7 80/2/7
f 53/2/3 79/2/3 77/2/3
f 81/3/1 82/3/1 83/3/1
f 84/3/1 81/3/1 83/3/1
f 85/3/2 86/3/2 82/3/2
f 81/3/2 85/3/2 82/3/2
f 87/3/3 88/3/3 86/3/3
f 85/3/3 87/3/3 86/3/3
f 89/3/4 90/3/4 88/3/4
f 87/3/4 89/3/4 88/3/4
f 91/3/5 92/3/5 90/3/5
f 89/3/5 91/3/5 90/3/5
f 93/3/6 94/3/6 92/3/6
f 91/3/6 93/3/6 92/3/6
f 95/3/7 96/3/7 94/3/7
f 93/3/7 95/3/7 94/3/7
f 84/3/8 83/3/8 96/3/8
f 95/3/8 84/3/8 96/3/8
f 85/3/9 81/3/9 84/3/9
f 87/3/9 85/3/9 84/3/9
f 89/3/9 87/3/9 84/3/9
f 91/3/9 89/3/9 84/3/9
f 93/3/9 91/3/9 84/3/9
f 95/3/9 93/3/9 84/3/9
f 82/3/38 97/3/38 98/3/38
f 83/3/39 82/3/39 98/3/39
f 86/3/40 99/3/40 97/3/40
f 82/3/41 86/3/41 97/3/41
f 88/3/42 100/3/42 99/3/42
f 86/3/43 88/3/43 99/3/43
f 90/3/44 101/3/44 100/3/44
f 88/3/45 90/3/45 100/3/45
f 92/3/46 102/3/46 101/3/46
f 90/3/47 92/3/47 101/3/47
f 94/3/48 103/3/48 102/3/48
f 92/3/49 94/3/49 102/3/49
f 96/3/50 104/3/50 103/3/50
f 94/3/51 96/3/51 103/3/51
f 83/3/52 98/3/52 104/3/52
f 96/3/53 83/3/53 104/3/53
f 97/3/24 99/3/24 98/3/24
f 99/3/24 100/3/24 98/3/24
f 100/3/24 101/3/24 98/3/24
f 101/3/24 102/3/24 98/3/24
f 102/3/24 103/3/24 98/3/24
f 103/3/24 104/3/24 98/3/24
f 105/3/1 106/3/1 107/3/1
f 108/3/1 105/3/1 107/3/1
f 109/3/2 110/3/2 106/3/2
f 105/3/2 109/3/2 106/3/2
f 111/3/3 112/3/3 110/3/3
f 109/3/3 111/3/3 110/3/3
f 113/3/4 114/3/4 112/3/4
f 111/3/4 113/3/4 112/3/4
f 115/3/5 116/3/5 114/3/5
f 113/3/5 115/3/5 114/3/5
f 117/3/6 118/3/6 116/3/6
f 115/3/6 117/3/6 116/3/6
f 119/3/7 120/3/7 118/3/7
f 117/3/7 119/3/7 118/3/7
f 108/3/8 107/3/8 120/3/8
f 119/3/8 108/3/8 120/3/8
f 109/3/9 105/3/9 108/3/9
f 111/3/9 109/3/9 108/3/9
f 113/3/9 111/3/9 108/3/9
f 115/3/9 113/3/9 108/3/9
f 117/3/9 115/3/9 108/3/9
f 119/3/9 117/3/9 108/3/9
f 106/3/38 121/3/38 122/3/38
f 107/3/39 106/3/39 122/3/39
f 110/3/40 123/3/40 121/3/40
f 106/3/41 110/3/41 121/3/41
f 112/3/42 124/3/42 123/3/42
f 110/3/43 112/3/43 123/3/43
f 114/3/44 125/3/44 124/3/44
f 112/3/45 114/3/45 124/3/45
f 116/3/46 126/3/46 125/3/46
f 114/3/47 116/3/47 125/3/47
f 118/3/48 127/3/48 126/3/48
f 116/3/49 118/3/49 126/3/49
f 120/3/50 128/3/50 127/3/50
f 118/3/51 120/3/51 127/3/51
f 107/3/52 122/3/52 128/3/52
f 120/3/53 107/3/53 128/3/53
f 121/3/24 123/3/24 122/3/24
f 123/3/24 124/3/24 122/3/24
f 124/3/24 125/3/24 122/3/24
f 125/3/24 126/3/24 122/3/24
f 126/3/24 127/3/24 122/3/24
f 127/3/24 128/3/24 122/3/24
f 129/3/1 130/3/1 131/3/1
f 132/3/1 129/3/1 131/3/1
f 133/3/2 134/3/2 130/3/2
f 129/3/2 133/3/2 130/3/2
f 135/3/3 136/3/3 134/3/3
f 133/3/3 135/3/3 134/3/3
f 137/3/4 138/3/4 136/3/4
f 135/3/4 137/3/4 136/3/4
f 139/3/5 140/3/5 138/3/5
f 137/3/5 139/3/5 138/3/5
f 141/3/6 142/3/6 140/3/6
f 139/3/6 141/3/6 140/3/6
f 143/3/7 144/3/7 142/3/7
f 141/3/7 143/3/7 142/3/7
f 132/3/8 131/3/8 144/3/8
f 143/3/8 132/3/8 144/3/8
f 133/3/9 129/3/9 132/3/9
f 135/3/9 133/3/9 132/3/9
f 137/3/9 135/3/9 132/3/9
f 139/3/9 137/3/9 132/3/9
f 141/3/9 139/3/9 132/3/9
f 143/3/9 141/3/9 132/3/9
f 130/3/54 145/3/54 146/3/54
f 131/3/55 130/3/55 146/3/55
f 134/3/56 147/3/56 145/3/56
f 130/3/57 134/3/57 145/3/57
f 136/3/58 148/3/58 147/3/58
f 134/3/58 136/3/58 147/3/58
f 138/3/59 149/3/59 148/3/59
f 136/3/60 138/3/60 148/3/60
f 140/3/61 150/3/61 149/3/61
f 138/3/62 140/3/62 149/3/62
f 142/3/63 151/3/63 150/3/63
f 140/3/64 142/3/64 150/3/64
f 144/3/65 152/3/65 151/3/65
f 142/3/65 144/3/65 151/3/65
f 131/3/66 146/3/66 152/3/66
f 144/3/67 131/3/67 152/3/67
f 145/3/24 147/3/24 146/3/24
f 147/3/24 148/3/24 146/3/24
f 148/3/24 149/3/24 146/3/24
f 149/3/24 150/3/24 146/3/24
f 150/3/24 151/3/24 146/3/24
f 151/3/24 152/3/24 146/3/24
f 153/3/1 154/3/1 155/3/1
f 156/3/1 153/3/1 155/3/1
f 157/3/2 158/3/2 154/3/2
f 153/3/2 157/3/2 154/3/2
f 159/3/3 160/3/3 158/3/3
f 157/3/3 159/3/3 158/3/3
f 161/3/4 162/3/4 160/3/4
f 159/3/4 161/3/4 160/3/4
f 163/3/5 164/3/5 162/3/5
f 161/3/5 163/3/5 162/3/5
f 165/3/6 166/3/6 164/3/6
f 163/3/6 165/3/6 164/3/6
f 167/3/7 168/3/7 166/3/7
f 165/3/7 167/3/7 166/3/7
f 156/3/8 155/3/8 168/3/8
f 167/3/8 156/3/8 168/3/8
f 157/3/9 153/3/9 156/3/9
f 159/3/9 157/3/9 156/3/9
f 161/3/9 159/3/9 156/3/9
f 163/3/9 161/3/9 156/3/9
f 165/3/9 163/3/9 156/3/9
f 167/3/9 165/3/9 156/3/9
f 154/3/68 169/3/68 170/3/68
f 155/3/69 154/3/69 170/3/69
f 158/3/70 171/3/70 169/3/70
f 154/3/71 158/3/71 169/3/71
f 160/3/58 172/3/58 171/3/58
f 158/3/58 160/3/58 171/3/58
f 162/3/72 173/3/72 172/3/72
f 160/3/60 162/3/60 172/3/60
f 164/3/73 174/3/73 173/3/73
f 162/3/74 164/3/74 173/3/74
f 166/3/75 175/3/75 174/3/75
f 164/3/76 166/3/76 174/3/76
f 168/3/65 176/3/65 175/3/65
f 166/3/65 168/3/65 175/3/65
f 155/3/77 170/3/77 176/3/77
f 168/3/67 155/3/67 176/3/67
f 169/3/24 171/3/24 170/3/24
f 171/3/24 172/3/24 170/3/24
f 172/3/24 173/3/24 170/3/24
f 173/3/24 174/3/24 170/3/24
f 174/3/24 175/3/24 170/3/24
f 175/3/24 176/3/24 170/3/24
f 177/2/78 178/2/78 179/2/78
f 177/2/78 179/2/78 180/2/78
f 178/2/79 181/2/79 182/2/79
f 178/2/79 182/2/79 179/2/79
f 181/2/80 183/2/80 184/2/80
f 181/2/80 184/2/80 182/2/80
f 183/2/81 185/2/81 186/2/81
f 183/2/81 186/2/81 184/2/81
f 185/2/82 187/2/82 188/2/82
f 185/2/82 188/2/82 186/2/82
f 187/2/83 189/2/83 190/2/83
f 187/2/83 190/2/83 188/2/83
f 189/2/84 191/2/84 192/2/84
f 189/2/84 192/2/84 190/2/84
f 191/2/85 193/2/85 194/2/85
f 191/2/85 194/2/85 192/2/85
f 193/2/86 195/2/86 196/2/86
f 193/2/86 196/2/86 194/2/86
f 195/2/87 197/2/87 198/2/87
f 195/2/87 198/2/87 196/2/87
f 197/2/88 199/2/88 200/2/88
f 197/2/88 200/2/88 198/2/88
f 199/2/89 201/2/89 202/2/89
f 199/2/89 202/2/89 200/2/89
f 201/2/90 203/2/90 204/2/90
f 201/2/90 204/2/90 202/2/90
f 203/2/91 205/2/91 206/2/91
f 203/2/91 206/2/91 204/2/91
f 205/2/92 207/2/92 208/2/92
f 205/2/92 208/2/92 206/2/92
f 207/2/93 177/2/93 180/2/93
f 207/2/93 180/2/93 208/2/93
f 180/2/1 179/2/1 182/2/1
f 177/2/5 181/2/5 178/2/5
f 180/2/1 182/2/1 184/2/1
f 177/2/5 183/2/5 181/2/5
f 180/2/1 184/2/1 186/2/1
f 177/2/5 185/2/5 183/2/5
f 180/2/1 186/2/1 188/2/1
f 177/2/5 187/2/5 185/2/5
f 180/2/1 188/2/1 190/2/1
f 177/2/5 189/2/5 187/2/5
f 180/2/1 190/2/1 192/2/1
f 177/2/5 191/2/5 189/2/5
f 180/2/1 192/2/1 194/2/1
f 177/2/5 193/2/5 191/2/5
f 180/2/1 194/2/1 196/2/1
f 177/2/5 195/2/5 193/2/5
f 180/2/1 196/2/1 198/2/1
f 177/2/5 197/2/5 195/2/5
f 180/2/1 198/2/1 200/2/1
f 177/2/5 199/2/5 197/2/5
f 180/2/1 200/2/1 202/2/1
f 177/2/5 201/2/5 199/2/5
f 180/2/1 202/2/1 204/2/1
f 177/2/5 203/2/5 201/2/5
f 180/2/1 204/2/1 206/2/1
f 177/2/5 205/2/5 203/2/5
f 180/2/1 206/2/1 208/2/1
f 177/2/5 207/2/5 205/2/5
f 209/4/1 210/4/1 211/4/1
f 212/4/1 209/4/1 211/4/1
f 213/4/94 214/4/94 210/4/94
f 209/4/94 213/4/94 210/4/94
f 215/4/3 216/4/3 214/4/3
f 213/4/3 215/4/3 214/4/3
f 217/4/95 218/4/95 216/4/95
f 215/4/95 217/4/95 216/4/95
f 219/4/5 220/4/5 218/4/5
f 217/4/5 219/4/5 218/4/5
f 221/4/96 222/4/96 220/4/96
f 219/4/96 221/4/96 220/4/96
f 223/4/7 224/4/7 222/4/7
f 221/4/7 223/4/7 222/4/7
f 212/4/97 211/4/97 224/4/97
f 223/4/97 212/4/97 224/4/97
f 213/4/9 209/4/9 212/4/9
f 215/4/9 213/4/9 212/4/9
f 217/4/9 215/4/9 212/4/9
f 219/4/9 217/4/9 212/4/9
f 221/4/9 219/4/9 212/4/9
f 223/4/9 221/4/9 212/4/9
f 210/4/98 225/4/98 226/4/98
f 211/4/99 210/4/99 226/4/99
f 214/4/100 227/4/100 225/4/100
f 210/4/101 214/4/101 225/4/101
f 216/4/102 228/4/102 227/4/102
f 214/4/103 216/4/103 227/4/103
f 218/4/104 229/4/104 228/4/104
f 216/4/105 218/4/105 228/4/105
f 220/4/106 230/4/106 229/4/106
f 218/4/107 220/4/107 229/4/107
f 222/4/108 231/4/108 230/4/108
f 220/4/109 222/4/109 230/4/109
f 224/4/110 232/4/110 231/4/110
f 222/4/111 224/4/111 231/4/111
f 211/4/112 226/4/112 232/4/112
f 224/4/113 211/4/113 232/4/113
f 225/4/24 227/4/24 226/4/24
f 227/4/24 228/4/24 226/4/24
f 228/4/24 229/4/24 226/4/24
f 229/4/24 230/4/24 226/4/24
f 230/4/24 231/4/24 226/4/24
f 231/4/24 232/4/24 226/4/24
f 233/3/114 234/3/114 235/3/114
f 233/3/114 235/3/114 236/3/114
f 234/3/115 237/3/115 238/3/115
f 234/3/115 238/3/115 235/3/115
f 237/3/116 239/3/116 240/3/116
f 237/3/116 240/3/116 238/3/116
f 239/3/24 241/3/24 242/3/24
f 239/3/24 242/3/24 240/3/24
f 241/3/117 243/3/117 244/3/117
f 241/3/117 244/3/117 242/3/117
f 243/3/118 245/3/118 246/3/118
f 243/3/118 246/3/118 244/3/118
f 245/3/119 247/3/119 248/3/119
f 245/3/119 248/3/119 246/3/119
f 247/3/120 249/3/120 250/3/120
f 247/3/120 250/3/120 248/3/120
f 249/3/121 251/3/121 252/3/121
f 249/3/121 252/3/121 250/3/121
f 251/3/122 253/3/122 254/3/122
f 251/3/122 254/3/122 252/3/122
f 253/3/123 255/3/123 256/3/123
f 253/3/123 256/3/123 254/3/123
f 255/3/124 257/3/124 258/3/124
f 255/3/124 258/3/124 256/3/124
f 257/3/125 259/3/125 260/3/125
f 257/3/125 260/3/125 258/3/125
f 259/3/126 233/3/126 236/3/126
f 259/3/126 236/3/126 260/3/126
f 236/3/7 235/3/7 238/3/7
f 233/3/3 237/3/3 234/3/3
f 236/3/7 238/3/7 240/3/7
f 233/3/3 239/3/3 237/3/3
f 236/3/7 240/3/7 242/3/7
f 233/3/3 241/3/3 239/3/3
f 236/3/7 242/3/7 244/3/7
f 233/3/3 243/3/3 241/3/3
f 236/3/7 244/3/7 246/3/7
f 233/3/3 245/3/3 243/3/3
f 236/3/7 246/3/7 248/3/7
f 233/3/3 247/3/3 245/3/3
f 236/3/7 248/3/7 250/3/7
f 233/3/3 249/3/3 247/3/3
f 236/3/7 250/3/7 252/3/7
f 233/3/3 251/3/3 249/3/3
f 236/3/7 252/3/7 254/3/7
f 233/3/3 253/3/3 251/3/3
f 236/3/7 254/3/7 256/3/7
f 233/3/3 255/3/3 253/3/3
f 236/3/7 256/3/7 258/3/7
f 233/3/3 257/3/3 255/3/3
f 236/3/7 258/3/7 260/3/7
f 233/3/3 259/3/3 257/3/3
f 261/3/114 262/3/114 263/3/114
f 261/3/114 263/3/114 264/3/114
f 262/3/115 265/3/115 266/3/115
f 262/3/115 266/3/115 263/3/115
f 265/3/116 267/3/116 268/3/116
f 265/3/116 268/3/116 266/3/116
f 267/3/24 269/3/24 270/3/24
f 267/3/24 270/3/24 268/3/24
f 269/3/117 271/3/117 272/3/117
f 269/3/117 272/3/117 270/3/117
f 271/3/118 273/3/118 274/3/118
f 271/3/118 274/3/118 272/3/118
f 273/3/119 275/3/119 276/3/119
f 273/3/119 276/3/119 274/3/119
f 275/3/120 277/3/120 278/3/120
f 275/3/120 278/3/120 276/3/120
f 277/3/121 279/3/121 280/3/121
f 277/3/121 280/3/121 278/3/121
f 279/3/122 281/3/122 282/3/122
f 279/3/122 282/3/122 280/3/122
f 281/3/123 283/3/123 284/3/123
f 281/3/123 284/3/123 282/3/123
f 283/3/124 285/3/124 286/3/124
f 283/3/124 286/3/124 284/3/124
f 285/3/125 287/3/125 288/3/125
f 285/3/125 288/3/125 286/3/125
f 287/3/126 261/3/126 264/3/126
f 287/3/126 264/3/126 288/3/126
f 264/3/7 263/3/7 266/3/7
f 261/3/3 265/3/3 262/3/3
f 264/3/7 266/3/7 268/3/7
f 261/3/3 267/3/3 265/3/3
f 264/3/7 268/3/7 270/3/7
f 261/3/3 269/3/3 267/3/3
f 264/3/7 270/3/7 272/3/7
f 261/3/3 271/3/3 269/3/3
f 264/3/7 272/3/7 274/3/7
f 261/3/3 273/3/3 271/3/3
f 264/3/7 274/3/7 276/3/7
f 261/3/3 275/3/3 273/3/3
f 264/3/7 276/3/7 278/3/7
f 261/3/3 277/3/3 275/3/3
f 264/3/7 278/3/7 280/3/7
f 261/3/3 279/3/3 277/3/3
f 264/3/7 280/3/7 282/3/7
f 261/3/3 281/3/3 279/3/3
f 264/3/7 282/3/7 284/3/7
f 261/3/3 283/3/3 281/3/3
f 264/3/7 284/3/7 286/3/7
f 261/3/3 285/3/3 283/3/3
f 264/3/7 286/3/7 288/3/7
f 261/3/3 287/3/3 285/3/3
f 289/3/1 290/3/1 291/3/1
f 292/3/1 289/3/1 291/3/1
f 293/3/94 294/3/94 290/3/94
f 289/3/94 293/3/94 290/3/94
f 295/3/3 296/3/3 294/3/3
f 293/3/3 295/3/3 294/3/3
f 297/3/95 298/3/95 296/3/95
f 295/3/95 297/3/95 296/3/95
f 299/3/5 300/3/5 298/3/5
f 297/3/5 299/3/5 298/3/5
f 301/3/96 302/3/96 300/3/96
f 299/3/96 301/3/96 300/3/96
f 303/3/7 304/3/7 302/3/7
f 301/3/7 303/3/7 302/3/7
f 292/3/97 291/3/97 304/3/97
f 303/3/97 292/3/97 304/3/97
f 293/3/9 289/3/9 292/3/9
f 295/3/9 293/3/9 292/3/9
f 297/3/9 295/3/9 292/3/9
f 299/3/9 297/3/9 292/3/9
f 301/3/9 299/3/9 292/3/9
f 303/3/9 301/3/9 292/3/9
f 290/3/24 294/3/24 291/3/24
f 294/3/24 296/3/24 291/3/24
f 296/3/24 298/3/24 291/3/24
f 298/3/24 300/3/24 291/3/24
f 300/3/24 302/3/24 291/3/24
f 302/3/24 304/3/24 291/3/24
f 305/3/1 306/3/1 307/3/1
f 308/3/1 305/3/1 307/3/1
f 309/3/127 310/3/127 306/3/127
f 305/3/127 309/3/127 306/3/127
f 311/3/3 312/3/3 310/3/3
f 309/3/3 311/3/3 310/3/3
f 313/3/128 314/3/128 312/3/128
f 311/3/128 313/3/128 312/3/128
f 315/3/5 316/3/5 314/3/5
f 313/3/5 315/3/5 314/3/5
f 317/3/129 318/3/129 316/3/129
f 315/3/129 317/3/129 316/3/129
f 319/3/7 320/3/7 318/3/7
f 317/3/7 319/3/7 318/3/7
f 308/3/130 307/3/130 320/3/130
f 319/3/130 308/3/130 320/3/130
f 309/3/9 305/3/9 308/3/9
f 311/3/9 309/3/9 308/3/9
f 313/3/9 311/3/9 308/3/9
f 315/3/9 313/3/9 308/3/9
f 317/3/9 315/3/9 308/3/9
f 319/3/9 317/3/9 308/3/9
f 306/3/24 310/3/24 307/3/24
f 310/3/24 312/3/24 307/3/24
f 312/3/24 314/3/24 307/3/24
f 314/3/24 316/3/24 307/3/24
f 316/3/24 318/3/24 307/3/24
f 318/3/24 320/3/24 307/3/24
f 321/3/1 322/3/1 323/3/1
f 324/3/1 321/3/1 323/3/1
f 325/3/94 326/3/94 322/3/94
f 321/3/94 325/3/94 322/3/94
f 327/3/3 328/3/3 326/3/3
f 325/3/3 327/3/3 326/3/3
f 329/3/95 330/3/95 328/3/95
f 327/3/95 329/3/95 328/3/95
f 331/3/5 332/3/5 330/3/5
f 329/3/5 331/3/5 330/3/5
f 333/3/96 334/3/96 332/3/96
f 331/3/96 333/3/96 332/3/96
f 335/3/7 336/3/7 334/3/7
f 333/3/7 335/3/7 334/3/7
f 324/3/97 323/3/97 336/3/97
f 335/3/97 324/3/97 336/3/97
f 325/3/9 321/3/9 324/3/9
f 327/3/9 325/3/9 324/3/9
f 329/3/9 327/3/9 324/3/9
f 331/3/9 329/3/9 324/3/9
f 333/3/9 331/3/9 324/3/9
f 335/3/9 333/3/9 324/3/9
f 322/3/24 326/3/24 323/3/24
f 326/3/24 328/3/24 323/3/24
f 328/3/24 330/3/24 323/3/24
f 330/3/24 332/3/24 323/3/24
f 332/3/24 334/3/24 323/3/24
f 334/3/24 336/3/24 323/3/24
f 337/3/131 338/3/131 339/3/131
f 340/3/131 337/3/131 339/3/131
f 341/3/132 342/3/132 338/3/132
f 337/3/132 341/3/132 338/3/132
f 343/3/133 344/3/133 342/3/133
f 341/3/133 343/3/133 342/3/133
f 345/3/134 346/3/134 344/3/134
f 343/3/134 345/3/134 344/3/134
f 347/3/135 348/3/135 346/3/135
f 345/3/135 347/3/135 346/3/135
f 349/3/136 350/3/136 348/3/136
f 347/3/136 349/3/136 348/3/136
f 351/3/137 352/3/137 350/3/137
f 349/3/137 351/3/137 350/3/137
f 340/3/138 339/3/138 352/3/138
f 351/3/138 340/3/138 352/3/138
f 341/3/9 337/3/9 340/3/9
f 343/3/9 341/3/9 340/3/9
f 345/3/9 343/3/9 340/3/9
f 347/3/9 345/3/9 340/3/9
f 349/3/9 347/3/9 340/3/9
f 351/3/9 349/3/9 340/3/9
f 338/3/24 342/3/24 339/3/24
f 342/3/24 344/3/24 339/3/24
f 344/3/24 346/3/24 339/3/24
f 346/3/24 348/3/24 339/3/24
f 348/3/24 350/3/24 339/3/24
f 350/3/24 352/3/24 339/3/24
f 353/4/139 354/4/139 355/4/139
f 356/4/139 353/4/139 355/4/139
f 357/4/140 358/4/140 354/4/140
f 353/4/140 357/4/140 354/4/140
f 359/4/141 360/4/141 358/4/141
f 357/4/141 359/4/141 358/4/141
f 361/4/5 362/4/5 360/4/5
f 359/4/5 361/4/5 360/4/5
f 363/4/142 364/4/142 362/4/142
f 361/4/142 363/4/142 362/4/142
f 365/4/143 366/4/143 364/4/143
f 363/4/143 365/4/143 364/4/143
f 367/4/144 368/4/144 366/4/144
f 365/4/144 367/4/144 366/4/144
f 369/4/145 370/4/145 368/4/145
f 367/4/145 369/4/145 368/4/145
f 371/4/146 372/4/146 370/4/146
f 369/4/146 371/4/146 370/4/146
f 373/4/147 374/4/147 372/4/147
f 371/4/147 373/4/147 372/4/147
f 375/4/148 376/4/148 374/4/148
f 373/4/148 375/4/148 374/4/148
f 377/4/149 378/4/149 376/4/149
f 375/4/149 377/4/149 376/4/149
f 379/4/150 380/4/150 378/4/150
f 377/4/150 379/4/150 378/4/150
f 356/4/151 355/4/151 380/4/151
f 379/4/151 356/4/151 380/4/151
f 357/4/9 353/4/9 356/4/9
f 359/4/9 357/4/9 356/4/9
f 361/4/9 359/4/9 356/4/9
f 363/4/9 361/4/9 356/4/9
f 365/4/9 363/4/9 356/4/9
f 367/4/9 365/4/9 356/4/9
f 369/4/9 367/4/9 356/4/9
f 371/4/9 369/4/9 356/4/9
f 373/4/9 371/4/9 356/4/9
f 375/4/9 373/4/9 356/4/9
f 377/4/9 375/4/9 356/4/9
f 379/4/9 377/4/9 356/4/9
f 354/4/152 381/4/152 382/4/152
f 355/4/153 354/4/153 382/4/153
f 358/4/154 383/4/154 381/4/154
f 354/4/155 358/4/155 381/4/155
f 360/4/156 384/4/156 383/4/156
f 358/4/157 360/4/157 383/4/157
f 362/4/158 385/4/158 384/4/158
f 360/4/159 362/4/159 384/4/159
f 364/4/160 386/4/160 385/4/160
f 362/4/161 364/4/161 385/4/161
f 366/4/162 387/4/162 386/4/162
f 364/4/163 366/4/163 386/4/163
f 368/4/164 388/4/164 387/4/164
f 366/4/165 368/4/165 387/4/165
f 370/4/166 389/4/166 388/4/166
f 368/4/167 370/4/167 388/4/167
f 372/4/168 390/4/168 389/4/168
f 370/4/169 372/4/169 389/4/169
f 374/4/170 391/4/170 390/4/170
f 372/4/171 374/4/171 390/4/171
f 376/4/172 392/4/172 391/4/172
f 374/4/173 376/4/173 391/4/173
f 378/4/174 393/4/174 392/4/174
f 376/4/175 378/4/175 392/4/175
f 380/4/176 394/4/176 393/4/176
f 378/4/177 380/4/177 393/4/177
f 355/4/178 382/4/178 394/4/178
f 380/4/179 355/4/179 394/4/179
f 381/4/24 383/4/24 382/4/24
f 383/4/24 384/4/24 382/4/24
f 384/4/24 385/4/24 382/4/24
f 385/4/24 386/4/24 382/4/24
f 386/4/24 387/4/24 382/4/24
f 387/4/24 388/4/24 382/4/24
f 388/4/24 389/4/24 382/4/24
f 389/4/24 390/4/24 382/4/24
f 390/4/24 391/4/24 382/4/24
f 391/4/24 392/4/24 382/4/24
f 392/4/24 393/4/24 382/4/24
f 393/4/24 394/4/24 382/4/24
f 395/3/180 396/3/180 397/3/180
f 398/3/180 395/3/180 397/3/180
f 399/3/181 400/3/181 396/3/181
f 395/3/181 399/3/181 396/3/181
f 401/3/182 402/3/182 400/3/182
f 399/3/182 401/3/182 400/3/182
f 403/3/183 404/3/183 402/3/183
f 401/3/183 403/3/183 402/3/183
f 405/3/184 406/3/184 404/3/184
f 403/3/184 405/3/184 404/3/184
f 407/3/185 408/3/185 406/3/185
f 405/3/185 407/3/185 406/3/185
f 409/3/186 410/3/186 408/3/186
f 407/3/186 409/3/186 408/3/186
f 398/3/187 397/3/187 410/3/187
f 409/3/187 398/3/187 410/3/187
f 399/3/9 395/3/9 398/3/9
f 401/3/9 399/3/9 398/3/9
f 403/3/9 401/3/9 398/3/9
f 405/3/9 403/3/9 398/3/9
f 407/3/9 405/3/9 398/3/9
f 409/3/9 407/3/9 398/3/9
f 396/3/24 400/3/24 397/3/24
f 400/3/24 402/3/24 397/3/24
f 402/3/24 404/3/24 397/3/24
f 404/3/24 406/3/24 397/3/24
f 406/3/24 408/3/24 397/3/24
f 408/3/24 410/3/24 397/3/24
f 411/3/1 412/3/1 413/3/1
f 414/3/1 411/3/1 413/3/1
f 415/3/188 416/3/188 412/3/188
f 411/3/188 415/3/188 412/3/188
f 417/3/3 418/3/3 416/3/3
f 415/3/3 417/3/3 416/3/3
f 419/3/189 420/3/189 418/3/189
f 417/3/189 419/3/189 418/3/189
f 421/3/5 422/3/5 420/3/5
f 419/3/5 421/3/5 420/3/5
f 423/3/6 424/3/6 422/3/6
f 421/3/6 423/3/6 422/3/6
f 425/3/7 426/3/7 424/3/7
f 423/3/7 425/3/7 424/3/7
f 414/3/8 413/3/8 426/3/8
f 425/3/8 414/3/8 426/3/8
f 415/3/9 411/3/9 414/3/9
f 417/3/9 415/3/9 414/3/9
f 419/3/9 417/3/9 414/3/9
f 421/3/9 419/3/9 414/3/9
f 423/3/9 421/3/9 414/3/9
f 425/3/9 423/3/9 414/3/9
f 412/3/24 416/3/24 413/3/24
f 416/3/24 418/3/24 413/3/24
f 418/3/24 420/3/24 413/3/24
f 420/3/24 422/3/24 413/3/24
f 422/3/24 424/3/24 413/3/24
f 424/3/24 426/3/24 413/3/24
f 427/1/1 428/1/1 429/1/1
f 430/1/1 427/1/1 429/1/1
f 431/1/2 432/1/2 428/1/2
f 427/1/2 431/1/2 428/1/2
f 433/1/3 434/1/3 432/1/3
f 431/1/3 433/1/3 432/1/3
f 435/1/4 436/1/4 434/1/4
f 433/1/4 435/1/4 434/1/4
f 437/1/5 438/1/5 436/1/5
f 435/1/5 437/1/5 436/1/5
f 439/1/6 440/1/6 438/1/6
f 437/1/6 439/1/6 438/1/6
f 441/1/7 442/1/7 440/1/7
f 439/1/7 441/1/7 440/1/7
f 430/1/8 429/1/8 442/1/8
f 441/1/8 430/1/8 442/1/8
f 431/1/9 427/1/9 430/1/9
f 433/1/9 431/1/9 430/1/9
f 435/1/9 433/1/9 430/1/9
f 437/1/9 435/1/9 430/1/9
f 439/1/9 437/1/9 430/1/9
f 441/1/9 439/1/9 430/1/9
f 428/1/190 443/1/190 444/1/190
f 429/1/191 428/1/191 444/1/191
f 432/1/192 445/1/192 443/1/192
f 428/1/193 432/1/193 443/1/193
f 434/1/194 446/1/194 445/1/194
f 432/1/195 434/1/195 445/1/195
f 436/1/196 447/1/196 446/1/196
f 434/1/197 436/1/197 446/1/197
f 438/1/198 448/1/198 447/1/198
f 436/1/199 438/1/199 447/1/199
f 440/1/200 449/1/200 448/1/200
f 438/1/201 440/1/201 448/1/201
f 442/1/202 450/1/202 449/1/202
f 440/1/203 442/1/203 449/1/203
f 429/1/204 444/1/204 450/1/204
f 442/1/205 429/1/205 450/1/205
f 443/1/24 445/1/24 444/1/24
f 445/1/24 446/1/24 444/1/24
f 446/1/24 447/1/24 444/1/24
f 447/1/24 448/1/24 444/1/24
f 448/1/24 449/1/24 444/1/24
f 449/1/24 450/1/24 444/1/24
f 451/3/1 452/3/1 453/3/1
f 454/3/1 451/3/1 453/3/1
f 455/3/206 456/3/206 452/3/206
f 451/3/206 455/3/206 452/3/206
f 457/3/3 458/3/3 456/3/3
f 455/3/3 457/3/3 456/3/3
f 459/3/95 460/3/95 458/3/95
f 457/3/95 459/3/95 458/3/95
f 461/3/5 462/3/5 460/3/5
f 459/3/5 461/3/5 460/3/5
f 463/3/207 464/3/207 462/3/207
f 461/3/207 463/3/207 462/3/207
f 465/3/7 466/3/7 464/3/7
f 463/3/7 465/3/7 464/3/7
f 454/3/8 453/3/8 466/3/8
f 465/3/8 454/3/8 466/3/8
f 455/3/9 451/3/9 454/3/9
f 457/3/9 455/3/9 454/3/9
f 459/3/9 457/3/9 454/3/9
f 461/3/9 459/3/9 454/3/9
f 463/3/9 461/3/9 454/3/9
f 465/3/9 463/3/9 454/3/9
f 452/3/208 467/3/208 468/3/208
f 453/3/209 452/3/209 468/3/209
f 456/3/210 469/3/210 467/3/210
f 452/3/211 456/3/211 467/3/211
f 458/3/212 470/3/212 469/3/212
f 456/3/213 458/3/213 469/3/213
f 460/3/214 471/3/214 470/3/214
f 458/3/215 460/3/215 470/3/215
f 462/3/216 472/3/216 471/3/216
f 460/3/217 462/3/217 471/3/217
f 464/3/218 473/3/218 472/3/218
f 462/3/219 464/3/219 472/3/219
f 466/3/220 474/3/220 473/3/220
f 464/3/221 466/3/221 473/3/221
f 453/3/222 468/3/222 474/3/222
f 466/3/223 453/3/223 474/3/223
f 467/3/24 469/3/24 468/3/24
f 469/3/24 470/3/24 468/3/24
f 470/3/24 471/3/24 468/3/24
f 471/3/24 472/3/24 468/3/24
f 472/3/24 473/3/24 468/3/24
f 473/3/24 474/3/24 468/3/24
f 475/3/1 476/3/1 477/3/1
f 478/3/1 475/3/1 477/3/1
f 479/3/94 480/3/94 476/3/94
f 475/3/94 479/3/94 476/3/94
f 481/3/3 482/3/3 480/3/3
f 479/3/3 481/3/3 480/3/3
f 483/3/95 484/3/95 482/3/95
f 481/3/95 483/3/95 482/3/95
f 485/3/5 486/3/5 484/3/5
f 483/3/5 485/3/5 484/3/5
f 487/3/96 488/3/96 486/3/96
f 485/3/96 487/3/96 486/3/96
f 489/3/7 490/3/7 488/3/7
f 487/3/7 489/3/7 488/3/7
f 478/3/97 477/3/97 490/3/97
f 489/3/97 478/3/97 490/3/97
f 479/3/9 475/3/9 478/3/9
f 481/3/9 479/3/9 478/3/9
f 483/3/9 481/3/9 478/3/9
f 485/3/9 483/3/9 478/3/9
f 487/3/9 485/3/9 478/3/9
f 489/3/9 487/3/9 478/3/9
f 476/3/24 480/3/24 477/3/24
f 480/3/24 482/3/24 477/3/24
f 482/3/24 484/3/24 477/3/24
f 484/3/24 486/3/24 477/3/24
f 486/3/24 488/3/24 477/3/24
f 488/3/24 490/3/24 477/3/24
f 491/3/1 492/3/1 493/3/1
f 494/3/1 491/3/1 493/3/1
f 495/3/94 496/3/94 492/3/94
f 491/3/94 495/3/94 492/3/94
f 497/3/3 498/3/3 496/3/3
f 495/3/3 497/3/3 496/3/3
f 499/3/95 500/3/95 498/3/95
f 497/3/95 499/3/95 498/3/95
f 501/3/5 502/3/5 500/3/5
f 499/3/5 501/3/5 500/3/5
f 503/3/96 504/3/96 502/3/96
f 501/3/96 503/3/96 502/3/96
f 505/3/7 506/3/7 504/3/7
f 503/3/7 505/3/7 504/3/7
f 494/3/97 493/3/97 506/3/97
f 505/3/97 494/3/97 506/3/97
f 495/3/9 491/3/9 494/3/9
f 497/3/9 495/3/9 494/3/9
f 499/3/9 497/3/9 494/3/9
f 501/3/9 499/3/9 494/3/9
f 503/3/9 501/3/9 494/3/9
f 505/3/9 503/3/9 494/3/9
f 492/3/24 496/3/24 493/3/24
f 496/3/24 498/3/24 493/3/24
f 498/3/24 500/3/24 493/3/24
f 500/3/24 502/3/24 493/3/24
f 502/3/24 504/3/24 493/3/24
f 504/3/24 506/3/24 493/3/24
f 507/3/1 508/3/1 509/3/1
f 510/3/1 507/3/1 509/3/1
f 511/3/94 512/3/94 508/3/94
f 507/3/94 511/3/94 508/3/94
f 513/3/3 514/3/3 512/3/3
f 511/3/3 513/3/3 512/3/3
f 515/3/95 516/3/95 514/3/95
f 513/3/95 515/3/95 514/3/95
f 517/3/5 518/3/5 516/3/5
f 515/3/5 517/3/5 516/3/5
f 519/3/96 520/3/96 518/3/96
f 517/3/96 519/3/96 518/3/96
f 521/3/7 522/3/7 520/3/7
f 519/3/7 521/3/7 520/3/7
f 510/3/97 509/3/97 522/3/97
f 521/3/97 510/3/97 522/3/97
f 511/3/9 507/3/9 510/3/9
f 513/3/9 511/3/9 510/3/9
f 515/3/9 513/3/9 510/3/9
f 517/3/9 515/3/9 510/3/9
f 519/3/9 517/3/9 510/3/9
f 521/3/9 519/3/9 510/3/9
f 508/3/24 512/3/24 509/3/24
f 512/3/24 514/3/24 509/3/24
f 514/3/24 516/3/24 509/3/24
f 516/3/24 518/3/24 509/3/24
f 518/3/24 520/3/24 509/3/24
f 520/3/24 522/3/24 509/3/24
f 523/3/1 524/3/1 525/3/1
f 526/3/1 523/3/1 525/3/1
f 527/3/94 528/3/94 524/3/94
f 523/3/94 527/3/94 524/3/94
f 529/3/3 530/3/3 528/3/3
f 527/3/3 529/3/3 528/3/3
f 531/3/95 532/3/95 530/3/95
f 529/3/95 531/3/95 530/3/95
f 533/3/5 534/3/5 532/3/5
f 531/3/5 533/3/5 532/3/5
f 535/3/96 536/3/96 534/3/96
f 533/3/96 535/3/96 534/3/96
f 537/3/7 538/3/7 536/3/7
f 535/3/7 537/3/7 536/3/7
f 526/3/97 525/3/97 538/3/97
f 537/3/97 526/3/97 538/3/97
f 527/3/9 523/3/9 526/3/9
f 529/3/9 527/3/9 526/3/9
f 531/3/9 529/3/9 526/3/9
f 533/3/9 531/3/9 526/3/9
f 535/3/9 533/3/9 526/3/9
f 537/3/9 535/3/9 526/3/9
f 524/3/24 528/3/24 525/3/24
f 528/3/24 530/3/24 525/3/24
f 530/3/24 532/3/24 525/3/24
f 532/3/24 534/3/24 525/3/24
f 534/3/24 536/3/24 525/3/24
f 536/3/24 538/3/24 525/3/24
